<svg width="24" height="24" viewBox="0 0 24 24" fill="none" xmlns="http://www.w3.org/2000/svg">
<path d="M21.4491 4.71938C21.3481 4.48574 21.1805 4.28701 20.9673 4.14797C20.754 4.00893 20.5046 3.93573 20.2501 3.9375H3.75005C3.49597 3.93799 3.24749 4.01221 3.03476 4.15117C2.82204 4.29013 2.65423 4.48785 2.55169 4.72032C2.44915 4.9528 2.41629 5.21004 2.45711 5.46083C2.49792 5.71161 2.61065 5.94516 2.78162 6.13313L2.78724 6.13875L9.18755 12.9731V20.25C9.18777 20.4874 9.25237 20.7203 9.37448 20.9239C9.49659 21.1275 9.67163 21.2942 9.88097 21.4061C10.0903 21.5181 10.3261 21.5712 10.5632 21.5598C10.8004 21.5484 11.03 21.4728 11.2276 21.3413L14.2276 19.3416C14.4075 19.2218 14.555 19.0594 14.657 18.8688C14.7591 18.6783 14.8125 18.4655 14.8126 18.2494V12.9731L21.2194 6.12938C21.3916 5.94268 21.5051 5.70953 21.546 5.45886C21.5868 5.2082 21.5531 4.95106 21.4491 4.71938ZM20.3935 5.37L13.8404 12.3656C13.7425 12.4697 13.6878 12.6071 13.6876 12.75V18.2494C13.6877 18.2803 13.6801 18.3108 13.6655 18.3382C13.651 18.3655 13.6299 18.3888 13.6041 18.4059L10.6041 20.4056C10.5759 20.4244 10.5431 20.4353 10.5092 20.4369C10.4754 20.4386 10.4417 20.431 10.4118 20.4151C10.3818 20.3991 10.3568 20.3753 10.3393 20.3462C10.3219 20.3172 10.3126 20.2839 10.3126 20.25V12.75C10.3125 12.6072 10.2582 12.4698 10.1607 12.3656L3.61224 5.37375C3.58735 5.34759 3.57104 5.31444 3.56552 5.27875C3.55999 5.24306 3.56549 5.20653 3.5813 5.17406C3.59491 5.14062 3.6183 5.11208 3.64841 5.09217C3.67853 5.07226 3.71396 5.06192 3.75005 5.0625H20.2501C20.2865 5.0614 20.3224 5.07151 20.3529 5.09146C20.3834 5.11141 20.4071 5.14024 20.4207 5.17406C20.4364 5.20566 20.4422 5.24127 20.4374 5.27623C20.4325 5.31119 20.4172 5.34387 20.3935 5.37ZM22.8976 19.8534C22.9528 19.9049 22.9971 19.967 23.0279 20.036C23.0586 20.105 23.0752 20.1795 23.0765 20.255C23.0778 20.3306 23.0639 20.4056 23.0356 20.4756C23.0074 20.5457 22.9652 20.6093 22.9118 20.6627C22.8584 20.7161 22.7948 20.7582 22.7248 20.7865C22.6547 20.8148 22.5797 20.8287 22.5042 20.8274C22.4286 20.826 22.3541 20.8095 22.2851 20.7788C22.2161 20.748 22.154 20.7037 22.1026 20.6484L20.2501 18.7959L18.3985 20.6484C18.2928 20.7526 18.1502 20.8107 18.0018 20.8102C17.8534 20.8097 17.7112 20.7506 17.6062 20.6457C17.5012 20.5408 17.4419 20.3987 17.4413 20.2503C17.4406 20.1019 17.4985 19.9593 17.6026 19.8534L19.4551 18L17.6026 16.1475C17.497 16.042 17.4377 15.8988 17.4377 15.7495C17.4377 15.6003 17.497 15.4571 17.6026 15.3516C17.7081 15.246 17.8513 15.1867 18.0005 15.1867C18.1498 15.1867 18.2929 15.246 18.3985 15.3516L20.2501 17.205L22.1026 15.3525C22.2084 15.2485 22.351 15.1905 22.4994 15.1912C22.6478 15.1919 22.7899 15.2512 22.8948 15.3562C22.9997 15.4612 23.0588 15.6034 23.0593 15.7517C23.0598 15.9001 23.0017 16.0427 22.8976 16.1484L21.046 18L22.8976 19.8534Z" fill="white"/>
</svg>
