<svg width="24" height="24" viewBox="0 0 24 24" fill="none" xmlns="http://www.w3.org/2000/svg">
<path d="M5.8125 9.99375V3.75C5.8125 3.60082 5.75324 3.45774 5.64775 3.35225C5.54226 3.24676 5.39918 3.1875 5.25 3.1875C5.10082 3.1875 4.95774 3.24676 4.85225 3.35225C4.74676 3.45774 4.6875 3.60082 4.6875 3.75V9.99375C4.05171 10.1229 3.48011 10.4678 3.06954 10.9701C2.65897 11.4724 2.43468 12.1012 2.43468 12.75C2.43468 13.3988 2.65897 14.0276 3.06954 14.5299C3.48011 15.0322 4.05171 15.3771 4.6875 15.5062V20.25C4.6875 20.3992 4.74676 20.5423 4.85225 20.6477C4.95774 20.7532 5.10082 20.8125 5.25 20.8125C5.39918 20.8125 5.54226 20.7532 5.64775 20.6477C5.75324 20.5423 5.8125 20.3992 5.8125 20.25V15.5062C6.44829 15.3771 7.01989 15.0322 7.43046 14.5299C7.84103 14.0276 8.06532 13.3988 8.06532 12.75C8.06532 12.1012 7.84103 11.4724 7.43046 10.9701C7.01989 10.4678 6.44829 10.1229 5.8125 9.99375ZM5.25 14.4375C4.91624 14.4375 4.58998 14.3385 4.31248 14.1531C4.03497 13.9677 3.81868 13.7041 3.69095 13.3958C3.56323 13.0874 3.52981 12.7481 3.59493 12.4208C3.66004 12.0934 3.82076 11.7928 4.05676 11.5568C4.29276 11.3208 4.59344 11.16 4.92079 11.0949C5.24813 11.0298 5.58743 11.0632 5.89578 11.191C6.20413 11.3187 6.46768 11.535 6.65311 11.8125C6.83853 12.09 6.9375 12.4162 6.9375 12.75C6.9375 13.1976 6.75971 13.6268 6.44324 13.9432C6.12678 14.2597 5.69755 14.4375 5.25 14.4375ZM12.5625 5.49375V3.75C12.5625 3.60082 12.5032 3.45774 12.3977 3.35225C12.2923 3.24676 12.1492 3.1875 12 3.1875C11.8508 3.1875 11.7077 3.24676 11.6023 3.35225C11.4968 3.45774 11.4375 3.60082 11.4375 3.75V5.49375C10.8017 5.62285 10.2301 5.96779 9.81954 6.4701C9.40897 6.97242 9.18468 7.60124 9.18468 8.25C9.18468 8.89876 9.40897 9.52758 9.81954 10.0299C10.2301 10.5322 10.8017 10.8771 11.4375 11.0063V20.25C11.4375 20.3992 11.4968 20.5423 11.6023 20.6477C11.7077 20.7532 11.8508 20.8125 12 20.8125C12.1492 20.8125 12.2923 20.7532 12.3977 20.6477C12.5032 20.5423 12.5625 20.3992 12.5625 20.25V11.0063C13.1983 10.8771 13.7699 10.5322 14.1805 10.0299C14.591 9.52758 14.8153 8.89876 14.8153 8.25C14.8153 7.60124 14.591 6.97242 14.1805 6.4701C13.7699 5.96779 13.1983 5.62285 12.5625 5.49375ZM12 9.9375C11.6662 9.9375 11.34 9.83853 11.0625 9.6531C10.785 9.46768 10.5687 9.20413 10.441 8.89578C10.3132 8.58743 10.2798 8.24813 10.3449 7.92078C10.41 7.59344 10.5708 7.29276 10.8068 7.05676C11.0428 6.82076 11.3434 6.66004 11.6708 6.59492C11.9981 6.52981 12.3374 6.56323 12.6458 6.69095C12.9541 6.81868 13.2177 7.03497 13.4031 7.31248C13.5885 7.58998 13.6875 7.91624 13.6875 8.25C13.6875 8.69755 13.5097 9.12677 13.1932 9.44324C12.8768 9.75971 12.4476 9.9375 12 9.9375ZM21.5625 15.75C21.5618 15.1019 21.3375 14.4738 20.9277 13.9717C20.5178 13.4696 19.9474 13.1242 19.3125 12.9938V3.75C19.3125 3.60082 19.2532 3.45774 19.1477 3.35225C19.0423 3.24676 18.8992 3.1875 18.75 3.1875C18.6008 3.1875 18.4577 3.24676 18.3523 3.35225C18.2468 3.45774 18.1875 3.60082 18.1875 3.75V12.9938C17.5517 13.1229 16.9801 13.4678 16.5695 13.9701C16.159 14.4724 15.9347 15.1012 15.9347 15.75C15.9347 16.3988 16.159 17.0276 16.5695 17.5299C16.9801 18.0322 17.5517 18.3771 18.1875 18.5062V20.25C18.1875 20.3992 18.2468 20.5423 18.3523 20.6477C18.4577 20.7532 18.6008 20.8125 18.75 20.8125C18.8992 20.8125 19.0423 20.7532 19.1477 20.6477C19.2532 20.5423 19.3125 20.3992 19.3125 20.25V18.5062C19.9474 18.3758 20.5178 18.0304 20.9277 17.5283C21.3375 17.0262 21.5618 16.3981 21.5625 15.75ZM18.75 17.4375C18.4162 17.4375 18.09 17.3385 17.8125 17.1531C17.535 16.9677 17.3187 16.7041 17.191 16.3958C17.0632 16.0874 17.0298 15.7481 17.0949 15.4208C17.16 15.0934 17.3208 14.7928 17.5568 14.5568C17.7928 14.3208 18.0934 14.16 18.4208 14.0949C18.7481 14.0298 19.0874 14.0632 19.3958 14.191C19.7041 14.3187 19.9677 14.535 20.1531 14.8125C20.3385 15.09 20.4375 15.4162 20.4375 15.75C20.4375 16.1976 20.2597 16.6268 19.9432 16.9432C19.6268 17.2597 19.1976 17.4375 18.75 17.4375Z" fill="white"/>
</svg>
