<svg width="24" height="24" viewBox="0 0 24 24" fill="none" xmlns="http://www.w3.org/2000/svg">
<path d="M3.75 8.0625H6.99375C7.12285 8.69828 7.46779 9.26989 7.9701 9.68046C8.47242 10.091 9.10124 10.3153 9.75 10.3153C10.3988 10.3153 11.0276 10.091 11.5299 9.68046C12.0322 9.26989 12.3771 8.69828 12.5062 8.0625H20.25C20.3992 8.0625 20.5423 8.00323 20.6477 7.89774C20.7532 7.79225 20.8125 7.64918 20.8125 7.5C20.8125 7.35081 20.7532 7.20774 20.6477 7.10225C20.5423 6.99676 20.3992 6.9375 20.25 6.9375H12.5062C12.3771 6.30171 12.0322 5.7301 11.5299 5.31953C11.0276 4.90896 10.3988 4.68468 9.75 4.68468C9.10124 4.68468 8.47242 4.90896 7.9701 5.31953C7.46779 5.7301 7.12285 6.30171 6.99375 6.9375H3.75C3.60082 6.9375 3.45774 6.99676 3.35225 7.10225C3.24676 7.20774 3.1875 7.35081 3.1875 7.5C3.1875 7.64918 3.24676 7.79225 3.35225 7.89774C3.45774 8.00323 3.60082 8.0625 3.75 8.0625ZM9.75 5.8125C10.0838 5.8125 10.41 5.91147 10.6875 6.09689C10.965 6.28232 11.1813 6.54587 11.309 6.85422C11.4368 7.16257 11.4702 7.50187 11.4051 7.82921C11.34 8.15655 11.1792 8.45724 10.9432 8.69324C10.7072 8.92924 10.4066 9.08996 10.0792 9.15507C9.75187 9.22018 9.41257 9.18677 9.10422 9.05904C8.79587 8.93132 8.53232 8.71503 8.3469 8.43752C8.16147 8.16001 8.0625 7.83375 8.0625 7.5C8.0625 7.05244 8.24029 6.62322 8.55676 6.30675C8.87323 5.99029 9.30245 5.8125 9.75 5.8125ZM20.25 15.9375H18.5062C18.3771 15.3017 18.0322 14.7301 17.5299 14.3195C17.0276 13.909 16.3988 13.6847 15.75 13.6847C15.1012 13.6847 14.4724 13.909 13.9701 14.3195C13.4678 14.7301 13.1229 15.3017 12.9938 15.9375H3.75C3.60082 15.9375 3.45774 15.9968 3.35225 16.1022C3.24676 16.2077 3.1875 16.3508 3.1875 16.5C3.1875 16.6492 3.24676 16.7923 3.35225 16.8977C3.45774 17.0032 3.60082 17.0625 3.75 17.0625H12.9938C13.1229 17.6983 13.4678 18.2699 13.9701 18.6805C14.4724 19.091 15.1012 19.3153 15.75 19.3153C16.3988 19.3153 17.0276 19.091 17.5299 18.6805C18.0322 18.2699 18.3771 17.6983 18.5062 17.0625H20.25C20.3992 17.0625 20.5423 17.0032 20.6477 16.8977C20.7532 16.7923 20.8125 16.6492 20.8125 16.5C20.8125 16.3508 20.7532 16.2077 20.6477 16.1022C20.5423 15.9968 20.3992 15.9375 20.25 15.9375ZM15.75 18.1875C15.4162 18.1875 15.09 18.0885 14.8125 17.9031C14.535 17.7177 14.3187 17.4541 14.191 17.1458C14.0632 16.8374 14.0298 16.4981 14.0949 16.1708C14.16 15.8434 14.3208 15.5428 14.5568 15.3068C14.7928 15.0708 15.0934 14.91 15.4208 14.8449C15.7481 14.7798 16.0874 14.8132 16.3958 14.9409C16.7041 15.0687 16.9677 15.285 17.1531 15.5625C17.3385 15.84 17.4375 16.1662 17.4375 16.5C17.4375 16.9475 17.2597 17.3768 16.9432 17.6932C16.6268 18.0097 16.1976 18.1875 15.75 18.1875Z" fill="white"/>
</svg>
