<svg width="20" height="20" viewBox="0 0 20 20" fill="none" xmlns="http://www.w3.org/2000/svg">
<path d="M14.1406 8.64031L10.3906 12.3903C10.3558 12.4252 10.3144 12.4528 10.2689 12.4717C10.2234 12.4906 10.1746 12.5003 10.1253 12.5003C10.076 12.5003 10.0272 12.4906 9.98169 12.4717C9.93617 12.4528 9.89481 12.4252 9.85998 12.3903L6.10998 8.64031C6.05748 8.58787 6.02172 8.52102 6.00722 8.44824C5.99273 8.37546 6.00015 8.30001 6.02856 8.23145C6.05697 8.16289 6.10508 8.10431 6.1668 8.0631C6.22852 8.0219 6.30108 7.99994 6.3753 8L13.8753 8C13.9495 7.99994 14.0221 8.0219 14.0838 8.0631C14.1455 8.10431 14.1936 8.16289 14.222 8.23145C14.2504 8.30001 14.2579 8.37546 14.2434 8.44824C14.2289 8.52102 14.1931 8.58787 14.1406 8.64031Z" fill="#050505"/>
</svg>
