<svg width="12" height="12" viewBox="0 0 12 12" fill="none" xmlns="http://www.w3.org/2000/svg">
<path d="M10.8755 3.75053L10.8756 3.75064L10.8817 3.74418C10.9755 3.64348 11.0266 3.51028 11.0242 3.37265C11.0217 3.23502 10.966 3.1037 10.8686 3.00637C10.7713 2.90903 10.64 2.85328 10.5024 2.85085C10.3647 2.84842 10.2315 2.89951 10.1308 2.99335L10.1307 2.99324L10.1245 2.99947L4.49999 8.62351L2.25051 6.37446L2.25062 6.37435L2.24418 6.36835C2.14347 6.27451 2.01027 6.22342 1.87264 6.22585C1.73501 6.22828 1.6037 6.28403 1.50636 6.38137C1.40903 6.4787 1.35328 6.61002 1.35085 6.74765C1.34842 6.88528 1.39951 7.01848 1.49335 7.11918L1.49323 7.11929L1.49947 7.12553L4.12447 9.75053L4.12458 9.75064C4.22419 9.85013 4.35922 9.90601 4.5 9.90601C4.64078 9.90601 4.77581 9.85013 4.87542 9.75064L4.87553 9.75053L10.8755 3.75053Z" fill="#050505" stroke="#050505" stroke-width="0.5"/>
</svg>
