<svg width="20" height="20" viewBox="0 0 20 20" fill="none" xmlns="http://www.w3.org/2000/svg">
<path d="M16.875 2.65625H6.875C6.75068 2.65625 6.63145 2.70564 6.54354 2.79354C6.45564 2.88145 6.40625 3.00068 6.40625 3.125V6.40625H3.125C3.00068 6.40625 2.88145 6.45564 2.79354 6.54354C2.70564 6.63145 2.65625 6.75068 2.65625 6.875V16.875C2.65625 16.9993 2.70564 17.1185 2.79354 17.2065C2.88145 17.2944 3.00068 17.3438 3.125 17.3438H13.125C13.2493 17.3438 13.3685 17.2944 13.4565 17.2065C13.5444 17.1185 13.5938 16.9993 13.5938 16.875V13.5938H16.875C16.9993 13.5938 17.1185 13.5444 17.2065 13.4565C17.2944 13.3685 17.3438 13.2493 17.3438 13.125V3.125C17.3438 3.00068 17.2944 2.88145 17.2065 2.79354C17.1185 2.70564 16.9993 2.65625 16.875 2.65625ZM12.6562 16.4062H3.59375V7.34375H12.6562V16.4062ZM16.4062 12.6562H13.5938V6.875C13.5938 6.75068 13.5444 6.63145 13.4565 6.54354C13.3685 6.45564 13.2493 6.40625 13.125 6.40625H7.34375V3.59375H16.4062V12.6562Z" fill="white"/>
</svg>
