<svg width="28" height="28" viewBox="0 0 28 28" fill="none" xmlns="http://www.w3.org/2000/svg">
<g clip-path="url(#clip0_88_2807)">
<path d="M19.4688 4.59375C17.1719 4.59375 15.1747 5.62953 14 7.36531C12.8253 5.62953 10.8281 4.59375 8.53125 4.59375C6.79139 4.59578 5.12337 5.28783 3.8931 6.5181C2.66283 7.74837 1.97078 9.41639 1.96875 11.1562C1.96875 14.35 3.95937 17.6739 7.88594 21.0339C9.68521 22.5671 11.6288 23.9224 13.6894 25.0808C13.7849 25.1321 13.8916 25.159 14 25.159C14.1084 25.159 14.2151 25.1321 14.3106 25.0808C16.3712 23.9224 18.3148 22.5671 20.1141 21.0339C24.0406 17.6739 26.0312 14.35 26.0312 11.1562C26.0292 9.41639 25.3372 7.74837 24.1069 6.5181C22.8766 5.28783 21.2086 4.59578 19.4688 4.59375ZM14 23.7464C12.2052 22.7106 3.28125 17.2506 3.28125 11.1562C3.2827 9.76431 3.83629 8.42979 4.82054 7.44554C5.80479 6.46129 7.13931 5.9077 8.53125 5.90625C10.7494 5.90625 12.612 7.09078 13.393 8.99828C13.4424 9.11864 13.5265 9.22159 13.6346 9.29404C13.7427 9.36649 13.8699 9.40518 14 9.40518C14.1301 9.40518 14.2573 9.36649 14.3654 9.29404C14.4735 9.22159 14.5576 9.11864 14.607 8.99828C15.388 7.09078 17.2506 5.90625 19.4688 5.90625C20.8607 5.9077 22.1952 6.46129 23.1795 7.44554C24.1637 8.42979 24.7173 9.76431 24.7188 11.1562C24.7188 17.2506 15.7948 22.7106 14 23.7464Z" fill="white"/>
<path d="M26.25 11.1562C26.25 18.8125 14.898 25.0097 14.4145 25.2656C14.2871 25.3342 14.1447 25.37 14 25.37C13.8553 25.37 13.7129 25.3342 13.5855 25.2656C13.102 25.0097 1.75 18.8125 1.75 11.1562C1.75203 9.35837 2.46713 7.63471 3.73842 6.36342C5.00971 5.09213 6.73337 4.37703 8.53125 4.375C10.7898 4.375 12.7673 5.34625 14 6.98797C15.2327 5.34625 17.2102 4.375 19.4688 4.375C21.2666 4.37703 22.9903 5.09213 24.2616 6.36342C25.5329 7.63471 26.248 9.35837 26.25 11.1562Z" fill="white"/>
</g>
<defs>
<clipPath id="clip0_88_2807">
<rect width="28" height="28" fill="white"/>
</clipPath>
</defs>
</svg>
