<svg width="20" height="20" viewBox="0 0 20 20" fill="none" xmlns="http://www.w3.org/2000/svg">
<path d="M17.8727 3.93281C17.7888 3.73817 17.6495 3.57256 17.472 3.45668C17.2946 3.34079 17.0869 3.27977 16.875 3.28125H3.12501C2.91328 3.28165 2.70621 3.34351 2.52894 3.4593C2.35167 3.5751 2.21183 3.73987 2.12638 3.9336C2.04093 4.12733 2.01355 4.34169 2.04756 4.55068C2.08157 4.75967 2.17551 4.9543 2.31798 5.11093L2.32267 5.1164L7.65626 10.8109V16.875C7.65635 17.073 7.71016 17.2672 7.81195 17.437C7.91375 17.6068 8.05972 17.7457 8.2343 17.8391C8.40887 17.9324 8.60551 17.9766 8.80323 17.967C9.00096 17.9574 9.19237 17.8942 9.35704 17.7844L11.857 16.118C12.0068 16.018 12.1296 15.8827 12.2145 15.7239C12.2994 15.5651 12.3438 15.3879 12.3438 15.2078V10.8109L17.682 5.10781C17.8255 4.95219 17.92 4.75786 17.9539 4.54895C17.9878 4.34005 17.9596 4.12579 17.8727 3.93281ZM16.993 4.475L11.5328 10.3047C11.4515 10.3915 11.4063 10.506 11.4063 10.625V15.2078C11.4063 15.2336 11.4 15.259 11.3879 15.2818C11.3758 15.3046 11.3582 15.324 11.3367 15.3383L8.83673 17.0047C8.81322 17.0204 8.7859 17.0294 8.75767 17.0308C8.72944 17.0322 8.70137 17.0259 8.67644 17.0125C8.65151 16.9992 8.63065 16.9794 8.61609 16.9552C8.60153 16.931 8.59382 16.9033 8.59376 16.875V10.625C8.59375 10.506 8.54851 10.3915 8.4672 10.3047L3.01017 4.47812C2.99048 4.45571 2.97761 4.42813 2.97309 4.39865C2.96857 4.36916 2.97259 4.33899 2.98467 4.31172C2.99674 4.28444 3.01638 4.26119 3.04125 4.24471C3.06612 4.22824 3.09519 4.21923 3.12501 4.21875H16.875C16.9055 4.21767 16.9356 4.22601 16.9612 4.24265C16.9868 4.25929 17.0066 4.2834 17.018 4.31171C17.0309 4.33825 17.0354 4.36809 17.0309 4.39725C17.0265 4.42642 17.0132 4.45354 16.993 4.475Z" fill="white"/>
</svg>
