<svg width="20" height="20" viewBox="0 0 20 20" fill="none" xmlns="http://www.w3.org/2000/svg">
<path d="M17.8312 17.1688L13.8172 13.1547C14.9618 11.8383 15.5507 10.1289 15.4596 8.38685C15.3685 6.64478 14.6046 5.00613 13.3289 3.81632C12.0531 2.62651 10.3653 1.97849 8.62111 2.00887C6.87692 2.03925 5.21267 2.74565 3.97915 3.97916C2.74564 5.21267 2.03924 6.87693 2.00886 8.62112C1.97849 10.3653 2.6265 12.0532 3.81631 13.3289C5.00612 14.6046 6.64477 15.3685 8.38685 15.4596C10.1289 15.5507 11.8383 14.9619 13.1547 13.8172L17.1687 17.8313C17.2576 17.9141 17.3751 17.9591 17.4966 17.957C17.618 17.9548 17.7339 17.9056 17.8198 17.8198C17.9056 17.7339 17.9548 17.618 17.957 17.4966C17.9591 17.3751 17.914 17.2576 17.8312 17.1688ZM2.96874 8.75C2.96874 7.60658 3.30781 6.48883 3.94306 5.53811C4.57831 4.58739 5.48122 3.84639 6.5376 3.40882C7.59399 2.97125 8.75641 2.85677 9.87786 3.07984C10.9993 3.30291 12.0294 3.85352 12.838 4.66204C13.6465 5.47056 14.1971 6.50068 14.4202 7.62214C14.6432 8.74359 14.5287 9.906 14.0912 10.9624C13.6536 12.0188 12.9126 12.9217 11.9619 13.5569C11.0112 14.1922 9.89342 14.5313 8.74999 14.5313C7.21728 14.5294 5.74788 13.9197 4.66409 12.8359C3.5803 11.7521 2.9706 10.2827 2.96874 8.75Z" fill="#909090"/>
</svg>
