<svg width="20" height="20" viewBox="0 0 20 20" fill="none" xmlns="http://www.w3.org/2000/svg">
<path d="M17.8602 4.7C17.8162 4.64719 17.7611 4.60469 17.6989 4.57553C17.6366 4.54637 17.5687 4.53125 17.5 4.53125H4.76562L4.26797 1.79141C4.24839 1.6834 4.19153 1.58568 4.1073 1.5153C4.02306 1.44491 3.9168 1.40632 3.80703 1.40625H1.875C1.75068 1.40625 1.63145 1.45564 1.54354 1.54354C1.45564 1.63145 1.40625 1.75068 1.40625 1.875C1.40625 1.99932 1.45564 2.11855 1.54354 2.20646C1.63145 2.29436 1.75068 2.34375 1.875 2.34375H3.41563L5.43203 13.4328C5.49525 13.7825 5.66561 14.1038 5.91953 14.3523C5.61268 14.5975 5.38346 14.9263 5.25963 15.299C5.13579 15.6716 5.12266 16.0723 5.22181 16.4523C5.32096 16.8323 5.52815 17.1754 5.81829 17.4401C6.10843 17.7047 6.46907 17.8796 6.85656 17.9436C7.24405 18.0075 7.64177 17.9578 8.00156 17.8003C8.36135 17.6429 8.66779 17.3845 8.88376 17.0565C9.09974 16.7285 9.216 16.3449 9.21847 15.9522C9.22093 15.5595 9.1095 15.1744 8.89766 14.8437H12.9773C12.7344 15.2239 12.625 15.6741 12.6662 16.1233C12.7075 16.5725 12.8972 16.9953 13.2053 17.3248C13.5134 17.6543 13.9224 17.8719 14.3679 17.9432C14.8133 18.0145 15.2698 17.9355 15.6654 17.7187C16.061 17.5018 16.3731 17.1594 16.5526 16.7455C16.732 16.3316 16.7686 15.8698 16.6565 15.4328C16.5444 14.9958 16.2901 14.6086 15.9335 14.3322C15.577 14.0558 15.1386 13.9059 14.6875 13.9062H7.12266C6.93969 13.9063 6.76252 13.8421 6.62203 13.7249C6.48155 13.6077 6.38666 13.4449 6.35391 13.2648L6.07266 11.7187H15.3203C15.7228 11.7189 16.1126 11.5777 16.4217 11.3198C16.7308 11.062 16.9396 10.7038 17.0117 10.3078L17.9609 5.08359C17.9732 5.01617 17.9705 4.94689 17.9531 4.88061C17.9357 4.81434 17.904 4.75269 17.8602 4.7ZM8.28125 15.9375C8.28125 16.1538 8.2171 16.3653 8.09692 16.5452C7.97674 16.725 7.80592 16.8652 7.60606 16.948C7.4062 17.0308 7.18629 17.0524 6.97412 17.0102C6.76195 16.968 6.56707 16.8639 6.4141 16.7109C6.26114 16.5579 6.15697 16.363 6.11477 16.1509C6.07256 15.9387 6.09422 15.7188 6.17701 15.5189C6.25979 15.3191 6.39998 15.1483 6.57984 15.0281C6.75971 14.9079 6.97118 14.8437 7.1875 14.8437C7.47758 14.8437 7.75578 14.959 7.9609 15.1641C8.16602 15.3692 8.28125 15.6474 8.28125 15.9375ZM15.7812 15.9375C15.7812 16.1538 15.7171 16.3653 15.5969 16.5452C15.4767 16.725 15.3059 16.8652 15.1061 16.948C14.9062 17.0308 14.6863 17.0524 14.4741 17.0102C14.262 16.968 14.0671 16.8639 13.9141 16.7109C13.7611 16.5579 13.657 16.363 13.6148 16.1509C13.5726 15.9387 13.5942 15.7188 13.677 15.5189C13.7598 15.3191 13.9 15.1483 14.0798 15.0281C14.2597 14.9079 14.4712 14.8437 14.6875 14.8437C14.9776 14.8437 15.2558 14.959 15.4609 15.1641C15.666 15.3692 15.7812 15.6474 15.7812 15.9375ZM16.0891 10.1398C16.0563 10.3199 15.9614 10.4827 15.8209 10.5999C15.6804 10.7171 15.5033 10.7813 15.3203 10.7812H5.90234L4.93672 5.46875H16.9383L16.0891 10.1398Z" fill="white"/>
</svg>
