<svg width="28" height="28" viewBox="0 0 28 28" fill="none" xmlns="http://www.w3.org/2000/svg">
<path d="M25.0042 6.58C24.9426 6.50606 24.8655 6.44657 24.7784 6.40575C24.6913 6.36492 24.5962 6.34375 24.5 6.34375H6.67188L5.97516 2.50797C5.94775 2.35675 5.86815 2.21995 5.75022 2.12141C5.63229 2.02288 5.48352 1.96885 5.32984 1.96875H2.625C2.45095 1.96875 2.28403 2.03789 2.16096 2.16096C2.03789 2.28403 1.96875 2.45095 1.96875 2.625C1.96875 2.79905 2.03789 2.96597 2.16096 3.08904C2.28403 3.21211 2.45095 3.28125 2.625 3.28125H4.78188L7.60484 18.8059C7.69335 19.2954 7.93186 19.7453 8.28734 20.0933C7.85775 20.4364 7.53684 20.8968 7.36348 21.4185C7.19011 21.9403 7.17172 22.5012 7.31054 23.0332C7.44935 23.5652 7.73941 24.0455 8.1456 24.4161C8.5518 24.7866 9.0567 25.0315 9.59919 25.121C10.1417 25.2105 10.6985 25.1409 11.2022 24.9204C11.7059 24.7 12.1349 24.3383 12.4373 23.8791C12.7396 23.4199 12.9024 22.8829 12.9059 22.3331C12.9093 21.7832 12.7533 21.2442 12.4567 20.7813H18.1683C17.8282 21.3134 17.675 21.9437 17.7327 22.5726C17.7905 23.2016 18.056 23.7934 18.4874 24.2547C18.9187 24.716 19.4914 25.0206 20.115 25.1205C20.7386 25.2203 21.3778 25.1097 21.9316 24.8061C22.4854 24.5025 22.9224 24.0232 23.1736 23.4438C23.4249 22.8643 23.4761 22.2177 23.3191 21.6059C23.1622 20.9942 22.8061 20.452 22.307 20.0651C21.8078 19.6781 21.1941 19.4683 20.5625 19.4688H9.97172C9.71557 19.4688 9.46753 19.3789 9.27085 19.2148C9.07417 19.0507 8.94132 18.8228 8.89547 18.5708L8.50172 16.4063H21.4484C22.012 16.4064 22.5577 16.2087 22.9904 15.8478C23.4232 15.4868 23.7155 14.9854 23.8164 14.4309L25.1453 7.11703C25.1625 7.02265 25.1587 6.92564 25.1344 6.83286C25.11 6.74007 25.0656 6.65376 25.0042 6.58ZM11.5938 22.3125C11.5938 22.6154 11.5039 22.9114 11.3357 23.1632C11.1674 23.415 10.9283 23.6113 10.6485 23.7272C10.3687 23.8431 10.0608 23.8734 9.76377 23.8143C9.46673 23.7552 9.19389 23.6094 8.97974 23.3953C8.76559 23.1811 8.61976 22.9083 8.56067 22.6112C8.50159 22.3142 8.53191 22.0063 8.64781 21.7265C8.76371 21.4467 8.95997 21.2076 9.21178 21.0393C9.4636 20.8711 9.75965 20.7813 10.0625 20.7813C10.4686 20.7813 10.8581 20.9426 11.1453 21.2297C11.4324 21.5169 11.5938 21.9064 11.5938 22.3125ZM22.0938 22.3125C22.0938 22.6154 22.0039 22.9114 21.8357 23.1632C21.6674 23.415 21.4283 23.6113 21.1485 23.7272C20.8687 23.8431 20.5608 23.8734 20.2638 23.8143C19.9667 23.7552 19.6939 23.6094 19.4797 23.3953C19.2656 23.1811 19.1198 22.9083 19.0607 22.6112C19.0016 22.3142 19.0319 22.0063 19.1478 21.7265C19.2637 21.4467 19.46 21.2076 19.7118 21.0393C19.9636 20.8711 20.2596 20.7813 20.5625 20.7813C20.9686 20.7813 21.3581 20.9426 21.6453 21.2297C21.9324 21.5169 22.0938 21.9064 22.0938 22.3125ZM22.5247 14.1958C22.4788 14.4478 22.346 14.6757 22.1493 14.8398C21.9526 15.0039 21.7046 15.0938 21.4484 15.0938H8.26328L6.91141 7.65625H23.7136L22.5247 14.1958Z" fill="black"/>
</svg>
