<svg width="20" height="20" viewBox="0 0 20 20" fill="none" xmlns="http://www.w3.org/2000/svg">
<path d="M19.8102 9.20156L18.7164 6.46719C18.6358 6.26378 18.4958 6.08939 18.3147 5.96675C18.1335 5.84411 17.9196 5.77892 17.7008 5.77969H14.8438V5C14.8438 4.87568 14.7944 4.75645 14.7065 4.66854C14.6185 4.58064 14.4993 4.53125 14.375 4.53125H2.5C2.20992 4.53125 1.93172 4.64648 1.7266 4.8516C1.52148 5.05672 1.40625 5.33492 1.40625 5.625V14.375C1.40625 14.6651 1.52148 14.9433 1.7266 15.1484C1.93172 15.3535 2.20992 15.4687 2.5 15.4687H3.95312C4.06071 15.9986 4.34815 16.4749 4.76675 16.8171C5.18535 17.1592 5.70936 17.3461 6.25 17.3461C6.79064 17.3461 7.31465 17.1592 7.73325 16.8171C8.15185 16.4749 8.43929 15.9986 8.54688 15.4687H12.7031C12.8107 15.9986 13.0982 16.4749 13.5168 16.8171C13.9354 17.1592 14.4594 17.3461 15 17.3461C15.5406 17.3461 16.0646 17.1592 16.4832 16.8171C16.9018 16.4749 17.1893 15.9986 17.2969 15.4687H18.75C19.0401 15.4687 19.3183 15.3535 19.5234 15.1484C19.7285 14.9433 19.8438 14.6651 19.8438 14.375V9.375C19.8436 9.31558 19.8322 9.25672 19.8102 9.20156ZM14.8438 6.71875H17.7016C17.7329 6.71872 17.7634 6.72809 17.7893 6.74564C17.8153 6.76319 17.8353 6.78811 17.8469 6.81719L18.6828 8.90625H14.8438V6.71875ZM2.34375 5.625C2.34375 5.58356 2.36021 5.54382 2.38951 5.51451C2.41882 5.48521 2.45856 5.46875 2.5 5.46875H13.9062V10.7812H2.34375V5.625ZM6.25 16.4062C5.97187 16.4062 5.69999 16.3238 5.46873 16.1693C5.23747 16.0147 5.05723 15.7951 4.95079 15.5381C4.84436 15.2812 4.81651 14.9984 4.87077 14.7257C4.92503 14.4529 5.05896 14.2023 5.25563 14.0056C5.4523 13.809 5.70287 13.675 5.97565 13.6208C6.24844 13.5665 6.53119 13.5944 6.78815 13.7008C7.04511 13.8072 7.26473 13.9875 7.41925 14.2187C7.57377 14.45 7.65625 14.7219 7.65625 15C7.65625 15.373 7.50809 15.7306 7.24437 15.9944C6.98065 16.2581 6.62296 16.4062 6.25 16.4062ZM12.7031 14.5312H8.54688C8.43929 14.0014 8.15185 13.5251 7.73325 13.1829C7.31465 12.8408 6.79064 12.6539 6.25 12.6539C5.70936 12.6539 5.18535 12.8408 4.76675 13.1829C4.34815 13.5251 4.06071 14.0014 3.95312 14.5312H2.5C2.45856 14.5312 2.41882 14.5148 2.38951 14.4855C2.36021 14.4562 2.34375 14.4164 2.34375 14.375V11.7187H13.9062V12.9281C13.6 13.0902 13.3333 13.3179 13.1253 13.5951C12.9173 13.8722 12.7732 14.1919 12.7031 14.5312ZM15 16.4062C14.7219 16.4062 14.45 16.3238 14.2187 16.1693C13.9875 16.0147 13.8072 15.7951 13.7008 15.5381C13.5944 15.2812 13.5665 14.9984 13.6208 14.7257C13.675 14.4529 13.809 14.2023 14.0056 14.0056C14.2023 13.809 14.4529 13.675 14.7257 13.6208C14.9984 13.5665 15.2812 13.5944 15.5381 13.7008C15.7951 13.8072 16.0147 13.9875 16.1693 14.2187C16.3238 14.45 16.4062 14.7219 16.4062 15C16.4062 15.373 16.2581 15.7306 15.9944 15.9944C15.7306 16.2581 15.373 16.4062 15 16.4062ZM18.9062 14.375C18.9062 14.4164 18.8898 14.4562 18.8605 14.4855C18.8312 14.5148 18.7914 14.5312 18.75 14.5312H17.2969C17.1881 14.0022 16.9003 13.5268 16.4819 13.1853C16.0635 12.8437 15.5401 12.6569 15 12.6562C14.9477 12.6562 14.8953 12.6562 14.8438 12.6617V9.84375H18.9062V14.375Z" fill="#050505"/>
</svg>
