<?xml version="1.0" standalone="no"?>
<!DOCTYPE svg PUBLIC "-//W3C//DTD SVG 1.1//EN" "http://www.w3.org/Graphics/SVG/1.1/DTD/svg11.dtd" >
<svg xmlns="http://www.w3.org/2000/svg" xmlns:xlink="http://www.w3.org/1999/xlink" version="1.1">
<metadata>
Created by FontForge 20201107 at Sat Feb 25 09:19:49 2023
 By 
Copyright (c) 2022, RandomMaerks (Bao Nguyen) || For more information, send an email to rmforbusuness@gmail.com
</metadata>
<defs>
<font id="Cygre-ExtraBold" horiz-adv-x="592" >
  <font-face 
    font-family="Cygre ExtraBold"
    font-weight="800"
    font-stretch="normal"
    units-per-em="1000"
    panose-1="2 0 8 3 0 0 0 0 0 0"
    ascent="800"
    descent="-200"
    x-height="500"
    cap-height="700"
    bbox="-146 -359 1475 1293"
    underline-thickness="50"
    underline-position="-100"
    unicode-range="U+0020-25CF"
  />
<missing-glyph horiz-adv-x="364" 
d="M33 0v666h265v-666h-265zM66 33h199v600h-199v-600z" />
    <glyph glyph-name="f_i" unicode="fi" horiz-adv-x="658" 
d="M341 610q-34 0 -53.5 -20t-19.5 -53v-37h343l-144 -139h-199v-361h-151v361h-91v139h91v72q0 77 57.5 127.5t143.5 50.5h80v-140h-57zM446 647.5q0 37.5 26 63.5t63.5 26t63.5 -26t26 -63.5t-26 -63t-63.5 -25.5t-63.5 25.5t-26 63zM460 0v498l151 2v-500h-151z" />
    <glyph glyph-name="f_l" unicode="fl" horiz-adv-x="672" 
d="M341 610q-34 0 -53.5 -20t-19.5 -53v-37h150v-139h-150v-361h-151v361h-91v139h91v72q0 77 57.5 127.5t143.5 50.5h303l-144 -140h-136zM470 0v748l151 2v-750h-151z" />
    <glyph glyph-name="f_f_i" unicode="ffi" horiz-adv-x="1044" 
d="M341 610q-34 0 -53.5 -20t-19.5 -53v-37h167v-139h-167v-361h-151v361h-91v139h91v72q0 77 57.5 127.5t143.5 50.5h80v-140h-57zM733 610q-34 0 -53.5 -20t-19.5 -53v-37h336l-142 -139h-194v-361h-150v361h-75v139h75v72q0 77 57 127.5t143 50.5h80v-140h-57zM832 647.5
q0 37.5 25.5 63.5t63.5 26t63.5 -26t25.5 -63.5t-25.5 -63t-63.5 -25.5t-63.5 25.5t-25.5 63zM846 0v489l150 11v-500h-150z" />
    <glyph glyph-name="f_f_l" unicode="ffl" horiz-adv-x="1081" 
d="M341 610q-34 0 -53.5 -20t-19.5 -53v-37h167v-139h-167v-361h-151v361h-91v139h91v72q0 77 57.5 127.5t143.5 50.5h80v-140h-57zM749 610q-33 0 -53 -20t-20 -53v-37h151v-139h-151v-361h-150v361h-91v139h91v72q0 76 57.5 127t143.5 51h302l-142 -140h-138zM879 0v730
l150 20v-750h-150z" />
    <glyph glyph-name="f_f" unicode="ff" horiz-adv-x="844" 
d="M341 610q-34 0 -53.5 -20t-19.5 -53v-37h150v-139h-150v-361h-151v361h-91v139h91v72q0 77 57.5 127.5t143.5 50.5h80v-140h-57zM733 610q-34 0 -53.5 -20t-19.5 -53v-37h150v-139h-150v-361h-150v361h-92v139h92v72q0 77 57 127.5t143 50.5h80v-140h-57z" />
    <glyph glyph-name=".notdef" horiz-adv-x="364" 
d="M33 0v666h265v-666h-265zM66 33h199v600h-199v-600z" />
    <glyph glyph-name=".null" horiz-adv-x="0" 
 />
    <glyph glyph-name="nonmarkingreturn" horiz-adv-x="333" 
 />
    <glyph glyph-name="space" unicode=" " horiz-adv-x="270" 
 />
    <glyph glyph-name="exclam" unicode="!" horiz-adv-x="251" 
d="M189 238h-133l-17 462h167zM27 81q0 43 27.5 72t68.5 29q43 0 72.5 -29t29.5 -72t-28.5 -71t-71 -28t-70.5 28t-28 71z" />
    <glyph glyph-name="quotedbl" unicode="&#x22;" horiz-adv-x="443" 
d="M283 775l134 -38l-59 -246l-129 36zM81 775l134 -38l-59 -246l-129 36z" />
    <glyph glyph-name="numbersign" unicode="#" horiz-adv-x="739" 
d="M713 557v-147h-687v147h687zM713 313v-147h-687v147h687zM451 0h-165l262 700h165zM191 0h-165l262 700h165z" />
    <glyph glyph-name="dollar" unicode="$" horiz-adv-x="484" 
d="M221 290q-93 12 -141 53.5t-48 108.5q0 72 55.5 119t141.5 47q74 0 135 -36.5t88 -96.5l-146 -42q-10 21 -30 34t-45 13q-22 0 -35.5 -9.5t-13.5 -24.5q0 -29 72 -39q96 -11 147 -53.5t51 -109.5q0 -70 -54.5 -115t-140.5 -45q-76 0 -137 36t-88 97l146 42q10 -25 30 -40
t45 -15q22 0 35.5 10.5t13.5 27.5q0 15 -19 23.5t-62 14.5zM176 596v104h134v-104h-134zM176 118h134v-118h-134v118z" />
    <glyph glyph-name="percent" unicode="%" horiz-adv-x="1052" 
d="M739 201q0 -34 22.5 -55.5t54.5 -21.5t54.5 21.5t22.5 55.5t-22.5 55.5t-54.5 21.5t-54.5 -21.5t-22.5 -55.5zM605 200.5q0 91.5 61.5 151.5t149.5 60t149.5 -60t61.5 -151.5t-61.5 -151t-149.5 -59.5t-149.5 59.5t-61.5 151zM159 499q0 -34 22.5 -55.5t55 -21.5t55 21.5
t22.5 55.5t-22.5 55.5t-55 21.5t-55 -21.5t-22.5 -55.5zM26 499.5q0 91.5 61 151t149.5 59.5t149.5 -59.5t61 -151t-61 -151.5t-149.5 -60t-149.5 60t-61 151.5zM466 0h-166l287 700h166z" />
    <glyph glyph-name="ampersand" unicode="&#x26;" horiz-adv-x="696" 
d="M258 598q21 0 35.5 -12.5t14.5 -30.5q0 -35 -37 -65l-29 -24l-15 17q-27 33 -27 59q0 22 17.5 39t40.5 17zM263 726q-86 0 -143.5 -51t-57.5 -128q0 -78 72 -154l20 -21l-43 -34q-38 -29 -59.5 -71.5t-21.5 -89.5q0 -86 67 -143t168 -57q107 0 164 64l29 31l105 -112
l99 90l-101 108l87 81l-102 103l-86 -79l-117 125l26 20q34 26 54 69.5t20 88.5q0 70 -50.5 115t-129.5 45zM247 284l106 -110l-25 -25q-10 -10 -28 -17t-36 -7q-32 0 -54 21.5t-22 52.5q0 32 29 57z" />
    <glyph glyph-name="quotesingle" unicode="'" horiz-adv-x="241" 
d="M81 775l134 -38l-59 -246l-129 36z" />
    <glyph glyph-name="parenleft" unicode="(" horiz-adv-x="343" 
d="M32 253v213q0 110 63 191t164 108l49 -146q-56 -14 -91 -60t-35 -110v-179q0 -68 38.5 -115t97.5 -58l-48 -146q-105 23 -171.5 105t-66.5 197z" />
    <glyph glyph-name="parenright" unicode=")" horiz-adv-x="343" 
d="M312 463v-213q0 -110 -63 -191t-164 -108l-49 146q55 14 90.5 60t35.5 110v179q0 68 -38.5 115t-97.5 58l48 146q104 -23 171 -105t67 -197z" />
    <glyph glyph-name="asterisk" unicode="*" horiz-adv-x="517" 
d="M190 800h137l-10 -140l132 52l43 -131l-137 -35l90 -108l-111 -81l-75 119l-76 -119l-111 81l91 107l-137 36l42 131l130 -53z" />
    <glyph glyph-name="plus" unicode="+" horiz-adv-x="435" 
d="M152 458h131v-126h127v-131h-127v-127h-131v127h-126v131h126v126z" />
    <glyph glyph-name="comma" unicode="," horiz-adv-x="260" 
d="M73 164l153 -27l-63 -296l-121 20z" />
    <glyph glyph-name="hyphen" unicode="-" horiz-adv-x="435" 
d="M410 332v-131h-384v131h384z" />
    <glyph glyph-name="period" unicode="." horiz-adv-x="260" 
d="M31 81q0 43 27.5 72t68.5 29q44 0 73 -29t29 -72t-28 -71t-70.5 -28t-71 28t-28.5 71z" />
    <glyph glyph-name="slash" unicode="/" horiz-adv-x="480" 
d="M192 0h-165l262 700h165z" />
    <glyph glyph-name="zero" unicode="0" horiz-adv-x="648" 
d="M182 323q0 -83 41 -137t101 -54t101 54t41 137v53q0 83 -41 137t-101 54t-101 -54t-41 -137v-53zM32 323v53q0 148 85 244.5t207 96.5t207 -96.5t85 -244.5v-53q0 -148 -85 -244.5t-207 -96.5t-207 96.5t-85 244.5z" />
    <glyph glyph-name="one" unicode="1" horiz-adv-x="467" 
d="M416 700v-700h-150v530l-157 -110l-83 122l231 158h159z" />
    <glyph glyph-name="two" unicode="2" horiz-adv-x="571" 
d="M539 469q0 105 -72.5 173.5t-177.5 68.5q-100 0 -164.5 -56t-92.5 -145l148 -42q27 93 109 93q42 0 71 -26t29 -66q0 -14 -4 -27t-16 -26.5t-19 -22t-28.5 -24t-28 -20t-31.5 -21.5l-221 -157v-171h498v147h-293l144 103q61 41 105 98t44 121z" />
    <glyph glyph-name="three" unicode="3" horiz-adv-x="571" 
d="M389 422l150 107v171h-498v-147h321l-156 -115l25 -104q73 0 115.5 -29.5t42.5 -79.5q0 -39 -28.5 -62.5t-75.5 -23.5q-44 0 -74 24t-39 66l-140 -49q24 -88 92.5 -139.5t162.5 -51.5q113 0 182.5 64t69.5 166q0 80 -41 135.5t-109 67.5z" />
    <glyph glyph-name="four" unicode="4" horiz-adv-x="623" 
d="M184 320h163v195zM498 700v-380h100v-147h-100v-173h-151v173h-321v165l303 362h169z" />
    <glyph glyph-name="five" unicode="5" horiz-adv-x="571" 
d="M192 427v126h327v147h-477v-370l150 -37q44 49 101 49q41 0 68.5 -29t27.5 -72q0 -46 -29.5 -74t-76.5 -28q-40 0 -67 21.5t-36 59.5l-148 -48q25 -85 92.5 -134t159.5 -49q112 0 183.5 70t71.5 181q0 101 -58.5 171.5t-142.5 70.5q-37 0 -76 -15t-70 -40z" />
    <glyph glyph-name="six" unicode="6" horiz-adv-x="610" 
d="M483 503q-47 64 -144 64q-66 0 -108.5 -50.5t-48.5 -134.5q23 46 68.5 72t100.5 26q95 0 161 -71.5t66 -174.5q0 -108 -75 -180t-189 -72q-79 0 -142.5 35t-97.5 96q-42 78 -42 201q0 181 87 292t229 111q70 0 128.5 -28t91.5 -77zM192 236q0 -42 36.5 -73t87.5 -31
q48 0 80 28.5t32 70.5q0 44 -33 71.5t-84 27.5t-85 -26.5t-34 -67.5z" />
    <glyph glyph-name="seven" unicode="7" horiz-adv-x="549" 
d="M299 0l225 543v157h-498v-147h342l-233 -553h164z" />
    <glyph glyph-name="eight" unicode="8" horiz-adv-x="598" 
d="M182 208q0 -33 33.5 -54.5t83.5 -21.5t83.5 21.5t33.5 54.5q0 34 -34 57t-83 23t-83 -23t-34 -57zM52 522q0 84 70.5 140t176.5 56t176.5 -56t70.5 -140q0 -51 -27.5 -94t-76.5 -67q57 -25 90.5 -72t33.5 -104q0 -87 -76.5 -145t-190.5 -58t-190.5 58t-76.5 145
q0 57 33.5 104t90.5 72q-49 24 -76.5 67t-27.5 94zM299 432q41 0 69 19t28 48q0 30 -28 49.5t-69 19.5t-69 -19.5t-28 -49.5q0 -29 28 -48t69 -19z" />
    <glyph glyph-name="nine" unicode="9" horiz-adv-x="610" 
d="M127 196q47 -64 144 -64q66 0 108.5 50.5t48.5 134.5q-23 -46 -68.5 -72t-100.5 -26q-95 0 -161 71.5t-66 174.5q0 108 75 180t189 72q79 0 142.5 -35t97.5 -96q42 -78 42 -201q0 -181 -87 -292t-229 -111q-70 0 -128.5 28t-91.5 77zM418 463q0 42 -36.5 73t-87.5 31
q-48 0 -80 -28.5t-32 -70.5q0 -44 33 -71.5t84 -27.5t85 26.5t34 67.5z" />
    <glyph glyph-name="colon" unicode=":" horiz-adv-x="260" 
d="M31 412q0 44 27.5 73t68.5 29q44 0 73 -29t29 -73q0 -42 -28 -70.5t-70.5 -28.5t-71 28.5t-28.5 70.5zM31 81q0 43 27.5 72t68.5 29q44 0 73 -29t29 -72t-28 -71t-70.5 -28t-71 28t-28.5 71z" />
    <glyph glyph-name="semicolon" unicode=";" horiz-adv-x="260" 
d="M31 412q0 44 27.5 73t68.5 29q44 0 73 -29t29 -73q0 -42 -28 -70.5t-70.5 -28.5t-71 28.5t-28.5 70.5zM71 164l155 -27l-64 -296l-120 20z" />
    <glyph glyph-name="less" unicode="&#x3c;" horiz-adv-x="508" 
d="M477 176v-156l-445 148v197l445 148v-156l-317 -88z" />
    <glyph glyph-name="equal" unicode="=" horiz-adv-x="435" 
d="M410 235v-131h-384v131h384zM410 446v-130h-384v130h384z" />
    <glyph glyph-name="greater" unicode="&#x3e;" horiz-adv-x="508" 
d="M32 357v156l445 -148v-197l-445 -148v156l316 88z" />
    <glyph glyph-name="question" unicode="?" horiz-adv-x="551" 
d="M180 82q0 43 28 71.5t70 28.5q43 0 71.5 -29t28.5 -72t-28 -71t-70.5 -28t-71 28.5t-28.5 71.5zM511 481q0 100 -66.5 165t-167.5 65q-86 0 -147.5 -50.5t-89.5 -140.5l140 -50q25 91 98 91q36 0 59.5 -22t23.5 -58q0 -53 -68 -88l-88 -39l48 -127l100 45q158 66 158 209
z" />
    <glyph glyph-name="at" unicode="@" horiz-adv-x="793" 
d="M450 351q0 26 -17.5 43.5t-43.5 17.5t-43.5 -17.5t-17.5 -43.5t17.5 -43.5t43.5 -17.5t43.5 17.5t17.5 43.5zM483 351q0 -73 -38 -121t-95 -48q-58 0 -98 49t-40 120t40 120t98 49q57 0 95 -48t38 -121zM778 374q0 -94 -47 -147t-127 -53q-62 0 -108 29t-46 67v230h116
v-177q0 -45 41 -45q26 0 40 22.5t14 63.5q0 105 -75.5 176.5t-187.5 71.5q-114 0 -190 -75t-76 -188q0 -114 77.5 -190.5t198.5 -76.5q94 0 175 49l50 -94q-103 -63 -230 -63q-110 0 -199 49t-139 135.5t-50 192t50 192.5t138 136t195 49q105 0 192 -47t137.5 -128.5
t50.5 -178.5z" />
    <glyph glyph-name="A" unicode="A" horiz-adv-x="795" 
d="M208 290h383v-140h-383v140zM201 0h-173l270 700h198l271 -700h-173l-195 546z" />
    <glyph glyph-name="B" unicode="B" horiz-adv-x="656" 
d="M396 552h-194v-129h195q28 0 47 20t19 49q0 26 -19 43t-48 17zM397 279h-195v-131h204q28 0 47.5 18t19.5 44q0 30 -21.5 49.5t-54.5 19.5zM417 0h-365v700h355q90 0 148 -52.5t58 -132.5q0 -51 -23.5 -94t-62.5 -67q44 -24 70 -68t26 -97q0 -81 -58.5 -135t-147.5 -54z
" />
    <glyph glyph-name="C" unicode="C" horiz-adv-x="778" 
d="M32 351q0 103 48 188t131.5 133t184.5 48q114 0 206 -61.5t139 -168.5l-151 -53q-26 62 -78 97.5t-117 35.5q-90 0 -151.5 -63t-61.5 -156t61.5 -156t151.5 -63q67 0 120 38t79 104l152 -52q-45 -111 -139.5 -175.5t-210.5 -64.5q-101 0 -184.5 48t-131.5 133t-48 188z
" />
    <glyph glyph-name="D" unicode="D" horiz-adv-x="706" 
d="M334 0h-282v700h282q70 0 132.5 -26t108.5 -71.5t73 -111t27 -140.5q0 -76 -27 -141.5t-73 -111.5t-108.5 -72t-132.5 -26zM324 554h-122v-408h122q84 0 142 57.5t58 147.5q0 89 -58 146t-142 57z" />
    <glyph glyph-name="E" unicode="E" horiz-adv-x="587" 
d="M202 425h326v-148h-326v-129h350v-148h-500v700h500v-148h-350v-127z" />
    <glyph glyph-name="F" unicode="F" horiz-adv-x="585" 
d="M202 425h326v-148h-326v-277h-150v700h500v-148h-350v-127z" />
    <glyph glyph-name="G" unicode="G" horiz-adv-x="788" 
d="M182 351q0 -96 61.5 -157.5t150.5 -61.5q73 0 127 39t70 103h-240v135h402q3 -24 3 -72q0 -101 -48.5 -182.5t-131.5 -127t-182 -45.5t-182 46.5t-131.5 131.5t-48.5 191t48.5 191t131.5 131.5t182 46.5q105 0 192.5 -53t131.5 -143l-136 -70q-26 54 -76 85t-112 31
q-89 0 -150.5 -61.5t-61.5 -157.5z" />
    <glyph glyph-name="H" unicode="H" horiz-adv-x="696" 
d="M52 0v700h150v-275h293v275h150v-700h-150v277h-293v-277h-150z" />
    <glyph glyph-name="I" unicode="I" horiz-adv-x="253" 
d="M202 0h-150v700h150v-700z" />
    <glyph glyph-name="J" unicode="J" horiz-adv-x="649" 
d="M32 199l140 54q33 -114 139 -114q60 0 98.5 39t38.5 109v413h150v-423q0 -125 -82.5 -206.5t-204.5 -81.5q-102 0 -175.5 55.5t-103.5 154.5z" />
    <glyph glyph-name="K" unicode="K" horiz-adv-x="679" 
d="M52 0v700h150v-275h28l230 275h193l-294 -350l294 -350h-193l-230 272h-28v-272h-150z" />
    <glyph glyph-name="L" unicode="L" horiz-adv-x="577" 
d="M202 148h350v-148h-500v700h150v-552z" />
    <glyph glyph-name="M" unicode="M" horiz-adv-x="836" 
d="M43 0v700h174l201 -391l201 391h174v-700h-151v455l-176 -349h-95l-177 349v-455h-151z" />
    <glyph glyph-name="N" unicode="N" horiz-adv-x="696" 
d="M52 0v700h171l272 -460v460h150v-700h-171l-272 462v-462h-150z" />
    <glyph glyph-name="O" unicode="O" horiz-adv-x="788" 
d="M182 353q0 -97 61.5 -159t150.5 -62t150.5 62t61.5 159q0 95 -61.5 156t-150.5 61t-150.5 -61t-61.5 -156zM32 353q0 106 48.5 190.5t131.5 130.5t182 46t182 -46t131.5 -130.5t48.5 -190.5q0 -80 -28.5 -149.5t-77.5 -118t-115.5 -76t-140.5 -27.5t-140.5 27.5
t-115.5 76t-77.5 118t-28.5 149.5z" />
    <glyph glyph-name="P" unicode="P" horiz-adv-x="643" 
d="M347 552h-145v-202h145q50 0 83 29.5t33 73.5q0 43 -33 71t-83 28zM347 202h-145v-202h-150v700h305q110 0 183 -70.5t73 -176.5q0 -105 -77 -178t-189 -73z" />
    <glyph glyph-name="Q" unicode="Q" horiz-adv-x="788" 
d="M182 353q0 -97 61.5 -159t150.5 -62t150.5 62t61.5 159q0 95 -61.5 156t-150.5 61t-150.5 -61t-61.5 -156zM32 353q0 106 48.5 190.5t131.5 130.5t182 46t182 -46t131.5 -130.5t48.5 -190.5q0 -80 -28.5 -149.5t-77.5 -118t-115.5 -76t-140.5 -27.5t-140.5 27.5
t-115.5 76t-77.5 118t-28.5 149.5zM663 -35l-336 336l101 110l337 -336z" />
    <glyph glyph-name="R" unicode="R" horiz-adv-x="644" 
d="M351 552h-149v-165h149q44 0 73.5 24t29.5 60q0 35 -29 58t-74 23zM443 257l170 -257h-173l-159 240h-79v-240h-150v700h309q110 0 181 -64t71 -169q0 -80 -47 -138t-123 -72z" />
    <glyph glyph-name="S" unicode="S" horiz-adv-x="590" 
d="M282 276q-116 19 -180 77.5t-64 146.5q0 93 68 153t174 60q92 0 166 -47t106 -126l-145 -53q-16 38 -49 60.5t-74 22.5q-39 0 -64 -19t-25 -49q0 -28 27.5 -45.5t87.5 -28.5q117 -21 183 -82t66 -148q0 -91 -70.5 -150t-180.5 -59q-92 0 -167.5 44.5t-108.5 119.5l146 69
q17 -42 51 -66t77 -24q41 0 68 19.5t27 49.5q0 56 -119 75z" />
    <glyph glyph-name="T" unicode="T" horiz-adv-x="611" 
d="M588 700v-148h-207v-552h-150v552h-207v148h564z" />
    <glyph glyph-name="U" unicode="U" horiz-adv-x="690" 
d="M345 -11q-125 0 -209 83.5t-84 211.5v416h150v-406q0 -73 40 -114t103 -41t103 41t40 114v406h150v-416q0 -128 -84 -211.5t-209 -83.5z" />
    <glyph glyph-name="V" unicode="V" horiz-adv-x="795" 
d="M594 700h173l-266 -700h-206l-267 700h173l195 -529z" />
    <glyph glyph-name="W" unicode="W" horiz-adv-x="1047" 
d="M855 700h165l-156 -700h-222l-118 484l-101 -484h-222l-173 700h164l126 -519l121 519h171l132 -519z" />
    <glyph glyph-name="X" unicode="X" horiz-adv-x="719" 
d="M694 0h-181l-152 268l-154 -268h-182l209 349l-209 351h182l154 -270l152 270h181l-207 -351z" />
    <glyph glyph-name="Y" unicode="Y" horiz-adv-x="691" 
d="M280 0h151v223l236 477h-176l-135 -293l-155 293h-177l256 -477v-223z" />
    <glyph glyph-name="Z" unicode="Z" horiz-adv-x="628" 
d="M588 0v147h-370l370 379v174h-548v-147h370l-370 -373v-180h548z" />
    <glyph glyph-name="bracketleft" unicode="[" horiz-adv-x="363" 
d="M202 92h130v-140h-280v806h280v-148h-130v-518z" />
    <glyph glyph-name="backslash" unicode="\" horiz-adv-x="480" 
d="M289 0l-262 700h165l262 -700h-165z" />
    <glyph glyph-name="bracketright" unicode="]" horiz-adv-x="363" 
d="M162 618h-130v140h280v-806h-280v148h130v518z" />
    <glyph glyph-name="asciicircum" unicode="^" horiz-adv-x="488" 
d="M226 750l-196 -129l58 -88l156 103l156 -103l58 88l-196 129h-36z" />
    <glyph glyph-name="underscore" unicode="_" horiz-adv-x="485" 
d="M460 97v-114h-434v114h434z" />
    <glyph glyph-name="grave" unicode="`" horiz-adv-x="307" 
d="M30 643l67 89l180 -142l-63 -84z" />
    <glyph glyph-name="a" unicode="a" horiz-adv-x="528" 
d="M327 200l-96 -12q-49 -6 -49 -35q0 -34 52 -34q41 0 67 20.5t26 52.5h35q0 -88 -50.5 -145.5t-126.5 -57.5q-67 0 -110 42t-43 107.5t43.5 108t120.5 51.5l131 17v5q0 23 -22.5 39.5t-54.5 16.5q-28 0 -49 -14.5t-27 -38.5l-146 47q21 63 81 102t137 39q94 0 162.5 -55.5
t68.5 -130.5v-325h-150v200z" />
    <glyph glyph-name="b" unicode="b" horiz-adv-x="638" 
d="M52 0v750h150v-750h-150zM202 251q0 -55 36.5 -91t90.5 -36t90.5 36t36.5 91t-36.5 91t-90.5 36t-90.5 -36t-36.5 -91zM152 251q0 116 64 192.5t160 76.5q97 0 163.5 -77t66.5 -192t-66.5 -192t-163.5 -77q-96 0 -160 76.5t-64 192.5z" />
    <glyph glyph-name="c" unicode="c" 
d="M182 251q0 -56 35.5 -91.5t86.5 -35.5q39 0 70 18.5t47 52.5l138 -65q-35 -68 -103.5 -108t-151.5 -40q-114 0 -193 76t-79 193t79 193t193 76q85 0 154 -41t103 -112l-138 -65q-16 36 -47.5 56t-71.5 20q-51 0 -86.5 -35.5t-35.5 -91.5z" />
    <glyph glyph-name="d" unicode="d" horiz-adv-x="638" 
d="M586 0h-150v750h150v-750zM436 251q0 55 -36.5 91t-90.5 36t-90.5 -36t-36.5 -91t36.5 -91t90.5 -36t90.5 36t36.5 91zM486 251q0 -116 -64 -192.5t-160 -76.5q-97 0 -163.5 77t-66.5 192t66.5 192t163.5 77q96 0 160 -76.5t64 -192.5z" />
    <glyph glyph-name="e" unicode="e" 
d="M408 312q-10 32 -40 51t-71 19q-39 0 -67 -18.5t-39 -51.5h217zM191 191q11 -34 40 -52.5t68 -18.5q31 0 57.5 12t39.5 34l138 -53q-33 -60 -96 -95.5t-138 -35.5q-115 0 -191.5 77t-76.5 193q0 115 74.5 191.5t185.5 76.5q113 0 191 -78t78 -192q0 -26 -6 -59h-364z" />
    <glyph glyph-name="f" unicode="f" horiz-adv-x="443" 
d="M341 610q-34 0 -53.5 -20t-19.5 -53v-37h150v-139h-150v-361h-151v361h-91v139h91v72q0 77 57.5 127.5t143.5 50.5h80v-140h-57z" />
    <glyph glyph-name="g" unicode="g" horiz-adv-x="598" 
d="M454 272q0 -105 -58.5 -174.5t-146.5 -69.5q-92 0 -154.5 70t-62.5 173q0 104 63.5 175.5t154.5 71.5q86 0 145 -71t59 -175zM396 269q0 43 -30.5 71t-76.5 28t-76.5 -28t-30.5 -71t30.5 -71t76.5 -28t76.5 28t30.5 71zM396 13v487h150v-487q0 -110 -70 -176t-185 -66
q-85 0 -152.5 37.5t-102.5 103.5l127 89q18 -36 50 -56t71 -20q48 0 80 25t32 63z" />
    <glyph glyph-name="h" unicode="h" horiz-adv-x="578" 
d="M52 0v750h150v-750h-150zM376 0v278q0 43 -23.5 67t-61.5 24q-36 0 -62.5 -26.5t-26.5 -64.5h-55q0 99 55.5 166t138.5 67q81 0 133 -53t52 -145v-313h-150z" />
    <glyph glyph-name="i" unicode="i" horiz-adv-x="246" 
d="M34 647.5q0 37.5 26 63.5t63.5 26t63.5 -26t26 -63.5t-26 -63t-63.5 -25.5t-63.5 25.5t-26 63zM48 0v500h151v-500h-151z" />
    <glyph glyph-name="j" unicode="j" horiz-adv-x="246" 
d="M34 647.5q0 37.5 26 63.5t63.5 26t63.5 -26t26 -63.5t-26 -63t-63.5 -25.5t-63.5 25.5t-26 63zM-21 -72q33 0 51 24.5t18 62.5v485h151v-532q0 -77 -54 -132.5t-140 -55.5h-54v148h28z" />
    <glyph glyph-name="k" unicode="k" horiz-adv-x="587" 
d="M52 0v750h150v-425h27l144 175h193l-209 -250l209 -250h-193l-144 172h-27v-172h-150z" />
    <glyph glyph-name="l" unicode="l" horiz-adv-x="253" 
d="M52 0v750h150v-750h-150z" />
    <glyph glyph-name="m" unicode="m" horiz-adv-x="840" 
d="M638 0v290q0 37 -19 58t-49.5 21t-52 -23.5t-21.5 -55.5h-55q0 94 51 157.5t127 63.5q74 0 122 -50t48 -136v-325h-151zM52 0v500h150v-500h-150zM345 0v290q0 37 -19.5 58t-50 21t-52 -23.5t-21.5 -55.5h-55q0 94 51 157.5t128 63.5q73 0 121 -50t48 -136v-325h-150z
" />
    <glyph glyph-name="n" unicode="n" horiz-adv-x="578" 
d="M52 0v500h150v-500h-150zM376 0v278q0 43 -23.5 67t-61.5 24q-36 0 -62.5 -26.5t-26.5 -64.5h-55q0 99 55.5 166t138.5 67q81 0 133 -53t52 -145v-313h-150z" />
    <glyph glyph-name="o" unicode="o" horiz-adv-x="618" 
d="M182 251q0 -56 37 -91.5t90 -35.5t90 35.5t37 91.5t-37 91.5t-90 35.5t-90 -35.5t-37 -91.5zM32 251q0 117 80 193t197 76t197 -76t80 -193t-80 -193t-197 -76t-197 76t-80 193z" />
    <glyph glyph-name="p" unicode="p" horiz-adv-x="638" 
d="M52 500h150v-700h-150v700zM202 250.5q0 -54.5 36.5 -90.5t90.5 -36t90.5 36t36.5 90.5t-36.5 91t-90.5 36.5t-90.5 -36.5t-36.5 -91zM152 250.5q0 115.5 64 192.5t160 77q97 0 163.5 -77.5t66.5 -192t-66.5 -191.5t-163.5 -77q-96 0 -160 76.5t-64 192z" />
    <glyph glyph-name="q" unicode="q" horiz-adv-x="638" 
d="M586 500v-700h-150v700h150zM436 250.5q0 54.5 -36.5 91t-90.5 36.5t-90.5 -36.5t-36.5 -91t36.5 -90.5t90.5 -36t90.5 36t36.5 90.5zM486 250.5q0 -115.5 -64 -192t-160 -76.5q-97 0 -163.5 77t-66.5 191.5t66.5 192t163.5 77.5q96 0 160 -77t64 -192.5z" />
    <glyph glyph-name="r" unicode="r" horiz-adv-x="386" 
d="M52 0v500h150v-500h-150zM336 358q-56 0 -95 -30.5t-39 -72.5h-55q0 110 54 181.5t134 71.5h28v-150h-27z" />
    <glyph glyph-name="s" unicode="s" horiz-adv-x="490" 
d="M237 184q-197 25 -197 161q0 74 54 121t138 47q72 0 132 -36.5t86 -96.5l-146 -43q-9 22 -28 35t-41 13q-20 0 -32.5 -9.5t-12.5 -24.5q0 -30 76 -40q92 -11 142.5 -53t50.5 -108q0 -70 -56 -115.5t-143 -45.5q-77 0 -139 36t-89 97l145 44q11 -27 32.5 -42t47.5 -15
q22 0 37 10.5t15 25.5t-17 24t-55 15z" />
    <glyph glyph-name="t" unicode="t" horiz-adv-x="428" 
d="M327 140h76v-140h-99q-89 0 -140.5 44.5t-51.5 122.5v194h-86v139h86v137l151 31v-168h140v-139h-140v-159q0 -28 17 -45t47 -17z" />
    <glyph glyph-name="u" unicode="u" horiz-adv-x="558" 
d="M506 500v-500h-150v500h150zM202 500v-290q0 -37 21 -58t54 -21t56 21t23 50h55q0 -91 -53 -152t-131 -61q-76 0 -125.5 50t-49.5 136v325h150z" />
    <glyph glyph-name="v" unicode="v" horiz-adv-x="609" 
d="M425 500h156l-178 -500h-197l-178 500h156l118 -370z" />
    <glyph glyph-name="w" unicode="w" horiz-adv-x="912" 
d="M729 500h156l-134 -500h-205l-90 309l-81 -309h-205l-142 500h156l95 -361l100 361h155l103 -361z" />
    <glyph glyph-name="x" unicode="x" horiz-adv-x="587" 
d="M562 0h-172l-96 169l-95 -169h-174l159 250l-159 250h174l95 -169l96 169h172l-158 -250z" />
    <glyph glyph-name="y" unicode="y" horiz-adv-x="609" 
d="M422 500l-117 -328l-118 328h-159l192 -488l-77 -212h159l279 700h-159z" />
    <glyph glyph-name="z" unicode="z" horiz-adv-x="490" 
d="M459 0v130h-257l257 216v154h-427v-130h232l-232 -216v-154h427z" />
    <glyph glyph-name="braceleft" unicode="{" horiz-adv-x="391" 
d="M88 516q0 92 61 159t158 90l49 -146q-55 -13 -90.5 -56.5t-35.5 -104.5q0 -84 -60 -102q32 -9 46 -30.5t14 -64.5q0 -64 38.5 -108.5t97.5 -55.5l-48 -146q-101 19 -165.5 85t-64.5 159q0 88 -78 88v147q38 0 58 24.5t20 61.5z" />
    <glyph glyph-name="bar" unicode="|" horiz-adv-x="253" 
d="M52 -200v1000h150v-1000h-150z" />
    <glyph glyph-name="braceright" unicode="}" horiz-adv-x="391" 
d="M304 200q0 -92 -61 -159t-158 -90l-49 146q55 13 90.5 56.5t35.5 104.5q0 84 60 102q-32 9 -46 30.5t-14 64.5q0 64 -38.5 108.5t-97.5 55.5l48 146q101 -19 165.5 -85t64.5 -159q0 -88 78 -88v-147q-38 0 -58 -24.5t-20 -61.5z" />
    <glyph glyph-name="asciitilde" unicode="~" horiz-adv-x="480" 
d="M163 371q-55 0 -87.5 -37.5t-40.5 -105.5l94 -18q10 62 43 62q17 0 44 -22q58 -46 103 -46q55 0 86.5 38t40.5 105l-94 18q-11 -58 -47 -58q-22 0 -46 20q-28 25 -49.5 34.5t-46.5 9.5z" />
    <glyph glyph-name="exclamdown" unicode="&#xa1;" horiz-adv-x="251" 
d="M63 351h133l17 -461h-167zM225 509q0 -44 -27.5 -73t-68.5 -29q-44 0 -73 29t-29 73q0 42 28 70.5t70.5 28.5t71 -28.5t28.5 -70.5z" />
    <glyph glyph-name="cent" unicode="&#xa2;" 
d="M236 596v104h134v-104h-134zM236 118h134v-118h-134v118zM182 360.5q0 -55.5 35.5 -91.5t86.5 -36q39 0 70 19t47 52l138 -65q-35 -68 -103.5 -108t-151.5 -40q-114 0 -193 76.5t-79 193t79 192.5t193 76q85 0 154 -41t103 -112l-138 -65q-16 36 -47.5 56t-71.5 20
q-51 0 -86.5 -35.5t-35.5 -91z" />
    <glyph glyph-name="sterling" unicode="&#xa3;" horiz-adv-x="617" 
d="M591 147v-147h-565v147h101v123h-81v147h81v78q0 99 68 163.5t168 64.5q84 0 143.5 -42t84.5 -118l-145 -50q-20 60 -83 60q-37 0 -61 -23t-24 -65v-68h197v-147h-197v-123h313z" />
    <glyph glyph-name="currency" unicode="&#xa4;" horiz-adv-x="401" 
d="M27 396l55 55l39 -40q35 26 80 26q43 0 79 -25l39 40l57 -57l-39 -39q24 -33 24 -79q0 -45 -25 -81l40 -38l-56 -55l-38 40q-37 -26 -81 -26q-45 0 -79 25l-39 -39l-57 56l40 39q-25 33 -25 79q0 45 26 81zM140 277q0 -27 17.5 -44t43.5 -17t44 17t18 44t-18 44t-44 17
t-43.5 -17t-17.5 -44z" />
    <glyph glyph-name="yen" unicode="&#xa5;" horiz-adv-x="669" 
d="M535 161h-384v-97h384v97zM535 297h-384v-97h384v97zM268 0h151v326l226 374h-176l-126 -225l-142 225h-177l244 -374v-326z" />
    <glyph glyph-name="brokenbar" unicode="&#xa6;" horiz-adv-x="253" 
d="M202 393h-150v407h150v-407zM202 227v-427h-150v427h150z" />
    <glyph glyph-name="section" unicode="&#xa7;" horiz-adv-x="484" 
d="M262 313q-42 5 -61 15.5t-19 28.5q0 12 11.5 20.5t28.5 10.5q42 -5 61 -15.5t19 -28.5q0 -23 -40 -31zM120 418q-42 -16 -65 -43t-23 -62q0 -102 188 -127q45 -6 63.5 -15.5t18.5 -26.5q0 -15 -14 -25t-35 -10q-24 0 -44.5 15t-30.5 40l-146 -42q27 -61 88 -97t137 -36
q86 0 140.5 45t54.5 116q0 88 -86 133q41 15 63.5 41t22.5 60q0 103 -191 131q-43 7 -61 16.5t-18 25.5q0 15 14 25t35 10q25 0 45 -15t30 -40l146 42q-26 61 -87.5 97t-137.5 36q-86 0 -140.5 -45t-54.5 -116q0 -89 88 -133z" />
    <glyph glyph-name="dieresis" unicode="&#xa8;" horiz-adv-x="488" 
d="M282 621q0 38 25.5 63.5t63.5 25.5t63.5 -25.5t25.5 -63.5t-25.5 -63.5t-63.5 -25.5t-63.5 25.5t-25.5 63.5zM28 621q0 38 26 63.5t63.5 25.5t63.5 -25.5t26 -63.5t-26 -63.5t-63.5 -25.5t-63.5 25.5t-26 63.5z" />
    <glyph glyph-name="copyright" unicode="&#xa9;" horiz-adv-x="788" 
d="M320 351q0 -33 21 -54.5t52 -21.5q23 0 41 13t28 36l85 -34q-21 -50 -62 -79t-91 -29q-69 0 -116.5 48t-47.5 121t47.5 121t116.5 48q51 0 93 -28t62 -75l-86 -36q-9 22 -28 34t-42 12q-31 0 -52 -21.5t-21 -54.5zM138 353q0 -119 74.5 -195t181.5 -76t181.5 76t74.5 195
q0 116 -74.5 191.5t-181.5 75.5t-181.5 -75.5t-74.5 -191.5zM40 353q0 160 102.5 263.5t251.5 103.5t251.5 -103.5t102.5 -263.5q0 -161 -102.5 -266t-251.5 -105t-251.5 105t-102.5 266z" />
    <glyph glyph-name="ordfeminine" unicode="&#xaa;" horiz-adv-x="358" 
d="M226 700h92v-278h-92v278zM328 355v-97h-298v97h298zM122 561q0 -24 15.5 -40.5t38.5 -16.5q22 0 36 16t14 41t-14 41t-36 16q-23 0 -38.5 -16.5t-15.5 -40.5zM30 561q0 62 33.5 105.5t81.5 43.5q52 0 86 -42t34 -107t-34 -107t-86 -42q-48 0 -81.5 43.5t-33.5 105.5z
" />
    <glyph glyph-name="guillemotleft" unicode="&#xab;" horiz-adv-x="616" 
d="M585 192v-165l-260 141v197l260 142v-166l-141 -72zM292 192v-165l-260 141v197l260 142v-166l-142 -72z" />
    <glyph glyph-name="logicalnot" unicode="&#xac;" horiz-adv-x="495" 
d="M470 373v-228h-142v98h-302v130h444z" />
    <glyph glyph-name="uni00AD" unicode="&#xad;" horiz-adv-x="377" 
d="M351 332v-131h-325v131h325z" />
    <glyph glyph-name="registered" unicode="&#xae;" horiz-adv-x="788" 
d="M424 432h-101v-71h101q17 0 28.5 11.5t11.5 27.5q0 14 -11.5 23t-28.5 9zM452 294l96 -106h-106l-91 98h-28v-98h-83v325h202q46 0 76 -32.5t30 -81.5q0 -37 -28 -67.5t-68 -37.5zM138 353q0 -119 74.5 -195t181.5 -76t181.5 76t74.5 195q0 116 -74.5 191.5t-181.5 75.5
t-181.5 -75.5t-74.5 -191.5zM40 353q0 160 102.5 263.5t251.5 103.5t251.5 -103.5t102.5 -263.5q0 -161 -102.5 -266t-251.5 -105t-251.5 105t-102.5 266z" />
    <glyph glyph-name="macron" unicode="&#xaf;" horiz-adv-x="393" 
d="M368 700v-114h-342v114h342z" />
    <glyph glyph-name="degree" unicode="&#xb0;" horiz-adv-x="466" 
d="M159 502.5q0 -32.5 21.5 -53t52.5 -20.5t52.5 20.5t21.5 53t-21.5 53t-52.5 20.5t-52.5 -20.5t-21.5 -53zM26 502.5q0 89.5 60 148.5t147 59t147.5 -59t60.5 -148.5t-60.5 -148.5t-147.5 -59t-147 59t-60 148.5z" />
    <glyph glyph-name="plusminus" unicode="&#xb1;" horiz-adv-x="435" 
d="M410 52v-131h-384v131h384zM152 492h131v-127h127v-130h-127v-127h-131v127h-126v130h126v127z" />
    <glyph glyph-name="uni00B2" unicode="&#xb2;" horiz-adv-x="357" 
d="M327 708q0 59 -42.5 97.5t-104.5 38.5q-59 0 -97 -31.5t-54 -81.5l108 -38q10 34 37 34q12 0 20 -8.5t8 -22.5q0 -11 -13 -23t-26.5 -19.5t-37.5 -18.5l-94 -45v-133h298v113h-149l35 17q22 10 38 19.5t35 24.5t29 34.5t10 42.5z" />
    <glyph glyph-name="uni00B3" unicode="&#xb3;" horiz-adv-x="373" 
d="M238 669l99 47v124h-292v-104h181l-73 -41l23 -74q44 0 44 -27q0 -12 -9 -19t-23 -7q-30 0 -36 31l-123 -20q16 -59 60.5 -93.5t106.5 -34.5q65 0 107 33t42 84q0 44 -30 72t-77 29z" />
    <glyph glyph-name="acute" unicode="&#xb4;" horiz-adv-x="299" 
d="M273 661l-67 89l-180 -142l63 -84z" />
    <glyph glyph-name="mu" unicode="&#xb5;" horiz-adv-x="613" 
d="M562 500v-500h-151v500h151zM52 500h150v-700h-150v700zM460 247q0 -110 -44 -184t-109 -74q-66 0 -113 76t-47 182h55q0 -49 32 -82.5t78 -33.5q44 0 71.5 32t27.5 84h49z" />
    <glyph glyph-name="paragraph" unicode="&#xb6;" horiz-adv-x="640" 
d="M589 0h-92v700h92v-700zM266 322q-90 0 -152 56t-62 138q0 78 58.5 131t145.5 53h177v-700h-150v322h-17z" />
    <glyph glyph-name="periodcentered" unicode="&#xb7;" horiz-adv-x="260" 
d="M33 368q0 42 26.5 71t67.5 29q43 0 72 -29t29 -71t-28 -70t-70 -28t-69.5 28t-27.5 70z" />
    <glyph glyph-name="cedilla" unicode="&#xb8;" horiz-adv-x="378" 
d="M173 -78q31 37 72 37q44 0 75 -40t31 -97q0 -67 -44.5 -109t-114.5 -42q-60 0 -105 30.5t-61 84.5l112 40q4 -19 18 -29.5t34 -10.5t31.5 11t11.5 29q0 16 -9 26.5t-23 10.5q-15 0 -28 -14l-115 36v138h115v-101z" />
    <glyph glyph-name="uni00B9" unicode="&#xb9;" horiz-adv-x="289" 
d="M261 839v-381h-117v248l-52 -41l-63 84l112 90h120z" />
    <glyph glyph-name="ordmasculine" unicode="&#xba;" horiz-adv-x="358" 
d="M328 355v-97h-298v97h298zM122 561q0 -25 16.5 -41t40.5 -16t40.5 16t16.5 41t-16.5 41t-40.5 16t-40.5 -16t-16.5 -41zM30 561q0 65 43 107t106 42t106 -42t43 -107t-43 -107t-106 -42t-106 42t-43 107z" />
    <glyph glyph-name="guillemotright" unicode="&#xbb;" horiz-adv-x="616" 
d="M32 341v166l260 -142v-197l-260 -141v165l141 72zM325 341v166l260 -142v-197l-260 -141v165l141 72z" />
    <glyph glyph-name="onequarter" unicode="&#xbc;" horiz-adv-x="863" 
d="M610 157h55v77zM782 371v-214h45v-96h-45v-72h-117v72h-168v109l155 201h130zM328 0h-166l287 700h166zM261 689v-381h-117v248l-52 -41l-63 84l112 90h120z" />
    <glyph glyph-name="onehalf" unicode="&#xbd;" horiz-adv-x="831" 
d="M795 239q0 60 -42.5 98.5t-104.5 38.5q-59 0 -97 -32t-54 -82l108 -38q10 35 37 35q12 0 20 -9t8 -22q0 -12 -13 -24t-26.5 -19t-37.5 -18l-94 -46v-132h298v112h-149l35 18q22 9 38 19t35 25t29 34.5t10 41.5zM328 0h-166l287 700h166zM261 689v-381h-117v248l-52 -41
l-63 84l112 90h120z" />
    <glyph glyph-name="threequarters" unicode="&#xbe;" horiz-adv-x="936" 
d="M683 157h55v77zM855 371v-214h45v-96h-45v-72h-117v72h-168v109l155 201h130zM400 0h-166l287 700h166zM238 519l99 47v124h-292v-104h181l-73 -41l23 -74q44 0 44 -27q0 -12 -9 -19t-23 -7q-30 0 -36 31l-123 -20q16 -59 60.5 -93.5t106.5 -34.5q65 0 107 33t42 84
q0 44 -30 72t-77 29z" />
    <glyph glyph-name="questiondown" unicode="&#xbf;" horiz-adv-x="551" 
d="M371 508.5q0 -43.5 -28 -72t-70 -28.5q-43 0 -71.5 29t-28.5 73q0 42 28 70.5t70.5 28.5t71 -28.5t28.5 -72zM40 109q0 -100 66.5 -164.5t167.5 -64.5q86 0 147.5 50.5t89.5 140.5l-140 50q-25 -91 -98 -91q-36 0 -59.5 22t-23.5 57q0 56 68 89l88 38l-48 127l-100 -45
q-158 -65 -158 -209z" />
    <glyph glyph-name="Agrave" unicode="&#xc0;" horiz-adv-x="795" 
d="M230 931l101 89l162 -159l-96 -84zM208 290h383v-140h-383v140zM201 0h-173l270 700h198l271 -700h-173l-195 546z" />
    <glyph glyph-name="Aacute" unicode="&#xc1;" horiz-adv-x="795" 
d="M556 931l-101 97l-154 -167l80 -84zM208 290h383v-140h-383v140zM201 0h-173l270 700h198l271 -700h-173l-195 546z" />
    <glyph glyph-name="Acircumflex" unicode="&#xc2;" horiz-adv-x="795" 
d="M380 986l-179 -129l57 -88l140 102l140 -102l57 88l-179 129h-36zM208 290h383v-140h-383v140zM201 0h-173l270 700h198l271 -700h-173l-195 546z" />
    <glyph glyph-name="Atilde" unicode="&#xc3;" horiz-adv-x="795" 
d="M321 944q-56 0 -88 -37.5t-40 -105.5l94 -18q10 62 42 62q18 0 44 -22q58 -46 104 -46q54 0 86 38t40 105l-94 18q-10 -59 -46 -59q-22 0 -46 21q-29 25 -50 34.5t-46 9.5zM208 290h383v-140h-383v140zM201 0h-173l270 700h198l271 -700h-173l-195 546z" />
    <glyph glyph-name="Adieresis" unicode="&#xc4;" horiz-adv-x="795" 
d="M431 866q0 38 26 63.5t63.5 25.5t63.5 -25.5t26 -63.5t-26 -63.5t-63.5 -25.5t-63.5 25.5t-26 63.5zM184 866q0 38 26 63.5t63.5 25.5t63.5 -25.5t26 -63.5t-26 -63.5t-63.5 -25.5t-63.5 25.5t-26 63.5zM208 290h383v-140h-383v140zM201 0h-173l270 700h198l271 -700
h-173l-195 546z" />
    <glyph glyph-name="Aring" unicode="&#xc5;" horiz-adv-x="795" 
d="M349 921.5q0 -21.5 14 -35.5t35 -14t35 14t14 35.5t-14 35t-35 13.5t-35 -13.5t-14 -35zM254 921.5q0 62.5 42 103.5t102 41t102 -41t42 -103.5t-42 -103.5t-102 -41t-102 41t-42 103.5zM208 290h383v-140h-383v140zM201 0h-173l270 700h198l271 -700h-173l-195 546z" />
    <glyph glyph-name="AE" unicode="&#xc6;" horiz-adv-x="1032" 
d="M651 425h326v-148h-326v-129h350v-148h-500v700h500v-148h-350v-127zM248 312h278v-148h-278v148zM191 0h-167l361 700h116v-154h-23z" />
    <glyph glyph-name="Ccedilla" unicode="&#xc7;" horiz-adv-x="778" 
d="M437 -77q30 35 73 35t74 -40t31 -96q0 -67 -44 -109t-115 -42q-60 0 -104.5 30.5t-61.5 83.5l113 41q4 -19 18 -29.5t33 -10.5q20 0 32 10.5t12 28.5q0 17 -9 27.5t-23 10.5q-16 0 -29 -14l-115 36v138h115v-100zM32 351q0 103 48 188t131.5 133t184.5 48
q114 0 206 -61.5t139 -168.5l-151 -53q-26 62 -78 97.5t-117 35.5q-90 0 -151.5 -63t-61.5 -156t61.5 -156t151.5 -63q67 0 120 38t79 104l152 -52q-45 -111 -139.5 -175.5t-210.5 -64.5q-101 0 -184.5 48t-131.5 133t-48 188z" />
    <glyph glyph-name="Egrave" unicode="&#xc8;" horiz-adv-x="587" 
d="M142 931l101 89l162 -159l-96 -84zM202 425h326v-148h-326v-129h350v-148h-500v700h500v-148h-350v-127z" />
    <glyph glyph-name="Eacute" unicode="&#xc9;" horiz-adv-x="587" 
d="M468 931l-101 97l-154 -167l80 -84zM202 425h326v-148h-326v-129h350v-148h-500v700h500v-148h-350v-127z" />
    <glyph glyph-name="Ecircumflex" unicode="&#xca;" horiz-adv-x="587" 
d="M292 986l-179 -129l57 -88l140 102l140 -102l57 88l-179 129h-36zM202 425h326v-148h-326v-129h350v-148h-500v700h500v-148h-350v-127z" />
    <glyph glyph-name="Edieresis" unicode="&#xcb;" horiz-adv-x="587" 
d="M343 866q0 38 26 63.5t63.5 25.5t63.5 -25.5t26 -63.5t-26 -63.5t-63.5 -25.5t-63.5 25.5t-26 63.5zM96 866q0 38 26 63.5t63.5 25.5t63.5 -25.5t26 -63.5t-26 -63.5t-63.5 -25.5t-63.5 25.5t-26 63.5zM202 425h326v-148h-326v-129h350v-148h-500v700h500v-148h-350v-127
z" />
    <glyph glyph-name="Igrave" unicode="&#xcc;" horiz-adv-x="253" 
d="M-41 931l101 89l162 -159l-96 -84zM202 0h-150v700h150v-700z" />
    <glyph glyph-name="Iacute" unicode="&#xcd;" horiz-adv-x="253" 
d="M285 931l-101 97l-154 -167l80 -84zM202 0h-150v700h150v-700z" />
    <glyph glyph-name="Icircumflex" unicode="&#xce;" horiz-adv-x="253" 
d="M109 986l-179 -129l57 -88l140 102l140 -102l57 88l-179 129h-36zM202 0h-150v700h150v-700z" />
    <glyph glyph-name="Idieresis" unicode="&#xcf;" horiz-adv-x="253" 
d="M160 866q0 38 26 63.5t63.5 25.5t63.5 -25.5t26 -63.5t-26 -63.5t-63.5 -25.5t-63.5 25.5t-26 63.5zM-87 866q0 38 26 63.5t63.5 25.5t63.5 -25.5t26 -63.5t-26 -63.5t-63.5 -25.5t-63.5 25.5t-26 63.5zM202 0h-150v700h150v-700z" />
    <glyph glyph-name="Eth" unicode="&#xd0;" horiz-adv-x="714" 
d="M350 424v-131h-350v131h350zM342 0h-279v700h279q70 0 132.5 -26t108.5 -71.5t73 -111t27 -140.5q0 -76 -27 -141.5t-73 -111.5t-108.5 -72t-132.5 -26zM332 554h-118v-408h118q84 0 142.5 57.5t58.5 147.5q0 89 -58.5 146t-142.5 57z" />
    <glyph glyph-name="Ntilde" unicode="&#xd1;" horiz-adv-x="696" 
d="M276 944q-56 0 -88 -37.5t-40 -105.5l94 -18q10 62 42 62q18 0 44 -22q58 -46 104 -46q54 0 86 38t40 105l-94 18q-10 -59 -46 -59q-22 0 -46 21q-29 25 -50 34.5t-46 9.5zM52 0v700h171l272 -460v460h150v-700h-171l-272 462v-462h-150z" />
    <glyph glyph-name="Ograve" unicode="&#xd2;" horiz-adv-x="788" 
d="M226 931l101 89l162 -159l-96 -84zM182 353q0 -97 61.5 -159t150.5 -62t150.5 62t61.5 159q0 95 -61.5 156t-150.5 61t-150.5 -61t-61.5 -156zM32 353q0 106 48.5 190.5t131.5 130.5t182 46t182 -46t131.5 -130.5t48.5 -190.5q0 -80 -28.5 -149.5t-77.5 -118t-115.5 -76
t-140.5 -27.5t-140.5 27.5t-115.5 76t-77.5 118t-28.5 149.5z" />
    <glyph glyph-name="Oacute" unicode="&#xd3;" horiz-adv-x="788" 
d="M552 931l-101 97l-154 -167l80 -84zM182 353q0 -97 61.5 -159t150.5 -62t150.5 62t61.5 159q0 95 -61.5 156t-150.5 61t-150.5 -61t-61.5 -156zM32 353q0 106 48.5 190.5t131.5 130.5t182 46t182 -46t131.5 -130.5t48.5 -190.5q0 -80 -28.5 -149.5t-77.5 -118t-115.5 -76
t-140.5 -27.5t-140.5 27.5t-115.5 76t-77.5 118t-28.5 149.5z" />
    <glyph glyph-name="Ocircumflex" unicode="&#xd4;" horiz-adv-x="788" 
d="M376 986l-179 -129l57 -88l140 102l140 -102l57 88l-179 129h-36zM182 353q0 -97 61.5 -159t150.5 -62t150.5 62t61.5 159q0 95 -61.5 156t-150.5 61t-150.5 -61t-61.5 -156zM32 353q0 106 48.5 190.5t131.5 130.5t182 46t182 -46t131.5 -130.5t48.5 -190.5
q0 -80 -28.5 -149.5t-77.5 -118t-115.5 -76t-140.5 -27.5t-140.5 27.5t-115.5 76t-77.5 118t-28.5 149.5z" />
    <glyph glyph-name="Otilde" unicode="&#xd5;" horiz-adv-x="788" 
d="M317 944q-56 0 -88 -37.5t-40 -105.5l94 -18q10 62 42 62q18 0 44 -22q58 -46 104 -46q54 0 86 38t40 105l-94 18q-10 -59 -46 -59q-22 0 -46 21q-29 25 -50 34.5t-46 9.5zM182 353q0 -97 61.5 -159t150.5 -62t150.5 62t61.5 159q0 95 -61.5 156t-150.5 61t-150.5 -61
t-61.5 -156zM32 353q0 106 48.5 190.5t131.5 130.5t182 46t182 -46t131.5 -130.5t48.5 -190.5q0 -80 -28.5 -149.5t-77.5 -118t-115.5 -76t-140.5 -27.5t-140.5 27.5t-115.5 76t-77.5 118t-28.5 149.5z" />
    <glyph glyph-name="Odieresis" unicode="&#xd6;" horiz-adv-x="788" 
d="M427 866q0 38 26 63.5t63.5 25.5t63.5 -25.5t26 -63.5t-26 -63.5t-63.5 -25.5t-63.5 25.5t-26 63.5zM180 866q0 38 26 63.5t63.5 25.5t63.5 -25.5t26 -63.5t-26 -63.5t-63.5 -25.5t-63.5 25.5t-26 63.5zM182 353q0 -97 61.5 -159t150.5 -62t150.5 62t61.5 159
q0 95 -61.5 156t-150.5 61t-150.5 -61t-61.5 -156zM32 353q0 106 48.5 190.5t131.5 130.5t182 46t182 -46t131.5 -130.5t48.5 -190.5q0 -80 -28.5 -149.5t-77.5 -118t-115.5 -76t-140.5 -27.5t-140.5 27.5t-115.5 76t-77.5 118t-28.5 149.5z" />
    <glyph glyph-name="multiply" unicode="&#xd7;" horiz-adv-x="435" 
d="M35 357l93 93l90 -93l90 93l93 -93l-92 -91l92 -90l-93 -93l-90 93l-91 -93l-92 93l92 90z" />
    <glyph glyph-name="Oslash" unicode="&#xd8;" horiz-adv-x="788" 
d="M772 609l-637 -637l-119 119l637 637zM182 353q0 -97 61.5 -159t150.5 -62t150.5 62t61.5 159q0 95 -61.5 156t-150.5 61t-150.5 -61t-61.5 -156zM32 353q0 106 48.5 190.5t131.5 130.5t182 46t182 -46t131.5 -130.5t48.5 -190.5q0 -80 -28.5 -149.5t-77.5 -118
t-115.5 -76t-140.5 -27.5t-140.5 27.5t-115.5 76t-77.5 118t-28.5 149.5z" />
    <glyph glyph-name="Ugrave" unicode="&#xd9;" horiz-adv-x="690" 
d="M177 931l101 89l162 -159l-96 -84zM345 -11q-125 0 -209 83.5t-84 211.5v416h150v-406q0 -73 40 -114t103 -41t103 41t40 114v406h150v-416q0 -128 -84 -211.5t-209 -83.5z" />
    <glyph glyph-name="Uacute" unicode="&#xda;" horiz-adv-x="690" 
d="M503 931l-101 97l-154 -167l80 -84zM345 -11q-125 0 -209 83.5t-84 211.5v416h150v-406q0 -73 40 -114t103 -41t103 41t40 114v406h150v-416q0 -128 -84 -211.5t-209 -83.5z" />
    <glyph glyph-name="Ucircumflex" unicode="&#xdb;" horiz-adv-x="690" 
d="M327 986l-179 -129l57 -88l140 102l140 -102l57 88l-179 129h-36zM345 -11q-125 0 -209 83.5t-84 211.5v416h150v-406q0 -73 40 -114t103 -41t103 41t40 114v406h150v-416q0 -128 -84 -211.5t-209 -83.5z" />
    <glyph glyph-name="Udieresis" unicode="&#xdc;" horiz-adv-x="690" 
d="M378 866q0 38 26 63.5t63.5 25.5t63.5 -25.5t26 -63.5t-26 -63.5t-63.5 -25.5t-63.5 25.5t-26 63.5zM131 866q0 38 26 63.5t63.5 25.5t63.5 -25.5t26 -63.5t-26 -63.5t-63.5 -25.5t-63.5 25.5t-26 63.5zM345 -11q-125 0 -209 83.5t-84 211.5v416h150v-406q0 -73 40 -114
t103 -41t103 41t40 114v406h150v-416q0 -128 -84 -211.5t-209 -83.5z" />
    <glyph glyph-name="Yacute" unicode="&#xdd;" horiz-adv-x="691" 
d="M511 931l-101 97l-154 -167l80 -84zM280 0h151v223l236 477h-176l-135 -293l-155 293h-177l256 -477v-223z" />
    <glyph glyph-name="Thorn" unicode="&#xde;" horiz-adv-x="644" 
d="M202 457v-202h145q50 0 83 29.5t33 73.5q0 43 -33 71t-83 28h-145zM202 107v-107h-150v700h150v-95h155q110 0 183 -70.5t73 -176.5q0 -105 -77 -178t-189 -73h-145z" />
    <glyph glyph-name="germandbls" unicode="&#xdf;" horiz-adv-x="686" 
d="M505 392q63 -14 104.5 -72.5t41.5 -132.5q0 -86 -60.5 -142t-153.5 -56q-74 0 -128 40t-74 110l140 48q5 -22 21 -35t40 -13q29 0 47 22t18 58q0 43 -31.5 70.5t-82.5 27.5h-73v146h73q32 0 52 20.5t20 53.5q0 34 -27.5 54.5t-72.5 20.5q-73 0 -115 -47.5t-42 -131.5
v-433h-150v443q0 139 88 228t226 89q109 0 176 -57.5t67 -151.5q0 -114 -104 -159z" />
    <glyph glyph-name="agrave" unicode="&#xe0;" horiz-adv-x="528" 
d="M82 722l101 89l162 -159l-96 -84zM327 200l-96 -12q-49 -6 -49 -35q0 -34 52 -34q41 0 67 20.5t26 52.5h35q0 -88 -50.5 -145.5t-126.5 -57.5q-67 0 -110 42t-43 107.5t43.5 108t120.5 51.5l131 17v5q0 23 -22.5 39.5t-54.5 16.5q-28 0 -49 -14.5t-27 -38.5l-146 47
q21 63 81 102t137 39q94 0 162.5 -55.5t68.5 -130.5v-325h-150v200z" />
    <glyph glyph-name="aacute" unicode="&#xe1;" horiz-adv-x="528" 
d="M408 722l-101 97l-154 -167l80 -84zM327 200l-96 -12q-49 -6 -49 -35q0 -34 52 -34q41 0 67 20.5t26 52.5h35q0 -88 -50.5 -145.5t-126.5 -57.5q-67 0 -110 42t-43 107.5t43.5 108t120.5 51.5l131 17v5q0 23 -22.5 39.5t-54.5 16.5q-28 0 -49 -14.5t-27 -38.5l-146 47
q21 63 81 102t137 39q94 0 162.5 -55.5t68.5 -130.5v-325h-150v200z" />
    <glyph glyph-name="acircumflex" unicode="&#xe2;" horiz-adv-x="528" 
d="M232 777l-179 -129l57 -88l140 102l140 -102l57 88l-179 129h-36zM327 200l-96 -12q-49 -6 -49 -35q0 -34 52 -34q41 0 67 20.5t26 52.5h35q0 -88 -50.5 -145.5t-126.5 -57.5q-67 0 -110 42t-43 107.5t43.5 108t120.5 51.5l131 17v5q0 23 -22.5 39.5t-54.5 16.5
q-28 0 -49 -14.5t-27 -38.5l-146 47q21 63 81 102t137 39q94 0 162.5 -55.5t68.5 -130.5v-325h-150v200z" />
    <glyph glyph-name="atilde" unicode="&#xe3;" horiz-adv-x="528" 
d="M173 735q-56 0 -88 -37.5t-40 -105.5l94 -18q10 62 42 62q18 0 44 -22q58 -46 104 -46q54 0 86 38t40 105l-94 18q-10 -59 -46 -59q-22 0 -46 21q-29 25 -50 34.5t-46 9.5zM327 200l-96 -12q-49 -6 -49 -35q0 -34 52 -34q41 0 67 20.5t26 52.5h35q0 -88 -50.5 -145.5
t-126.5 -57.5q-67 0 -110 42t-43 107.5t43.5 108t120.5 51.5l131 17v5q0 23 -22.5 39.5t-54.5 16.5q-28 0 -49 -14.5t-27 -38.5l-146 47q21 63 81 102t137 39q94 0 162.5 -55.5t68.5 -130.5v-325h-150v200z" />
    <glyph glyph-name="adieresis" unicode="&#xe4;" horiz-adv-x="528" 
d="M283 657q0 38 26 63.5t63.5 25.5t63.5 -25.5t26 -63.5t-26 -63.5t-63.5 -25.5t-63.5 25.5t-26 63.5zM36 657q0 38 26 63.5t63.5 25.5t63.5 -25.5t26 -63.5t-26 -63.5t-63.5 -25.5t-63.5 25.5t-26 63.5zM327 200l-96 -12q-49 -6 -49 -35q0 -34 52 -34q41 0 67 20.5
t26 52.5h35q0 -88 -50.5 -145.5t-126.5 -57.5q-67 0 -110 42t-43 107.5t43.5 108t120.5 51.5l131 17v5q0 23 -22.5 39.5t-54.5 16.5q-28 0 -49 -14.5t-27 -38.5l-146 47q21 63 81 102t137 39q94 0 162.5 -55.5t68.5 -130.5v-325h-150v200z" />
    <glyph glyph-name="aring" unicode="&#xe5;" horiz-adv-x="528" 
d="M201 712.5q0 -21.5 14 -35.5t35 -14t35 14t14 35.5t-14 35t-35 13.5t-35 -13.5t-14 -35zM106 712.5q0 62.5 42 103.5t102 41t102 -41t42 -103.5t-42 -103.5t-102 -41t-102 41t-42 103.5zM327 200l-96 -12q-49 -6 -49 -35q0 -34 52 -34q41 0 67 20.5t26 52.5h35
q0 -88 -50.5 -145.5t-126.5 -57.5q-67 0 -110 42t-43 107.5t43.5 108t120.5 51.5l131 17v5q0 23 -22.5 39.5t-54.5 16.5q-28 0 -49 -14.5t-27 -38.5l-146 47q21 63 81 102t137 39q94 0 162.5 -55.5t68.5 -130.5v-325h-150v200z" />
    <glyph glyph-name="ae" unicode="&#xe6;" horiz-adv-x="896" 
d="M327 200l-96 -12q-49 -6 -49 -36q0 -15 14 -24t39 -9q40 0 66 20.5t26 52.5v8zM495 191q10 -33 39.5 -52t68.5 -19q31 0 57 12.5t39 33.5l138 -53q-32 -60 -94.5 -95.5t-135.5 -35.5q-109 0 -181 76.5t-72 194.5q0 115 70.5 191t176.5 76q111 0 187.5 -79t76.5 -195
q0 -22 -6 -55h-364zM711 312q-9 32 -39.5 51t-70.5 19q-39 0 -67 -18.5t-39 -51.5h216zM209 -11q-78 0 -127.5 43.5t-49.5 112.5q0 61 43 101.5t121 50.5l131 16v9q0 22 -22 38t-53 16q-29 0 -50 -14.5t-27 -37.5l-147 46q19 62 75.5 101.5t125.5 39.5q81 0 139 -54.5
t58 -131.5v-109q0 -99 -61.5 -163t-155.5 -64z" />
    <glyph glyph-name="ccedilla" unicode="&#xe7;" 
d="M342 -77q30 35 73 35t74 -40t31 -96q0 -67 -44 -109t-115 -42q-60 0 -104.5 30.5t-61.5 83.5l113 41q4 -19 18 -29.5t33 -10.5q20 0 32 10.5t12 28.5q0 17 -9 27.5t-23 10.5q-16 0 -29 -14l-115 36v138h115v-100zM182 251q0 -56 35.5 -91.5t86.5 -35.5q39 0 70 18.5
t47 52.5l138 -65q-35 -68 -103.5 -108t-151.5 -40q-114 0 -193 76t-79 193t79 193t193 76q85 0 154 -41t103 -112l-138 -65q-16 36 -47.5 56t-71.5 20q-51 0 -86.5 -35.5t-35.5 -91.5z" />
    <glyph glyph-name="egrave" unicode="&#xe8;" 
d="M118 722l101 89l162 -159l-96 -84zM408 312q-10 32 -40 51t-71 19q-39 0 -67 -18.5t-39 -51.5h217zM191 191q11 -34 40 -52.5t68 -18.5q31 0 57.5 12t39.5 34l138 -53q-33 -60 -96 -95.5t-138 -35.5q-115 0 -191.5 77t-76.5 193q0 115 74.5 191.5t185.5 76.5
q113 0 191 -78t78 -192q0 -26 -6 -59h-364z" />
    <glyph glyph-name="eacute" unicode="&#xe9;" 
d="M444 722l-101 97l-154 -167l80 -84zM408 312q-10 32 -40 51t-71 19q-39 0 -67 -18.5t-39 -51.5h217zM191 191q11 -34 40 -52.5t68 -18.5q31 0 57.5 12t39.5 34l138 -53q-33 -60 -96 -95.5t-138 -35.5q-115 0 -191.5 77t-76.5 193q0 115 74.5 191.5t185.5 76.5
q113 0 191 -78t78 -192q0 -26 -6 -59h-364z" />
    <glyph glyph-name="ecircumflex" unicode="&#xea;" 
d="M268 777l-179 -129l57 -88l140 102l140 -102l57 88l-179 129h-36zM408 312q-10 32 -40 51t-71 19q-39 0 -67 -18.5t-39 -51.5h217zM191 191q11 -34 40 -52.5t68 -18.5q31 0 57.5 12t39.5 34l138 -53q-33 -60 -96 -95.5t-138 -35.5q-115 0 -191.5 77t-76.5 193
q0 115 74.5 191.5t185.5 76.5q113 0 191 -78t78 -192q0 -26 -6 -59h-364z" />
    <glyph glyph-name="edieresis" unicode="&#xeb;" 
d="M319 657q0 38 26 63.5t63.5 25.5t63.5 -25.5t26 -63.5t-26 -63.5t-63.5 -25.5t-63.5 25.5t-26 63.5zM72 657q0 38 26 63.5t63.5 25.5t63.5 -25.5t26 -63.5t-26 -63.5t-63.5 -25.5t-63.5 25.5t-26 63.5zM408 312q-10 32 -40 51t-71 19q-39 0 -67 -18.5t-39 -51.5h217z
M191 191q11 -34 40 -52.5t68 -18.5q31 0 57.5 12t39.5 34l138 -53q-33 -60 -96 -95.5t-138 -35.5q-115 0 -191.5 77t-76.5 193q0 115 74.5 191.5t185.5 76.5q113 0 191 -78t78 -192q0 -26 -6 -59h-364z" />
    <glyph glyph-name="igrave" unicode="&#xec;" horiz-adv-x="253" 
d="M-41 722l101 89l162 -159l-96 -84zM52 0v500h150v-500h-150z" />
    <glyph glyph-name="iacute" unicode="&#xed;" horiz-adv-x="253" 
d="M285 722l-101 97l-154 -167l80 -84zM52 0v500h150v-500h-150z" />
    <glyph glyph-name="icircumflex" unicode="&#xee;" horiz-adv-x="253" 
d="M109 777l-179 -129l57 -88l140 102l140 -102l57 88l-179 129h-36zM52 0v500h150v-500h-150z" />
    <glyph glyph-name="idieresis" unicode="&#xef;" horiz-adv-x="253" 
d="M160 657q0 38 26 63.5t63.5 25.5t63.5 -25.5t26 -63.5t-26 -63.5t-63.5 -25.5t-63.5 25.5t-26 63.5zM-87 657q0 38 26 63.5t63.5 25.5t63.5 -25.5t26 -63.5t-26 -63.5t-63.5 -25.5t-63.5 25.5t-26 63.5zM52 0v500h150v-500h-150z" />
    <glyph glyph-name="eth" unicode="&#xf0;" horiz-adv-x="610" 
d="M498 764l-263 -215l65 -75l263 211zM418 228q0 -39 -36.5 -67.5t-87.5 -28.5q-48 0 -80 26t-32 65q0 40 33 65t84 25q52 0 85.5 -24t33.5 -61zM204 624q102 -17 159 -78.5t65 -163.5q-23 30 -68.5 47.5t-100.5 17.5q-95 0 -161 -66.5t-66 -162.5q0 -102 75 -169t190 -67
q78 0 142 35t97 96q42 77 42 202q0 193 -88 313.5t-242 137.5z" />
    <glyph glyph-name="ntilde" unicode="&#xf1;" horiz-adv-x="578" 
d="M211 735q-56 0 -88 -37.5t-40 -105.5l94 -18q10 62 42 62q18 0 44 -22q58 -46 104 -46q54 0 86 38t40 105l-94 18q-10 -59 -46 -59q-22 0 -46 21q-29 25 -50 34.5t-46 9.5zM52 0v500h150v-500h-150zM376 0v278q0 43 -23.5 67t-61.5 24q-36 0 -62.5 -26.5t-26.5 -64.5h-55
q0 99 55.5 166t138.5 67q81 0 133 -53t52 -145v-313h-150z" />
    <glyph glyph-name="ograve" unicode="&#xf2;" horiz-adv-x="618" 
d="M140 722l101 89l162 -159l-96 -84zM182 251q0 -56 37 -91.5t90 -35.5t90 35.5t37 91.5t-37 91.5t-90 35.5t-90 -35.5t-37 -91.5zM32 251q0 117 80 193t197 76t197 -76t80 -193t-80 -193t-197 -76t-197 76t-80 193z" />
    <glyph glyph-name="oacute" unicode="&#xf3;" horiz-adv-x="618" 
d="M466 722l-101 97l-154 -167l80 -84zM182 251q0 -56 37 -91.5t90 -35.5t90 35.5t37 91.5t-37 91.5t-90 35.5t-90 -35.5t-37 -91.5zM32 251q0 117 80 193t197 76t197 -76t80 -193t-80 -193t-197 -76t-197 76t-80 193z" />
    <glyph glyph-name="ocircumflex" unicode="&#xf4;" horiz-adv-x="618" 
d="M290 777l-179 -129l57 -88l140 102l140 -102l57 88l-179 129h-36zM182 251q0 -56 37 -91.5t90 -35.5t90 35.5t37 91.5t-37 91.5t-90 35.5t-90 -35.5t-37 -91.5zM32 251q0 117 80 193t197 76t197 -76t80 -193t-80 -193t-197 -76t-197 76t-80 193z" />
    <glyph glyph-name="otilde" unicode="&#xf5;" horiz-adv-x="618" 
d="M231 735q-56 0 -88 -37.5t-40 -105.5l94 -18q10 62 42 62q18 0 44 -22q58 -46 104 -46q54 0 86 38t40 105l-94 18q-10 -59 -46 -59q-22 0 -46 21q-29 25 -50 34.5t-46 9.5zM182 251q0 -56 37 -91.5t90 -35.5t90 35.5t37 91.5t-37 91.5t-90 35.5t-90 -35.5t-37 -91.5z
M32 251q0 117 80 193t197 76t197 -76t80 -193t-80 -193t-197 -76t-197 76t-80 193z" />
    <glyph glyph-name="odieresis" unicode="&#xf6;" horiz-adv-x="618" 
d="M341 657q0 38 26 63.5t63.5 25.5t63.5 -25.5t26 -63.5t-26 -63.5t-63.5 -25.5t-63.5 25.5t-26 63.5zM94 657q0 38 26 63.5t63.5 25.5t63.5 -25.5t26 -63.5t-26 -63.5t-63.5 -25.5t-63.5 25.5t-26 63.5zM182 251q0 -56 37 -91.5t90 -35.5t90 35.5t37 91.5t-37 91.5
t-90 35.5t-90 -35.5t-37 -91.5zM32 251q0 117 80 193t197 76t197 -76t80 -193t-80 -193t-197 -76t-197 76t-80 193z" />
    <glyph glyph-name="divide" unicode="&#xf7;" horiz-adv-x="435" 
d="M121 466q0 43 27.5 72.5t68.5 29.5q44 0 73.5 -29.5t29.5 -72.5t-28.5 -71t-71 -28t-71 28t-28.5 71zM121 61q0 43 27.5 72t68.5 29q44 0 73.5 -29t29.5 -72t-28.5 -71t-71 -28t-71 28t-28.5 71zM410 332v-131h-384v131h384z" />
    <glyph glyph-name="oslash" unicode="&#xf8;" horiz-adv-x="618" 
d="M519 537l75 -75l-495 -495l-75 75zM174 251q0 -59 39 -97t96 -38t96 38t39 97t-39 97t-96 38t-96 -38t-39 -97zM32 251q0 117 80 193t197 76t197 -76t80 -193t-80 -193t-197 -76t-197 76t-80 193z" />
    <glyph glyph-name="ugrave" unicode="&#xf9;" horiz-adv-x="558" 
d="M105 722l101 89l162 -159l-96 -84zM506 500v-500h-150v500h150zM202 500v-290q0 -37 21 -58t54 -21t56 21t23 50h55q0 -91 -53 -152t-131 -61q-76 0 -125.5 50t-49.5 136v325h150z" />
    <glyph glyph-name="uacute" unicode="&#xfa;" horiz-adv-x="558" 
d="M431 722l-101 97l-154 -167l80 -84zM506 500v-500h-150v500h150zM202 500v-290q0 -37 21 -58t54 -21t56 21t23 50h55q0 -91 -53 -152t-131 -61q-76 0 -125.5 50t-49.5 136v325h150z" />
    <glyph glyph-name="ucircumflex" unicode="&#xfb;" horiz-adv-x="558" 
d="M255 777l-179 -129l57 -88l140 102l140 -102l57 88l-179 129h-36zM506 500v-500h-150v500h150zM202 500v-290q0 -37 21 -58t54 -21t56 21t23 50h55q0 -91 -53 -152t-131 -61q-76 0 -125.5 50t-49.5 136v325h150z" />
    <glyph glyph-name="udieresis" unicode="&#xfc;" horiz-adv-x="558" 
d="M306 657q0 38 26 63.5t63.5 25.5t63.5 -25.5t26 -63.5t-26 -63.5t-63.5 -25.5t-63.5 25.5t-26 63.5zM59 657q0 38 26 63.5t63.5 25.5t63.5 -25.5t26 -63.5t-26 -63.5t-63.5 -25.5t-63.5 25.5t-26 63.5zM506 500v-500h-150v500h150zM202 500v-290q0 -37 21 -58t54 -21
t56 21t23 50h55q0 -91 -53 -152t-131 -61q-76 0 -125.5 50t-49.5 136v325h150z" />
    <glyph glyph-name="yacute" unicode="&#xfd;" horiz-adv-x="609" 
d="M462 722l-101 97l-154 -167l80 -84zM422 500l-117 -328l-118 328h-159l192 -488l-77 -212h159l279 700h-159z" />
    <glyph glyph-name="thorn" unicode="&#xfe;" horiz-adv-x="638" 
d="M52 -200v950h150v-950h-150zM202 251q0 -55 36.5 -91t90.5 -36t90.5 36t36.5 91t-36.5 91t-90.5 36t-90.5 -36t-36.5 -91zM152 251q0 116 64 192.5t160 76.5q97 0 163.5 -77t66.5 -192t-66.5 -192t-163.5 -77q-96 0 -160 76.5t-64 192.5z" />
    <glyph glyph-name="ydieresis" unicode="&#xff;" horiz-adv-x="609" 
d="M337 657q0 38 26 63.5t63.5 25.5t63.5 -25.5t26 -63.5t-26 -63.5t-63.5 -25.5t-63.5 25.5t-26 63.5zM90 657q0 38 26 63.5t63.5 25.5t63.5 -25.5t26 -63.5t-26 -63.5t-63.5 -25.5t-63.5 25.5t-26 63.5zM422 500l-117 -328l-118 328h-159l192 -488l-77 -212h159l279 700
h-159z" />
    <glyph glyph-name="Amacron" unicode="&#x100;" horiz-adv-x="795" 
d="M573 901v-114h-342v114h342zM208 290h383v-140h-383v140zM201 0h-173l270 700h198l271 -700h-173l-195 546z" />
    <glyph glyph-name="amacron" unicode="&#x101;" horiz-adv-x="528" 
d="M425 692v-114h-342v114h342zM327 200l-96 -12q-49 -6 -49 -35q0 -34 52 -34q41 0 67 20.5t26 52.5h35q0 -88 -50.5 -145.5t-126.5 -57.5q-67 0 -110 42t-43 107.5t43.5 108t120.5 51.5l131 17v5q0 23 -22.5 39.5t-54.5 16.5q-28 0 -49 -14.5t-27 -38.5l-146 47
q21 63 81 102t137 39q94 0 162.5 -55.5t68.5 -130.5v-325h-150v200z" />
    <glyph glyph-name="Abreve" unicode="&#x102;" horiz-adv-x="795" 
d="M397 780q-83 0 -141.5 53.5t-58.5 129.5h114q0 -34 24.5 -57t62.5 -23q39 0 66 23.5t27 56.5h114q0 -73 -62 -128t-146 -55zM208 290h383v-140h-383v140zM201 0h-173l270 700h198l271 -700h-173l-195 546z" />
    <glyph glyph-name="abreve" unicode="&#x103;" horiz-adv-x="528" 
d="M249 571q-83 0 -141.5 53.5t-58.5 129.5h114q0 -34 24.5 -57t62.5 -23q39 0 66 23.5t27 56.5h114q0 -73 -62 -128t-146 -55zM327 200l-96 -12q-49 -6 -49 -35q0 -34 52 -34q41 0 67 20.5t26 52.5h35q0 -88 -50.5 -145.5t-126.5 -57.5q-67 0 -110 42t-43 107.5t43.5 108
t120.5 51.5l131 17v5q0 23 -22.5 39.5t-54.5 16.5q-28 0 -49 -14.5t-27 -38.5l-146 47q21 63 81 102t137 39q94 0 162.5 -55.5t68.5 -130.5v-325h-150v200z" />
    <glyph glyph-name="Aogonek" unicode="&#x104;" horiz-adv-x="795" 
d="M627 -27v34h105v-59l-67 -46q-41 -27 -41 -60q0 -17 10 -27.5t25 -10.5q32 0 40 32l102 -19q-14 -55 -51.5 -86t-88.5 -31q-64 0 -104 35t-40 90q0 37 18 64.5t66 65.5zM208 290h383v-140h-383v140zM201 0h-173l270 700h198l271 -700h-173l-195 546z" />
    <glyph glyph-name="aogonek" unicode="&#x105;" horiz-adv-x="528" 
d="M351 -27v34h105v-59l-67 -46q-41 -27 -41 -60q0 -17 10 -27.5t25 -10.5q32 0 40 32l102 -19q-14 -55 -51.5 -86t-88.5 -31q-64 0 -104 35t-40 90q0 37 18 64.5t66 65.5zM327 200l-96 -12q-49 -6 -49 -35q0 -34 52 -34q41 0 67 20.5t26 52.5h35q0 -88 -50.5 -145.5
t-126.5 -57.5q-67 0 -110 42t-43 107.5t43.5 108t120.5 51.5l131 17v5q0 23 -22.5 39.5t-54.5 16.5q-28 0 -49 -14.5t-27 -38.5l-146 47q21 63 81 102t137 39q94 0 162.5 -55.5t68.5 -130.5v-325h-150v200z" />
    <glyph glyph-name="Cacute" unicode="&#x106;" horiz-adv-x="778" 
d="M552 931l-101 97l-154 -167l80 -84zM32 351q0 103 48 188t131.5 133t184.5 48q114 0 206 -61.5t139 -168.5l-151 -53q-26 62 -78 97.5t-117 35.5q-90 0 -151.5 -63t-61.5 -156t61.5 -156t151.5 -63q67 0 120 38t79 104l152 -52q-45 -111 -139.5 -175.5t-210.5 -64.5
q-101 0 -184.5 48t-131.5 133t-48 188z" />
    <glyph glyph-name="cacute" unicode="&#x107;" 
d="M463 722l-101 97l-154 -167l80 -84zM182 251q0 -56 35.5 -91.5t86.5 -35.5q39 0 70 18.5t47 52.5l138 -65q-35 -68 -103.5 -108t-151.5 -40q-114 0 -193 76t-79 193t79 193t193 76q85 0 154 -41t103 -112l-138 -65q-16 36 -47.5 56t-71.5 20q-51 0 -86.5 -35.5
t-35.5 -91.5z" />
    <glyph glyph-name="Ccircumflex" unicode="&#x108;" horiz-adv-x="778" 
d="M376 986l-179 -129l57 -88l140 102l140 -102l57 88l-179 129h-36zM32 351q0 103 48 188t131.5 133t184.5 48q114 0 206 -61.5t139 -168.5l-151 -53q-26 62 -78 97.5t-117 35.5q-90 0 -151.5 -63t-61.5 -156t61.5 -156t151.5 -63q67 0 120 38t79 104l152 -52
q-45 -111 -139.5 -175.5t-210.5 -64.5q-101 0 -184.5 48t-131.5 133t-48 188z" />
    <glyph glyph-name="ccircumflex" unicode="&#x109;" 
d="M287 777l-179 -129l57 -88l140 102l140 -102l57 88l-179 129h-36zM182 251q0 -56 35.5 -91.5t86.5 -35.5q39 0 70 18.5t47 52.5l138 -65q-35 -68 -103.5 -108t-151.5 -40q-114 0 -193 76t-79 193t79 193t193 76q85 0 154 -41t103 -112l-138 -65q-16 36 -47.5 56t-71.5 20
q-51 0 -86.5 -35.5t-35.5 -91.5z" />
    <glyph glyph-name="Cdotaccent" unicode="&#x10a;" horiz-adv-x="778" 
d="M305 866q0 38 25.5 63.5t63.5 25.5t63.5 -25.5t25.5 -63.5t-25.5 -63.5t-63.5 -25.5t-63.5 25.5t-25.5 63.5zM32 351q0 103 48 188t131.5 133t184.5 48q114 0 206 -61.5t139 -168.5l-151 -53q-26 62 -78 97.5t-117 35.5q-90 0 -151.5 -63t-61.5 -156t61.5 -156t151.5 -63
q67 0 120 38t79 104l152 -52q-45 -111 -139.5 -175.5t-210.5 -64.5q-101 0 -184.5 48t-131.5 133t-48 188z" />
    <glyph glyph-name="cdotaccent" unicode="&#x10b;" 
d="M216 657q0 38 25.5 63.5t63.5 25.5t63.5 -25.5t25.5 -63.5t-25.5 -63.5t-63.5 -25.5t-63.5 25.5t-25.5 63.5zM182 251q0 -56 35.5 -91.5t86.5 -35.5q39 0 70 18.5t47 52.5l138 -65q-35 -68 -103.5 -108t-151.5 -40q-114 0 -193 76t-79 193t79 193t193 76q85 0 154 -41
t103 -112l-138 -65q-16 36 -47.5 56t-71.5 20q-51 0 -86.5 -35.5t-35.5 -91.5z" />
    <glyph glyph-name="Ccaron" unicode="&#x10c;" horiz-adv-x="778" 
d="M412 769l179 128l-57 89l-140 -103l-140 103l-57 -89l179 -128h36zM32 351q0 103 48 188t131.5 133t184.5 48q114 0 206 -61.5t139 -168.5l-151 -53q-26 62 -78 97.5t-117 35.5q-90 0 -151.5 -63t-61.5 -156t61.5 -156t151.5 -63q67 0 120 38t79 104l152 -52
q-45 -111 -139.5 -175.5t-210.5 -64.5q-101 0 -184.5 48t-131.5 133t-48 188z" />
    <glyph glyph-name="ccaron" unicode="&#x10d;" 
d="M323 560l179 128l-57 89l-140 -103l-140 103l-57 -89l179 -128h36zM182 251q0 -56 35.5 -91.5t86.5 -35.5q39 0 70 18.5t47 52.5l138 -65q-35 -68 -103.5 -108t-151.5 -40q-114 0 -193 76t-79 193t79 193t193 76q85 0 154 -41t103 -112l-138 -65q-16 36 -47.5 56
t-71.5 20q-51 0 -86.5 -35.5t-35.5 -91.5z" />
    <glyph glyph-name="Dcaron" unicode="&#x10e;" horiz-adv-x="706" 
d="M352 769l179 128l-57 89l-140 -103l-140 103l-57 -89l179 -128h36zM334 0h-282v700h282q70 0 132.5 -26t108.5 -71.5t73 -111t27 -140.5q0 -76 -27 -141.5t-73 -111.5t-108.5 -72t-132.5 -26zM324 554h-122v-408h122q84 0 142 57.5t58 147.5q0 89 -58 146t-142 57z" />
    <glyph glyph-name="dcaron" unicode="&#x10f;" horiz-adv-x="842" 
d="M690 824l133 -38l-58 -246l-129 36zM586 0h-150v750h150v-750zM436 251q0 55 -36.5 91t-90.5 36t-90.5 -36t-36.5 -91t36.5 -91t90.5 -36t90.5 36t36.5 91zM486 251q0 -116 -64 -192.5t-160 -76.5q-97 0 -163.5 77t-66.5 192t66.5 192t163.5 77q96 0 160 -76.5t64 -192.5
z" />
    <glyph glyph-name="Dcroat" unicode="&#x110;" horiz-adv-x="714" 
d="M350 424v-131h-350v131h350zM342 0h-279v700h279q70 0 132.5 -26t108.5 -71.5t73 -111t27 -140.5q0 -76 -27 -141.5t-73 -111.5t-108.5 -72t-132.5 -26zM332 554h-118v-408h118q84 0 142.5 57.5t58.5 147.5q0 89 -58.5 146t-142.5 57z" />
    <glyph glyph-name="dcroat" unicode="&#x111;" horiz-adv-x="668" 
d="M486 251q0 -116 -64 -192.5t-160 -76.5q-97 0 -163.5 77t-66.5 192t66.5 192t163.5 77q96 0 160 -76.5t64 -192.5zM436 251q0 55 -36.5 91t-90.5 36t-90.5 -36t-36.5 -91t36.5 -91t90.5 -36t90.5 36t36.5 91zM586 0h-150v566h-192v130h192v54h150v-54h82v-130h-82v-566z
" />
    <glyph glyph-name="Emacron" unicode="&#x112;" horiz-adv-x="587" 
d="M485 901v-114h-342v114h342zM202 425h326v-148h-326v-129h350v-148h-500v700h500v-148h-350v-127z" />
    <glyph glyph-name="emacron" unicode="&#x113;" 
d="M461 692v-114h-342v114h342zM408 312q-10 32 -40 51t-71 19q-39 0 -67 -18.5t-39 -51.5h217zM191 191q11 -34 40 -52.5t68 -18.5q31 0 57.5 12t39.5 34l138 -53q-33 -60 -96 -95.5t-138 -35.5q-115 0 -191.5 77t-76.5 193q0 115 74.5 191.5t185.5 76.5q113 0 191 -78
t78 -192q0 -26 -6 -59h-364z" />
    <glyph glyph-name="Ebreve" unicode="&#x114;" horiz-adv-x="587" 
d="M309 780q-83 0 -141.5 53.5t-58.5 129.5h114q0 -34 24.5 -57t62.5 -23q39 0 66 23.5t27 56.5h114q0 -73 -62 -128t-146 -55zM202 425h326v-148h-326v-129h350v-148h-500v700h500v-148h-350v-127z" />
    <glyph glyph-name="ebreve" unicode="&#x115;" 
d="M285 571q-83 0 -141.5 53.5t-58.5 129.5h114q0 -34 24.5 -57t62.5 -23q39 0 66 23.5t27 56.5h114q0 -73 -62 -128t-146 -55zM408 312q-10 32 -40 51t-71 19q-39 0 -67 -18.5t-39 -51.5h217zM191 191q11 -34 40 -52.5t68 -18.5q31 0 57.5 12t39.5 34l138 -53
q-33 -60 -96 -95.5t-138 -35.5q-115 0 -191.5 77t-76.5 193q0 115 74.5 191.5t185.5 76.5q113 0 191 -78t78 -192q0 -26 -6 -59h-364z" />
    <glyph glyph-name="Edotaccent" unicode="&#x116;" horiz-adv-x="587" 
d="M221 866q0 38 25.5 63.5t63.5 25.5t63.5 -25.5t25.5 -63.5t-25.5 -63.5t-63.5 -25.5t-63.5 25.5t-25.5 63.5zM202 425h326v-148h-326v-129h350v-148h-500v700h500v-148h-350v-127z" />
    <glyph glyph-name="edotaccent" unicode="&#x117;" 
d="M197 657q0 38 25.5 63.5t63.5 25.5t63.5 -25.5t25.5 -63.5t-25.5 -63.5t-63.5 -25.5t-63.5 25.5t-25.5 63.5zM408 312q-10 32 -40 51t-71 19q-39 0 -67 -18.5t-39 -51.5h217zM191 191q11 -34 40 -52.5t68 -18.5q31 0 57.5 12t39.5 34l138 -53q-33 -60 -96 -95.5
t-138 -35.5q-115 0 -191.5 77t-76.5 193q0 115 74.5 191.5t185.5 76.5q113 0 191 -78t78 -192q0 -26 -6 -59h-364z" />
    <glyph glyph-name="Eogonek" unicode="&#x118;" horiz-adv-x="587" 
d="M442 -27v34h105v-59l-67 -46q-41 -27 -41 -60q0 -17 10 -27.5t25 -10.5q32 0 40 32l102 -19q-14 -55 -51.5 -86t-88.5 -31q-64 0 -104 35t-40 90q0 37 18 64.5t66 65.5zM202 425h326v-148h-326v-129h350v-148h-500v700h500v-148h-350v-127z" />
    <glyph glyph-name="eogonek" unicode="&#x119;" 
d="M236 -27v34h105v-59l-67 -46q-41 -27 -41 -60q0 -17 10 -27.5t25 -10.5q32 0 40 32l102 -19q-14 -55 -51.5 -86t-88.5 -31q-64 0 -104 35t-40 90q0 37 18 64.5t66 65.5zM408 312q-10 32 -40 51t-71 19q-39 0 -67 -18.5t-39 -51.5h217zM191 191q11 -34 40 -52.5t68 -18.5
q31 0 57.5 12t39.5 34l138 -53q-33 -60 -96 -95.5t-138 -35.5q-115 0 -191.5 77t-76.5 193q0 115 74.5 191.5t185.5 76.5q113 0 191 -78t78 -192q0 -26 -6 -59h-364z" />
    <glyph glyph-name="Ecaron" unicode="&#x11a;" horiz-adv-x="587" 
d="M328 769l179 128l-57 89l-140 -103l-140 103l-57 -89l179 -128h36zM202 425h326v-148h-326v-129h350v-148h-500v700h500v-148h-350v-127z" />
    <glyph glyph-name="ecaron" unicode="&#x11b;" 
d="M304 560l179 128l-57 89l-140 -103l-140 103l-57 -89l179 -128h36zM408 312q-10 32 -40 51t-71 19q-39 0 -67 -18.5t-39 -51.5h217zM191 191q11 -34 40 -52.5t68 -18.5q31 0 57.5 12t39.5 34l138 -53q-33 -60 -96 -95.5t-138 -35.5q-115 0 -191.5 77t-76.5 193
q0 115 74.5 191.5t185.5 76.5q113 0 191 -78t78 -192q0 -26 -6 -59h-364z" />
    <glyph glyph-name="Gcircumflex" unicode="&#x11c;" horiz-adv-x="788" 
d="M376 986l-179 -129l57 -88l140 102l140 -102l57 88l-179 129h-36zM182 351q0 -96 61.5 -157.5t150.5 -61.5q73 0 127 39t70 103h-240v135h402q3 -24 3 -72q0 -101 -48.5 -182.5t-131.5 -127t-182 -45.5t-182 46.5t-131.5 131.5t-48.5 191t48.5 191t131.5 131.5t182 46.5
q105 0 192.5 -53t131.5 -143l-136 -70q-26 54 -76 85t-112 31q-89 0 -150.5 -61.5t-61.5 -157.5z" />
    <glyph glyph-name="gcircumflex" unicode="&#x11d;" horiz-adv-x="598" 
d="M270 777l-179 -129l57 -88l140 102l140 -102l57 88l-179 129h-36zM454 272q0 -105 -58.5 -174.5t-146.5 -69.5q-92 0 -154.5 70t-62.5 173q0 104 63.5 175.5t154.5 71.5q86 0 145 -71t59 -175zM396 269q0 43 -30.5 71t-76.5 28t-76.5 -28t-30.5 -71t30.5 -71t76.5 -28
t76.5 28t30.5 71zM396 13v487h150v-487q0 -110 -70 -176t-185 -66q-85 0 -152.5 37.5t-102.5 103.5l127 89q18 -36 50 -56t71 -20q48 0 80 25t32 63z" />
    <glyph glyph-name="Gbreve" unicode="&#x11e;" horiz-adv-x="788" 
d="M393 780q-83 0 -141.5 53.5t-58.5 129.5h114q0 -34 24.5 -57t62.5 -23q39 0 66 23.5t27 56.5h114q0 -73 -62 -128t-146 -55zM182 351q0 -96 61.5 -157.5t150.5 -61.5q73 0 127 39t70 103h-240v135h402q3 -24 3 -72q0 -101 -48.5 -182.5t-131.5 -127t-182 -45.5t-182 46.5
t-131.5 131.5t-48.5 191t48.5 191t131.5 131.5t182 46.5q105 0 192.5 -53t131.5 -143l-136 -70q-26 54 -76 85t-112 31q-89 0 -150.5 -61.5t-61.5 -157.5z" />
    <glyph glyph-name="gbreve" unicode="&#x11f;" horiz-adv-x="598" 
d="M287 571q-83 0 -141.5 53.5t-58.5 129.5h114q0 -34 24.5 -57t62.5 -23q39 0 66 23.5t27 56.5h114q0 -73 -62 -128t-146 -55zM454 272q0 -105 -58.5 -174.5t-146.5 -69.5q-92 0 -154.5 70t-62.5 173q0 104 63.5 175.5t154.5 71.5q86 0 145 -71t59 -175zM396 269
q0 43 -30.5 71t-76.5 28t-76.5 -28t-30.5 -71t30.5 -71t76.5 -28t76.5 28t30.5 71zM396 13v487h150v-487q0 -110 -70 -176t-185 -66q-85 0 -152.5 37.5t-102.5 103.5l127 89q18 -36 50 -56t71 -20q48 0 80 25t32 63z" />
    <glyph glyph-name="Gdotaccent" unicode="&#x120;" horiz-adv-x="788" 
d="M305 866q0 38 25.5 63.5t63.5 25.5t63.5 -25.5t25.5 -63.5t-25.5 -63.5t-63.5 -25.5t-63.5 25.5t-25.5 63.5zM182 351q0 -96 61.5 -157.5t150.5 -61.5q73 0 127 39t70 103h-240v135h402q3 -24 3 -72q0 -101 -48.5 -182.5t-131.5 -127t-182 -45.5t-182 46.5t-131.5 131.5
t-48.5 191t48.5 191t131.5 131.5t182 46.5q105 0 192.5 -53t131.5 -143l-136 -70q-26 54 -76 85t-112 31q-89 0 -150.5 -61.5t-61.5 -157.5z" />
    <glyph glyph-name="gdotaccent" unicode="&#x121;" horiz-adv-x="598" 
d="M199 657q0 38 25.5 63.5t63.5 25.5t63.5 -25.5t25.5 -63.5t-25.5 -63.5t-63.5 -25.5t-63.5 25.5t-25.5 63.5zM454 272q0 -105 -58.5 -174.5t-146.5 -69.5q-92 0 -154.5 70t-62.5 173q0 104 63.5 175.5t154.5 71.5q86 0 145 -71t59 -175zM396 269q0 43 -30.5 71t-76.5 28
t-76.5 -28t-30.5 -71t30.5 -71t76.5 -28t76.5 28t30.5 71zM396 13v487h150v-487q0 -110 -70 -176t-185 -66q-85 0 -152.5 37.5t-102.5 103.5l127 89q18 -36 50 -56t71 -20q48 0 80 25t32 63z" />
    <glyph glyph-name="uni0122" unicode="&#x122;" horiz-adv-x="788" 
d="M436 -278q0 -32 -22 -56.5t-57 -24.5t-59.5 23t-24.5 57q0 30 17 53l125 179l51 -39l-82 -115q24 -10 38 -31t14 -46zM182 351q0 -96 61.5 -157.5t150.5 -61.5q73 0 127 39t70 103h-240v135h402q3 -24 3 -72q0 -101 -48.5 -182.5t-131.5 -127t-182 -45.5t-182 46.5
t-131.5 131.5t-48.5 191t48.5 191t131.5 131.5t182 46.5q105 0 192.5 -53t131.5 -143l-136 -70q-26 54 -76 85t-112 31q-89 0 -150.5 -61.5t-61.5 -157.5z" />
    <glyph glyph-name="uni0123" unicode="&#x123;" horiz-adv-x="598" 
d="M368 650q0 -33 -22.5 -57.5t-57.5 -24.5t-59.5 23.5t-24.5 57.5q0 29 17 52l125 179l51 -39l-81 -115q23 -9 37.5 -30t14.5 -46zM454 272q0 -105 -58.5 -174.5t-146.5 -69.5q-92 0 -154.5 70t-62.5 173q0 104 63.5 175.5t154.5 71.5q86 0 145 -71t59 -175zM396 269
q0 43 -30.5 71t-76.5 28t-76.5 -28t-30.5 -71t30.5 -71t76.5 -28t76.5 28t30.5 71zM396 13v487h150v-487q0 -110 -70 -176t-185 -66q-85 0 -152.5 37.5t-102.5 103.5l127 89q18 -36 50 -56t71 -20q48 0 80 25t32 63z" />
    <glyph glyph-name="Hcircumflex" unicode="&#x124;" horiz-adv-x="696" 
d="M331 986l-179 -129l57 -88l140 102l140 -102l57 88l-179 129h-36zM52 0v700h150v-275h293v275h150v-700h-150v277h-293v-277h-150z" />
    <glyph glyph-name="hcircumflex" unicode="&#x125;" horiz-adv-x="578" 
d="M108 1009l-179 -129l57 -88l140 102l140 -102l57 88l-179 129h-36zM52 0v750h150v-750h-150zM376 0v278q0 43 -23.5 67t-61.5 24q-36 0 -62.5 -26.5t-26.5 -64.5h-55q0 99 55.5 166t138.5 67q81 0 133 -53t52 -145v-313h-150z" />
    <glyph glyph-name="Hbar" unicode="&#x126;" horiz-adv-x="696" 
d="M697 616v-130h-52v-486h-150v269h-293v-269h-150v486h-52v130h52v84h150v-84h293v84h150v-84h52zM202 486v-69h293v69h-293z" />
    <glyph glyph-name="hbar" unicode="&#x127;" horiz-adv-x="586" 
d="M60 0v558h-60v130h60v62h150v-62h205v-130h-205v-558h-150zM385 0v278q0 43 -24 67t-61 24t-63.5 -26.5t-26.5 -64.5h-54q0 99 55.5 166t138.5 67q80 0 132.5 -53t52.5 -145v-313h-150z" />
    <glyph glyph-name="Itilde" unicode="&#x128;" horiz-adv-x="253" 
d="M50 944q-56 0 -88 -37.5t-40 -105.5l94 -18q10 62 42 62q18 0 44 -22q58 -46 104 -46q54 0 86 38t40 105l-94 18q-10 -59 -46 -59q-22 0 -46 21q-29 25 -50 34.5t-46 9.5zM202 0h-150v700h150v-700z" />
    <glyph glyph-name="itilde" unicode="&#x129;" horiz-adv-x="253" 
d="M50 735q-56 0 -88 -37.5t-40 -105.5l94 -18q10 62 42 62q18 0 44 -22q58 -46 104 -46q54 0 86 38t40 105l-94 18q-10 -59 -46 -59q-22 0 -46 21q-29 25 -50 34.5t-46 9.5zM52 0v500h150v-500h-150z" />
    <glyph glyph-name="Imacron" unicode="&#x12a;" horiz-adv-x="253" 
d="M302 901v-114h-342v114h342zM202 0h-150v700h150v-700z" />
    <glyph glyph-name="imacron" unicode="&#x12b;" horiz-adv-x="253" 
d="M302 692v-114h-342v114h342zM52 0v500h150v-500h-150z" />
    <glyph glyph-name="Ibreve" unicode="&#x12c;" horiz-adv-x="253" 
d="M126 780q-83 0 -141.5 53.5t-58.5 129.5h114q0 -34 24.5 -57t62.5 -23q39 0 66 23.5t27 56.5h114q0 -73 -62 -128t-146 -55zM202 0h-150v700h150v-700z" />
    <glyph glyph-name="ibreve" unicode="&#x12d;" horiz-adv-x="253" 
d="M126 571q-83 0 -141.5 53.5t-58.5 129.5h114q0 -34 24.5 -57t62.5 -23q39 0 66 23.5t27 56.5h114q0 -73 -62 -128t-146 -55zM52 0v500h150v-500h-150z" />
    <glyph glyph-name="Iogonek" unicode="&#x12e;" horiz-adv-x="253" 
d="M75 -27v34h105v-59l-67 -46q-41 -27 -41 -60q0 -17 10 -27.5t25 -10.5q32 0 40 32l102 -19q-14 -55 -51.5 -86t-88.5 -31q-64 0 -104 35t-40 90q0 37 18 64.5t66 65.5zM202 0h-150v700h150v-700z" />
    <glyph glyph-name="iogonek" unicode="&#x12f;" horiz-adv-x="246" 
d="M71 -27v34h105v-59l-67 -46q-41 -27 -41 -60q0 -17 10 -27.5t25 -10.5q32 0 40 32l102 -19q-14 -55 -51.5 -86t-88.5 -31q-64 0 -104 35t-40 90q0 37 18 64.5t66 65.5zM34 647.5q0 37.5 26 63.5t63.5 26t63.5 -26t26 -63.5t-26 -63t-63.5 -25.5t-63.5 25.5t-26 63zM48 0
v500h151v-500h-151z" />
    <glyph glyph-name="Idotaccent" unicode="&#x130;" horiz-adv-x="253" 
d="M38 866q0 38 25.5 63.5t63.5 25.5t63.5 -25.5t25.5 -63.5t-25.5 -63.5t-63.5 -25.5t-63.5 25.5t-25.5 63.5zM202 0h-150v700h150v-700z" />
    <glyph glyph-name="dotlessi" unicode="&#x131;" horiz-adv-x="253" 
d="M52 0v500h150v-500h-150z" />
    <glyph glyph-name="IJ" unicode="&#x132;" horiz-adv-x="902" 
d="M286 199l140 54q33 -114 139 -114q60 0 98.5 39t38.5 109v413h150v-423q0 -125 -82.5 -206.5t-204.5 -81.5q-102 0 -175.5 55.5t-103.5 154.5zM202 0h-150v700h150v-700z" />
    <glyph glyph-name="ij" unicode="&#x133;" horiz-adv-x="493" 
d="M281 647.5q0 37.5 26 63.5t63.5 26t63.5 -26t26 -63.5t-26 -63t-63.5 -25.5t-63.5 25.5t-26 63zM226 -72q33 0 51 24.5t18 62.5v485h151v-532q0 -77 -54 -132.5t-140 -55.5h-54v148h28zM34 647.5q0 37.5 26 63.5t63.5 26t63.5 -26t26 -63.5t-26 -63t-63.5 -25.5
t-63.5 25.5t-26 63zM48 0v500h151v-500h-151z" />
    <glyph glyph-name="Jcircumflex" unicode="&#x134;" horiz-adv-x="649" 
d="M502 986l-179 -129l57 -88l140 102l140 -102l57 88l-179 129h-36zM32 199l140 54q33 -114 139 -114q60 0 98.5 39t38.5 109v413h150v-423q0 -125 -82.5 -206.5t-204.5 -81.5q-102 0 -175.5 55.5t-103.5 154.5z" />
    <glyph glyph-name="jcircumflex" unicode="&#x135;" horiz-adv-x="246" 
d="M105 776l-179 -129l57 -88l140 102l140 -102l57 88l-179 129h-36zM-21 -72q33 0 51 24.5t18 62.5v485h151v-532q0 -77 -54 -132.5t-140 -55.5h-54v148h28z" />
    <glyph glyph-name="uni0136" unicode="&#x136;" horiz-adv-x="679" 
d="M346 -278q0 -32 -22 -56.5t-57 -24.5t-59.5 23t-24.5 57q0 30 17 53l125 179l51 -39l-82 -115q24 -10 38 -31t14 -46zM52 0v700h150v-275h28l230 275h193l-294 -350l294 -350h-193l-230 272h-28v-272h-150z" />
    <glyph glyph-name="uni0137" unicode="&#x137;" horiz-adv-x="587" 
d="M332 -278q0 -32 -22 -56.5t-57 -24.5t-59.5 23t-24.5 57q0 30 17 53l125 179l51 -39l-82 -115q24 -10 38 -31t14 -46zM52 0v750h150v-425h27l144 175h193l-209 -250l209 -250h-193l-144 172h-27v-172h-150z" />
    <glyph glyph-name="kgreenlandic" unicode="&#x138;" horiz-adv-x="587" 
d="M52 0v500h150v-175h27l144 175h193l-209 -250l209 -250h-193l-144 172h-27v-172h-150z" />
    <glyph glyph-name="Lacute" unicode="&#x139;" horiz-adv-x="577" 
d="M285 931l-101 97l-154 -167l80 -84zM202 148h350v-148h-500v700h150v-552z" />
    <glyph glyph-name="lacute" unicode="&#x13a;" horiz-adv-x="253" 
d="M284 954l-101 97l-154 -167l80 -84zM52 0v750h150v-750h-150z" />
    <glyph glyph-name="uni013B" unicode="&#x13b;" horiz-adv-x="577" 
d="M344 -278q0 -32 -22 -56.5t-57 -24.5t-59.5 23t-24.5 57q0 30 17 53l125 179l51 -39l-82 -115q24 -10 38 -31t14 -46zM202 148h350v-148h-500v700h150v-552z" />
    <glyph glyph-name="uni013C" unicode="&#x13c;" horiz-adv-x="253" 
d="M169 -278q0 -32 -22 -56.5t-57 -24.5t-59.5 23t-24.5 57q0 30 17 53l125 179l51 -39l-82 -115q24 -10 38 -31t14 -46zM52 0v750h150v-750h-150z" />
    <glyph glyph-name="Lcaron" unicode="&#x13d;" horiz-adv-x="577" 
d="M385 746l133 -38l-58 -246l-129 36zM202 148h350v-148h-500v700h150v-552z" />
    <glyph glyph-name="lcaron" unicode="&#x13e;" horiz-adv-x="430" 
d="M304 824l133 -38l-58 -246l-129 36zM52 0v750h150v-750h-150z" />
    <glyph glyph-name="Ldot" unicode="&#x13f;" horiz-adv-x="577" 
d="M305 359q0 42 26.5 71t67.5 29q43 0 72 -29t29 -71t-28 -70t-70 -28t-69.5 28t-27.5 70zM202 148h350v-148h-500v700h150v-552z" />
    <glyph glyph-name="ldot" unicode="&#x140;" horiz-adv-x="513" 
d="M287 368q0 42 26.5 71t67.5 29q43 0 72 -29t29 -71t-28 -70t-70 -28t-69.5 28t-27.5 70zM52 0v750h150v-750h-150z" />
    <glyph glyph-name="Lslash" unicode="&#x141;" horiz-adv-x="579" 
d="M336 471l25 -128l-342 -70l-24 128zM204 148h349v-148h-500v700h151v-552z" />
    <glyph glyph-name="lslash" unicode="&#x142;" horiz-adv-x="329" 
d="M302 475l25 -130l-300 -48l-25 129zM87 0v750h150v-750h-150z" />
    <glyph glyph-name="Nacute" unicode="&#x143;" horiz-adv-x="696" 
d="M511 931l-101 97l-154 -167l80 -84zM52 0v700h171l272 -460v460h150v-700h-171l-272 462v-462h-150z" />
    <glyph glyph-name="nacute" unicode="&#x144;" horiz-adv-x="578" 
d="M446 722l-101 97l-154 -167l80 -84zM52 0v500h150v-500h-150zM376 0v278q0 43 -23.5 67t-61.5 24q-36 0 -62.5 -26.5t-26.5 -64.5h-55q0 99 55.5 166t138.5 67q81 0 133 -53t52 -145v-313h-150z" />
    <glyph glyph-name="uni0145" unicode="&#x145;" horiz-adv-x="696" 
d="M404 -278q0 -32 -22 -56.5t-57 -24.5t-59.5 23t-24.5 57q0 30 17 53l125 179l51 -39l-82 -115q24 -10 38 -31t14 -46zM52 0v700h171l272 -460v460h150v-700h-171l-272 462v-462h-150z" />
    <glyph glyph-name="uni0146" unicode="&#x146;" horiz-adv-x="578" 
d="M341 -278q0 -32 -22 -56.5t-57 -24.5t-59.5 23t-24.5 57q0 30 17 53l125 179l51 -39l-82 -115q24 -10 38 -31t14 -46zM52 0v500h150v-500h-150zM376 0v278q0 43 -23.5 67t-61.5 24q-36 0 -62.5 -26.5t-26.5 -64.5h-55q0 99 55.5 166t138.5 67q81 0 133 -53t52 -145v-313
h-150z" />
    <glyph glyph-name="Ncaron" unicode="&#x147;" horiz-adv-x="696" 
d="M371 769l179 128l-57 89l-140 -103l-140 103l-57 -89l179 -128h36zM52 0v700h171l272 -460v460h150v-700h-171l-272 462v-462h-150z" />
    <glyph glyph-name="ncaron" unicode="&#x148;" horiz-adv-x="578" 
d="M306 560l179 128l-57 89l-140 -103l-140 103l-57 -89l179 -128h36zM52 0v500h150v-500h-150zM376 0v278q0 43 -23.5 67t-61.5 24q-36 0 -62.5 -26.5t-26.5 -64.5h-55q0 99 55.5 166t138.5 67q81 0 133 -53t52 -145v-313h-150z" />
    <glyph glyph-name="napostrophe" unicode="&#x149;" horiz-adv-x="792" 
d="M267 0v500h150v-500h-150zM591 0v278q0 43 -23.5 67t-61.5 24q-36 0 -62.5 -26.5t-26.5 -64.5h-55q0 99 55.5 166t138.5 67q81 0 133 -53t52 -145v-313h-150zM81 775l134 -38l-59 -246l-129 36z" />
    <glyph glyph-name="Eng" unicode="&#x14a;" horiz-adv-x="664" 
d="M52 0v700h150v-700h-150zM390 -26q35 0 54 23t19 59v370q0 63 -34 99t-88 36q-57 0 -98 -39.5t-41 -95.5h-55q0 75 32 140.5t89 105t125 39.5q93 0 156.5 -73t63.5 -185v-411q0 -88 -59 -152t-154 -64h-71v148h61z" />
    <glyph glyph-name="eng" unicode="&#x14b;" horiz-adv-x="578" 
d="M52 0v500h150v-500h-150zM376 25v253q0 42 -23.5 66.5t-62.5 24.5q-37 0 -62.5 -26.5t-25.5 -64.5h-55q0 96 57 164.5t137 68.5t132.5 -54t52.5 -136v-318q0 -78 -53.5 -130.5t-134.5 -52.5h-62v140h44q26 0 41 17.5t15 47.5z" />
    <glyph glyph-name="Omacron" unicode="&#x14c;" horiz-adv-x="788" 
d="M569 901v-114h-342v114h342zM182 353q0 -97 61.5 -159t150.5 -62t150.5 62t61.5 159q0 95 -61.5 156t-150.5 61t-150.5 -61t-61.5 -156zM32 353q0 106 48.5 190.5t131.5 130.5t182 46t182 -46t131.5 -130.5t48.5 -190.5q0 -80 -28.5 -149.5t-77.5 -118t-115.5 -76
t-140.5 -27.5t-140.5 27.5t-115.5 76t-77.5 118t-28.5 149.5z" />
    <glyph glyph-name="omacron" unicode="&#x14d;" horiz-adv-x="618" 
d="M483 692v-114h-342v114h342zM182 251q0 -56 37 -91.5t90 -35.5t90 35.5t37 91.5t-37 91.5t-90 35.5t-90 -35.5t-37 -91.5zM32 251q0 117 80 193t197 76t197 -76t80 -193t-80 -193t-197 -76t-197 76t-80 193z" />
    <glyph glyph-name="Obreve" unicode="&#x14e;" horiz-adv-x="788" 
d="M393 780q-83 0 -141.5 53.5t-58.5 129.5h114q0 -34 24.5 -57t62.5 -23q39 0 66 23.5t27 56.5h114q0 -73 -62 -128t-146 -55zM182 353q0 -97 61.5 -159t150.5 -62t150.5 62t61.5 159q0 95 -61.5 156t-150.5 61t-150.5 -61t-61.5 -156zM32 353q0 106 48.5 190.5
t131.5 130.5t182 46t182 -46t131.5 -130.5t48.5 -190.5q0 -80 -28.5 -149.5t-77.5 -118t-115.5 -76t-140.5 -27.5t-140.5 27.5t-115.5 76t-77.5 118t-28.5 149.5z" />
    <glyph glyph-name="obreve" unicode="&#x14f;" horiz-adv-x="618" 
d="M307 571q-83 0 -141.5 53.5t-58.5 129.5h114q0 -34 24.5 -57t62.5 -23q39 0 66 23.5t27 56.5h114q0 -73 -62 -128t-146 -55zM182 251q0 -56 37 -91.5t90 -35.5t90 35.5t37 91.5t-37 91.5t-90 35.5t-90 -35.5t-37 -91.5zM32 251q0 117 80 193t197 76t197 -76t80 -193
t-80 -193t-197 -76t-197 76t-80 193z" />
    <glyph glyph-name="Ohungarumlaut" unicode="&#x150;" horiz-adv-x="788" 
d="M639 914l-67 89l-168 -160l52 -66zM396 914l-67 89l-169 -160l52 -66zM182 353q0 -97 61.5 -159t150.5 -62t150.5 62t61.5 159q0 95 -61.5 156t-150.5 61t-150.5 -61t-61.5 -156zM32 353q0 106 48.5 190.5t131.5 130.5t182 46t182 -46t131.5 -130.5t48.5 -190.5
q0 -80 -28.5 -149.5t-77.5 -118t-115.5 -76t-140.5 -27.5t-140.5 27.5t-115.5 76t-77.5 118t-28.5 149.5z" />
    <glyph glyph-name="ohungarumlaut" unicode="&#x151;" horiz-adv-x="618" 
d="M553 705l-67 89l-168 -160l52 -66zM310 705l-67 89l-169 -160l52 -66zM182 251q0 -56 37 -91.5t90 -35.5t90 35.5t37 91.5t-37 91.5t-90 35.5t-90 -35.5t-37 -91.5zM32 251q0 117 80 193t197 76t197 -76t80 -193t-80 -193t-197 -76t-197 76t-80 193z" />
    <glyph glyph-name="OE" unicode="&#x152;" horiz-adv-x="1171" 
d="M756 425h360v-148h-360v-129h384v-148h-534v700h534v-148h-384v-127zM182 353q0 -95 60.5 -158t151.5 -63t151.5 63t60.5 158q0 93 -60.5 155t-151.5 62t-151.5 -62t-60.5 -155zM32 353q0 103 45 187t124 132t176 48q143 0 239.5 -105t96.5 -262q0 -104 -44 -189
t-121 -133.5t-171 -48.5q-97 0 -176 48.5t-124 133.5t-45 189z" />
    <glyph glyph-name="oe" unicode="&#x153;" horiz-adv-x="1015" 
d="M831 312q-11 32 -43.5 51t-75.5 19q-42 0 -72.5 -18.5t-42.5 -51.5h234zM597 191q12 -33 43.5 -52t73.5 -19q34 0 62.5 12.5t42.5 33.5l138 -53q-33 -60 -96.5 -95.5t-136.5 -35.5q-109 0 -181 76.5t-72 193.5q0 116 70.5 192t176.5 76q112 0 189 -79.5t77 -194.5
q0 -22 -6 -55h-381zM182 251q0 -55 36.5 -91t90.5 -36t90.5 36t36.5 91t-36.5 91t-90.5 36t-90.5 -36t-36.5 -91zM32 251q0 114 76 191.5t188 77.5q109 0 182 -76.5t73 -192.5t-73 -192.5t-182 -76.5q-112 0 -188 77.5t-76 191.5z" />
    <glyph glyph-name="Racute" unicode="&#x154;" horiz-adv-x="644" 
d="M480 931l-101 97l-154 -167l80 -84zM351 552h-149v-165h149q44 0 73.5 24t29.5 60q0 35 -29 58t-74 23zM443 257l170 -257h-173l-159 240h-79v-240h-150v700h309q110 0 181 -64t71 -169q0 -80 -47 -138t-123 -72z" />
    <glyph glyph-name="racute" unicode="&#x155;" horiz-adv-x="386" 
d="M384 722l-101 97l-154 -167l80 -84zM52 0v500h150v-500h-150zM336 358q-56 0 -95 -30.5t-39 -72.5h-55q0 110 54 181.5t134 71.5h28v-150h-27z" />
    <glyph glyph-name="uni0156" unicode="&#x156;" horiz-adv-x="644" 
d="M356 -278q0 -32 -22 -56.5t-57 -24.5t-59.5 23t-24.5 57q0 30 17 53l125 179l51 -39l-82 -115q24 -10 38 -31t14 -46zM351 552h-149v-165h149q44 0 73.5 24t29.5 60q0 35 -29 58t-74 23zM443 257l170 -257h-173l-159 240h-79v-240h-150v700h309q110 0 181 -64t71 -169
q0 -80 -47 -138t-123 -72z" />
    <glyph glyph-name="uni0157" unicode="&#x157;" horiz-adv-x="386" 
d="M170 -278q0 -32 -22 -56.5t-57 -24.5t-59.5 23t-24.5 57q0 30 17 53l125 179l51 -39l-82 -115q24 -10 38 -31t14 -46zM52 0v500h150v-500h-150zM336 358q-56 0 -95 -30.5t-39 -72.5h-55q0 110 54 181.5t134 71.5h28v-150h-27z" />
    <glyph glyph-name="Rcaron" unicode="&#x158;" horiz-adv-x="644" 
d="M340 769l179 128l-57 89l-140 -103l-140 103l-57 -89l179 -128h36zM351 552h-149v-165h149q44 0 73.5 24t29.5 60q0 35 -29 58t-74 23zM443 257l170 -257h-173l-159 240h-79v-240h-150v700h309q110 0 181 -64t71 -169q0 -80 -47 -138t-123 -72z" />
    <glyph glyph-name="rcaron" unicode="&#x159;" horiz-adv-x="386" 
d="M244 560l179 128l-57 89l-140 -103l-140 103l-57 -89l179 -128h36zM52 0v500h150v-500h-150zM336 358q-56 0 -95 -30.5t-39 -72.5h-55q0 110 54 181.5t134 71.5h28v-150h-27z" />
    <glyph glyph-name="Sacute" unicode="&#x15a;" horiz-adv-x="590" 
d="M437 931l-101 97l-154 -167l80 -84zM282 276q-116 19 -180 77.5t-64 146.5q0 93 68 153t174 60q92 0 166 -47t106 -126l-145 -53q-16 38 -49 60.5t-74 22.5q-39 0 -64 -19t-25 -49q0 -28 27.5 -45.5t87.5 -28.5q117 -21 183 -82t66 -148q0 -91 -70.5 -150t-180.5 -59
q-92 0 -167.5 44.5t-108.5 119.5l146 69q17 -42 51 -66t77 -24q41 0 68 19.5t27 49.5q0 56 -119 75z" />
    <glyph glyph-name="sacute" unicode="&#x15b;" horiz-adv-x="490" 
d="M408 722l-101 97l-154 -167l80 -84zM237 184q-197 25 -197 161q0 74 54 121t138 47q72 0 132 -36.5t86 -96.5l-146 -43q-9 22 -28 35t-41 13q-20 0 -32.5 -9.5t-12.5 -24.5q0 -30 76 -40q92 -11 142.5 -53t50.5 -108q0 -70 -56 -115.5t-143 -45.5q-77 0 -139 36t-89 97
l145 44q11 -27 32.5 -42t47.5 -15q22 0 37 10.5t15 25.5t-17 24t-55 15z" />
    <glyph glyph-name="Scircumflex" unicode="&#x15c;" horiz-adv-x="590" 
d="M261 986l-179 -129l57 -88l140 102l140 -102l57 88l-179 129h-36zM282 276q-116 19 -180 77.5t-64 146.5q0 93 68 153t174 60q92 0 166 -47t106 -126l-145 -53q-16 38 -49 60.5t-74 22.5q-39 0 -64 -19t-25 -49q0 -28 27.5 -45.5t87.5 -28.5q117 -21 183 -82t66 -148
q0 -91 -70.5 -150t-180.5 -59q-92 0 -167.5 44.5t-108.5 119.5l146 69q17 -42 51 -66t77 -24q41 0 68 19.5t27 49.5q0 56 -119 75z" />
    <glyph glyph-name="scircumflex" unicode="&#x15d;" horiz-adv-x="490" 
d="M232 777l-179 -129l57 -88l140 102l140 -102l57 88l-179 129h-36zM237 184q-197 25 -197 161q0 74 54 121t138 47q72 0 132 -36.5t86 -96.5l-146 -43q-9 22 -28 35t-41 13q-20 0 -32.5 -9.5t-12.5 -24.5q0 -30 76 -40q92 -11 142.5 -53t50.5 -108q0 -70 -56 -115.5
t-143 -45.5q-77 0 -139 36t-89 97l145 44q11 -27 32.5 -42t47.5 -15q22 0 37 10.5t15 25.5t-17 24t-55 15z" />
    <glyph glyph-name="Scedilla" unicode="&#x15e;" horiz-adv-x="590" 
d="M350 -77q30 35 73 35t74 -40t31 -96q0 -67 -44 -109t-115 -42q-60 0 -104.5 30.5t-61.5 83.5l113 41q4 -19 18 -29.5t33 -10.5q20 0 32 10.5t12 28.5q0 17 -9 27.5t-23 10.5q-16 0 -29 -14l-115 36v138h115v-100zM282 276q-116 19 -180 77.5t-64 146.5q0 93 68 153
t174 60q92 0 166 -47t106 -126l-145 -53q-16 38 -49 60.5t-74 22.5q-39 0 -64 -19t-25 -49q0 -28 27.5 -45.5t87.5 -28.5q117 -21 183 -82t66 -148q0 -91 -70.5 -150t-180.5 -59q-92 0 -167.5 44.5t-108.5 119.5l146 69q17 -42 51 -66t77 -24q41 0 68 19.5t27 49.5
q0 56 -119 75z" />
    <glyph glyph-name="scedilla" unicode="&#x15f;" horiz-adv-x="490" 
d="M300 -77q30 35 73 35t74 -40t31 -96q0 -67 -44 -109t-115 -42q-60 0 -104.5 30.5t-61.5 83.5l113 41q4 -19 18 -29.5t33 -10.5q20 0 32 10.5t12 28.5q0 17 -9 27.5t-23 10.5q-16 0 -29 -14l-115 36v138h115v-100zM237 184q-197 25 -197 161q0 74 54 121t138 47
q72 0 132 -36.5t86 -96.5l-146 -43q-9 22 -28 35t-41 13q-20 0 -32.5 -9.5t-12.5 -24.5q0 -30 76 -40q92 -11 142.5 -53t50.5 -108q0 -70 -56 -115.5t-143 -45.5q-77 0 -139 36t-89 97l145 44q11 -27 32.5 -42t47.5 -15q22 0 37 10.5t15 25.5t-17 24t-55 15z" />
    <glyph glyph-name="Scaron" unicode="&#x160;" horiz-adv-x="590" 
d="M297 769l179 128l-57 89l-140 -103l-140 103l-57 -89l179 -128h36zM282 276q-116 19 -180 77.5t-64 146.5q0 93 68 153t174 60q92 0 166 -47t106 -126l-145 -53q-16 38 -49 60.5t-74 22.5q-39 0 -64 -19t-25 -49q0 -28 27.5 -45.5t87.5 -28.5q117 -21 183 -82t66 -148
q0 -91 -70.5 -150t-180.5 -59q-92 0 -167.5 44.5t-108.5 119.5l146 69q17 -42 51 -66t77 -24q41 0 68 19.5t27 49.5q0 56 -119 75z" />
    <glyph glyph-name="scaron" unicode="&#x161;" horiz-adv-x="490" 
d="M268 560l179 128l-57 89l-140 -103l-140 103l-57 -89l179 -128h36zM237 184q-197 25 -197 161q0 74 54 121t138 47q72 0 132 -36.5t86 -96.5l-146 -43q-9 22 -28 35t-41 13q-20 0 -32.5 -9.5t-12.5 -24.5q0 -30 76 -40q92 -11 142.5 -53t50.5 -108q0 -70 -56 -115.5
t-143 -45.5q-77 0 -139 36t-89 97l145 44q11 -27 32.5 -42t47.5 -15q22 0 37 10.5t15 25.5t-17 24t-55 15z" />
    <glyph glyph-name="uni0162" unicode="&#x162;" horiz-adv-x="611" 
d="M345 -77q30 35 73 35t74 -40t31 -96q0 -67 -44 -109t-115 -42q-60 0 -104.5 30.5t-61.5 83.5l113 41q4 -19 18 -29.5t33 -10.5q20 0 32 10.5t12 28.5q0 17 -9 27.5t-23 10.5q-16 0 -29 -14l-115 36v138h115v-100zM588 700v-148h-207v-552h-150v552h-207v148h564z" />
    <glyph glyph-name="uni0163" unicode="&#x163;" horiz-adv-x="428" 
d="M344 -77q30 35 73 35t74 -40t31 -96q0 -67 -44 -109t-115 -42q-60 0 -104.5 30.5t-61.5 83.5l113 41q4 -19 18 -29.5t33 -10.5q20 0 32 10.5t12 28.5q0 17 -9 27.5t-23 10.5q-16 0 -29 -14l-115 36v138h115v-100zM327 140h76v-140h-99q-89 0 -140.5 44.5t-51.5 122.5v194
h-86v139h86v137l151 31v-168h140v-139h-140v-159q0 -28 17 -45t47 -17z" />
    <glyph glyph-name="Tcaron" unicode="&#x164;" horiz-adv-x="611" 
d="M324 772l179 128l-57 89l-140 -103l-140 103l-57 -89l179 -128h36zM588 700v-148h-207v-552h-150v552h-207v148h564z" />
    <glyph glyph-name="tcaron" unicode="&#x165;" horiz-adv-x="428" 
d="M391 824l133 -38l-58 -246l-129 36zM327 140h76v-140h-99q-89 0 -140.5 44.5t-51.5 122.5v194h-86v139h86v137l151 31v-168h140v-139h-140v-159q0 -28 17 -45t47 -17z" />
    <glyph glyph-name="Tbar" unicode="&#x166;" horiz-adv-x="611" 
d="M504 380v-147h-401v147h401zM588 700v-148h-207v-552h-150v552h-207v148h564z" />
    <glyph glyph-name="tbar" unicode="&#x167;" horiz-adv-x="428" 
d="M402 325v-114h-372v114h372zM327 140h76v-140h-99q-89 0 -140.5 42t-51.5 116v220h-86v122h86v137l151 31v-168h140v-122h-140v-193q0 -20 17 -32.5t47 -12.5z" />
    <glyph glyph-name="Utilde" unicode="&#x168;" horiz-adv-x="690" 
d="M268 944q-56 0 -88 -37.5t-40 -105.5l94 -18q10 62 42 62q18 0 44 -22q58 -46 104 -46q54 0 86 38t40 105l-94 18q-10 -59 -46 -59q-22 0 -46 21q-29 25 -50 34.5t-46 9.5zM345 -11q-125 0 -209 83.5t-84 211.5v416h150v-406q0 -73 40 -114t103 -41t103 41t40 114v406
h150v-416q0 -128 -84 -211.5t-209 -83.5z" />
    <glyph glyph-name="utilde" unicode="&#x169;" horiz-adv-x="558" 
d="M196 735q-56 0 -88 -37.5t-40 -105.5l94 -18q10 62 42 62q18 0 44 -22q58 -46 104 -46q54 0 86 38t40 105l-94 18q-10 -59 -46 -59q-22 0 -46 21q-29 25 -50 34.5t-46 9.5zM506 500v-500h-150v500h150zM202 500v-290q0 -37 21 -58t54 -21t56 21t23 50h55q0 -91 -53 -152
t-131 -61q-76 0 -125.5 50t-49.5 136v325h150z" />
    <glyph glyph-name="Umacron" unicode="&#x16a;" horiz-adv-x="690" 
d="M520 901v-114h-342v114h342zM345 -11q-125 0 -209 83.5t-84 211.5v416h150v-406q0 -73 40 -114t103 -41t103 41t40 114v406h150v-416q0 -128 -84 -211.5t-209 -83.5z" />
    <glyph glyph-name="umacron" unicode="&#x16b;" horiz-adv-x="558" 
d="M448 692v-114h-342v114h342zM506 500v-500h-150v500h150zM202 500v-290q0 -37 21 -58t54 -21t56 21t23 50h55q0 -91 -53 -152t-131 -61q-76 0 -125.5 50t-49.5 136v325h150z" />
    <glyph glyph-name="Ubreve" unicode="&#x16c;" horiz-adv-x="690" 
d="M344 780q-83 0 -141.5 53.5t-58.5 129.5h114q0 -34 24.5 -57t62.5 -23q39 0 66 23.5t27 56.5h114q0 -73 -62 -128t-146 -55zM345 -11q-125 0 -209 83.5t-84 211.5v416h150v-406q0 -73 40 -114t103 -41t103 41t40 114v406h150v-416q0 -128 -84 -211.5t-209 -83.5z" />
    <glyph glyph-name="ubreve" unicode="&#x16d;" horiz-adv-x="558" 
d="M272 571q-83 0 -141.5 53.5t-58.5 129.5h114q0 -34 24.5 -57t62.5 -23q39 0 66 23.5t27 56.5h114q0 -73 -62 -128t-146 -55zM506 500v-500h-150v500h150zM202 500v-290q0 -37 21 -58t54 -21t56 21t23 50h55q0 -91 -53 -152t-131 -61q-76 0 -125.5 50t-49.5 136v325h150z
" />
    <glyph glyph-name="Uring" unicode="&#x16e;" horiz-adv-x="690" 
d="M296 921.5q0 -21.5 14 -35.5t35 -14t35 14t14 35.5t-14 35t-35 13.5t-35 -13.5t-14 -35zM201 921.5q0 62.5 42 103.5t102 41t102 -41t42 -103.5t-42 -103.5t-102 -41t-102 41t-42 103.5zM345 -11q-125 0 -209 83.5t-84 211.5v416h150v-406q0 -73 40 -114t103 -41t103 41
t40 114v406h150v-416q0 -128 -84 -211.5t-209 -83.5z" />
    <glyph glyph-name="uring" unicode="&#x16f;" horiz-adv-x="558" 
d="M224 712.5q0 -21.5 14 -35.5t35 -14t35 14t14 35.5t-14 35t-35 13.5t-35 -13.5t-14 -35zM129 712.5q0 62.5 42 103.5t102 41t102 -41t42 -103.5t-42 -103.5t-102 -41t-102 41t-42 103.5zM506 500v-500h-150v500h150zM202 500v-290q0 -37 21 -58t54 -21t56 21t23 50h55
q0 -91 -53 -152t-131 -61q-76 0 -125.5 50t-49.5 136v325h150z" />
    <glyph glyph-name="Uhungarumlaut" unicode="&#x170;" horiz-adv-x="690" 
d="M590 914l-67 89l-168 -160l52 -66zM347 914l-67 89l-169 -160l52 -66zM345 -11q-125 0 -209 83.5t-84 211.5v416h150v-406q0 -73 40 -114t103 -41t103 41t40 114v406h150v-416q0 -128 -84 -211.5t-209 -83.5z" />
    <glyph glyph-name="uhungarumlaut" unicode="&#x171;" horiz-adv-x="558" 
d="M518 705l-67 89l-168 -160l52 -66zM275 705l-67 89l-169 -160l52 -66zM506 500v-500h-150v500h150zM202 500v-290q0 -37 21 -58t54 -21t56 21t23 50h55q0 -91 -53 -152t-131 -61q-76 0 -125.5 50t-49.5 136v325h150z" />
    <glyph glyph-name="Uogonek" unicode="&#x172;" horiz-adv-x="690" 
d="M292 -27v34h105v-59l-67 -46q-41 -27 -41 -60q0 -17 10 -27.5t25 -10.5q32 0 40 32l102 -19q-14 -55 -51.5 -86t-88.5 -31q-64 0 -104 35t-40 90q0 37 18 64.5t66 65.5zM345 -11q-125 0 -209 83.5t-84 211.5v416h150v-406q0 -73 40 -114t103 -41t103 41t40 114v406h150
v-416q0 -128 -84 -211.5t-209 -83.5z" />
    <glyph glyph-name="uogonek" unicode="&#x173;" horiz-adv-x="558" 
d="M390 -27v34h105v-59l-67 -46q-41 -27 -41 -60q0 -17 10 -27.5t25 -10.5q32 0 40 32l102 -19q-14 -55 -51.5 -86t-88.5 -31q-64 0 -104 35t-40 90q0 37 18 64.5t66 65.5zM506 500v-500h-150v500h150zM202 500v-290q0 -37 21 -58t54 -21t56 21t23 50h55q0 -91 -53 -152
t-131 -61q-76 0 -125.5 50t-49.5 136v325h150z" />
    <glyph glyph-name="Wcircumflex" unicode="&#x174;" horiz-adv-x="1047" 
d="M503 986l-179 -129l57 -88l140 102l140 -102l57 88l-179 129h-36zM855 700h165l-156 -700h-222l-118 484l-101 -484h-222l-173 700h164l126 -519l121 519h171l132 -519z" />
    <glyph glyph-name="wcircumflex" unicode="&#x175;" horiz-adv-x="912" 
d="M435 777l-179 -129l57 -88l140 102l140 -102l57 88l-179 129h-36zM729 500h156l-134 -500h-205l-90 309l-81 -309h-205l-142 500h156l95 -361l100 361h155l103 -361z" />
    <glyph glyph-name="Ycircumflex" unicode="&#x176;" horiz-adv-x="691" 
d="M335 986l-179 -129l57 -88l140 102l140 -102l57 88l-179 129h-36zM280 0h151v223l236 477h-176l-135 -293l-155 293h-177l256 -477v-223z" />
    <glyph glyph-name="ycircumflex" unicode="&#x177;" horiz-adv-x="609" 
d="M286 777l-179 -129l57 -88l140 102l140 -102l57 88l-179 129h-36zM422 500l-117 -328l-118 328h-159l192 -488l-77 -212h159l279 700h-159z" />
    <glyph glyph-name="Ydieresis" unicode="&#x178;" horiz-adv-x="691" 
d="M386 866q0 38 26 63.5t63.5 25.5t63.5 -25.5t26 -63.5t-26 -63.5t-63.5 -25.5t-63.5 25.5t-26 63.5zM139 866q0 38 26 63.5t63.5 25.5t63.5 -25.5t26 -63.5t-26 -63.5t-63.5 -25.5t-63.5 25.5t-26 63.5zM280 0h151v223l236 477h-176l-135 -293l-155 293h-177l256 -477
v-223z" />
    <glyph glyph-name="Zacute" unicode="&#x179;" horiz-adv-x="628" 
d="M473 931l-101 97l-154 -167l80 -84zM588 0v147h-370l370 379v174h-548v-147h370l-370 -373v-180h548z" />
    <glyph glyph-name="zacute" unicode="&#x17a;" horiz-adv-x="490" 
d="M409 722l-101 97l-154 -167l80 -84zM459 0v130h-257l257 216v154h-427v-130h232l-232 -216v-154h427z" />
    <glyph glyph-name="Zdotaccent" unicode="&#x17b;" horiz-adv-x="628" 
d="M226 866q0 38 25.5 63.5t63.5 25.5t63.5 -25.5t25.5 -63.5t-25.5 -63.5t-63.5 -25.5t-63.5 25.5t-25.5 63.5zM588 0v147h-370l370 379v174h-548v-147h370l-370 -373v-180h548z" />
    <glyph glyph-name="zdotaccent" unicode="&#x17c;" horiz-adv-x="490" 
d="M162 657q0 38 25.5 63.5t63.5 25.5t63.5 -25.5t25.5 -63.5t-25.5 -63.5t-63.5 -25.5t-63.5 25.5t-25.5 63.5zM459 0v130h-257l257 216v154h-427v-130h232l-232 -216v-154h427z" />
    <glyph glyph-name="Zcaron" unicode="&#x17d;" horiz-adv-x="628" 
d="M333 769l179 128l-57 89l-140 -103l-140 103l-57 -89l179 -128h36zM588 0v147h-370l370 379v174h-548v-147h370l-370 -373v-180h548z" />
    <glyph glyph-name="zcaron" unicode="&#x17e;" horiz-adv-x="490" 
d="M269 560l179 128l-57 89l-140 -103l-140 103l-57 -89l179 -128h36zM459 0v130h-257l257 216v154h-427v-130h232l-232 -216v-154h427z" />
    <glyph glyph-name="Ohorn" unicode="&#x1a0;" horiz-adv-x="808" 
d="M569 568v93h60q47 0 47 39q0 27 -28 48l80 66q54 -33 54 -105q0 -58 -35.5 -99.5t-86.5 -41.5h-91zM182 353q0 -97 61.5 -159t150.5 -62t150.5 62t61.5 159q0 95 -61.5 156t-150.5 61t-150.5 -61t-61.5 -156zM32 353q0 106 48.5 190.5t131.5 130.5t182 46t182 -46
t131.5 -130.5t48.5 -190.5q0 -80 -28.5 -149.5t-77.5 -118t-115.5 -76t-140.5 -27.5t-140.5 27.5t-115.5 76t-77.5 118t-28.5 149.5z" />
    <glyph glyph-name="ohorn" unicode="&#x1a1;" horiz-adv-x="691" 
d="M468 360v93h60q47 0 47 39q0 27 -28 48l80 66q54 -33 54 -105q0 -58 -35.5 -99.5t-86.5 -41.5h-91zM182 251q0 -56 37 -91.5t90 -35.5t90 35.5t37 91.5t-37 91.5t-90 35.5t-90 -35.5t-37 -91.5zM32 251q0 117 80 193t197 76t197 -76t80 -193t-80 -193t-197 -76t-197 76
t-80 193z" />
    <glyph glyph-name="Uhorn" unicode="&#x1af;" horiz-adv-x="806" 
d="M589 568v93h60q47 0 47 39q0 27 -28 48l80 66q54 -33 54 -105q0 -58 -35.5 -99.5t-86.5 -41.5h-91zM345 -11q-125 0 -209 83.5t-84 211.5v416h150v-406q0 -73 40 -114t103 -41t103 41t40 114v406h150v-416q0 -128 -84 -211.5t-209 -83.5z" />
    <glyph glyph-name="uhorn" unicode="&#x1b0;" horiz-adv-x="681" 
d="M468 360v93h60q47 0 47 39q0 27 -28 48l80 66q54 -33 54 -105q0 -58 -35.5 -99.5t-86.5 -41.5h-91zM506 500v-500h-150v500h150zM202 500v-290q0 -37 21 -58t54 -21t56 21t23 50h55q0 -91 -53 -152t-131 -61q-76 0 -125.5 50t-49.5 136v325h150z" />
    <glyph glyph-name="uni0237" unicode="&#x237;" horiz-adv-x="246" 
d="M-21 -72q33 0 51 24.5t18 62.5v485h151v-532q0 -77 -54 -132.5t-140 -55.5h-54v148h28z" />
    <glyph glyph-name="uni02BC" unicode="&#x2bc;" horiz-adv-x="214" 
d="M81 775l134 -38l-59 -246l-129 36z" />
    <glyph glyph-name="gravecomb" unicode="&#x300;" horiz-adv-x="264" 
d="M-9 654l101 89l162 -159l-96 -84z" />
    <glyph glyph-name="acutecomb" unicode="&#x301;" horiz-adv-x="264" 
d="M263 654l-101 97l-154 -167l80 -84z" />
    <glyph glyph-name="uni0302" unicode="&#x302;" horiz-adv-x="388" 
d="M176 709l-179 -129l57 -88l140 102l140 -102l57 88l-179 129h-36z" />
    <glyph glyph-name="tildecomb" unicode="&#x303;" horiz-adv-x="404" 
d="M125 667q-56 0 -88 -37.5t-40 -105.5l94 -18q10 62 42 62q18 0 44 -22q58 -46 104 -46q54 0 86 38t40 105l-94 18q-10 -59 -46 -59q-22 0 -46 21q-29 25 -50 34.5t-46 9.5z" />
    <glyph glyph-name="uni0304" unicode="&#x304;" horiz-adv-x="352" 
d="M347 624v-114h-342v114h342z" />
    <glyph glyph-name="uni0306" unicode="&#x306;" horiz-adv-x="338" 
d="M165 503q-83 0 -141.5 53.5t-58.5 129.5h114q0 -34 24.5 -57t62.5 -23q39 0 66 23.5t27 56.5h114q0 -73 -62 -128t-146 -55z" />
    <glyph glyph-name="uni0307" unicode="&#x307;" horiz-adv-x="170" 
d="M-4 589q0 38 25.5 63.5t63.5 25.5t63.5 -25.5t25.5 -63.5t-25.5 -63.5t-63.5 -25.5t-63.5 25.5t-25.5 63.5z" />
    <glyph glyph-name="uni0308" unicode="&#x308;" horiz-adv-x="390" 
d="M229 589q0 38 26 63.5t63.5 25.5t63.5 -25.5t26 -63.5t-26 -63.5t-63.5 -25.5t-63.5 25.5t-26 63.5zM-18 589q0 38 26 63.5t63.5 25.5t63.5 -25.5t26 -63.5t-26 -63.5t-63.5 -25.5t-63.5 25.5t-26 63.5z" />
    <glyph glyph-name="hookabovecomb" unicode="&#x309;" horiz-adv-x="260" 
d="M135 482l-59 81l57 36q33 20 33 50q0 20 -13 32.5t-33 12.5q-37 0 -45 -36l-93 23q14 51 51.5 80.5t88.5 29.5q63 0 103 -39.5t40 -102.5q0 -42 -21 -72.5t-67 -65.5z" />
    <glyph glyph-name="uni030A" unicode="&#x30a;" horiz-adv-x="298" 
d="M100 644.5q0 -21.5 14 -35.5t35 -14t35 14t14 35.5t-14 35t-35 13.5t-35 -13.5t-14 -35zM5 644.5q0 62.5 42 103.5t102 41t102 -41t42 -103.5t-42 -103.5t-102 -41t-102 41t-42 103.5z" />
    <glyph glyph-name="uni030B" unicode="&#x30b;" horiz-adv-x="424" 
d="M450 637l-67 89l-168 -160l52 -66zM207 637l-67 89l-169 -160l52 -66z" />
    <glyph glyph-name="uni030C" unicode="&#x30c;" horiz-adv-x="388" 
d="M212 492l179 128l-57 89l-140 -103l-140 103l-57 -89l179 -128h36z" />
    <glyph glyph-name="uni0312" unicode="&#x312;" horiz-adv-x="170" 
d="M169 582q0 -33 -22.5 -57.5t-57.5 -24.5t-59.5 23.5t-24.5 57.5q0 29 17 52l125 179l51 -39l-81 -115q23 -9 37.5 -30t14.5 -46z" />
    <glyph glyph-name="uni0313" unicode="&#x313;" horiz-adv-x="170" 
d="M35 731q0 32 22.5 56.5t57.5 24.5t59 -23t24 -57q0 -30 -16 -53l-126 -179l-51 39l82 115q-24 10 -38 31t-14 46z" />
    <glyph glyph-name="uni0315" unicode="&#x315;" horiz-adv-x="170" 
d="M119 748l133 -38l-58 -246l-129 36z" />
    <glyph glyph-name="uni031B" unicode="&#x31b;" horiz-adv-x="247" 
d="M46 432v93h60q47 0 47 39q0 27 -28 48l80 66q54 -33 54 -105q0 -58 -35.5 -99.5t-86.5 -41.5h-91z" />
    <glyph glyph-name="dotbelowcomb" unicode="&#x323;" horiz-adv-x="170" 
d="M-4 -155q0 38 25.5 63.5t63.5 25.5t63.5 -25.5t25.5 -63.5t-25.5 -63.5t-63.5 -25.5t-63.5 25.5t-25.5 63.5z" />
    <glyph glyph-name="uni0326" unicode="&#x326;" horiz-adv-x="170" 
d="M118 -278q0 -32 -22 -56.5t-57 -24.5t-59.5 23t-24.5 57q0 30 17 53l125 179l51 -39l-82 -115q24 -10 38 -31t14 -46z" />
    <glyph glyph-name="uni0327" unicode="&#x327;" horiz-adv-x="243" 
d="M114 -77q30 35 73 35t74 -40t31 -96q0 -67 -44 -109t-115 -42q-60 0 -104.5 30.5t-61.5 83.5l113 41q4 -19 18 -29.5t33 -10.5q20 0 32 10.5t12 28.5q0 17 -9 27.5t-23 10.5q-16 0 -29 -14l-115 36v138h115v-100z" />
    <glyph glyph-name="uni0328" unicode="&#x328;" horiz-adv-x="247" 
d="M87 -27v34h105v-59l-67 -46q-41 -27 -41 -60q0 -17 10 -27.5t25 -10.5q32 0 40 32l102 -19q-14 -55 -51.5 -86t-88.5 -31q-64 0 -104 35t-40 90q0 37 18 64.5t66 65.5z" />
    <glyph glyph-name="uni0400" unicode="&#x400;" horiz-adv-x="587" 
d="M117 931l101 89l162 -159l-96 -84zM202 425h326v-148h-326v-129h350v-148h-500v700h500v-148h-350v-127z" />
    <glyph glyph-name="uni0401" unicode="&#x401;" horiz-adv-x="587" 
d="M318 866q0 38 26 63.5t63.5 25.5t63.5 -25.5t26 -63.5t-26 -63.5t-63.5 -25.5t-63.5 25.5t-26 63.5zM71 866q0 38 26 63.5t63.5 25.5t63.5 -25.5t26 -63.5t-26 -63.5t-63.5 -25.5t-63.5 25.5t-26 63.5zM202 425h326v-148h-326v-129h350v-148h-500v700h500v-148h-350v-127
z" />
    <glyph glyph-name="uni0402" unicode="&#x402;" horiz-adv-x="765" 
d="M500 421q95 0 160.5 -61.5t65.5 -150.5q0 -90 -61.5 -149.5t-154.5 -59.5h-80v148h70q32 0 54 17.5t22 43.5q0 27 -22 45.5t-54 18.5h-177v-273h-150v553h-147v147h564v-147h-267v-132h177z" />
    <glyph glyph-name="uni0403" unicode="&#x403;" horiz-adv-x="591" 
d="M468 931l-101 97l-154 -167l80 -84zM52 0h150v560h360v140h-510v-700z" />
    <glyph glyph-name="uni0404" unicode="&#x404;" horiz-adv-x="778" 
d="M542 426v-147h-482v147h482zM32 351q0 103 48 188t131.5 133t184.5 48q114 0 206 -57t139 -156l-151 -53q-26 54 -78 85t-117 31q-90 0 -151.5 -63t-61.5 -156t61.5 -156t151.5 -63q67 0 120 33.5t79 91.5l152 -52q-45 -103 -139.5 -163t-210.5 -60q-101 0 -184.5 48
t-131.5 133t-48 188z" />
    <glyph glyph-name="uni0405" unicode="&#x405;" horiz-adv-x="547" 
d="M255 276q-106 19 -164.5 77.5t-58.5 144.5q0 94 63 154.5t161 60.5q88 0 158.5 -51.5t101.5 -138.5l-146 -35q-15 36 -44 57.5t-64 21.5q-34 0 -55.5 -18.5t-21.5 -48.5q0 -27 24 -44t77 -28q108 -21 169 -81.5t61 -146.5q0 -93 -64 -152t-162 -59q-87 0 -157.5 47
t-100.5 126l146 52q14 -36 42.5 -57.5t63.5 -21.5q34 0 55.5 19t21.5 48q0 28 -25.5 46t-80.5 28z" />
    <glyph glyph-name="uni0406" unicode="&#x406;" horiz-adv-x="253" 
d="M202 0h-150v700h150v-700z" />
    <glyph glyph-name="uni0407" unicode="&#x407;" horiz-adv-x="253" 
d="M160 866q0 38 26 63.5t63.5 25.5t63.5 -25.5t26 -63.5t-26 -63.5t-63.5 -25.5t-63.5 25.5t-26 63.5zM-87 866q0 38 26 63.5t63.5 25.5t63.5 -25.5t26 -63.5t-26 -63.5t-63.5 -25.5t-63.5 25.5t-26 63.5zM202 0h-150v700h150v-700z" />
    <glyph glyph-name="uni0408" unicode="&#x408;" horiz-adv-x="649" 
d="M32 199l140 54q33 -114 139 -114q60 0 98.5 39t38.5 109v413h150v-423q0 -125 -82.5 -206.5t-204.5 -81.5q-102 0 -175.5 55.5t-103.5 154.5z" />
    <glyph glyph-name="uni0409" unicode="&#x409;" horiz-adv-x="1192" 
d="M58 140h-27v-140h46q80 0 143 36.5t95.5 95t32.5 126.5v302h183v-560h396q96 0 160 65.5t64 164.5q0 94 -68 159.5t-166 65.5h-236v245h-483v-412q0 -64 -36.5 -106t-103.5 -42zM681 307h236q36 0 60 -22.5t24 -54.5q0 -35 -24 -58.5t-60 -23.5h-236v159z" />
    <glyph glyph-name="uni040A" unicode="&#x40a;" horiz-adv-x="1034" 
d="M575 700h-150v-700h354q93 0 154.5 63t61.5 158q0 91 -66 154t-160 63h-194v262zM769 148h-194v142h194q32 0 53.5 -20t21.5 -49q0 -31 -21.5 -52t-53.5 -21zM435 435h-233v265h-150v-700h150v287h233v148z" />
    <glyph glyph-name="uni040B" unicode="&#x40b;" horiz-adv-x="702" 
d="M661 192v-192h-150v192q0 35 -24 58t-60 23h-104v-273h-150v553h-147v147h549v-147h-252v-132h104q98 0 166 -66.5t68 -162.5z" />
    <glyph glyph-name="uni040C" unicode="&#x40c;" horiz-adv-x="679" 
d="M486 931l-101 97l-154 -167l80 -84zM52 0v700h150v-275h28l230 275h193l-294 -350l294 -350h-193l-230 272h-28v-272h-150z" />
    <glyph glyph-name="uni040D" unicode="&#x40d;" horiz-adv-x="696" 
d="M177 931l101 89l162 -159l-96 -84zM645 0h-150v462l-272 -462h-171v700h150v-460l272 460h171v-700z" />
    <glyph glyph-name="uni040E" unicode="&#x40e;" horiz-adv-x="692" 
d="M352 780q-83 0 -141.5 53.5t-58.5 129.5h114q0 -34 24.5 -57t62.5 -23q39 0 66 23.5t27 56.5h114q0 -73 -62 -128t-146 -55zM168 0h170l325 700h-176l-128 -313l-152 313h-177l243 -449z" />
    <glyph glyph-name="uni040F" unicode="&#x40f;" horiz-adv-x="730" 
d="M678 0v700h-150v-560h-326v560h-150v-700h234v-175h166v175h226z" />
    <glyph glyph-name="uni0410" unicode="&#x410;" horiz-adv-x="795" 
d="M208 290h383v-140h-383v140zM201 0h-173l270 700h198l271 -700h-173l-195 546z" />
    <glyph glyph-name="uni0411" unicode="&#x411;" horiz-adv-x="698" 
d="M429 430q96 0 163 -63t67 -154q0 -92 -62.5 -152.5t-157.5 -60.5h-387v700h492v-147h-342v-123h227zM429 148q34 0 57 18.5t23 46.5q0 29 -23 49t-57 20h-227v-134h227z" />
    <glyph glyph-name="uni0412" unicode="&#x412;" horiz-adv-x="656" 
d="M396 552h-194v-129h195q28 0 47 20t19 49q0 26 -19 43t-48 17zM397 279h-195v-131h204q28 0 47.5 18t19.5 44q0 30 -21.5 49.5t-54.5 19.5zM417 0h-365v700h355q90 0 148 -52.5t58 -132.5q0 -51 -23.5 -94t-62.5 -67q44 -24 70 -68t26 -97q0 -81 -58.5 -135t-147.5 -54z
" />
    <glyph glyph-name="uni0413" unicode="&#x413;" horiz-adv-x="591" 
d="M52 0h150v560h360v140h-510v-700z" />
    <glyph glyph-name="uni0414" unicode="&#x414;" horiz-adv-x="806" 
d="M26 140v-256h150v116h455v-116h150v256h-755zM60 140h-34l15 -104h29q64 0 119 21t91.5 56.5t57 81.5t20.5 96v261h180v-551h150v699h-480v-395q0 -72 -38.5 -118.5t-109.5 -46.5z" />
    <glyph glyph-name="uni0415" unicode="&#x415;" horiz-adv-x="587" 
d="M202 425h326v-148h-326v-129h350v-148h-500v700h500v-148h-350v-127z" />
    <glyph glyph-name="uni0416" unicode="&#x416;" horiz-adv-x="1038" 
d="M444 700h150v-273h61l190 273h166l-243 -348l243 -352h-166l-190 274h-61v-274h-150v274h-60l-195 -274h-161l243 349l-243 351h161l195 -273h60v273z" />
    <glyph glyph-name="uni0417" unicode="&#x417;" horiz-adv-x="569" 
d="M51 571q32 69 95 108t142 39q98 0 164 -56t66 -139q0 -49 -24.5 -89.5t-66.5 -64.5q51 -26 81 -75t30 -105q0 -89 -71 -148t-178 -59q-86 0 -154.5 40.5t-102.5 111.5l144 73q14 -39 44 -61t69 -22q42 0 70.5 25t28.5 61q0 34 -24.5 57t-59.5 23h-106v140h106
q27 0 45.5 19.5t18.5 48.5q0 33 -24 55.5t-60 22.5q-32 0 -57.5 -18t-38.5 -50z" />
    <glyph glyph-name="uni0418" unicode="&#x418;" horiz-adv-x="696" 
d="M645 0h-150v462l-272 -462h-171v700h150v-460l272 460h171v-700z" />
    <glyph glyph-name="uni0419" unicode="&#x419;" horiz-adv-x="696" 
d="M352 780q-83 0 -141.5 53.5t-58.5 129.5h114q0 -34 24.5 -57t62.5 -23q39 0 66 23.5t27 56.5h114q0 -73 -62 -128t-146 -55zM645 0h-150v462l-272 -462h-171v700h150v-460l272 460h171v-700z" />
    <glyph glyph-name="uni041A" unicode="&#x41a;" horiz-adv-x="679" 
d="M52 0v700h150v-275h28l230 275h193l-294 -350l294 -350h-193l-230 272h-28v-272h-150z" />
    <glyph glyph-name="uni041B" unicode="&#x41b;" horiz-adv-x="732" 
d="M58 140h-27v-140h46q80 0 143 36.5t95.5 95t32.5 126.5v302h183v-560h150v700h-483v-412q0 -64 -36.5 -106t-103.5 -42z" />
    <glyph glyph-name="uni041C" unicode="&#x41c;" horiz-adv-x="836" 
d="M43 0v700h174l201 -391l201 391h174v-700h-151v455l-176 -349h-95l-177 349v-455h-151z" />
    <glyph glyph-name="uni041D" unicode="&#x41d;" horiz-adv-x="696" 
d="M52 0v700h150v-275h293v275h150v-700h-150v277h-293v-277h-150z" />
    <glyph glyph-name="uni041E" unicode="&#x41e;" horiz-adv-x="788" 
d="M182 353q0 -97 61.5 -159t150.5 -62t150.5 62t61.5 159q0 95 -61.5 156t-150.5 61t-150.5 -61t-61.5 -156zM32 353q0 106 48.5 190.5t131.5 130.5t182 46t182 -46t131.5 -130.5t48.5 -190.5q0 -80 -28.5 -149.5t-77.5 -118t-115.5 -76t-140.5 -27.5t-140.5 27.5
t-115.5 76t-77.5 118t-28.5 149.5z" />
    <glyph glyph-name="uni041F" unicode="&#x41f;" horiz-adv-x="713" 
d="M52 700v-700h150v560h310v-560h150v700h-610z" />
    <glyph glyph-name="uni0420" unicode="&#x420;" horiz-adv-x="643" 
d="M347 552h-145v-202h145q50 0 83 29.5t33 73.5q0 43 -33 71t-83 28zM347 202h-145v-202h-150v700h305q110 0 183 -70.5t73 -176.5q0 -105 -77 -178t-189 -73z" />
    <glyph glyph-name="uni0421" unicode="&#x421;" horiz-adv-x="778" 
d="M32 351q0 103 48 188t131.5 133t184.5 48q114 0 206 -61.5t139 -168.5l-151 -53q-26 62 -78 97.5t-117 35.5q-90 0 -151.5 -63t-61.5 -156t61.5 -156t151.5 -63q67 0 120 38t79 104l152 -52q-45 -111 -139.5 -175.5t-210.5 -64.5q-101 0 -184.5 48t-131.5 133t-48 188z
" />
    <glyph glyph-name="uni0422" unicode="&#x422;" horiz-adv-x="611" 
d="M588 700v-148h-207v-552h-150v552h-207v148h564z" />
    <glyph glyph-name="uni0423" unicode="&#x423;" horiz-adv-x="692" 
d="M168 0h170l325 700h-176l-128 -313l-152 313h-177l243 -449z" />
    <glyph glyph-name="uni0424" unicode="&#x424;" horiz-adv-x="804" 
d="M326 0v750h150v-750h-150zM182 385q0 -66 59.5 -106t160.5 -40t161 40t60 106q0 64 -60 103t-161 39t-160.5 -39t-59.5 -103zM32 385q0 126 101.5 205t269 79t269 -79t101.5 -205q0 -128 -101.5 -208t-269 -80t-269 80t-101.5 208z" />
    <glyph glyph-name="uni0425" unicode="&#x425;" horiz-adv-x="719" 
d="M694 0h-181l-152 268l-154 -268h-182l209 349l-209 351h182l154 -270l152 270h181l-207 -351z" />
    <glyph glyph-name="uni0426" unicode="&#x426;" horiz-adv-x="758" 
d="M630 148v552h-150v-552h-278v552h-150v-700h526v-133h150v281h-98z" />
    <glyph glyph-name="uni0427" unicode="&#x427;" horiz-adv-x="661" 
d="M610 700v-700h-150v700h150zM202 700v-216q0 -63 35 -98t91 -35q54 0 93 33t39 80h54q0 -109 -67.5 -182t-168.5 -73q-98 0 -162 64t-64 176v251h150z" />
    <glyph glyph-name="uni0428" unicode="&#x428;" horiz-adv-x="973" 
d="M922 0v700h-150v-552h-208v552h-150v-552h-212v552h-150v-700h870z" />
    <glyph glyph-name="uni0429" unicode="&#x429;" horiz-adv-x="1041" 
d="M922 148v552h-150v-552h-208v552h-150v-552h-212v552h-150v-700h810v-133h150v281h-90z" />
    <glyph glyph-name="uni042A" unicode="&#x42a;" horiz-adv-x="818" 
d="M536 148q40 0 66 22t26 55q0 35 -26.5 58.5t-65.5 23.5h-189v-159h189zM347 700v-245h189q102 0 172 -67t70 -163t-66 -160.5t-166 -64.5h-349v553h-167v147h317z" />
    <glyph glyph-name="uni042B" unicode="&#x42b;" horiz-adv-x="883" 
d="M832 0h-150v700h150v-700zM202 700v-245h169q98 0 166 -65.5t68 -159.5q0 -99 -64 -164.5t-160 -65.5h-329v700h150zM371 148q36 0 60 23.5t24 58.5q0 32 -24.5 54.5t-59.5 22.5h-169v-159h169z" />
    <glyph glyph-name="uni042C" unicode="&#x42c;" horiz-adv-x="707" 
d="M202 700v-245h235q98 0 166.5 -65.5t68.5 -159.5q0 -99 -64 -164.5t-161 -65.5h-395v700h150zM437 148q37 0 60.5 23.5t23.5 58.5q0 32 -24 54.5t-60 22.5h-235v-159h235z" />
    <glyph glyph-name="uni042D" unicode="&#x42d;" horiz-adv-x="778" 
d="M236 276v147h482v-147h-482zM746 351q0 -103 -48 -188t-131.5 -133t-184.5 -48q-114 0 -206 57t-139 156l151 53q26 -54 78 -85t117 -31q90 0 151.5 63t61.5 156t-61.5 156t-151.5 63q-67 0 -120 -33.5t-79 -91.5l-152 52q45 103 139.5 163t210.5 60q101 0 184.5 -48
t131.5 -133t48 -188z" />
    <glyph glyph-name="uni042E" unicode="&#x42e;" horiz-adv-x="1094" 
d="M480 353q0 95 61.5 156t150.5 61t150.5 -61t61.5 -156q0 -97 -61.5 -159t-150.5 -62t-150.5 62t-61.5 159zM330 353q0 -80 28.5 -149.5t77.5 -118t115.5 -76t141 -27.5t141 27.5t115 76t77.5 118t29 149.5q0 106 -49 190.5t-131.5 130.5t-182 46t-182 -46t-131.5 -130.5
t-49 -190.5zM377 425h-175v275h-150v-700h150v277h175v148z" />
    <glyph glyph-name="uni042F" unicode="&#x42f;" horiz-adv-x="644" 
d="M297 552q-45 0 -74 -23t-29 -58q0 -36 29.5 -60t73.5 -24h149v165h-149zM205 257q-76 14 -123 72t-47 138q0 105 71 169t181 64h309v-700h-150v240h-79l-159 -240h-173z" />
    <glyph glyph-name="uni0430" unicode="&#x430;" horiz-adv-x="528" 
d="M327 200l-96 -12q-49 -6 -49 -35q0 -34 52 -34q41 0 67 20.5t26 52.5h35q0 -88 -50.5 -145.5t-126.5 -57.5q-67 0 -110 42t-43 107.5t43.5 108t120.5 51.5l131 17v5q0 23 -21.5 39.5t-51.5 16.5q-27 0 -47.5 -15t-26.5 -38l-146 47q21 63 80.5 102t134.5 39
q93 0 160.5 -55.5t67.5 -130.5v-325h-150v200z" />
    <glyph glyph-name="uni0431" unicode="&#x431;" horiz-adv-x="610" 
d="M554 642q-59 -52 -210 -72q-68 -9 -108 -59.5t-46 -136.5q25 45 73.5 72t104.5 27q89 0 149.5 -68t60.5 -168q0 -110 -74.5 -182.5t-188.5 -72.5q-77 0 -139 35t-95 97q-41 78 -41 204q0 171 73 268t207 114q116 15 162 52zM200 236q0 -43 34.5 -73.5t83.5 -30.5
q47 0 78.5 28.5t31.5 70.5q0 43 -32.5 71t-82.5 28q-49 0 -81 -26.5t-32 -67.5z" />
    <glyph glyph-name="uni0432" unicode="&#x432;" horiz-adv-x="596" 
d="M362 368h-160v-63h167q15 0 25.5 8.5t10.5 21.5q0 14 -12 23.5t-31 9.5zM372 196h-170v-64h170q18 0 30.5 9t12.5 23t-12 23t-31 9zM382 0h-330v500h320q79 0 131 -38t52 -95q0 -33 -17.5 -60.5t-48.5 -42.5q35 -18 55.5 -51.5t20.5 -73.5q0 -60 -52 -99.5t-131 -39.5z
" />
    <glyph glyph-name="uni0433" unicode="&#x433;" horiz-adv-x="461" 
d="M52 0h150v360h228v140h-378v-500z" />
    <glyph glyph-name="uni0434" unicode="&#x434;" horiz-adv-x="657" 
d="M26 140v-256h150v116h305v-116h150v256h-605zM50 140h-19v-90h29q105 0 171.5 54.5t66.5 128.5v119h113v-351h150v499h-413v-253q0 -47 -25.5 -77t-72.5 -30z" />
    <glyph glyph-name="uni0435" unicode="&#x435;" 
d="M413 305q-9 32 -39.5 51.5t-70.5 19.5q-39 0 -67.5 -18.5t-39.5 -52.5h217zM196 185q11 -34 40 -53t68 -19q31 0 57.5 12.5t39.5 33.5l138 -52q-33 -61 -96 -96.5t-138 -35.5q-115 0 -191.5 77t-76.5 193q0 115 74.5 191.5t186.5 76.5t190.5 -77.5t78.5 -192.5
q0 -25 -7 -58h-364z" />
    <glyph glyph-name="uni0436" unicode="&#x436;" horiz-adv-x="874" 
d="M362 500h150v-179h34l137 179h165l-194 -250l194 -250h-165l-137 176h-34v-176h-150v179h-33l-138 -179h-164l193 250l-193 250h164l138 -176h33v176z" />
    <glyph glyph-name="uni0437" unicode="&#x437;" horiz-adv-x="497" 
d="M51 401q27 55 82 86t124 31q85 0 142 -45t57 -112q0 -34 -16 -63.5t-45 -46.5q33 -18 52 -51t19 -70q0 -64 -59 -106t-149 -42q-76 0 -136 32.5t-90 89.5l144 65q10 -20 31 -31.5t47 -11.5t44 11t18 27q0 14 -13 23.5t-33 9.5h-77v106h77q15 0 25.5 8.5t10.5 20.5
q0 17 -15 28t-38 11q-40 0 -57 -33z" />
    <glyph glyph-name="uni0438" unicode="&#x438;" horiz-adv-x="623" 
d="M572 0h-150v312l-199 -312h-171v500h150v-302l198 302h172v-500z" />
    <glyph glyph-name="uni0439" unicode="&#x439;" horiz-adv-x="623" 
d="M314 571q-83 0 -141.5 53.5t-58.5 129.5h114q0 -34 24.5 -57t62.5 -23q39 0 66 23.5t27 56.5h114q0 -73 -62 -128t-146 -55zM572 0h-150v312l-199 -312h-171v500h150v-302l198 302h172v-500z" />
    <glyph glyph-name="uni043A" unicode="&#x43a;" horiz-adv-x="587" 
d="M52 0v500h150v-175h27l144 175h193l-209 -250l209 -250h-193l-144 172h-27v-172h-150z" />
    <glyph glyph-name="uni043B" unicode="&#x43b;" horiz-adv-x="587" 
d="M57 148h-27v-148h37q91 0 148 59t57 140v153h113v-352h150v500h-413v-287q0 -28 -17 -46.5t-48 -18.5z" />
    <glyph glyph-name="uni043C" unicode="&#x43c;" horiz-adv-x="742" 
d="M52 0v500h165l154 -248l155 248h165v-500h-150v297l-130 -223h-78l-131 223v-297h-150z" />
    <glyph glyph-name="uni043D" unicode="&#x43d;" horiz-adv-x="605" 
d="M52 0v500h150v-179h202v179h150v-500h-150v181h-202v-181h-150z" />
    <glyph glyph-name="uni043E" unicode="&#x43e;" horiz-adv-x="618" 
d="M182 251q0 -56 37 -91.5t90 -35.5t90 35.5t37 91.5t-37 91.5t-90 35.5t-90 -35.5t-37 -91.5zM32 251q0 117 80 193t197 76t197 -76t80 -193t-80 -193t-197 -76t-197 76t-80 193z" />
    <glyph glyph-name="uni043F" unicode="&#x43f;" horiz-adv-x="580" 
d="M528 500v-500h-150v360h-176v-360h-150v500h476z" />
    <glyph glyph-name="uni0440" unicode="&#x440;" horiz-adv-x="638" 
d="M52 500h150v-700h-150v700zM202 250.5q0 -54.5 36.5 -90.5t90.5 -36t90.5 36t36.5 90.5t-36.5 91t-90.5 36.5t-90.5 -36.5t-36.5 -91zM152 250.5q0 115.5 64 192.5t160 77q97 0 163.5 -77.5t66.5 -192t-66.5 -191.5t-163.5 -77q-96 0 -160 76.5t-64 192z" />
    <glyph glyph-name="uni0441" unicode="&#x441;" 
d="M182 251q0 -56 35.5 -91.5t86.5 -35.5q39 0 70 18.5t47 52.5l138 -65q-35 -68 -103.5 -108t-151.5 -40q-114 0 -193 76t-79 193t79 193t193 76q85 0 154 -41t103 -112l-138 -65q-16 36 -47.5 56t-71.5 20q-51 0 -86.5 -35.5t-35.5 -91.5z" />
    <glyph glyph-name="uni0442" unicode="&#x442;" horiz-adv-x="503" 
d="M473 500v-140h-146v-360h-150v360h-147v140h443z" />
    <glyph glyph-name="uni0443" unicode="&#x443;" horiz-adv-x="609" 
d="M422 500l-117 -328l-118 328h-159l192 -488l-77 -212h159l279 700h-159z" />
    <glyph glyph-name="uni0444" unicode="&#x444;" horiz-adv-x="684" 
d="M269 -190v870h142v-870h-142zM182 251q0 -56 46.5 -91.5t114 -35.5t114 35.5t46.5 91.5t-46.5 91.5t-114 35.5t-114 -35.5t-46.5 -91.5zM32 251q0 117 90 193t220.5 76t220.5 -76t90 -193t-90 -193t-220.5 -76t-220.5 76t-90 193z" />
    <glyph glyph-name="uni0445" unicode="&#x445;" horiz-adv-x="587" 
d="M562 0h-172l-96 169l-95 -169h-174l159 250l-159 250h174l95 -169l96 169h172l-158 -250z" />
    <glyph glyph-name="uni0446" unicode="&#x446;" horiz-adv-x="633" 
d="M52 0v500h150v-360h190v360h150v-360h62v-256h-150v116h-402z" />
    <glyph glyph-name="uni0447" unicode="&#x447;" horiz-adv-x="558" 
d="M506 500v-500h-150v500h150zM202 500v-148q0 -37 21 -58.5t54 -21.5t56 21t23 51h55q0 -92 -53 -152.5t-131 -60.5q-76 0 -125.5 49.5t-49.5 136.5v183h150z" />
    <glyph glyph-name="uni0448" unicode="&#x448;" horiz-adv-x="863" 
d="M812 0v500h-150v-360h-155v360h-150v-360h-155v360h-150v-500h760z" />
    <glyph glyph-name="uni0449" unicode="&#x449;" horiz-adv-x="930" 
d="M812 140v360h-150v-360h-155v360h-150v-360h-155v360h-150v-500h682v-116h150v256h-72z" />
    <glyph glyph-name="uni044A" unicode="&#x44a;" horiz-adv-x="643" 
d="M432 360q76 0 128 -53t52 -129t-51.5 -127t-128.5 -51h-287v353h-113v147h263v-140h137zM422 212h-127v-64h127q17 0 28 8.5t11 21.5q0 15 -11 24.5t-28 9.5z" />
    <glyph glyph-name="uni044B" unicode="&#x44b;" horiz-adv-x="806" 
d="M605 0v500h150v-500h-150zM347 212h-153v-65h153q19 0 31 9t12 23t-12.5 23.5t-30.5 9.5zM357 352q78 0 130.5 -50.5t52.5 -125t-52.5 -125.5t-130.5 -51h-314v500h151v-148h163z" />
    <glyph glyph-name="uni044C" unicode="&#x44c;" horiz-adv-x="604" 
d="M381 212h-179v-65h179q18 0 30 9t12 23t-12 23.5t-30 9.5zM391 352q77 0 129.5 -50.5t52.5 -125t-52.5 -125.5t-129.5 -51h-339v500h150v-148h189z" />
    <glyph glyph-name="uni044D" unicode="&#x44d;" 
d="M202 193v113h322v-113h-322zM410 251q0 59 -35.5 97t-90.5 38q-36 0 -66.5 -16.5t-45.5 -45.5l-138 65q34 60 101.5 95.5t146.5 35.5q119 0 199 -76.5t80 -192.5t-80 -192.5t-199 -76.5q-81 0 -149 37t-101 99l138 65q15 -31 46 -49t68 -18q55 0 90.5 38t35.5 97z" />
    <glyph glyph-name="uni044E" unicode="&#x44e;" horiz-adv-x="868" 
d="M440 251q0 56 35.5 91.5t87.5 35.5t87.5 -35.5t35.5 -91.5t-35.5 -91.5t-87.5 -35.5t-87.5 35.5t-35.5 91.5zM290 251q0 -117 79 -193t194 -76t194 76t79 193t-79 193t-194 76t-194 -76t-79 -193zM310 325h-108v175h-150v-500h150v177h108v148z" />
    <glyph glyph-name="uni044F" unicode="&#x44f;" horiz-adv-x="554" 
d="M235 291h118v61h-118q-18 0 -30 -8.5t-12 -21.5t12 -22t30 -9zM295 160l-94 -160h-169l114 176q-52 14 -83 54.5t-31 94.5q0 74 54.5 124.5t134.5 50.5h282v-500h-150v160h-58z" />
    <glyph glyph-name="uni0450" unicode="&#x450;" 
d="M133 722l101 89l162 -159l-96 -84zM413 305q-9 32 -39.5 51.5t-70.5 19.5q-39 0 -67.5 -18.5t-39.5 -52.5h217zM196 185q11 -34 40 -53t68 -19q31 0 57.5 12.5t39.5 33.5l138 -52q-33 -61 -96 -96.5t-138 -35.5q-115 0 -191.5 77t-76.5 193q0 115 74.5 191.5t186.5 76.5
t190.5 -77.5t78.5 -192.5q0 -25 -7 -58h-364z" />
    <glyph glyph-name="uni0451" unicode="&#x451;" 
d="M334 657q0 38 26 63.5t63.5 25.5t63.5 -25.5t26 -63.5t-26 -63.5t-63.5 -25.5t-63.5 25.5t-26 63.5zM87 657q0 38 26 63.5t63.5 25.5t63.5 -25.5t26 -63.5t-26 -63.5t-63.5 -25.5t-63.5 25.5t-26 63.5zM413 305q-9 32 -39.5 51.5t-70.5 19.5q-39 0 -67.5 -18.5
t-39.5 -52.5h217zM196 185q11 -34 40 -53t68 -19q31 0 57.5 12.5t39.5 33.5l138 -52q-33 -61 -96 -96.5t-138 -35.5q-115 0 -191.5 77t-76.5 193q0 115 74.5 191.5t186.5 76.5t190.5 -77.5t78.5 -192.5q0 -25 -7 -58h-364z" />
    <glyph glyph-name="uni0452" unicode="&#x452;" horiz-adv-x="586" 
d="M60 0v558h-60v130h60v62h150v-62h205v-130h-205v-558h-150zM385 53v225q0 43 -24 67t-61 24t-63.5 -26.5t-26.5 -64.5h-54q0 99 55.5 166t138.5 67q80 0 132.5 -53t52.5 -145v-271q0 -100 -55 -156t-150 -58h-62v148h44q35 0 54 21.5t19 55.5z" />
    <glyph glyph-name="uni0453" unicode="&#x453;" horiz-adv-x="461" 
d="M406 722l-101 97l-154 -167l80 -84zM52 0h150v360h228v140h-378v-500z" />
    <glyph glyph-name="uni0454" unicode="&#x454;" 
d="M390 309v-113h-322v113h322zM182 251q0 -59 36 -97t91 -38q36 0 66 16.5t46 45.5l138 -65q-35 -60 -102 -95.5t-146 -35.5q-120 0 -199.5 76.5t-79.5 192.5t79.5 192.5t198.5 76.5q81 0 149 -37t102 -99l-138 -65q-15 31 -46 49t-69 18q-54 0 -90 -38t-36 -97z" />
    <glyph glyph-name="uni0455" unicode="&#x455;" horiz-adv-x="484" 
d="M221 185q-92 12 -140.5 53.5t-48.5 108.5q0 72 55.5 119t141.5 47q74 0 135 -36.5t88 -96.5l-146 -42q-10 21 -30.5 34t-44.5 13q-21 0 -34.5 -9.5t-13.5 -24.5q0 -30 71 -39q96 -11 147 -53.5t51 -109.5q0 -70 -54.5 -115t-140.5 -45q-76 0 -137 36t-88 97l146 42
q10 -25 30 -40t45 -15q22 0 35.5 10.5t13.5 27.5q0 14 -18.5 23t-62.5 15z" />
    <glyph glyph-name="uni0456" unicode="&#x456;" horiz-adv-x="246" 
d="M34 647.5q0 37.5 26 63.5t63.5 26t63.5 -26t26 -63.5t-26 -63t-63.5 -25.5t-63.5 25.5t-26 63zM48 0v500h151v-500h-151z" />
    <glyph glyph-name="uni0457" unicode="&#x457;" horiz-adv-x="253" 
d="M160 657q0 38 26 63.5t63.5 25.5t63.5 -25.5t26 -63.5t-26 -63.5t-63.5 -25.5t-63.5 25.5t-26 63.5zM-87 657q0 38 26 63.5t63.5 25.5t63.5 -25.5t26 -63.5t-26 -63.5t-63.5 -25.5t-63.5 25.5t-26 63.5zM52 0v500h150v-500h-150z" />
    <glyph glyph-name="uni0458" unicode="&#x458;" horiz-adv-x="246" 
d="M34 647.5q0 37.5 26 63.5t63.5 26t63.5 -26t26 -63.5t-26 -63t-63.5 -25.5t-63.5 25.5t-26 63zM-21 -72q33 0 51 24.5t18 62.5v485h151v-532q0 -77 -54 -132.5t-140 -55.5h-54v148h28z" />
    <glyph glyph-name="uni0459" unicode="&#x459;" horiz-adv-x="940" 
d="M57 148h-27v-148h37q91 0 148 59t57 140v153h113v-352h339q78 0 130.5 51t52.5 125.5t-52.5 125t-130.5 50.5h-189v148h-413v-287q0 -28 -17 -46.5t-48 -18.5zM714 212q18 0 30.5 -9.5t12.5 -23.5t-12 -23t-31 -9h-179v65h179z" />
    <glyph glyph-name="uni045A" unicode="&#x45a;" horiz-adv-x="870" 
d="M649 204q16 0 27 -8.5t11 -20.5t-11 -20t-27 -8h-140v57h140zM659 344h-150v156h-151v-500h301q76 0 127 49.5t51 122.5t-51 122.5t-127 49.5zM385 325h-183v175h-150v-500h150v177h183v148z" />
    <glyph glyph-name="uni045B" unicode="&#x45b;" horiz-adv-x="586" 
d="M60 0v558h-60v130h60v62h150v-62h205v-130h-205v-558h-150zM385 0v278q0 43 -24 67t-61 24t-63.5 -26.5t-26.5 -64.5h-54q0 99 55.5 166t138.5 67q80 0 132.5 -53t52.5 -145v-313h-150z" />
    <glyph glyph-name="uni045C" unicode="&#x45c;" horiz-adv-x="587" 
d="M441 722l-101 97l-154 -167l80 -84zM52 0v500h150v-175h27l144 175h193l-209 -250l209 -250h-193l-144 172h-27v-172h-150z" />
    <glyph glyph-name="uni045D" unicode="&#x45d;" horiz-adv-x="623" 
d="M147 722l101 89l162 -159l-96 -84zM572 0h-150v312l-199 -312h-171v500h150v-302l198 302h172v-500z" />
    <glyph glyph-name="uni045E" unicode="&#x45e;" horiz-adv-x="609" 
d="M303 571q-83 0 -141.5 53.5t-58.5 129.5h114q0 -34 24.5 -57t62.5 -23q39 0 66 23.5t27 56.5h114q0 -73 -62 -128t-146 -55zM422 500l-117 -328l-118 328h-159l192 -488l-77 -212h159l279 700h-159z" />
    <glyph glyph-name="uni045F" unicode="&#x45f;" horiz-adv-x="613" 
d="M52 0v500h150v-360h210v360h150v-500h-175v-165h-150v165h-185z" />
    <glyph glyph-name="uni1EA0" unicode="&#x1ea0;" horiz-adv-x="795" 
d="M318 -155q0 38 25.5 63.5t63.5 25.5t63.5 -25.5t25.5 -63.5t-25.5 -63.5t-63.5 -25.5t-63.5 25.5t-25.5 63.5zM208 290h383v-140h-383v140zM201 0h-173l270 700h198l271 -700h-173l-195 546z" />
    <glyph glyph-name="uni1EA1" unicode="&#x1ea1;" horiz-adv-x="528" 
d="M172 -155q0 38 25.5 63.5t63.5 25.5t63.5 -25.5t25.5 -63.5t-25.5 -63.5t-63.5 -25.5t-63.5 25.5t-25.5 63.5zM327 200l-96 -12q-49 -6 -49 -35q0 -34 52 -34q41 0 67 20.5t26 52.5h35q0 -88 -50.5 -145.5t-126.5 -57.5q-67 0 -110 42t-43 107.5t43.5 108t120.5 51.5
l131 17v5q0 23 -22.5 39.5t-54.5 16.5q-28 0 -49 -14.5t-27 -38.5l-146 47q21 63 81 102t137 39q94 0 162.5 -55.5t68.5 -130.5v-325h-150v200z" />
    <glyph glyph-name="uni1EA2" unicode="&#x1ea2;" horiz-adv-x="795" 
d="M406 759l-59 81l57 36q33 20 33 50q0 20 -13 32.5t-33 12.5q-37 0 -45 -36l-93 23q14 51 51.5 80.5t88.5 29.5q63 0 103 -39.5t40 -102.5q0 -42 -21 -72.5t-67 -65.5zM208 290h383v-140h-383v140zM201 0h-173l270 700h198l271 -700h-173l-195 546z" />
    <glyph glyph-name="uni1EA3" unicode="&#x1ea3;" horiz-adv-x="528" 
d="M258 550l-59 81l57 36q33 20 33 50q0 20 -13 32.5t-33 12.5q-37 0 -45 -36l-93 23q14 51 51.5 80.5t88.5 29.5q63 0 103 -39.5t40 -102.5q0 -42 -21 -72.5t-67 -65.5zM327 200l-96 -12q-49 -6 -49 -35q0 -34 52 -34q41 0 67 20.5t26 52.5h35q0 -88 -50.5 -145.5
t-126.5 -57.5q-67 0 -110 42t-43 107.5t43.5 108t120.5 51.5l131 17v5q0 23 -22.5 39.5t-54.5 16.5q-28 0 -49 -14.5t-27 -38.5l-146 47q21 63 81 102t137 39q94 0 162.5 -55.5t68.5 -130.5v-325h-150v200z" />
    <glyph glyph-name="uni1EA4" unicode="&#x1ea4;" horiz-adv-x="795" 
d="M773 1123l-101 97l-154 -167l80 -84zM380 986l-179 -129l57 -88l140 102l140 -102l57 88l-179 129h-36zM208 290h383v-140h-383v140zM201 0h-173l270 700h198l271 -700h-173l-195 546z" />
    <glyph glyph-name="uni1EA5" unicode="&#x1ea5;" horiz-adv-x="528" 
d="M619 931l-101 97l-154 -167l80 -84zM232 777l-179 -129l57 -88l140 102l140 -102l57 88l-179 129h-36zM327 200l-96 -12q-49 -6 -49 -35q0 -34 52 -34q41 0 67 20.5t26 52.5h35q0 -88 -50.5 -145.5t-126.5 -57.5q-67 0 -110 42t-43 107.5t43.5 108t120.5 51.5l131 17v5
q0 23 -22.5 39.5t-54.5 16.5q-28 0 -49 -14.5t-27 -38.5l-146 47q21 63 81 102t137 39q94 0 162.5 -55.5t68.5 -130.5v-325h-150v200z" />
    <glyph glyph-name="uni1EA6" unicode="&#x1ea6;" horiz-adv-x="795" 
d="M447 1123l101 89l162 -159l-96 -84zM380 986l-179 -129l57 -88l140 102l140 -102l57 88l-179 129h-36zM208 290h383v-140h-383v140zM201 0h-173l270 700h198l271 -700h-173l-195 546z" />
    <glyph glyph-name="uni1EA7" unicode="&#x1ea7;" horiz-adv-x="528" 
d="M293 906l101 89l162 -159l-96 -84zM232 777l-179 -129l57 -88l140 102l140 -102l57 88l-179 129h-36zM327 200l-96 -12q-49 -6 -49 -35q0 -34 52 -34q41 0 67 20.5t26 52.5h35q0 -88 -50.5 -145.5t-126.5 -57.5q-67 0 -110 42t-43 107.5t43.5 108t120.5 51.5l131 17v5
q0 23 -22.5 39.5t-54.5 16.5q-28 0 -49 -14.5t-27 -38.5l-146 47q21 63 81 102t137 39q94 0 162.5 -55.5t68.5 -130.5v-325h-150v200z" />
    <glyph glyph-name="uni1EA8" unicode="&#x1ea8;" horiz-adv-x="795" 
d="M623 951l-59 81l57 36q33 20 33 50q0 20 -13 32.5t-33 12.5q-37 0 -45 -36l-93 23q14 51 51.5 80.5t88.5 29.5q63 0 103 -39.5t40 -102.5q0 -42 -21 -72.5t-67 -65.5zM380 986l-179 -129l57 -88l140 102l140 -102l57 88l-179 129h-36zM208 290h383v-140h-383v140zM201 0
h-173l270 700h198l271 -700h-173l-195 546z" />
    <glyph glyph-name="uni1EA9" unicode="&#x1ea9;" horiz-adv-x="528" 
d="M469 759l-59 81l57 36q33 20 33 50q0 20 -13 32.5t-33 12.5q-37 0 -45 -36l-93 23q14 51 51.5 80.5t88.5 29.5q63 0 103 -39.5t40 -102.5q0 -42 -21 -72.5t-67 -65.5zM232 777l-179 -129l57 -88l140 102l140 -102l57 88l-179 129h-36zM327 200l-96 -12q-49 -6 -49 -35
q0 -34 52 -34q41 0 67 20.5t26 52.5h35q0 -88 -50.5 -145.5t-126.5 -57.5q-67 0 -110 42t-43 107.5t43.5 108t120.5 51.5l131 17v5q0 23 -22.5 39.5t-54.5 16.5q-28 0 -49 -14.5t-27 -38.5l-146 47q21 63 81 102t137 39q94 0 162.5 -55.5t68.5 -130.5v-325h-150v200z" />
    <glyph glyph-name="uni1EAA" unicode="&#x1eaa;" horiz-adv-x="795" 
d="M315 1194q-56 0 -88 -37.5t-40 -105.5l94 -18q10 62 42 62q18 0 44 -22q58 -46 104 -46q54 0 86 38t40 105l-94 18q-10 -59 -46 -59q-22 0 -46 21q-29 25 -50 34.5t-46 9.5zM380 986l-179 -129l57 -88l140 102l140 -102l57 88l-179 129h-36zM208 290h383v-140h-383v140z
M201 0h-173l270 700h198l271 -700h-173l-195 546z" />
    <glyph glyph-name="uni1EAB" unicode="&#x1eab;" horiz-adv-x="528" 
d="M173 995q-56 0 -88 -37.5t-40 -105.5l94 -18q10 62 42 62q18 0 44 -22q58 -46 104 -46q54 0 86 38t40 105l-94 18q-10 -59 -46 -59q-22 0 -46 21q-29 25 -50 34.5t-46 9.5zM232 777l-179 -129l57 -88l140 102l140 -102l57 88l-179 129h-36zM327 200l-96 -12
q-49 -6 -49 -35q0 -34 52 -34q41 0 67 20.5t26 52.5h35q0 -88 -50.5 -145.5t-126.5 -57.5q-67 0 -110 42t-43 107.5t43.5 108t120.5 51.5l131 17v5q0 23 -22.5 39.5t-54.5 16.5q-28 0 -49 -14.5t-27 -38.5l-146 47q21 63 81 102t137 39q94 0 162.5 -55.5t68.5 -130.5v-325
h-150v200z" />
    <glyph glyph-name="uni1EAC" unicode="&#x1eac;" horiz-adv-x="795" 
d="M380 986l-179 -129l57 -88l140 102l140 -102l57 88l-179 129h-36zM318 -155q0 38 25.5 63.5t63.5 25.5t63.5 -25.5t25.5 -63.5t-25.5 -63.5t-63.5 -25.5t-63.5 25.5t-25.5 63.5zM208 290h383v-140h-383v140zM201 0h-173l270 700h198l271 -700h-173l-195 546z" />
    <glyph glyph-name="uni1EAD" unicode="&#x1ead;" horiz-adv-x="528" 
d="M232 779l-179 -129l57 -88l140 102l140 -102l57 88l-179 129h-36zM172 -155q0 38 25.5 63.5t63.5 25.5t63.5 -25.5t25.5 -63.5t-25.5 -63.5t-63.5 -25.5t-63.5 25.5t-25.5 63.5zM327 200l-96 -12q-49 -6 -49 -35q0 -34 52 -34q41 0 67 20.5t26 52.5h35
q0 -88 -50.5 -145.5t-126.5 -57.5q-67 0 -110 42t-43 107.5t43.5 108t120.5 51.5l131 17v5q0 23 -22.5 39.5t-54.5 16.5q-28 0 -49 -14.5t-27 -38.5l-146 47q21 63 81 102t137 39q94 0 162.5 -55.5t68.5 -130.5v-325h-150v200z" />
    <glyph glyph-name="uni1EAE" unicode="&#x1eae;" horiz-adv-x="795" 
d="M558 1156l-101 97l-154 -167l80 -84zM397 780q-83 0 -141.5 53.5t-58.5 129.5h114q0 -34 24.5 -57t62.5 -23q39 0 66 23.5t27 56.5h114q0 -73 -62 -128t-146 -55zM208 290h383v-140h-383v140zM201 0h-173l270 700h198l271 -700h-173l-195 546z" />
    <glyph glyph-name="uni1EAF" unicode="&#x1eaf;" horiz-adv-x="528" 
d="M408 933l-101 97l-154 -167l80 -84zM249 571q-83 0 -141.5 53.5t-58.5 129.5h114q0 -34 24.5 -57t62.5 -23q39 0 66 23.5t27 56.5h114q0 -73 -62 -128t-146 -55zM327 200l-96 -12q-49 -6 -49 -35q0 -34 52 -34q41 0 67 20.5t26 52.5h35q0 -88 -50.5 -145.5t-126.5 -57.5
q-67 0 -110 42t-43 107.5t43.5 108t120.5 51.5l131 17v5q0 23 -22.5 39.5t-54.5 16.5q-28 0 -49 -14.5t-27 -38.5l-146 47q21 63 81 102t137 39q94 0 162.5 -55.5t68.5 -130.5v-325h-150v200z" />
    <glyph glyph-name="uni1EB0" unicode="&#x1eb0;" horiz-adv-x="795" 
d="M232 1156l101 89l162 -159l-96 -84zM397 780q-83 0 -141.5 53.5t-58.5 129.5h114q0 -34 24.5 -57t62.5 -23q39 0 66 23.5t27 56.5h114q0 -73 -62 -128t-146 -55zM208 290h383v-140h-383v140zM201 0h-173l270 700h198l271 -700h-173l-195 546z" />
    <glyph glyph-name="uni1EB1" unicode="&#x1eb1;" horiz-adv-x="528" 
d="M82 933l101 89l162 -159l-96 -84zM249 571q-83 0 -141.5 53.5t-58.5 129.5h114q0 -34 24.5 -57t62.5 -23q39 0 66 23.5t27 56.5h114q0 -73 -62 -128t-146 -55zM327 200l-96 -12q-49 -6 -49 -35q0 -34 52 -34q41 0 67 20.5t26 52.5h35q0 -88 -50.5 -145.5t-126.5 -57.5
q-67 0 -110 42t-43 107.5t43.5 108t120.5 51.5l131 17v5q0 23 -22.5 39.5t-54.5 16.5q-28 0 -49 -14.5t-27 -38.5l-146 47q21 63 81 102t137 39q94 0 162.5 -55.5t68.5 -130.5v-325h-150v200z" />
    <glyph glyph-name="uni1EB2" unicode="&#x1eb2;" horiz-adv-x="795" 
d="M408 984l-59 81l57 36q33 20 33 50q0 20 -13 32.5t-33 12.5q-37 0 -45 -36l-93 23q14 51 51.5 80.5t88.5 29.5q63 0 103 -39.5t40 -102.5q0 -42 -21 -72.5t-67 -65.5zM397 780q-83 0 -141.5 53.5t-58.5 129.5h114q0 -34 24.5 -57t62.5 -23q39 0 66 23.5t27 56.5h114
q0 -73 -62 -128t-146 -55zM208 290h383v-140h-383v140zM201 0h-173l270 700h198l271 -700h-173l-195 546z" />
    <glyph glyph-name="uni1EB3" unicode="&#x1eb3;" horiz-adv-x="528" 
d="M258 761l-59 81l57 36q33 20 33 50q0 20 -13 32.5t-33 12.5q-37 0 -45 -36l-93 23q14 51 51.5 80.5t88.5 29.5q63 0 103 -39.5t40 -102.5q0 -42 -21 -72.5t-67 -65.5zM249 571q-83 0 -141.5 53.5t-58.5 129.5h114q0 -34 24.5 -57t62.5 -23q39 0 66 23.5t27 56.5h114
q0 -73 -62 -128t-146 -55zM327 200l-96 -12q-49 -6 -49 -35q0 -34 52 -34q41 0 67 20.5t26 52.5h35q0 -88 -50.5 -145.5t-126.5 -57.5q-67 0 -110 42t-43 107.5t43.5 108t120.5 51.5l131 17v5q0 23 -22.5 39.5t-54.5 16.5q-28 0 -49 -14.5t-27 -38.5l-146 47q21 63 81 102
t137 39q94 0 162.5 -55.5t68.5 -130.5v-325h-150v200z" />
    <glyph glyph-name="uni1EB4" unicode="&#x1eb4;" horiz-adv-x="795" 
d="M323 1169q-56 0 -88 -37.5t-40 -105.5l94 -18q10 62 42 62q18 0 44 -22q58 -46 104 -46q54 0 86 38t40 105l-94 18q-10 -59 -46 -59q-22 0 -46 21q-29 25 -50 34.5t-46 9.5zM397 780q-83 0 -141.5 53.5t-58.5 129.5h114q0 -34 24.5 -57t62.5 -23q39 0 66 23.5t27 56.5
h114q0 -73 -62 -128t-146 -55zM208 290h383v-140h-383v140zM201 0h-173l270 700h198l271 -700h-173l-195 546z" />
    <glyph glyph-name="uni1EB5" unicode="&#x1eb5;" horiz-adv-x="528" 
d="M173 946q-56 0 -88 -37.5t-40 -105.5l94 -18q10 62 42 62q18 0 44 -22q58 -46 104 -46q54 0 86 38t40 105l-94 18q-10 -59 -46 -59q-22 0 -46 21q-29 25 -50 34.5t-46 9.5zM249 571q-83 0 -141.5 53.5t-58.5 129.5h114q0 -34 24.5 -57t62.5 -23q39 0 66 23.5t27 56.5h114
q0 -73 -62 -128t-146 -55zM327 200l-96 -12q-49 -6 -49 -35q0 -34 52 -34q41 0 67 20.5t26 52.5h35q0 -88 -50.5 -145.5t-126.5 -57.5q-67 0 -110 42t-43 107.5t43.5 108t120.5 51.5l131 17v5q0 23 -22.5 39.5t-54.5 16.5q-28 0 -49 -14.5t-27 -38.5l-146 47q21 63 81 102
t137 39q94 0 162.5 -55.5t68.5 -130.5v-325h-150v200z" />
    <glyph glyph-name="uni1EB6" unicode="&#x1eb6;" horiz-adv-x="795" 
d="M393 779q-83 0 -141.5 53.5t-58.5 129.5h114q0 -34 24.5 -57t62.5 -23q39 0 66 23.5t27 56.5h114q0 -73 -62 -128t-146 -55zM318 -155q0 38 25.5 63.5t63.5 25.5t63.5 -25.5t25.5 -63.5t-25.5 -63.5t-63.5 -25.5t-63.5 25.5t-25.5 63.5zM208 290h383v-140h-383v140z
M201 0h-173l270 700h198l271 -700h-173l-195 546z" />
    <glyph glyph-name="uni1EB7" unicode="&#x1eb7;" horiz-adv-x="528" 
d="M247 579q-83 0 -141.5 53.5t-58.5 129.5h114q0 -34 24.5 -57t62.5 -23q39 0 66 23.5t27 56.5h114q0 -73 -62 -128t-146 -55zM172 -155q0 38 25.5 63.5t63.5 25.5t63.5 -25.5t25.5 -63.5t-25.5 -63.5t-63.5 -25.5t-63.5 25.5t-25.5 63.5zM327 200l-96 -12q-49 -6 -49 -35
q0 -34 52 -34q41 0 67 20.5t26 52.5h35q0 -88 -50.5 -145.5t-126.5 -57.5q-67 0 -110 42t-43 107.5t43.5 108t120.5 51.5l131 17v5q0 23 -22.5 39.5t-54.5 16.5q-28 0 -49 -14.5t-27 -38.5l-146 47q21 63 81 102t137 39q94 0 162.5 -55.5t68.5 -130.5v-325h-150v200z" />
    <glyph glyph-name="uni1EB8" unicode="&#x1eb8;" horiz-adv-x="587" 
d="M230 -155q0 38 25.5 63.5t63.5 25.5t63.5 -25.5t25.5 -63.5t-25.5 -63.5t-63.5 -25.5t-63.5 25.5t-25.5 63.5zM202 425h326v-148h-326v-129h350v-148h-500v700h500v-148h-350v-127z" />
    <glyph glyph-name="uni1EB9" unicode="&#x1eb9;" 
d="M200 -155q0 38 25.5 63.5t63.5 25.5t63.5 -25.5t25.5 -63.5t-25.5 -63.5t-63.5 -25.5t-63.5 25.5t-25.5 63.5zM408 312q-10 32 -40 51t-71 19q-39 0 -67 -18.5t-39 -51.5h217zM191 191q11 -34 40 -52.5t68 -18.5q31 0 57.5 12t39.5 34l138 -53q-33 -60 -96 -95.5
t-138 -35.5q-115 0 -191.5 77t-76.5 193q0 115 74.5 191.5t185.5 76.5q113 0 191 -78t78 -192q0 -26 -6 -59h-364z" />
    <glyph glyph-name="uni1EBA" unicode="&#x1eba;" horiz-adv-x="587" 
d="M318 759l-59 81l57 36q33 20 33 50q0 20 -13 32.5t-33 12.5q-37 0 -45 -36l-93 23q14 51 51.5 80.5t88.5 29.5q63 0 103 -39.5t40 -102.5q0 -42 -21 -72.5t-67 -65.5zM202 425h326v-148h-326v-129h350v-148h-500v700h500v-148h-350v-127z" />
    <glyph glyph-name="uni1EBB" unicode="&#x1ebb;" 
d="M294 550l-59 81l57 36q33 20 33 50q0 20 -13 32.5t-33 12.5q-37 0 -45 -36l-93 23q14 51 51.5 80.5t88.5 29.5q63 0 103 -39.5t40 -102.5q0 -42 -21 -72.5t-67 -65.5zM408 312q-10 32 -40 51t-71 19q-39 0 -67 -18.5t-39 -51.5h217zM191 191q11 -34 40 -52.5t68 -18.5
q31 0 57.5 12t39.5 34l138 -53q-33 -60 -96 -95.5t-138 -35.5q-115 0 -191.5 77t-76.5 193q0 115 74.5 191.5t185.5 76.5q113 0 191 -78t78 -192q0 -26 -6 -59h-364z" />
    <glyph glyph-name="uni1EBC" unicode="&#x1ebc;" horiz-adv-x="587" 
d="M233 944q-56 0 -88 -37.5t-40 -105.5l94 -18q10 62 42 62q18 0 44 -22q58 -46 104 -46q54 0 86 38t40 105l-94 18q-10 -59 -46 -59q-22 0 -46 21q-29 25 -50 34.5t-46 9.5zM202 425h326v-148h-326v-129h350v-148h-500v700h500v-148h-350v-127z" />
    <glyph glyph-name="uni1EBD" unicode="&#x1ebd;" 
d="M209 735q-56 0 -88 -37.5t-40 -105.5l94 -18q10 62 42 62q18 0 44 -22q58 -46 104 -46q54 0 86 38t40 105l-94 18q-10 -59 -46 -59q-22 0 -46 21q-29 25 -50 34.5t-46 9.5zM408 312q-10 32 -40 51t-71 19q-39 0 -67 -18.5t-39 -51.5h217zM191 191q11 -34 40 -52.5
t68 -18.5q31 0 57.5 12t39.5 34l138 -53q-33 -60 -96 -95.5t-138 -35.5q-115 0 -191.5 77t-76.5 193q0 115 74.5 191.5t185.5 76.5q113 0 191 -78t78 -192q0 -26 -6 -59h-364z" />
    <glyph glyph-name="uni1EBE" unicode="&#x1ebe;" horiz-adv-x="587" 
d="M682 1102l-101 97l-154 -167l80 -84zM292 986l-179 -129l57 -88l140 102l140 -102l57 88l-179 129h-36zM202 425h326v-148h-326v-129h350v-148h-500v700h500v-148h-350v-127z" />
    <glyph glyph-name="uni1EBF" unicode="&#x1ebf;" 
d="M635 929l-101 97l-154 -167l80 -84zM268 777l-179 -129l57 -88l140 102l140 -102l57 88l-179 129h-36zM408 312q-10 32 -40 51t-71 19q-39 0 -67 -18.5t-39 -51.5h217zM191 191q11 -34 40 -52.5t68 -18.5q31 0 57.5 12t39.5 34l138 -53q-33 -60 -96 -95.5t-138 -35.5
q-115 0 -191.5 77t-76.5 193q0 115 74.5 191.5t185.5 76.5q113 0 191 -78t78 -192q0 -26 -6 -59h-364z" />
    <glyph glyph-name="uni1EC0" unicode="&#x1ec0;" horiz-adv-x="587" 
d="M356 1102l101 89l162 -159l-96 -84zM292 986l-179 -129l57 -88l140 102l140 -102l57 88l-179 129h-36zM202 425h326v-148h-326v-129h350v-148h-500v700h500v-148h-350v-127z" />
    <glyph glyph-name="uni1EC1" unicode="&#x1ec1;" 
d="M309 929l101 89l162 -159l-96 -84zM268 777l-179 -129l57 -88l140 102l140 -102l57 88l-179 129h-36zM408 312q-10 32 -40 51t-71 19q-39 0 -67 -18.5t-39 -51.5h217zM191 191q11 -34 40 -52.5t68 -18.5q31 0 57.5 12t39.5 34l138 -53q-33 -60 -96 -95.5t-138 -35.5
q-115 0 -191.5 77t-76.5 193q0 115 74.5 191.5t185.5 76.5q113 0 191 -78t78 -192q0 -26 -6 -59h-364z" />
    <glyph glyph-name="uni1EC2" unicode="&#x1ec2;" horiz-adv-x="587" 
d="M532 930l-59 81l57 36q33 20 33 50q0 20 -13 32.5t-33 12.5q-37 0 -45 -36l-93 23q14 51 51.5 80.5t88.5 29.5q63 0 103 -39.5t40 -102.5q0 -42 -21 -72.5t-67 -65.5zM292 986l-179 -129l57 -88l140 102l140 -102l57 88l-179 129h-36zM202 425h326v-148h-326v-129h350
v-148h-500v700h500v-148h-350v-127z" />
    <glyph glyph-name="uni1EC3" unicode="&#x1ec3;" 
d="M485 757l-59 81l57 36q33 20 33 50q0 20 -13 32.5t-33 12.5q-37 0 -45 -36l-93 23q14 51 51.5 80.5t88.5 29.5q63 0 103 -39.5t40 -102.5q0 -42 -21 -72.5t-67 -65.5zM268 777l-179 -129l57 -88l140 102l140 -102l57 88l-179 129h-36zM408 312q-10 32 -40 51t-71 19
q-39 0 -67 -18.5t-39 -51.5h217zM191 191q11 -34 40 -52.5t68 -18.5q31 0 57.5 12t39.5 34l138 -53q-33 -60 -96 -95.5t-138 -35.5q-115 0 -191.5 77t-76.5 193q0 115 74.5 191.5t185.5 76.5q113 0 191 -78t78 -192q0 -26 -6 -59h-364z" />
    <glyph glyph-name="uni1EC4" unicode="&#x1ec4;" horiz-adv-x="587" 
d="M208 1194q-56 0 -88 -37.5t-40 -105.5l94 -18q10 62 42 62q18 0 44 -22q58 -46 104 -46q54 0 86 38t40 105l-94 18q-10 -59 -46 -59q-22 0 -46 21q-29 25 -50 34.5t-46 9.5zM292 986l-179 -129l57 -88l140 102l140 -102l57 88l-179 129h-36zM202 425h326v-148h-326v-129
h350v-148h-500v700h500v-148h-350v-127z" />
    <glyph glyph-name="uni1EC5" unicode="&#x1ec5;" 
d="M217 995q-56 0 -88 -37.5t-40 -105.5l94 -18q10 62 42 62q18 0 44 -22q58 -46 104 -46q54 0 86 38t40 105l-94 18q-10 -59 -46 -59q-22 0 -46 21q-29 25 -50 34.5t-46 9.5zM268 777l-179 -129l57 -88l140 102l140 -102l57 88l-179 129h-36zM408 312q-10 32 -40 51t-71 19
q-39 0 -67 -18.5t-39 -51.5h217zM191 191q11 -34 40 -52.5t68 -18.5q31 0 57.5 12t39.5 34l138 -53q-33 -60 -96 -95.5t-138 -35.5q-115 0 -191.5 77t-76.5 193q0 115 74.5 191.5t185.5 76.5q113 0 191 -78t78 -192q0 -26 -6 -59h-364z" />
    <glyph glyph-name="uni1EC6" unicode="&#x1ec6;" horiz-adv-x="587" 
d="M292 986l-179 -129l57 -88l140 102l140 -102l57 88l-179 129h-36zM230 -155q0 38 25.5 63.5t63.5 25.5t63.5 -25.5t25.5 -63.5t-25.5 -63.5t-63.5 -25.5t-63.5 25.5t-25.5 63.5zM202 425h326v-148h-326v-129h350v-148h-500v700h500v-148h-350v-127z" />
    <glyph glyph-name="uni1EC7" unicode="&#x1ec7;" 
d="M268 779l-179 -129l57 -88l140 102l140 -102l57 88l-179 129h-36zM200 -155q0 38 25.5 63.5t63.5 25.5t63.5 -25.5t25.5 -63.5t-25.5 -63.5t-63.5 -25.5t-63.5 25.5t-25.5 63.5zM408 312q-10 32 -40 51t-71 19q-39 0 -67 -18.5t-39 -51.5h217zM191 191q11 -34 40 -52.5
t68 -18.5q31 0 57.5 12t39.5 34l138 -53q-33 -60 -96 -95.5t-138 -35.5q-115 0 -191.5 77t-76.5 193q0 115 74.5 191.5t185.5 76.5q113 0 191 -78t78 -192q0 -26 -6 -59h-364z" />
    <glyph glyph-name="uni1EC8" unicode="&#x1ec8;" horiz-adv-x="253" 
d="M135 759l-59 81l57 36q33 20 33 50q0 20 -13 32.5t-33 12.5q-37 0 -45 -36l-93 23q14 51 51.5 80.5t88.5 29.5q63 0 103 -39.5t40 -102.5q0 -42 -21 -72.5t-67 -65.5zM202 0h-150v700h150v-700z" />
    <glyph glyph-name="uni1EC9" unicode="&#x1ec9;" horiz-adv-x="253" 
d="M135 550l-59 81l57 36q33 20 33 50q0 20 -13 32.5t-33 12.5q-37 0 -45 -36l-93 23q14 51 51.5 80.5t88.5 29.5q63 0 103 -39.5t40 -102.5q0 -42 -21 -72.5t-67 -65.5zM52 0v500h150v-500h-150z" />
    <glyph glyph-name="uni1ECA" unicode="&#x1eca;" horiz-adv-x="253" 
d="M38 -155q0 38 25.5 63.5t63.5 25.5t63.5 -25.5t25.5 -63.5t-25.5 -63.5t-63.5 -25.5t-63.5 25.5t-25.5 63.5zM202 0h-150v700h150v-700z" />
    <glyph glyph-name="uni1ECB" unicode="&#x1ecb;" horiz-adv-x="246" 
d="M34 -155q0 38 25.5 63.5t63.5 25.5t63.5 -25.5t25.5 -63.5t-25.5 -63.5t-63.5 -25.5t-63.5 25.5t-25.5 63.5zM34 647.5q0 37.5 26 63.5t63.5 26t63.5 -26t26 -63.5t-26 -63t-63.5 -25.5t-63.5 25.5t-26 63zM48 0v500h151v-500h-151z" />
    <glyph glyph-name="uni1ECC" unicode="&#x1ecc;" horiz-adv-x="788" 
d="M305 -155q0 38 25.5 63.5t63.5 25.5t63.5 -25.5t25.5 -63.5t-25.5 -63.5t-63.5 -25.5t-63.5 25.5t-25.5 63.5zM182 353q0 -97 61.5 -159t150.5 -62t150.5 62t61.5 159q0 95 -61.5 156t-150.5 61t-150.5 -61t-61.5 -156zM32 353q0 106 48.5 190.5t131.5 130.5t182 46
t182 -46t131.5 -130.5t48.5 -190.5q0 -80 -28.5 -149.5t-77.5 -118t-115.5 -76t-140.5 -27.5t-140.5 27.5t-115.5 76t-77.5 118t-28.5 149.5z" />
    <glyph glyph-name="uni1ECD" unicode="&#x1ecd;" horiz-adv-x="618" 
d="M218 -155q0 38 25.5 63.5t63.5 25.5t63.5 -25.5t25.5 -63.5t-25.5 -63.5t-63.5 -25.5t-63.5 25.5t-25.5 63.5zM182 251q0 -56 37 -91.5t90 -35.5t90 35.5t37 91.5t-37 91.5t-90 35.5t-90 -35.5t-37 -91.5zM32 251q0 117 80 193t197 76t197 -76t80 -193t-80 -193t-197 -76
t-197 76t-80 193z" />
    <glyph glyph-name="uni1ECE" unicode="&#x1ece;" horiz-adv-x="788" 
d="M402 759l-59 81l57 36q33 20 33 50q0 20 -13 32.5t-33 12.5q-37 0 -45 -36l-93 23q14 51 51.5 80.5t88.5 29.5q63 0 103 -39.5t40 -102.5q0 -42 -21 -72.5t-67 -65.5zM182 353q0 -97 61.5 -159t150.5 -62t150.5 62t61.5 159q0 95 -61.5 156t-150.5 61t-150.5 -61
t-61.5 -156zM32 353q0 106 48.5 190.5t131.5 130.5t182 46t182 -46t131.5 -130.5t48.5 -190.5q0 -80 -28.5 -149.5t-77.5 -118t-115.5 -76t-140.5 -27.5t-140.5 27.5t-115.5 76t-77.5 118t-28.5 149.5z" />
    <glyph glyph-name="uni1ECF" unicode="&#x1ecf;" horiz-adv-x="618" 
d="M316 550l-59 81l57 36q33 20 33 50q0 20 -13 32.5t-33 12.5q-37 0 -45 -36l-93 23q14 51 51.5 80.5t88.5 29.5q63 0 103 -39.5t40 -102.5q0 -42 -21 -72.5t-67 -65.5zM182 251q0 -56 37 -91.5t90 -35.5t90 35.5t37 91.5t-37 91.5t-90 35.5t-90 -35.5t-37 -91.5zM32 251
q0 117 80 193t197 76t197 -76t80 -193t-80 -193t-197 -76t-197 76t-80 193z" />
    <glyph glyph-name="uni1ED0" unicode="&#x1ed0;" horiz-adv-x="788" 
d="M787 1114l-101 97l-154 -167l80 -84zM376 986l-179 -129l57 -88l140 102l140 -102l57 88l-179 129h-36zM182 353q0 -97 61.5 -159t150.5 -62t150.5 62t61.5 159q0 95 -61.5 156t-150.5 61t-150.5 -61t-61.5 -156zM32 353q0 106 48.5 190.5t131.5 130.5t182 46t182 -46
t131.5 -130.5t48.5 -190.5q0 -80 -28.5 -149.5t-77.5 -118t-115.5 -76t-140.5 -27.5t-140.5 27.5t-115.5 76t-77.5 118t-28.5 149.5z" />
    <glyph glyph-name="uni1ED1" unicode="&#x1ed1;" horiz-adv-x="618" 
d="M652 928l-101 97l-154 -167l80 -84zM290 777l-179 -129l57 -88l140 102l140 -102l57 88l-179 129h-36zM182 251q0 -56 37 -91.5t90 -35.5t90 35.5t37 91.5t-37 91.5t-90 35.5t-90 -35.5t-37 -91.5zM32 251q0 117 80 193t197 76t197 -76t80 -193t-80 -193t-197 -76
t-197 76t-80 193z" />
    <glyph glyph-name="uni1ED2" unicode="&#x1ed2;" horiz-adv-x="788" 
d="M461 1114l101 89l162 -159l-96 -84zM376 986l-179 -129l57 -88l140 102l140 -102l57 88l-179 129h-36zM182 353q0 -97 61.5 -159t150.5 -62t150.5 62t61.5 159q0 95 -61.5 156t-150.5 61t-150.5 -61t-61.5 -156zM32 353q0 106 48.5 190.5t131.5 130.5t182 46t182 -46
t131.5 -130.5t48.5 -190.5q0 -80 -28.5 -149.5t-77.5 -118t-115.5 -76t-140.5 -27.5t-140.5 27.5t-115.5 76t-77.5 118t-28.5 149.5z" />
    <glyph glyph-name="uni1ED3" unicode="&#x1ed3;" horiz-adv-x="618" 
d="M326 928l101 89l162 -159l-96 -84zM290 777l-179 -129l57 -88l140 102l140 -102l57 88l-179 129h-36zM182 251q0 -56 37 -91.5t90 -35.5t90 35.5t37 91.5t-37 91.5t-90 35.5t-90 -35.5t-37 -91.5zM32 251q0 117 80 193t197 76t197 -76t80 -193t-80 -193t-197 -76t-197 76
t-80 193z" />
    <glyph glyph-name="uni1ED4" unicode="&#x1ed4;" horiz-adv-x="788" 
d="M637 942l-59 81l57 36q33 20 33 50q0 20 -13 32.5t-33 12.5q-37 0 -45 -36l-93 23q14 51 51.5 80.5t88.5 29.5q63 0 103 -39.5t40 -102.5q0 -42 -21 -72.5t-67 -65.5zM376 986l-179 -129l57 -88l140 102l140 -102l57 88l-179 129h-36zM182 353q0 -97 61.5 -159t150.5 -62
t150.5 62t61.5 159q0 95 -61.5 156t-150.5 61t-150.5 -61t-61.5 -156zM32 353q0 106 48.5 190.5t131.5 130.5t182 46t182 -46t131.5 -130.5t48.5 -190.5q0 -80 -28.5 -149.5t-77.5 -118t-115.5 -76t-140.5 -27.5t-140.5 27.5t-115.5 76t-77.5 118t-28.5 149.5z" />
    <glyph glyph-name="uni1ED5" unicode="&#x1ed5;" horiz-adv-x="618" 
d="M502 756l-59 81l57 36q33 20 33 50q0 20 -13 32.5t-33 12.5q-37 0 -45 -36l-93 23q14 51 51.5 80.5t88.5 29.5q63 0 103 -39.5t40 -102.5q0 -42 -21 -72.5t-67 -65.5zM290 777l-179 -129l57 -88l140 102l140 -102l57 88l-179 129h-36zM182 251q0 -56 37 -91.5t90 -35.5
t90 35.5t37 91.5t-37 91.5t-90 35.5t-90 -35.5t-37 -91.5zM32 251q0 117 80 193t197 76t197 -76t80 -193t-80 -193t-197 -76t-197 76t-80 193z" />
    <glyph glyph-name="uni1ED6" unicode="&#x1ed6;" horiz-adv-x="788" 
d="M317 1194q-56 0 -88 -37.5t-40 -105.5l94 -18q10 62 42 62q18 0 44 -22q58 -46 104 -46q54 0 86 38t40 105l-94 18q-10 -59 -46 -59q-22 0 -46 21q-29 25 -50 34.5t-46 9.5zM376 986l-179 -129l57 -88l140 102l140 -102l57 88l-179 129h-36zM182 353q0 -97 61.5 -159
t150.5 -62t150.5 62t61.5 159q0 95 -61.5 156t-150.5 61t-150.5 -61t-61.5 -156zM32 353q0 106 48.5 190.5t131.5 130.5t182 46t182 -46t131.5 -130.5t48.5 -190.5q0 -80 -28.5 -149.5t-77.5 -118t-115.5 -76t-140.5 -27.5t-140.5 27.5t-115.5 76t-77.5 118t-28.5 149.5z
" />
    <glyph glyph-name="uni1ED7" unicode="&#x1ed7;" horiz-adv-x="618" 
d="M231 995q-56 0 -88 -37.5t-40 -105.5l94 -18q10 62 42 62q18 0 44 -22q58 -46 104 -46q54 0 86 38t40 105l-94 18q-10 -59 -46 -59q-22 0 -46 21q-29 25 -50 34.5t-46 9.5zM290 777l-179 -129l57 -88l140 102l140 -102l57 88l-179 129h-36zM182 251q0 -56 37 -91.5
t90 -35.5t90 35.5t37 91.5t-37 91.5t-90 35.5t-90 -35.5t-37 -91.5zM32 251q0 117 80 193t197 76t197 -76t80 -193t-80 -193t-197 -76t-197 76t-80 193z" />
    <glyph glyph-name="uni1ED8" unicode="&#x1ed8;" horiz-adv-x="788" 
d="M376 986l-179 -129l57 -88l140 102l140 -102l57 88l-179 129h-36zM305 -155q0 38 25.5 63.5t63.5 25.5t63.5 -25.5t25.5 -63.5t-25.5 -63.5t-63.5 -25.5t-63.5 25.5t-25.5 63.5zM182 353q0 -97 61.5 -159t150.5 -62t150.5 62t61.5 159q0 95 -61.5 156t-150.5 61
t-150.5 -61t-61.5 -156zM32 353q0 106 48.5 190.5t131.5 130.5t182 46t182 -46t131.5 -130.5t48.5 -190.5q0 -80 -28.5 -149.5t-77.5 -118t-115.5 -76t-140.5 -27.5t-140.5 27.5t-115.5 76t-77.5 118t-28.5 149.5z" />
    <glyph glyph-name="uni1ED9" unicode="&#x1ed9;" horiz-adv-x="618" 
d="M290 779l-179 -129l57 -88l140 102l140 -102l57 88l-179 129h-36zM218 -155q0 38 25.5 63.5t63.5 25.5t63.5 -25.5t25.5 -63.5t-25.5 -63.5t-63.5 -25.5t-63.5 25.5t-25.5 63.5zM182 251q0 -56 37 -91.5t90 -35.5t90 35.5t37 91.5t-37 91.5t-90 35.5t-90 -35.5t-37 -91.5
zM32 251q0 117 80 193t197 76t197 -76t80 -193t-80 -193t-197 -76t-197 76t-80 193z" />
    <glyph glyph-name="uni1EDA" unicode="&#x1eda;" horiz-adv-x="808" 
d="M552 931l-101 97l-154 -167l80 -84zM569 568v93h60q47 0 47 39q0 27 -28 48l80 66q54 -33 54 -105q0 -58 -35.5 -99.5t-86.5 -41.5h-91zM182 353q0 -97 61.5 -159t150.5 -62t150.5 62t61.5 159q0 95 -61.5 156t-150.5 61t-150.5 -61t-61.5 -156zM32 353q0 106 48.5 190.5
t131.5 130.5t182 46t182 -46t131.5 -130.5t48.5 -190.5q0 -80 -28.5 -149.5t-77.5 -118t-115.5 -76t-140.5 -27.5t-140.5 27.5t-115.5 76t-77.5 118t-28.5 149.5z" />
    <glyph glyph-name="uni1EDB" unicode="&#x1edb;" horiz-adv-x="691" 
d="M466 722l-101 97l-154 -167l80 -84zM468 360v93h60q47 0 47 39q0 27 -28 48l80 66q54 -33 54 -105q0 -58 -35.5 -99.5t-86.5 -41.5h-91zM182 251q0 -56 37 -91.5t90 -35.5t90 35.5t37 91.5t-37 91.5t-90 35.5t-90 -35.5t-37 -91.5zM32 251q0 117 80 193t197 76t197 -76
t80 -193t-80 -193t-197 -76t-197 76t-80 193z" />
    <glyph glyph-name="uni1EDC" unicode="&#x1edc;" horiz-adv-x="808" 
d="M226 931l101 89l162 -159l-96 -84zM569 568v93h60q47 0 47 39q0 27 -28 48l80 66q54 -33 54 -105q0 -58 -35.5 -99.5t-86.5 -41.5h-91zM182 353q0 -97 61.5 -159t150.5 -62t150.5 62t61.5 159q0 95 -61.5 156t-150.5 61t-150.5 -61t-61.5 -156zM32 353q0 106 48.5 190.5
t131.5 130.5t182 46t182 -46t131.5 -130.5t48.5 -190.5q0 -80 -28.5 -149.5t-77.5 -118t-115.5 -76t-140.5 -27.5t-140.5 27.5t-115.5 76t-77.5 118t-28.5 149.5z" />
    <glyph glyph-name="uni1EDD" unicode="&#x1edd;" horiz-adv-x="691" 
d="M140 722l101 89l162 -159l-96 -84zM468 360v93h60q47 0 47 39q0 27 -28 48l80 66q54 -33 54 -105q0 -58 -35.5 -99.5t-86.5 -41.5h-91zM182 251q0 -56 37 -91.5t90 -35.5t90 35.5t37 91.5t-37 91.5t-90 35.5t-90 -35.5t-37 -91.5zM32 251q0 117 80 193t197 76t197 -76
t80 -193t-80 -193t-197 -76t-197 76t-80 193z" />
    <glyph glyph-name="uni1EDE" unicode="&#x1ede;" horiz-adv-x="808" 
d="M402 759l-59 81l57 36q33 20 33 50q0 20 -13 32.5t-33 12.5q-37 0 -45 -36l-93 23q14 51 51.5 80.5t88.5 29.5q63 0 103 -39.5t40 -102.5q0 -42 -21 -72.5t-67 -65.5zM569 568v93h60q47 0 47 39q0 27 -28 48l80 66q54 -33 54 -105q0 -58 -35.5 -99.5t-86.5 -41.5h-91z
M182 353q0 -97 61.5 -159t150.5 -62t150.5 62t61.5 159q0 95 -61.5 156t-150.5 61t-150.5 -61t-61.5 -156zM32 353q0 106 48.5 190.5t131.5 130.5t182 46t182 -46t131.5 -130.5t48.5 -190.5q0 -80 -28.5 -149.5t-77.5 -118t-115.5 -76t-140.5 -27.5t-140.5 27.5t-115.5 76
t-77.5 118t-28.5 149.5z" />
    <glyph glyph-name="uni1EDF" unicode="&#x1edf;" horiz-adv-x="691" 
d="M316 550l-59 81l57 36q33 20 33 50q0 20 -13 32.5t-33 12.5q-37 0 -45 -36l-93 23q14 51 51.5 80.5t88.5 29.5q63 0 103 -39.5t40 -102.5q0 -42 -21 -72.5t-67 -65.5zM468 360v93h60q47 0 47 39q0 27 -28 48l80 66q54 -33 54 -105q0 -58 -35.5 -99.5t-86.5 -41.5h-91z
M182 251q0 -56 37 -91.5t90 -35.5t90 35.5t37 91.5t-37 91.5t-90 35.5t-90 -35.5t-37 -91.5zM32 251q0 117 80 193t197 76t197 -76t80 -193t-80 -193t-197 -76t-197 76t-80 193z" />
    <glyph glyph-name="uni1EE0" unicode="&#x1ee0;" horiz-adv-x="808" 
d="M317 944q-56 0 -88 -37.5t-40 -105.5l94 -18q10 62 42 62q18 0 44 -22q58 -46 104 -46q54 0 86 38t40 105l-94 18q-10 -59 -46 -59q-22 0 -46 21q-29 25 -50 34.5t-46 9.5zM569 568v93h60q47 0 47 39q0 27 -28 48l80 66q54 -33 54 -105q0 -58 -35.5 -99.5t-86.5 -41.5
h-91zM182 353q0 -97 61.5 -159t150.5 -62t150.5 62t61.5 159q0 95 -61.5 156t-150.5 61t-150.5 -61t-61.5 -156zM32 353q0 106 48.5 190.5t131.5 130.5t182 46t182 -46t131.5 -130.5t48.5 -190.5q0 -80 -28.5 -149.5t-77.5 -118t-115.5 -76t-140.5 -27.5t-140.5 27.5
t-115.5 76t-77.5 118t-28.5 149.5z" />
    <glyph glyph-name="uni1EE1" unicode="&#x1ee1;" horiz-adv-x="691" 
d="M231 735q-56 0 -88 -37.5t-40 -105.5l94 -18q10 62 42 62q18 0 44 -22q58 -46 104 -46q54 0 86 38t40 105l-94 18q-10 -59 -46 -59q-22 0 -46 21q-29 25 -50 34.5t-46 9.5zM468 360v93h60q47 0 47 39q0 27 -28 48l80 66q54 -33 54 -105q0 -58 -35.5 -99.5t-86.5 -41.5
h-91zM182 251q0 -56 37 -91.5t90 -35.5t90 35.5t37 91.5t-37 91.5t-90 35.5t-90 -35.5t-37 -91.5zM32 251q0 117 80 193t197 76t197 -76t80 -193t-80 -193t-197 -76t-197 76t-80 193z" />
    <glyph glyph-name="uni1EE2" unicode="&#x1ee2;" horiz-adv-x="808" 
d="M305 -155q0 38 25.5 63.5t63.5 25.5t63.5 -25.5t25.5 -63.5t-25.5 -63.5t-63.5 -25.5t-63.5 25.5t-25.5 63.5zM569 568v93h60q47 0 47 39q0 27 -28 48l80 66q54 -33 54 -105q0 -58 -35.5 -99.5t-86.5 -41.5h-91zM182 353q0 -97 61.5 -159t150.5 -62t150.5 62t61.5 159
q0 95 -61.5 156t-150.5 61t-150.5 -61t-61.5 -156zM32 353q0 106 48.5 190.5t131.5 130.5t182 46t182 -46t131.5 -130.5t48.5 -190.5q0 -80 -28.5 -149.5t-77.5 -118t-115.5 -76t-140.5 -27.5t-140.5 27.5t-115.5 76t-77.5 118t-28.5 149.5z" />
    <glyph glyph-name="uni1EE3" unicode="&#x1ee3;" horiz-adv-x="691" 
d="M218 -155q0 38 25.5 63.5t63.5 25.5t63.5 -25.5t25.5 -63.5t-25.5 -63.5t-63.5 -25.5t-63.5 25.5t-25.5 63.5zM468 360v93h60q47 0 47 39q0 27 -28 48l80 66q54 -33 54 -105q0 -58 -35.5 -99.5t-86.5 -41.5h-91zM182 251q0 -56 37 -91.5t90 -35.5t90 35.5t37 91.5
t-37 91.5t-90 35.5t-90 -35.5t-37 -91.5zM32 251q0 117 80 193t197 76t197 -76t80 -193t-80 -193t-197 -76t-197 76t-80 193z" />
    <glyph glyph-name="uni1EE4" unicode="&#x1ee4;" horiz-adv-x="690" 
d="M255 -155q0 38 25.5 63.5t63.5 25.5t63.5 -25.5t25.5 -63.5t-25.5 -63.5t-63.5 -25.5t-63.5 25.5t-25.5 63.5zM345 -11q-125 0 -209 83.5t-84 211.5v416h150v-406q0 -73 40 -114t103 -41t103 41t40 114v406h150v-416q0 -128 -84 -211.5t-209 -83.5z" />
    <glyph glyph-name="uni1EE5" unicode="&#x1ee5;" horiz-adv-x="558" 
d="M183 -155q0 38 25.5 63.5t63.5 25.5t63.5 -25.5t25.5 -63.5t-25.5 -63.5t-63.5 -25.5t-63.5 25.5t-25.5 63.5zM506 500v-500h-150v500h150zM202 500v-290q0 -37 21 -58t54 -21t56 21t23 50h55q0 -91 -53 -152t-131 -61q-76 0 -125.5 50t-49.5 136v325h150z" />
    <glyph glyph-name="uni1EE6" unicode="&#x1ee6;" horiz-adv-x="690" 
d="M353 759l-59 81l57 36q33 20 33 50q0 20 -13 32.5t-33 12.5q-37 0 -45 -36l-93 23q14 51 51.5 80.5t88.5 29.5q63 0 103 -39.5t40 -102.5q0 -42 -21 -72.5t-67 -65.5zM345 -11q-125 0 -209 83.5t-84 211.5v416h150v-406q0 -73 40 -114t103 -41t103 41t40 114v406h150
v-416q0 -128 -84 -211.5t-209 -83.5z" />
    <glyph glyph-name="uni1EE7" unicode="&#x1ee7;" horiz-adv-x="558" 
d="M281 550l-59 81l57 36q33 20 33 50q0 20 -13 32.5t-33 12.5q-37 0 -45 -36l-93 23q14 51 51.5 80.5t88.5 29.5q63 0 103 -39.5t40 -102.5q0 -42 -21 -72.5t-67 -65.5zM506 500v-500h-150v500h150zM202 500v-290q0 -37 21 -58t54 -21t56 21t23 50h55q0 -91 -53 -152
t-131 -61q-76 0 -125.5 50t-49.5 136v325h150z" />
    <glyph glyph-name="uni1EE8" unicode="&#x1ee8;" horiz-adv-x="806" 
d="M503 931l-101 97l-154 -167l80 -84zM589 568v93h60q47 0 47 39q0 27 -28 48l80 66q54 -33 54 -105q0 -58 -35.5 -99.5t-86.5 -41.5h-91zM345 -11q-125 0 -209 83.5t-84 211.5v416h150v-406q0 -73 40 -114t103 -41t103 41t40 114v406h150v-416q0 -128 -84 -211.5
t-209 -83.5z" />
    <glyph glyph-name="uni1EE9" unicode="&#x1ee9;" horiz-adv-x="681" 
d="M431 722l-101 97l-154 -167l80 -84zM468 360v93h60q47 0 47 39q0 27 -28 48l80 66q54 -33 54 -105q0 -58 -35.5 -99.5t-86.5 -41.5h-91zM506 500v-500h-150v500h150zM202 500v-290q0 -37 21 -58t54 -21t56 21t23 50h55q0 -91 -53 -152t-131 -61q-76 0 -125.5 50
t-49.5 136v325h150z" />
    <glyph glyph-name="uni1EEA" unicode="&#x1eea;" horiz-adv-x="806" 
d="M177 931l101 89l162 -159l-96 -84zM589 568v93h60q47 0 47 39q0 27 -28 48l80 66q54 -33 54 -105q0 -58 -35.5 -99.5t-86.5 -41.5h-91zM345 -11q-125 0 -209 83.5t-84 211.5v416h150v-406q0 -73 40 -114t103 -41t103 41t40 114v406h150v-416q0 -128 -84 -211.5
t-209 -83.5z" />
    <glyph glyph-name="uni1EEB" unicode="&#x1eeb;" horiz-adv-x="681" 
d="M105 722l101 89l162 -159l-96 -84zM468 360v93h60q47 0 47 39q0 27 -28 48l80 66q54 -33 54 -105q0 -58 -35.5 -99.5t-86.5 -41.5h-91zM506 500v-500h-150v500h150zM202 500v-290q0 -37 21 -58t54 -21t56 21t23 50h55q0 -91 -53 -152t-131 -61q-76 0 -125.5 50t-49.5 136
v325h150z" />
    <glyph glyph-name="uni1EEC" unicode="&#x1eec;" horiz-adv-x="806" 
d="M353 759l-59 81l57 36q33 20 33 50q0 20 -13 32.5t-33 12.5q-37 0 -45 -36l-93 23q14 51 51.5 80.5t88.5 29.5q63 0 103 -39.5t40 -102.5q0 -42 -21 -72.5t-67 -65.5zM589 568v93h60q47 0 47 39q0 27 -28 48l80 66q54 -33 54 -105q0 -58 -35.5 -99.5t-86.5 -41.5h-91z
M345 -11q-125 0 -209 83.5t-84 211.5v416h150v-406q0 -73 40 -114t103 -41t103 41t40 114v406h150v-416q0 -128 -84 -211.5t-209 -83.5z" />
    <glyph glyph-name="uni1EED" unicode="&#x1eed;" horiz-adv-x="681" 
d="M281 550l-59 81l57 36q33 20 33 50q0 20 -13 32.5t-33 12.5q-37 0 -45 -36l-93 23q14 51 51.5 80.5t88.5 29.5q63 0 103 -39.5t40 -102.5q0 -42 -21 -72.5t-67 -65.5zM468 360v93h60q47 0 47 39q0 27 -28 48l80 66q54 -33 54 -105q0 -58 -35.5 -99.5t-86.5 -41.5h-91z
M506 500v-500h-150v500h150zM202 500v-290q0 -37 21 -58t54 -21t56 21t23 50h55q0 -91 -53 -152t-131 -61q-76 0 -125.5 50t-49.5 136v325h150z" />
    <glyph glyph-name="uni1EEE" unicode="&#x1eee;" horiz-adv-x="806" 
d="M268 944q-56 0 -88 -37.5t-40 -105.5l94 -18q10 62 42 62q18 0 44 -22q58 -46 104 -46q54 0 86 38t40 105l-94 18q-10 -59 -46 -59q-22 0 -46 21q-29 25 -50 34.5t-46 9.5zM589 568v93h60q47 0 47 39q0 27 -28 48l80 66q54 -33 54 -105q0 -58 -35.5 -99.5t-86.5 -41.5
h-91zM345 -11q-125 0 -209 83.5t-84 211.5v416h150v-406q0 -73 40 -114t103 -41t103 41t40 114v406h150v-416q0 -128 -84 -211.5t-209 -83.5z" />
    <glyph glyph-name="uni1EEF" unicode="&#x1eef;" horiz-adv-x="681" 
d="M196 735q-56 0 -88 -37.5t-40 -105.5l94 -18q10 62 42 62q18 0 44 -22q58 -46 104 -46q54 0 86 38t40 105l-94 18q-10 -59 -46 -59q-22 0 -46 21q-29 25 -50 34.5t-46 9.5zM468 360v93h60q47 0 47 39q0 27 -28 48l80 66q54 -33 54 -105q0 -58 -35.5 -99.5t-86.5 -41.5
h-91zM506 500v-500h-150v500h150zM202 500v-290q0 -37 21 -58t54 -21t56 21t23 50h55q0 -91 -53 -152t-131 -61q-76 0 -125.5 50t-49.5 136v325h150z" />
    <glyph glyph-name="uni1EF0" unicode="&#x1ef0;" horiz-adv-x="806" 
d="M255 -155q0 38 25.5 63.5t63.5 25.5t63.5 -25.5t25.5 -63.5t-25.5 -63.5t-63.5 -25.5t-63.5 25.5t-25.5 63.5zM589 568v93h60q47 0 47 39q0 27 -28 48l80 66q54 -33 54 -105q0 -58 -35.5 -99.5t-86.5 -41.5h-91zM345 -11q-125 0 -209 83.5t-84 211.5v416h150v-406
q0 -73 40 -114t103 -41t103 41t40 114v406h150v-416q0 -128 -84 -211.5t-209 -83.5z" />
    <glyph glyph-name="uni1EF1" unicode="&#x1ef1;" horiz-adv-x="681" 
d="M183 -155q0 38 25.5 63.5t63.5 25.5t63.5 -25.5t25.5 -63.5t-25.5 -63.5t-63.5 -25.5t-63.5 25.5t-25.5 63.5zM468 360v93h60q47 0 47 39q0 27 -28 48l80 66q54 -33 54 -105q0 -58 -35.5 -99.5t-86.5 -41.5h-91zM506 500v-500h-150v500h150zM202 500v-290q0 -37 21 -58
t54 -21t56 21t23 50h55q0 -91 -53 -152t-131 -61q-76 0 -125.5 50t-49.5 136v325h150z" />
    <glyph glyph-name="Ygrave" unicode="&#x1ef2;" horiz-adv-x="691" 
d="M185 931l101 89l162 -159l-96 -84zM280 0h151v223l236 477h-176l-135 -293l-155 293h-177l256 -477v-223z" />
    <glyph glyph-name="ygrave" unicode="&#x1ef3;" horiz-adv-x="609" 
d="M136 722l101 89l162 -159l-96 -84zM422 500l-117 -328l-118 328h-159l192 -488l-77 -212h159l279 700h-159z" />
    <glyph glyph-name="uni1EF4" unicode="&#x1ef4;" horiz-adv-x="691" 
d="M268 -155q0 38 25.5 63.5t63.5 25.5t63.5 -25.5t25.5 -63.5t-25.5 -63.5t-63.5 -25.5t-63.5 25.5t-25.5 63.5zM280 0h151v223l236 477h-176l-135 -293l-155 293h-177l256 -477v-223z" />
    <glyph glyph-name="uni1EF5" unicode="&#x1ef5;" horiz-adv-x="609" 
d="M399 -155q0 38 25.5 63.5t63.5 25.5t63.5 -25.5t25.5 -63.5t-25.5 -63.5t-63.5 -25.5t-63.5 25.5t-25.5 63.5zM422 500l-117 -328l-118 328h-159l192 -488l-77 -212h159l279 700h-159z" />
    <glyph glyph-name="uni1EF6" unicode="&#x1ef6;" horiz-adv-x="691" 
d="M361 759l-59 81l57 36q33 20 33 50q0 20 -13 32.5t-33 12.5q-37 0 -45 -36l-93 23q14 51 51.5 80.5t88.5 29.5q63 0 103 -39.5t40 -102.5q0 -42 -21 -72.5t-67 -65.5zM280 0h151v223l236 477h-176l-135 -293l-155 293h-177l256 -477v-223z" />
    <glyph glyph-name="uni1EF7" unicode="&#x1ef7;" horiz-adv-x="609" 
d="M312 550l-59 81l57 36q33 20 33 50q0 20 -13 32.5t-33 12.5q-37 0 -45 -36l-93 23q14 51 51.5 80.5t88.5 29.5q63 0 103 -39.5t40 -102.5q0 -42 -21 -72.5t-67 -65.5zM422 500l-117 -328l-118 328h-159l192 -488l-77 -212h159l279 700h-159z" />
    <glyph glyph-name="uni1EF8" unicode="&#x1ef8;" horiz-adv-x="691" 
d="M276 944q-56 0 -88 -37.5t-40 -105.5l94 -18q10 62 42 62q18 0 44 -22q58 -46 104 -46q54 0 86 38t40 105l-94 18q-10 -59 -46 -59q-22 0 -46 21q-29 25 -50 34.5t-46 9.5zM280 0h151v223l236 477h-176l-135 -293l-155 293h-177l256 -477v-223z" />
    <glyph glyph-name="uni1EF9" unicode="&#x1ef9;" horiz-adv-x="609" 
d="M227 735q-56 0 -88 -37.5t-40 -105.5l94 -18q10 62 42 62q18 0 44 -22q58 -46 104 -46q54 0 86 38t40 105l-94 18q-10 -59 -46 -59q-22 0 -46 21q-29 25 -50 34.5t-46 9.5zM422 500l-117 -328l-118 328h-159l192 -488l-77 -212h159l279 700h-159z" />
    <glyph glyph-name="uni2010" unicode="&#x2010;" horiz-adv-x="377" 
d="M351 332v-131h-325v131h325z" />
    <glyph glyph-name="endash" unicode="&#x2013;" horiz-adv-x="560" 
d="M535 332v-131h-509v131h509z" />
    <glyph glyph-name="emdash" unicode="&#x2014;" horiz-adv-x="892" 
d="M867 332v-131h-841v131h841z" />
    <glyph glyph-name="quoteleft" unicode="&#x2018;" horiz-adv-x="250" 
d="M218 706q-46 -9 -76 -41.5t-30 -72.5q9 7 31 7q34 0 57.5 -25t23.5 -60q0 -36 -25.5 -59t-63.5 -23q-52 0 -83 48q-22 35 -22 88q0 67 43.5 131t103.5 83z" />
    <glyph glyph-name="quoteright" unicode="&#x2019;" horiz-adv-x="250" 
d="M36 507q46 10 76.5 42.5t30.5 72.5q-10 -8 -31 -8q-35 0 -58.5 25t-23.5 61q0 35 25.5 58.5t64.5 23.5q52 0 82 -48q22 -35 22 -88q0 -68 -43.5 -131.5t-103.5 -82.5z" />
    <glyph glyph-name="quotesinglbase" unicode="&#x201a;" horiz-adv-x="250" 
d="M36 -116q46 9 76.5 41.5t30.5 72.5q-10 -7 -31 -7q-35 0 -58.5 25t-23.5 60t25.5 58.5t64.5 23.5q52 0 82 -48q22 -35 22 -88q0 -67 -43.5 -131t-103.5 -83z" />
    <glyph glyph-name="quotereversed" unicode="&#x201b;" horiz-adv-x="250" 
d="M218 507l-41 -75q-60 19 -103.5 83t-43.5 131q0 53 22 88q31 48 83 48q38 0 63.5 -23.5t25.5 -58.5q0 -36 -23.5 -61t-57.5 -25q-22 0 -31 8q0 -40 30 -72.5t76 -42.5z" />
    <glyph glyph-name="quotedblleft" unicode="&#x201c;" horiz-adv-x="473" 
d="M442 706q-46 -9 -76.5 -41.5t-30.5 -72.5q9 7 31 7q34 0 58 -25t24 -60q0 -36 -25.5 -59t-64.5 -23q-52 0 -82 48q-23 35 -23 88q0 67 44 131t104 83zM218 706q-46 -9 -76 -41.5t-30 -72.5q9 7 31 7q34 0 57.5 -25t23.5 -60q0 -36 -25.5 -59t-63.5 -23q-52 0 -83 48
q-22 35 -22 88q0 67 43.5 131t103.5 83z" />
    <glyph glyph-name="quotedblright" unicode="&#x201d;" horiz-adv-x="473" 
d="M36 507q46 10 76.5 42.5t30.5 72.5q-10 -8 -31 -8q-35 0 -58.5 25t-23.5 61q0 35 25.5 58.5t64.5 23.5q52 0 82 -48q22 -35 22 -88q0 -67 -43.5 -131t-103.5 -83zM260 507q46 10 76 42.5t30 72.5q-9 -8 -31 -8q-34 0 -58 25t-24 61q0 35 26 58.5t64 23.5q52 0 83 -48
q22 -35 22 -88q0 -67 -43.5 -131t-103.5 -83z" />
    <glyph glyph-name="quotedblbase" unicode="&#x201e;" horiz-adv-x="473" 
d="M36 -116q46 9 76.5 41.5t30.5 72.5q-10 -7 -31 -7q-35 0 -58.5 25t-23.5 60q0 36 25.5 59t64.5 23q52 0 82 -48q22 -35 22 -88q0 -67 -43.5 -131t-103.5 -83zM260 -116q46 9 76 41.5t30 72.5q-9 -7 -31 -7q-34 0 -58 25t-24 60q0 36 26 59t64 23q52 0 83 -48
q22 -35 22 -88q0 -67 -43.5 -131t-103.5 -83z" />
    <glyph glyph-name="uni201F" unicode="&#x201f;" horiz-adv-x="473" 
d="M442 507l-41 -75q-60 19 -104 83t-44 131q0 53 23 88q30 48 82 48q39 0 64.5 -23.5t25.5 -58.5q0 -36 -24 -61t-58 -25q-22 0 -31 8q0 -40 30.5 -72.5t76.5 -42.5zM218 507l-41 -75q-60 19 -103.5 83t-43.5 131q0 53 22 88q31 48 83 48q38 0 63.5 -23.5t25.5 -58.5
q0 -36 -23.5 -61t-57.5 -25q-22 0 -31 8q0 -40 30 -72.5t76 -42.5z" />
    <glyph glyph-name="dagger" unicode="&#x2020;" horiz-adv-x="402" 
d="M109 656h187l-19 -147h95v-139h-95v-370h-150v370h-97v139h97z" />
    <glyph glyph-name="daggerdbl" unicode="&#x2021;" horiz-adv-x="402" 
d="M108 656h187l-18 -147h95v-139h-95v-84h95v-139h-95l17 -147h-187l18 147h-95v139h95v84h-95v139h95z" />
    <glyph glyph-name="bullet" unicode="&#x2022;" horiz-adv-x="260" 
d="M31 281q0 43 27.5 72t68.5 29q44 0 73 -29t29 -72t-28 -71t-70.5 -28t-71 28t-28.5 71z" />
    <glyph glyph-name="uni2023" unicode="&#x2023;" horiz-adv-x="260" 
d="M45 402l184 -121l-184 -119v240z" />
    <glyph glyph-name="ellipsis" unicode="&#x2026;" horiz-adv-x="780" 
d="M551 81q0 43 27.5 72t68.5 29q44 0 73 -29t29 -72t-28 -71t-70.5 -28t-71 28t-28.5 71zM291 81q0 43 27.5 72t68.5 29q44 0 73 -29t29 -72t-28 -71t-70.5 -28t-71 28t-28.5 71zM31 81q0 43 27.5 72t68.5 29q44 0 73 -29t29 -72t-28 -71t-70.5 -28t-71 28t-28.5 71z" />
    <glyph glyph-name="perthousand" unicode="&#x2030;" horiz-adv-x="1500" 
d="M1187 201q0 -34 22.5 -55.5t55 -21.5t55 21.5t22.5 55.5t-22.5 55.5t-55 21.5t-55 -21.5t-22.5 -55.5zM1054 200.5q0 91.5 61 151.5t149.5 60t149.5 -60t61 -151.5t-61 -151t-149.5 -59.5t-149.5 59.5t-61 151zM739 201q0 -34 22.5 -55.5t54.5 -21.5t54.5 21.5t22.5 55.5
t-22.5 55.5t-54.5 21.5t-54.5 -21.5t-22.5 -55.5zM605 200.5q0 91.5 61.5 151.5t149.5 60t149.5 -60t61.5 -151.5t-61.5 -151t-149.5 -59.5t-149.5 59.5t-61.5 151zM159 499q0 -34 22.5 -55.5t55 -21.5t55 21.5t22.5 55.5t-22.5 55.5t-55 21.5t-55 -21.5t-22.5 -55.5z
M26 499.5q0 91.5 61 151t149.5 59.5t149.5 -59.5t61 -151t-61 -151.5t-149.5 -60t-149.5 60t-61 151.5zM466 0h-166l287 700h166z" />
    <glyph glyph-name="minute" unicode="&#x2032;" horiz-adv-x="241" 
d="M81 775l134 -38l-59 -246l-129 36z" />
    <glyph glyph-name="second" unicode="&#x2033;" horiz-adv-x="445" 
d="M285 775l133 -38l-59 -246l-128 36zM81 775l134 -38l-59 -246l-129 36z" />
    <glyph glyph-name="uni2034" unicode="&#x2034;" horiz-adv-x="648" 
d="M488 775l134 -38l-59 -246l-129 36zM285 775l133 -38l-59 -246l-128 36zM81 775l134 -38l-59 -246l-129 36z" />
    <glyph glyph-name="uni2035" unicode="&#x2035;" horiz-adv-x="241" 
d="M161 775l54 -248l-129 -36l-59 246z" />
    <glyph glyph-name="uni2036" unicode="&#x2036;" horiz-adv-x="445" 
d="M161 775l54 -248l-129 -36l-59 246zM364 775l54 -248l-128 -36l-59 246z" />
    <glyph glyph-name="uni2037" unicode="&#x2037;" horiz-adv-x="648" 
d="M161 775l54 -248l-129 -36l-59 246zM364 775l54 -248l-128 -36l-59 246zM568 775l54 -248l-129 -36l-59 246z" />
    <glyph glyph-name="fractionslash" unicode="&#x2044;" horiz-adv-x="160" 
d="M20 0h-166l287 700h166z" />
    <glyph glyph-name="uni2070" unicode="&#x2070;" horiz-adv-x="368" 
d="M146 608q0 -19 11.5 -31t28.5 -12q15 0 26 12t11 31v80q0 19 -11 31.5t-26 12.5q-17 0 -28.5 -12.5t-11.5 -31.5v-80zM29 599v98q0 66 45.5 109t111.5 43q64 0 108.5 -43t44.5 -109v-98q0 -65 -44.5 -108t-108.5 -43q-66 0 -111.5 43t-45.5 108z" />
    <glyph glyph-name="uni2074" unicode="&#x2074;" horiz-adv-x="388" 
d="M142 626h55v77zM314 839v-213h45v-97h-45v-71h-117v71h-168v110l155 200h130z" />
    <glyph glyph-name="uni2075" unicode="&#x2075;" horiz-adv-x="368" 
d="M146 690v46h179v104h-296v-190l117 -35q18 18 39 18q17 0 27.5 -11.5t10.5 -29.5q0 -15 -11 -24.5t-28 -9.5q-33 0 -41 31l-114 -29q16 -51 58.5 -80.5t99.5 -29.5q67 0 109.5 40t42.5 102q0 53 -31 89.5t-77 36.5q-49 0 -85 -28z" />
    <glyph glyph-name="uni2076" unicode="&#x2076;" horiz-adv-x="370" 
d="M267 723q-20 26 -57 26q-30 0 -49.5 -24.5t-22.5 -66.5q11 21 34.5 33.5t50.5 12.5q46 0 78.5 -35.5t32.5 -86.5q0 -58 -42 -96t-106 -38q-75 0 -117 55q-40 51 -40 136q0 93 48.5 151.5t126.5 58.5q48 0 84.5 -22.5t53.5 -62.5zM151 582q0 -14 11 -23.5t28 -9.5
q15 0 25.5 8.5t10.5 21.5q0 15 -11 24t-28 9q-16 0 -26 -8t-10 -22z" />
    <glyph glyph-name="uni2077" unicode="&#x2077;" horiz-adv-x="342" 
d="M203 458l110 264v117h-284v-104h172l-123 -277h125z" />
    <glyph glyph-name="uni2078" unicode="&#x2078;" horiz-adv-x="365" 
d="M146 577q0 -12 10.5 -20t26.5 -8t26.5 8t10.5 20t-10.5 20t-26.5 8t-26.5 -8t-10.5 -20zM43 738q0 47 40.5 79t99.5 32t99.5 -32t40.5 -79q0 -28 -15.5 -50.5t-43.5 -34.5q34 -12 53.5 -36t19.5 -54q0 -49 -44.5 -82t-109.5 -33t-109.5 33t-44.5 82q0 30 19.5 54t53.5 36
q-28 12 -43.5 34.5t-15.5 50.5zM183 697q10 0 17 8t7 19t-7 18t-17 7t-17 -7t-7 -18t7 -19t17 -8z" />
    <glyph glyph-name="uni2079" unicode="&#x2079;" horiz-adv-x="370" 
d="M104 574q20 -26 57 -26q30 0 49.5 24.5t22.5 66.5q-11 -21 -34.5 -33.5t-50.5 -12.5q-46 0 -78.5 35.5t-32.5 86.5q0 58 42 96t107 38q74 0 116 -54q40 -52 40 -137q0 -93 -48.5 -151.5t-125.5 -58.5q-49 0 -85.5 22.5t-53.5 63.5zM220 715q0 14 -11 24t-28 10
q-15 0 -25.5 -9t-10.5 -22q0 -15 11 -24t28 -9q16 0 26 8.5t10 21.5z" />
    <glyph glyph-name="uni2080" unicode="&#x2080;" horiz-adv-x="368" 
d="M146 -3q0 -18 11.5 -30t28.5 -12q15 0 26 12t11 30v81q0 19 -11 31t-26 12q-17 0 -28.5 -12t-11.5 -31v-81zM29 -11v97q0 66 45.5 109t111.5 43q64 0 108.5 -43t44.5 -109v-97q0 -66 -44.5 -108.5t-108.5 -42.5q-66 0 -111.5 42.5t-45.5 108.5z" />
    <glyph glyph-name="uni2081" unicode="&#x2081;" horiz-adv-x="289" 
d="M261 229v-382h-117v249l-52 -42l-63 84l112 91h120z" />
    <glyph glyph-name="uni2082" unicode="&#x2082;" horiz-adv-x="357" 
d="M327 97q0 60 -42.5 98.5t-104.5 38.5q-59 0 -97 -32t-54 -82l108 -38q10 35 37 35q12 0 20 -9t8 -22q0 -12 -13 -24t-26.5 -19t-37.5 -18l-94 -46v-132h298v112h-149l35 18q22 9 38 19t35 25t29 34.5t10 41.5z" />
    <glyph glyph-name="uni2083" unicode="&#x2083;" horiz-adv-x="373" 
d="M238 59l99 47v124h-292v-104h181l-73 -41l23 -74q44 0 44 -28q0 -11 -9 -18.5t-23 -7.5q-30 0 -36 32l-123 -20q16 -60 60.5 -94.5t106.5 -34.5q65 0 107 33.5t42 84.5q0 44 -30 72t-77 29z" />
    <glyph glyph-name="uni2084" unicode="&#x2084;" horiz-adv-x="388" 
d="M142 15h55v77zM314 229v-214h45v-96h-45v-72h-117v72h-168v109l155 201h130z" />
    <glyph glyph-name="uni2085" unicode="&#x2085;" horiz-adv-x="368" 
d="M146 79v46h179v105h-296v-191l117 -35q18 19 39 19q17 0 27.5 -11.5t10.5 -29.5q0 -16 -11 -25.5t-28 -9.5q-33 0 -41 31l-114 -28q16 -51 58.5 -81t99.5 -30q67 0 109.5 40.5t42.5 102.5q0 53 -31 89.5t-77 36.5q-49 0 -85 -29z" />
    <glyph glyph-name="uni2086" unicode="&#x2086;" horiz-adv-x="370" 
d="M267 113q-20 26 -57 26q-30 0 -49.5 -25t-22.5 -67q11 21 34.5 34t50.5 13q46 0 78.5 -36t32.5 -87q0 -57 -42 -95t-106 -38q-75 0 -117 54q-40 52 -40 136q0 94 48.5 152t126.5 58q48 0 84.5 -22.5t53.5 -62.5zM151 -28q0 -14 11 -24t28 -10q15 0 25.5 8.5t10.5 22.5
t-11 23.5t-28 9.5q-16 0 -26 -8.5t-10 -21.5z" />
    <glyph glyph-name="uni2087" unicode="&#x2087;" horiz-adv-x="342" 
d="M203 -153l110 264v118h-284v-105h172l-123 -277h125z" />
    <glyph glyph-name="uni2088" unicode="&#x2088;" horiz-adv-x="365" 
d="M146 -34q0 -12 10.5 -20t26.5 -8t26.5 8t10.5 20t-10.5 20.5t-26.5 8.5t-26.5 -8.5t-10.5 -20.5zM43 128q0 46 40.5 78t99.5 32t99.5 -32t40.5 -78q0 -28 -15.5 -50.5t-43.5 -35.5q34 -12 53.5 -35.5t19.5 -54.5q0 -48 -44.5 -81t-109.5 -33t-109.5 33t-44.5 81
q0 31 19.5 54.5t53.5 35.5q-28 13 -43.5 35.5t-15.5 50.5zM183 87q10 0 17 7.5t7 18.5t-7 18t-17 7t-17 -7t-7 -18t7 -18.5t17 -7.5z" />
    <glyph glyph-name="uni2089" unicode="&#x2089;" horiz-adv-x="370" 
d="M104 -37q20 -26 57 -26q30 0 49.5 24.5t22.5 67.5q-11 -21 -34.5 -34t-50.5 -13q-46 0 -78.5 36t-32.5 87q0 57 42 95t107 38q74 0 116 -54q40 -52 40 -136q0 -94 -48.5 -152t-125.5 -58q-49 0 -85.5 22.5t-53.5 62.5zM220 104q0 14 -11 24t-28 10q-15 0 -25.5 -8.5
t-10.5 -22.5t11 -23.5t28 -9.5q16 0 26 8.5t10 21.5z" />
    <glyph glyph-name="dong" unicode="&#x20ab;" horiz-adv-x="668" 
d="M646 -57v-113h-620v113h620zM486 251q0 -116 -64 -192.5t-160 -76.5q-97 0 -163.5 77t-66.5 192t66.5 192t163.5 77q96 0 160 -76.5t64 -192.5zM436 251q0 55 -36.5 91t-90.5 36t-90.5 -36t-36.5 -91t36.5 -91t90.5 -36t90.5 36t36.5 91zM586 0h-150v566h-192v130h192v54
h150v-54h82v-130h-82v-566z" />
    <glyph glyph-name="Euro" unicode="&#x20ac;" horiz-adv-x="854" 
d="M539 321v-81h-505v81h505zM539 474v-89h-505v89h505zM112 351q0 103 47.5 188t131 133t184.5 48q104 0 189 -48t129 -132l-126 -78q-26 50 -77.5 79t-115.5 29q-90 0 -151 -63t-61 -156t61 -156t150 -63q66 0 119 31.5t79 85.5l127 -77q-42 -88 -129 -139t-194 -51
q-101 0 -184.5 48t-131 133t-47.5 188z" />
    <glyph glyph-name="uni20B4" unicode="&#x20b4;" horiz-adv-x="590" 
d="M570 326v-80h-350q-19 -16 -19 -44q0 -32 23.5 -51t61.5 -19q42 0 76 24t51 66l146 -69q-33 -75 -108.5 -119.5t-168.5 -44.5q-104 0 -171.5 56t-67.5 143q0 33 13 58h-30v80h544zM531 462h39v-80h-544v80h340q18 14 18 40q0 31 -22 49.5t-57 18.5q-39 0 -72 -22.5
t-49 -60.5l-146 53q33 79 107 126t165 47q101 0 166 -56.5t65 -143.5q0 -29 -10 -51z" />
    <glyph glyph-name="uni20B8" unicode="&#x20b8;" horiz-adv-x="611" 
d="M24 560v140h564v-140h-564zM588 495v-148h-207v-347h-150v347h-207v148h564z" />
    <glyph glyph-name="uni20BD" unicode="&#x20bd;" horiz-adv-x="643" 
d="M389 282h-134v-52h155v-114h-155v-116h-150v116h-79v114h79v53h-79v130h79v287h294q92 0 153 -61.5t61 -153.5q0 -85 -65 -144t-159 -59zM389 552h-134v-139h134q31 0 52.5 20.5t21.5 51.5q0 29 -21 48t-53 19z" />
    <glyph glyph-name="uni2103" unicode="&#x2103;" horiz-adv-x="1244" 
d="M499 351q0 103 48 188t131.5 133t184.5 48q114 0 206 -61.5t139 -168.5l-151 -53q-26 62 -78 97.5t-117 35.5q-90 0 -151.5 -63t-61.5 -156t61.5 -156t151.5 -63q67 0 120 38t79 104l152 -52q-45 -111 -139.5 -175.5t-210.5 -64.5q-101 0 -184.5 48t-131.5 133t-48 188z
M159 502.5q0 -32.5 21.5 -53t52.5 -20.5t52.5 20.5t21.5 53t-21.5 53t-52.5 20.5t-52.5 -20.5t-21.5 -53zM26 502.5q0 89.5 60 148.5t147 59t147.5 -59t60.5 -148.5t-60.5 -148.5t-147.5 -59t-147 59t-60 148.5z" />
    <glyph glyph-name="uni2109" unicode="&#x2109;" horiz-adv-x="1051" 
d="M669 425h326v-148h-326v-277h-150v700h500v-148h-350v-127zM159 502.5q0 -32.5 21.5 -53t52.5 -20.5t52.5 20.5t21.5 53t-21.5 53t-52.5 20.5t-52.5 -20.5t-21.5 -53zM26 502.5q0 89.5 60 148.5t147 59t147.5 -59t60.5 -148.5t-60.5 -148.5t-147.5 -59t-147 59t-60 148.5
z" />
    <glyph glyph-name="trademark" unicode="&#x2122;" horiz-adv-x="552" 
d="M225 700v-60h-68v-201h-64v201h-66v60h198zM257 439v261h75l58 -128l59 128h76v-261h-63v148l-49 -105h-43l-49 105v-148h-64z" />
    <glyph glyph-name="estimated" unicode="&#x212e;" horiz-adv-x="598" 
d="M193 522v-139h213v141q-43 29 -107 29t-106 -31zM193 183q44 -34 111 -34q60 0 109.5 29.5t74.5 81.5l62 -30q-33 -68 -99 -108t-147 -40q-114 0 -193 76t-79 193t77.5 193t189.5 76t189.5 -73.5t77.5 -185.5q0 -14 -2 -41h-371v-137z" />
    <glyph glyph-name="arrowleft" unicode="&#x2190;" horiz-adv-x="801" 
d="M331 675l93 -91l-150 -150h494v-131h-493l149 -149l-93 -91l-298 306z" />
    <glyph glyph-name="arrowup" unicode="&#x2191;" horiz-adv-x="678" 
d="M645 438l-91 -92l-150 150v-494h-131v493l-148 -149l-92 92l306 298z" />
    <glyph glyph-name="arrowright" unicode="&#x2192;" horiz-adv-x="801" 
d="M470 60l-92 92l150 149h-495v131h494l-149 149l92 91l298 -306z" />
    <glyph glyph-name="arrowdown" unicode="&#x2193;" horiz-adv-x="678" 
d="M33 297l92 92l150 -150v494h130v-493l149 149l91 -92l-306 -298z" />
    <glyph glyph-name="arrowboth" unicode="&#x2194;" horiz-adv-x="972" 
d="M642 60l-93 92l149 149h-423l149 -149l-93 -92l-298 307l298 306l93 -92l-150 -149h424l-149 149l93 91l298 -306z" />
    <glyph glyph-name="arrowupdn" unicode="&#x2195;" horiz-adv-x="679" 
d="M33 211l92 92l149 -149v424l-149 -149l-91 93l306 298l306 -298l-92 -93l-149 149v-423l149 148l92 -92l-307 -298z" />
    <glyph glyph-name="uni2196" unicode="&#x2196;" horiz-adv-x="637" 
d="M466 635l1 -130h-212l349 -350l-92 -92l-349 349v-211l-130 1l6 427z" />
    <glyph glyph-name="uni2197" unicode="&#x2197;" horiz-adv-x="637" 
d="M605 202l-130 -1v212l-350 -349l-92 92l349 348h-211l1 131l427 -6z" />
    <glyph glyph-name="uni2198" unicode="&#x2198;" horiz-adv-x="637" 
d="M171 101v130h212l-350 349l93 92l348 -348v210h130l-6 -427z" />
    <glyph glyph-name="uni2199" unicode="&#x2199;" horiz-adv-x="637" 
d="M33 534h130v-212l350 350l92 -93l-349 -348h211l-1 -130l-427 6z" />
    <glyph glyph-name="approxequal" unicode="&#x2248;" horiz-adv-x="480" 
d="M163 266q-55 0 -87.5 -37.5t-40.5 -105.5l94 -18q10 62 43 62q17 0 44 -22q58 -46 103 -46q55 0 86.5 38t40.5 105l-94 18q-11 -58 -47 -58q-22 0 -46 20q-28 25 -49.5 34.5t-46.5 9.5zM163 460q-55 0 -87.5 -37.5t-40.5 -106.5l94 -18q10 62 43 62q17 0 44 -22
q58 -46 103 -46q55 0 86.5 38t40.5 106l-94 18q-11 -59 -47 -59q-22 0 -46 21q-28 24 -49.5 34t-46.5 10z" />
    <glyph glyph-name="notequal" unicode="&#x2260;" horiz-adv-x="435" 
d="M196 2h-149l188 546h149zM410 235v-131h-384v131h384zM410 446v-130h-384v130h384z" />
    <glyph glyph-name="lessequal" unicode="&#x2264;" horiz-adv-x="508" 
d="M477 18v-113h-451v113h451zM477 201v-156l-445 148v198l445 147v-156l-317 -88z" />
    <glyph glyph-name="greaterequal" unicode="&#x2265;" horiz-adv-x="508" 
d="M477 18v-113h-451v113h451zM32 382v156l445 -147v-198l-445 -148v156l316 88z" />
    <glyph glyph-name="filledbox" unicode="&#x25a0;" horiz-adv-x="820" 
d="M60 700h700v-700h-700v700z" />
    <glyph glyph-name="H22073" unicode="&#x25a1;" horiz-adv-x="820" 
d="M210 550v-400h400v400h-400zM60 700h700v-700h-700v700z" />
    <glyph glyph-name="H18543" unicode="&#x25aa;" horiz-adv-x="520" 
d="M60 570h400v-400h-400v400z" />
    <glyph glyph-name="H18551" unicode="&#x25ab;" horiz-adv-x="520" 
d="M194 436v-132h132v132h-132zM52 578h416v-416h-416v416z" />
    <glyph glyph-name="triagup" unicode="&#x25b2;" horiz-adv-x="820" 
d="M410 700l350 -700h-700z" />
    <glyph glyph-name="uni25B3" unicode="&#x25b3;" horiz-adv-x="820" 
d="M410 700l350 -700h-700zM410 449l-163 -332h326z" />
    <glyph glyph-name="uni25B6" unicode="&#x25b6;" horiz-adv-x="820" 
d="M760 350l-700 -350v700z" />
    <glyph glyph-name="uni25B7" unicode="&#x25b7;" horiz-adv-x="820" 
d="M760 350l-700 -350v700zM509 350l-332 163v-326z" />
    <glyph glyph-name="triagdn" unicode="&#x25bc;" horiz-adv-x="820" 
d="M410 0l-350 700h700z" />
    <glyph glyph-name="uni25BD" unicode="&#x25bd;" horiz-adv-x="820" 
d="M410 0l-350 700h700zM410 251l163 332h-326z" />
    <glyph glyph-name="uni25C0" unicode="&#x25c0;" horiz-adv-x="820" 
d="M60 350l700 350v-700z" />
    <glyph glyph-name="uni25C1" unicode="&#x25c1;" horiz-adv-x="820" 
d="M60 350l700 350v-700zM311 350l332 -163v326z" />
    <glyph glyph-name="uni25C6" unicode="&#x25c6;" horiz-adv-x="820" 
d="M53 350l357 357l357 -357l-357 -357z" />
    <glyph glyph-name="uni25C7" unicode="&#x25c7;" horiz-adv-x="820" 
d="M233 350l177 -177l177 177l-177 177zM53 350l357 357l357 -357l-357 -357z" />
    <glyph glyph-name="lozenge" unicode="&#x25ca;" horiz-adv-x="620" 
d="M206 350l104 -178l104 178l-104 178zM53 350l215 357h84l215 -357l-215 -357h-84z" />
    <glyph glyph-name="circle" unicode="&#x25cb;" horiz-adv-x="820" 
d="M223 350q0 -77 55 -132t132 -55t132 55t55 132t-55 132t-132 55t-132 -55t-55 -132zM53 350q0 148 104.5 252.5t252.5 104.5t252.5 -104.5t104.5 -252.5t-104.5 -252.5t-252.5 -104.5t-252.5 104.5t-104.5 252.5z" />
    <glyph glyph-name="H18533" unicode="&#x25cf;" horiz-adv-x="820" 
d="M53 350q0 148 104.5 252.5t252.5 104.5t252.5 -104.5t104.5 -252.5t-104.5 -252.5t-252.5 -104.5t-252.5 104.5t-104.5 252.5z" />
    <glyph glyph-name="zero.dnom" horiz-adv-x="368" 
d="M146 147q0 -18 11.5 -30t28.5 -12q15 0 26 12t11 30v81q0 19 -11 31t-26 12q-17 0 -28.5 -12t-11.5 -31v-81zM29 139v97q0 66 45.5 109t111.5 43q64 0 108.5 -43t44.5 -109v-97q0 -66 -44.5 -108.5t-108.5 -42.5q-66 0 -111.5 42.5t-45.5 108.5z" />
    <glyph glyph-name="one.dnom" horiz-adv-x="289" 
d="M261 379v-382h-117v249l-52 -42l-63 84l112 91h120z" />
    <glyph glyph-name="two.dnom" horiz-adv-x="357" 
d="M327 247q0 60 -42.5 98.5t-104.5 38.5q-59 0 -97 -32t-54 -82l108 -38q10 35 37 35q12 0 20 -9t8 -22q0 -12 -13 -24t-26.5 -19t-37.5 -18l-94 -46v-132h298v112h-149l35 18q22 9 38 19t35 25t29 34.5t10 41.5z" />
    <glyph glyph-name="three.dnom" horiz-adv-x="373" 
d="M238 209l99 47v124h-292v-104h181l-73 -41l23 -74q44 0 44 -28q0 -11 -9 -18.5t-23 -7.5q-30 0 -36 32l-123 -20q16 -60 60.5 -94.5t106.5 -34.5q65 0 107 33.5t42 84.5q0 44 -30 72t-77 29z" />
    <glyph glyph-name="four.dnom" horiz-adv-x="388" 
d="M142 165h55v77zM314 379v-214h45v-96h-45v-72h-117v72h-168v109l155 201h130z" />
    <glyph glyph-name="five.dnom" horiz-adv-x="368" 
d="M146 229v46h179v105h-296v-191l117 -35q18 19 39 19q17 0 27.5 -11.5t10.5 -29.5q0 -16 -11 -25.5t-28 -9.5q-33 0 -41 31l-114 -28q16 -51 58.5 -81t99.5 -30q67 0 109.5 40.5t42.5 102.5q0 53 -31 89.5t-77 36.5q-49 0 -85 -29z" />
    <glyph glyph-name="six.dnom" horiz-adv-x="370" 
d="M267 263q-20 26 -57 26q-30 0 -49.5 -25t-22.5 -67q11 21 34.5 34t50.5 13q46 0 78.5 -36t32.5 -87q0 -57 -42 -95t-106 -38q-75 0 -117 54q-40 52 -40 136q0 94 48.5 152t126.5 58q48 0 84.5 -22.5t53.5 -62.5zM151 122q0 -14 11 -24t28 -10q15 0 25.5 8.5t10.5 22.5
t-11 23.5t-28 9.5q-16 0 -26 -8.5t-10 -21.5z" />
    <glyph glyph-name="seven.dnom" horiz-adv-x="342" 
d="M203 -3l110 264v118h-284v-105h172l-123 -277h125z" />
    <glyph glyph-name="eight.dnom" horiz-adv-x="365" 
d="M146 116q0 -12 10.5 -20t26.5 -8t26.5 8t10.5 20t-10.5 20.5t-26.5 8.5t-26.5 -8.5t-10.5 -20.5zM43 278q0 46 40.5 78t99.5 32t99.5 -32t40.5 -78q0 -28 -15.5 -50.5t-43.5 -35.5q34 -12 53.5 -35.5t19.5 -54.5q0 -48 -44.5 -81t-109.5 -33t-109.5 33t-44.5 81
q0 31 19.5 54.5t53.5 35.5q-28 13 -43.5 35.5t-15.5 50.5zM183 237q10 0 17 7.5t7 18.5t-7 18t-17 7t-17 -7t-7 -18t7 -18.5t17 -7.5z" />
    <glyph glyph-name="nine.dnom" horiz-adv-x="370" 
d="M104 113q20 -26 57 -26q30 0 49.5 24.5t22.5 67.5q-11 -21 -34.5 -34t-50.5 -13q-46 0 -78.5 36t-32.5 87q0 57 42 95t107 38q74 0 116 -54q40 -52 40 -136q0 -94 -48.5 -152t-125.5 -58q-49 0 -85.5 22.5t-53.5 62.5zM220 254q0 14 -11 24t-28 10q-15 0 -25.5 -8.5
t-10.5 -22.5t11 -23.5t28 -9.5q16 0 26 8.5t10 21.5z" />
    <glyph glyph-name="zero.numr" horiz-adv-x="368" 
d="M146 458q0 -19 11.5 -31t28.5 -12q15 0 26 12t11 31v80q0 19 -11 31.5t-26 12.5q-17 0 -28.5 -12.5t-11.5 -31.5v-80zM29 449v98q0 66 45.5 109t111.5 43q64 0 108.5 -43t44.5 -109v-98q0 -65 -44.5 -108t-108.5 -43q-66 0 -111.5 43t-45.5 108z" />
    <glyph glyph-name="one.numr" horiz-adv-x="289" 
d="M261 689v-381h-117v248l-52 -41l-63 84l112 90h120z" />
    <glyph glyph-name="two.numr" horiz-adv-x="357" 
d="M327 558q0 59 -42.5 97.5t-104.5 38.5q-59 0 -97 -31.5t-54 -81.5l108 -38q10 34 37 34q12 0 20 -8.5t8 -22.5q0 -11 -13 -23t-26.5 -19.5t-37.5 -18.5l-94 -45v-133h298v113h-149l35 17q22 10 38 19.5t35 24.5t29 34.5t10 42.5z" />
    <glyph glyph-name="three.numr" horiz-adv-x="373" 
d="M238 519l99 47v124h-292v-104h181l-73 -41l23 -74q44 0 44 -27q0 -12 -9 -19t-23 -7q-30 0 -36 31l-123 -20q16 -59 60.5 -93.5t106.5 -34.5q65 0 107 33t42 84q0 44 -30 72t-77 29z" />
    <glyph glyph-name="four.numr" horiz-adv-x="388" 
d="M142 476h55v77zM314 689v-213h45v-97h-45v-71h-117v71h-168v110l155 200h130z" />
    <glyph glyph-name="five.numr" horiz-adv-x="368" 
d="M146 540v46h179v104h-296v-190l117 -35q18 18 39 18q17 0 27.5 -11.5t10.5 -29.5q0 -15 -11 -24.5t-28 -9.5q-33 0 -41 31l-114 -29q16 -51 58.5 -80.5t99.5 -29.5q67 0 109.5 40t42.5 102q0 53 -31 89.5t-77 36.5q-49 0 -85 -28z" />
    <glyph glyph-name="six.numr" horiz-adv-x="370" 
d="M267 573q-20 26 -57 26q-30 0 -49.5 -24.5t-22.5 -66.5q11 21 34.5 33.5t50.5 12.5q46 0 78.5 -35.5t32.5 -86.5q0 -58 -42 -96t-106 -38q-75 0 -117 55q-40 51 -40 136q0 93 48.5 151.5t126.5 58.5q48 0 84.5 -22.5t53.5 -62.5zM151 432q0 -14 11 -23.5t28 -9.5
q15 0 25.5 8.5t10.5 21.5q0 15 -11 24t-28 9q-16 0 -26 -8t-10 -22z" />
    <glyph glyph-name="seven.numr" horiz-adv-x="342" 
d="M203 308l110 264v117h-284v-104h172l-123 -277h125z" />
    <glyph glyph-name="eight.numr" horiz-adv-x="365" 
d="M146 427q0 -12 10.5 -20t26.5 -8t26.5 8t10.5 20t-10.5 20t-26.5 8t-26.5 -8t-10.5 -20zM43 588q0 47 40.5 79t99.5 32t99.5 -32t40.5 -79q0 -28 -15.5 -50.5t-43.5 -34.5q34 -12 53.5 -36t19.5 -54q0 -49 -44.5 -82t-109.5 -33t-109.5 33t-44.5 82q0 30 19.5 54t53.5 36
q-28 12 -43.5 34.5t-15.5 50.5zM183 547q10 0 17 8t7 19t-7 18t-17 7t-17 -7t-7 -18t7 -19t17 -8z" />
    <glyph glyph-name="nine.numr" horiz-adv-x="370" 
d="M104 424q20 -26 57 -26q30 0 49.5 24.5t22.5 66.5q-11 -21 -34.5 -33.5t-50.5 -12.5q-46 0 -78.5 35.5t-32.5 86.5q0 58 42 96t107 38q74 0 116 -54q40 -52 40 -137q0 -93 -48.5 -151.5t-125.5 -58.5q-49 0 -85.5 22.5t-53.5 63.5zM220 565q0 14 -11 24t-28 10
q-15 0 -25.5 -9t-10.5 -22q0 -15 11 -24t28 -9q16 0 26 8.5t10 21.5z" />
    <glyph glyph-name="zero.tabl" horiz-adv-x="610" 
d="M182 303q0 -75 35.5 -123t86.5 -48t86.5 48t35.5 123v93q0 75 -35.5 123t-86.5 48t-86.5 -48t-35.5 -123v-93zM32 303v93q0 139 79 230t193 91t193.5 -91t79.5 -230v-93q0 -139 -79.5 -230t-193.5 -91t-193 91t-79 230z" />
    <glyph glyph-name="one.tabl" horiz-adv-x="610" 
d="M566 147v-147h-522v147h199v383l-132 -99l-83 121l206 148h159v-553h173z" />
    <glyph glyph-name="two.tabl" horiz-adv-x="610" 
d="M578 452q0 112 -78.5 185.5t-190.5 73.5q-107 0 -176.5 -61t-99.5 -157l149 -42q32 110 127 110q49 0 83.5 -31t34.5 -78q0 -18 -9 -34.5t-31 -33.5t-38.5 -27t-48.5 -29q-12 -7 -18 -11l-240 -146v-171h536v147h-331l163 93q40 22 75.5 52t64 73.5t28.5 86.5z" />
    <glyph glyph-name="three.tabl" horiz-adv-x="610" 
d="M392 422l186 107v171h-536v-147h358l-175 -115l26 -104q82 0 129 -29.5t47 -79.5q0 -39 -33.5 -62.5t-89.5 -23.5q-50 0 -85 24t-46 66l-140 -49q27 -88 100 -139.5t174 -51.5q121 0 196 64t75 166q0 80 -51 135.5t-135 67.5z" />
    <glyph glyph-name="four.tabl" horiz-adv-x="610" 
d="M187 320h146v187zM483 700v-380h84v-147h-84v-173h-150v173h-305v165l287 362h168z" />
    <glyph glyph-name="five.tabl" horiz-adv-x="610" 
d="M195 427v126h353v147h-503v-370l150 -37q51 49 117 49q45 0 75 -29t30 -72q0 -46 -31.5 -74t-82.5 -28q-47 0 -78.5 21.5t-41.5 59.5l-148 -48q26 -85 98 -134t170 -49q116 0 190.5 70t74.5 181q0 101 -61.5 171.5t-149.5 70.5q-41 0 -84.5 -15t-77.5 -40z" />
    <glyph glyph-name="six.tabl" horiz-adv-x="610" 
d="M483 503q-47 64 -144 64q-66 0 -108.5 -50.5t-48.5 -134.5q23 46 68.5 72t100.5 26q95 0 161 -71.5t66 -174.5q0 -108 -75 -180t-189 -72q-79 0 -142.5 35t-97.5 96q-42 78 -42 201q0 181 87 292t229 111q70 0 128.5 -28t91.5 -77zM192 236q0 -42 36.5 -73t87.5 -31
q48 0 80 28.5t32 70.5q0 44 -33 71.5t-84 27.5t-85 -26.5t-34 -67.5z" />
    <glyph glyph-name="seven.tabl" horiz-adv-x="610" 
d="M324 0l257 543v157h-553v-147h397l-265 -553h164z" />
    <glyph glyph-name="eight.tabl" horiz-adv-x="610" 
d="M188 208q0 -33 33.5 -54.5t83.5 -21.5t83.5 21.5t33.5 54.5q0 34 -34 57t-83 23t-83 -23t-34 -57zM58 522q0 84 70.5 140t176.5 56t176.5 -56t70.5 -140q0 -51 -27.5 -94t-76.5 -67q57 -25 90.5 -72t33.5 -104q0 -87 -76.5 -145t-190.5 -58t-190.5 58t-76.5 145
q0 57 33.5 104t90.5 72q-49 24 -76.5 67t-27.5 94zM305 432q41 0 69 19t28 48q0 30 -28 49.5t-69 19.5t-69 -19.5t-28 -49.5q0 -29 28 -48t69 -19z" />
    <glyph glyph-name="nine.tabl" horiz-adv-x="610" 
d="M127 196q47 -64 144 -64q66 0 108.5 50.5t48.5 134.5q-23 -46 -68.5 -72t-100.5 -26q-95 0 -161 71.5t-66 174.5q0 108 75 180t189 72q79 0 142.5 -35t97.5 -96q42 -78 42 -201q0 -181 -87 -292t-229 -111q-70 0 -128.5 28t-91.5 77zM418 463q0 42 -36.5 73t-87.5 31
q-48 0 -80 -28.5t-32 -70.5q0 -44 33 -71.5t84 -27.5t85 26.5t34 67.5z" />
    <glyph glyph-name="zero.slsh" horiz-adv-x="648" 
d="M65 181l444 444l76 -128l-434 -435zM182 323q0 -83 41 -137t101 -54t101 54t41 137v53q0 83 -41 137t-101 54t-101 -54t-41 -137v-53zM32 323v53q0 148 85 244.5t207 96.5t207 -96.5t85 -244.5v-53q0 -148 -85 -244.5t-207 -96.5t-207 96.5t-85 244.5z" />
    <glyph glyph-name="a.ss01" horiz-adv-x="638" 
d="M586 0h-150v500h150v-500zM436 251q0 55 -36.5 91t-90.5 36t-90.5 -36t-36.5 -91t36.5 -91t90.5 -36t90.5 36t36.5 91zM486 251q0 -116 -64 -192.5t-160 -76.5q-97 0 -163.5 77t-66.5 192t66.5 192t163.5 77q96 0 160 -76.5t64 -192.5z" />
    <glyph glyph-name="agrave.ss01" horiz-adv-x="638" 
d="M135 722l101 89l162 -159l-96 -84zM586 0h-150v500h150v-500zM436 251q0 55 -36.5 91t-90.5 36t-90.5 -36t-36.5 -91t36.5 -91t90.5 -36t90.5 36t36.5 91zM486 251q0 -116 -64 -192.5t-160 -76.5q-97 0 -163.5 77t-66.5 192t66.5 192t163.5 77q96 0 160 -76.5t64 -192.5z
" />
    <glyph glyph-name="aacute.ss01" horiz-adv-x="638" 
d="M461 722l-101 97l-154 -167l80 -84zM586 0h-150v500h150v-500zM436 251q0 55 -36.5 91t-90.5 36t-90.5 -36t-36.5 -91t36.5 -91t90.5 -36t90.5 36t36.5 91zM486 251q0 -116 -64 -192.5t-160 -76.5q-97 0 -163.5 77t-66.5 192t66.5 192t163.5 77q96 0 160 -76.5t64 -192.5
z" />
    <glyph glyph-name="acircumflex.ss01" horiz-adv-x="638" 
d="M285 777l-179 -129l57 -88l140 102l140 -102l57 88l-179 129h-36zM586 0h-150v500h150v-500zM436 251q0 55 -36.5 91t-90.5 36t-90.5 -36t-36.5 -91t36.5 -91t90.5 -36t90.5 36t36.5 91zM486 251q0 -116 -64 -192.5t-160 -76.5q-97 0 -163.5 77t-66.5 192t66.5 192
t163.5 77q96 0 160 -76.5t64 -192.5z" />
    <glyph glyph-name="atilde.ss01" horiz-adv-x="638" 
d="M226 735q-56 0 -88 -37.5t-40 -105.5l94 -18q10 62 42 62q18 0 44 -22q58 -46 104 -46q54 0 86 38t40 105l-94 18q-10 -59 -46 -59q-22 0 -46 21q-29 25 -50 34.5t-46 9.5zM586 0h-150v500h150v-500zM436 251q0 55 -36.5 91t-90.5 36t-90.5 -36t-36.5 -91t36.5 -91
t90.5 -36t90.5 36t36.5 91zM486 251q0 -116 -64 -192.5t-160 -76.5q-97 0 -163.5 77t-66.5 192t66.5 192t163.5 77q96 0 160 -76.5t64 -192.5z" />
    <glyph glyph-name="adieresis.ss01" horiz-adv-x="638" 
d="M336 657q0 38 26 63.5t63.5 25.5t63.5 -25.5t26 -63.5t-26 -63.5t-63.5 -25.5t-63.5 25.5t-26 63.5zM89 657q0 38 26 63.5t63.5 25.5t63.5 -25.5t26 -63.5t-26 -63.5t-63.5 -25.5t-63.5 25.5t-26 63.5zM586 0h-150v500h150v-500zM436 251q0 55 -36.5 91t-90.5 36
t-90.5 -36t-36.5 -91t36.5 -91t90.5 -36t90.5 36t36.5 91zM486 251q0 -116 -64 -192.5t-160 -76.5q-97 0 -163.5 77t-66.5 192t66.5 192t163.5 77q96 0 160 -76.5t64 -192.5z" />
    <glyph glyph-name="aring.ss01" horiz-adv-x="638" 
d="M254 712.5q0 -21.5 14 -35.5t35 -14t35 14t14 35.5t-14 35t-35 13.5t-35 -13.5t-14 -35zM159 712.5q0 62.5 42 103.5t102 41t102 -41t42 -103.5t-42 -103.5t-102 -41t-102 41t-42 103.5zM586 0h-150v500h150v-500zM436 251q0 55 -36.5 91t-90.5 36t-90.5 -36t-36.5 -91
t36.5 -91t90.5 -36t90.5 36t36.5 91zM486 251q0 -116 -64 -192.5t-160 -76.5q-97 0 -163.5 77t-66.5 192t66.5 192t163.5 77q96 0 160 -76.5t64 -192.5z" />
    <glyph glyph-name="ae.ss01" horiz-adv-x="1032" 
d="M848 302q-10 32 -40 52t-71 20q-38 0 -66.5 -19.5t-39.5 -52.5h217zM631 185q11 -34 40 -54t68 -20q31 0 57.5 12.5t39.5 33.5l138 -52q-30 -60 -86 -95.5t-121 -35.5q-98 0 -162.5 77t-64.5 193t63.5 192t159.5 76q100 0 169 -79.5t69 -194.5q0 -18 -5 -53h-365zM586 0
h-150v500h150v-500zM436 251q0 54 -36.5 90.5t-90.5 36.5t-90.5 -36.5t-36.5 -90.5t36.5 -90.5t90.5 -36.5t90.5 36.5t36.5 90.5zM486 251q0 -115 -64 -192t-161 -77t-163 77.5t-66 191.5t66 191.5t163 77.5t161 -77t64 -192z" />
    <glyph glyph-name="amacron.ss01" horiz-adv-x="638" 
d="M478 692v-114h-342v114h342zM586 0h-150v500h150v-500zM436 251q0 55 -36.5 91t-90.5 36t-90.5 -36t-36.5 -91t36.5 -91t90.5 -36t90.5 36t36.5 91zM486 251q0 -116 -64 -192.5t-160 -76.5q-97 0 -163.5 77t-66.5 192t66.5 192t163.5 77q96 0 160 -76.5t64 -192.5z" />
    <glyph glyph-name="abreve.ss01" horiz-adv-x="638" 
d="M302 571q-83 0 -141.5 53.5t-58.5 129.5h114q0 -34 24.5 -57t62.5 -23q39 0 66 23.5t27 56.5h114q0 -73 -62 -128t-146 -55zM586 0h-150v500h150v-500zM436 251q0 55 -36.5 91t-90.5 36t-90.5 -36t-36.5 -91t36.5 -91t90.5 -36t90.5 36t36.5 91zM486 251
q0 -116 -64 -192.5t-160 -76.5q-97 0 -163.5 77t-66.5 192t66.5 192t163.5 77q96 0 160 -76.5t64 -192.5z" />
    <glyph glyph-name="aogonek.ss01" horiz-adv-x="638" 
d="M451 -27v34h105v-59l-67 -46q-41 -27 -41 -60q0 -17 10 -27.5t25 -10.5q32 0 40 32l102 -19q-14 -55 -51.5 -86t-88.5 -31q-64 0 -104 35t-40 90q0 37 18 64.5t66 65.5zM586 0h-150v500h150v-500zM436 251q0 55 -36.5 91t-90.5 36t-90.5 -36t-36.5 -91t36.5 -91t90.5 -36
t90.5 36t36.5 91zM486 251q0 -116 -64 -192.5t-160 -76.5q-97 0 -163.5 77t-66.5 192t66.5 192t163.5 77q96 0 160 -76.5t64 -192.5z" />
    <glyph glyph-name="uni1EA1.ss01" horiz-adv-x="638" 
d="M225 -155q0 38 25.5 63.5t63.5 25.5t63.5 -25.5t25.5 -63.5t-25.5 -63.5t-63.5 -25.5t-63.5 25.5t-25.5 63.5zM586 0h-150v500h150v-500zM436 251q0 55 -36.5 91t-90.5 36t-90.5 -36t-36.5 -91t36.5 -91t90.5 -36t90.5 36t36.5 91zM486 251q0 -116 -64 -192.5t-160 -76.5
q-97 0 -163.5 77t-66.5 192t66.5 192t163.5 77q96 0 160 -76.5t64 -192.5z" />
    <glyph glyph-name="uni1EA3.ss01" horiz-adv-x="638" 
d="M311 550l-59 81l57 36q33 20 33 50q0 20 -13 32.5t-33 12.5q-37 0 -45 -36l-93 23q14 51 51.5 80.5t88.5 29.5q63 0 103 -39.5t40 -102.5q0 -42 -21 -72.5t-67 -65.5zM586 0h-150v500h150v-500zM436 251q0 55 -36.5 91t-90.5 36t-90.5 -36t-36.5 -91t36.5 -91t90.5 -36
t90.5 36t36.5 91zM486 251q0 -116 -64 -192.5t-160 -76.5q-97 0 -163.5 77t-66.5 192t66.5 192t163.5 77q96 0 160 -76.5t64 -192.5z" />
    <glyph glyph-name="uni1EA5.ss01" horiz-adv-x="638" 
d="M680 888l-101 97l-154 -167l80 -84zM285 777l-179 -129l57 -88l140 102l140 -102l57 88l-179 129h-36zM586 0h-150v500h150v-500zM436 251q0 55 -36.5 91t-90.5 36t-90.5 -36t-36.5 -91t36.5 -91t90.5 -36t90.5 36t36.5 91zM486 251q0 -116 -64 -192.5t-160 -76.5
q-97 0 -163.5 77t-66.5 192t66.5 192t163.5 77q96 0 160 -76.5t64 -192.5z" />
    <glyph glyph-name="uni1EA7.ss01" horiz-adv-x="638" 
d="M354 888l101 89l162 -159l-96 -84zM285 777l-179 -129l57 -88l140 102l140 -102l57 88l-179 129h-36zM586 0h-150v500h150v-500zM436 251q0 55 -36.5 91t-90.5 36t-90.5 -36t-36.5 -91t36.5 -91t90.5 -36t90.5 36t36.5 91zM486 251q0 -116 -64 -192.5t-160 -76.5
q-97 0 -163.5 77t-66.5 192t66.5 192t163.5 77q96 0 160 -76.5t64 -192.5z" />
    <glyph glyph-name="uni1EA9.ss01" horiz-adv-x="638" 
d="M530 716l-59 81l57 36q33 20 33 50q0 20 -13 32.5t-33 12.5q-37 0 -45 -36l-93 23q14 51 51.5 80.5t88.5 29.5q63 0 103 -39.5t40 -102.5q0 -42 -21 -72.5t-67 -65.5zM285 777l-179 -129l57 -88l140 102l140 -102l57 88l-179 129h-36zM586 0h-150v500h150v-500zM436 251
q0 55 -36.5 91t-90.5 36t-90.5 -36t-36.5 -91t36.5 -91t90.5 -36t90.5 36t36.5 91zM486 251q0 -116 -64 -192.5t-160 -76.5q-97 0 -163.5 77t-66.5 192t66.5 192t163.5 77q96 0 160 -76.5t64 -192.5z" />
    <glyph glyph-name="uni1EAB.ss01" horiz-adv-x="638" 
d="M226 1007q-56 0 -88 -37.5t-40 -105.5l94 -18q10 62 42 62q18 0 44 -22q58 -46 104 -46q54 0 86 38t40 105l-94 18q-10 -59 -46 -59q-22 0 -46 21q-29 25 -50 34.5t-46 9.5zM285 777l-179 -129l57 -88l140 102l140 -102l57 88l-179 129h-36zM586 0h-150v500h150v-500z
M436 251q0 55 -36.5 91t-90.5 36t-90.5 -36t-36.5 -91t36.5 -91t90.5 -36t90.5 36t36.5 91zM486 251q0 -116 -64 -192.5t-160 -76.5q-97 0 -163.5 77t-66.5 192t66.5 192t163.5 77q96 0 160 -76.5t64 -192.5z" />
    <glyph glyph-name="uni1EAD.ss01" horiz-adv-x="638" 
d="M285 777l-179 -129l57 -88l140 102l140 -102l57 88l-179 129h-36zM225 -155q0 38 25.5 63.5t63.5 25.5t63.5 -25.5t25.5 -63.5t-25.5 -63.5t-63.5 -25.5t-63.5 25.5t-25.5 63.5zM586 0h-150v500h150v-500zM436 251q0 55 -36.5 91t-90.5 36t-90.5 -36t-36.5 -91t36.5 -91
t90.5 -36t90.5 36t36.5 91zM486 251q0 -116 -64 -192.5t-160 -76.5q-97 0 -163.5 77t-66.5 192t66.5 192t163.5 77q96 0 160 -76.5t64 -192.5z" />
    <glyph glyph-name="uni1EAF.ss01" horiz-adv-x="638" 
d="M468 934l-101 97l-154 -167l80 -84zM302 571q-83 0 -141.5 53.5t-58.5 129.5h114q0 -34 24.5 -57t62.5 -23q39 0 66 23.5t27 56.5h114q0 -73 -62 -128t-146 -55zM586 0h-150v500h150v-500zM436 251q0 55 -36.5 91t-90.5 36t-90.5 -36t-36.5 -91t36.5 -91t90.5 -36
t90.5 36t36.5 91zM486 251q0 -116 -64 -192.5t-160 -76.5q-97 0 -163.5 77t-66.5 192t66.5 192t163.5 77q96 0 160 -76.5t64 -192.5z" />
    <glyph glyph-name="uni1EB1.ss01" horiz-adv-x="638" 
d="M129 934l101 89l162 -159l-96 -84zM302 571q-83 0 -141.5 53.5t-58.5 129.5h114q0 -34 24.5 -57t62.5 -23q39 0 66 23.5t27 56.5h114q0 -73 -62 -128t-146 -55zM586 0h-150v500h150v-500zM436 251q0 55 -36.5 91t-90.5 36t-90.5 -36t-36.5 -91t36.5 -91t90.5 -36t90.5 36
t36.5 91zM486 251q0 -116 -64 -192.5t-160 -76.5q-97 0 -163.5 77t-66.5 192t66.5 192t163.5 77q96 0 160 -76.5t64 -192.5z" />
    <glyph glyph-name="uni1EB3.ss01" horiz-adv-x="638" 
d="M311 763l-59 81l57 36q33 20 33 50q0 20 -13 32.5t-33 12.5q-37 0 -45 -36l-93 23q14 51 51.5 80.5t88.5 29.5q63 0 103 -39.5t40 -102.5q0 -42 -21 -72.5t-67 -65.5zM302 571q-83 0 -141.5 53.5t-58.5 129.5h114q0 -34 24.5 -57t62.5 -23q39 0 66 23.5t27 56.5h114
q0 -73 -62 -128t-146 -55zM586 0h-150v500h150v-500zM436 251q0 55 -36.5 91t-90.5 36t-90.5 -36t-36.5 -91t36.5 -91t90.5 -36t90.5 36t36.5 91zM486 251q0 -116 -64 -192.5t-160 -76.5q-97 0 -163.5 77t-66.5 192t66.5 192t163.5 77q96 0 160 -76.5t64 -192.5z" />
    <glyph glyph-name="uni1EB5.ss01" horiz-adv-x="638" 
d="M226 947q-56 0 -88 -37.5t-40 -105.5l94 -18q10 62 42 62q18 0 44 -22q58 -46 104 -46q54 0 86 38t40 105l-94 18q-10 -59 -46 -59q-22 0 -46 21q-29 25 -50 34.5t-46 9.5zM302 571q-83 0 -141.5 53.5t-58.5 129.5h114q0 -34 24.5 -57t62.5 -23q39 0 66 23.5t27 56.5h114
q0 -73 -62 -128t-146 -55zM586 0h-150v500h150v-500zM436 251q0 55 -36.5 91t-90.5 36t-90.5 -36t-36.5 -91t36.5 -91t90.5 -36t90.5 36t36.5 91zM486 251q0 -116 -64 -192.5t-160 -76.5q-97 0 -163.5 77t-66.5 192t66.5 192t163.5 77q96 0 160 -76.5t64 -192.5z" />
    <glyph glyph-name="uni1EB7.ss01" horiz-adv-x="638" 
d="M302 571q-83 0 -141.5 53.5t-58.5 129.5h114q0 -34 24.5 -57t62.5 -23q39 0 66 23.5t27 56.5h114q0 -73 -62 -128t-146 -55zM225 -155q0 38 25.5 63.5t63.5 25.5t63.5 -25.5t25.5 -63.5t-25.5 -63.5t-63.5 -25.5t-63.5 25.5t-25.5 63.5zM586 0h-150v500h150v-500z
M436 251q0 55 -36.5 91t-90.5 36t-90.5 -36t-36.5 -91t36.5 -91t90.5 -36t90.5 36t36.5 91zM486 251q0 -116 -64 -192.5t-160 -76.5q-97 0 -163.5 77t-66.5 192t66.5 192t163.5 77q96 0 160 -76.5t64 -192.5z" />
    <glyph glyph-name="G.ss02" horiz-adv-x="797" 
d="M182 351q0 -94 61 -156.5t151 -62.5q72 0 126.5 39t70.5 103h-240v135h405v-409h-150v89q-44 -50 -105.5 -78.5t-131.5 -28.5q-144 0 -240.5 105.5t-96.5 263.5q0 104 47.5 188.5t130.5 132.5t184 48q105 0 192.5 -53t131.5 -143l-136 -70q-26 54 -76 85t-112 31
q-90 0 -151 -62.5t-61 -156.5z" />
    <glyph glyph-name="Gcircumflex.ss02" horiz-adv-x="797" 
d="M376 986l-179 -129l57 -88l140 102l140 -102l57 88l-179 129h-36zM182 351q0 -94 61 -156.5t151 -62.5q72 0 126.5 39t70.5 103h-240v135h405v-409h-150v89q-44 -50 -105.5 -78.5t-131.5 -28.5q-144 0 -240.5 105.5t-96.5 263.5q0 104 47.5 188.5t130.5 132.5t184 48
q105 0 192.5 -53t131.5 -143l-136 -70q-26 54 -76 85t-112 31q-90 0 -151 -62.5t-61 -156.5z" />
    <glyph glyph-name="Gbreve.ss02" horiz-adv-x="797" 
d="M393 780q-83 0 -141.5 53.5t-58.5 129.5h114q0 -34 24.5 -57t62.5 -23q39 0 66 23.5t27 56.5h114q0 -73 -62 -128t-146 -55zM182 351q0 -94 61 -156.5t151 -62.5q72 0 126.5 39t70.5 103h-240v135h405v-409h-150v89q-44 -50 -105.5 -78.5t-131.5 -28.5
q-144 0 -240.5 105.5t-96.5 263.5q0 104 47.5 188.5t130.5 132.5t184 48q105 0 192.5 -53t131.5 -143l-136 -70q-26 54 -76 85t-112 31q-90 0 -151 -62.5t-61 -156.5z" />
    <glyph glyph-name="Gdotaccent.ss02" horiz-adv-x="797" 
d="M305 866q0 38 25.5 63.5t63.5 25.5t63.5 -25.5t25.5 -63.5t-25.5 -63.5t-63.5 -25.5t-63.5 25.5t-25.5 63.5zM182 351q0 -94 61 -156.5t151 -62.5q72 0 126.5 39t70.5 103h-240v135h405v-409h-150v89q-44 -50 -105.5 -78.5t-131.5 -28.5q-144 0 -240.5 105.5t-96.5 263.5
q0 104 47.5 188.5t130.5 132.5t184 48q105 0 192.5 -53t131.5 -143l-136 -70q-26 54 -76 85t-112 31q-90 0 -151 -62.5t-61 -156.5z" />
    <glyph glyph-name="uni0122.ss02" horiz-adv-x="797" 
d="M436 -278q0 -32 -22 -56.5t-57 -24.5t-59.5 23t-24.5 57q0 30 17 53l125 179l51 -39l-82 -115q24 -10 38 -31t14 -46zM182 351q0 -94 61 -156.5t151 -62.5q72 0 126.5 39t70.5 103h-240v135h405v-409h-150v89q-44 -50 -105.5 -78.5t-131.5 -28.5q-144 0 -240.5 105.5
t-96.5 263.5q0 104 47.5 188.5t130.5 132.5t184 48q105 0 192.5 -53t131.5 -143l-136 -70q-26 54 -76 85t-112 31q-90 0 -151 -62.5t-61 -156.5z" />
    </font>
</defs>
</svg>
