<?xml version="1.0" standalone="no"?>
<!DOCTYPE svg PUBLIC "-//W3C//DTD SVG 1.1//EN" "http://www.w3.org/Graphics/SVG/1.1/DTD/svg11.dtd" >
<svg xmlns="http://www.w3.org/2000/svg" xmlns:xlink="http://www.w3.org/1999/xlink" version="1.1">
<metadata>
Created by FontForge 20201107 at Wed Jan 18 09:07:44 2023
 By 
Copyright (c) 2022, RandomMaerks (Bao Nguyen) || For more information, send an email to rmforbusuness@gmail.com
</metadata>
<defs>
<font id="Cygre-BlackIt" horiz-adv-x="788" >
  <font-face 
    font-family="Cygre Black"
    font-weight="900"
    font-style="italic"
    font-stretch="normal"
    units-per-em="1000"
    panose-1="2 0 10 3 0 0 0 0 0 0"
    ascent="800"
    descent="-200"
    x-height="500"
    cap-height="700"
    bbox="-110 -382 1579 1324"
    underline-thickness="50"
    underline-position="-100"
    slope="-10"
    unicode-range="U+0020-25CF"
  />
<missing-glyph horiz-adv-x="364" 
d="M33 0v666h265v-666h-265zM66 33h199v600h-199v-600z" />
    <glyph glyph-name="f_i" unicode="fi" horiz-adv-x="714" 
d="M449 590q-31 0 -50 -19.5t-25 -50.5l-4 -20h215l-27 -156h-215l-60 -344h-171l60 344h-85l27 156h85l13 74q13 76 75 126t148 50h109l-27 -160h-68zM601 651q0 42 28.5 70.5t70.5 28.5t70.5 -28.5t28.5 -70.5t-28.5 -70.5t-70.5 -28.5t-70.5 28.5t-28.5 70.5zM497 0
l88 500h172l-88 -500h-172z" />
    <glyph glyph-name="f_l" unicode="fl" horiz-adv-x="722" 
d="M449 590q-31 0 -50 -19.5t-25 -50.5l-4 -20h148l-28 -156h-147l-60 -344h-171l60 344h-85l27 156h85l13 74q13 76 75 126t148 50h199l-27 -160h-158zM502 0l132 750h172l-132 -750h-172z" />
    <glyph glyph-name="f_f_i" unicode="ffi" horiz-adv-x="1118" 
d="M449 590q-31 0 -50 -19.5t-25 -50.5l-4 -20h148l-27 -156h-148l-60 -344h-171l60 344h-85l27 156h85l13 74q13 76 75 126t148 50h109l-27 -160h-68zM853 590q-31 0 -50 -19.5t-25 -50.5l-4 -20h215l-27 -156h-215l-60 -344h-171l60 344h-85l27 156h85l13 74q13 76 75 126
t148 50h109l-27 -160h-68zM1005 651q0 42 28.5 70.5t70.5 28.5t70.5 -28.5t28.5 -70.5t-28.5 -70.5t-70.5 -28.5t-70.5 28.5t-28.5 70.5zM901 0l88 500h172l-88 -500h-172z" />
    <glyph glyph-name="f_f_l" unicode="ffl" horiz-adv-x="1126" 
d="M449 590q-31 0 -50 -19.5t-25 -50.5l-4 -20h148l-27 -156h-148l-60 -344h-171l60 344h-85l27 156h85l13 74q13 76 75 126t148 50h109l-27 -160h-68zM853 590q-30 0 -49.5 -19.5t-25.5 -50.5l-4 -20h148l-28 -156h-147l-60 -344h-171l60 344h-85l27 156h85l13 74
q13 76 75 126t148 50h199l-28 -160h-157zM906 0l132 750h172l-132 -750h-172z" />
    <glyph glyph-name="f_f" unicode="ff" horiz-adv-x="856" 
d="M449 590q-31 0 -50 -19.5t-25 -50.5l-4 -20h148l-27 -156h-148l-60 -344h-171l60 344h-85l27 156h85l13 74q14 76 75.5 126t147.5 50h109l-27 -160h-68zM853 590q-31 0 -50 -19.5t-25 -50.5l-4 -20h148l-28 -156h-147l-60 -344h-171l60 344h-85l27 156h85l13 74
q14 76 75.5 126t147.5 50h109l-27 -160h-68z" />
    <glyph glyph-name=".notdef" horiz-adv-x="364" 
d="M33 0v666h265v-666h-265zM66 33h199v600h-199v-600z" />
    <glyph glyph-name=".null" horiz-adv-x="0" 
 />
    <glyph glyph-name="nonmarkingreturn" horiz-adv-x="333" 
 />
    <glyph glyph-name="space" unicode=" " horiz-adv-x="270" 
 />
    <glyph glyph-name="exclam" unicode="!" horiz-adv-x="268" 
d="M51 89q0 48 30 80t75 32q48 0 80.5 -32t32.5 -80q0 -47 -31 -78t-78 -31t-78 31t-31 78zM257 250h-150l60 450h190z" />
    <glyph glyph-name="quotedbl" unicode="&#x22;" horiz-adv-x="476" 
d="M440 784l141 -56l-102 -245l-136 53zM220 784l141 -56l-102 -245l-136 53z" />
    <glyph glyph-name="numbersign" unicode="#" horiz-adv-x="754" 
d="M830 570l-30 -167h-704l30 167h704zM785 320l-29 -167h-704l29 167h704zM472 0h-187l380 700h187zM212 0h-187l380 700h187z" />
    <glyph glyph-name="dollar" unicode="$" horiz-adv-x="494" 
d="M307 221q15 0 24 6.5t9 17.5q0 17 -52 28q-171 36 -171 153q0 75 56.5 130.5t148.5 55.5q77 0 139 -41.5t80 -109.5l-172 -32q-13 38 -51 38q-29 0 -29 -22t58 -32q80 -16 123 -55t43 -96q0 -72 -57 -124t-150 -52q-83 0 -148 41.5t-83 111.5l172 33q1 -7 5 -17t19 -22
t36 -12zM268 566l28 134h150l-28 -134h-150zM204 158h150l-31 -158h-150z" />
    <glyph glyph-name="percent" unicode="%" horiz-adv-x="1102" 
d="M904 268q-31 0 -52.5 -22t-21.5 -54q0 -27 18 -44.5t46 -17.5q31 0 52.5 22t21.5 54q0 27 -18 44.5t-46 17.5zM679 176q0 100 70 171t168 71q88 0 145 -55.5t57 -140.5q0 -100 -70 -171t-168 -71q-88 0 -145 55.5t-57 140.5zM330 570q-31 0 -52.5 -22t-21.5 -54
q0 -27 18 -44.5t46 -17.5q31 0 52.5 22t21.5 54q0 27 -18 44.5t-46 17.5zM105 478q0 100 70 171t168 71q88 0 145 -55.5t57 -140.5q0 -100 -70 -171t-168 -71q-88 0 -145 55.5t-57 140.5zM500 0h-187l411 700h187z" />
    <glyph glyph-name="ampersand" unicode="&#x26;" horiz-adv-x="708" 
d="M369 591q16 0 27.5 -9.5t11.5 -22.5q0 -30 -42 -56l-25 -15l-8 13q-15 24 -15 41q0 20 15.5 34.5t35.5 14.5zM562 583q0 67 -51 109.5t-131 42.5q-91 0 -153.5 -56.5t-62.5 -138.5q0 -64 48 -131l14 -20l-40 -22q-53 -30 -85.5 -83.5t-32.5 -110.5q0 -83 67 -137t170 -54
q91 0 150 52l25 23l67 -100l128 92l-63 93l96 67l-94 127l-94 -67l-81 122l20 11q44 25 73.5 77t29.5 104zM311 151q-26 0 -42.5 16t-16.5 41q0 33 34 57l26 18l71 -102l-21 -16q-18 -14 -51 -14z" />
    <glyph glyph-name="quotesingle" unicode="'" horiz-adv-x="256" 
d="M220 784l141 -56l-102 -245l-136 53z" />
    <glyph glyph-name="parenleft" unicode="(" horiz-adv-x="361" 
d="M81 274l38 212q19 108 98 184t193 95l25 -171q-58 -8 -100 -47.5t-52 -96.5l-30 -172q-3 -15 -3 -30q0 -50 29.5 -87.5t80.5 -51.5l-81 -160q-94 30 -148.5 102t-54.5 166q0 25 5 57z" />
    <glyph glyph-name="parenright" unicode=")" horiz-adv-x="361" 
d="M407 435l-38 -212q-18 -108 -98 -184t-193 -95l-25 170q59 8 100.5 47.5t51.5 96.5l30 172q3 15 3 30q0 50 -30 88t-80 51l81 161q94 -29 148.5 -101.5t54.5 -166.5q0 -28 -5 -57z" />
    <glyph glyph-name="asterisk" unicode="*" horiz-adv-x="526" 
d="M325 810l152 -27l-35 -129l132 29l22 -153l-135 -8l69 -116l-138 -67l-49 125l-89 -100l-108 110l105 84l-124 54l73 137l111 -73z" />
    <glyph glyph-name="plus" unicode="+" horiz-adv-x="452" 
d="M235 468h147l-23 -128h128l-26 -147h-127l-23 -127h-147l23 127h-128l26 147h127z" />
    <glyph glyph-name="comma" unicode="," horiz-adv-x="278" 
d="M102 186l167 -44l-117 -304l-131 32z" />
    <glyph glyph-name="hyphen" unicode="-" horiz-adv-x="452" 
d="M487 340l-26 -147h-402l26 147h402z" />
    <glyph glyph-name="period" unicode="." horiz-adv-x="278" 
d="M51 89q0 48 30 80t75 32q48 0 80.5 -32t32.5 -80q0 -47 -31 -78t-78 -31t-78 31t-31 78z" />
    <glyph glyph-name="slash" unicode="/" horiz-adv-x="496" 
d="M223 0h-197l370 700h197z" />
    <glyph glyph-name="zero" unicode="0" horiz-adv-x="648" 
d="M518 409q0 61 -29 99.5t-76 38.5q-50 0 -91 -45t-53 -115l-9 -53q-4 -17 -4 -44q0 -61 29 -99.5t76 -38.5q50 0 91 45t53 115l9 53q4 24 4 44zM347 -18q-115 0 -188.5 82t-73.5 210q0 41 7 75l9 53q24 137 116 226t210 89q115 0 188.5 -82t73.5 -210q0 -41 -7 -75l-9 -53
q-24 -137 -116 -226t-210 -89z" />
    <glyph glyph-name="one" unicode="1" horiz-adv-x="495" 
d="M567 700l-124 -700h-170l90 509l-176 -107l-68 138l267 160h181z" />
    <glyph glyph-name="two" unicode="2" horiz-adv-x="571" 
d="M371 540q34 0 56.5 -19.5t22.5 -48.5q0 -16 -6 -29t-21.5 -26t-29 -21.5t-41.5 -25t-45 -27.5l-239 -141l-23 -202h503l19 170h-269l140 75q182 99 182 244q0 95 -66.5 158.5t-170.5 63.5q-89 0 -156.5 -49.5t-107.5 -129.5l158 -62q33 70 94 70z" />
    <glyph glyph-name="three" unicode="3" horiz-adv-x="571" 
d="M310 -11q115 0 190 73.5t75 185.5q0 61 -28 104t-77 57l155 100l23 191h-494l-19 -170h290l-154 -82l4 -119q61 -5 95.5 -29.5t34.5 -62.5q0 -35 -24 -56.5t-63 -21.5q-42 0 -67 23t-27 64l-165 -41q10 -100 77.5 -158t173.5 -58z" />
    <glyph glyph-name="four" unicode="4" horiz-adv-x="632" 
d="M264 330h135l29 162zM635 700l-66 -370h97l-29 -167h-97l-29 -163h-170l29 163h-305l23 207l337 330h210z" />
    <glyph glyph-name="five" unicode="5" horiz-adv-x="571" 
d="M586 261q0 93 -48.5 153.5t-123.5 60.5q-66 0 -127 -37l16 92h313l19 170h-473l-62 -356l161 -54q37 32 80 32q32 0 52.5 -20t20.5 -52q0 -39 -26.5 -65t-65.5 -26q-37 0 -59 20.5t-23 55.5l-176 -40q11 -93 78.5 -149.5t168.5 -56.5q117 0 196 78t79 194z" />
    <glyph glyph-name="six" unicode="6" horiz-adv-x="610" 
d="M83 240q0 208 105 340.5t260 132.5q78 0 140.5 -33.5t89.5 -91.5l-115 -115q-17 32 -54.5 51.5t-82.5 19.5q-54 0 -95.5 -39.5t-57.5 -106.5q56 78 154 78q86 0 142.5 -61.5t56.5 -154.5q0 -117 -82.5 -198t-201.5 -81t-189 70t-70 189zM355 310q-43 0 -71.5 -22
t-28.5 -55q0 -34 30 -58t72 -24q41 0 69 25t28 60q0 33 -27.5 53.5t-71.5 20.5z" />
    <glyph glyph-name="seven" unicode="7" horiz-adv-x="558" 
d="M336 0l291 523l21 177h-498l-20 -167h295l-301 -533h212z" />
    <glyph glyph-name="eight" unicode="8" horiz-adv-x="598" 
d="M334 279q-40 0 -67.5 -18.5t-27.5 -45.5t29.5 -45t73.5 -18q41 0 67.5 17.5t26.5 43.5q0 28 -29.5 47t-72.5 19zM142 512q0 87 73 146.5t180 59.5q105 0 175 -54t70 -135q0 -55 -38.5 -102t-102.5 -69q48 -27 75 -70t27 -94q0 -90 -77.5 -151t-192.5 -61t-191 56.5
t-76 141.5q0 60 45 111t118 73q-41 25 -63 64t-22 84zM307 494q0 -22 23.5 -37.5t57.5 -15.5q33 0 55 15t22 38t-23 38.5t-57 15.5q-33 0 -55.5 -15.5t-22.5 -38.5z" />
    <glyph glyph-name="nine" unicode="9" horiz-adv-x="610" 
d="M651 454q0 -208 -105 -340.5t-260 -132.5q-78 0 -140.5 33.5t-89.5 91.5l115 115q17 -32 54.5 -51.5t82.5 -19.5q54 0 95.5 39.5t57.5 106.5q-56 -78 -154 -78q-86 0 -142.5 61.5t-56.5 154.5q0 117 82.5 198t201.5 81t189 -70t70 -189zM379 384q43 0 71.5 22t28.5 55
q0 34 -30 58t-72 24q-41 0 -69 -25t-28 -60q0 -33 27.5 -53.5t71.5 -20.5z" />
    <glyph glyph-name="colon" unicode=":" horiz-adv-x="278" 
d="M111 417q0 48 30 80t75 32q48 0 80.5 -32t32.5 -80q0 -47 -31 -78t-78 -31t-78 31t-31 78zM51 89q0 48 30 80t75 32q48 0 80.5 -32t32.5 -80q0 -47 -31 -78t-78 -31t-78 31t-31 78z" />
    <glyph glyph-name="semicolon" unicode=";" horiz-adv-x="278" 
d="M102 186l167 -44l-117 -304l-131 32zM107 417q0 48 30 80t75 32q48 0 80.5 -32t32.5 -80q0 -47 -31 -78t-78 -31t-78 31t-31 78z" />
    <glyph glyph-name="less" unicode="&#x3c;" horiz-adv-x="510" 
d="M513 179l-31 -168l-425 143l40 224l475 143l-31 -184l-320 -76z" />
    <glyph glyph-name="equal" unicode="=" horiz-adv-x="452" 
d="M469 240l-26 -147h-402l26 147h402zM508 460l-26 -147h-402l26 147h402z" />
    <glyph glyph-name="greater" unicode="&#x3e;" horiz-adv-x="510" 
d="M94 355l28 166l425 -143l-40 -224l-475 -143l34 186l319 76z" />
    <glyph glyph-name="question" unicode="?" horiz-adv-x="551" 
d="M170 90.5q0 47.5 30.5 79t76.5 31.5q47 0 79 -32t32 -80q0 -47 -31 -78t-78 -31t-78 31.5t-31 79zM362 541q27 0 44 -15t17 -39q0 -59 -72 -77l-90 -23l26 -148l105 28q99 26 150 87t51 151q0 91 -61 148.5t-157 57.5q-76 0 -139.5 -44.5t-104.5 -126.5l146 -70
q32 71 85 71z" />
    <glyph glyph-name="at" unicode="@" horiz-adv-x="793" 
d="M448 293q22 0 37.5 16t15.5 38q0 19 -12.5 31.5t-32.5 12.5q-22 0 -37.5 -16t-15.5 -38q0 -19 12.5 -31.5t32.5 -12.5zM539 376q0 -81 -45 -140t-106 -59q-51 0 -83.5 40t-32.5 102q0 78 46.5 136.5t108.5 58.5q50 0 81 -38.5t31 -99.5zM854 400q0 -110 -55 -178
t-144 -68q-65 0 -115.5 31.5t-50.5 72.5q0 3 1 9l40 233h131l-33 -185q-1 -6 -1 -12q0 -33 35 -33q27 0 43.5 31t16.5 81q0 94 -68.5 156t-171.5 62q-116 0 -197 -81t-81 -196q0 -102 71 -167t182 -65q78 0 151 32l36 -110q-93 -42 -199 -42q-162 0 -266.5 96.5
t-104.5 246.5q0 172 122.5 294t295.5 122q154 0 258 -94.5t104 -235.5z" />
    <glyph glyph-name="A" unicode="A" horiz-adv-x="804" 
d="M237 0h-203l380 700h234l136 -700h-189l-88 506zM274 297h375l-28 -158h-375z" />
    <glyph glyph-name="B" unicode="B" horiz-adv-x="658" 
d="M468 432q24 0 43 18t19 41q0 18 -12 29.5t-32 11.5h-175l-18 -100h175zM432 168q24 0 42 18t18 41q0 19 -14.5 31t-37.5 12h-175l-18 -102h185zM660 226q0 -91 -72 -158.5t-174 -67.5h-369l124 700h359q80 0 129.5 -43.5t49.5 -112.5q0 -56 -31.5 -109t-82.5 -81
q67 -41 67 -128z" />
    <glyph glyph-name="C" unicode="C" horiz-adv-x="778" 
d="M88 323q0 169 114 283t284 114q66 0 127 -22.5t117 -82t82 -149.5l-165 -55q-15 63 -62.5 101t-113.5 38q-87 0 -149.5 -65t-62.5 -155q0 -77 50.5 -127.5t126.5 -50.5q57 0 107.5 31t81.5 85l153 -86q-59 -97 -150.5 -149t-202.5 -52q-144 0 -240.5 98t-96.5 244z" />
    <glyph glyph-name="D" unicode="D" horiz-adv-x="708" 
d="M740 399q0 -170 -115 -284.5t-292 -114.5h-289l124 700h269q125 0 214 -88.5t89 -212.5zM352 165q98 0 156.5 64.5t58.5 157.5q0 66 -41.5 107t-107.5 41h-106l-66 -370h106z" />
    <glyph glyph-name="E" unicode="E" horiz-adv-x="595" 
d="M296 442h316l-29 -167h-316l-20 -108h342l-29 -167h-515l125 700h512l-29 -167h-342z" />
    <glyph glyph-name="F" unicode="F" horiz-adv-x="595" 
d="M296 442h316l-29 -167h-316l-48 -275h-174l125 700h512l-29 -167h-342z" />
    <glyph glyph-name="G" unicode="G" 
d="M481 550q-92 0 -157 -64.5t-65 -154.5q0 -80 51.5 -129.5t133.5 -49.5q62 0 109.5 29t63.5 79h-225l26 151h403q0 -196 -105 -312.5t-282 -116.5q-153 0 -249.5 93.5t-96.5 240.5q0 109 55 202t149 147.5t204 54.5q115 0 202 -58t118 -154l-165 -66q-16 49 -62.5 78.5
t-107.5 29.5z" />
    <glyph glyph-name="H" unicode="H" horiz-adv-x="700" 
d="M45 0l123 700h171l-44 -259h259l46 259h170l-122 -700h-171l50 278h-260l-50 -278h-172z" />
    <glyph glyph-name="I" unicode="I" horiz-adv-x="270" 
d="M217 0h-172l123 700h171z" />
    <glyph glyph-name="J" unicode="J" horiz-adv-x="664" 
d="M230 272q11 -113 120 -113q52 0 88 34.5t46 93.5l73 413h170l-76 -438q-21 -119 -110 -196t-206 -77q-114 0 -188 66t-87 179z" />
    <glyph glyph-name="K" unicode="K" horiz-adv-x="698" 
d="M45 0l124 700h172l-47 -265h15l256 265h227l-343 -350l219 -350h-207l-174 262h-24l-46 -262h-172z" />
    <glyph glyph-name="L" unicode="L" horiz-adv-x="585" 
d="M247 167h342l-30 -167h-514l125 700h172z" />
    <glyph glyph-name="M" unicode="M" horiz-adv-x="836" 
d="M44 0l123 700h185l119 -345l247 345h205l-123 -700h-173l70 396l-204 -292h-105l-101 292l-70 -396h-173z" />
    <glyph glyph-name="N" unicode="N" horiz-adv-x="700" 
d="M45 0l123 700h198l157 -438l77 438h171l-123 -700h-198l-157 438l-76 -438h-172z" />
    <glyph glyph-name="O" unicode="O" 
d="M472 550q-88 0 -150 -63.5t-62 -154.5q0 -79 50 -129.5t128 -50.5q88 0 150.5 65t62.5 155q0 78 -50.5 128t-128.5 50zM89 329q0 106 51.5 196t139.5 142.5t192 52.5q149 0 249 -99t100 -245q0 -106 -51.5 -197t-140 -144t-191.5 -53q-148 0 -248.5 99.5t-100.5 247.5z
" />
    <glyph glyph-name="P" unicode="P" horiz-adv-x="648" 
d="M408 360q58 0 87 29t29 73q0 31 -24 50.5t-62 19.5h-127l-30 -172h127zM697 475q0 -120 -86 -201.5t-213 -81.5h-147l-34 -192h-172l124 700h289q97 0 168 -66.5t71 -158.5z" />
    <glyph glyph-name="Q" unicode="Q" 
d="M472 550q-88 0 -150 -63.5t-62 -154.5q0 -79 50 -129.5t128 -50.5q88 0 150.5 65t62.5 155q0 78 -50.5 128t-128.5 50zM89 329q0 106 51.5 196t139.5 142.5t192 52.5q149 0 249 -99t100 -245q0 -106 -51.5 -197t-140 -144t-191.5 -53q-148 0 -248.5 99.5t-100.5 247.5z
M683 -40l-318 338l125 115l318 -338z" />
    <glyph glyph-name="R" unicode="R" horiz-adv-x="648" 
d="M415 400q41 0 71.5 23t30.5 54q0 24 -22 39.5t-57 15.5h-127l-23 -132h127zM699 490q0 -90 -55 -152.5t-144 -83.5l113 -254h-189l-104 234h-61l-42 -234h-172l124 700h309q100 0 160.5 -60t60.5 -150z" />
    <glyph glyph-name="S" unicode="S" horiz-adv-x="594" 
d="M347 149q33 0 54.5 16t21.5 40q0 41 -94 63q-98 25 -151 80t-53 131q0 101 73 168t182 67q101 0 176.5 -54.5t95.5 -142.5l-174 -45q-9 37 -37 59t-65 22q-31 0 -51.5 -16.5t-20.5 -40.5q0 -37 88 -60q99 -27 154.5 -84.5t55.5 -134.5q0 -99 -74 -164t-186 -65
q-102 0 -180 51.5t-100 133.5l178 64q9 -41 38 -64.5t69 -23.5z" />
    <glyph glyph-name="T" unicode="T" horiz-adv-x="616" 
d="M718 700l-30 -168h-197l-96 -532h-170l94 532h-203l29 168h573z" />
    <glyph glyph-name="U" unicode="U" horiz-adv-x="690" 
d="M368 -11q-118 0 -195.5 74.5t-77.5 191.5q0 28 5 58l68 387h171l-69 -392q-3 -17 -3 -34q0 -8 1 -18t7.5 -28.5t18 -32.5t34.5 -25t55 -11q50 0 87 33.5t47 93.5l73 414h170l-76 -438q-22 -121 -111 -197t-205 -76z" />
    <glyph glyph-name="V" unicode="V" horiz-adv-x="804" 
d="M698 700h203l-381 -700h-234l-135 700h189l87 -506z" />
    <glyph glyph-name="W" unicode="W" horiz-adv-x="1073" 
d="M969 700h186l-267 -700h-254l-21 447l-154 -447h-264l-39 700h181l23 -486l190 486h206l33 -486z" />
    <glyph glyph-name="X" unicode="X" horiz-adv-x="724" 
d="M699 0h-197l-87 261l-180 -261h-212l256 350l-132 350h198l88 -261l179 261h211l-254 -350z" />
    <glyph glyph-name="Y" unicode="Y" horiz-adv-x="698" 
d="M272 0h170l39 220l316 480h-206l-165 -272l-88 272h-193l166 -480z" />
    <glyph glyph-name="Z" unicode="Z" horiz-adv-x="628" 
d="M592 0l30 167h-325l384 336l35 197h-548l-30 -167h325l-383 -330l-36 -203h548z" />
    <glyph glyph-name="bracketleft" unicode="[" horiz-adv-x="380" 
d="M243 108h126l-28 -158h-300l143 810h300l-30 -168h-126z" />
    <glyph glyph-name="backslash" unicode="\" horiz-adv-x="496" 
d="M293 0l-144 700h177l144 -700h-177z" />
    <glyph glyph-name="bracketright" unicode="]" horiz-adv-x="380" 
d="M262 602h-126l28 158h300l-143 -810h-300l30 168h126z" />
    <glyph glyph-name="asciicircum" unicode="^" horiz-adv-x="508" 
d="M371 751l-222 -125l46 -105l177 104l144 -111l75 95l-181 139z" />
    <glyph glyph-name="underscore" unicode="_" horiz-adv-x="502" 
d="M496 110l-22 -127h-452l22 127h452z" />
    <glyph glyph-name="grave" unicode="`" horiz-adv-x="316" 
d="M145 644l85 92l162 -153l-80 -88z" />
    <glyph glyph-name="a" unicode="a" horiz-adv-x="537" 
d="M321 512q93 0 158.5 -54t65.5 -130q0 -13 -2 -25l-52 -303h-171l32 188l-83 -5q-39 -2 -39 -26q0 -25 42 -25q33 0 54.5 14.5t25.5 38.5h34q-14 -86 -67.5 -140t-124.5 -54q-61 0 -99 39.5t-38 102.5q0 73 53 119.5t141 50.5l123 8v2q1 2 1 5q0 18 -17.5 31t-41.5 13
q-21 0 -39 -11t-26 -29l-155 68q30 55 92 88.5t133 33.5z" />
    <glyph glyph-name="b" unicode="b" horiz-adv-x="638" 
d="M48 0l131 750h171l-131 -750h-171zM381 360q-50 0 -84.5 -35.5t-34.5 -84.5q0 -42 29 -70t72 -28q50 0 84.5 36t34.5 85q0 42 -29 69.5t-72 27.5zM206 203q0 80 32.5 151.5t90.5 116t127 44.5q86 0 141.5 -64t55.5 -164q0 -80 -34 -151t-93 -114.5t-129 -43.5
q-85 0 -138 63t-53 162z" />
    <glyph glyph-name="c" unicode="c" horiz-adv-x="594" 
d="M359 359q-47 0 -80.5 -35.5t-33.5 -86.5q0 -42 27 -69t70 -27q64 0 101 54l141 -88q-43 -59 -109.5 -92.5t-142.5 -33.5q-112 0 -184.5 69t-72.5 174q0 122 86.5 209t209.5 87q92 0 162 -48.5t94 -128.5l-167 -60q-8 35 -35.5 55.5t-65.5 20.5z" />
    <glyph glyph-name="d" unicode="d" horiz-adv-x="638" 
d="M595 0h-171l131 750h171zM350 142q50 0 84.5 36t34.5 85q0 42 -29 69.5t-72 27.5q-50 0 -84.5 -35.5t-34.5 -84.5q0 -42 29 -70t72 -28zM525 300q0 -80 -32.5 -151.5t-90.5 -116t-127 -44.5q-86 0 -141.5 64t-55.5 164q0 80 34 151t93 114.5t129 43.5q85 0 138 -63
t53 -162z" />
    <glyph glyph-name="e" unicode="e" horiz-adv-x="592" 
d="M438 330q-9 16 -30.5 25.5t-49.5 9.5q-63 0 -96 -45h180q-2 6 -4 10zM607 274q0 -36 -10 -79h-348q7 -27 34 -42.5t65 -15.5q62 0 92 47l138 -90q-90 -112 -236 -112q-117 0 -193 70.5t-76 179.5q0 119 83 203.5t201 84.5q107 0 178.5 -70.5t71.5 -175.5z" />
    <glyph glyph-name="f" unicode="f" horiz-adv-x="452" 
d="M449 590q-31 0 -50 -19.5t-25 -50.5l-4 -20h148l-28 -156h-147l-60 -344h-171l60 344h-85l27 156h85l13 74q14 76 75.5 126t147.5 50h109l-27 -160h-68z" />
    <glyph glyph-name="g" unicode="g" horiz-adv-x="598" 
d="M492 314q0 -72 -29.5 -136.5t-82.5 -104t-116 -39.5q-80 0 -133.5 59t-53.5 151q0 72 33 136t88.5 102.5t119.5 38.5q79 0 126.5 -59t47.5 -148zM333 189q39 0 66 25t27 60q0 32 -24.5 53t-60.5 21q-40 0 -66.5 -25t-26.5 -60q0 -32 24 -53t61 -21zM180 20
q11 -34 38.5 -53.5t67.5 -19.5q37 0 63.5 18t31.5 48l85 487h171l-88 -502q-18 -106 -90 -166.5t-176 -60.5q-16 0 -35 1.5t-55 11t-66.5 25t-60.5 47.5t-45 75z" />
    <glyph glyph-name="h" unicode="h" horiz-adv-x="588" 
d="M46 0l132 750h173l-131 -750h-174zM371 0l45 275q6 40 -11 65t-51 25q-31 0 -54.5 -21.5t-30.5 -57.5h-56q17 98 82 162.5t146 64.5q86 0 127 -67t22 -176l-47 -270h-172z" />
    <glyph glyph-name="i" unicode="i" horiz-adv-x="262" 
d="M149 651q0 42 28.5 70.5t70.5 28.5t70.5 -28.5t28.5 -70.5t-28.5 -70.5t-70.5 -28.5t-70.5 28.5t-28.5 70.5zM45 0l88 500h172l-88 -500h-172z" />
    <glyph glyph-name="j" unicode="j" horiz-adv-x="262" 
d="M149 651q0 42 28.5 70.5t70.5 28.5t70.5 -28.5t28.5 -70.5t-28.5 -70.5t-70.5 -28.5t-70.5 28.5t-28.5 70.5zM-25 -51q29 0 49 22.5t27 58.5l82 470h172l-96 -539q-13 -76 -74.5 -129.5t-144.5 -53.5h-50l19 170z" />
    <glyph glyph-name="k" unicode="k" horiz-adv-x="612" 
d="M45 0l123 700h171l-62 -358h23l146 158h235l-249 -256l156 -244h-204l-111 169h-26l-30 -169h-172z" />
    <glyph glyph-name="l" unicode="l" horiz-adv-x="270" 
d="M50 0l132 750h172l-132 -750h-172z" />
    <glyph glyph-name="m" unicode="m" horiz-adv-x="847" 
d="M627 0l53 297q4 29 -10 49t-39 20t-45 -19.5t-24 -53.5h-49q16 107 72 164t131 57q71 0 111 -65t24 -157l-51 -292h-173zM50 0l88 500h173l-89 -500h-172zM339 0l50 290q5 31 -8.5 53.5t-38.5 22.5t-45 -20.5t-24 -56.5h-48q16 92 74 158.5t128 66.5q71 0 111 -65
t24 -157l-52 -292h-171z" />
    <glyph glyph-name="n" unicode="n" horiz-adv-x="588" 
d="M46 0l89 500h173l-88 -500h-174zM371 0l45 275q7 40 -10.5 65t-51.5 25q-31 0 -54.5 -21.5t-30.5 -57.5h-56q9 50 42 102t84 88.5t102 36.5q86 0 127 -67t22 -176l-47 -270h-172z" />
    <glyph glyph-name="o" unicode="o" horiz-adv-x="618" 
d="M363 360q-50 0 -84.5 -35.5t-34.5 -85.5q0 -43 29 -70t72 -27q50 0 84.5 35.5t34.5 85.5q0 43 -29 70t-72 27zM74 226q0 121 87 207.5t213 86.5q111 0 185.5 -68.5t74.5 -175.5q0 -121 -87 -207.5t-213 -86.5q-111 0 -185.5 68.5t-74.5 175.5z" />
    <glyph glyph-name="p" unicode="p" horiz-adv-x="638" 
d="M131 500h171l-122 -700h-171zM376 360q-49 0 -83.5 -36t-34.5 -84q0 -43 28.5 -70.5t72.5 -27.5q50 0 84 35.5t34 84.5q0 42 -28.5 70t-72.5 28zM202 202q0 80 32.5 151.5t90.5 116.5t127 45q86 0 141.5 -64.5t55.5 -164.5q0 -80 -34 -151t-93.5 -114.5t-128.5 -43.5
q-85 0 -138 63t-53 162z" />
    <glyph glyph-name="q" unicode="q" horiz-adv-x="638" 
d="M677 500l-123 -700h-171l123 700h171zM344 142q50 0 84 35.5t34 84.5q0 42 -28.5 70t-72.5 28q-49 0 -83.5 -36t-34.5 -84q0 -43 28.5 -70.5t72.5 -27.5zM519 299q0 -80 -32.5 -151.5t-90.5 -116t-127 -44.5q-86 0 -141.5 64t-55.5 165q0 79 33.5 150t93 114.5
t129.5 43.5q85 0 138 -63t53 -162z" />
    <glyph glyph-name="r" unicode="r" horiz-adv-x="400" 
d="M44 0l88 500h170l-87 -500h-171zM393 342q-47 0 -88.5 -31t-47.5 -69h-57q20 114 85 191.5t139 77.5h41l-29 -169h-43z" />
    <glyph glyph-name="s" unicode="s" horiz-adv-x="494" 
d="M282 123q15 0 24 6.5t9 17.5q0 17 -52 28q-171 36 -171 153q0 75 56.5 130.5t148.5 55.5q77 0 139 -41.5t80 -109.5l-172 -32q-13 38 -51 38q-29 0 -29 -22t58 -32q80 -16 123 -55t43 -96q0 -72 -57 -124t-150 -52q-83 0 -148 41.5t-83 111.5l172 33q1 -7 5 -17t19 -22
t36 -12z" />
    <glyph glyph-name="t" unicode="t" horiz-adv-x="442" 
d="M365 155h84l-28 -155h-109q-81 0 -127 40.5t-46 108.5q0 19 3 36l29 159h-86l27 156h86l24 143l175 21l-29 -164h138l-28 -156h-137l-24 -134q-1 -6 -1 -11q0 -21 13 -32.5t36 -11.5z" />
    <glyph glyph-name="u" unicode="u" horiz-adv-x="568" 
d="M609 500l-88 -500h-172l87 500h173zM306 500l-52 -293q-5 -29 9.5 -49t44.5 -20q29 0 50 15t25 43h57q-15 -83 -78 -144.5t-138 -61.5q-78 0 -119.5 54.5t-24.5 152.5l54 303h172z" />
    <glyph glyph-name="v" unicode="v" horiz-adv-x="624" 
d="M505 500h182l-267 -500h-225l-81 500h171l42 -355z" />
    <glyph glyph-name="w" unicode="w" horiz-adv-x="938" 
d="M821 500h181l-219 -500h-244l-29 287l-121 -287h-226l-49 500h172l18 -340l153 340h177l41 -345z" />
    <glyph glyph-name="x" unicode="x" horiz-adv-x="598" 
d="M576 0h-184l-66 161l-97 -161h-208l197 261l-104 239h185l59 -161l104 161h206l-202 -261z" />
    <glyph glyph-name="y" unicode="y" horiz-adv-x="624" 
d="M501 500l-164 -310l-50 310h-173l98 -481l-121 -219h186l410 700h-186z" />
    <glyph glyph-name="z" unicode="z" horiz-adv-x="492" 
d="M464 0l26 146h-245l276 183l30 171h-434l-26 -146h214l-246 -183l-30 -171h435z" />
    <glyph glyph-name="braceleft" unicode="{" horiz-adv-x="411" 
d="M136 169q0 15 2.5 34t2.5 30q0 68 -66 68l29 166q40 0 64.5 21.5t30.5 57.5q15 88 90 147.5t181 72.5l24 -170q-57 -7 -98.5 -43.5t-51.5 -90.5q-15 -83 -76 -94q46 -18 46 -67q0 -11 -2.5 -28t-2.5 -29q0 -49 30 -84.5t80 -48.5l-81 -161q-91 24 -146.5 83t-55.5 136z
" />
    <glyph glyph-name="bar" unicode="|" horiz-adv-x="270" 
d="M12 -200l176 1000h174l-176 -1000h-174z" />
    <glyph glyph-name="braceright" unicode="}" horiz-adv-x="411" 
d="M403 548q0 -13 -2.5 -30.5t-2.5 -30.5q0 -34 17.5 -52.5t48.5 -18.5l-29 -166q-37 0 -62.5 -21t-32.5 -58q-15 -86 -89 -146.5t-182 -73.5l-24 170q59 8 100 44.5t50 89.5q15 82 76 94q-46 18 -46 67q0 12 2.5 29t2.5 28q0 48 -29.5 84t-80.5 49l81 161q93 -25 147.5 -84
t54.5 -135z" />
    <glyph glyph-name="asciitilde" unicode="~" horiz-adv-x="484" 
d="M227 378q-114 0 -157 -150l105 -18q19 59 51 59q16 0 37 -19q54 -46 99 -46q111 0 154 150l-104 18q-20 -56 -55 -56q-21 0 -39 18q-26 24 -46 34t-45 10z" />
    <glyph glyph-name="exclamdown" unicode="&#xa1;" horiz-adv-x="268" 
d="M330 500q0 -48 -30 -80t-75 -32q-48 0 -80.5 32t-32.5 80q0 47 31 78t78 31t78 -31t31 -78zM124 339h150l-60 -450h-190z" />
    <glyph glyph-name="cent" unicode="&#xa2;" horiz-adv-x="594" 
d="M375 468q-48 0 -81.5 -35.5t-33.5 -86.5q0 -42 27.5 -69t69.5 -27q64 0 101 54l141 -88q-43 -59 -109.5 -92.5t-142.5 -33.5q-112 0 -184.5 68.5t-72.5 174.5q0 122 86.5 208.5t209.5 86.5q92 0 162.5 -48t93.5 -128l-167 -60q-8 34 -35.5 55t-64.5 21zM333 596l18 104
h150l-18 -104h-150zM249 118h150l-21 -118h-150z" />
    <glyph glyph-name="sterling" unicode="&#xa3;" horiz-adv-x="627" 
d="M631 167l-29 -167h-577l29 167h100l17 96h-80l30 167h80l11 62q18 102 92.5 167t170.5 65q180 0 225 -166l-175 -57q-7 53 -60 53q-32 0 -55.5 -19t-29.5 -53l-9 -52h192l-30 -167h-192l-17 -96h307z" />
    <glyph glyph-name="currency" unicode="&#xa4;" horiz-adv-x="407" 
d="M90 279q0 61 41 100l-34 45l70 49l31 -47q25 13 58 13q56 0 96 -40l46 34l50 -72l-47 -32q13 -26 13 -55q0 -60 -41 -99l34 -45l-70 -49l-31 47q-29 -13 -59 -13q-58 0 -95 39l-46 -32l-51 71l48 32q-13 26 -13 54zM251 331q-22 0 -37.5 -16t-15.5 -39q0 -22 16 -37.5
t39 -15.5q22 0 37.5 16t15.5 39q0 22 -16 37.5t-39 15.5z" />
    <glyph glyph-name="yen" unicode="&#xa5;" horiz-adv-x="698" 
d="M588 160h-402l-19 -107h402zM613 300h-402l-19 -107h402zM274 0h170l56 320l298 380h-207l-154 -212l-99 212h-192l184 -380z" />
    <glyph glyph-name="brokenbar" unicode="&#xa6;" horiz-adv-x="270" 
d="M288 386h-170l73 414h170zM261 234l-76 -434h-170l76 434h170z" />
    <glyph glyph-name="section" unicode="&#xa7;" horiz-adv-x="494" 
d="M357 344q0 -14 -28 -23q-64 13 -64 36q0 18 28 23q64 -13 64 -36zM333 713q-88 0 -146.5 -50.5t-58.5 -127.5q0 -71 64 -115q-49 -14 -77 -43.5t-28 -67.5q0 -87 170 -125q66 -15 66 -35q0 -11 -10.5 -18.5t-25.5 -7.5q-22 0 -38 14t-20 37l-172 -32q18 -68 82.5 -111
t149.5 -43q88 0 146.5 50.5t58.5 127.5q0 70 -62 114q48 13 75 41.5t27 66.5q0 90 -172 130q-63 14 -63 34q0 11 10.5 18.5t25.5 7.5q22 0 38 -14t20 -37l172 32q-18 68 -82.5 111t-149.5 43z" />
    <glyph glyph-name="dieresis" unicode="&#xa8;" horiz-adv-x="508" 
d="M395 619q0 42 28.5 70.5t70.5 28.5t70.5 -28.5t28.5 -70.5t-28.5 -70.5t-70.5 -28.5t-70.5 28.5t-28.5 70.5zM135 619q0 42 28.5 70.5t70.5 28.5t70.5 -28.5t28.5 -70.5t-28.5 -70.5t-70.5 -28.5t-70.5 28.5t-28.5 70.5z" />
    <glyph glyph-name="copyright" unicode="&#xa9;" 
d="M460 419q-29 0 -50.5 -22.5t-21.5 -53.5q0 -26 17 -43t43 -17q38 0 62 38l86 -44q-28 -44 -69.5 -69.5t-87.5 -25.5q-64 0 -106.5 42.5t-42.5 107.5q0 77 53 132.5t127 55.5q55 0 96 -32t54 -85l-100 -31q-5 21 -21.5 34t-38.5 13zM478 610q-113 0 -192 -84.5t-79 -204.5
q0 -100 63.5 -164.5t161.5 -64.5q112 0 191.5 85.5t79.5 205.5q0 99 -63.5 163t-161.5 64zM99 310q0 170 113.5 290t274.5 120q141 0 233 -92t92 -233q0 -170 -114.5 -291.5t-274.5 -121.5q-140 0 -232 93t-92 235z" />
    <glyph glyph-name="ordfeminine" unicode="&#xaa;" horiz-adv-x="358" 
d="M343 700h99l-48 -277h-100zM395 373l-19 -106h-298l19 106h298zM280 610q-21 0 -35.5 -16.5t-14.5 -38.5q0 -19 11.5 -31t29.5 -12q20 0 33.5 16.5t13.5 39.5q0 18 -10.5 30t-27.5 12zM128 538q0 68 39.5 121.5t91.5 53.5q42 0 71.5 -32t29.5 -90q0 -69 -38.5 -122.5
t-97.5 -53.5q-46 0 -71 36.5t-25 86.5z" />
    <glyph glyph-name="guillemotleft" unicode="&#xab;" horiz-adv-x="640" 
d="M645 187l-33 -176l-245 133l40 234l295 143l-33 -196l-148 -66zM335 187l-33 -176l-245 143l40 224l295 143l-33 -196l-148 -66z" />
    <glyph glyph-name="logicalnot" unicode="&#xac;" horiz-adv-x="512" 
d="M554 380l-42 -240h-160l16 93h-302l26 147h462z" />
    <glyph glyph-name="uni00AD" unicode="&#xad;" horiz-adv-x="392" 
d="M427 340l-26 -147h-342l26 147h342z" />
    <glyph glyph-name="registered" unicode="&#xae;" 
d="M478 610q-113 0 -192 -84.5t-79 -204.5q0 -100 63.5 -164.5t161.5 -64.5q112 0 191.5 85.5t79.5 205.5q0 99 -63.5 163t-161.5 64zM99 310q0 170 113.5 290t274.5 120q141 0 233 -92t92 -233q0 -170 -114.5 -291.5t-274.5 -121.5q-140 0 -232 93t-92 235zM515 425h-92
l-11 -62h92q18 0 29.5 10t11.5 25q0 12 -8.5 19.5t-21.5 7.5zM526 292l73 -104h-114l-69 94h-18l-17 -94h-90l58 325h202q37 0 61 -30t24 -76q0 -39 -32 -72.5t-78 -42.5z" />
    <glyph glyph-name="macron" unicode="&#xaf;" horiz-adv-x="402" 
d="M500 700l-22 -127h-352l22 127h352z" />
    <glyph glyph-name="degree" unicode="&#xb0;" horiz-adv-x="488" 
d="M337 560q-31 0 -52.5 -22.5t-21.5 -53.5q0 -27 18 -44.5t46 -17.5q31 0 52.5 22.5t21.5 53.5q0 27 -18 44.5t-46 17.5zM112 468q0 100 69.5 171t168.5 71q87 0 144.5 -56t57.5 -140q0 -100 -69.5 -171t-168.5 -71q-87 0 -144.5 56t-57.5 140z" />
    <glyph glyph-name="plusminus" unicode="&#xb1;" horiz-adv-x="452" 
d="M438 60l-26 -147h-402l26 147h402zM242 508h147l-22 -128h127l-26 -147h-127l-23 -127h-147l23 127h-128l26 147h128z" />
    <glyph glyph-name="uni00B2" unicode="&#xb2;" horiz-adv-x="376" 
d="M469 699q11 62 -27.5 102.5t-103.5 40.5q-62 0 -108 -33t-73 -86l113 -42q14 31 37 31q10 0 15.5 -7.5t3.5 -19.5q-2 -11 -18 -23t-30 -18.5t-42 -18.5l-102 -42l-26 -147h316l22 126h-149l32 13q25 10 43.5 20t41 25.5t37 35.5t18.5 43z" />
    <glyph glyph-name="uni00B3" unicode="&#xb3;" horiz-adv-x="396" 
d="M367 656l115 46l24 136h-311l-21 -115h189l-80 -36l9 -81q20 0 29.5 -6.5t7.5 -17.5q-1 -10 -10 -16t-22 -6q-26 0 -27 26l-140 -21q5 -63 46.5 -99t107.5 -36q69 0 120 34.5t60 86.5q8 46 -19 75.5t-78 29.5z" />
    <glyph glyph-name="acute" unicode="&#xb4;" horiz-adv-x="306" 
d="M394 640l-64 105l-195 -122l61 -99z" />
    <glyph glyph-name="mu" unicode="&#xb5;" horiz-adv-x="628" 
d="M666 500l-88 -500h-170l88 500h170zM138 500h170l-123 -700h-170zM503 257q-20 -114 -75 -191t-116 -77q-63 0 -93.5 78.5t-11.5 189.5h58q-8 -45 15 -76.5t65 -31.5q40 0 70 29.5t38 78.5h50z" />
    <glyph glyph-name="paragraph" unicode="&#xb6;" horiz-adv-x="670" 
d="M620 0h-100l123 700h100zM137 478q0 89 72.5 155.5t172.5 66.5h197l-123 -700h-170l55 312h-17q-82 0 -134.5 47t-52.5 119z" />
    <glyph glyph-name="periodcentered" unicode="&#xb7;" horiz-adv-x="278" 
d="M96 369q0 48 30 80t75 32q48 0 80.5 -32t32.5 -80q0 -47 -31 -78t-78 -31t-78 31t-31 78z" />
    <glyph glyph-name="cedilla" unicode="&#xb8;" horiz-adv-x="405" 
d="M218 -178q0 13 -7.5 22t-20.5 9t-27 -11l-122 50l25 143l129 -11l-18 -103q36 33 77 33q42 0 69.5 -35t27.5 -88q0 -78 -52.5 -130.5t-130.5 -52.5q-72 0 -120.5 39.5t-57.5 103.5l134 33q1 -20 15 -32.5t36 -12.5q19 0 31 12t12 31z" />
    <glyph glyph-name="uni00B9" unicode="&#xb9;" horiz-adv-x="309" 
d="M427 837l-71 -400h-130l45 253l-59 -41l-51 93l133 95h133z" />
    <glyph glyph-name="ordmasculine" unicode="&#xba;" horiz-adv-x="358" 
d="M395 373l-19 -106h-298l19 106h298zM284 610q-22 0 -37.5 -16t-15.5 -38q0 -19 12.5 -31.5t32.5 -12.5q22 0 37.5 16t15.5 38q0 19 -12.5 31.5t-32.5 12.5zM130 545q0 69 47.5 117t114.5 48q60 0 99 -38t39 -95q0 -69 -47.5 -117t-114.5 -48q-60 0 -99 38t-39 95z" />
    <glyph glyph-name="guillemotright" unicode="&#xbb;" horiz-adv-x="640" 
d="M89 346l33 175l245 -143l-40 -224l-295 -143l33 197l147 66zM399 346l33 175l245 -143l-40 -224l-295 -143l33 197l147 66z" />
    <glyph glyph-name="onequarter" unicode="&#xbc;" horiz-adv-x="907" 
d="M653 167h51l12 69zM873 387l-39 -220h48l-19 -106h-48l-13 -74h-130l13 74h-176l21 120l199 206h144zM404 0h-197l370 700h197zM427 687l-71 -400h-130l45 253l-59 -41l-51 93l133 95h133z" />
    <glyph glyph-name="onehalf" unicode="&#xbd;" horiz-adv-x="869" 
d="M858 249q11 62 -27.5 102.5t-103.5 40.5q-62 0 -108 -33t-73 -86l113 -42q14 31 37 31q10 0 15.5 -7.5t3.5 -19.5q-2 -11 -18 -23t-30 -18.5t-42 -18.5l-102 -42l-26 -147h316l22 126h-149l32 13q25 10 43.5 20t41 25.5t37 35.5t18.5 43zM404 0h-197l370 700h197z
M427 687l-71 -400h-130l45 253l-59 -41l-51 93l133 95h133z" />
    <glyph glyph-name="threequarters" unicode="&#xbe;" horiz-adv-x="994" 
d="M740 167h51l12 69zM960 387l-39 -220h48l-19 -106h-48l-13 -74h-130l13 74h-176l21 120l199 206h144zM491 0h-197l370 700h197zM367 506l115 46l24 136h-311l-21 -115h189l-80 -36l9 -81q20 0 29.5 -6.5t7.5 -17.5q-1 -10 -10 -16t-22 -6q-26 0 -27 26l-140 -21
q5 -63 46.5 -99t107.5 -36q69 0 120 34.5t60 86.5q8 46 -19 75.5t-78 29.5z" />
    <glyph glyph-name="questiondown" unicode="&#xbf;" horiz-adv-x="551" 
d="M486 498.5q0 -47.5 -30.5 -79t-76.5 -31.5q-47 0 -79 32.5t-32 79.5t31 78t78 31t78 -31.5t31 -79zM294 48q-27 0 -44 15t-17 39q0 59 72 77l90 23l-26 148l-105 -28q-99 -26 -150 -86.5t-51 -151.5q0 -90 61 -148t157 -58q76 0 139.5 44.5t104.5 126.5l-146 70
q-32 -71 -85 -71z" />
    <glyph glyph-name="Agrave" unicode="&#xc0;" horiz-adv-x="804" 
d="M389 926l85 92l162 -153l-80 -88zM237 0h-203l380 700h234l136 -700h-189l-88 506zM274 297h375l-28 -158h-375z" />
    <glyph glyph-name="Aacute" unicode="&#xc1;" horiz-adv-x="804" 
d="M730 893l-65 105l-195 -121l62 -100zM237 0h-203l380 700h234l136 -700h-189l-88 506zM274 297h375l-28 -158h-375z" />
    <glyph glyph-name="Acircumflex" unicode="&#xc2;" horiz-adv-x="804" 
d="M568 998l-222 -126l46 -105l177 104l144 -110l75 94l-180 139zM237 0h-203l380 700h234l136 -700h-189l-88 506zM274 297h375l-28 -158h-375z" />
    <glyph glyph-name="Atilde" unicode="&#xc3;" horiz-adv-x="804" 
d="M489 951q-114 0 -157 -150l105 -18q19 59 51 59q15 0 37 -19q54 -46 99 -46q111 0 154 150l-104 18q-20 -56 -55 -56q-21 0 -39 18q-26 24 -46 34t-45 10zM237 0h-203l380 700h234l136 -700h-189l-88 506zM274 297h375l-28 -158h-375z" />
    <glyph glyph-name="Adieresis" unicode="&#xc4;" horiz-adv-x="804" 
d="M575 876q0 42 28.5 70.5t70.5 28.5t70.5 -28.5t28.5 -70.5t-28.5 -70.5t-70.5 -28.5t-70.5 28.5t-28.5 70.5zM315 876q0 42 28.5 70.5t70.5 28.5t70.5 -28.5t28.5 -70.5t-28.5 -70.5t-70.5 -28.5t-70.5 28.5t-28.5 70.5zM237 0h-203l380 700h234l136 -700h-189l-88 506z
M274 297h375l-28 -158h-375z" />
    <glyph glyph-name="Aring" unicode="&#xc5;" horiz-adv-x="804" 
d="M560 979q-22 0 -37.5 -16t-15.5 -38q0 -19 13 -31t32 -12q22 0 37.5 15.5t15.5 37.5q0 20 -13 32t-32 12zM402 915q0 69 48.5 119t117.5 50q61 0 101.5 -39t40.5 -99q0 -69 -48.5 -119t-117.5 -50q-61 0 -101.5 38.5t-40.5 99.5zM237 0h-203l380 700h234l136 -700h-189
l-88 506zM274 297h375l-28 -158h-375z" />
    <glyph glyph-name="AE" unicode="&#xc6;" horiz-adv-x="1051" 
d="M758 435h316l-30 -168h-316l-17 -99h340l-30 -168h-510l123 700h510l-29 -168h-340zM318 324h275l-29 -168h-275zM216 0h-193l484 700h137l-30 -174h-28z" />
    <glyph glyph-name="Ccedilla" unicode="&#xc7;" horiz-adv-x="778" 
d="M516 -178q0 13 -7.5 22t-20.5 9t-27 -11l-122 50l25 143l129 -11l-18 -103q36 33 77 33q42 0 69.5 -35t27.5 -88q0 -78 -52.5 -130.5t-130.5 -52.5q-72 0 -120.5 39.5t-57.5 103.5l134 33q1 -20 15 -32.5t36 -12.5q19 0 31 12t12 31zM88 323q0 169 114 283t284 114
q66 0 127 -22.5t117 -82t82 -149.5l-165 -55q-15 63 -62.5 101t-113.5 38q-87 0 -149.5 -65t-62.5 -155q0 -77 50.5 -127.5t126.5 -50.5q57 0 107.5 31t81.5 85l153 -86q-59 -97 -150.5 -149t-202.5 -52q-144 0 -240.5 98t-96.5 244z" />
    <glyph glyph-name="Egrave" unicode="&#xc8;" horiz-adv-x="595" 
d="M279 926l85 92l162 -153l-80 -88zM296 442h316l-29 -167h-316l-20 -108h342l-29 -167h-515l125 700h512l-29 -167h-342z" />
    <glyph glyph-name="Eacute" unicode="&#xc9;" horiz-adv-x="595" 
d="M620 893l-65 105l-195 -121l62 -100zM296 442h316l-29 -167h-316l-20 -108h342l-29 -167h-515l125 700h512l-29 -167h-342z" />
    <glyph glyph-name="Ecircumflex" unicode="&#xca;" horiz-adv-x="595" 
d="M458 998l-222 -126l46 -105l177 104l144 -110l75 94l-180 139zM296 442h316l-29 -167h-316l-20 -108h342l-29 -167h-515l125 700h512l-29 -167h-342z" />
    <glyph glyph-name="Edieresis" unicode="&#xcb;" horiz-adv-x="595" 
d="M465 876q0 42 28.5 70.5t70.5 28.5t70.5 -28.5t28.5 -70.5t-28.5 -70.5t-70.5 -28.5t-70.5 28.5t-28.5 70.5zM205 876q0 42 28.5 70.5t70.5 28.5t70.5 -28.5t28.5 -70.5t-28.5 -70.5t-70.5 -28.5t-70.5 28.5t-28.5 70.5zM296 442h316l-29 -167h-316l-20 -108h342
l-29 -167h-515l125 700h512l-29 -167h-342z" />
    <glyph glyph-name="Igrave" unicode="&#xcc;" horiz-adv-x="270" 
d="M110 924l85 92l162 -153l-80 -88zM217 0h-172l123 700h171z" />
    <glyph glyph-name="Iacute" unicode="&#xcd;" horiz-adv-x="270" 
d="M451 891l-65 105l-195 -121l62 -100zM217 0h-172l123 700h171z" />
    <glyph glyph-name="Icircumflex" unicode="&#xce;" horiz-adv-x="270" 
d="M289 996l-222 -126l46 -105l177 104l144 -110l75 94l-180 139zM217 0h-172l123 700h171z" />
    <glyph glyph-name="Idieresis" unicode="&#xcf;" horiz-adv-x="270" 
d="M296 874q0 42 28.5 70.5t70.5 28.5t70.5 -28.5t28.5 -70.5t-28.5 -70.5t-70.5 -28.5t-70.5 28.5t-28.5 70.5zM36 874q0 42 28.5 70.5t70.5 28.5t70.5 -28.5t28.5 -70.5t-28.5 -70.5t-70.5 -28.5t-70.5 28.5t-28.5 70.5zM217 0h-172l123 700h171z" />
    <glyph glyph-name="Eth" unicode="&#xd0;" horiz-adv-x="718" 
d="M740 399q0 -170 -115 -284.5t-292 -114.5h-269l124 700h249q125 0 214 -88.5t89 -212.5zM352 165q98 0 156.5 64.5t58.5 157.5q0 66 -41.5 107t-107.5 41h-86l-66 -370h86zM428 432l-26 -147h-352l26 147h352z" />
    <glyph glyph-name="Ntilde" unicode="&#xd1;" horiz-adv-x="700" 
d="M431 949q-114 0 -157 -150l105 -18q19 59 51 59q15 0 37 -19q54 -46 99 -46q111 0 154 150l-104 18q-20 -56 -55 -56q-21 0 -39 18q-26 24 -46 34t-45 10zM45 0l123 700h198l157 -438l77 438h171l-123 -700h-198l-157 438l-76 -438h-172z" />
    <glyph glyph-name="Ograve" unicode="&#xd2;" 
d="M339 926l85 92l162 -153l-80 -88zM472 550q-88 0 -150 -63.5t-62 -154.5q0 -79 50 -129.5t128 -50.5q88 0 150.5 65t62.5 155q0 78 -50.5 128t-128.5 50zM89 329q0 106 51.5 196t139.5 142.5t192 52.5q149 0 249 -99t100 -245q0 -106 -51.5 -197t-140 -144t-191.5 -53
q-148 0 -248.5 99.5t-100.5 247.5z" />
    <glyph glyph-name="Oacute" unicode="&#xd3;" 
d="M680 893l-65 105l-195 -121l62 -100zM472 550q-88 0 -150 -63.5t-62 -154.5q0 -79 50 -129.5t128 -50.5q88 0 150.5 65t62.5 155q0 78 -50.5 128t-128.5 50zM89 329q0 106 51.5 196t139.5 142.5t192 52.5q149 0 249 -99t100 -245q0 -106 -51.5 -197t-140 -144t-191.5 -53
q-148 0 -248.5 99.5t-100.5 247.5z" />
    <glyph glyph-name="Ocircumflex" unicode="&#xd4;" 
d="M518 998l-222 -126l46 -105l177 104l144 -110l75 94l-180 139zM472 550q-88 0 -150 -63.5t-62 -154.5q0 -79 50 -129.5t128 -50.5q88 0 150.5 65t62.5 155q0 78 -50.5 128t-128.5 50zM89 329q0 106 51.5 196t139.5 142.5t192 52.5q149 0 249 -99t100 -245
q0 -106 -51.5 -197t-140 -144t-191.5 -53q-148 0 -248.5 99.5t-100.5 247.5z" />
    <glyph glyph-name="Otilde" unicode="&#xd5;" 
d="M439 951q-114 0 -157 -150l105 -18q19 59 51 59q15 0 37 -19q54 -46 99 -46q111 0 154 150l-104 18q-20 -56 -55 -56q-21 0 -39 18q-26 24 -46 34t-45 10zM472 550q-88 0 -150 -63.5t-62 -154.5q0 -79 50 -129.5t128 -50.5q88 0 150.5 65t62.5 155q0 78 -50.5 128
t-128.5 50zM89 329q0 106 51.5 196t139.5 142.5t192 52.5q149 0 249 -99t100 -245q0 -106 -51.5 -197t-140 -144t-191.5 -53q-148 0 -248.5 99.5t-100.5 247.5z" />
    <glyph glyph-name="Odieresis" unicode="&#xd6;" 
d="M525 876q0 42 28.5 70.5t70.5 28.5t70.5 -28.5t28.5 -70.5t-28.5 -70.5t-70.5 -28.5t-70.5 28.5t-28.5 70.5zM265 876q0 42 28.5 70.5t70.5 28.5t70.5 -28.5t28.5 -70.5t-28.5 -70.5t-70.5 -28.5t-70.5 28.5t-28.5 70.5zM472 550q-88 0 -150 -63.5t-62 -154.5
q0 -79 50 -129.5t128 -50.5q88 0 150.5 65t62.5 155q0 78 -50.5 128t-128.5 50zM89 329q0 106 51.5 196t139.5 142.5t192 52.5q149 0 249 -99t100 -245q0 -106 -51.5 -197t-140 -144t-191.5 -53q-148 0 -248.5 99.5t-100.5 247.5z" />
    <glyph glyph-name="multiply" unicode="&#xd7;" horiz-adv-x="452" 
d="M95 357l118 104l74 -93l106 93l90 -104l-108 -91l76 -90l-117 -104l-74 93l-106 -93l-91 104l108 90z" />
    <glyph glyph-name="Oslash" unicode="&#xd8;" 
d="M472 550q-88 0 -150 -63.5t-62 -154.5q0 -79 50 -129.5t128 -50.5q88 0 150.5 65t62.5 155q0 78 -50.5 128t-128.5 50zM89 329q0 106 51.5 196t139.5 142.5t192 52.5q149 0 249 -99t100 -245q0 -106 -51.5 -197t-140 -144t-191.5 -53q-148 0 -248.5 99.5t-100.5 247.5z
M835 601l-637 -637l-135 135l637 637z" />
    <glyph glyph-name="Ugrave" unicode="&#xd9;" horiz-adv-x="690" 
d="M321 924l85 92l162 -153l-80 -88zM368 -11q-118 0 -195.5 74.5t-77.5 191.5q0 28 5 58l68 387h171l-69 -392q-3 -17 -3 -34q0 -8 1 -18t7.5 -28.5t18 -32.5t34.5 -25t55 -11q50 0 87 33.5t47 93.5l73 414h170l-76 -438q-22 -121 -111 -197t-205 -76z" />
    <glyph glyph-name="Uacute" unicode="&#xda;" horiz-adv-x="690" 
d="M662 891l-65 105l-195 -121l62 -100zM368 -11q-118 0 -195.5 74.5t-77.5 191.5q0 28 5 58l68 387h171l-69 -392q-3 -17 -3 -34q0 -8 1 -18t7.5 -28.5t18 -32.5t34.5 -25t55 -11q50 0 87 33.5t47 93.5l73 414h170l-76 -438q-22 -121 -111 -197t-205 -76z" />
    <glyph glyph-name="Ucircumflex" unicode="&#xdb;" horiz-adv-x="690" 
d="M500 996l-222 -126l46 -105l177 104l144 -110l75 94l-180 139zM368 -11q-118 0 -195.5 74.5t-77.5 191.5q0 28 5 58l68 387h171l-69 -392q-3 -17 -3 -34q0 -8 1 -18t7.5 -28.5t18 -32.5t34.5 -25t55 -11q50 0 87 33.5t47 93.5l73 414h170l-76 -438q-22 -121 -111 -197
t-205 -76z" />
    <glyph glyph-name="Udieresis" unicode="&#xdc;" horiz-adv-x="690" 
d="M507 874q0 42 28.5 70.5t70.5 28.5t70.5 -28.5t28.5 -70.5t-28.5 -70.5t-70.5 -28.5t-70.5 28.5t-28.5 70.5zM247 874q0 42 28.5 70.5t70.5 28.5t70.5 -28.5t28.5 -70.5t-28.5 -70.5t-70.5 -28.5t-70.5 28.5t-28.5 70.5zM368 -11q-118 0 -195.5 74.5t-77.5 191.5
q0 28 5 58l68 387h171l-69 -392q-3 -17 -3 -34q0 -8 1 -18t7.5 -28.5t18 -32.5t34.5 -25t55 -11q50 0 87 33.5t47 93.5l73 414h170l-76 -438q-22 -121 -111 -197t-205 -76z" />
    <glyph glyph-name="Yacute" unicode="&#xdd;" horiz-adv-x="698" 
d="M676 893l-65 105l-195 -121l62 -100zM272 0h170l39 220l316 480h-206l-165 -272l-88 272h-193l166 -480z" />
    <glyph glyph-name="Thorn" unicode="&#xde;" horiz-adv-x="648" 
d="M235 102l-18 -102h-172l125 700h171l-16 -90h117q97 0 168 -66.5t71 -158.5q0 -121 -85.5 -202t-213.5 -81h-147zM295 442l-30 -172h127q58 0 87 28.5t29 73.5q0 31 -24 50.5t-62 19.5h-127z" />
    <glyph glyph-name="germandbls" unicode="&#xdf;" horiz-adv-x="691" 
d="M714 568q0 -69 -34 -117.5t-98 -69.5q50 -17 80.5 -65.5t30.5 -110.5q0 -95 -65.5 -157.5t-162.5 -62.5q-83 0 -137.5 46.5t-62.5 124.5l166 41q1 -19 12 -30.5t29 -11.5q23 0 39.5 22.5t16.5 54.5t-23 53.5t-59 21.5h-77l29 165h77q28 0 47 18.5t19 46.5
q0 26 -24.5 41.5t-64.5 15.5q-62 0 -103.5 -40.5t-54.5 -113.5l-77 -440h-172l83 464q24 133 118.5 215t224.5 82q109 0 176 -53t67 -140z" />
    <glyph glyph-name="agrave" unicode="&#xe0;" horiz-adv-x="537" 
d="M198 716l85 92l162 -153l-80 -88zM321 512q93 0 158.5 -54t65.5 -130q0 -13 -2 -25l-52 -303h-171l32 188l-83 -5q-39 -2 -39 -26q0 -25 42 -25q33 0 54.5 14.5t25.5 38.5h34q-14 -86 -67.5 -140t-124.5 -54q-61 0 -99 39.5t-38 102.5q0 73 53 119.5t141 50.5l123 8v2
q1 2 1 5q0 18 -17.5 31t-41.5 13q-21 0 -39 -11t-26 -29l-155 68q30 55 92 88.5t133 33.5z" />
    <glyph glyph-name="aacute" unicode="&#xe1;" horiz-adv-x="537" 
d="M539 683l-65 105l-195 -121l62 -100zM321 512q93 0 158.5 -54t65.5 -130q0 -13 -2 -25l-52 -303h-171l32 188l-83 -5q-39 -2 -39 -26q0 -25 42 -25q33 0 54.5 14.5t25.5 38.5h34q-14 -86 -67.5 -140t-124.5 -54q-61 0 -99 39.5t-38 102.5q0 73 53 119.5t141 50.5l123 8v2
q1 2 1 5q0 18 -17.5 31t-41.5 13q-21 0 -39 -11t-26 -29l-155 68q30 55 92 88.5t133 33.5z" />
    <glyph glyph-name="acircumflex" unicode="&#xe2;" horiz-adv-x="537" 
d="M377 788l-222 -126l46 -105l177 104l144 -110l75 94l-180 139zM321 512q93 0 158.5 -54t65.5 -130q0 -13 -2 -25l-52 -303h-171l32 188l-83 -5q-39 -2 -39 -26q0 -25 42 -25q33 0 54.5 14.5t25.5 38.5h34q-14 -86 -67.5 -140t-124.5 -54q-61 0 -99 39.5t-38 102.5
q0 73 53 119.5t141 50.5l123 8v2q1 2 1 5q0 18 -17.5 31t-41.5 13q-21 0 -39 -11t-26 -29l-155 68q30 55 92 88.5t133 33.5z" />
    <glyph glyph-name="atilde" unicode="&#xe3;" horiz-adv-x="537" 
d="M298 741q-114 0 -157 -150l105 -18q19 59 51 59q15 0 37 -19q54 -46 99 -46q111 0 154 150l-104 18q-20 -56 -55 -56q-21 0 -39 18q-26 24 -46 34t-45 10zM321 512q93 0 158.5 -54t65.5 -130q0 -13 -2 -25l-52 -303h-171l32 188l-83 -5q-39 -2 -39 -26q0 -25 42 -25
q33 0 54.5 14.5t25.5 38.5h34q-14 -86 -67.5 -140t-124.5 -54q-61 0 -99 39.5t-38 102.5q0 73 53 119.5t141 50.5l123 8v2q1 2 1 5q0 18 -17.5 31t-41.5 13q-21 0 -39 -11t-26 -29l-155 68q30 55 92 88.5t133 33.5z" />
    <glyph glyph-name="adieresis" unicode="&#xe4;" horiz-adv-x="537" 
d="M384 666q0 42 28.5 70.5t70.5 28.5t70.5 -28.5t28.5 -70.5t-28.5 -70.5t-70.5 -28.5t-70.5 28.5t-28.5 70.5zM124 666q0 42 28.5 70.5t70.5 28.5t70.5 -28.5t28.5 -70.5t-28.5 -70.5t-70.5 -28.5t-70.5 28.5t-28.5 70.5zM321 512q93 0 158.5 -54t65.5 -130q0 -13 -2 -25
l-52 -303h-171l32 188l-83 -5q-39 -2 -39 -26q0 -25 42 -25q33 0 54.5 14.5t25.5 38.5h34q-14 -86 -67.5 -140t-124.5 -54q-61 0 -99 39.5t-38 102.5q0 73 53 119.5t141 50.5l123 8v2q1 2 1 5q0 18 -17.5 31t-41.5 13q-21 0 -39 -11t-26 -29l-155 68q30 55 92 88.5t133 33.5
z" />
    <glyph glyph-name="aring" unicode="&#xe5;" horiz-adv-x="537" 
d="M369 769q-22 0 -37.5 -16t-15.5 -38q0 -19 13 -31t32 -12q22 0 37.5 15.5t15.5 37.5q0 20 -13 32t-32 12zM211 705q0 69 48.5 119t117.5 50q61 0 101.5 -39t40.5 -99q0 -69 -48.5 -119t-117.5 -50q-61 0 -101.5 38.5t-40.5 99.5zM321 512q93 0 158.5 -54t65.5 -130
q0 -13 -2 -25l-52 -303h-171l32 188l-83 -5q-39 -2 -39 -26q0 -25 42 -25q33 0 54.5 14.5t25.5 38.5h34q-14 -86 -67.5 -140t-124.5 -54q-61 0 -99 39.5t-38 102.5q0 73 53 119.5t141 50.5l123 8v2q1 2 1 5q0 18 -17.5 31t-41.5 13q-21 0 -39 -11t-26 -29l-155 68
q30 55 92 88.5t133 33.5z" />
    <glyph glyph-name="ae" unicode="&#xe6;" horiz-adv-x="889" 
d="M897 274q0 -36 -10 -79h-348q7 -27 34 -42.5t65 -15.5q62 0 92 47l138 -90q-90 -112 -236 -112q-108 0 -178.5 70.5t-70.5 179.5q0 119 77.5 203.5t186.5 84.5q107 0 178.5 -70.5t71.5 -175.5zM728 330q-9 16 -30.5 25.5t-49.5 9.5q-63 0 -96 -45h180q-2 6 -4 10z
M311 512q84 0 139 -52t55 -132q0 -2 -2 -25l-10 -118q-12 -93 -74 -143.5t-165 -50.5q-87 0 -142 39.5t-55 102.5q0 73 53 119.5t141 50.5l123 8v2q1 2 1 5q0 18 -17.5 31t-41.5 13q-21 0 -39 -11t-26 -29l-155 68q29 55 88 88.5t127 33.5zM357 175l1 13l-89 -5
q-39 -2 -39 -26q0 -25 52 -25q29 0 51.5 14t23.5 29z" />
    <glyph glyph-name="ccedilla" unicode="&#xe7;" horiz-adv-x="594" 
d="M398 -178q0 13 -7.5 22t-20.5 9t-27 -11l-122 50l25 143l129 -11l-18 -103q36 33 77 33q42 0 69.5 -35t27.5 -88q0 -78 -52.5 -130.5t-130.5 -52.5q-72 0 -120.5 39.5t-57.5 103.5l134 33q1 -20 15 -32.5t36 -12.5q19 0 31 12t12 31zM359 359q-47 0 -80.5 -35.5
t-33.5 -86.5q0 -42 27 -69t70 -27q64 0 101 54l141 -88q-43 -59 -109.5 -92.5t-142.5 -33.5q-112 0 -184.5 69t-72.5 174q0 122 86.5 209t209.5 87q92 0 162 -48.5t94 -128.5l-167 -60q-8 35 -35.5 55.5t-65.5 20.5z" />
    <glyph glyph-name="egrave" unicode="&#xe8;" horiz-adv-x="592" 
d="M226 717l85 92l162 -153l-80 -88zM438 330q-9 16 -30.5 25.5t-49.5 9.5q-63 0 -96 -45h180q-2 6 -4 10zM607 274q0 -36 -10 -79h-348q7 -27 34 -42.5t65 -15.5q62 0 92 47l138 -90q-90 -112 -236 -112q-117 0 -193 70.5t-76 179.5q0 119 83 203.5t201 84.5
q107 0 178.5 -70.5t71.5 -175.5z" />
    <glyph glyph-name="eacute" unicode="&#xe9;" horiz-adv-x="592" 
d="M567 684l-65 105l-195 -121l62 -100zM438 330q-9 16 -30.5 25.5t-49.5 9.5q-63 0 -96 -45h180q-2 6 -4 10zM607 274q0 -36 -10 -79h-348q7 -27 34 -42.5t65 -15.5q62 0 92 47l138 -90q-90 -112 -236 -112q-117 0 -193 70.5t-76 179.5q0 119 83 203.5t201 84.5
q107 0 178.5 -70.5t71.5 -175.5z" />
    <glyph glyph-name="ecircumflex" unicode="&#xea;" horiz-adv-x="592" 
d="M405 789l-222 -126l46 -105l177 104l144 -110l75 94l-180 139zM438 330q-9 16 -30.5 25.5t-49.5 9.5q-63 0 -96 -45h180q-2 6 -4 10zM607 274q0 -36 -10 -79h-348q7 -27 34 -42.5t65 -15.5q62 0 92 47l138 -90q-90 -112 -236 -112q-117 0 -193 70.5t-76 179.5
q0 119 83 203.5t201 84.5q107 0 178.5 -70.5t71.5 -175.5z" />
    <glyph glyph-name="edieresis" unicode="&#xeb;" horiz-adv-x="592" 
d="M412 667q0 42 28.5 70.5t70.5 28.5t70.5 -28.5t28.5 -70.5t-28.5 -70.5t-70.5 -28.5t-70.5 28.5t-28.5 70.5zM152 667q0 42 28.5 70.5t70.5 28.5t70.5 -28.5t28.5 -70.5t-28.5 -70.5t-70.5 -28.5t-70.5 28.5t-28.5 70.5zM438 330q-9 16 -30.5 25.5t-49.5 9.5
q-63 0 -96 -45h180q-2 6 -4 10zM607 274q0 -36 -10 -79h-348q7 -27 34 -42.5t65 -15.5q62 0 92 47l138 -90q-90 -112 -236 -112q-117 0 -193 70.5t-76 179.5q0 119 83 203.5t201 84.5q107 0 178.5 -70.5t71.5 -175.5z" />
    <glyph glyph-name="igrave" unicode="&#xec;" horiz-adv-x="262" 
d="M69 717l85 92l162 -153l-80 -88zM45 0l88 500h172l-88 -500h-172z" />
    <glyph glyph-name="iacute" unicode="&#xed;" horiz-adv-x="262" 
d="M410 684l-65 105l-195 -121l62 -100zM45 0l88 500h172l-88 -500h-172z" />
    <glyph glyph-name="icircumflex" unicode="&#xee;" horiz-adv-x="262" 
d="M248 789l-222 -126l46 -105l177 104l144 -110l75 94l-180 139zM45 0l88 500h172l-88 -500h-172z" />
    <glyph glyph-name="idieresis" unicode="&#xef;" horiz-adv-x="262" 
d="M255 667q0 42 28.5 70.5t70.5 28.5t70.5 -28.5t28.5 -70.5t-28.5 -70.5t-70.5 -28.5t-70.5 28.5t-28.5 70.5zM-5 667q0 42 28.5 70.5t70.5 28.5t70.5 -28.5t28.5 -70.5t-28.5 -70.5t-70.5 -28.5t-70.5 28.5t-28.5 70.5zM45 0l88 500h172l-88 -500h-172z" />
    <glyph glyph-name="eth" unicode="&#xf0;" horiz-adv-x="610" 
d="M619 748l-303 -203l58 -88l301 198zM435 226q0 -30 -31 -51.5t-75 -21.5q-40 0 -67 19.5t-27 48.5q0 31 27 50.5t69 19.5q44 0 74 -18.5t30 -46.5zM63 200q0 -94 72.5 -155.5t182.5 -61.5q178 0 257 131q64 106 64 299q0 146 -68.5 239.5t-193.5 117.5l-78 -155
q175 -48 175 -206q0 -13 -2 -29q-19 28 -66.5 46.5t-99.5 18.5q-98 0 -170.5 -73t-72.5 -172z" />
    <glyph glyph-name="ntilde" unicode="&#xf1;" horiz-adv-x="588" 
d="M337 741q-114 0 -157 -150l105 -18q19 59 51 59q15 0 37 -19q54 -46 99 -46q111 0 154 150l-104 18q-20 -56 -55 -56q-21 0 -39 18q-26 24 -46 34t-45 10zM46 0l89 500h173l-88 -500h-174zM371 0l45 275q7 40 -10.5 65t-51.5 25q-31 0 -54.5 -21.5t-30.5 -57.5h-56
q9 50 42 102t84 88.5t102 36.5q86 0 127 -67t22 -176l-47 -270h-172z" />
    <glyph glyph-name="ograve" unicode="&#xf2;" horiz-adv-x="618" 
d="M252 716l85 92l162 -153l-80 -88zM363 360q-50 0 -84.5 -35.5t-34.5 -85.5q0 -43 29 -70t72 -27q50 0 84.5 35.5t34.5 85.5q0 43 -29 70t-72 27zM74 226q0 121 87 207.5t213 86.5q111 0 185.5 -68.5t74.5 -175.5q0 -121 -87 -207.5t-213 -86.5q-111 0 -185.5 68.5
t-74.5 175.5z" />
    <glyph glyph-name="oacute" unicode="&#xf3;" horiz-adv-x="618" 
d="M593 683l-65 105l-195 -121l62 -100zM363 360q-50 0 -84.5 -35.5t-34.5 -85.5q0 -43 29 -70t72 -27q50 0 84.5 35.5t34.5 85.5q0 43 -29 70t-72 27zM74 226q0 121 87 207.5t213 86.5q111 0 185.5 -68.5t74.5 -175.5q0 -121 -87 -207.5t-213 -86.5q-111 0 -185.5 68.5
t-74.5 175.5z" />
    <glyph glyph-name="ocircumflex" unicode="&#xf4;" horiz-adv-x="618" 
d="M431 788l-222 -126l46 -105l177 104l144 -110l75 94l-180 139zM363 360q-50 0 -84.5 -35.5t-34.5 -85.5q0 -43 29 -70t72 -27q50 0 84.5 35.5t34.5 85.5q0 43 -29 70t-72 27zM74 226q0 121 87 207.5t213 86.5q111 0 185.5 -68.5t74.5 -175.5q0 -121 -87 -207.5
t-213 -86.5q-111 0 -185.5 68.5t-74.5 175.5z" />
    <glyph glyph-name="otilde" unicode="&#xf5;" horiz-adv-x="618" 
d="M352 741q-114 0 -157 -150l105 -18q19 59 51 59q15 0 37 -19q54 -46 99 -46q111 0 154 150l-104 18q-20 -56 -55 -56q-21 0 -39 18q-26 24 -46 34t-45 10zM363 360q-50 0 -84.5 -35.5t-34.5 -85.5q0 -43 29 -70t72 -27q50 0 84.5 35.5t34.5 85.5q0 43 -29 70t-72 27z
M74 226q0 121 87 207.5t213 86.5q111 0 185.5 -68.5t74.5 -175.5q0 -121 -87 -207.5t-213 -86.5q-111 0 -185.5 68.5t-74.5 175.5z" />
    <glyph glyph-name="odieresis" unicode="&#xf6;" horiz-adv-x="618" 
d="M438 666q0 42 28.5 70.5t70.5 28.5t70.5 -28.5t28.5 -70.5t-28.5 -70.5t-70.5 -28.5t-70.5 28.5t-28.5 70.5zM178 666q0 42 28.5 70.5t70.5 28.5t70.5 -28.5t28.5 -70.5t-28.5 -70.5t-70.5 -28.5t-70.5 28.5t-28.5 70.5zM363 360q-50 0 -84.5 -35.5t-34.5 -85.5
q0 -43 29 -70t72 -27q50 0 84.5 35.5t34.5 85.5q0 43 -29 70t-72 27zM74 226q0 121 87 207.5t213 86.5q111 0 185.5 -68.5t74.5 -175.5q0 -121 -87 -207.5t-213 -86.5q-111 0 -185.5 68.5t-74.5 175.5z" />
    <glyph glyph-name="divide" unicode="&#xf7;" horiz-adv-x="452" 
d="M200 477q0 48 30 80t75 32q48 0 80.5 -32t32.5 -80q0 -47 -31 -78t-78 -31t-78 31t-31 78zM120 49q0 48 30 80t75 32q48 0 80.5 -32t32.5 -80q0 -47 -31 -78t-78 -31t-78 31t-31 78zM488 340l-26 -147h-402l26 147h402z" />
    <glyph glyph-name="oslash" unicode="&#xf8;" horiz-adv-x="618" 
d="M363 360q-50 0 -84.5 -35.5t-34.5 -85.5q0 -43 29 -70t72 -27q50 0 84.5 35.5t34.5 85.5q0 43 -29 70t-72 27zM74 226q0 121 87 207.5t213 86.5q111 0 185.5 -68.5t74.5 -175.5q0 -121 -87 -207.5t-213 -86.5q-111 0 -185.5 68.5t-74.5 175.5zM563 537l75 -75l-495 -495
l-75 75z" />
    <glyph glyph-name="ugrave" unicode="&#xf9;" horiz-adv-x="568" 
d="M218 713l85 92l162 -153l-80 -88zM609 500l-88 -500h-172l87 500h173zM306 500l-52 -293q-5 -29 9.5 -49t44.5 -20q29 0 50 15t25 43h57q-15 -83 -78 -144.5t-138 -61.5q-78 0 -119.5 54.5t-24.5 152.5l54 303h172z" />
    <glyph glyph-name="uacute" unicode="&#xfa;" horiz-adv-x="568" 
d="M559 680l-65 105l-195 -121l62 -100zM609 500l-88 -500h-172l87 500h173zM306 500l-52 -293q-5 -29 9.5 -49t44.5 -20q29 0 50 15t25 43h57q-15 -83 -78 -144.5t-138 -61.5q-78 0 -119.5 54.5t-24.5 152.5l54 303h172z" />
    <glyph glyph-name="ucircumflex" unicode="&#xfb;" horiz-adv-x="568" 
d="M397 785l-222 -126l46 -105l177 104l144 -110l75 94l-180 139zM609 500l-88 -500h-172l87 500h173zM306 500l-52 -293q-5 -29 9.5 -49t44.5 -20q29 0 50 15t25 43h57q-15 -83 -78 -144.5t-138 -61.5q-78 0 -119.5 54.5t-24.5 152.5l54 303h172z" />
    <glyph glyph-name="udieresis" unicode="&#xfc;" horiz-adv-x="568" 
d="M404 663q0 42 28.5 70.5t70.5 28.5t70.5 -28.5t28.5 -70.5t-28.5 -70.5t-70.5 -28.5t-70.5 28.5t-28.5 70.5zM144 663q0 42 28.5 70.5t70.5 28.5t70.5 -28.5t28.5 -70.5t-28.5 -70.5t-70.5 -28.5t-70.5 28.5t-28.5 70.5zM609 500l-88 -500h-172l87 500h173zM306 500
l-52 -293q-5 -29 9.5 -49t44.5 -20q29 0 50 15t25 43h57q-15 -83 -78 -144.5t-138 -61.5q-78 0 -119.5 54.5t-24.5 152.5l54 303h172z" />
    <glyph glyph-name="yacute" unicode="&#xfd;" horiz-adv-x="624" 
d="M587 682l-65 105l-195 -121l62 -100zM501 500l-164 -310l-50 310h-173l98 -481l-121 -219h186l410 700h-186z" />
    <glyph glyph-name="thorn" unicode="&#xfe;" horiz-adv-x="638" 
d="M12 -200l167 950h171l-167 -950h-171zM381 360q-50 0 -84.5 -35.5t-34.5 -84.5q0 -42 29 -70t72 -28q50 0 84.5 36t34.5 85q0 42 -29 69.5t-72 27.5zM206 203q0 80 32.5 151.5t90.5 116t127 44.5q86 0 141.5 -64t55.5 -164q0 -80 -34 -151t-93 -114.5t-129 -43.5
q-85 0 -138 63t-53 162z" />
    <glyph glyph-name="ydieresis" unicode="&#xff;" horiz-adv-x="624" 
d="M432 665q0 42 28.5 70.5t70.5 28.5t70.5 -28.5t28.5 -70.5t-28.5 -70.5t-70.5 -28.5t-70.5 28.5t-28.5 70.5zM172 665q0 42 28.5 70.5t70.5 28.5t70.5 -28.5t28.5 -70.5t-28.5 -70.5t-70.5 -28.5t-70.5 28.5t-28.5 70.5zM501 500l-164 -310l-50 310h-173l98 -481
l-121 -219h186l410 700h-186z" />
    <glyph glyph-name="Amacron" unicode="&#x100;" horiz-adv-x="804" 
d="M736 914l-22 -127h-352l22 127h352zM237 0h-203l380 700h234l136 -700h-189l-88 506zM274 297h375l-28 -158h-375z" />
    <glyph glyph-name="amacron" unicode="&#x101;" horiz-adv-x="537" 
d="M545 704l-22 -127h-352l22 127h352zM321 512q93 0 158.5 -54t65.5 -130q0 -13 -2 -25l-52 -303h-171l32 188l-83 -5q-39 -2 -39 -26q0 -25 42 -25q33 0 54.5 14.5t25.5 38.5h34q-14 -86 -67.5 -140t-124.5 -54q-61 0 -99 39.5t-38 102.5q0 73 53 119.5t141 50.5l123 8v2
q1 2 1 5q0 18 -17.5 31t-41.5 13q-21 0 -39 -11t-26 -29l-155 68q30 55 92 88.5t133 33.5z" />
    <glyph glyph-name="Abreve" unicode="&#x102;" horiz-adv-x="804" 
d="M547 778q-78 0 -128.5 46t-50.5 115q0 15 3 31h119q-1 -7 -1 -14q0 -28 19.5 -45.5t51.5 -17.5q38 0 68 22.5t36 54.5h135q-14 -77 -89 -134.5t-163 -57.5zM237 0h-203l380 700h234l136 -700h-189l-88 506zM274 297h375l-28 -158h-375z" />
    <glyph glyph-name="abreve" unicode="&#x103;" horiz-adv-x="537" 
d="M356 568q-78 0 -128.5 46t-50.5 115q0 15 3 31h119q-1 -7 -1 -14q0 -28 19.5 -45.5t51.5 -17.5q38 0 68 22.5t36 54.5h135q-14 -77 -89 -134.5t-163 -57.5zM321 512q93 0 158.5 -54t65.5 -130q0 -13 -2 -25l-52 -303h-171l32 188l-83 -5q-39 -2 -39 -26q0 -25 42 -25
q33 0 54.5 14.5t25.5 38.5h34q-14 -86 -67.5 -140t-124.5 -54q-61 0 -99 39.5t-38 102.5q0 73 53 119.5t141 50.5l123 8v2q1 2 1 5q0 18 -17.5 31t-41.5 13q-21 0 -39 -11t-26 -29l-155 68q30 55 92 88.5t133 33.5z" />
    <glyph glyph-name="Aogonek" unicode="&#x104;" horiz-adv-x="804" 
d="M621 -317q-63 0 -104 35t-41 88q0 50 26 85t86 67l31 16l6 36h118l-13 -73l-77 -41q-54 -28 -54 -66q0 -13 8 -21t22 -8q27 0 38 26l110 -29q-23 -54 -64.5 -84.5t-91.5 -30.5zM237 0h-203l380 700h234l136 -700h-189l-88 506zM274 297h375l-28 -158h-375z" />
    <glyph glyph-name="aogonek" unicode="&#x105;" horiz-adv-x="537" 
d="M347 -317q-63 0 -104 35t-41 88q0 50 26 85t86 67l31 16l6 36h118l-13 -73l-77 -41q-54 -28 -54 -66q0 -13 8 -21t22 -8q27 0 38 26l110 -29q-23 -54 -64.5 -84.5t-91.5 -30.5zM321 512q93 0 158.5 -54t65.5 -130q0 -13 -2 -25l-52 -303h-171l32 188l-83 -5
q-39 -2 -39 -26q0 -25 42 -25q33 0 54.5 14.5t25.5 38.5h34q-14 -86 -67.5 -140t-124.5 -54q-61 0 -99 39.5t-38 102.5q0 73 53 119.5t141 50.5l123 8v2q1 2 1 5q0 18 -17.5 31t-41.5 13q-21 0 -39 -11t-26 -29l-155 68q30 55 92 88.5t133 33.5z" />
    <glyph glyph-name="Cacute" unicode="&#x106;" horiz-adv-x="778" 
d="M713 891l-65 105l-195 -121l62 -100zM88 323q0 169 114 283t284 114q66 0 127 -22.5t117 -82t82 -149.5l-165 -55q-15 63 -62.5 101t-113.5 38q-87 0 -149.5 -65t-62.5 -155q0 -77 50.5 -127.5t126.5 -50.5q57 0 107.5 31t81.5 85l153 -86q-59 -97 -150.5 -149
t-202.5 -52q-144 0 -240.5 98t-96.5 244z" />
    <glyph glyph-name="cacute" unicode="&#x107;" horiz-adv-x="594" 
d="M591 682l-65 105l-195 -121l62 -100zM359 359q-47 0 -80.5 -35.5t-33.5 -86.5q0 -42 27 -69t70 -27q64 0 101 54l141 -88q-43 -59 -109.5 -92.5t-142.5 -33.5q-112 0 -184.5 69t-72.5 174q0 122 86.5 209t209.5 87q92 0 162 -48.5t94 -128.5l-167 -60q-8 35 -35.5 55.5
t-65.5 20.5z" />
    <glyph glyph-name="Ccircumflex" unicode="&#x108;" horiz-adv-x="778" 
d="M551 996l-222 -126l46 -105l177 104l144 -110l75 94l-180 139zM88 323q0 169 114 283t284 114q66 0 127 -22.5t117 -82t82 -149.5l-165 -55q-15 63 -62.5 101t-113.5 38q-87 0 -149.5 -65t-62.5 -155q0 -77 50.5 -127.5t126.5 -50.5q57 0 107.5 31t81.5 85l153 -86
q-59 -97 -150.5 -149t-202.5 -52q-144 0 -240.5 98t-96.5 244z" />
    <glyph glyph-name="ccircumflex" unicode="&#x109;" horiz-adv-x="594" 
d="M429 787l-222 -126l46 -105l177 104l144 -110l75 94l-180 139zM359 359q-47 0 -80.5 -35.5t-33.5 -86.5q0 -42 27 -69t70 -27q64 0 101 54l141 -88q-43 -59 -109.5 -92.5t-142.5 -33.5q-112 0 -184.5 69t-72.5 174q0 122 86.5 209t209.5 87q92 0 162 -48.5t94 -128.5
l-167 -60q-8 35 -35.5 55.5t-65.5 20.5z" />
    <glyph glyph-name="Cdotaccent" unicode="&#x10a;" horiz-adv-x="778" 
d="M429 874q0 42 28.5 70.5t70.5 28.5t70.5 -28.5t28.5 -70.5t-28.5 -70.5t-70.5 -28.5t-70.5 28.5t-28.5 70.5zM88 323q0 169 114 283t284 114q66 0 127 -22.5t117 -82t82 -149.5l-165 -55q-15 63 -62.5 101t-113.5 38q-87 0 -149.5 -65t-62.5 -155q0 -77 50.5 -127.5
t126.5 -50.5q57 0 107.5 31t81.5 85l153 -86q-59 -97 -150.5 -149t-202.5 -52q-144 0 -240.5 98t-96.5 244z" />
    <glyph glyph-name="cdotaccent" unicode="&#x10b;" horiz-adv-x="594" 
d="M307 665q0 42 28.5 70.5t70.5 28.5t70.5 -28.5t28.5 -70.5t-28.5 -70.5t-70.5 -28.5t-70.5 28.5t-28.5 70.5zM359 359q-47 0 -80.5 -35.5t-33.5 -86.5q0 -42 27 -69t70 -27q64 0 101 54l141 -88q-43 -59 -109.5 -92.5t-142.5 -33.5q-112 0 -184.5 69t-72.5 174
q0 122 86.5 209t209.5 87q92 0 162 -48.5t94 -128.5l-167 -60q-8 35 -35.5 55.5t-65.5 20.5z" />
    <glyph glyph-name="Ccaron" unicode="&#x10c;" horiz-adv-x="778" 
d="M548 762l221 125l-45 105l-177 -104l-145 111l-74 -95l180 -139zM88 323q0 169 114 283t284 114q66 0 127 -22.5t117 -82t82 -149.5l-165 -55q-15 63 -62.5 101t-113.5 38q-87 0 -149.5 -65t-62.5 -155q0 -77 50.5 -127.5t126.5 -50.5q57 0 107.5 31t81.5 85l153 -86
q-59 -97 -150.5 -149t-202.5 -52q-144 0 -240.5 98t-96.5 244z" />
    <glyph glyph-name="ccaron" unicode="&#x10d;" horiz-adv-x="594" 
d="M426 553l221 125l-45 105l-177 -104l-145 111l-74 -95l180 -139zM359 359q-47 0 -80.5 -35.5t-33.5 -86.5q0 -42 27 -69t70 -27q64 0 101 54l141 -88q-43 -59 -109.5 -92.5t-142.5 -33.5q-112 0 -184.5 69t-72.5 174q0 122 86.5 209t209.5 87q92 0 162 -48.5t94 -128.5
l-167 -60q-8 35 -35.5 55.5t-65.5 20.5z" />
    <glyph glyph-name="Dcaron" unicode="&#x10e;" horiz-adv-x="708" 
d="M410 764l221 125l-45 105l-177 -104l-145 111l-74 -95l180 -139zM740 399q0 -170 -115 -284.5t-292 -114.5h-289l124 700h269q125 0 214 -88.5t89 -212.5zM352 165q98 0 156.5 64.5t58.5 157.5q0 66 -41.5 107t-107.5 41h-106l-66 -370h106z" />
    <glyph glyph-name="dcaron" unicode="&#x10f;" horiz-adv-x="877" 
d="M840 799l142 -43l-103 -251l-138 41zM595 0h-171l131 750h171zM350 142q50 0 84.5 36t34.5 85q0 42 -29 69.5t-72 27.5q-50 0 -84.5 -35.5t-34.5 -84.5q0 -42 29 -70t72 -28zM525 300q0 -80 -32.5 -151.5t-90.5 -116t-127 -44.5q-86 0 -141.5 64t-55.5 164q0 80 34 151
t93 114.5t129 43.5q85 0 138 -63t53 -162z" />
    <glyph glyph-name="Dcroat" unicode="&#x110;" horiz-adv-x="718" 
d="M740 399q0 -170 -115 -284.5t-292 -114.5h-269l124 700h249q125 0 214 -88.5t89 -212.5zM352 165q98 0 156.5 64.5t58.5 157.5q0 66 -41.5 107t-107.5 41h-86l-66 -370h86zM428 432l-26 -147h-352l26 147h352z" />
    <glyph glyph-name="dcroat" unicode="&#x111;" horiz-adv-x="668" 
d="M525 300q0 -80 -32.5 -151.5t-90.5 -116t-127 -44.5q-86 0 -141.5 64t-55.5 164q0 80 34 151t93 114.5t129 43.5q85 0 138 -63t53 -162zM350 142q50 0 84.5 36t34.5 85q0 42 -29 69.5t-72 27.5q-50 0 -84.5 -35.5t-34.5 -84.5q0 -42 29 -70t72 -28zM595 0h-171l99 566
h-177l23 134h178l8 50h171l-9 -50h74l-23 -134h-74z" />
    <glyph glyph-name="Emacron" unicode="&#x112;" horiz-adv-x="595" 
d="M626 914l-22 -127h-352l22 127h352zM296 442h316l-29 -167h-316l-20 -108h342l-29 -167h-515l125 700h512l-29 -167h-342z" />
    <glyph glyph-name="emacron" unicode="&#x113;" horiz-adv-x="592" 
d="M573 705l-22 -127h-352l22 127h352zM438 330q-9 16 -30.5 25.5t-49.5 9.5q-63 0 -96 -45h180q-2 6 -4 10zM607 274q0 -36 -10 -79h-348q7 -27 34 -42.5t65 -15.5q62 0 92 47l138 -90q-90 -112 -236 -112q-117 0 -193 70.5t-76 179.5q0 119 83 203.5t201 84.5
q107 0 178.5 -70.5t71.5 -175.5z" />
    <glyph glyph-name="Ebreve" unicode="&#x114;" horiz-adv-x="595" 
d="M437 778q-78 0 -128.5 46t-50.5 115q0 15 3 31h119q-1 -7 -1 -14q0 -28 19.5 -45.5t51.5 -17.5q38 0 68 22.5t36 54.5h135q-14 -77 -89 -134.5t-163 -57.5zM296 442h316l-29 -167h-316l-20 -108h342l-29 -167h-515l125 700h512l-29 -167h-342z" />
    <glyph glyph-name="ebreve" unicode="&#x115;" horiz-adv-x="592" 
d="M384 569q-78 0 -128.5 46t-50.5 115q0 15 3 31h119q-1 -7 -1 -14q0 -28 19.5 -45.5t51.5 -17.5q38 0 68 22.5t36 54.5h135q-14 -77 -89 -134.5t-163 -57.5zM438 330q-9 16 -30.5 25.5t-49.5 9.5q-63 0 -96 -45h180q-2 6 -4 10zM607 274q0 -36 -10 -79h-348
q7 -27 34 -42.5t65 -15.5q62 0 92 47l138 -90q-90 -112 -236 -112q-117 0 -193 70.5t-76 179.5q0 119 83 203.5t201 84.5q107 0 178.5 -70.5t71.5 -175.5z" />
    <glyph glyph-name="Edotaccent" unicode="&#x116;" horiz-adv-x="595" 
d="M336 876q0 42 28.5 70.5t70.5 28.5t70.5 -28.5t28.5 -70.5t-28.5 -70.5t-70.5 -28.5t-70.5 28.5t-28.5 70.5zM296 442h316l-29 -167h-316l-20 -108h342l-29 -167h-515l125 700h512l-29 -167h-342z" />
    <glyph glyph-name="edotaccent" unicode="&#x117;" horiz-adv-x="592" 
d="M283 667q0 42 28.5 70.5t70.5 28.5t70.5 -28.5t28.5 -70.5t-28.5 -70.5t-70.5 -28.5t-70.5 28.5t-28.5 70.5zM438 330q-9 16 -30.5 25.5t-49.5 9.5q-63 0 -96 -45h180q-2 6 -4 10zM607 274q0 -36 -10 -79h-348q7 -27 34 -42.5t65 -15.5q62 0 92 47l138 -90
q-90 -112 -236 -112q-117 0 -193 70.5t-76 179.5q0 119 83 203.5t201 84.5q107 0 178.5 -70.5t71.5 -175.5z" />
    <glyph glyph-name="Eogonek" unicode="&#x118;" horiz-adv-x="595" 
d="M458 -317q-63 0 -104 35t-41 88q0 50 26 85t86 67l31 16l6 36h118l-13 -73l-77 -41q-54 -28 -54 -66q0 -13 8 -21t22 -8q27 0 38 26l110 -29q-23 -54 -64.5 -84.5t-91.5 -30.5zM296 442h316l-29 -167h-316l-20 -108h342l-29 -167h-515l125 700h512l-29 -167h-342z" />
    <glyph glyph-name="eogonek" unicode="&#x119;" horiz-adv-x="592" 
d="M224 -315q-63 0 -104 35t-41 88q0 50 26 85t86 67l31 16l6 36h118l-13 -73l-77 -41q-54 -28 -54 -66q0 -13 8 -21t22 -8q27 0 38 26l110 -29q-23 -54 -64.5 -84.5t-91.5 -30.5zM438 330q-9 16 -30.5 25.5t-49.5 9.5q-63 0 -96 -45h180q-2 6 -4 10zM607 274q0 -36 -10 -79
h-348q7 -27 34 -42.5t65 -15.5q62 0 92 47l138 -90q-90 -112 -236 -112q-117 0 -193 70.5t-76 179.5q0 119 83 203.5t201 84.5q107 0 178.5 -70.5t71.5 -175.5z" />
    <glyph glyph-name="Ecaron" unicode="&#x11a;" horiz-adv-x="595" 
d="M455 764l221 125l-45 105l-177 -104l-145 111l-74 -95l180 -139zM296 442h316l-29 -167h-316l-20 -108h342l-29 -167h-515l125 700h512l-29 -167h-342z" />
    <glyph glyph-name="ecaron" unicode="&#x11b;" horiz-adv-x="592" 
d="M402 555l221 125l-45 105l-177 -104l-145 111l-74 -95l180 -139zM438 330q-9 16 -30.5 25.5t-49.5 9.5q-63 0 -96 -45h180q-2 6 -4 10zM607 274q0 -36 -10 -79h-348q7 -27 34 -42.5t65 -15.5q62 0 92 47l138 -90q-90 -112 -236 -112q-117 0 -193 70.5t-76 179.5
q0 119 83 203.5t201 84.5q107 0 178.5 -70.5t71.5 -175.5z" />
    <glyph glyph-name="Gcircumflex" unicode="&#x11c;" 
d="M527 996l-222 -126l46 -105l177 104l144 -110l75 94l-180 139zM481 550q-92 0 -157 -64.5t-65 -154.5q0 -80 51.5 -129.5t133.5 -49.5q62 0 109.5 29t63.5 79h-225l26 151h403q0 -196 -105 -312.5t-282 -116.5q-153 0 -249.5 93.5t-96.5 240.5q0 109 55 202t149 147.5
t204 54.5q115 0 202 -58t118 -154l-165 -66q-16 49 -62.5 78.5t-107.5 29.5z" />
    <glyph glyph-name="gcircumflex" unicode="&#x11d;" horiz-adv-x="598" 
d="M411 787l-222 -126l46 -105l177 104l144 -110l75 94l-180 139zM492 314q0 -72 -29.5 -136.5t-82.5 -104t-116 -39.5q-80 0 -133.5 59t-53.5 151q0 72 33 136t88.5 102.5t119.5 38.5q79 0 126.5 -59t47.5 -148zM333 189q39 0 66 25t27 60q0 32 -24.5 53t-60.5 21
q-40 0 -66.5 -25t-26.5 -60q0 -32 24 -53t61 -21zM180 20q11 -34 38.5 -53.5t67.5 -19.5q37 0 63.5 18t31.5 48l85 487h171l-88 -502q-18 -106 -90 -166.5t-176 -60.5q-16 0 -35 1.5t-55 11t-66.5 25t-60.5 47.5t-45 75z" />
    <glyph glyph-name="Gbreve" unicode="&#x11e;" 
d="M506 776q-78 0 -128.5 46t-50.5 115q0 15 3 31h119q-1 -7 -1 -14q0 -28 19.5 -45.5t51.5 -17.5q38 0 68 22.5t36 54.5h135q-14 -77 -89 -134.5t-163 -57.5zM481 550q-92 0 -157 -64.5t-65 -154.5q0 -80 51.5 -129.5t133.5 -49.5q62 0 109.5 29t63.5 79h-225l26 151h403
q0 -196 -105 -312.5t-282 -116.5q-153 0 -249.5 93.5t-96.5 240.5q0 109 55 202t149 147.5t204 54.5q115 0 202 -58t118 -154l-165 -66q-16 49 -62.5 78.5t-107.5 29.5z" />
    <glyph glyph-name="gbreve" unicode="&#x11f;" horiz-adv-x="598" 
d="M390 567q-78 0 -128.5 46t-50.5 115q0 15 3 31h119q-1 -7 -1 -14q0 -28 19.5 -45.5t51.5 -17.5q38 0 68 22.5t36 54.5h135q-14 -77 -89 -134.5t-163 -57.5zM492 314q0 -72 -29.5 -136.5t-82.5 -104t-116 -39.5q-80 0 -133.5 59t-53.5 151q0 72 33 136t88.5 102.5
t119.5 38.5q79 0 126.5 -59t47.5 -148zM333 189q39 0 66 25t27 60q0 32 -24.5 53t-60.5 21q-40 0 -66.5 -25t-26.5 -60q0 -32 24 -53t61 -21zM180 20q11 -34 38.5 -53.5t67.5 -19.5q37 0 63.5 18t31.5 48l85 487h171l-88 -502q-18 -106 -90 -166.5t-176 -60.5q-16 0 -35 1.5
t-55 11t-66.5 25t-60.5 47.5t-45 75z" />
    <glyph glyph-name="Gdotaccent" unicode="&#x120;" 
d="M405 874q0 42 28.5 70.5t70.5 28.5t70.5 -28.5t28.5 -70.5t-28.5 -70.5t-70.5 -28.5t-70.5 28.5t-28.5 70.5zM481 550q-92 0 -157 -64.5t-65 -154.5q0 -80 51.5 -129.5t133.5 -49.5q62 0 109.5 29t63.5 79h-225l26 151h403q0 -196 -105 -312.5t-282 -116.5
q-153 0 -249.5 93.5t-96.5 240.5q0 109 55 202t149 147.5t204 54.5q115 0 202 -58t118 -154l-165 -66q-16 49 -62.5 78.5t-107.5 29.5z" />
    <glyph glyph-name="gdotaccent" unicode="&#x121;" horiz-adv-x="598" 
d="M289 665q0 42 28.5 70.5t70.5 28.5t70.5 -28.5t28.5 -70.5t-28.5 -70.5t-70.5 -28.5t-70.5 28.5t-28.5 70.5zM492 314q0 -72 -29.5 -136.5t-82.5 -104t-116 -39.5q-80 0 -133.5 59t-53.5 151q0 72 33 136t88.5 102.5t119.5 38.5q79 0 126.5 -59t47.5 -148zM333 189
q39 0 66 25t27 60q0 32 -24.5 53t-60.5 21q-40 0 -66.5 -25t-26.5 -60q0 -32 24 -53t61 -21zM180 20q11 -34 38.5 -53.5t67.5 -19.5q37 0 63.5 18t31.5 48l85 487h171l-88 -502q-18 -106 -90 -166.5t-176 -60.5q-16 0 -35 1.5t-55 11t-66.5 25t-60.5 47.5t-45 75z" />
    <glyph glyph-name="uni0122" unicode="&#x122;" 
d="M416 -287q0 -38 -28 -66.5t-65 -28.5q-36 0 -59.5 22.5t-23.5 56.5q0 39 29 71l167 180l47 -47l-109 -115q42 -23 42 -73zM481 550q-92 0 -157 -64.5t-65 -154.5q0 -80 51.5 -129.5t133.5 -49.5q62 0 109.5 29t63.5 79h-225l26 151h403q0 -196 -105 -312.5t-282 -116.5
q-153 0 -249.5 93.5t-96.5 240.5q0 109 55 202t149 147.5t204 54.5q115 0 202 -58t118 -154l-165 -66q-16 49 -62.5 78.5t-107.5 29.5z" />
    <glyph glyph-name="uni0123" unicode="&#x123;" horiz-adv-x="598" 
d="M490 654q-7 -35 -35.5 -61.5t-66 -26.5t-59.5 25t-15 62q5 31 28 57l169 193l47 -42l-110 -124q24 -10 35 -33t7 -50zM492 314q0 -72 -29.5 -136.5t-82.5 -104t-116 -39.5q-80 0 -133.5 59t-53.5 151q0 72 33 136t88.5 102.5t119.5 38.5q79 0 126.5 -59t47.5 -148z
M333 189q39 0 66 25t27 60q0 32 -24.5 53t-60.5 21q-40 0 -66.5 -25t-26.5 -60q0 -32 24 -53t61 -21zM180 20q11 -34 38.5 -53.5t67.5 -19.5q37 0 63.5 18t31.5 48l85 487h171l-88 -502q-18 -106 -90 -166.5t-176 -60.5q-16 0 -35 1.5t-55 11t-66.5 25t-60.5 47.5t-45 75z
" />
    <glyph glyph-name="Hcircumflex" unicode="&#x124;" horiz-adv-x="700" 
d="M506 996l-222 -126l46 -105l177 104l144 -110l75 94l-180 139zM45 0l123 700h171l-44 -259h259l46 259h170l-122 -700h-171l50 278h-260l-50 -278h-172z" />
    <glyph glyph-name="hcircumflex" unicode="&#x125;" horiz-adv-x="588" 
d="M298 1021l-222 -126l46 -105l177 104l144 -110l75 94l-180 139zM46 0l132 750h173l-131 -750h-174zM371 0l45 275q6 40 -11 65t-51 25q-31 0 -54.5 -21.5t-30.5 -57.5h-56q17 98 82 162.5t146 64.5q86 0 127 -67t22 -176l-47 -270h-172z" />
    <glyph glyph-name="Hbar" unicode="&#x126;" horiz-adv-x="700" 
d="M811 630l-26 -147h-50l-85 -483h-174l45 257h-252l-45 -257h-174l85 483h-50l26 147h50l12 70h174l-12 -70h252l12 70h174l-12 -70h50zM309 483l-10 -58h252l10 58h-252z" />
    <glyph glyph-name="hbar" unicode="&#x127;" horiz-adv-x="598" 
d="M381 0l45 275q6 40 -11 65t-51 25q-31 0 -54.5 -21.5t-30.5 -57.5h-56q17 98 82 162.5t146 64.5q86 0 127 -67t22 -176l-47 -270h-172zM56 0l97 553h-55l26 147h55l9 50h173l-9 -50h174l-26 -147h-173l-97 -553h-174z" />
    <glyph glyph-name="Itilde" unicode="&#x128;" horiz-adv-x="270" 
d="M210 949q-114 0 -157 -150l105 -18q19 59 51 59q15 0 37 -19q54 -46 99 -46q111 0 154 150l-104 18q-20 -56 -55 -56q-21 0 -39 18q-26 24 -46 34t-45 10zM217 0h-172l123 700h171z" />
    <glyph glyph-name="itilde" unicode="&#x129;" horiz-adv-x="262" 
d="M169 742q-114 0 -157 -150l105 -18q19 59 51 59q15 0 37 -19q54 -46 99 -46q111 0 154 150l-104 18q-20 -56 -55 -56q-21 0 -39 18q-26 24 -46 34t-45 10zM45 0l88 500h172l-88 -500h-172z" />
    <glyph glyph-name="Imacron" unicode="&#x12a;" horiz-adv-x="270" 
d="M457 912l-22 -127h-352l22 127h352zM217 0h-172l123 700h171z" />
    <glyph glyph-name="imacron" unicode="&#x12b;" horiz-adv-x="262" 
d="M416 705l-22 -127h-352l22 127h352zM45 0l88 500h172l-88 -500h-172z" />
    <glyph glyph-name="Ibreve" unicode="&#x12c;" horiz-adv-x="270" 
d="M268 776q-78 0 -128.5 46t-50.5 115q0 15 3 31h119q-1 -7 -1 -14q0 -28 19.5 -45.5t51.5 -17.5q38 0 68 22.5t36 54.5h135q-14 -77 -89 -134.5t-163 -57.5zM217 0h-172l123 700h171z" />
    <glyph glyph-name="ibreve" unicode="&#x12d;" horiz-adv-x="262" 
d="M227 569q-78 0 -128.5 46t-50.5 115q0 15 3 31h119q-1 -7 -1 -14q0 -28 19.5 -45.5t51.5 -17.5q38 0 68 22.5t36 54.5h135q-14 -77 -89 -134.5t-163 -57.5zM45 0l88 500h172l-88 -500h-172z" />
    <glyph glyph-name="Iogonek" unicode="&#x12e;" horiz-adv-x="270" 
d="M70 -317q-63 0 -104 35t-41 88q0 50 26 85t86 67l31 16l6 36h118l-13 -73l-77 -41q-54 -28 -54 -66q0 -13 8 -21t22 -8q27 0 38 26l110 -29q-23 -54 -64.5 -84.5t-91.5 -30.5zM217 0h-172l123 700h171z" />
    <glyph glyph-name="iogonek" unicode="&#x12f;" horiz-adv-x="262" 
d="M70 -317q-63 0 -104 35t-41 88q0 50 26 85t86 67l31 16l6 36h118l-13 -73l-77 -41q-54 -28 -54 -66q0 -13 8 -21t22 -8q27 0 38 26l110 -29q-23 -54 -64.5 -84.5t-91.5 -30.5zM149 651q0 42 28.5 70.5t70.5 28.5t70.5 -28.5t28.5 -70.5t-28.5 -70.5t-70.5 -28.5
t-70.5 28.5t-28.5 70.5zM45 0l88 500h172l-88 -500h-172z" />
    <glyph glyph-name="Idotaccent" unicode="&#x130;" horiz-adv-x="270" 
d="M167 874q0 42 28.5 70.5t70.5 28.5t70.5 -28.5t28.5 -70.5t-28.5 -70.5t-70.5 -28.5t-70.5 28.5t-28.5 70.5zM217 0h-172l123 700h171z" />
    <glyph glyph-name="dotlessi" unicode="&#x131;" horiz-adv-x="262" 
d="M45 0l88 500h172l-88 -500h-172z" />
    <glyph glyph-name="IJ" unicode="&#x132;" horiz-adv-x="934" 
d="M500 272q11 -113 120 -113q52 0 88 34.5t46 93.5l73 413h170l-76 -438q-21 -119 -110 -196t-206 -77q-114 0 -188 66t-87 179zM217 0h-172l123 700h171z" />
    <glyph glyph-name="ij" unicode="&#x133;" horiz-adv-x="524" 
d="M411 651q0 42 28.5 70.5t70.5 28.5t70.5 -28.5t28.5 -70.5t-28.5 -70.5t-70.5 -28.5t-70.5 28.5t-28.5 70.5zM237 -51q29 0 49 22.5t27 58.5l82 470h172l-96 -539q-13 -76 -74.5 -129.5t-144.5 -53.5h-50l19 170zM149 651q0 42 28.5 70.5t70.5 28.5t70.5 -28.5
t28.5 -70.5t-28.5 -70.5t-70.5 -28.5t-70.5 28.5t-28.5 70.5zM45 0l88 500h172l-88 -500h-172z" />
    <glyph glyph-name="Jcircumflex" unicode="&#x134;" horiz-adv-x="664" 
d="M672 979l-222 -126l46 -105l177 104l144 -110l75 94l-180 139zM230 272q11 -113 120 -113q52 0 88 34.5t46 93.5l73 413h170l-76 -438q-21 -119 -110 -196t-206 -77q-114 0 -188 66t-87 179z" />
    <glyph glyph-name="jcircumflex" unicode="&#x135;" horiz-adv-x="262" 
d="M254 788l-222 -126l46 -105l177 104l144 -110l75 94l-180 139zM-25 -51q29 0 49 22.5t27 58.5l82 470h172l-96 -539q-13 -76 -74.5 -129.5t-144.5 -53.5h-50l19 170z" />
    <glyph glyph-name="uni0136" unicode="&#x136;" horiz-adv-x="698" 
d="M289 -287q0 -38 -28 -66.5t-65 -28.5q-36 0 -59.5 22.5t-23.5 56.5q0 39 29 71l167 180l47 -47l-109 -115q42 -23 42 -73zM45 0l124 700h172l-47 -265h15l256 265h227l-343 -350l219 -350h-207l-174 262h-24l-46 -262h-172z" />
    <glyph glyph-name="uni0137" unicode="&#x137;" horiz-adv-x="612" 
d="M286 -284q0 -38 -28 -66.5t-65 -28.5q-36 0 -59.5 22.5t-23.5 56.5q0 39 29 71l167 180l47 -47l-109 -115q42 -23 42 -73zM45 0l123 700h171l-62 -358h23l146 158h235l-249 -256l156 -244h-204l-111 169h-26l-30 -169h-172z" />
    <glyph glyph-name="kgreenlandic" unicode="&#x138;" horiz-adv-x="612" 
d="M45 0l89 500h171l-28 -158h23l146 158h235l-249 -256l156 -244h-204l-111 169h-26l-30 -169h-172z" />
    <glyph glyph-name="Lacute" unicode="&#x139;" horiz-adv-x="585" 
d="M456 906l-65 105l-195 -121l62 -100zM247 167h342l-30 -167h-514l125 700h172z" />
    <glyph glyph-name="lacute" unicode="&#x13a;" horiz-adv-x="270" 
d="M460 917l-65 105l-195 -121l62 -100zM50 0l132 750h172l-132 -750h-172z" />
    <glyph glyph-name="uni013B" unicode="&#x13b;" horiz-adv-x="585" 
d="M293 -286q0 -38 -28 -66.5t-65 -28.5q-36 0 -59.5 22.5t-23.5 56.5q0 39 29 71l167 180l47 -47l-109 -115q42 -23 42 -73zM247 167h342l-30 -167h-514l125 700h172z" />
    <glyph glyph-name="uni013C" unicode="&#x13c;" horiz-adv-x="270" 
d="M126 -286q0 -38 -28 -66.5t-65 -28.5q-36 0 -59.5 22.5t-23.5 56.5q0 39 29 71l167 180l47 -47l-109 -115q42 -23 42 -73zM50 0l132 750h172l-132 -750h-172z" />
    <glyph glyph-name="Lcaron" unicode="&#x13d;" horiz-adv-x="585" 
d="M532 747l142 -43l-103 -251l-138 41zM247 167h342l-30 -167h-514l125 700h172z" />
    <glyph glyph-name="lcaron" unicode="&#x13e;" horiz-adv-x="516" 
d="M474 803l142 -43l-103 -251l-138 41zM50 0l132 750h172l-132 -750h-172z" />
    <glyph glyph-name="Ldot" unicode="&#x13f;" horiz-adv-x="585" 
d="M355 359q0 48 30 80t75 32q48 0 80.5 -32t32.5 -80q0 -47 -31 -78t-78 -31t-78 31t-31 78zM247 167h342l-30 -167h-514l125 700h172z" />
    <glyph glyph-name="ldot" unicode="&#x140;" horiz-adv-x="548" 
d="M366 369q0 48 30 80t75 32q48 0 80.5 -32t32.5 -80q0 -47 -31 -78t-78 -31t-78 31t-31 78zM50 0l132 750h172l-132 -750h-172z" />
    <glyph glyph-name="Lslash" unicode="&#x141;" horiz-adv-x="585" 
d="M429 483l3 -144l-366 -72l-2 144zM250 168h340l-30 -168h-510l123 700h170z" />
    <glyph glyph-name="lslash" unicode="&#x142;" horiz-adv-x="357" 
d="M414 485l2 -146l-336 -52l-3 146zM90 0l132 750h170l-132 -750h-170z" />
    <glyph glyph-name="Nacute" unicode="&#x143;" horiz-adv-x="700" 
d="M672 891l-65 105l-195 -121l62 -100zM45 0l123 700h198l157 -438l77 438h171l-123 -700h-198l-157 438l-76 -438h-172z" />
    <glyph glyph-name="nacute" unicode="&#x144;" horiz-adv-x="588" 
d="M578 683l-65 105l-195 -121l62 -100zM46 0l89 500h173l-88 -500h-174zM371 0l45 275q7 40 -10.5 65t-51.5 25q-31 0 -54.5 -21.5t-30.5 -57.5h-56q9 50 42 102t84 88.5t102 36.5q86 0 127 -67t22 -176l-47 -270h-172z" />
    <glyph glyph-name="uni0145" unicode="&#x145;" horiz-adv-x="700" 
d="M351 -287q0 -38 -28 -66.5t-65 -28.5q-36 0 -59.5 22.5t-23.5 56.5q0 39 29 71l167 180l47 -47l-109 -115q42 -23 42 -73zM45 0l123 700h198l157 -438l77 438h171l-123 -700h-198l-157 438l-76 -438h-172z" />
    <glyph glyph-name="uni0146" unicode="&#x146;" horiz-adv-x="588" 
d="M295 -285q0 -38 -28 -66.5t-65 -28.5q-36 0 -59.5 22.5t-23.5 56.5q0 39 29 71l167 180l47 -47l-109 -115q42 -23 42 -73zM46 0l89 500h173l-88 -500h-174zM371 0l45 275q7 40 -10.5 65t-51.5 25q-31 0 -54.5 -21.5t-30.5 -57.5h-56q9 50 42 102t84 88.5t102 36.5
q86 0 127 -67t22 -176l-47 -270h-172z" />
    <glyph glyph-name="Ncaron" unicode="&#x147;" horiz-adv-x="700" 
d="M507 762l221 125l-45 105l-177 -104l-145 111l-74 -95l180 -139zM45 0l123 700h198l157 -438l77 438h171l-123 -700h-198l-157 438l-76 -438h-172z" />
    <glyph glyph-name="ncaron" unicode="&#x148;" horiz-adv-x="588" 
d="M413 554l221 125l-45 105l-177 -104l-145 111l-74 -95l180 -139zM46 0l89 500h173l-88 -500h-174zM371 0l45 275q7 40 -10.5 65t-51.5 25q-31 0 -54.5 -21.5t-30.5 -57.5h-56q9 50 42 102t84 88.5t102 36.5q86 0 127 -67t22 -176l-47 -270h-172z" />
    <glyph glyph-name="napostrophe" unicode="&#x149;" horiz-adv-x="818" 
d="M276 0l89 500h173l-88 -500h-174zM601 0l45 275q7 40 -10.5 65t-51.5 25q-31 0 -54.5 -21.5t-30.5 -57.5h-56q9 50 42 102t84 88.5t102 36.5q86 0 127 -67t22 -176l-47 -270h-172zM220 784l141 -56l-102 -245l-136 53z" />
    <glyph glyph-name="Eng" unicode="&#x14a;" horiz-adv-x="668" 
d="M50 0l123 700h170l-123 -700h-170zM388 -9q29 0 47 19t23 48l65 365q9 55 -14.5 86.5t-70.5 31.5q-50 0 -92.5 -34.5t-50.5 -83.5h-58q20 116 105 202t186 86q91 0 140.5 -73t29.5 -185l-72 -409q-16 -90 -88 -155.5t-169 -65.5h-69l29 168h59z" />
    <glyph glyph-name="eng" unicode="&#x14b;" horiz-adv-x="588" 
d="M50 0l88 500h170l-88 -500h-170zM373 30l43 243q6 35 -10.5 56.5t-50.5 21.5q-30 0 -55.5 -23t-31.5 -55h-58q17 98 85.5 168t147.5 70t122.5 -53.5t29.5 -134.5l-56 -317q-14 -81 -80.5 -136t-151.5 -55h-59l28 158h39q22 0 38 15.5t20 41.5z" />
    <glyph glyph-name="Omacron" unicode="&#x14c;" 
d="M646 914l-22 -127h-352l22 127h352zM472 550q-88 0 -150 -63.5t-62 -154.5q0 -79 50 -129.5t128 -50.5q88 0 150.5 65t62.5 155q0 78 -50.5 128t-128.5 50zM89 329q0 106 51.5 196t139.5 142.5t192 52.5q149 0 249 -99t100 -245q0 -106 -51.5 -197t-140 -144t-191.5 -53
q-148 0 -248.5 99.5t-100.5 247.5z" />
    <glyph glyph-name="omacron" unicode="&#x14d;" horiz-adv-x="618" 
d="M599 704l-22 -127h-352l22 127h352zM363 360q-50 0 -84.5 -35.5t-34.5 -85.5q0 -43 29 -70t72 -27q50 0 84.5 35.5t34.5 85.5q0 43 -29 70t-72 27zM74 226q0 121 87 207.5t213 86.5q111 0 185.5 -68.5t74.5 -175.5q0 -121 -87 -207.5t-213 -86.5q-111 0 -185.5 68.5
t-74.5 175.5z" />
    <glyph glyph-name="Obreve" unicode="&#x14e;" 
d="M457 778q-78 0 -128.5 46t-50.5 115q0 15 3 31h119q-1 -7 -1 -14q0 -28 19.5 -45.5t51.5 -17.5q38 0 68 22.5t36 54.5h135q-14 -77 -89 -134.5t-163 -57.5zM472 550q-88 0 -150 -63.5t-62 -154.5q0 -79 50 -129.5t128 -50.5q88 0 150.5 65t62.5 155q0 78 -50.5 128
t-128.5 50zM89 329q0 106 51.5 196t139.5 142.5t192 52.5q149 0 249 -99t100 -245q0 -106 -51.5 -197t-140 -144t-191.5 -53q-148 0 -248.5 99.5t-100.5 247.5z" />
    <glyph glyph-name="obreve" unicode="&#x14f;" horiz-adv-x="618" 
d="M410 568q-78 0 -128.5 46t-50.5 115q0 15 3 31h119q-1 -7 -1 -14q0 -28 19.5 -45.5t51.5 -17.5q38 0 68 22.5t36 54.5h135q-14 -77 -89 -134.5t-163 -57.5zM363 360q-50 0 -84.5 -35.5t-34.5 -85.5q0 -43 29 -70t72 -27q50 0 84.5 35.5t34.5 85.5q0 43 -29 70t-72 27z
M74 226q0 121 87 207.5t213 86.5q111 0 185.5 -68.5t74.5 -175.5q0 -121 -87 -207.5t-213 -86.5q-111 0 -185.5 68.5t-74.5 175.5z" />
    <glyph glyph-name="Ohungarumlaut" unicode="&#x150;" 
d="M754 899l-55 105l-196 -143l43 -78zM494 899l-55 105l-196 -143l43 -78zM472 550q-88 0 -150 -63.5t-62 -154.5q0 -79 50 -129.5t128 -50.5q88 0 150.5 65t62.5 155q0 78 -50.5 128t-128.5 50zM89 329q0 106 51.5 196t139.5 142.5t192 52.5q149 0 249 -99t100 -245
q0 -106 -51.5 -197t-140 -144t-191.5 -53q-148 0 -248.5 99.5t-100.5 247.5z" />
    <glyph glyph-name="ohungarumlaut" unicode="&#x151;" horiz-adv-x="618" 
d="M707 689l-55 105l-196 -143l43 -78zM447 689l-55 105l-196 -143l43 -78zM363 360q-50 0 -84.5 -35.5t-34.5 -85.5q0 -43 29 -70t72 -27q50 0 84.5 35.5t34.5 85.5q0 43 -29 70t-72 27zM74 226q0 121 87 207.5t213 86.5q111 0 185.5 -68.5t74.5 -175.5q0 -121 -87 -207.5
t-213 -86.5q-111 0 -185.5 68.5t-74.5 175.5z" />
    <glyph glyph-name="OE" unicode="&#x152;" horiz-adv-x="1168" 
d="M840 442h316l-29 -167h-316l-20 -108h342l-29 -167h-515l125 700h512l-29 -167h-342zM473 550q-89 0 -151 -63.5t-62 -153.5q0 -79 49.5 -130t127.5 -51q88 0 151 64.5t63 153.5q0 79 -50.5 129.5t-127.5 50.5zM89 331q0 104 50.5 194t137 142.5t185.5 52.5
q138 0 228.5 -98.5t90.5 -247.5q0 -72 -32.5 -144t-85 -126t-121.5 -88t-138 -34q-86 0 -158.5 46t-114.5 126.5t-42 176.5z" />
    <glyph glyph-name="oe" unicode="&#x153;" horiz-adv-x="1002" 
d="M831 331q-9 15 -31 24.5t-50 9.5q-62 0 -95 -45h180q-2 6 -4 11zM1000 272q0 -34 -10 -77h-348q7 -26 33.5 -42t62.5 -16q65 0 95 47l138 -90q-90 -112 -229 -112q-113 0 -184.5 70.5t-71.5 181.5q0 119 78.5 202.5t191.5 83.5q104 0 174 -71t70 -177zM363 360
q-49 0 -84 -35t-35 -84q0 -43 28.5 -71t72.5 -28q49 0 84 35t35 84q0 43 -28.5 71t-72.5 28zM74 229q0 120 86.5 205.5t207.5 85.5q108 0 177 -69t69 -177q0 -122 -83 -207t-202 -85q-110 0 -182.5 70t-72.5 177z" />
    <glyph glyph-name="Racute" unicode="&#x154;" horiz-adv-x="648" 
d="M642 893l-65 105l-195 -121l62 -100zM415 400q41 0 71.5 23t30.5 54q0 24 -22 39.5t-57 15.5h-127l-23 -132h127zM699 490q0 -90 -55 -152.5t-144 -83.5l113 -254h-189l-104 234h-61l-42 -234h-172l124 700h309q100 0 160.5 -60t60.5 -150z" />
    <glyph glyph-name="racute" unicode="&#x155;" horiz-adv-x="400" 
d="M512 681l-65 105l-195 -121l62 -100zM44 0l88 500h170l-87 -500h-171zM393 342q-47 0 -88.5 -31t-47.5 -69h-57q20 114 85 191.5t139 77.5h41l-29 -169h-43z" />
    <glyph glyph-name="uni0156" unicode="&#x156;" horiz-adv-x="648" 
d="M299 -287q0 -38 -28 -66.5t-65 -28.5q-36 0 -59.5 22.5t-23.5 56.5q0 39 29 71l167 180l47 -47l-109 -115q42 -23 42 -73zM415 400q41 0 71.5 23t30.5 54q0 24 -22 39.5t-57 15.5h-127l-23 -132h127zM699 490q0 -90 -55 -152.5t-144 -83.5l113 -254h-189l-104 234h-61
l-42 -234h-172l124 700h309q100 0 160.5 -60t60.5 -150z" />
    <glyph glyph-name="uni0157" unicode="&#x157;" horiz-adv-x="400" 
d="M122 -287q0 -38 -28 -66.5t-65 -28.5q-36 0 -59.5 22.5t-23.5 56.5q0 39 29 71l167 180l47 -47l-109 -115q42 -23 42 -73zM44 0l88 500h170l-87 -500h-171zM393 342q-47 0 -88.5 -31t-47.5 -69h-57q20 114 85 191.5t139 77.5h41l-29 -169h-43z" />
    <glyph glyph-name="Rcaron" unicode="&#x158;" horiz-adv-x="648" 
d="M477 764l221 125l-45 105l-177 -104l-145 111l-74 -95l180 -139zM415 400q41 0 71.5 23t30.5 54q0 24 -22 39.5t-57 15.5h-127l-23 -132h127zM699 490q0 -90 -55 -152.5t-144 -83.5l113 -254h-189l-104 234h-61l-42 -234h-172l124 700h309q100 0 160.5 -60t60.5 -150z
" />
    <glyph glyph-name="rcaron" unicode="&#x159;" horiz-adv-x="400" 
d="M347 552l221 125l-45 105l-177 -104l-145 111l-74 -95l180 -139zM44 0l88 500h170l-87 -500h-171zM393 342q-47 0 -88.5 -31t-47.5 -69h-57q20 114 85 191.5t139 77.5h41l-29 -169h-43z" />
    <glyph glyph-name="Sacute" unicode="&#x15a;" horiz-adv-x="594" 
d="M570 893l-65 105l-195 -121l62 -100zM347 149q33 0 54.5 16t21.5 40q0 41 -94 63q-98 25 -151 80t-53 131q0 101 73 168t182 67q101 0 176.5 -54.5t95.5 -142.5l-174 -45q-9 37 -37 59t-65 22q-31 0 -51.5 -16.5t-20.5 -40.5q0 -37 88 -60q99 -27 154.5 -84.5
t55.5 -134.5q0 -99 -74 -164t-186 -65q-102 0 -180 51.5t-100 133.5l178 64q9 -41 38 -64.5t69 -23.5z" />
    <glyph glyph-name="sacute" unicode="&#x15b;" horiz-adv-x="494" 
d="M535 682l-65 105l-195 -121l62 -100zM282 123q15 0 24 6.5t9 17.5q0 17 -52 28q-171 36 -171 153q0 75 56.5 130.5t148.5 55.5q77 0 139 -41.5t80 -109.5l-172 -32q-13 38 -51 38q-29 0 -29 -22t58 -32q80 -16 123 -55t43 -96q0 -72 -57 -124t-150 -52q-83 0 -148 41.5
t-83 111.5l172 33q1 -7 5 -17t19 -22t36 -12z" />
    <glyph glyph-name="Scircumflex" unicode="&#x15c;" horiz-adv-x="594" 
d="M408 998l-222 -126l46 -105l177 104l144 -110l75 94l-180 139zM347 149q33 0 54.5 16t21.5 40q0 41 -94 63q-98 25 -151 80t-53 131q0 101 73 168t182 67q101 0 176.5 -54.5t95.5 -142.5l-174 -45q-9 37 -37 59t-65 22q-31 0 -51.5 -16.5t-20.5 -40.5q0 -37 88 -60
q99 -27 154.5 -84.5t55.5 -134.5q0 -99 -74 -164t-186 -65q-102 0 -180 51.5t-100 133.5l178 64q9 -41 38 -64.5t69 -23.5z" />
    <glyph glyph-name="scircumflex" unicode="&#x15d;" horiz-adv-x="494" 
d="M373 787l-222 -126l46 -105l177 104l144 -110l75 94l-180 139zM282 123q15 0 24 6.5t9 17.5q0 17 -52 28q-171 36 -171 153q0 75 56.5 130.5t148.5 55.5q77 0 139 -41.5t80 -109.5l-172 -32q-13 38 -51 38q-29 0 -29 -22t58 -32q80 -16 123 -55t43 -96q0 -72 -57 -124
t-150 -52q-83 0 -148 41.5t-83 111.5l172 33q1 -7 5 -17t19 -22t36 -12z" />
    <glyph glyph-name="Scedilla" unicode="&#x15e;" horiz-adv-x="594" 
d="M435 -178q0 13 -7.5 22t-20.5 9t-27 -11l-122 50l25 143l129 -11l-18 -103q36 33 77 33q42 0 69.5 -35t27.5 -88q0 -78 -52.5 -130.5t-130.5 -52.5q-72 0 -120.5 39.5t-57.5 103.5l134 33q1 -20 15 -32.5t36 -12.5q19 0 31 12t12 31zM347 149q33 0 54.5 16t21.5 40
q0 41 -94 63q-98 25 -151 80t-53 131q0 101 73 168t182 67q101 0 176.5 -54.5t95.5 -142.5l-174 -45q-9 37 -37 59t-65 22q-31 0 -51.5 -16.5t-20.5 -40.5q0 -37 88 -60q99 -27 154.5 -84.5t55.5 -134.5q0 -99 -74 -164t-186 -65q-102 0 -180 51.5t-100 133.5l178 64
q9 -41 38 -64.5t69 -23.5z" />
    <glyph glyph-name="scedilla" unicode="&#x15f;" horiz-adv-x="494" 
d="M355 -179q0 13 -7.5 22t-20.5 9t-27 -11l-122 50l25 143l129 -11l-18 -103q36 33 77 33q42 0 69.5 -35t27.5 -88q0 -78 -52.5 -130.5t-130.5 -52.5q-72 0 -120.5 39.5t-57.5 103.5l134 33q1 -20 15 -32.5t36 -12.5q19 0 31 12t12 31zM282 123q15 0 24 6.5t9 17.5
q0 17 -52 28q-171 36 -171 153q0 75 56.5 130.5t148.5 55.5q77 0 139 -41.5t80 -109.5l-172 -32q-13 38 -51 38q-29 0 -29 -22t58 -32q80 -16 123 -55t43 -96q0 -72 -57 -124t-150 -52q-83 0 -148 41.5t-83 111.5l172 33q1 -7 5 -17t19 -22t36 -12z" />
    <glyph glyph-name="Scaron" unicode="&#x160;" horiz-adv-x="594" 
d="M405 764l221 125l-45 105l-177 -104l-145 111l-74 -95l180 -139zM347 149q33 0 54.5 16t21.5 40q0 41 -94 63q-98 25 -151 80t-53 131q0 101 73 168t182 67q101 0 176.5 -54.5t95.5 -142.5l-174 -45q-9 37 -37 59t-65 22q-31 0 -51.5 -16.5t-20.5 -40.5q0 -37 88 -60
q99 -27 154.5 -84.5t55.5 -134.5q0 -99 -74 -164t-186 -65q-102 0 -180 51.5t-100 133.5l178 64q9 -41 38 -64.5t69 -23.5z" />
    <glyph glyph-name="scaron" unicode="&#x161;" horiz-adv-x="494" 
d="M370 553l221 125l-45 105l-177 -104l-145 111l-74 -95l180 -139zM282 123q15 0 24 6.5t9 17.5q0 17 -52 28q-171 36 -171 153q0 75 56.5 130.5t148.5 55.5q77 0 139 -41.5t80 -109.5l-172 -32q-13 38 -51 38q-29 0 -29 -22t58 -32q80 -16 123 -55t43 -96q0 -72 -57 -124
t-150 -52q-83 0 -148 41.5t-83 111.5l172 33q1 -7 5 -17t19 -22t36 -12z" />
    <glyph glyph-name="uni0162" unicode="&#x162;" horiz-adv-x="616" 
d="M407 -178q0 13 -7.5 22t-20.5 9t-27 -11l-122 50l25 143l129 -11l-18 -103q36 33 77 33q42 0 69.5 -35t27.5 -88q0 -78 -52.5 -130.5t-130.5 -52.5q-72 0 -120.5 39.5t-57.5 103.5l134 33q1 -20 15 -32.5t36 -12.5q19 0 31 12t12 31zM718 700l-30 -168h-197l-96 -532
h-170l94 532h-203l29 168h573z" />
    <glyph glyph-name="uni0163" unicode="&#x163;" horiz-adv-x="442" 
d="M411 -178q0 13 -7.5 22t-20.5 9t-27 -11l-122 50l25 143l129 -11l-18 -103q36 33 77 33q42 0 69.5 -35t27.5 -88q0 -78 -52.5 -130.5t-130.5 -52.5q-72 0 -120.5 39.5t-57.5 103.5l134 33q1 -20 15 -32.5t36 -12.5q19 0 31 12t12 31zM365 155h84l-28 -155h-109
q-81 0 -127 40.5t-46 108.5q0 19 3 36l29 159h-86l27 156h86l24 143l175 21l-29 -164h138l-28 -156h-137l-24 -134q-1 -6 -1 -11q0 -21 13 -32.5t36 -11.5z" />
    <glyph glyph-name="Tcaron" unicode="&#x164;" horiz-adv-x="616" 
d="M469 781l221 125l-45 105l-177 -104l-145 111l-74 -95l180 -139zM718 700l-30 -168h-197l-96 -532h-170l94 532h-203l29 168h573z" />
    <glyph glyph-name="tcaron" unicode="&#x165;" horiz-adv-x="442" 
d="M552 816l142 -43l-103 -251l-138 41zM365 155h84l-28 -155h-109q-81 0 -127 40.5t-46 108.5q0 19 3 36l29 159h-86l27 156h86l24 143l175 21l-29 -164h138l-28 -156h-137l-24 -134q-1 -6 -1 -11q0 -21 13 -32.5t36 -11.5z" />
    <glyph glyph-name="Tbar" unicode="&#x166;" horiz-adv-x="616" 
d="M579 380l-29 -167h-412l29 167h412zM716 700l-29 -168h-200l-94 -532h-170l94 532h-200l29 168h570z" />
    <glyph glyph-name="tbar" unicode="&#x167;" horiz-adv-x="442" 
d="M365 155h84l-28 -155h-109q-81 0 -127 40.5t-46 108.5q0 19 3 36l29 159h-86l27 156h86l24 143l175 21l-29 -164h138l-28 -156h-137l-24 -134q-1 -6 -1 -11q0 -21 13 -32.5t36 -11.5zM471 316l-22 -127h-387l22 127h387z" />
    <glyph glyph-name="Utilde" unicode="&#x168;" horiz-adv-x="690" 
d="M421 949q-114 0 -157 -150l105 -18q19 59 51 59q15 0 37 -19q54 -46 99 -46q111 0 154 150l-104 18q-20 -56 -55 -56q-21 0 -39 18q-26 24 -46 34t-45 10zM368 -11q-118 0 -195.5 74.5t-77.5 191.5q0 28 5 58l68 387h171l-69 -392q-3 -17 -3 -34q0 -8 1 -18t7.5 -28.5
t18 -32.5t34.5 -25t55 -11q50 0 87 33.5t47 93.5l73 414h170l-76 -438q-22 -121 -111 -197t-205 -76z" />
    <glyph glyph-name="utilde" unicode="&#x169;" horiz-adv-x="568" 
d="M318 738q-114 0 -157 -150l105 -18q19 59 51 59q15 0 37 -19q54 -46 99 -46q111 0 154 150l-104 18q-20 -56 -55 -56q-21 0 -39 18q-26 24 -46 34t-45 10zM609 500l-88 -500h-172l87 500h173zM306 500l-52 -293q-5 -29 9.5 -49t44.5 -20q29 0 50 15t25 43h57
q-15 -83 -78 -144.5t-138 -61.5q-78 0 -119.5 54.5t-24.5 152.5l54 303h172z" />
    <glyph glyph-name="Umacron" unicode="&#x16a;" horiz-adv-x="690" 
d="M668 912l-22 -127h-352l22 127h352zM368 -11q-118 0 -195.5 74.5t-77.5 191.5q0 28 5 58l68 387h171l-69 -392q-3 -17 -3 -34q0 -8 1 -18t7.5 -28.5t18 -32.5t34.5 -25t55 -11q50 0 87 33.5t47 93.5l73 414h170l-76 -438q-22 -121 -111 -197t-205 -76z" />
    <glyph glyph-name="umacron" unicode="&#x16b;" horiz-adv-x="568" 
d="M565 701l-22 -127h-352l22 127h352zM609 500l-88 -500h-172l87 500h173zM306 500l-52 -293q-5 -29 9.5 -49t44.5 -20q29 0 50 15t25 43h57q-15 -83 -78 -144.5t-138 -61.5q-78 0 -119.5 54.5t-24.5 152.5l54 303h172z" />
    <glyph glyph-name="Ubreve" unicode="&#x16c;" horiz-adv-x="690" 
d="M479 776q-78 0 -128.5 46t-50.5 115q0 15 3 31h119q-1 -7 -1 -14q0 -28 19.5 -45.5t51.5 -17.5q38 0 68 22.5t36 54.5h135q-14 -77 -89 -134.5t-163 -57.5zM368 -11q-118 0 -195.5 74.5t-77.5 191.5q0 28 5 58l68 387h171l-69 -392q-3 -17 -3 -34q0 -8 1 -18t7.5 -28.5
t18 -32.5t34.5 -25t55 -11q50 0 87 33.5t47 93.5l73 414h170l-76 -438q-22 -121 -111 -197t-205 -76z" />
    <glyph glyph-name="ubreve" unicode="&#x16d;" horiz-adv-x="568" 
d="M376 565q-78 0 -128.5 46t-50.5 115q0 15 3 31h119q-1 -7 -1 -14q0 -28 19.5 -45.5t51.5 -17.5q38 0 68 22.5t36 54.5h135q-14 -77 -89 -134.5t-163 -57.5zM609 500l-88 -500h-172l87 500h173zM306 500l-52 -293q-5 -29 9.5 -49t44.5 -20q29 0 50 15t25 43h57
q-15 -83 -78 -144.5t-138 -61.5q-78 0 -119.5 54.5t-24.5 152.5l54 303h172z" />
    <glyph glyph-name="Uring" unicode="&#x16e;" horiz-adv-x="690" 
d="M492 977q-22 0 -37.5 -16t-15.5 -38q0 -19 13 -31t32 -12q22 0 37.5 15.5t15.5 37.5q0 20 -13 32t-32 12zM334 913q0 69 48.5 119t117.5 50q61 0 101.5 -39t40.5 -99q0 -69 -48.5 -119t-117.5 -50q-61 0 -101.5 38.5t-40.5 99.5zM368 -11q-118 0 -195.5 74.5t-77.5 191.5
q0 28 5 58l68 387h171l-69 -392q-3 -17 -3 -34q0 -8 1 -18t7.5 -28.5t18 -32.5t34.5 -25t55 -11q50 0 87 33.5t47 93.5l73 414h170l-76 -438q-22 -121 -111 -197t-205 -76z" />
    <glyph glyph-name="uring" unicode="&#x16f;" horiz-adv-x="568" 
d="M389 766q-22 0 -37.5 -16t-15.5 -38q0 -19 13 -31t32 -12q22 0 37.5 15.5t15.5 37.5q0 20 -13 32t-32 12zM231 702q0 69 48.5 119t117.5 50q61 0 101.5 -39t40.5 -99q0 -69 -48.5 -119t-117.5 -50q-61 0 -101.5 38.5t-40.5 99.5zM609 500l-88 -500h-172l87 500h173z
M306 500l-52 -293q-5 -29 9.5 -49t44.5 -20q29 0 50 15t25 43h57q-15 -83 -78 -144.5t-138 -61.5q-78 0 -119.5 54.5t-24.5 152.5l54 303h172z" />
    <glyph glyph-name="Uhungarumlaut" unicode="&#x170;" horiz-adv-x="690" 
d="M776 897l-55 105l-196 -143l43 -78zM516 897l-55 105l-196 -143l43 -78zM368 -11q-118 0 -195.5 74.5t-77.5 191.5q0 28 5 58l68 387h171l-69 -392q-3 -17 -3 -34q0 -8 1 -18t7.5 -28.5t18 -32.5t34.5 -25t55 -11q50 0 87 33.5t47 93.5l73 414h170l-76 -438
q-22 -121 -111 -197t-205 -76z" />
    <glyph glyph-name="uhungarumlaut" unicode="&#x171;" horiz-adv-x="568" 
d="M673 686l-55 105l-196 -143l43 -78zM413 686l-55 105l-196 -143l43 -78zM609 500l-88 -500h-172l87 500h173zM306 500l-52 -293q-5 -29 9.5 -49t44.5 -20q29 0 50 15t25 43h57q-15 -83 -78 -144.5t-138 -61.5q-78 0 -119.5 54.5t-24.5 152.5l54 303h172z" />
    <glyph glyph-name="Uogonek" unicode="&#x172;" horiz-adv-x="690" 
d="M307 -316q-63 0 -104 35t-41 88q0 50 26 85t86 67l31 16l6 36h118l-13 -73l-77 -41q-54 -28 -54 -66q0 -13 8 -21t22 -8q27 0 38 26l110 -29q-23 -54 -64.5 -84.5t-91.5 -30.5zM368 -11q-118 0 -195.5 74.5t-77.5 191.5q0 28 5 58l68 387h171l-69 -392q-3 -17 -3 -34
q0 -8 1 -18t7.5 -28.5t18 -32.5t34.5 -25t55 -11q50 0 87 33.5t47 93.5l73 414h170l-76 -438q-22 -121 -111 -197t-205 -76z" />
    <glyph glyph-name="uogonek" unicode="&#x173;" horiz-adv-x="568" 
d="M375 -317q-63 0 -104 35t-41 88q0 50 26 85t86 67l31 16l6 36h118l-13 -73l-77 -41q-54 -28 -54 -66q0 -13 8 -21t22 -8q27 0 38 26l110 -29q-23 -54 -64.5 -84.5t-91.5 -30.5zM609 500l-88 -500h-172l87 500h173zM306 500l-52 -293q-5 -29 9.5 -49t44.5 -20q29 0 50 15
t25 43h57q-15 -83 -78 -144.5t-138 -61.5q-78 0 -119.5 54.5t-24.5 152.5l54 303h172z" />
    <glyph glyph-name="Wcircumflex" unicode="&#x174;" horiz-adv-x="1073" 
d="M688 998l-222 -126l46 -105l177 104l144 -110l75 94l-180 139zM969 700h186l-267 -700h-254l-21 447l-154 -447h-264l-39 700h181l23 -486l190 486h206l33 -486z" />
    <glyph glyph-name="wcircumflex" unicode="&#x175;" horiz-adv-x="938" 
d="M578 788l-222 -126l46 -105l177 104l144 -110l75 94l-180 139zM821 500h181l-219 -500h-244l-29 287l-121 -287h-226l-49 500h172l18 -340l153 340h177l41 -345z" />
    <glyph glyph-name="Ycircumflex" unicode="&#x176;" horiz-adv-x="698" 
d="M514 998l-222 -126l46 -105l177 104l144 -110l75 94l-180 139zM272 0h170l39 220l316 480h-206l-165 -272l-88 272h-193l166 -480z" />
    <glyph glyph-name="ycircumflex" unicode="&#x177;" horiz-adv-x="624" 
d="M425 787l-222 -126l46 -105l177 104l144 -110l75 94l-180 139zM501 500l-164 -310l-50 310h-173l98 -481l-121 -219h186l410 700h-186z" />
    <glyph glyph-name="Ydieresis" unicode="&#x178;" horiz-adv-x="698" 
d="M521 876q0 42 28.5 70.5t70.5 28.5t70.5 -28.5t28.5 -70.5t-28.5 -70.5t-70.5 -28.5t-70.5 28.5t-28.5 70.5zM261 876q0 42 28.5 70.5t70.5 28.5t70.5 -28.5t28.5 -70.5t-28.5 -70.5t-70.5 -28.5t-70.5 28.5t-28.5 70.5zM272 0h170l39 220l316 480h-206l-165 -272
l-88 272h-193l166 -480z" />
    <glyph glyph-name="Zacute" unicode="&#x179;" horiz-adv-x="628" 
d="M641 893l-65 105l-195 -121l62 -100zM592 0l30 167h-325l384 336l35 197h-548l-30 -167h325l-383 -330l-36 -203h548z" />
    <glyph glyph-name="zacute" unicode="&#x17a;" horiz-adv-x="492" 
d="M536 682l-65 105l-195 -121l62 -100zM464 0l26 146h-245l276 183l30 171h-434l-26 -146h214l-246 -183l-30 -171h435z" />
    <glyph glyph-name="Zdotaccent" unicode="&#x17b;" horiz-adv-x="628" 
d="M357 876q0 42 28.5 70.5t70.5 28.5t70.5 -28.5t28.5 -70.5t-28.5 -70.5t-70.5 -28.5t-70.5 28.5t-28.5 70.5zM592 0l30 167h-325l384 336l35 197h-548l-30 -167h325l-383 -330l-36 -203h548z" />
    <glyph glyph-name="zdotaccent" unicode="&#x17c;" horiz-adv-x="492" 
d="M252 665q0 42 28.5 70.5t70.5 28.5t70.5 -28.5t28.5 -70.5t-28.5 -70.5t-70.5 -28.5t-70.5 28.5t-28.5 70.5zM464 0l26 146h-245l276 183l30 171h-434l-26 -146h214l-246 -183l-30 -171h435z" />
    <glyph glyph-name="Zcaron" unicode="&#x17d;" horiz-adv-x="628" 
d="M476 764l221 125l-45 105l-177 -104l-145 111l-74 -95l180 -139zM592 0l30 167h-325l384 336l35 197h-548l-30 -167h325l-383 -330l-36 -203h548z" />
    <glyph glyph-name="zcaron" unicode="&#x17e;" horiz-adv-x="492" 
d="M371 553l221 125l-45 105l-177 -104l-145 111l-74 -95l180 -139zM464 0l26 146h-245l276 183l30 171h-434l-26 -146h214l-246 -183l-30 -171h435z" />
    <glyph glyph-name="Ohorn" unicode="&#x1a0;" 
d="M869 707q0 -69 -41 -109t-116 -40h-96l19 103h60q24 0 38 12t14 34q0 21 -20 39l91 73q19 -12 35 -47.5t16 -64.5zM472 550q-88 0 -150 -63.5t-62 -154.5q0 -79 50 -129.5t128 -50.5q88 0 150.5 65t62.5 155q0 78 -50.5 128t-128.5 50zM89 329q0 106 51.5 196
t139.5 142.5t192 52.5q149 0 249 -99t100 -245q0 -106 -51.5 -197t-140 -144t-191.5 -53q-148 0 -248.5 99.5t-100.5 247.5z" />
    <glyph glyph-name="ohorn" unicode="&#x1a1;" horiz-adv-x="672" 
d="M781 483q0 -69 -41 -109t-116 -40h-96l19 103h60q24 0 38 12t14 34q0 21 -20 39l91 73q19 -12 35 -47.5t16 -64.5zM363 360q-50 0 -84.5 -35.5t-34.5 -85.5q0 -43 29 -70t72 -27q50 0 84.5 35.5t34.5 85.5q0 43 -29 70t-72 27zM74 226q0 121 87 207.5t213 86.5
q111 0 185.5 -68.5t74.5 -175.5q0 -121 -87 -207.5t-213 -86.5q-111 0 -185.5 68.5t-74.5 175.5z" />
    <glyph glyph-name="Uhorn" unicode="&#x1af;" horiz-adv-x="858" 
d="M943 682q0 -69 -41 -109t-116 -40h-96l19 103h60q24 0 38 12t14 34q0 21 -20 39l91 73q19 -12 35 -47.5t16 -64.5zM368 -11q-118 0 -195.5 74.5t-77.5 191.5q0 28 5 58l68 387h171l-69 -392q-3 -17 -3 -34q0 -8 1 -18t7.5 -28.5t18 -32.5t34.5 -25t55 -11q50 0 87 33.5
t47 93.5l73 414h170l-76 -438q-22 -121 -111 -197t-205 -76z" />
    <glyph glyph-name="uhorn" unicode="&#x1b0;" horiz-adv-x="730" 
d="M777 459q0 -69 -41 -109t-116 -40h-96l19 103h60q24 0 38 12t14 34q0 21 -20 39l91 73q19 -12 35 -47.5t16 -64.5zM609 500l-88 -500h-172l87 500h173zM306 500l-52 -293q-5 -29 9.5 -49t44.5 -20q29 0 50 15t25 43h57q-15 -83 -78 -144.5t-138 -61.5q-78 0 -119.5 54.5
t-24.5 152.5l54 303h172z" />
    <glyph glyph-name="uni0237" unicode="&#x237;" horiz-adv-x="262" 
d="M-25 -51q29 0 49 22.5t27 58.5l82 470h172l-96 -539q-13 -76 -74.5 -129.5t-144.5 -53.5h-50l19 170z" />
    <glyph glyph-name="uni02BC" unicode="&#x2bc;" horiz-adv-x="256" 
d="M220 784l141 -56l-102 -245l-136 53z" />
    <glyph glyph-name="gravecomb" unicode="&#x300;" horiz-adv-x="264" 
d="M3 649l85 92l162 -153l-80 -88z" />
    <glyph glyph-name="acutecomb" unicode="&#x301;" horiz-adv-x="264" 
d="M290 616l-65 105l-195 -121l62 -100z" />
    <glyph glyph-name="uni0302" unicode="&#x302;" horiz-adv-x="388" 
d="M217 721l-222 -126l46 -105l177 104l144 -110l75 94l-180 139z" />
    <glyph glyph-name="tildecomb" unicode="&#x303;" horiz-adv-x="404" 
d="M146 674q-114 0 -157 -150l105 -18q19 59 51 59q15 0 37 -19q54 -46 99 -46q111 0 154 150l-104 18q-20 -56 -55 -56q-21 0 -39 18q-26 24 -46 34t-45 10z" />
    <glyph glyph-name="uni0304" unicode="&#x304;" horiz-adv-x="352" 
d="M363 637l-22 -127h-352l22 127h352z" />
    <glyph glyph-name="uni0306" unicode="&#x306;" horiz-adv-x="338" 
d="M168 501q-78 0 -128.5 46t-50.5 115q0 15 3 31h119q-1 -7 -1 -14q0 -28 19.5 -45.5t51.5 -17.5q38 0 68 22.5t36 54.5h135q-14 -77 -89 -134.5t-163 -57.5z" />
    <glyph glyph-name="uni0307" unicode="&#x307;" horiz-adv-x="170" 
d="M-14 599q0 42 28.5 70.5t70.5 28.5t70.5 -28.5t28.5 -70.5t-28.5 -70.5t-70.5 -28.5t-70.5 28.5t-28.5 70.5z" />
    <glyph glyph-name="uni0308" unicode="&#x308;" horiz-adv-x="390" 
d="M226 599q0 42 28.5 70.5t70.5 28.5t70.5 -28.5t28.5 -70.5t-28.5 -70.5t-70.5 -28.5t-70.5 28.5t-28.5 70.5zM-34 599q0 42 28.5 70.5t70.5 28.5t70.5 -28.5t28.5 -70.5t-28.5 -70.5t-70.5 -28.5t-70.5 28.5t-28.5 70.5z" />
    <glyph glyph-name="hookabovecomb" unicode="&#x309;" horiz-adv-x="260" 
d="M152 821q63 0 102.5 -37.5t39.5 -96.5q0 -54 -26.5 -91.5t-92.5 -78.5l-51 -28l-49 96l68 33q42 20 42 57q0 17 -12 28t-32 11q-33 0 -46 -32l-97 34q23 49 63.5 77t90.5 28z" />
    <glyph glyph-name="uni030A" unicode="&#x30a;" horiz-adv-x="298" 
d="M164 702q-22 0 -37.5 -16t-15.5 -38q0 -19 13 -31t32 -12q22 0 37.5 15.5t15.5 37.5q0 20 -13 32t-32 12zM6 638q0 69 48.5 119t117.5 50q61 0 101.5 -39t40.5 -99q0 -69 -48.5 -119t-117.5 -50q-61 0 -101.5 38.5t-40.5 99.5z" />
    <glyph glyph-name="uni030B" unicode="&#x30b;" horiz-adv-x="424" 
d="M504 622l-55 105l-196 -143l43 -78zM244 622l-55 105l-196 -143l43 -78z" />
    <glyph glyph-name="uni030C" unicode="&#x30c;" horiz-adv-x="388" 
d="M214 487l221 125l-45 105l-177 -104l-145 111l-74 -95l180 -139z" />
    <glyph glyph-name="uni0312" unicode="&#x312;" horiz-adv-x="170" 
d="M279 588q-7 -35 -35.5 -61.5t-66 -26.5t-59.5 25t-15 62q5 31 28 57l169 193l47 -42l-110 -124q24 -10 35 -33t7 -50z" />
    <glyph glyph-name="uni0313" unicode="&#x313;" horiz-adv-x="170" 
d="M163 749q6 35 35 61.5t66.5 26.5t59.5 -25t15 -62q-5 -31 -28 -57l-169 -193l-47 42l109 124q-23 10 -34.5 33t-6.5 50z" />
    <glyph glyph-name="uni0315" unicode="&#x315;" horiz-adv-x="170" 
d="M252 753l142 -43l-103 -251l-138 41z" />
    <glyph glyph-name="uni031B" unicode="&#x31b;" horiz-adv-x="247" 
d="M373 571q0 -69 -41 -109t-116 -40h-96l19 103h60q24 0 38 12t14 34q0 21 -20 39l91 73q19 -12 35 -47.5t16 -64.5z" />
    <glyph glyph-name="dotbelowcomb" unicode="&#x323;" horiz-adv-x="170" 
d="M-36 -160q0 42 28.5 70.5t70.5 28.5t70.5 -28.5t28.5 -70.5t-28.5 -70.5t-70.5 -28.5t-70.5 28.5t-28.5 70.5z" />
    <glyph glyph-name="uni0326" unicode="&#x326;" horiz-adv-x="170" 
d="M66 -287q0 -38 -28 -66.5t-65 -28.5q-36 0 -59.5 22.5t-23.5 56.5q0 39 29 71l167 180l47 -47l-109 -115q42 -23 42 -73z" />
    <glyph glyph-name="uni0327" unicode="&#x327;" horiz-adv-x="405" 
d="M218 -178q0 13 -7.5 22t-20.5 9t-27 -11l-122 50l25 143l129 -11l-18 -103q36 33 77 33q42 0 69.5 -35t27.5 -88q0 -78 -52.5 -130.5t-130.5 -52.5q-72 0 -120.5 39.5t-57.5 103.5l134 33q1 -20 15 -32.5t36 -12.5q19 0 31 12t12 31z" />
    <glyph glyph-name="uni0328" unicode="&#x328;" horiz-adv-x="247" 
d="M78 -317q-63 0 -104 35t-41 88q0 50 26 85t86 67l31 16l6 36h118l-13 -73l-77 -41q-54 -28 -54 -66q0 -13 8 -21t22 -8q27 0 38 26l110 -29q-23 -54 -64.5 -84.5t-91.5 -30.5z" />
    <glyph glyph-name="uni0400" unicode="&#x400;" horiz-adv-x="595" 
d="M279 926l85 92l162 -153l-80 -88zM296 442h316l-29 -167h-316l-20 -108h342l-29 -167h-515l125 700h512l-29 -167h-342z" />
    <glyph glyph-name="uni0401" unicode="&#x401;" horiz-adv-x="595" 
d="M465 876q0 42 28.5 70.5t70.5 28.5t70.5 -28.5t28.5 -70.5t-28.5 -70.5t-70.5 -28.5t-70.5 28.5t-28.5 70.5zM205 876q0 42 28.5 70.5t70.5 28.5t70.5 -28.5t28.5 -70.5t-28.5 -70.5t-70.5 -28.5t-70.5 28.5t-28.5 70.5zM296 442h316l-29 -167h-316l-20 -108h342
l-29 -167h-515l125 700h512l-29 -167h-342z" />
    <glyph glyph-name="uni0402" unicode="&#x402;" horiz-adv-x="775" 
d="M536 168q29 0 48 16t19 35q0 18 -14.5 29.5t-36.5 11.5h-169l-46 -260h-170l94 533h-142l29 167h564l-29 -167h-252l-19 -105h169q86 0 140.5 -53.5t54.5 -135.5q0 -89 -66 -164t-164 -75h-112l30 168h72z" />
    <glyph glyph-name="uni0403" unicode="&#x403;" horiz-adv-x="600" 
d="M637 893l-65 105l-195 -121l62 -100zM50 0h170l96 542h350l27 158h-520z" />
    <glyph glyph-name="uni0404" unicode="&#x404;" horiz-adv-x="778" 
d="M88 323q0 169 114 283t284 114q66 0 127 -22.5t117 -82t82 -149.5l-165 -55q-15 63 -62.5 101t-113.5 38q-87 0 -149.5 -65t-62.5 -155q0 -77 50.5 -127.5t126.5 -50.5q57 0 107.5 31t81.5 85l153 -86q-59 -97 -150.5 -149t-202.5 -52q-144 0 -240.5 98t-96.5 244z
M592 436l-20 -167h-362v167h382z" />
    <glyph glyph-name="uni0405" unicode="&#x405;" horiz-adv-x="594" 
d="M347 149q33 0 54.5 16t21.5 40q0 41 -94 63q-98 25 -151 80t-53 131q0 101 73 168t182 67q101 0 176.5 -54.5t95.5 -142.5l-174 -45q-9 37 -37 59t-65 22q-31 0 -51.5 -16.5t-20.5 -40.5q0 -37 88 -60q99 -27 154.5 -84.5t55.5 -134.5q0 -99 -74 -164t-186 -65
q-102 0 -180 51.5t-100 133.5l178 64q9 -41 38 -64.5t69 -23.5z" />
    <glyph glyph-name="uni0406" unicode="&#x406;" horiz-adv-x="270" 
d="M217 0h-172l123 700h171z" />
    <glyph glyph-name="uni0407" unicode="&#x407;" horiz-adv-x="270" 
d="M296 874q0 42 28.5 70.5t70.5 28.5t70.5 -28.5t28.5 -70.5t-28.5 -70.5t-70.5 -28.5t-70.5 28.5t-28.5 70.5zM36 874q0 42 28.5 70.5t70.5 28.5t70.5 -28.5t28.5 -70.5t-28.5 -70.5t-70.5 -28.5t-70.5 28.5t-28.5 70.5zM217 0h-172l123 700h171z" />
    <glyph glyph-name="uni0408" unicode="&#x408;" horiz-adv-x="664" 
d="M230 272q11 -113 120 -113q52 0 88 34.5t46 93.5l73 413h170l-76 -438q-21 -119 -110 -196t-206 -77q-114 0 -188 66t-87 179z" />
    <glyph glyph-name="uni0409" unicode="&#x409;" horiz-adv-x="1205" 
d="M936 0q113 0 193.5 84.5t80.5 192.5q0 82 -56.5 136.5t-144.5 54.5h-229l40 232h-500l-69 -395q-11 -64 -54.5 -105.5t-109.5 -41.5h-29l-28 -158h49q128 0 222 80.5t114 190.5l48 271h160l-96 -542h409zM1038 248q0 -30 -23.5 -55t-58.5 -25h-229l23 132h229
q26 0 42.5 -14.5t16.5 -37.5z" />
    <glyph glyph-name="uni040A" unicode="&#x40a;" horiz-adv-x="1038" 
d="M779 0q109 0 185.5 75.5t76.5 169.5q0 88 -54 145.5t-139 57.5h-179l44 252h-170l-123 -700h359zM869 236q0 -24 -19.5 -46t-50.5 -22h-179l19 112h179q23 0 37 -12.5t14 -31.5zM508 445h-210l45 255h-170l-123 -700h170l49 277h210z" />
    <glyph glyph-name="uni040B" unicode="&#x40b;" horiz-adv-x="705" 
d="M699 192l-34 -192h-170l34 192q1 4 1 13q0 24 -16 39.5t-42 15.5h-89l-46 -260h-170l94 533h-142l29 167h564l-29 -167h-252l-19 -105h89q89 0 145.5 -55t56.5 -139q0 -23 -4 -42z" />
    <glyph glyph-name="uni040C" unicode="&#x40c;" horiz-adv-x="698" 
d="M662 891l-65 105l-195 -121l62 -100zM45 0l124 700h172l-47 -265h15l256 265h227l-343 -350l219 -350h-207l-174 262h-24l-46 -262h-172z" />
    <glyph glyph-name="uni040D" unicode="&#x40d;" horiz-adv-x="700" 
d="M336 926l85 92l162 -153l-80 -88zM650 0h-170l75 427l-302 -427h-203l123 700h170l-75 -427l302 427h203z" />
    <glyph glyph-name="uni040E" unicode="&#x40e;" horiz-adv-x="712" 
d="M502 778q-78 0 -128.5 46t-50.5 115q0 15 3 31h119q-1 -7 -1 -14q0 -28 19.5 -45.5t51.5 -17.5q38 0 68 22.5t36 54.5h135q-14 -77 -89 -134.5t-163 -57.5zM169 0h192l444 700h-209l-168 -300l-85 300h-190l161 -452z" />
    <glyph glyph-name="uni040F" unicode="&#x40f;" horiz-adv-x="740" 
d="M690 0l123 700h-170l-95 -542h-300l95 542h-170l-123 -700h229l-31 -175h190l31 175h221z" />
    <glyph glyph-name="uni0410" unicode="&#x410;" horiz-adv-x="804" 
d="M237 0h-203l380 700h234l136 -700h-189l-88 506zM274 297h375l-28 -158h-375z" />
    <glyph glyph-name="uni0411" unicode="&#x411;" horiz-adv-x="713" 
d="M715 254q0 -94 -76 -174t-190 -80h-399l123 700h502l-29 -167h-332l-17 -95h219q87 0 143 -52.5t56 -131.5zM469 168q33 0 53 17.5t20 39.5q0 20 -15 32.5t-40 12.5h-219l-18 -102h219z" />
    <glyph glyph-name="uni0412" unicode="&#x412;" horiz-adv-x="658" 
d="M468 432q24 0 43 18t19 41q0 18 -12 29.5t-32 11.5h-175l-18 -100h175zM432 168q24 0 42 18t18 41q0 19 -14.5 31t-37.5 12h-175l-18 -102h185zM660 226q0 -91 -72 -158.5t-174 -67.5h-369l124 700h359q80 0 129.5 -43.5t49.5 -112.5q0 -56 -31.5 -109t-82.5 -81
q67 -41 67 -128z" />
    <glyph glyph-name="uni0413" unicode="&#x413;" horiz-adv-x="600" 
d="M50 0h170l96 542h350l27 158h-520z" />
    <glyph glyph-name="uni0414" unicode="&#x414;" horiz-adv-x="820" 
d="M53 158l-48 -274h170l20 116h430l-20 -116h170l48 274h-770zM87 158h-34l-6 -117h29q136 0 236 80t120 190l39 221h150l-94 -531h170l123 699h-490l-66 -375q-13 -73 -59.5 -120t-117.5 -47z" />
    <glyph glyph-name="uni0415" unicode="&#x415;" horiz-adv-x="595" 
d="M296 442h316l-29 -167h-316l-20 -108h342l-29 -167h-515l125 700h512l-29 -167h-342z" />
    <glyph glyph-name="uni0416" unicode="&#x416;" horiz-adv-x="1070" 
d="M573 700h170l-46 -263h47l226 263h196l-301 -348l178 -352h-176l-133 264h-67l-47 -264h-170l47 264h-47l-232 -264h-191l302 349l-179 351h171l139 -263h67z" />
    <glyph glyph-name="uni0417" unicode="&#x417;" horiz-adv-x="576" 
d="M441 498q0 26 -18 42.5t-47 16.5q-54 0 -85 -50l-141 84q41 59 104 92.5t136 33.5q96 0 161 -53.5t65 -132.5q0 -56 -32.5 -103t-86.5 -70q38 -25 59.5 -66.5t21.5 -88.5q0 -94 -74.5 -157.5t-184.5 -63.5q-97 0 -168.5 47.5t-95.5 127.5l177 69q7 -38 32 -61t61 -23
q37 0 62 23t25 57q0 26 -16 42t-41 16h-110l18 157h119q25 0 42 17.5t17 43.5z" />
    <glyph glyph-name="uni0418" unicode="&#x418;" horiz-adv-x="700" 
d="M650 0h-170l75 427l-302 -427h-203l123 700h170l-75 -427l302 427h203z" />
    <glyph glyph-name="uni0419" unicode="&#x419;" horiz-adv-x="700" 
d="M494 778q-78 0 -128.5 46t-50.5 115q0 15 3 31h119q-1 -7 -1 -14q0 -28 19.5 -45.5t51.5 -17.5q38 0 68 22.5t36 54.5h135q-14 -77 -89 -134.5t-163 -57.5zM650 0h-170l75 427l-302 -427h-203l123 700h170l-75 -427l302 427h203z" />
    <glyph glyph-name="uni041A" unicode="&#x41a;" horiz-adv-x="698" 
d="M45 0l124 700h172l-47 -265h15l256 265h227l-343 -350l219 -350h-207l-174 262h-24l-46 -262h-172z" />
    <glyph glyph-name="uni041B" unicode="&#x41b;" horiz-adv-x="747" 
d="M87 158h-29l-28 -158h49q128 0 222 80.5t114 190.5l48 271h160l-96 -542h170l123 700h-500l-69 -395q-11 -64 -54.5 -105.5t-109.5 -41.5z" />
    <glyph glyph-name="uni041C" unicode="&#x41c;" horiz-adv-x="836" 
d="M44 0l123 700h185l119 -345l247 345h205l-123 -700h-173l70 396l-204 -292h-105l-101 292l-70 -396h-173z" />
    <glyph glyph-name="uni041D" unicode="&#x41d;" horiz-adv-x="700" 
d="M45 0l123 700h171l-44 -259h259l46 259h170l-122 -700h-171l50 278h-260l-50 -278h-172z" />
    <glyph glyph-name="uni041E" unicode="&#x41e;" 
d="M472 550q-88 0 -150 -63.5t-62 -154.5q0 -79 50 -129.5t128 -50.5q88 0 150.5 65t62.5 155q0 78 -50.5 128t-128.5 50zM89 329q0 106 51.5 196t139.5 142.5t192 52.5q149 0 249 -99t100 -245q0 -106 -51.5 -197t-140 -144t-191.5 -53q-148 0 -248.5 99.5t-100.5 247.5z
" />
    <glyph glyph-name="uni041F" unicode="&#x41f;" horiz-adv-x="720" 
d="M50 0l123 700h620l-123 -700h-170l96 542h-280l-96 -542h-170z" />
    <glyph glyph-name="uni0420" unicode="&#x420;" horiz-adv-x="648" 
d="M408 360q58 0 87 29t29 73q0 31 -24 50.5t-62 19.5h-127l-30 -172h127zM697 475q0 -120 -86 -201.5t-213 -81.5h-147l-34 -192h-172l124 700h289q97 0 168 -66.5t71 -158.5z" />
    <glyph glyph-name="uni0421" unicode="&#x421;" horiz-adv-x="778" 
d="M88 323q0 169 114 283t284 114q66 0 127 -22.5t117 -82t82 -149.5l-165 -55q-15 63 -62.5 101t-113.5 38q-87 0 -149.5 -65t-62.5 -155q0 -77 50.5 -127.5t126.5 -50.5q57 0 107.5 31t81.5 85l153 -86q-59 -97 -150.5 -149t-202.5 -52q-144 0 -240.5 98t-96.5 244z" />
    <glyph glyph-name="uni0422" unicode="&#x422;" horiz-adv-x="616" 
d="M718 700l-30 -168h-197l-96 -532h-170l94 532h-203l29 168h573z" />
    <glyph glyph-name="uni0423" unicode="&#x423;" horiz-adv-x="712" 
d="M169 0h192l444 700h-209l-168 -300l-85 300h-190l161 -452z" />
    <glyph glyph-name="uni0424" unicode="&#x424;" horiz-adv-x="808" 
d="M320 0l132 750h170l-132 -750h-170zM676 385q0 57 -61 92.5t-157 35.5q-85 0 -137 -35.5t-52 -93.5t60 -94.5t156 -36.5q85 0 138 36.5t53 95.5zM98 368q0 135 104 220t267 85q168 0 272.5 -75.5t104.5 -197.5q0 -134 -104.5 -220.5t-267.5 -86.5q-167 0 -271.5 76.5
t-104.5 198.5z" />
    <glyph glyph-name="uni0425" unicode="&#x425;" horiz-adv-x="724" 
d="M699 0h-197l-87 261l-180 -261h-212l256 350l-132 350h198l88 -261l179 261h211l-254 -350z" />
    <glyph glyph-name="uni0426" unicode="&#x426;" horiz-adv-x="770" 
d="M670 168l93 532h-170l-93 -532h-250l93 532h-170l-123 -700h520l-24 -136h170l54 304h-100z" />
    <glyph glyph-name="uni0427" unicode="&#x427;" horiz-adv-x="668" 
d="M741 700l-123 -700h-170l123 700h170zM343 700l-39 -223q-2 -10 -2 -27q0 -43 25.5 -67t68.5 -24q47 0 86.5 29t46.5 69h58q-18 -111 -91.5 -184.5t-165.5 -73.5q-93 0 -150.5 48t-57.5 135q0 22 5 55l46 263h170z" />
    <glyph glyph-name="uni0428" unicode="&#x428;" horiz-adv-x="980" 
d="M930 0l123 700h-170l-93 -532h-183l93 532h-170l-93 -532h-187l93 532h-170l-123 -700h880z" />
    <glyph glyph-name="uni0429" unicode="&#x429;" horiz-adv-x="1050" 
d="M960 168l93 532h-170l-93 -532h-183l93 532h-170l-93 -532h-187l93 532h-170l-123 -700h800l-24 -136h170l54 304h-90z" />
    <glyph glyph-name="uni042A" unicode="&#x42a;" horiz-adv-x="830" 
d="M571 168q37 0 64 21.5t27 53.5q0 25 -19 41t-49 16h-179l-23 -132h179zM834 272q0 -110 -83.5 -191t-199.5 -81h-359l94 533h-162l29 167h332l-40 -232h179q93 0 151.5 -55.5t58.5 -140.5z" />
    <glyph glyph-name="uni042B" unicode="&#x42b;" horiz-adv-x="912" 
d="M862 0h-170l123 700h170zM663 277q0 -108 -80.5 -192.5t-193.5 -84.5h-339l123 700h170l-40 -232h159q88 0 144.5 -54.5t56.5 -136.5zM409 168q35 0 58.5 25t23.5 55q0 23 -16.5 37.5t-42.5 14.5h-159l-23 -132h159z" />
    <glyph glyph-name="uni042C" unicode="&#x42c;" horiz-adv-x="723" 
d="M733 277q0 -108 -80.5 -192.5t-193.5 -84.5h-409l123 700h170l-40 -232h229q88 0 144.5 -54.5t56.5 -136.5zM479 168q35 0 58.5 25t23.5 55q0 23 -16.5 37.5t-42.5 14.5h-229l-23 -132h229z" />
    <glyph glyph-name="uni042D" unicode="&#x42d;" horiz-adv-x="778" 
d="M806 378q0 -169 -114 -283t-284 -114q-66 0 -127 22.5t-117 82t-82 149.5l165 55q15 -63 62.5 -101t113.5 -38q87 0 149.5 65t62.5 155q0 77 -50.5 127.5t-126.5 50.5q-57 0 -107.5 -31t-81.5 -85l-153 86q59 97 150.5 149t202.5 52q144 0 240.5 -98t96.5 -244zM302 265
l20 167h362v-167h-382z" />
    <glyph glyph-name="uni042E" unicode="&#x42e;" horiz-adv-x="1098" 
d="M557 330q0 92 61.5 156t150.5 64q78 0 128.5 -49.5t50.5 -125.5q0 -92 -62.5 -157.5t-150.5 -65.5q-77 0 -127.5 50.5t-50.5 127.5zM782 720q-164 0 -280 -119t-116 -288q0 -143 95 -237t240 -94q164 0 280.5 120t116.5 290q0 142 -95 235t-241 93zM453 435h-160l47 265
h-170l-124 -700h170l47 267h160z" />
    <glyph glyph-name="uni042F" unicode="&#x42f;" horiz-adv-x="648" 
d="M393 532q-42 0 -71.5 -21.5t-29.5 -52.5q0 -26 21.5 -42t56.5 -16h129l23 132h-129zM108 440q0 117 82.5 188.5t211.5 71.5h319l-123 -700h-170l41 234h-58l-177 -234h-204l213 254q-58 15 -96.5 69t-38.5 117z" />
    <glyph glyph-name="uni0430" unicode="&#x430;" horiz-adv-x="537" 
d="M321 512q93 0 158.5 -54t65.5 -130q0 -13 -2 -25l-52 -303h-171l32 188l-83 -5q-39 -2 -39 -26q0 -25 42 -25q33 0 54.5 14.5t25.5 38.5h34q-14 -86 -67.5 -140t-124.5 -54q-61 0 -99 39.5t-38 102.5q0 73 53 119.5t141 50.5l123 8v2q1 2 1 5q0 18 -17.5 31t-41.5 13
q-21 0 -39 -11t-26 -29l-155 68q30 55 92 88.5t133 33.5z" />
    <glyph glyph-name="uni0431" unicode="&#x431;" horiz-adv-x="610" 
d="M335 -18q-116 0 -183.5 68.5t-67.5 186.5q0 199 102.5 332.5t257.5 137.5q38 1 72.5 13.5t83.5 43.5l57 -131q-104 -71 -212 -75q-61 -3 -108 -49.5t-65 -120.5q28 36 72.5 57.5t92.5 21.5q79 0 130 -57t51 -146q0 -119 -82 -200.5t-201 -81.5zM351 310q-41 0 -68 -22
t-27 -56q0 -33 27.5 -56.5t66.5 -23.5q40 0 68 24.5t28 59.5q0 32 -27 53t-68 21z" />
    <glyph glyph-name="uni0432" unicode="&#x432;" horiz-adv-x="608" 
d="M430 311q11 0 19 7t8 16q0 18 -26 18h-149l-7 -41h155zM405 148q13 0 23 7t10 17q0 17 -26 17h-159l-7 -41h159zM605 164q0 -69 -62.5 -116.5t-153.5 -47.5h-339l88 500h329q74 0 121 -31.5t47 -81.5q0 -36 -24 -70t-62 -51q56 -33 56 -102z" />
    <glyph glyph-name="uni0433" unicode="&#x433;" horiz-adv-x="470" 
d="M50 0h170l60 342h220l28 158h-390z" />
    <glyph glyph-name="uni0434" unicode="&#x434;" horiz-adv-x="672" 
d="M53 158l-48 -274h170l20 116h282l-20 -116h170l48 274h-622zM77 158h-19l-17 -98h29q114 0 195.5 57t95.5 134l15 81h90l-59 -331h170l88 499h-430l-41 -235q-8 -46 -39 -76.5t-78 -30.5z" />
    <glyph glyph-name="uni0435" unicode="&#x435;" horiz-adv-x="592" 
d="M438 330q-9 16 -30.5 25.5t-49.5 9.5q-63 0 -96 -45h180q-2 6 -4 10zM607 274q0 -36 -10 -79h-348q7 -27 34 -42.5t65 -15.5q62 0 92 47l138 -90q-90 -112 -236 -112q-117 0 -193 70.5t-76 179.5q0 119 83 203.5t201 84.5q107 0 178.5 -70.5t71.5 -175.5z" />
    <glyph glyph-name="uni0436" unicode="&#x436;" horiz-adv-x="904" 
d="M455 500h170l-30 -170h30l158 170h184l-234 -250l146 -250h-184l-99 167h-30l-29 -167h-170l30 170h-30l-158 -170h-184l234 250l-146 250h184l99 -167h30z" />
    <glyph glyph-name="uni0437" unicode="&#x437;" horiz-adv-x="504" 
d="M350 326q0 11 -11.5 18t-27.5 7q-25 0 -40 -18l-150 85q34 47 87.5 73t115.5 26q86 0 144 -43.5t58 -108.5q0 -40 -22 -75t-58 -52q50 -37 50 -103q0 -67 -59.5 -110.5t-148.5 -43.5q-86 0 -150.5 39t-87.5 104l175 58q6 -17 23 -27.5t40 -10.5q19 0 32 7.5t13 17.5
q0 8 -8 14t-21 6h-62l8 118h75q25 0 25 19z" />
    <glyph glyph-name="uni0438" unicode="&#x438;" horiz-adv-x="640" 
d="M590 0h-170l51 267l-228 -267h-193l88 500h170l-45 -257l222 257h193z" />
    <glyph glyph-name="uni0439" unicode="&#x439;" horiz-adv-x="640" 
d="M425 569q-78 0 -128.5 46t-50.5 115q0 15 3 31h119q-1 -7 -1 -14q0 -28 19.5 -45.5t51.5 -17.5q38 0 68 22.5t36 54.5h135q-14 -77 -89 -134.5t-163 -57.5zM590 0h-170l51 267l-228 -267h-193l88 500h170l-45 -257l222 257h193z" />
    <glyph glyph-name="uni043A" unicode="&#x43a;" horiz-adv-x="612" 
d="M45 0l89 500h171l-28 -158h23l146 158h235l-249 -256l156 -244h-204l-111 169h-26l-30 -169h-172z" />
    <glyph glyph-name="uni043B" unicode="&#x43b;" horiz-adv-x="596" 
d="M88 168h-29l-30 -168h39q97 0 168.5 62.5t86.5 148.5l22 121h90l-59 -332h170l88 500h-430l-48 -275q-5 -25 -22.5 -41t-45.5 -16z" />
    <glyph glyph-name="uni043C" unicode="&#x43c;" horiz-adv-x="756" 
d="M50 0l88 500h179l103 -225l183 225h191l-88 -500h-170l48 272l-150 -198h-85l-81 198l-48 -272h-170z" />
    <glyph glyph-name="uni043D" unicode="&#x43d;" horiz-adv-x="611" 
d="M50 0l88 500h170l-30 -170h171l30 170h170l-88 -500h-170l30 172h-171l-30 -172h-170z" />
    <glyph glyph-name="uni043E" unicode="&#x43e;" horiz-adv-x="618" 
d="M363 360q-50 0 -84.5 -35.5t-34.5 -85.5q0 -43 29 -70t72 -27q50 0 84.5 35.5t34.5 85.5q0 43 -29 70t-72 27zM74 226q0 121 87 207.5t213 86.5q111 0 185.5 -68.5t74.5 -175.5q0 -121 -87 -207.5t-213 -86.5q-111 0 -185.5 68.5t-74.5 175.5z" />
    <glyph glyph-name="uni043F" unicode="&#x43f;" horiz-adv-x="590" 
d="M628 500l-88 -500h-170l60 342h-150l-60 -342h-170l88 500h490z" />
    <glyph glyph-name="uni0440" unicode="&#x440;" horiz-adv-x="638" 
d="M131 500h171l-122 -700h-171zM376 360q-49 0 -83.5 -36t-34.5 -84q0 -43 28.5 -70.5t72.5 -27.5q50 0 84 35.5t34 84.5q0 42 -28.5 70t-72.5 28zM202 202q0 80 32.5 151.5t90.5 116.5t127 45q86 0 141.5 -64.5t55.5 -164.5q0 -80 -34 -151t-93.5 -114.5t-128.5 -43.5
q-85 0 -138 63t-53 162z" />
    <glyph glyph-name="uni0441" unicode="&#x441;" horiz-adv-x="594" 
d="M359 359q-47 0 -80.5 -35.5t-33.5 -86.5q0 -42 27 -69t70 -27q64 0 101 54l141 -88q-43 -59 -109.5 -92.5t-142.5 -33.5q-112 0 -184.5 69t-72.5 174q0 122 86.5 209t209.5 87q92 0 162 -48.5t94 -128.5l-167 -60q-8 35 -35.5 55.5t-65.5 20.5z" />
    <glyph glyph-name="uni0442" unicode="&#x442;" horiz-adv-x="510" 
d="M568 500l-28 -158h-140l-60 -342h-170l60 342h-140l28 158h450z" />
    <glyph glyph-name="uni0443" unicode="&#x443;" horiz-adv-x="624" 
d="M501 500l-164 -310l-50 310h-173l98 -481l-121 -219h186l410 700h-186z" />
    <glyph glyph-name="uni0444" unicode="&#x444;" horiz-adv-x="698" 
d="M236 -190l154 870h160l-154 -870h-160zM395 360q-64 0 -106.5 -32t-42.5 -80q0 -45 43 -75.5t106 -30.5q64 0 106.5 32t42.5 80q0 45 -43 75.5t-106 30.5zM76 235q0 120 95.5 203t234.5 83q132 0 220 -72.5t88 -181.5q0 -120 -95.5 -203t-234.5 -83q-132 0 -220 72.5
t-88 181.5z" />
    <glyph glyph-name="uni0445" unicode="&#x445;" horiz-adv-x="598" 
d="M576 0h-184l-66 161l-97 -161h-208l197 261l-104 239h185l59 -161l104 161h206l-202 -261z" />
    <glyph glyph-name="uni0446" unicode="&#x446;" horiz-adv-x="642" 
d="M50 0l88 500h170l-60 -342h160l60 342h170l-60 -342h62l-48 -274h-170l20 116h-392z" />
    <glyph glyph-name="uni0447" unicode="&#x447;" horiz-adv-x="568" 
d="M606 500l-88 -500h-170l88 500h170zM308 500l-25 -143q-2 -12 -2 -16q0 -24 14.5 -38t38.5 -14q27 0 48.5 17t26.5 41h58q-16 -94 -75.5 -156t-133.5 -62q-70 0 -113 37.5t-43 106.5q0 23 4 44l32 183h170z" />
    <glyph glyph-name="uni0448" unicode="&#x448;" horiz-adv-x="870" 
d="M820 0l88 500h-170l-60 -342h-130l60 342h-170l-60 -342h-130l60 342h-170l-88 -500h770z" />
    <glyph glyph-name="uni0449" unicode="&#x449;" horiz-adv-x="942" 
d="M848 158l60 342h-170l-60 -342h-130l60 342h-170l-60 -342h-130l60 342h-170l-88 -500h672l-20 -116h170l48 274h-72z" />
    <glyph glyph-name="uni044A" unicode="&#x44a;" horiz-adv-x="640" 
d="M646 222q0 -91 -66.5 -156.5t-155.5 -65.5h-292l59 333h-102l29 167h272l-22 -123h122q70 0 113 -43.5t43 -111.5zM444 168q29 0 29 22q0 19 -22 19h-112l-7 -41h112z" />
    <glyph glyph-name="uni044B" unicode="&#x44b;" horiz-adv-x="828" 
d="M608 0l88 500h170l-88 -500h-170zM378 167q14 0 23.5 6.5t9.5 16.5q0 19 -25 19h-139l-8 -42h139zM583 217q0 -86 -66.5 -151.5t-157.5 -65.5h-319l88 500h170l-23 -133h149q71 0 115 -42t44 -108z" />
    <glyph glyph-name="uni044C" unicode="&#x44c;" horiz-adv-x="618" 
d="M418 167q14 0 23.5 6.5t9.5 16.5q0 19 -25 19h-169l-8 -42h169zM623 217q0 -86 -66.5 -151.5t-157.5 -65.5h-349l88 500h170l-23 -133h179q71 0 115 -42t44 -108z" />
    <glyph glyph-name="uni044D" unicode="&#x44d;" horiz-adv-x="594" 
d="M316 131q52 0 88.5 39t36.5 93q0 47 -30 76.5t-77 29.5q-71 0 -111 -63l-131 87q43 60 109.5 93.5t142.5 33.5q112 0 184.5 -69t72.5 -174q0 -123 -86.5 -209.5t-209.5 -86.5q-92 0 -162.5 48.5t-93.5 127.5l157 60q9 -38 39 -62t71 -24zM256 185l20 127h302v-127h-322z
" />
    <glyph glyph-name="uni044E" unicode="&#x44e;" horiz-adv-x="868" 
d="M499 238q0 51 33.5 86.5t80.5 35.5q42 0 69 -27t27 -69q0 -51 -33.5 -86.5t-80.5 -35.5q-42 0 -69 27t-27 69zM624 520q-122 0 -208.5 -86.5t-86.5 -209.5q0 -105 72 -173.5t183 -68.5q122 0 208.5 86.5t86.5 209.5q0 105 -72 173.5t-183 68.5zM365 335h-90l29 165h-170
l-88 -500h170l29 167h90z" />
    <glyph glyph-name="uni044F" unicode="&#x44f;" horiz-adv-x="558" 
d="M298 332q-12 0 -20.5 -5t-8.5 -12q0 -6 6.5 -10t16.5 -4h99l6 31h-99zM84 311q0 78 62.5 133.5t165.5 55.5h284l-88 -500h-170l27 153h-38l-108 -153h-189l135 173q-39 16 -60 52.5t-21 85.5z" />
    <glyph glyph-name="uni0450" unicode="&#x450;" horiz-adv-x="592" 
d="M226 717l85 92l162 -153l-80 -88zM438 330q-9 16 -30.5 25.5t-49.5 9.5q-63 0 -96 -45h180q-2 6 -4 10zM607 274q0 -36 -10 -79h-348q7 -27 34 -42.5t65 -15.5q62 0 92 47l138 -90q-90 -112 -236 -112q-117 0 -193 70.5t-76 179.5q0 119 83 203.5t201 84.5
q107 0 178.5 -70.5t71.5 -175.5z" />
    <glyph glyph-name="uni0451" unicode="&#x451;" horiz-adv-x="592" 
d="M412 667q0 42 28.5 70.5t70.5 28.5t70.5 -28.5t28.5 -70.5t-28.5 -70.5t-70.5 -28.5t-70.5 28.5t-28.5 70.5zM152 667q0 42 28.5 70.5t70.5 28.5t70.5 -28.5t28.5 -70.5t-28.5 -70.5t-70.5 -28.5t-70.5 28.5t-28.5 70.5zM438 330q-9 16 -30.5 25.5t-49.5 9.5
q-63 0 -96 -45h180q-2 6 -4 10zM607 274q0 -36 -10 -79h-348q7 -27 34 -42.5t65 -15.5q62 0 92 47l138 -90q-90 -112 -236 -112q-117 0 -193 70.5t-76 179.5q0 119 83 203.5t201 84.5q107 0 178.5 -70.5t71.5 -175.5z" />
    <glyph glyph-name="uni0452" unicode="&#x452;" horiz-adv-x="598" 
d="M60 0l96 546h-60l26 147h60l10 57h170l-10 -57h192l-26 -147h-192l-96 -546h-170zM389 63l37 210q7 37 -10 57.5t-49 20.5q-31 0 -57 -23t-32 -55h-58q18 103 84.5 170.5t148.5 67.5q81 0 124 -52t26 -146l-46 -260q-19 -109 -87.5 -167t-170.5 -61h-49l20 168h39
q33 0 54 19.5t26 50.5z" />
    <glyph glyph-name="uni0453" unicode="&#x453;" horiz-adv-x="470" 
d="M538 684l-65 105l-195 -121l62 -100zM50 0h170l60 342h220l28 158h-390z" />
    <glyph glyph-name="uni0454" unicode="&#x454;" horiz-adv-x="594" 
d="M359 369q-51 0 -87.5 -38.5t-36.5 -93.5q0 -46 30 -76t77 -30q70 0 111 64l131 -88q-43 -59 -109.5 -92.5t-142.5 -33.5q-112 0 -184.5 69t-72.5 174q0 122 86.5 209t209.5 87q92 0 162 -48.5t94 -128.5l-157 -60q-9 39 -39.5 62.5t-71.5 23.5zM420 316l-20 -127h-302
v127h322z" />
    <glyph glyph-name="uni0455" unicode="&#x455;" horiz-adv-x="494" 
d="M282 123q15 0 24 6.5t9 17.5q0 17 -52 28q-171 36 -171 153q0 75 56.5 130.5t148.5 55.5q77 0 139 -41.5t80 -109.5l-172 -32q-13 38 -51 38q-29 0 -29 -22t58 -32q80 -16 123 -55t43 -96q0 -72 -57 -124t-150 -52q-83 0 -148 41.5t-83 111.5l172 33q1 -7 5 -17t19 -22
t36 -12z" />
    <glyph glyph-name="uni0456" unicode="&#x456;" horiz-adv-x="262" 
d="M149 651q0 42 28.5 70.5t70.5 28.5t70.5 -28.5t28.5 -70.5t-28.5 -70.5t-70.5 -28.5t-70.5 28.5t-28.5 70.5zM45 0l88 500h172l-88 -500h-172z" />
    <glyph glyph-name="uni0457" unicode="&#x457;" horiz-adv-x="262" 
d="M255 667q0 42 28.5 70.5t70.5 28.5t70.5 -28.5t28.5 -70.5t-28.5 -70.5t-70.5 -28.5t-70.5 28.5t-28.5 70.5zM-5 667q0 42 28.5 70.5t70.5 28.5t70.5 -28.5t28.5 -70.5t-28.5 -70.5t-70.5 -28.5t-70.5 28.5t-28.5 70.5zM45 0l88 500h172l-88 -500h-172z" />
    <glyph glyph-name="uni0458" unicode="&#x458;" horiz-adv-x="262" 
d="M149 651q0 42 28.5 70.5t70.5 28.5t70.5 -28.5t28.5 -70.5t-28.5 -70.5t-70.5 -28.5t-70.5 28.5t-28.5 70.5zM-25 -51q29 0 49 22.5t27 58.5l82 470h172l-96 -539q-13 -76 -74.5 -129.5t-144.5 -53.5h-50l19 170z" />
    <glyph glyph-name="uni0459" unicode="&#x459;" horiz-adv-x="944" 
d="M755 0q79 0 136.5 59.5t57.5 137.5q0 74 -49.5 122t-129.5 48h-159l23 133h-430l-48 -275q-5 -25 -22.5 -41t-45.5 -16h-29l-30 -168h59q89 0 155 62.5t80 148.5l22 121h90l-59 -332h379zM777 190q0 -10 -9.5 -16.5t-23.5 -6.5h-169l8 42h169q25 0 25 -19z" />
    <glyph glyph-name="uni045A" unicode="&#x45a;" horiz-adv-x="883" 
d="M715 184q0 -7 -7.5 -12t-19.5 -5h-129l6 32h129q9 0 15 -4t6 -11zM669 0q88 0 153 63t65 148q0 65 -43 105.5t-112 40.5h-139l25 143h-170l-88 -500h309zM449 335h-170l29 165h-170l-88 -500h170l29 167h170z" />
    <glyph glyph-name="uni045B" unicode="&#x45b;" horiz-adv-x="598" 
d="M381 0l45 275q6 40 -11 65t-51 25q-31 0 -54.5 -21.5t-30.5 -57.5h-56q17 98 82 162.5t146 64.5q86 0 127 -67t22 -176l-47 -270h-172zM56 0l97 553h-55l26 147h55l9 50h173l-9 -50h174l-26 -147h-173l-97 -553h-174z" />
    <glyph glyph-name="uni045C" unicode="&#x45c;" horiz-adv-x="612" 
d="M568 684l-65 105l-195 -121l62 -100zM45 0l89 500h171l-28 -158h23l146 158h235l-249 -256l156 -244h-204l-111 169h-26l-30 -169h-172z" />
    <glyph glyph-name="uni045D" unicode="&#x45d;" horiz-adv-x="640" 
d="M267 717l85 92l162 -153l-80 -88zM590 0h-170l51 267l-228 -267h-193l88 500h170l-45 -257l222 257h193z" />
    <glyph glyph-name="uni045E" unicode="&#x45e;" horiz-adv-x="624" 
d="M404 567q-78 0 -128.5 46t-50.5 115q0 15 3 31h119q-1 -7 -1 -14q0 -28 19.5 -45.5t51.5 -17.5q38 0 68 22.5t36 54.5h135q-14 -77 -89 -134.5t-163 -57.5zM501 500l-164 -310l-50 310h-173l98 -481l-121 -219h186l410 700h-186z" />
    <glyph glyph-name="uni045F" unicode="&#x45f;" horiz-adv-x="630" 
d="M50 0l88 500h170l-60 -342h190l60 342h170l-88 -500h-175l-29 -165h-170l29 165h-185z" />
    <glyph glyph-name="uni1EA0" unicode="&#x1ea0;" horiz-adv-x="804" 
d="M296 -160q0 42 28.5 70.5t70.5 28.5t70.5 -28.5t28.5 -70.5t-28.5 -70.5t-70.5 -28.5t-70.5 28.5t-28.5 70.5zM237 0h-203l380 700h234l136 -700h-189l-88 506zM274 297h375l-28 -158h-375z" />
    <glyph glyph-name="uni1EA1" unicode="&#x1ea1;" horiz-adv-x="537" 
d="M155 -160q0 42 28.5 70.5t70.5 28.5t70.5 -28.5t28.5 -70.5t-28.5 -70.5t-70.5 -28.5t-70.5 28.5t-28.5 70.5zM321 512q93 0 158.5 -54t65.5 -130q0 -13 -2 -25l-52 -303h-171l32 188l-83 -5q-39 -2 -39 -26q0 -25 42 -25q33 0 54.5 14.5t25.5 38.5h34
q-14 -86 -67.5 -140t-124.5 -54q-61 0 -99 39.5t-38 102.5q0 73 53 119.5t141 50.5l123 8v2q1 2 1 5q0 18 -17.5 31t-41.5 13q-21 0 -39 -11t-26 -29l-155 68q30 55 92 88.5t133 33.5z" />
    <glyph glyph-name="uni1EA2" unicode="&#x1ea2;" horiz-adv-x="804" 
d="M570 1098q63 0 102.5 -37.5t39.5 -96.5q0 -54 -26.5 -91.5t-92.5 -78.5l-51 -28l-49 96l68 33q42 20 42 57q0 17 -12 28t-32 11q-33 0 -46 -32l-97 34q23 49 63.5 77t90.5 28zM237 0h-203l380 700h234l136 -700h-189l-88 506zM274 297h375l-28 -158h-375z" />
    <glyph glyph-name="uni1EA3" unicode="&#x1ea3;" horiz-adv-x="537" 
d="M379 888q63 0 102.5 -37.5t39.5 -96.5q0 -54 -26.5 -91.5t-92.5 -78.5l-51 -28l-49 96l68 33q42 20 42 57q0 17 -12 28t-32 11q-33 0 -46 -32l-97 34q23 49 63.5 77t90.5 28zM321 512q93 0 158.5 -54t65.5 -130q0 -13 -2 -25l-52 -303h-171l32 188l-83 -5q-39 -2 -39 -26
q0 -25 42 -25q33 0 54.5 14.5t25.5 38.5h34q-14 -86 -67.5 -140t-124.5 -54q-61 0 -99 39.5t-38 102.5q0 73 53 119.5t141 50.5l123 8v2q1 2 1 5q0 18 -17.5 31t-41.5 13q-21 0 -39 -11t-26 -29l-155 68q30 55 92 88.5t133 33.5z" />
    <glyph glyph-name="uni1EA4" unicode="&#x1ea4;" horiz-adv-x="804" 
d="M971 1089l-65 105l-195 -121l62 -100zM568 998l-222 -126l46 -105l177 104l144 -110l75 94l-180 139zM237 0h-203l380 700h234l136 -700h-189l-88 506zM274 297h375l-28 -158h-375z" />
    <glyph glyph-name="uni1EA5" unicode="&#x1ea5;" horiz-adv-x="537" 
d="M775 907l-65 105l-195 -121l62 -100zM377 788l-222 -126l46 -105l177 104l144 -110l75 94l-180 139zM321 512q93 0 158.5 -54t65.5 -130q0 -13 -2 -25l-52 -303h-171l32 188l-83 -5q-39 -2 -39 -26q0 -25 42 -25q33 0 54.5 14.5t25.5 38.5h34q-14 -86 -67.5 -140
t-124.5 -54q-61 0 -99 39.5t-38 102.5q0 73 53 119.5t141 50.5l123 8v2q1 2 1 5q0 18 -17.5 31t-41.5 13q-21 0 -39 -11t-26 -29l-155 68q30 55 92 88.5t133 33.5z" />
    <glyph glyph-name="uni1EA6" unicode="&#x1ea6;" horiz-adv-x="804" 
d="M630 1122l85 92l162 -153l-80 -88zM568 998l-222 -126l46 -105l177 104l144 -110l75 94l-180 139zM237 0h-203l380 700h234l136 -700h-189l-88 506zM274 297h375l-28 -158h-375z" />
    <glyph glyph-name="uni1EA7" unicode="&#x1ea7;" horiz-adv-x="537" 
d="M434 940l85 92l162 -153l-80 -88zM377 788l-222 -126l46 -105l177 104l144 -110l75 94l-180 139zM321 512q93 0 158.5 -54t65.5 -130q0 -13 -2 -25l-52 -303h-171l32 188l-83 -5q-39 -2 -39 -26q0 -25 42 -25q33 0 54.5 14.5t25.5 38.5h34q-14 -86 -67.5 -140t-124.5 -54
q-61 0 -99 39.5t-38 102.5q0 73 53 119.5t141 50.5l123 8v2q1 2 1 5q0 18 -17.5 31t-41.5 13q-21 0 -39 -11t-26 -29l-155 68q30 55 92 88.5t133 33.5z" />
    <glyph glyph-name="uni1EA8" unicode="&#x1ea8;" horiz-adv-x="804" 
d="M811 1294q63 0 102.5 -37.5t39.5 -96.5q0 -54 -26.5 -91.5t-92.5 -78.5l-51 -28l-49 96l68 33q42 20 42 57q0 17 -12 28t-32 11q-33 0 -46 -32l-97 34q23 49 63.5 77t90.5 28zM568 998l-222 -126l46 -105l177 104l144 -110l75 94l-180 139zM237 0h-203l380 700h234
l136 -700h-189l-88 506zM274 297h375l-28 -158h-375z" />
    <glyph glyph-name="uni1EA9" unicode="&#x1ea9;" horiz-adv-x="537" 
d="M615 1112q63 0 102.5 -37.5t39.5 -96.5q0 -54 -26.5 -91.5t-92.5 -78.5l-51 -28l-49 96l68 33q42 20 42 57q0 17 -12 28t-32 11q-33 0 -46 -32l-97 34q23 49 63.5 77t90.5 28zM377 788l-222 -126l46 -105l177 104l144 -110l75 94l-180 139zM321 512q93 0 158.5 -54
t65.5 -130q0 -13 -2 -25l-52 -303h-171l32 188l-83 -5q-39 -2 -39 -26q0 -25 42 -25q33 0 54.5 14.5t25.5 38.5h34q-14 -86 -67.5 -140t-124.5 -54q-61 0 -99 39.5t-38 102.5q0 73 53 119.5t141 50.5l123 8v2q1 2 1 5q0 18 -17.5 31t-41.5 13q-21 0 -39 -11t-26 -29l-155 68
q30 55 92 88.5t133 33.5z" />
    <glyph glyph-name="uni1EAA" unicode="&#x1eaa;" horiz-adv-x="804" 
d="M526 1183q-114 0 -157 -150l105 -18q19 59 51 59q15 0 37 -19q54 -46 99 -46q111 0 154 150l-104 18q-20 -56 -55 -56q-21 0 -39 18q-26 24 -46 34t-45 10zM568 998l-222 -126l46 -105l177 104l144 -110l75 94l-180 139zM237 0h-203l380 700h234l136 -700h-189l-88 506z
M274 297h375l-28 -158h-375z" />
    <glyph glyph-name="uni1EAB" unicode="&#x1eab;" horiz-adv-x="537" 
d="M360 983q-114 0 -157 -150l105 -18q19 59 51 59q15 0 37 -19q54 -46 99 -46q111 0 154 150l-104 18q-20 -56 -55 -56q-21 0 -39 18q-26 24 -46 34t-45 10zM377 788l-222 -126l46 -105l177 104l144 -110l75 94l-180 139zM321 512q93 0 158.5 -54t65.5 -130q0 -13 -2 -25
l-52 -303h-171l32 188l-83 -5q-39 -2 -39 -26q0 -25 42 -25q33 0 54.5 14.5t25.5 38.5h34q-14 -86 -67.5 -140t-124.5 -54q-61 0 -99 39.5t-38 102.5q0 73 53 119.5t141 50.5l123 8v2q1 2 1 5q0 18 -17.5 31t-41.5 13q-21 0 -39 -11t-26 -29l-155 68q30 55 92 88.5t133 33.5
z" />
    <glyph glyph-name="uni1EAC" unicode="&#x1eac;" horiz-adv-x="804" 
d="M566 998l-222 -126l46 -105l177 104l144 -110l75 94l-180 139zM296 -160q0 42 28.5 70.5t70.5 28.5t70.5 -28.5t28.5 -70.5t-28.5 -70.5t-70.5 -28.5t-70.5 28.5t-28.5 70.5zM237 0h-203l380 700h234l136 -700h-189l-88 506zM274 297h375l-28 -158h-375z" />
    <glyph glyph-name="uni1EAD" unicode="&#x1ead;" horiz-adv-x="537" 
d="M376 789l-222 -126l46 -105l177 104l144 -110l75 94l-180 139zM155 -160q0 42 28.5 70.5t70.5 28.5t70.5 -28.5t28.5 -70.5t-28.5 -70.5t-70.5 -28.5t-70.5 28.5t-28.5 70.5zM321 512q93 0 158.5 -54t65.5 -130q0 -13 -2 -25l-52 -303h-171l32 188l-83 -5q-39 -2 -39 -26
q0 -25 42 -25q33 0 54.5 14.5t25.5 38.5h34q-14 -86 -67.5 -140t-124.5 -54q-61 0 -99 39.5t-38 102.5q0 73 53 119.5t141 50.5l123 8v2q1 2 1 5q0 18 -17.5 31t-41.5 13q-21 0 -39 -11t-26 -29l-155 68q30 55 92 88.5t133 33.5z" />
    <glyph glyph-name="uni1EAE" unicode="&#x1eae;" horiz-adv-x="804" 
d="M760 1119l-65 105l-195 -121l62 -100zM547 778q-78 0 -128.5 46t-50.5 115q0 15 3 31h119q-1 -7 -1 -14q0 -28 19.5 -45.5t51.5 -17.5q38 0 68 22.5t36 54.5h135q-14 -77 -89 -134.5t-163 -57.5zM237 0h-203l380 700h234l136 -700h-189l-88 506zM274 297h375l-28 -158
h-375z" />
    <glyph glyph-name="uni1EAF" unicode="&#x1eaf;" horiz-adv-x="537" 
d="M567 897l-65 105l-195 -121l62 -100zM356 568q-78 0 -128.5 46t-50.5 115q0 15 3 31h119q-1 -7 -1 -14q0 -28 19.5 -45.5t51.5 -17.5q38 0 68 22.5t36 54.5h135q-14 -77 -89 -134.5t-163 -57.5zM321 512q93 0 158.5 -54t65.5 -130q0 -13 -2 -25l-52 -303h-171l32 188
l-83 -5q-39 -2 -39 -26q0 -25 42 -25q33 0 54.5 14.5t25.5 38.5h34q-14 -86 -67.5 -140t-124.5 -54q-61 0 -99 39.5t-38 102.5q0 73 53 119.5t141 50.5l123 8v2q1 2 1 5q0 18 -17.5 31t-41.5 13q-21 0 -39 -11t-26 -29l-155 68q30 55 92 88.5t133 33.5z" />
    <glyph glyph-name="uni1EB0" unicode="&#x1eb0;" horiz-adv-x="804" 
d="M419 1152l85 92l162 -153l-80 -88zM547 778q-78 0 -128.5 46t-50.5 115q0 15 3 31h119q-1 -7 -1 -14q0 -28 19.5 -45.5t51.5 -17.5q38 0 68 22.5t36 54.5h135q-14 -77 -89 -134.5t-163 -57.5zM237 0h-203l380 700h234l136 -700h-189l-88 506zM274 297h375l-28 -158h-375z
" />
    <glyph glyph-name="uni1EB1" unicode="&#x1eb1;" horiz-adv-x="537" 
d="M226 930l85 92l162 -153l-80 -88zM356 568q-78 0 -128.5 46t-50.5 115q0 15 3 31h119q-1 -7 -1 -14q0 -28 19.5 -45.5t51.5 -17.5q38 0 68 22.5t36 54.5h135q-14 -77 -89 -134.5t-163 -57.5zM321 512q93 0 158.5 -54t65.5 -130q0 -13 -2 -25l-52 -303h-171l32 188l-83 -5
q-39 -2 -39 -26q0 -25 42 -25q33 0 54.5 14.5t25.5 38.5h34q-14 -86 -67.5 -140t-124.5 -54q-61 0 -99 39.5t-38 102.5q0 73 53 119.5t141 50.5l123 8v2q1 2 1 5q0 18 -17.5 31t-41.5 13q-21 0 -39 -11t-26 -29l-155 68q30 55 92 88.5t133 33.5z" />
    <glyph glyph-name="uni1EB2" unicode="&#x1eb2;" horiz-adv-x="804" 
d="M600 1324q63 0 102.5 -37.5t39.5 -96.5q0 -54 -26.5 -91.5t-92.5 -78.5l-51 -28l-49 96l68 33q42 20 42 57q0 17 -12 28t-32 11q-33 0 -46 -32l-97 34q23 49 63.5 77t90.5 28zM547 778q-78 0 -128.5 46t-50.5 115q0 15 3 31h119q-1 -7 -1 -14q0 -28 19.5 -45.5
t51.5 -17.5q38 0 68 22.5t36 54.5h135q-14 -77 -89 -134.5t-163 -57.5zM237 0h-203l380 700h234l136 -700h-189l-88 506zM274 297h375l-28 -158h-375z" />
    <glyph glyph-name="uni1EB3" unicode="&#x1eb3;" horiz-adv-x="537" 
d="M407 1102q63 0 102.5 -37.5t39.5 -96.5q0 -54 -26.5 -91.5t-92.5 -78.5l-51 -28l-49 96l68 33q42 20 42 57q0 17 -12 28t-32 11q-33 0 -46 -32l-97 34q23 49 63.5 77t90.5 28zM356 568q-78 0 -128.5 46t-50.5 115q0 15 3 31h119q-1 -7 -1 -14q0 -28 19.5 -45.5
t51.5 -17.5q38 0 68 22.5t36 54.5h135q-14 -77 -89 -134.5t-163 -57.5zM321 512q93 0 158.5 -54t65.5 -130q0 -13 -2 -25l-52 -303h-171l32 188l-83 -5q-39 -2 -39 -26q0 -25 42 -25q33 0 54.5 14.5t25.5 38.5h34q-14 -86 -67.5 -140t-124.5 -54q-61 0 -99 39.5t-38 102.5
q0 73 53 119.5t141 50.5l123 8v2q1 2 1 5q0 18 -17.5 31t-41.5 13q-21 0 -39 -11t-26 -29l-155 68q30 55 92 88.5t133 33.5z" />
    <glyph glyph-name="uni1EB4" unicode="&#x1eb4;" horiz-adv-x="804" 
d="M519 1177q-114 0 -157 -150l105 -18q19 59 51 59q15 0 37 -19q54 -46 99 -46q111 0 154 150l-104 18q-20 -56 -55 -56q-21 0 -39 18q-26 24 -46 34t-45 10zM547 778q-78 0 -128.5 46t-50.5 115q0 15 3 31h119q-1 -7 -1 -14q0 -28 19.5 -45.5t51.5 -17.5q38 0 68 22.5
t36 54.5h135q-14 -77 -89 -134.5t-163 -57.5zM237 0h-203l380 700h234l136 -700h-189l-88 506zM274 297h375l-28 -158h-375z" />
    <glyph glyph-name="uni1EB5" unicode="&#x1eb5;" horiz-adv-x="537" 
d="M326 955q-114 0 -157 -150l105 -18q19 59 51 59q15 0 37 -19q54 -46 99 -46q111 0 154 150l-104 18q-20 -56 -55 -56q-21 0 -39 18q-26 24 -46 34t-45 10zM356 568q-78 0 -128.5 46t-50.5 115q0 15 3 31h119q-1 -7 -1 -14q0 -28 19.5 -45.5t51.5 -17.5q38 0 68 22.5
t36 54.5h135q-14 -77 -89 -134.5t-163 -57.5zM321 512q93 0 158.5 -54t65.5 -130q0 -13 -2 -25l-52 -303h-171l32 188l-83 -5q-39 -2 -39 -26q0 -25 42 -25q33 0 54.5 14.5t25.5 38.5h34q-14 -86 -67.5 -140t-124.5 -54q-61 0 -99 39.5t-38 102.5q0 73 53 119.5t141 50.5
l123 8v2q1 2 1 5q0 18 -17.5 31t-41.5 13q-21 0 -39 -11t-26 -29l-155 68q30 55 92 88.5t133 33.5z" />
    <glyph glyph-name="uni1EB6" unicode="&#x1eb6;" horiz-adv-x="804" 
d="M545 778q-78 0 -128.5 46t-50.5 115q0 15 3 31h119q-1 -7 -1 -14q0 -28 19.5 -45.5t51.5 -17.5q38 0 68 22.5t36 54.5h135q-14 -77 -89 -134.5t-163 -57.5zM296 -160q0 42 28.5 70.5t70.5 28.5t70.5 -28.5t28.5 -70.5t-28.5 -70.5t-70.5 -28.5t-70.5 28.5t-28.5 70.5z
M237 0h-203l380 700h234l136 -700h-189l-88 506zM274 297h375l-28 -158h-375z" />
    <glyph glyph-name="uni1EB7" unicode="&#x1eb7;" horiz-adv-x="537" 
d="M355 569q-78 0 -128.5 46t-50.5 115q0 15 3 31h119q-1 -7 -1 -14q0 -28 19.5 -45.5t51.5 -17.5q38 0 68 22.5t36 54.5h135q-14 -77 -89 -134.5t-163 -57.5zM155 -160q0 42 28.5 70.5t70.5 28.5t70.5 -28.5t28.5 -70.5t-28.5 -70.5t-70.5 -28.5t-70.5 28.5t-28.5 70.5z
M321 512q93 0 158.5 -54t65.5 -130q0 -13 -2 -25l-52 -303h-171l32 188l-83 -5q-39 -2 -39 -26q0 -25 42 -25q33 0 54.5 14.5t25.5 38.5h34q-14 -86 -67.5 -140t-124.5 -54q-61 0 -99 39.5t-38 102.5q0 73 53 119.5t141 50.5l123 8v2q1 2 1 5q0 18 -17.5 31t-41.5 13
q-21 0 -39 -11t-26 -29l-155 68q30 55 92 88.5t133 33.5z" />
    <glyph glyph-name="uni1EB8" unicode="&#x1eb8;" horiz-adv-x="595" 
d="M183 -160q0 42 28.5 70.5t70.5 28.5t70.5 -28.5t28.5 -70.5t-28.5 -70.5t-70.5 -28.5t-70.5 28.5t-28.5 70.5zM296 442h316l-29 -167h-316l-20 -108h342l-29 -167h-515l125 700h512l-29 -167h-342z" />
    <glyph glyph-name="uni1EB9" unicode="&#x1eb9;" horiz-adv-x="592" 
d="M215 -158q0 42 28.5 70.5t70.5 28.5t70.5 -28.5t28.5 -70.5t-28.5 -70.5t-70.5 -28.5t-70.5 28.5t-28.5 70.5zM438 330q-9 16 -30.5 25.5t-49.5 9.5q-63 0 -96 -45h180q-2 6 -4 10zM607 274q0 -36 -10 -79h-348q7 -27 34 -42.5t65 -15.5q62 0 92 47l138 -90
q-90 -112 -236 -112q-117 0 -193 70.5t-76 179.5q0 119 83 203.5t201 84.5q107 0 178.5 -70.5t71.5 -175.5z" />
    <glyph glyph-name="uni1EBA" unicode="&#x1eba;" horiz-adv-x="595" 
d="M460 1098q63 0 102.5 -37.5t39.5 -96.5q0 -54 -26.5 -91.5t-92.5 -78.5l-51 -28l-49 96l68 33q42 20 42 57q0 17 -12 28t-32 11q-33 0 -46 -32l-97 34q23 49 63.5 77t90.5 28zM296 442h316l-29 -167h-316l-20 -108h342l-29 -167h-515l125 700h512l-29 -167h-342z" />
    <glyph glyph-name="uni1EBB" unicode="&#x1ebb;" horiz-adv-x="592" 
d="M407 889q63 0 102.5 -37.5t39.5 -96.5q0 -54 -26.5 -91.5t-92.5 -78.5l-51 -28l-49 96l68 33q42 20 42 57q0 17 -12 28t-32 11q-33 0 -46 -32l-97 34q23 49 63.5 77t90.5 28zM438 330q-9 16 -30.5 25.5t-49.5 9.5q-63 0 -96 -45h180q-2 6 -4 10zM607 274q0 -36 -10 -79
h-348q7 -27 34 -42.5t65 -15.5q62 0 92 47l138 -90q-90 -112 -236 -112q-117 0 -193 70.5t-76 179.5q0 119 83 203.5t201 84.5q107 0 178.5 -70.5t71.5 -175.5z" />
    <glyph glyph-name="uni1EBC" unicode="&#x1ebc;" horiz-adv-x="595" 
d="M379 951q-114 0 -157 -150l105 -18q19 59 51 59q15 0 37 -19q54 -46 99 -46q111 0 154 150l-104 18q-20 -56 -55 -56q-21 0 -39 18q-26 24 -46 34t-45 10zM296 442h316l-29 -167h-316l-20 -108h342l-29 -167h-515l125 700h512l-29 -167h-342z" />
    <glyph glyph-name="uni1EBD" unicode="&#x1ebd;" horiz-adv-x="592" 
d="M326 742q-114 0 -157 -150l105 -18q19 59 51 59q15 0 37 -19q54 -46 99 -46q111 0 154 150l-104 18q-20 -56 -55 -56q-21 0 -39 18q-26 24 -46 34t-45 10zM438 330q-9 16 -30.5 25.5t-49.5 9.5q-63 0 -96 -45h180q-2 6 -4 10zM607 274q0 -36 -10 -79h-348q7 -27 34 -42.5
t65 -15.5q62 0 92 47l138 -90q-90 -112 -236 -112q-117 0 -193 70.5t-76 179.5q0 119 83 203.5t201 84.5q107 0 178.5 -70.5t71.5 -175.5z" />
    <glyph glyph-name="uni1EBE" unicode="&#x1ebe;" horiz-adv-x="595" 
d="M879 1068l-65 105l-195 -121l62 -100zM458 998l-222 -126l46 -105l177 104l144 -110l75 94l-180 139zM296 442h316l-29 -167h-316l-20 -108h342l-29 -167h-515l125 700h512l-29 -167h-342z" />
    <glyph glyph-name="uni1EBF" unicode="&#x1ebf;" horiz-adv-x="592" 
d="M815 907l-65 105l-195 -121l62 -100zM405 789l-222 -126l46 -105l177 104l144 -110l75 94l-180 139zM438 330q-9 16 -30.5 25.5t-49.5 9.5q-63 0 -96 -45h180q-2 6 -4 10zM607 274q0 -36 -10 -79h-348q7 -27 34 -42.5t65 -15.5q62 0 92 47l138 -90q-90 -112 -236 -112
q-117 0 -193 70.5t-76 179.5q0 119 83 203.5t201 84.5q107 0 178.5 -70.5t71.5 -175.5z" />
    <glyph glyph-name="uni1EC0" unicode="&#x1ec0;" horiz-adv-x="595" 
d="M538 1101l85 92l162 -153l-80 -88zM458 998l-222 -126l46 -105l177 104l144 -110l75 94l-180 139zM296 442h316l-29 -167h-316l-20 -108h342l-29 -167h-515l125 700h512l-29 -167h-342z" />
    <glyph glyph-name="uni1EC1" unicode="&#x1ec1;" horiz-adv-x="592" 
d="M474 940l85 92l162 -153l-80 -88zM405 789l-222 -126l46 -105l177 104l144 -110l75 94l-180 139zM438 330q-9 16 -30.5 25.5t-49.5 9.5q-63 0 -96 -45h180q-2 6 -4 10zM607 274q0 -36 -10 -79h-348q7 -27 34 -42.5t65 -15.5q62 0 92 47l138 -90q-90 -112 -236 -112
q-117 0 -193 70.5t-76 179.5q0 119 83 203.5t201 84.5q107 0 178.5 -70.5t71.5 -175.5z" />
    <glyph glyph-name="uni1EC2" unicode="&#x1ec2;" horiz-adv-x="595" 
d="M719 1273q63 0 102.5 -37.5t39.5 -96.5q0 -54 -26.5 -91.5t-92.5 -78.5l-51 -28l-49 96l68 33q42 20 42 57q0 17 -12 28t-32 11q-33 0 -46 -32l-97 34q23 49 63.5 77t90.5 28zM458 998l-222 -126l46 -105l177 104l144 -110l75 94l-180 139zM296 442h316l-29 -167h-316
l-20 -108h342l-29 -167h-515l125 700h512l-29 -167h-342z" />
    <glyph glyph-name="uni1EC3" unicode="&#x1ec3;" horiz-adv-x="592" 
d="M655 1112q63 0 102.5 -37.5t39.5 -96.5q0 -54 -26.5 -91.5t-92.5 -78.5l-51 -28l-49 96l68 33q42 20 42 57q0 17 -12 28t-32 11q-33 0 -46 -32l-97 34q23 49 63.5 77t90.5 28zM405 789l-222 -126l46 -105l177 104l144 -110l75 94l-180 139zM438 330q-9 16 -30.5 25.5
t-49.5 9.5q-63 0 -96 -45h180q-2 6 -4 10zM607 274q0 -36 -10 -79h-348q7 -27 34 -42.5t65 -15.5q62 0 92 47l138 -90q-90 -112 -236 -112q-117 0 -193 70.5t-76 179.5q0 119 83 203.5t201 84.5q107 0 178.5 -70.5t71.5 -175.5z" />
    <glyph glyph-name="uni1EC4" unicode="&#x1ec4;" horiz-adv-x="595" 
d="M421 1195q-114 0 -157 -150l105 -18q19 59 51 59q15 0 37 -19q54 -46 99 -46q111 0 154 150l-104 18q-20 -56 -55 -56q-21 0 -39 18q-26 24 -46 34t-45 10zM458 998l-222 -126l46 -105l177 104l144 -110l75 94l-180 139zM296 442h316l-29 -167h-316l-20 -108h342
l-29 -167h-515l125 700h512l-29 -167h-342z" />
    <glyph glyph-name="uni1EC5" unicode="&#x1ec5;" horiz-adv-x="592" 
d="M382 984q-114 0 -157 -150l105 -18q19 59 51 59q15 0 37 -19q54 -46 99 -46q111 0 154 150l-104 18q-20 -56 -55 -56q-21 0 -39 18q-26 24 -46 34t-45 10zM405 789l-222 -126l46 -105l177 104l144 -110l75 94l-180 139zM438 330q-9 16 -30.5 25.5t-49.5 9.5
q-63 0 -96 -45h180q-2 6 -4 10zM607 274q0 -36 -10 -79h-348q7 -27 34 -42.5t65 -15.5q62 0 92 47l138 -90q-90 -112 -236 -112q-117 0 -193 70.5t-76 179.5q0 119 83 203.5t201 84.5q107 0 178.5 -70.5t71.5 -175.5z" />
    <glyph glyph-name="uni1EC6" unicode="&#x1ec6;" horiz-adv-x="595" 
d="M458 998l-222 -126l46 -105l177 104l144 -110l75 94l-180 139zM183 -160q0 42 28.5 70.5t70.5 28.5t70.5 -28.5t28.5 -70.5t-28.5 -70.5t-70.5 -28.5t-70.5 28.5t-28.5 70.5zM296 442h316l-29 -167h-316l-20 -108h342l-29 -167h-515l125 700h512l-29 -167h-342z" />
    <glyph glyph-name="uni1EC7" unicode="&#x1ec7;" horiz-adv-x="592" 
d="M414 789l-222 -126l46 -105l177 104l144 -110l75 94l-180 139zM215 -158q0 42 28.5 70.5t70.5 28.5t70.5 -28.5t28.5 -70.5t-28.5 -70.5t-70.5 -28.5t-70.5 28.5t-28.5 70.5zM438 330q-9 16 -30.5 25.5t-49.5 9.5q-63 0 -96 -45h180q-2 6 -4 10zM607 274q0 -36 -10 -79
h-348q7 -27 34 -42.5t65 -15.5q62 0 92 47l138 -90q-90 -112 -236 -112q-117 0 -193 70.5t-76 179.5q0 119 83 203.5t201 84.5q107 0 178.5 -70.5t71.5 -175.5z" />
    <glyph glyph-name="uni1EC8" unicode="&#x1ec8;" horiz-adv-x="270" 
d="M291 1096q63 0 102.5 -37.5t39.5 -96.5q0 -54 -26.5 -91.5t-92.5 -78.5l-51 -28l-49 96l68 33q42 20 42 57q0 17 -12 28t-32 11q-33 0 -46 -32l-97 34q23 49 63.5 77t90.5 28zM217 0h-172l123 700h171z" />
    <glyph glyph-name="uni1EC9" unicode="&#x1ec9;" horiz-adv-x="262" 
d="M250 889q63 0 102.5 -37.5t39.5 -96.5q0 -54 -26.5 -91.5t-92.5 -78.5l-51 -28l-49 96l68 33q42 20 42 57q0 17 -12 28t-32 11q-33 0 -46 -32l-97 34q23 49 63.5 77t90.5 28zM45 0l88 500h172l-88 -500h-172z" />
    <glyph glyph-name="uni1ECA" unicode="&#x1eca;" horiz-adv-x="270" 
d="M10 -160q0 42 28.5 70.5t70.5 28.5t70.5 -28.5t28.5 -70.5t-28.5 -70.5t-70.5 -28.5t-70.5 28.5t-28.5 70.5zM217 0h-172l123 700h171z" />
    <glyph glyph-name="uni1ECB" unicode="&#x1ecb;" horiz-adv-x="262" 
d="M10 -160q0 42 28.5 70.5t70.5 28.5t70.5 -28.5t28.5 -70.5t-28.5 -70.5t-70.5 -28.5t-70.5 28.5t-28.5 70.5zM149 651q0 42 28.5 70.5t70.5 28.5t70.5 -28.5t28.5 -70.5t-28.5 -70.5t-70.5 -28.5t-70.5 28.5t-28.5 70.5zM45 0l88 500h172l-88 -500h-172z" />
    <glyph glyph-name="uni1ECC" unicode="&#x1ecc;" 
d="M314 -160q0 42 28.5 70.5t70.5 28.5t70.5 -28.5t28.5 -70.5t-28.5 -70.5t-70.5 -28.5t-70.5 28.5t-28.5 70.5zM472 550q-88 0 -150 -63.5t-62 -154.5q0 -79 50 -129.5t128 -50.5q88 0 150.5 65t62.5 155q0 78 -50.5 128t-128.5 50zM89 329q0 106 51.5 196t139.5 142.5
t192 52.5q149 0 249 -99t100 -245q0 -106 -51.5 -197t-140 -144t-191.5 -53q-148 0 -248.5 99.5t-100.5 247.5z" />
    <glyph glyph-name="uni1ECD" unicode="&#x1ecd;" horiz-adv-x="618" 
d="M217 -159q0 42 28.5 70.5t70.5 28.5t70.5 -28.5t28.5 -70.5t-28.5 -70.5t-70.5 -28.5t-70.5 28.5t-28.5 70.5zM363 360q-50 0 -84.5 -35.5t-34.5 -85.5q0 -43 29 -70t72 -27q50 0 84.5 35.5t34.5 85.5q0 43 -29 70t-72 27zM74 226q0 121 87 207.5t213 86.5
q111 0 185.5 -68.5t74.5 -175.5q0 -121 -87 -207.5t-213 -86.5q-111 0 -185.5 68.5t-74.5 175.5z" />
    <glyph glyph-name="uni1ECE" unicode="&#x1ece;" 
d="M520 1098q63 0 102.5 -37.5t39.5 -96.5q0 -54 -26.5 -91.5t-92.5 -78.5l-51 -28l-49 96l68 33q42 20 42 57q0 17 -12 28t-32 11q-33 0 -46 -32l-97 34q23 49 63.5 77t90.5 28zM472 550q-88 0 -150 -63.5t-62 -154.5q0 -79 50 -129.5t128 -50.5q88 0 150.5 65t62.5 155
q0 78 -50.5 128t-128.5 50zM89 329q0 106 51.5 196t139.5 142.5t192 52.5q149 0 249 -99t100 -245q0 -106 -51.5 -197t-140 -144t-191.5 -53q-148 0 -248.5 99.5t-100.5 247.5z" />
    <glyph glyph-name="uni1ECF" unicode="&#x1ecf;" horiz-adv-x="618" 
d="M433 888q63 0 102.5 -37.5t39.5 -96.5q0 -54 -26.5 -91.5t-92.5 -78.5l-51 -28l-49 96l68 33q42 20 42 57q0 17 -12 28t-32 11q-33 0 -46 -32l-97 34q23 49 63.5 77t90.5 28zM363 360q-50 0 -84.5 -35.5t-34.5 -85.5q0 -43 29 -70t72 -27q50 0 84.5 35.5t34.5 85.5
q0 43 -29 70t-72 27zM74 226q0 121 87 207.5t213 86.5q111 0 185.5 -68.5t74.5 -175.5q0 -121 -87 -207.5t-213 -86.5q-111 0 -185.5 68.5t-74.5 175.5z" />
    <glyph glyph-name="uni1ED0" unicode="&#x1ed0;" 
d="M939 1086l-65 105l-195 -121l62 -100zM518 998l-222 -126l46 -105l177 104l144 -110l75 94l-180 139zM472 550q-88 0 -150 -63.5t-62 -154.5q0 -79 50 -129.5t128 -50.5q88 0 150.5 65t62.5 155q0 78 -50.5 128t-128.5 50zM89 329q0 106 51.5 196t139.5 142.5t192 52.5
q149 0 249 -99t100 -245q0 -106 -51.5 -197t-140 -144t-191.5 -53q-148 0 -248.5 99.5t-100.5 247.5z" />
    <glyph glyph-name="uni1ED1" unicode="&#x1ed1;" horiz-adv-x="618" 
d="M825 907l-65 105l-195 -121l62 -100zM431 788l-222 -126l46 -105l177 104l144 -110l75 94l-180 139zM363 360q-50 0 -84.5 -35.5t-34.5 -85.5q0 -43 29 -70t72 -27q50 0 84.5 35.5t34.5 85.5q0 43 -29 70t-72 27zM74 226q0 121 87 207.5t213 86.5q111 0 185.5 -68.5
t74.5 -175.5q0 -121 -87 -207.5t-213 -86.5q-111 0 -185.5 68.5t-74.5 175.5z" />
    <glyph glyph-name="uni1ED2" unicode="&#x1ed2;" 
d="M598 1119l85 92l162 -153l-80 -88zM518 998l-222 -126l46 -105l177 104l144 -110l75 94l-180 139zM472 550q-88 0 -150 -63.5t-62 -154.5q0 -79 50 -129.5t128 -50.5q88 0 150.5 65t62.5 155q0 78 -50.5 128t-128.5 50zM89 329q0 106 51.5 196t139.5 142.5t192 52.5
q149 0 249 -99t100 -245q0 -106 -51.5 -197t-140 -144t-191.5 -53q-148 0 -248.5 99.5t-100.5 247.5z" />
    <glyph glyph-name="uni1ED3" unicode="&#x1ed3;" horiz-adv-x="618" 
d="M484 940l85 92l162 -153l-80 -88zM431 788l-222 -126l46 -105l177 104l144 -110l75 94l-180 139zM363 360q-50 0 -84.5 -35.5t-34.5 -85.5q0 -43 29 -70t72 -27q50 0 84.5 35.5t34.5 85.5q0 43 -29 70t-72 27zM74 226q0 121 87 207.5t213 86.5q111 0 185.5 -68.5
t74.5 -175.5q0 -121 -87 -207.5t-213 -86.5q-111 0 -185.5 68.5t-74.5 175.5z" />
    <glyph glyph-name="uni1ED4" unicode="&#x1ed4;" 
d="M779 1291q63 0 102.5 -37.5t39.5 -96.5q0 -54 -26.5 -91.5t-92.5 -78.5l-51 -28l-49 96l68 33q42 20 42 57q0 17 -12 28t-32 11q-33 0 -46 -32l-97 34q23 49 63.5 77t90.5 28zM518 998l-222 -126l46 -105l177 104l144 -110l75 94l-180 139zM472 550q-88 0 -150 -63.5
t-62 -154.5q0 -79 50 -129.5t128 -50.5q88 0 150.5 65t62.5 155q0 78 -50.5 128t-128.5 50zM89 329q0 106 51.5 196t139.5 142.5t192 52.5q149 0 249 -99t100 -245q0 -106 -51.5 -197t-140 -144t-191.5 -53q-148 0 -248.5 99.5t-100.5 247.5z" />
    <glyph glyph-name="uni1ED5" unicode="&#x1ed5;" horiz-adv-x="618" 
d="M665 1112q63 0 102.5 -37.5t39.5 -96.5q0 -54 -26.5 -91.5t-92.5 -78.5l-51 -28l-49 96l68 33q42 20 42 57q0 17 -12 28t-32 11q-33 0 -46 -32l-97 34q23 49 63.5 77t90.5 28zM431 788l-222 -126l46 -105l177 104l144 -110l75 94l-180 139zM363 360q-50 0 -84.5 -35.5
t-34.5 -85.5q0 -43 29 -70t72 -27q50 0 84.5 35.5t34.5 85.5q0 43 -29 70t-72 27zM74 226q0 121 87 207.5t213 86.5q111 0 185.5 -68.5t74.5 -175.5q0 -121 -87 -207.5t-213 -86.5q-111 0 -185.5 68.5t-74.5 175.5z" />
    <glyph glyph-name="uni1ED6" unicode="&#x1ed6;" 
d="M490 1200q-114 0 -157 -150l105 -18q19 59 51 59q15 0 37 -19q54 -46 99 -46q111 0 154 150l-104 18q-20 -56 -55 -56q-21 0 -39 18q-26 24 -46 34t-45 10zM518 998l-222 -126l46 -105l177 104l144 -110l75 94l-180 139zM472 550q-88 0 -150 -63.5t-62 -154.5
q0 -79 50 -129.5t128 -50.5q88 0 150.5 65t62.5 155q0 78 -50.5 128t-128.5 50zM89 329q0 106 51.5 196t139.5 142.5t192 52.5q149 0 249 -99t100 -245q0 -106 -51.5 -197t-140 -144t-191.5 -53q-148 0 -248.5 99.5t-100.5 247.5z" />
    <glyph glyph-name="uni1ED7" unicode="&#x1ed7;" horiz-adv-x="618" 
d="M406 985q-114 0 -157 -150l105 -18q19 59 51 59q15 0 37 -19q54 -46 99 -46q111 0 154 150l-104 18q-20 -56 -55 -56q-21 0 -39 18q-26 24 -46 34t-45 10zM431 788l-222 -126l46 -105l177 104l144 -110l75 94l-180 139zM363 360q-50 0 -84.5 -35.5t-34.5 -85.5
q0 -43 29 -70t72 -27q50 0 84.5 35.5t34.5 85.5q0 43 -29 70t-72 27zM74 226q0 121 87 207.5t213 86.5q111 0 185.5 -68.5t74.5 -175.5q0 -121 -87 -207.5t-213 -86.5q-111 0 -185.5 68.5t-74.5 175.5z" />
    <glyph glyph-name="uni1ED8" unicode="&#x1ed8;" 
d="M537 998l-222 -126l46 -105l177 104l144 -110l75 94l-180 139zM314 -160q0 42 28.5 70.5t70.5 28.5t70.5 -28.5t28.5 -70.5t-28.5 -70.5t-70.5 -28.5t-70.5 28.5t-28.5 70.5zM472 550q-88 0 -150 -63.5t-62 -154.5q0 -79 50 -129.5t128 -50.5q88 0 150.5 65t62.5 155
q0 78 -50.5 128t-128.5 50zM89 329q0 106 51.5 196t139.5 142.5t192 52.5q149 0 249 -99t100 -245q0 -106 -51.5 -197t-140 -144t-191.5 -53q-148 0 -248.5 99.5t-100.5 247.5z" />
    <glyph glyph-name="uni1ED9" unicode="&#x1ed9;" horiz-adv-x="618" 
d="M421 789l-222 -126l46 -105l177 104l144 -110l75 94l-180 139zM217 -159q0 42 28.5 70.5t70.5 28.5t70.5 -28.5t28.5 -70.5t-28.5 -70.5t-70.5 -28.5t-70.5 28.5t-28.5 70.5zM363 360q-50 0 -84.5 -35.5t-34.5 -85.5q0 -43 29 -70t72 -27q50 0 84.5 35.5t34.5 85.5
q0 43 -29 70t-72 27zM74 226q0 121 87 207.5t213 86.5q111 0 185.5 -68.5t74.5 -175.5q0 -121 -87 -207.5t-213 -86.5q-111 0 -185.5 68.5t-74.5 175.5z" />
    <glyph glyph-name="uni1EDA" unicode="&#x1eda;" 
d="M659 893l-65 105l-195 -121l62 -100zM869 707q0 -69 -41 -109t-116 -40h-96l19 103h60q24 0 38 12t14 34q0 21 -20 39l91 73q19 -12 35 -47.5t16 -64.5zM472 550q-88 0 -150 -63.5t-62 -154.5q0 -79 50 -129.5t128 -50.5q88 0 150.5 65t62.5 155q0 78 -50.5 128
t-128.5 50zM89 329q0 106 51.5 196t139.5 142.5t192 52.5q149 0 249 -99t100 -245q0 -106 -51.5 -197t-140 -144t-191.5 -53q-148 0 -248.5 99.5t-100.5 247.5z" />
    <glyph glyph-name="uni1EDB" unicode="&#x1edb;" horiz-adv-x="672" 
d="M593 684l-65 105l-195 -121l62 -100zM781 483q0 -69 -41 -109t-116 -40h-96l19 103h60q24 0 38 12t14 34q0 21 -20 39l91 73q19 -12 35 -47.5t16 -64.5zM363 360q-50 0 -84.5 -35.5t-34.5 -85.5q0 -43 29 -70t72 -27q50 0 84.5 35.5t34.5 85.5q0 43 -29 70t-72 27z
M74 226q0 121 87 207.5t213 86.5q111 0 185.5 -68.5t74.5 -175.5q0 -121 -87 -207.5t-213 -86.5q-111 0 -185.5 68.5t-74.5 175.5z" />
    <glyph glyph-name="uni1EDC" unicode="&#x1edc;" 
d="M318 926l85 92l162 -153l-80 -88zM869 707q0 -69 -41 -109t-116 -40h-96l19 103h60q24 0 38 12t14 34q0 21 -20 39l91 73q19 -12 35 -47.5t16 -64.5zM472 550q-88 0 -150 -63.5t-62 -154.5q0 -79 50 -129.5t128 -50.5q88 0 150.5 65t62.5 155q0 78 -50.5 128t-128.5 50z
M89 329q0 106 51.5 196t139.5 142.5t192 52.5q149 0 249 -99t100 -245q0 -106 -51.5 -197t-140 -144t-191.5 -53q-148 0 -248.5 99.5t-100.5 247.5z" />
    <glyph glyph-name="uni1EDD" unicode="&#x1edd;" horiz-adv-x="672" 
d="M252 717l85 92l162 -153l-80 -88zM781 483q0 -69 -41 -109t-116 -40h-96l19 103h60q24 0 38 12t14 34q0 21 -20 39l91 73q19 -12 35 -47.5t16 -64.5zM363 360q-50 0 -84.5 -35.5t-34.5 -85.5q0 -43 29 -70t72 -27q50 0 84.5 35.5t34.5 85.5q0 43 -29 70t-72 27zM74 226
q0 121 87 207.5t213 86.5q111 0 185.5 -68.5t74.5 -175.5q0 -121 -87 -207.5t-213 -86.5q-111 0 -185.5 68.5t-74.5 175.5z" />
    <glyph glyph-name="uni1EDE" unicode="&#x1ede;" 
d="M499 1098q63 0 102.5 -37.5t39.5 -96.5q0 -54 -26.5 -91.5t-92.5 -78.5l-51 -28l-49 96l68 33q42 20 42 57q0 17 -12 28t-32 11q-33 0 -46 -32l-97 34q23 49 63.5 77t90.5 28zM869 707q0 -69 -41 -109t-116 -40h-96l19 103h60q24 0 38 12t14 34q0 21 -20 39l91 73
q19 -12 35 -47.5t16 -64.5zM472 550q-88 0 -150 -63.5t-62 -154.5q0 -79 50 -129.5t128 -50.5q88 0 150.5 65t62.5 155q0 78 -50.5 128t-128.5 50zM89 329q0 106 51.5 196t139.5 142.5t192 52.5q149 0 249 -99t100 -245q0 -106 -51.5 -197t-140 -144t-191.5 -53
q-148 0 -248.5 99.5t-100.5 247.5z" />
    <glyph glyph-name="uni1EDF" unicode="&#x1edf;" horiz-adv-x="672" 
d="M433 889q63 0 102.5 -37.5t39.5 -96.5q0 -54 -26.5 -91.5t-92.5 -78.5l-51 -28l-49 96l68 33q42 20 42 57q0 17 -12 28t-32 11q-33 0 -46 -32l-97 34q23 49 63.5 77t90.5 28zM781 483q0 -69 -41 -109t-116 -40h-96l19 103h60q24 0 38 12t14 34q0 21 -20 39l91 73
q19 -12 35 -47.5t16 -64.5zM363 360q-50 0 -84.5 -35.5t-34.5 -85.5q0 -43 29 -70t72 -27q50 0 84.5 35.5t34.5 85.5q0 43 -29 70t-72 27zM74 226q0 121 87 207.5t213 86.5q111 0 185.5 -68.5t74.5 -175.5q0 -121 -87 -207.5t-213 -86.5q-111 0 -185.5 68.5t-74.5 175.5z
" />
    <glyph glyph-name="uni1EE0" unicode="&#x1ee0;" 
d="M418 951q-114 0 -157 -150l105 -18q19 59 51 59q15 0 37 -19q54 -46 99 -46q111 0 154 150l-104 18q-20 -56 -55 -56q-21 0 -39 18q-26 24 -46 34t-45 10zM869 707q0 -69 -41 -109t-116 -40h-96l19 103h60q24 0 38 12t14 34q0 21 -20 39l91 73q19 -12 35 -47.5t16 -64.5z
M472 550q-88 0 -150 -63.5t-62 -154.5q0 -79 50 -129.5t128 -50.5q88 0 150.5 65t62.5 155q0 78 -50.5 128t-128.5 50zM89 329q0 106 51.5 196t139.5 142.5t192 52.5q149 0 249 -99t100 -245q0 -106 -51.5 -197t-140 -144t-191.5 -53q-148 0 -248.5 99.5t-100.5 247.5z" />
    <glyph glyph-name="uni1EE1" unicode="&#x1ee1;" horiz-adv-x="672" 
d="M352 742q-114 0 -157 -150l105 -18q19 59 51 59q15 0 37 -19q54 -46 99 -46q111 0 154 150l-104 18q-20 -56 -55 -56q-21 0 -39 18q-26 24 -46 34t-45 10zM781 483q0 -69 -41 -109t-116 -40h-96l19 103h60q24 0 38 12t14 34q0 21 -20 39l91 73q19 -12 35 -47.5t16 -64.5z
M363 360q-50 0 -84.5 -35.5t-34.5 -85.5q0 -43 29 -70t72 -27q50 0 84.5 35.5t34.5 85.5q0 43 -29 70t-72 27zM74 226q0 121 87 207.5t213 86.5q111 0 185.5 -68.5t74.5 -175.5q0 -121 -87 -207.5t-213 -86.5q-111 0 -185.5 68.5t-74.5 175.5z" />
    <glyph glyph-name="uni1EE2" unicode="&#x1ee2;" 
d="M313 -160q0 42 28.5 70.5t70.5 28.5t70.5 -28.5t28.5 -70.5t-28.5 -70.5t-70.5 -28.5t-70.5 28.5t-28.5 70.5zM869 707q0 -69 -41 -109t-116 -40h-96l19 103h60q24 0 38 12t14 34q0 21 -20 39l91 73q19 -12 35 -47.5t16 -64.5zM472 550q-88 0 -150 -63.5t-62 -154.5
q0 -79 50 -129.5t128 -50.5q88 0 150.5 65t62.5 155q0 78 -50.5 128t-128.5 50zM89 329q0 106 51.5 196t139.5 142.5t192 52.5q149 0 249 -99t100 -245q0 -106 -51.5 -197t-140 -144t-191.5 -53q-148 0 -248.5 99.5t-100.5 247.5z" />
    <glyph glyph-name="uni1EE3" unicode="&#x1ee3;" horiz-adv-x="672" 
d="M226 -160q0 42 28.5 70.5t70.5 28.5t70.5 -28.5t28.5 -70.5t-28.5 -70.5t-70.5 -28.5t-70.5 28.5t-28.5 70.5zM781 483q0 -69 -41 -109t-116 -40h-96l19 103h60q24 0 38 12t14 34q0 21 -20 39l91 73q19 -12 35 -47.5t16 -64.5zM363 360q-50 0 -84.5 -35.5t-34.5 -85.5
q0 -43 29 -70t72 -27q50 0 84.5 35.5t34.5 85.5q0 43 -29 70t-72 27zM74 226q0 121 87 207.5t213 86.5q111 0 185.5 -68.5t74.5 -175.5q0 -121 -87 -207.5t-213 -86.5q-111 0 -185.5 68.5t-74.5 175.5z" />
    <glyph glyph-name="uni1EE4" unicode="&#x1ee4;" horiz-adv-x="690" 
d="M247 -159q0 42 28.5 70.5t70.5 28.5t70.5 -28.5t28.5 -70.5t-28.5 -70.5t-70.5 -28.5t-70.5 28.5t-28.5 70.5zM368 -11q-118 0 -195.5 74.5t-77.5 191.5q0 28 5 58l68 387h171l-69 -392q-3 -17 -3 -34q0 -8 1 -18t7.5 -28.5t18 -32.5t34.5 -25t55 -11q50 0 87 33.5
t47 93.5l73 414h170l-76 -438q-22 -121 -111 -197t-205 -76z" />
    <glyph glyph-name="uni1EE5" unicode="&#x1ee5;" horiz-adv-x="568" 
d="M143 -155q0 42 28.5 70.5t70.5 28.5t70.5 -28.5t28.5 -70.5t-28.5 -70.5t-70.5 -28.5t-70.5 28.5t-28.5 70.5zM609 500l-88 -500h-172l87 500h173zM306 500l-52 -293q-5 -29 9.5 -49t44.5 -20q29 0 50 15t25 43h57q-15 -83 -78 -144.5t-138 -61.5q-78 0 -119.5 54.5
t-24.5 152.5l54 303h172z" />
    <glyph glyph-name="uni1EE6" unicode="&#x1ee6;" horiz-adv-x="690" 
d="M502 1096q63 0 102.5 -37.5t39.5 -96.5q0 -54 -26.5 -91.5t-92.5 -78.5l-51 -28l-49 96l68 33q42 20 42 57q0 17 -12 28t-32 11q-33 0 -46 -32l-97 34q23 49 63.5 77t90.5 28zM368 -11q-118 0 -195.5 74.5t-77.5 191.5q0 28 5 58l68 387h171l-69 -392q-3 -17 -3 -34
q0 -8 1 -18t7.5 -28.5t18 -32.5t34.5 -25t55 -11q50 0 87 33.5t47 93.5l73 414h170l-76 -438q-22 -121 -111 -197t-205 -76z" />
    <glyph glyph-name="uni1EE7" unicode="&#x1ee7;" horiz-adv-x="568" 
d="M399 885q63 0 102.5 -37.5t39.5 -96.5q0 -54 -26.5 -91.5t-92.5 -78.5l-51 -28l-49 96l68 33q42 20 42 57q0 17 -12 28t-32 11q-33 0 -46 -32l-97 34q23 49 63.5 77t90.5 28zM609 500l-88 -500h-172l87 500h173zM306 500l-52 -293q-5 -29 9.5 -49t44.5 -20q29 0 50 15
t25 43h57q-15 -83 -78 -144.5t-138 -61.5q-78 0 -119.5 54.5t-24.5 152.5l54 303h172z" />
    <glyph glyph-name="uni1EE8" unicode="&#x1ee8;" horiz-adv-x="858" 
d="M643 893l-65 105l-195 -121l62 -100zM943 682q0 -69 -41 -109t-116 -40h-96l19 103h60q24 0 38 12t14 34q0 21 -20 39l91 73q19 -12 35 -47.5t16 -64.5zM368 -11q-118 0 -195.5 74.5t-77.5 191.5q0 28 5 58l68 387h171l-69 -392q-3 -17 -3 -34q0 -8 1 -18t7.5 -28.5
t18 -32.5t34.5 -25t55 -11q50 0 87 33.5t47 93.5l73 414h170l-76 -438q-22 -121 -111 -197t-205 -76z" />
    <glyph glyph-name="uni1EE9" unicode="&#x1ee9;" horiz-adv-x="730" 
d="M561 684l-65 105l-195 -121l62 -100zM777 459q0 -69 -41 -109t-116 -40h-96l19 103h60q24 0 38 12t14 34q0 21 -20 39l91 73q19 -12 35 -47.5t16 -64.5zM609 500l-88 -500h-172l87 500h173zM306 500l-52 -293q-5 -29 9.5 -49t44.5 -20q29 0 50 15t25 43h57
q-15 -83 -78 -144.5t-138 -61.5q-78 0 -119.5 54.5t-24.5 152.5l54 303h172z" />
    <glyph glyph-name="uni1EEA" unicode="&#x1eea;" horiz-adv-x="858" 
d="M302 926l85 92l162 -153l-80 -88zM943 682q0 -69 -41 -109t-116 -40h-96l19 103h60q24 0 38 12t14 34q0 21 -20 39l91 73q19 -12 35 -47.5t16 -64.5zM368 -11q-118 0 -195.5 74.5t-77.5 191.5q0 28 5 58l68 387h171l-69 -392q-3 -17 -3 -34q0 -8 1 -18t7.5 -28.5
t18 -32.5t34.5 -25t55 -11q50 0 87 33.5t47 93.5l73 414h170l-76 -438q-22 -121 -111 -197t-205 -76z" />
    <glyph glyph-name="uni1EEB" unicode="&#x1eeb;" horiz-adv-x="730" 
d="M220 717l85 92l162 -153l-80 -88zM777 459q0 -69 -41 -109t-116 -40h-96l19 103h60q24 0 38 12t14 34q0 21 -20 39l91 73q19 -12 35 -47.5t16 -64.5zM609 500l-88 -500h-172l87 500h173zM306 500l-52 -293q-5 -29 9.5 -49t44.5 -20q29 0 50 15t25 43h57
q-15 -83 -78 -144.5t-138 -61.5q-78 0 -119.5 54.5t-24.5 152.5l54 303h172z" />
    <glyph glyph-name="uni1EEC" unicode="&#x1eec;" horiz-adv-x="858" 
d="M483 1098q63 0 102.5 -37.5t39.5 -96.5q0 -54 -26.5 -91.5t-92.5 -78.5l-51 -28l-49 96l68 33q42 20 42 57q0 17 -12 28t-32 11q-33 0 -46 -32l-97 34q23 49 63.5 77t90.5 28zM943 682q0 -69 -41 -109t-116 -40h-96l19 103h60q24 0 38 12t14 34q0 21 -20 39l91 73
q19 -12 35 -47.5t16 -64.5zM368 -11q-118 0 -195.5 74.5t-77.5 191.5q0 28 5 58l68 387h171l-69 -392q-3 -17 -3 -34q0 -8 1 -18t7.5 -28.5t18 -32.5t34.5 -25t55 -11q50 0 87 33.5t47 93.5l73 414h170l-76 -438q-22 -121 -111 -197t-205 -76z" />
    <glyph glyph-name="uni1EED" unicode="&#x1eed;" horiz-adv-x="730" 
d="M401 889q63 0 102.5 -37.5t39.5 -96.5q0 -54 -26.5 -91.5t-92.5 -78.5l-51 -28l-49 96l68 33q42 20 42 57q0 17 -12 28t-32 11q-33 0 -46 -32l-97 34q23 49 63.5 77t90.5 28zM777 459q0 -69 -41 -109t-116 -40h-96l19 103h60q24 0 38 12t14 34q0 21 -20 39l91 73
q19 -12 35 -47.5t16 -64.5zM609 500l-88 -500h-172l87 500h173zM306 500l-52 -293q-5 -29 9.5 -49t44.5 -20q29 0 50 15t25 43h57q-15 -83 -78 -144.5t-138 -61.5q-78 0 -119.5 54.5t-24.5 152.5l54 303h172z" />
    <glyph glyph-name="uni1EEE" unicode="&#x1eee;" horiz-adv-x="858" 
d="M402 951q-114 0 -157 -150l105 -18q19 59 51 59q15 0 37 -19q54 -46 99 -46q111 0 154 150l-104 18q-20 -56 -55 -56q-21 0 -39 18q-26 24 -46 34t-45 10zM943 682q0 -69 -41 -109t-116 -40h-96l19 103h60q24 0 38 12t14 34q0 21 -20 39l91 73q19 -12 35 -47.5t16 -64.5z
M368 -11q-118 0 -195.5 74.5t-77.5 191.5q0 28 5 58l68 387h171l-69 -392q-3 -17 -3 -34q0 -8 1 -18t7.5 -28.5t18 -32.5t34.5 -25t55 -11q50 0 87 33.5t47 93.5l73 414h170l-76 -438q-22 -121 -111 -197t-205 -76z" />
    <glyph glyph-name="uni1EEF" unicode="&#x1eef;" horiz-adv-x="730" 
d="M320 742q-114 0 -157 -150l105 -18q19 59 51 59q15 0 37 -19q54 -46 99 -46q111 0 154 150l-104 18q-20 -56 -55 -56q-21 0 -39 18q-26 24 -46 34t-45 10zM777 459q0 -69 -41 -109t-116 -40h-96l19 103h60q24 0 38 12t14 34q0 21 -20 39l91 73q19 -12 35 -47.5t16 -64.5z
M609 500l-88 -500h-172l87 500h173zM306 500l-52 -293q-5 -29 9.5 -49t44.5 -20q29 0 50 15t25 43h57q-15 -83 -78 -144.5t-138 -61.5q-78 0 -119.5 54.5t-24.5 152.5l54 303h172z" />
    <glyph glyph-name="uni1EF0" unicode="&#x1ef0;" horiz-adv-x="858" 
d="M249 -160q0 42 28.5 70.5t70.5 28.5t70.5 -28.5t28.5 -70.5t-28.5 -70.5t-70.5 -28.5t-70.5 28.5t-28.5 70.5zM943 682q0 -69 -41 -109t-116 -40h-96l19 103h60q24 0 38 12t14 34q0 21 -20 39l91 73q19 -12 35 -47.5t16 -64.5zM368 -11q-118 0 -195.5 74.5t-77.5 191.5
q0 28 5 58l68 387h171l-69 -392q-3 -17 -3 -34q0 -8 1 -18t7.5 -28.5t18 -32.5t34.5 -25t55 -11q50 0 87 33.5t47 93.5l73 414h170l-76 -438q-22 -121 -111 -197t-205 -76z" />
    <glyph glyph-name="uni1EF1" unicode="&#x1ef1;" horiz-adv-x="730" 
d="M153 -160q0 42 28.5 70.5t70.5 28.5t70.5 -28.5t28.5 -70.5t-28.5 -70.5t-70.5 -28.5t-70.5 28.5t-28.5 70.5zM777 459q0 -69 -41 -109t-116 -40h-96l19 103h60q24 0 38 12t14 34q0 21 -20 39l91 73q19 -12 35 -47.5t16 -64.5zM609 500l-88 -500h-172l87 500h173z
M306 500l-52 -293q-5 -29 9.5 -49t44.5 -20q29 0 50 15t25 43h57q-15 -83 -78 -144.5t-138 -61.5q-78 0 -119.5 54.5t-24.5 152.5l54 303h172z" />
    <glyph glyph-name="Ygrave" unicode="&#x1ef2;" horiz-adv-x="698" 
d="M335 926l85 92l162 -153l-80 -88zM272 0h170l39 220l316 480h-206l-165 -272l-88 272h-193l166 -480z" />
    <glyph glyph-name="ygrave" unicode="&#x1ef3;" horiz-adv-x="624" 
d="M246 715l85 92l162 -153l-80 -88zM501 500l-164 -310l-50 310h-173l98 -481l-121 -219h186l410 700h-186z" />
    <glyph glyph-name="uni1EF4" unicode="&#x1ef4;" horiz-adv-x="698" 
d="M237 -160q0 42 28.5 70.5t70.5 28.5t70.5 -28.5t28.5 -70.5t-28.5 -70.5t-70.5 -28.5t-70.5 28.5t-28.5 70.5zM272 0h170l39 220l316 480h-206l-165 -272l-88 272h-193l166 -480z" />
    <glyph glyph-name="uni1EF5" unicode="&#x1ef5;" horiz-adv-x="624" 
d="M398 -160q0 42 28.5 70.5t70.5 28.5t70.5 -28.5t28.5 -70.5t-28.5 -70.5t-70.5 -28.5t-70.5 28.5t-28.5 70.5zM501 500l-164 -310l-50 310h-173l98 -481l-121 -219h186l410 700h-186z" />
    <glyph glyph-name="uni1EF6" unicode="&#x1ef6;" horiz-adv-x="698" 
d="M516 1098q63 0 102.5 -37.5t39.5 -96.5q0 -54 -26.5 -91.5t-92.5 -78.5l-51 -28l-49 96l68 33q42 20 42 57q0 17 -12 28t-32 11q-33 0 -46 -32l-97 34q23 49 63.5 77t90.5 28zM272 0h170l39 220l316 480h-206l-165 -272l-88 272h-193l166 -480z" />
    <glyph glyph-name="uni1EF7" unicode="&#x1ef7;" horiz-adv-x="624" 
d="M427 887q63 0 102.5 -37.5t39.5 -96.5q0 -54 -26.5 -91.5t-92.5 -78.5l-51 -28l-49 96l68 33q42 20 42 57q0 17 -12 28t-32 11q-33 0 -46 -32l-97 34q23 49 63.5 77t90.5 28zM501 500l-164 -310l-50 310h-173l98 -481l-121 -219h186l410 700h-186z" />
    <glyph glyph-name="uni1EF8" unicode="&#x1ef8;" horiz-adv-x="698" 
d="M435 951q-114 0 -157 -150l105 -18q19 59 51 59q15 0 37 -19q54 -46 99 -46q111 0 154 150l-104 18q-20 -56 -55 -56q-21 0 -39 18q-26 24 -46 34t-45 10zM272 0h170l39 220l316 480h-206l-165 -272l-88 272h-193l166 -480z" />
    <glyph glyph-name="uni1EF9" unicode="&#x1ef9;" horiz-adv-x="624" 
d="M346 740q-114 0 -157 -150l105 -18q19 59 51 59q15 0 37 -19q54 -46 99 -46q111 0 154 150l-104 18q-20 -56 -55 -56q-21 0 -39 18q-26 24 -46 34t-45 10zM501 500l-164 -310l-50 310h-173l98 -481l-121 -219h186l410 700h-186z" />
    <glyph glyph-name="uni2010" unicode="&#x2010;" horiz-adv-x="392" 
d="M427 340l-26 -147h-342l26 147h342z" />
    <glyph glyph-name="endash" unicode="&#x2013;" horiz-adv-x="572" 
d="M607 340l-26 -147h-522l26 147h522z" />
    <glyph glyph-name="emdash" unicode="&#x2014;" horiz-adv-x="911" 
d="M946 340l-26 -147h-861l26 147h861z" />
    <glyph glyph-name="quoteleft" unicode="&#x2018;" horiz-adv-x="257" 
d="M224 417q-44 0 -70.5 30.5t-26.5 81.5q0 80 59 156t134 93l31 -87q-48 -5 -83.5 -34t-42.5 -69q8 2 17 2q35 0 57.5 -22.5t22.5 -57.5q0 -40 -28 -66.5t-70 -26.5z" />
    <glyph glyph-name="quoteright" unicode="&#x2019;" horiz-adv-x="257" 
d="M247 783q44 0 70.5 -30.5t26.5 -81.5q0 -80 -59 -156t-134 -93l-31 87q48 5 83.5 34t42.5 69q-8 -2 -17 -2q-35 0 -57.5 22.5t-22.5 57.5q0 40 28 66.5t70 26.5z" />
    <glyph glyph-name="quotesinglbase" unicode="&#x201a;" horiz-adv-x="257" 
d="M140 163q44 0 70.5 -30.5t26.5 -81.5q0 -80 -59 -156t-134 -93l-31 87q48 5 83.5 34t42.5 69q-12 -2 -17 -2q-35 0 -57.5 22.5t-22.5 57.5q0 40 28 66.5t70 26.5z" />
    <glyph glyph-name="quotereversed" unicode="&#x201b;" horiz-adv-x="257" 
d="M258 607q-24 0 -34 7q-1 -5 -1 -16q0 -35 24 -64.5t64 -41.5l-59 -79q-49 22 -82 79t-33 122q0 70 37 119t89 49q38 0 63 -22t25 -56q0 -39 -28 -68t-65 -29z" />
    <glyph glyph-name="quotedblleft" unicode="&#x201c;" horiz-adv-x="487" 
d="M447 417q-44 0 -70.5 30.5t-26.5 81.5q0 80 59 156t134 93l31 -87q-48 -5 -83.5 -34t-42.5 -69q8 2 17 2q35 0 57.5 -22.5t22.5 -57.5q0 -40 -28 -66.5t-70 -26.5zM217 417q-44 0 -70.5 30.5t-26.5 81.5q0 80 59 156t134 93l31 -87q-48 -5 -83.5 -34t-42.5 -69q8 2 17 2
q35 0 57.5 -22.5t22.5 -57.5q0 -40 -28 -66.5t-70 -26.5z" />
    <glyph glyph-name="quotedblright" unicode="&#x201d;" horiz-adv-x="487" 
d="M250 778q44 0 70.5 -30.5t26.5 -81.5q0 -80 -59 -156t-134 -93l-31 87q48 5 83.5 34t42.5 69q-8 -2 -17 -2q-35 0 -57.5 22.5t-22.5 57.5q0 40 28 66.5t70 26.5zM480 778q44 0 70.5 -30.5t26.5 -81.5q0 -80 -59 -156t-134 -93l-31 87q48 5 83.5 34t42.5 69q-8 -2 -17 -2
q-35 0 -57.5 22.5t-22.5 57.5q0 40 28 66.5t70 26.5z" />
    <glyph glyph-name="quotedblbase" unicode="&#x201e;" horiz-adv-x="487" 
d="M143 164q42 0 69 -32t27 -82q0 -79 -59.5 -155.5t-133.5 -92.5l-31 87q48 5 83.5 34t42.5 69q-7 -3 -17 -3q-33 0 -56.5 23.5t-23.5 56.5q0 40 29 67.5t70 27.5zM373 164q42 0 69 -32t27 -82q0 -79 -59.5 -155.5t-133.5 -92.5l-31 87q48 5 83.5 34t42.5 69q-7 -3 -17 -3
q-33 0 -56.5 23.5t-23.5 56.5q0 40 29 67.5t70 27.5z" />
    <glyph glyph-name="uni201F" unicode="&#x201f;" horiz-adv-x="487" 
d="M490 607q-24 0 -34 7q-1 -5 -1 -16q0 -35 24 -64.5t64 -41.5l-59 -79q-49 22 -82 79t-33 122q0 70 37 119t89 49q38 0 63 -22t25 -56q0 -39 -28 -68t-65 -29zM260 607q-24 0 -34 7q-1 -5 -1 -16q0 -35 24 -64.5t64 -41.5l-59 -79q-49 22 -82 79t-33 122q0 70 37 119
t89 49q38 0 63 -22t25 -56q0 -39 -28 -68t-65 -29z" />
    <glyph glyph-name="dagger" unicode="&#x2020;" horiz-adv-x="412" 
d="M219 664h210l-47 -152h90l-27 -157h-90l-63 -355h-170l63 355h-92l27 157h92z" />
    <glyph glyph-name="daggerdbl" unicode="&#x2021;" horiz-adv-x="412" 
d="M219 664h210l-47 -152h90l-27 -157h-90l-9 -46h90l-27 -157h-90l-9 -152h-210l47 152h-90l27 157h90l9 46h-90l27 157h90z" />
    <glyph glyph-name="bullet" unicode="&#x2022;" horiz-adv-x="278" 
d="M82 279q0 48 30 80t75 32q48 0 80.5 -32t32.5 -80q0 -47 -31 -78t-78 -31t-78 31t-31 78z" />
    <glyph glyph-name="uni2023" unicode="&#x2023;" horiz-adv-x="278" 
d="M107 419l188 -139l-234 -121z" />
    <glyph glyph-name="ellipsis" unicode="&#x2026;" horiz-adv-x="834" 
d="M603 89q0 48 30 80t75 32q48 0 80.5 -32t32.5 -80q0 -47 -31 -78t-78 -31t-78 31t-31 78zM325 89q0 48 30 80t75 32q48 0 80.5 -32t32.5 -80q0 -47 -31 -78t-78 -31t-78 31t-31 78zM47 89q0 48 30 80t75 32q48 0 80.5 -32t32.5 -80q0 -47 -31 -78t-78 -31t-78 31t-31 78z
" />
    <glyph glyph-name="perthousand" unicode="&#x2030;" horiz-adv-x="1562" 
d="M1364 268q-31 0 -52.5 -22t-21.5 -54q0 -27 18 -44.5t46 -17.5q31 0 52.5 22t21.5 54q0 27 -18 44.5t-46 17.5zM1139 176q0 100 70 171t168 71q88 0 145 -55.5t57 -140.5q0 -100 -70 -171t-168 -71q-88 0 -145 55.5t-57 140.5zM904 268q-31 0 -52.5 -22t-21.5 -54
q0 -27 18 -44.5t46 -17.5q31 0 52.5 22t21.5 54q0 27 -18 44.5t-46 17.5zM679 176q0 100 70 171t168 71q88 0 145 -55.5t57 -140.5q0 -100 -70 -171t-168 -71q-88 0 -145 55.5t-57 140.5zM330 570q-31 0 -52.5 -22t-21.5 -54q0 -27 18 -44.5t46 -17.5q31 0 52.5 22t21.5 54
q0 27 -18 44.5t-46 17.5zM105 478q0 100 70 171t168 71q88 0 145 -55.5t57 -140.5q0 -100 -70 -171t-168 -71q-88 0 -145 55.5t-57 140.5zM500 0h-187l411 700h187z" />
    <glyph glyph-name="minute" unicode="&#x2032;" horiz-adv-x="256" 
d="M218 780l142 -43l-103 -251l-138 41z" />
    <glyph glyph-name="second" unicode="&#x2033;" horiz-adv-x="476" 
d="M438 780l142 -43l-103 -251l-138 41zM218 780l142 -43l-103 -251l-138 41z" />
    <glyph glyph-name="uni2034" unicode="&#x2034;" horiz-adv-x="696" 
d="M658 780l142 -43l-103 -251l-138 41zM438 780l142 -43l-103 -251l-138 41zM218 780l142 -43l-103 -251l-138 41z" />
    <glyph glyph-name="uni2035" unicode="&#x2035;" horiz-adv-x="256" 
d="M314 780l9 -253l-152 -41l-15 251z" />
    <glyph glyph-name="uni2036" unicode="&#x2036;" horiz-adv-x="476" 
d="M314 780l9 -253l-152 -41l-15 251zM534 780l9 -253l-152 -41l-15 251z" />
    <glyph glyph-name="uni2037" unicode="&#x2037;" horiz-adv-x="696" 
d="M314 780l9 -253l-152 -41l-15 251zM534 780l9 -253l-152 -41l-15 251zM754 780l9 -253l-152 -41l-15 251z" />
    <glyph glyph-name="fractionslash" unicode="&#x2044;" horiz-adv-x="184" 
d="M95 0h-197l370 700h197z" />
    <glyph glyph-name="uni2070" unicode="&#x2070;" horiz-adv-x="388" 
d="M265 595q-3 -16 5.5 -27t23.5 -11q13 0 24.5 11t14.5 27l14 82q3 18 -4.5 29t-20.5 11q-15 0 -27.5 -11t-15.5 -29zM133 585l18 102q12 70 68 115t126 45q68 0 107 -45t27 -115l-18 -102q-12 -68 -67 -113t-123 -45q-69 0 -109.5 45t-28.5 113z" />
    <glyph glyph-name="uni2074" unicode="&#x2074;" horiz-adv-x="414" 
d="M265 617h50l12 69zM484 837l-39 -220h48l-19 -106h-48l-13 -74h-130l13 74h-176l21 120l199 206h144z" />
    <glyph glyph-name="uni2075" unicode="&#x2075;" horiz-adv-x="388" 
d="M280 680l7 43h183l20 116h-312l-35 -201l123 -38q18 16 36 16q15 0 23 -10.5t5 -27.5q-2 -13 -13 -21.5t-26 -8.5q-30 0 -32 28l-133 -31q7 -54 46.5 -85.5t99.5 -31.5q71 0 123.5 42.5t64.5 107.5q10 55 -16 92.5t-73 37.5q-49 0 -91 -28z" />
    <glyph glyph-name="uni2076" unicode="&#x2076;" horiz-adv-x="391" 
d="M405 714q-16 24 -52 24q-31 0 -54.5 -24.5t-34.5 -66.5q16 21 42.5 34t54.5 13q47 0 74 -37t17 -90q-10 -60 -62 -100t-120 -40q-79 0 -113 57q-32 54 -17 143q18 98 79.5 159t144.5 61q52 0 86 -24t44 -67zM264 568q-2 -13 6.5 -22t23.5 -9t25.5 7.5t12.5 19.5
q2 13 -6.5 21.5t-23.5 8.5t-25.5 -7.5t-12.5 -18.5z" />
    <glyph glyph-name="uni2077" unicode="&#x2077;" horiz-adv-x="358" 
d="M291 437l162 270l23 130h-298l-21 -116h173l-178 -284h139z" />
    <glyph glyph-name="uni2078" unicode="&#x2078;" horiz-adv-x="385" 
d="M259 563q-2 -11 6 -18.5t22 -7.5t24.5 7.5t12.5 18.5t-5.5 18.5t-22 7.5t-25 -7.5t-12.5 -18.5zM173 731q8 49 57 82.5t111.5 33.5t100 -33.5t28.5 -82.5q-5 -29 -25.5 -52.5t-51.5 -37.5q33 -12 48.5 -37t10.5 -57q-9 -51 -62 -85.5t-122 -34.5t-109.5 34.5t-32.5 85.5
q6 32 30.5 57t61.5 37q-26 14 -38 37.5t-7 52.5zM314.5 691q7.5 0 14 6.5t8.5 16.5t-2 16.5t-12.5 6.5t-14.5 -6.5t-8 -16.5t2.5 -16.5t12 -6.5z" />
    <glyph glyph-name="uni2079" unicode="&#x2079;" horiz-adv-x="391" 
d="M211 560q15 -24 52 -24q30 0 54 24.5t35 66.5q-16 -21 -42.5 -34t-54.5 -13q-48 0 -74.5 37t-17.5 90q11 60 62.5 100t119.5 40q80 0 114 -57q32 -54 16 -143q-17 -98 -79 -159t-144 -61q-52 0 -86.5 24t-44.5 67zM352 706q2 13 -7 22t-24 9q-14 0 -24.5 -7.5
t-12.5 -19.5q-3 -13 6 -21.5t24 -8.5q14 0 25 7.5t13 18.5z" />
    <glyph glyph-name="uni2080" unicode="&#x2080;" horiz-adv-x="388" 
d="M161 5q-3 -16 5.5 -27t23.5 -11q13 0 24.5 11t14.5 27l14 82q3 18 -4.5 29t-20.5 11q-15 0 -27.5 -11t-15.5 -29zM29 -5l18 102q12 70 68 115t126 45q68 0 107 -45t27 -115l-18 -102q-12 -68 -67 -113t-123 -45q-70 0 -110 45t-28 113z" />
    <glyph glyph-name="uni2081" unicode="&#x2081;" horiz-adv-x="309" 
d="M323 247l-71 -400h-130l45 253l-59 -41l-51 93l133 95h133z" />
    <glyph glyph-name="uni2082" unicode="&#x2082;" horiz-adv-x="376" 
d="M365 109q11 62 -27.5 102.5t-103.5 40.5q-62 0 -108 -33t-73 -86l113 -42q14 31 37 31q10 0 15.5 -7.5t3.5 -19.5q-2 -11 -18 -23t-30 -18.5t-42 -18.5l-102 -42l-26 -147h316l22 126h-149l32 13q25 10 43.5 20t41 25.5t37 35.5t18.5 43z" />
    <glyph glyph-name="uni2083" unicode="&#x2083;" horiz-adv-x="396" 
d="M263 66l115 46l24 136h-311l-21 -115h189l-80 -36l9 -81q20 0 29.5 -6.5t7.5 -17.5q-1 -10 -10.5 -16t-21.5 -6q-26 0 -27 26l-140 -21q5 -63 46.5 -99t107.5 -36q69 0 120 34.5t60 86.5q8 46 -19 75.5t-78 29.5z" />
    <glyph glyph-name="uni2084" unicode="&#x2084;" horiz-adv-x="414" 
d="M160 27h51l12 69zM380 247l-39 -220h48l-19 -106h-48l-13 -74h-130l13 74h-176l21 120l199 206h144z" />
    <glyph glyph-name="uni2085" unicode="&#x2085;" horiz-adv-x="388" 
d="M176 90l7 43h183l20 116h-312l-35 -201l123 -38q18 16 36 16q15 0 23 -10.5t5 -27.5q-2 -13 -13 -21.5t-26 -8.5q-30 0 -32 28l-133 -31q7 -54 46.5 -85.5t99.5 -31.5q71 0 123.5 42.5t64.5 107.5q10 55 -16 92.5t-73 37.5q-49 0 -91 -28z" />
    <glyph glyph-name="uni2086" unicode="&#x2086;" horiz-adv-x="391" 
d="M301 124q-16 24 -52 24q-31 0 -54.5 -24.5t-34.5 -66.5q16 21 42.5 34t54.5 13q47 0 74 -37t17 -90q-10 -60 -62 -100t-120 -40q-79 0 -113 57q-32 54 -17 143q18 98 79.5 159t144.5 61q52 0 86 -24t44 -67zM160 -22q-2 -13 6.5 -22t23.5 -9t25.5 7.5t12.5 19.5
q2 13 -6.5 21.5t-23.5 8.5t-25.5 -7.5t-12.5 -18.5z" />
    <glyph glyph-name="uni2087" unicode="&#x2087;" horiz-adv-x="358" 
d="M187 -153l162 270l23 130h-298l-21 -116h173l-178 -284h139z" />
    <glyph glyph-name="uni2088" unicode="&#x2088;" horiz-adv-x="385" 
d="M155 -27q-2 -11 6 -18.5t22 -7.5t24.5 7.5t12.5 18.5t-6 18.5t-22 7.5t-24.5 -7.5t-12.5 -18.5zM69 141q8 49 57 82.5t111.5 33.5t100 -33.5t28.5 -82.5q-5 -29 -25.5 -52.5t-51.5 -37.5q33 -12 48.5 -37t10.5 -57q-9 -51 -62 -85.5t-122 -34.5t-110 34.5t-32 85.5
q6 32 30.5 57t61.5 37q-26 14 -38 37.5t-7 52.5zM210.5 101q7.5 0 14 6.5t8.5 16.5t-2 16.5t-12.5 6.5t-14.5 -6.5t-8 -16.5t2.5 -16.5t12 -6.5z" />
    <glyph glyph-name="uni2089" unicode="&#x2089;" horiz-adv-x="391" 
d="M107 -30q15 -24 52 -24q30 0 54 24.5t35 66.5q-16 -21 -42.5 -34t-54.5 -13q-48 0 -74.5 37t-17.5 90q11 60 62.5 100t119.5 40q80 0 114 -57q32 -54 16 -143q-17 -98 -79 -159t-144 -61q-52 0 -86.5 24t-44.5 67zM248 116q2 13 -7 22t-24 9q-14 0 -24.5 -7.5
t-12.5 -19.5q-3 -13 6 -21.5t24 -8.5q14 0 24.5 7.5t13.5 18.5z" />
    <glyph glyph-name="dong" unicode="&#x20ab;" horiz-adv-x="668" 
d="M638 -50l-22 -127h-622l22 127h622zM521 314q0 -132 -81.5 -232t-188.5 -100q-81 0 -131.5 58.5t-50.5 151.5q0 130 83.5 229t193.5 99q79 0 127 -56.5t48 -149.5zM334 142q53 0 91.5 38.5t38.5 90.5q0 39 -26 64t-66 25q-53 0 -91.5 -38.5t-38.5 -90.5q0 -39 26 -64
t66 -25zM588 0h-170l98 556h-182l26 147h182l8 47h170l-8 -47h80l-26 -147h-80z" />
    <glyph glyph-name="Euro" unicode="&#x20ac;" horiz-adv-x="858" 
d="M594 325l-15 -87h-502l15 87h502zM621 475l-17 -97h-502l17 97h502zM166 282q0 115 60 216.5t161 161.5t216 60q104 0 180.5 -46.5t105.5 -126.5l-157 -90q-16 43 -59 68t-102 25q-93 0 -162.5 -71t-69.5 -166q0 -71 45 -116t117 -45q61 0 114 27t85 75l127 -89
q-57 -85 -152 -134t-202 -49q-136 0 -221.5 83.5t-85.5 216.5z" />
    <glyph glyph-name="uni20B4" unicode="&#x20b4;" horiz-adv-x="594" 
d="M71 158q0 49 21 85h-24l15 87h552l-15 -87h-345q-20 -14 -20 -45q0 -22 16 -35t44 -13q35 0 68.5 21t54.5 57l152 -79q-46 -73 -130 -116.5t-177 -43.5q-96 0 -154 46t-58 123zM641 543q0 -42 -17 -78h35l-15 -87h-552l15 87h332q19 13 19 41q0 21 -15 33.5t-41 12.5
q-33 0 -64 -19.5t-51 -51.5l-156 59q47 79 130.5 126t175.5 47t148 -47t56 -123z" />
    <glyph glyph-name="uni20B8" unicode="&#x20b8;" horiz-adv-x="616" 
d="M119 542l27 158h570l-27 -158h-570zM678 480l-30 -168h-200l-55 -312h-170l55 312h-200l30 168h570z" />
    <glyph glyph-name="uni20BD" unicode="&#x20bd;" horiz-adv-x="648" 
d="M706 521q0 -102 -79.5 -175.5t-189.5 -73.5h-119l-7 -42h157l-23 -127h-157l-18 -103h-170l18 103h-75l23 127h75l7 43h-75l26 147h75l49 280h299q82 0 133 -49.5t51 -129.5zM463 420q28 0 49 20.5t21 47.5q0 20 -14 32t-36 12h-119l-20 -112h119z" />
    <glyph glyph-name="uni2103" unicode="&#x2103;" horiz-adv-x="1266" 
d="M576 323q0 169 114 283t284 114q66 0 127 -22.5t117 -82t82 -149.5l-165 -55q-15 63 -62.5 101t-113.5 38q-87 0 -149.5 -65t-62.5 -155q0 -77 50.5 -127.5t126.5 -50.5q57 0 107.5 31t81.5 85l153 -86q-59 -97 -150.5 -149t-202.5 -52q-144 0 -240.5 98t-96.5 244z
M337 560q-31 0 -52.5 -22.5t-21.5 -53.5q0 -27 18 -44.5t46 -17.5q31 0 52.5 22.5t21.5 53.5q0 27 -18 44.5t-46 17.5zM112 468q0 100 69.5 171t168.5 71q87 0 144.5 -56t57.5 -140q0 -100 -69.5 -171t-168.5 -71q-87 0 -144.5 56t-57.5 140z" />
    <glyph glyph-name="uni2109" unicode="&#x2109;" horiz-adv-x="1080" 
d="M784 442h316l-29 -167h-316l-48 -275h-174l125 700h512l-29 -167h-342zM337 560q-31 0 -52.5 -22.5t-21.5 -53.5q0 -27 18 -44.5t46 -17.5q31 0 52.5 22.5t21.5 53.5q0 27 -18 44.5t-46 17.5zM112 468q0 100 69.5 171t168.5 71q87 0 144.5 -56t57.5 -140
q0 -100 -69.5 -171t-168.5 -71q-87 0 -144.5 56t-57.5 140z" />
    <glyph glyph-name="trademark" unicode="&#x2122;" horiz-adv-x="577" 
d="M357 700l-11 -66h-71l-37 -210h-70l37 210h-68l11 66h209zM343 424l48 276h78l37 -132l84 132h85l-48 -276h-70l26 151l-67 -106h-46l-31 106l-26 -151h-70z" />
    <glyph glyph-name="estimated" unicode="&#x212e;" horiz-adv-x="598" 
d="M293 524l-24 -139h197l25 141q-37 24 -95 24q-60 0 -103 -26zM636 408q0 -34 -14 -90h-365l-24 -137q35 -29 98 -29q60 0 113.5 29.5t87.5 80.5l61 -32q-46 -69 -115.5 -108.5t-149.5 -39.5q-103 0 -172 61.5t-69 157.5q0 129 91.5 224t219.5 95q101 0 169.5 -60
t68.5 -152z" />
    <glyph glyph-name="arrowleft" unicode="&#x2190;" horiz-adv-x="816" 
d="M424 685l95 -103l-153 -140h486l-12 -147h-485l126 -139l-113 -103l-278 316z" />
    <glyph glyph-name="arrowup" unicode="&#x2191;" horiz-adv-x="692" 
d="M728 441l-112 -104l-128 140l-42 -486h-147l42 485l-151 -139l-94 104l343 306z" />
    <glyph glyph-name="arrowright" unicode="&#x2192;" horiz-adv-x="816" 
d="M512 53l-95 103l153 140h-486l12 147h485l-126 139l113 103l278 -316z" />
    <glyph glyph-name="arrowdown" unicode="&#x2193;" horiz-adv-x="692" 
d="M84 297l112 104l128 -140l42 486h147l-42 -485l151 139l94 -104l-343 -306z" />
    <glyph glyph-name="arrowboth" unicode="&#x2194;" horiz-adv-x="996" 
d="M692 53l-95 103l152 139h-394l126 -139l-113 -103l-278 316l334 316l95 -103l-152 -139h394l-126 139l113 103l278 -316z" />
    <glyph glyph-name="arrowupdn" unicode="&#x2195;" horiz-adv-x="692" 
d="M76 207l112 104l127 -139l34 394l-151 -139l-94 104l343 306l289 -306l-112 -104l-127 139l-34 -394l151 139l94 -104l-343 -306z" />
    <glyph glyph-name="uni2196" unicode="&#x2196;" horiz-adv-x="653" 
d="M563 643l-12 -146h-198l313 -344l-113 -104l-313 343l-17 -196h-146l45 440z" />
    <glyph glyph-name="uni2197" unicode="&#x2197;" horiz-adv-x="653" 
d="M671 196h-147l18 198l-374 -344l-95 104l373 343h-196l13 146l439 -7z" />
    <glyph glyph-name="uni2198" unicode="&#x2198;" horiz-adv-x="653" 
d="M210 95l12 146h198l-313 344l113 104l313 -343l17 196h146l-45 -440z" />
    <glyph glyph-name="uni2199" unicode="&#x2199;" horiz-adv-x="653" 
d="M103 542h147l-18 -198l374 344l95 -104l-373 -343h196l-13 -146l-439 7z" />
    <glyph glyph-name="approxequal" unicode="&#x2248;" horiz-adv-x="484" 
d="M212 268q-118 0 -161 -150l101 -18q19 59 51 59q15 0 37 -19q53 -46 99 -46q58 0 98 39.5t60 110.5l-101 18q-19 -56 -54 -56q-21 0 -40 18q-25 24 -45.5 34t-44.5 10zM247 468q-118 0 -161 -150l101 -18q19 59 51 59q15 0 37 -19q53 -46 99 -46q58 0 98 39.5t60 110.5
l-101 18q-19 -56 -54 -56q-21 0 -39 18q-26 24 -46 34t-45 10z" />
    <glyph glyph-name="notequal" unicode="&#x2260;" horiz-adv-x="452" 
d="M213 0h-167l283 556h167zM469 240l-26 -147h-402l26 147h402zM508 460l-26 -147h-402l26 147h402z" />
    <glyph glyph-name="lessequal" unicode="&#x2264;" horiz-adv-x="510" 
d="M484 20l-23 -127h-455l23 127h455zM518 217l-31 -176l-425 143l40 224l475 143l-31 -176l-319 -76z" />
    <glyph glyph-name="greaterequal" unicode="&#x2265;" horiz-adv-x="510" 
d="M484 20l-23 -127h-455l23 127h455zM96 375l31 176l425 -143l-40 -224l-475 -143l31 176l320 76z" />
    <glyph glyph-name="filledbox" unicode="&#x25a0;" horiz-adv-x="820" 
d="M151 700h700l-62 -700h-700z" />
    <glyph glyph-name="H22073" unicode="&#x25a1;" horiz-adv-x="820" 
d="M306 530l-32 -360h360l32 360h-360zM151 700h700l-62 -700h-700z" />
    <glyph glyph-name="H18543" unicode="&#x25aa;" horiz-adv-x="520" 
d="M137 570h400l-34 -400h-400z" />
    <glyph glyph-name="H18551" unicode="&#x25ab;" horiz-adv-x="520" 
d="M274 420l-8 -100h100l8 100h-100zM128 580h420l-36 -420h-420z" />
    <glyph glyph-name="triagup" unicode="&#x25b2;" horiz-adv-x="820" 
d="M501 700l288 -700h-700z" />
    <glyph glyph-name="uni25B3" unicode="&#x25b3;" horiz-adv-x="820" 
d="M501 700l288 -700h-700zM476 423l-168 -293h286z" />
    <glyph glyph-name="uni25B6" unicode="&#x25b6;" horiz-adv-x="820" 
d="M820 350l-731 -350l62 700z" />
    <glyph glyph-name="uni25B7" unicode="&#x25b7;" horiz-adv-x="820" 
d="M820 350l-731 -350l62 700zM543 350l-280 143l-26 -286z" />
    <glyph glyph-name="triagdn" unicode="&#x25bc;" horiz-adv-x="820" 
d="M439 0l-288 700h700z" />
    <glyph glyph-name="uni25BD" unicode="&#x25bd;" horiz-adv-x="820" 
d="M439 0l-288 700h700zM464 277l168 293h-286z" />
    <glyph glyph-name="uni25C0" unicode="&#x25c0;" horiz-adv-x="820" 
d="M120 350l731 350l-62 -700z" />
    <glyph glyph-name="uni25C1" unicode="&#x25c1;" horiz-adv-x="820" 
d="M120 350l731 350l-62 -700zM397 350l280 -143l26 286z" />
    <glyph glyph-name="uni25C6" unicode="&#x25c6;" horiz-adv-x="820" 
d="M113 350l388 357l326 -357l-388 -357z" />
    <glyph glyph-name="uni25C7" unicode="&#x25c7;" horiz-adv-x="820" 
d="M313 350l143 -157l171 157l-143 157zM113 350l388 357l326 -357l-388 -357z" />
    <glyph glyph-name="lozenge" unicode="&#x25ca;" horiz-adv-x="620" 
d="M283 350l73 -157l101 157l-73 157zM113 350l243 357h90l181 -357l-243 -357h-90z" />
    <glyph glyph-name="circle" unicode="&#x25cb;" horiz-adv-x="820" 
d="M455 183q74 0 128.5 54.5t54.5 127.5q0 65 -44 108.5t-109 43.5q-74 0 -128.5 -54.5t-54.5 -127.5q0 -65 44 -108.5t109 -43.5zM112 319q0 157 116 272.5t273 115.5q139 0 233 -94t94 -232q0 -157 -116 -272.5t-273 -115.5q-139 0 -233 94t-94 232z" />
    <glyph glyph-name="H18533" unicode="&#x25cf;" horiz-adv-x="820" 
d="M112 319q0 157 116 272.5t273 115.5q139 0 233 -94t94 -232q0 -157 -116 -272.5t-273 -115.5q-139 0 -233 94t-94 232z" />
    <glyph glyph-name="zero.dnom" horiz-adv-x="388" 
d="M187 155q-3 -16 5.5 -27t23.5 -11q14 0 25 11t14 27l15 82q3 18 -4.5 29t-21.5 11t-26.5 -11t-15.5 -29zM56 145l18 102q12 70 68 115t125 45q68 0 107.5 -45t27.5 -115l-18 -102q-12 -68 -67.5 -113t-123.5 -45q-69 0 -109 45t-28 113z" />
    <glyph glyph-name="one.dnom" horiz-adv-x="309" 
d="M349 397l-71 -400h-130l45 253l-58 -41l-52 93l133 95h133z" />
    <glyph glyph-name="two.dnom" horiz-adv-x="376" 
d="M391 259q11 62 -27 102.5t-103 40.5q-63 0 -109 -33t-72 -86l113 -42q13 31 37 31q10 0 15.5 -7.5t3.5 -19.5q-2 -11 -18 -23t-30.5 -18.5t-42.5 -18.5l-101 -42l-26 -147h315l22 126h-148l32 13q24 10 43 20t41 25.5t36.5 35.5t18.5 43z" />
    <glyph glyph-name="three.dnom" horiz-adv-x="396" 
d="M290 216l115 46l24 136h-312l-20 -115h188l-79 -36l9 -81q19 0 29 -6.5t8 -17.5q-2 -10 -11 -16t-21 -6q-26 0 -27 26l-141 -21q5 -63 46.5 -99t108.5 -36q68 0 119 34.5t60 86.5q8 46 -19 75.5t-77 29.5z" />
    <glyph glyph-name="four.dnom" horiz-adv-x="414" 
d="M187 177h51l12 69zM406 397l-38 -220h47l-19 -106h-47l-13 -74h-130l13 74h-177l22 120l198 206h144z" />
    <glyph glyph-name="five.dnom" horiz-adv-x="388" 
d="M202 240l8 43h182l21 116h-313l-35 -201l123 -38q19 16 37 16q15 0 22.5 -10.5t4.5 -27.5q-2 -13 -13 -21.5t-26 -8.5q-30 0 -32 28l-133 -31q8 -54 47 -85.5t100 -31.5q70 0 123 42.5t64 107.5q10 55 -15.5 92.5t-72.5 37.5q-50 0 -92 -28z" />
    <glyph glyph-name="six.dnom" horiz-adv-x="391" 
d="M327 274q-15 24 -52 24q-30 0 -54 -24.5t-35 -66.5q16 21 42.5 34t54.5 13q48 0 74.5 -37t17.5 -90q-11 -60 -62.5 -100t-119.5 -40q-80 0 -114 57q-32 54 -16 143q17 98 79 159t144 61q52 0 86.5 -24t44.5 -67zM186 128q-2 -13 7 -22t24 -9q14 0 24.5 7.5t12.5 19.5
q3 13 -6 21.5t-24 8.5q-14 0 -24.5 -7.5t-13.5 -18.5z" />
    <glyph glyph-name="seven.dnom" horiz-adv-x="358" 
d="M213 -3l162 270l23 130h-298l-20 -116h172l-177 -284h138z" />
    <glyph glyph-name="eight.dnom" horiz-adv-x="385" 
d="M182 123q-2 -11 6 -18.5t22 -7.5t24.5 7.5t12.5 18.5t-6 18.5t-22 7.5t-24.5 -7.5t-12.5 -18.5zM95 291q9 49 58 82.5t111.5 33.5t99.5 -33.5t28 -82.5q-5 -29 -25 -52.5t-52 -37.5q34 -12 49.5 -37t9.5 -57q-9 -51 -62 -85.5t-122 -34.5t-109.5 34.5t-31.5 85.5
q6 32 30 57t62 37q-27 14 -39 37.5t-7 52.5zM237 251q8 0 14.5 6.5t8 16.5t-2.5 16.5t-12 6.5t-14.5 -6.5t-8 -16.5t2.5 -16.5t12 -6.5z" />
    <glyph glyph-name="nine.dnom" horiz-adv-x="391" 
d="M133 120q16 -24 52 -24q31 0 54.5 24.5t34.5 66.5q-16 -21 -42.5 -34t-54.5 -13q-47 0 -74 37t-17 90q10 60 62 100t120 40q79 0 113 -57q32 -54 17 -143q-18 -98 -79.5 -159t-144.5 -61q-52 0 -86 24t-44 67zM274 266q2 13 -6.5 22t-23.5 9t-25.5 -7.5t-12.5 -19.5
q-2 -13 6.5 -21.5t23.5 -8.5t25.5 7.5t12.5 18.5z" />
    <glyph glyph-name="zero.numr" horiz-adv-x="388" 
d="M239 445q-3 -16 5.5 -27t22.5 -11t25.5 11t14.5 27l14 82q3 18 -4.5 29t-21.5 11t-26.5 -11t-15.5 -29zM107 435l18 102q12 70 68 115t125 45t108 -45t27 -115l-18 -102q-12 -68 -67.5 -113t-123.5 -45q-69 0 -109 45t-28 113z" />
    <glyph glyph-name="one.numr" horiz-adv-x="309" 
d="M400 687l-70 -400h-130l44 253l-58 -41l-52 93l133 95h133z" />
    <glyph glyph-name="two.numr" horiz-adv-x="376" 
d="M442 549q11 62 -27 102.5t-103 40.5q-62 0 -108.5 -33t-72.5 -86l113 -42q13 31 37 31q10 0 15.5 -7.5t3.5 -19.5q-2 -11 -18 -23t-30 -18.5t-42 -18.5l-102 -42l-26 -147h315l22 126h-148l32 13q24 10 43 20t41.5 25.5t36.5 35.5t18 43z" />
    <glyph glyph-name="three.numr" horiz-adv-x="396" 
d="M341 506l115 46l24 136h-312l-20 -115h189l-80 -36l9 -81q20 0 29.5 -6.5t7.5 -17.5q-2 -10 -11 -16t-21 -6q-26 0 -27 26l-141 -21q6 -63 47 -99t108 -36q68 0 119 34.5t61 86.5q8 46 -19.5 75.5t-77.5 29.5z" />
    <glyph glyph-name="four.numr" horiz-adv-x="414" 
d="M238 467h51l12 69zM458 687l-39 -220h47l-18 -106h-48l-13 -74h-130l13 74h-176l21 120l199 206h144z" />
    <glyph glyph-name="five.numr" horiz-adv-x="388" 
d="M254 530l7 43h183l20 116h-313l-35 -201l123 -38q19 16 37 16q15 0 22.5 -10.5t5.5 -27.5q-3 -13 -13.5 -21.5t-26.5 -8.5q-30 0 -32 28l-132 -31q7 -54 46.5 -85.5t99.5 -31.5q70 0 123 42.5t65 107.5q9 55 -16.5 92.5t-72.5 37.5q-50 0 -91 -28z" />
    <glyph glyph-name="six.numr" horiz-adv-x="391" 
d="M378 564q-15 24 -52 24q-30 0 -54 -24.5t-34 -66.5q16 21 42 34t54 13q48 0 74.5 -37t17.5 -90q-11 -60 -62.5 -100t-119.5 -40q-80 0 -114 57q-32 54 -16 143q17 98 79 159t144 61q52 0 86.5 -24t44.5 -67zM238 418q-3 -13 6 -22t24 -9q14 0 24.5 7.5t12.5 19.5
q3 13 -5.5 21.5t-24.5 8.5q-14 0 -24.5 -7.5t-12.5 -18.5z" />
    <glyph glyph-name="seven.numr" horiz-adv-x="358" 
d="M264 287l162 270l23 130h-298l-20 -116h172l-177 -284h138z" />
    <glyph glyph-name="eight.numr" horiz-adv-x="385" 
d="M233 413q-2 -11 6 -18.5t22 -7.5t24.5 7.5t12.5 18.5t-6 18.5t-22 7.5t-24.5 -7.5t-12.5 -18.5zM146 581q9 49 58 82.5t111.5 33.5t99.5 -33.5t29 -82.5q-6 -29 -26 -52.5t-52 -37.5q34 -12 49.5 -37t9.5 -57q-9 -51 -62 -85.5t-121.5 -34.5t-109.5 34.5t-32 85.5
q6 32 30 57t62 37q-27 14 -39 37.5t-7 52.5zM288 541q8 0 14.5 6.5t8 16.5t-2.5 16.5t-12 6.5t-14.5 -6.5t-8 -16.5t2.5 -16.5t12 -6.5z" />
    <glyph glyph-name="nine.numr" horiz-adv-x="391" 
d="M184 410q16 -24 53 -24q30 0 54 24.5t34 66.5q-16 -21 -42.5 -34t-53.5 -13q-48 0 -75 37t-17 90q10 60 62 100t120 40q80 0 113 -57q32 -54 17 -143q-18 -98 -79.5 -159t-144.5 -61q-51 0 -85.5 24t-44.5 67zM325 556q2 13 -6.5 22t-23.5 9q-14 0 -25 -7.5t-13 -19.5
q-2 -13 6.5 -21.5t23.5 -8.5t25.5 7.5t12.5 18.5z" />
    <glyph glyph-name="zero.tabl" horiz-adv-x="610" 
d="M481 419q0 57 -24.5 92.5t-63.5 35.5q-43 0 -77 -42.5t-44 -107.5l-14 -73q-4 -16 -4 -44q0 -57 24 -92.5t63 -35.5q43 0 77.5 42.5t44.5 107.5l14 73q4 21 4 44zM327 -18q-106 0 -175 79.5t-69 202.5q0 43 7 75l14 73q23 133 108.5 219t194.5 86q107 0 176 -79.5
t69 -202.5q0 -48 -10 -85l-11 -63q-23 -133 -108.5 -219t-195.5 -86z" />
    <glyph glyph-name="one.tabl" horiz-adv-x="610" 
d="M595 167l-29 -167h-522l29 167h191l61 342l-133 -87l-68 138l223 140h181l-94 -533h161z" />
    <glyph glyph-name="two.tabl" horiz-adv-x="610" 
d="M501 252q79 45 121 108t42 136q0 95 -67 155t-173 60q-97 0 -177.5 -57.5t-130.5 -163.5l158 -57q46 108 130 108q39 0 63 -21.5t24 -55.5q0 -32 -37.5 -61t-125.5 -76l-255 -135l-34 -192h542l29 167h-269z" />
    <glyph glyph-name="three.tabl" horiz-adv-x="610" 
d="M326 -11q137 0 217.5 77t80.5 193q0 65 -39.5 108t-106.5 53l193 88l24 192h-542l-20 -167h340l-176 -92l4 -117q71 0 111.5 -21.5t40.5 -59.5t-33.5 -61t-86.5 -23q-46 0 -73 20.5t-30 57.5l-168 -55q12 -90 83 -141.5t181 -51.5z" />
    <glyph glyph-name="four.tabl" horiz-adv-x="610" 
d="M273 330h105l26 142zM613 700l-65 -370h77l-29 -167h-77l-29 -163h-170l29 163h-295l33 187l336 350h190z" />
    <glyph glyph-name="five.tabl" horiz-adv-x="610" 
d="M321 -11q130 0 213.5 86.5t83.5 214.5q0 84 -47.5 137t-121.5 53q-84 0 -163 -48l18 101h351l19 167h-511l-66 -377l163 -40q51 39 108 39q34 0 55.5 -18.5t21.5 -48.5q0 -41 -33 -68.5t-81 -27.5q-41 0 -65.5 18t-27.5 50l-178 -55q13 -85 83 -134t178 -49z" />
    <glyph glyph-name="six.tabl" horiz-adv-x="610" 
d="M85 240q0 197 106.5 335t258.5 138q78 0 140.5 -33.5t89.5 -91.5l-115 -115q-17 32 -54.5 51.5t-82.5 19.5q-54 0 -95.5 -39.5t-57.5 -106.5q56 78 154 78q86 0 142.5 -61.5t56.5 -154.5q0 -117 -82.5 -198t-201.5 -81t-189 70t-70 189zM357 310q-43 0 -71.5 -22
t-28.5 -55q0 -34 30 -58t72 -24q41 0 69 25t28 60q0 33 -27.5 53.5t-71.5 20.5z" />
    <glyph glyph-name="seven.tabl" horiz-adv-x="610" 
d="M386 0l291 523l21 177h-548l-20 -167h345l-301 -533h212z" />
    <glyph glyph-name="eight.tabl" horiz-adv-x="610" 
d="M335 279q-40 0 -67.5 -18.5t-27.5 -45.5t29.5 -45t73.5 -18q40 0 67 17.5t27 43.5q0 28 -29.5 47t-72.5 19zM143 512q0 87 73 146.5t180 59.5q105 0 175 -54t70 -135q0 -59 -36 -108.5t-95 -72.5q43 -25 67.5 -66t24.5 -88q0 -91 -77.5 -151.5t-192.5 -60.5t-191 56.5
t-76 141.5q0 64 42.5 117.5t110.5 76.5q-75 51 -75 138zM308 494q0 -23 23.5 -38t57.5 -15q33 0 55 15t22 38t-23 38.5t-57 15.5q-33 0 -55.5 -15.5t-22.5 -38.5z" />
    <glyph glyph-name="nine.tabl" horiz-adv-x="610" 
d="M654 459q0 -197 -106.5 -335t-258.5 -138q-78 0 -140.5 33.5t-89.5 91.5l115 115q17 -32 54.5 -51.5t82.5 -19.5q54 0 95.5 39.5t57.5 106.5q-56 -78 -154 -78q-86 0 -142.5 61.5t-56.5 154.5q0 117 82.5 198t201.5 81t189 -70t70 -189zM382 389q43 0 71.5 22t28.5 55
q0 34 -30 58t-72 24q-41 0 -69 -25t-28 -60q0 -33 27.5 -53.5t71.5 -20.5z" />
    <glyph glyph-name="zero.slsh" horiz-adv-x="648" 
d="M518 409q0 61 -29 99.5t-76 38.5q-50 0 -91 -45t-53 -115l-9 -53q-4 -17 -4 -44q0 -61 29 -99.5t76 -38.5q50 0 91 45t53 115l9 53q4 24 4 44zM347 -18q-115 0 -188.5 82t-73.5 210q0 41 7 75l9 53q24 137 116 226t210 89q115 0 188.5 -82t73.5 -210q0 -41 -7 -75l-9 -53
q-24 -137 -116 -226t-210 -89zM111 189l444 444l85 -145l-433 -434z" />
    <glyph glyph-name="a.ss01" horiz-adv-x="638" 
d="M595 0h-171l86 500h171zM350 142q50 0 84.5 36t34.5 85q0 42 -29 69.5t-72 27.5q-50 0 -84.5 -35.5t-34.5 -84.5q0 -42 29 -70t72 -28zM525 300q0 -80 -32.5 -151.5t-90.5 -116t-127 -44.5q-86 0 -141.5 64t-55.5 164q0 80 34 151t93 114.5t129 43.5q85 0 138 -63
t53 -162z" />
    <glyph glyph-name="agrave.ss01" horiz-adv-x="638" 
d="M247 717l85 92l162 -153l-80 -88zM595 0h-171l86 500h171zM350 142q50 0 84.5 36t34.5 85q0 42 -29 69.5t-72 27.5q-50 0 -84.5 -35.5t-34.5 -84.5q0 -42 29 -70t72 -28zM525 300q0 -80 -32.5 -151.5t-90.5 -116t-127 -44.5q-86 0 -141.5 64t-55.5 164q0 80 34 151
t93 114.5t129 43.5q85 0 138 -63t53 -162z" />
    <glyph glyph-name="aacute.ss01" horiz-adv-x="638" 
d="M588 684l-65 105l-195 -121l62 -100zM595 0h-171l86 500h171zM350 142q50 0 84.5 36t34.5 85q0 42 -29 69.5t-72 27.5q-50 0 -84.5 -35.5t-34.5 -84.5q0 -42 29 -70t72 -28zM525 300q0 -80 -32.5 -151.5t-90.5 -116t-127 -44.5q-86 0 -141.5 64t-55.5 164q0 80 34 151
t93 114.5t129 43.5q85 0 138 -63t53 -162z" />
    <glyph glyph-name="acircumflex.ss01" horiz-adv-x="638" 
d="M426 789l-222 -126l46 -105l177 104l144 -110l75 94l-180 139zM595 0h-171l86 500h171zM350 142q50 0 84.5 36t34.5 85q0 42 -29 69.5t-72 27.5q-50 0 -84.5 -35.5t-34.5 -84.5q0 -42 29 -70t72 -28zM525 300q0 -80 -32.5 -151.5t-90.5 -116t-127 -44.5q-86 0 -141.5 64
t-55.5 164q0 80 34 151t93 114.5t129 43.5q85 0 138 -63t53 -162z" />
    <glyph glyph-name="atilde.ss01" horiz-adv-x="638" 
d="M347 742q-114 0 -157 -150l105 -18q19 59 51 59q15 0 37 -19q54 -46 99 -46q111 0 154 150l-104 18q-20 -56 -55 -56q-21 0 -39 18q-26 24 -46 34t-45 10zM595 0h-171l86 500h171zM350 142q50 0 84.5 36t34.5 85q0 42 -29 69.5t-72 27.5q-50 0 -84.5 -35.5t-34.5 -84.5
q0 -42 29 -70t72 -28zM525 300q0 -80 -32.5 -151.5t-90.5 -116t-127 -44.5q-86 0 -141.5 64t-55.5 164q0 80 34 151t93 114.5t129 43.5q85 0 138 -63t53 -162z" />
    <glyph glyph-name="adieresis.ss01" horiz-adv-x="638" 
d="M433 667q0 42 28.5 70.5t70.5 28.5t70.5 -28.5t28.5 -70.5t-28.5 -70.5t-70.5 -28.5t-70.5 28.5t-28.5 70.5zM173 667q0 42 28.5 70.5t70.5 28.5t70.5 -28.5t28.5 -70.5t-28.5 -70.5t-70.5 -28.5t-70.5 28.5t-28.5 70.5zM595 0h-171l86 500h171zM350 142q50 0 84.5 36
t34.5 85q0 42 -29 69.5t-72 27.5q-50 0 -84.5 -35.5t-34.5 -84.5q0 -42 29 -70t72 -28zM525 300q0 -80 -32.5 -151.5t-90.5 -116t-127 -44.5q-86 0 -141.5 64t-55.5 164q0 80 34 151t93 114.5t129 43.5q85 0 138 -63t53 -162z" />
    <glyph glyph-name="aring.ss01" horiz-adv-x="638" 
d="M418 770q-22 0 -37.5 -16t-15.5 -38q0 -19 13 -31t32 -12q22 0 37.5 15.5t15.5 37.5q0 20 -13 32t-32 12zM260 706q0 69 48.5 119t117.5 50q61 0 101.5 -39t40.5 -99q0 -69 -48.5 -119t-117.5 -50q-61 0 -101.5 38.5t-40.5 99.5zM595 0h-171l86 500h171zM350 142
q50 0 84.5 36t34.5 85q0 42 -29 69.5t-72 27.5q-50 0 -84.5 -35.5t-34.5 -84.5q0 -42 29 -70t72 -28zM525 300q0 -80 -32.5 -151.5t-90.5 -116t-127 -44.5q-86 0 -141.5 64t-55.5 164q0 80 34 151t93 114.5t129 43.5q85 0 138 -63t53 -162z" />
    <glyph glyph-name="ae.ss01" horiz-adv-x="1020" 
d="M848 331q-9 15 -31 24.5t-50 9.5q-62 0 -95 -45h180q-2 6 -4 11zM1017 274q0 -36 -10 -79h-348q7 -26 33.5 -42t62.5 -16q65 0 95 47l138 -90q-74 -112 -197 -112q-103 0 -170.5 71t-67.5 181q0 118 74 202t176 84q93 0 153.5 -70t60.5 -176zM575 0h-151l86 500h151z
M350 142q49 0 84 35t35 84q0 44 -28.5 71.5t-72.5 27.5q-49 0 -84 -35t-35 -83q0 -44 28.5 -72t72.5 -28zM525 296q0 -81 -34 -152.5t-92.5 -113.5t-125.5 -42q-85 0 -140 65t-55 166q0 81 35 151.5t94.5 112.5t127.5 42q84 0 137 -63.5t53 -165.5z" />
    <glyph glyph-name="amacron.ss01" horiz-adv-x="638" 
d="M594 705l-22 -127h-352l22 127h352zM595 0h-171l86 500h171zM350 142q50 0 84.5 36t34.5 85q0 42 -29 69.5t-72 27.5q-50 0 -84.5 -35.5t-34.5 -84.5q0 -42 29 -70t72 -28zM525 300q0 -80 -32.5 -151.5t-90.5 -116t-127 -44.5q-86 0 -141.5 64t-55.5 164q0 80 34 151
t93 114.5t129 43.5q85 0 138 -63t53 -162z" />
    <glyph glyph-name="abreve.ss01" horiz-adv-x="638" 
d="M405 569q-78 0 -128.5 46t-50.5 115q0 15 3 31h119q-1 -7 -1 -14q0 -28 19.5 -45.5t51.5 -17.5q38 0 68 22.5t36 54.5h135q-14 -77 -89 -134.5t-163 -57.5zM595 0h-171l86 500h171zM350 142q50 0 84.5 36t34.5 85q0 42 -29 69.5t-72 27.5q-50 0 -84.5 -35.5t-34.5 -84.5
q0 -42 29 -70t72 -28zM525 300q0 -80 -32.5 -151.5t-90.5 -116t-127 -44.5q-86 0 -141.5 64t-55.5 164q0 80 34 151t93 114.5t129 43.5q85 0 138 -63t53 -162z" />
    <glyph glyph-name="aogonek.ss01" horiz-adv-x="638" 
d="M442 -317q-63 0 -104 35t-41 88q0 50 26 85t86 67l31 16l6 36h118l-13 -73l-77 -41q-54 -28 -54 -66q0 -13 8 -21t22 -8q27 0 38 26l110 -29q-23 -54 -64.5 -84.5t-91.5 -30.5zM595 0h-171l86 500h171zM350 142q50 0 84.5 36t34.5 85q0 42 -29 69.5t-72 27.5
q-50 0 -84.5 -35.5t-34.5 -84.5q0 -42 29 -70t72 -28zM525 300q0 -80 -32.5 -151.5t-90.5 -116t-127 -44.5q-86 0 -141.5 64t-55.5 164q0 80 34 151t93 114.5t129 43.5q85 0 138 -63t53 -162z" />
    <glyph glyph-name="uni1EA1.ss01" horiz-adv-x="638" 
d="M193 -160q0 42 28.5 70.5t70.5 28.5t70.5 -28.5t28.5 -70.5t-28.5 -70.5t-70.5 -28.5t-70.5 28.5t-28.5 70.5zM595 0h-171l86 500h171zM350 142q50 0 84.5 36t34.5 85q0 42 -29 69.5t-72 27.5q-50 0 -84.5 -35.5t-34.5 -84.5q0 -42 29 -70t72 -28zM525 300
q0 -80 -32.5 -151.5t-90.5 -116t-127 -44.5q-86 0 -141.5 64t-55.5 164q0 80 34 151t93 114.5t129 43.5q85 0 138 -63t53 -162z" />
    <glyph glyph-name="uni1EA3.ss01" horiz-adv-x="638" 
d="M428 889q63 0 102.5 -37.5t39.5 -96.5q0 -54 -26.5 -91.5t-92.5 -78.5l-51 -28l-49 96l68 33q42 20 42 57q0 17 -12 28t-32 11q-33 0 -46 -32l-97 34q23 49 63.5 77t90.5 28zM595 0h-171l86 500h171zM350 142q50 0 84.5 36t34.5 85q0 42 -29 69.5t-72 27.5
q-50 0 -84.5 -35.5t-34.5 -84.5q0 -42 29 -70t72 -28zM525 300q0 -80 -32.5 -151.5t-90.5 -116t-127 -44.5q-86 0 -141.5 64t-55.5 164q0 80 34 151t93 114.5t129 43.5q85 0 138 -63t53 -162z" />
    <glyph glyph-name="uni1EA5.ss01" horiz-adv-x="638" 
d="M855 857l-65 105l-195 -121l62 -100zM426 789l-222 -126l46 -105l177 104l144 -110l75 94l-180 139zM595 0h-171l86 500h171zM350 142q50 0 84.5 36t34.5 85q0 42 -29 69.5t-72 27.5q-50 0 -84.5 -35.5t-34.5 -84.5q0 -42 29 -70t72 -28zM525 300q0 -80 -32.5 -151.5
t-90.5 -116t-127 -44.5q-86 0 -141.5 64t-55.5 164q0 80 34 151t93 114.5t129 43.5q85 0 138 -63t53 -162z" />
    <glyph glyph-name="uni1EA7.ss01" horiz-adv-x="638" 
d="M514 890l85 92l162 -153l-80 -88zM426 789l-222 -126l46 -105l177 104l144 -110l75 94l-180 139zM595 0h-171l86 500h171zM350 142q50 0 84.5 36t34.5 85q0 42 -29 69.5t-72 27.5q-50 0 -84.5 -35.5t-34.5 -84.5q0 -42 29 -70t72 -28zM525 300q0 -80 -32.5 -151.5
t-90.5 -116t-127 -44.5q-86 0 -141.5 64t-55.5 164q0 80 34 151t93 114.5t129 43.5q85 0 138 -63t53 -162z" />
    <glyph glyph-name="uni1EA9.ss01" horiz-adv-x="638" 
d="M695 1062q63 0 102.5 -37.5t39.5 -96.5q0 -54 -26.5 -91.5t-92.5 -78.5l-51 -28l-49 96l68 33q42 20 42 57q0 17 -12 28t-32 11q-33 0 -46 -32l-97 34q23 49 63.5 77t90.5 28zM426 789l-222 -126l46 -105l177 104l144 -110l75 94l-180 139zM595 0h-171l86 500h171z
M350 142q50 0 84.5 36t34.5 85q0 42 -29 69.5t-72 27.5q-50 0 -84.5 -35.5t-34.5 -84.5q0 -42 29 -70t72 -28zM525 300q0 -80 -32.5 -151.5t-90.5 -116t-127 -44.5q-86 0 -141.5 64t-55.5 164q0 80 34 151t93 114.5t129 43.5q85 0 138 -63t53 -162z" />
    <glyph glyph-name="uni1EAB.ss01" horiz-adv-x="638" 
d="M402 987q-114 0 -157 -150l105 -18q19 59 51 59q15 0 37 -19q54 -46 99 -46q111 0 154 150l-104 18q-20 -56 -55 -56q-21 0 -39 18q-26 24 -46 34t-45 10zM426 789l-222 -126l46 -105l177 104l144 -110l75 94l-180 139zM595 0h-171l86 500h171zM350 142q50 0 84.5 36
t34.5 85q0 42 -29 69.5t-72 27.5q-50 0 -84.5 -35.5t-34.5 -84.5q0 -42 29 -70t72 -28zM525 300q0 -80 -32.5 -151.5t-90.5 -116t-127 -44.5q-86 0 -141.5 64t-55.5 164q0 80 34 151t93 114.5t129 43.5q85 0 138 -63t53 -162z" />
    <glyph glyph-name="uni1EAD.ss01" horiz-adv-x="638" 
d="M426 789l-222 -126l46 -105l177 104l144 -110l75 94l-180 139zM193 -160q0 42 28.5 70.5t70.5 28.5t70.5 -28.5t28.5 -70.5t-28.5 -70.5t-70.5 -28.5t-70.5 28.5t-28.5 70.5zM595 0h-171l86 500h171zM350 142q50 0 84.5 36t34.5 85q0 42 -29 69.5t-72 27.5
q-50 0 -84.5 -35.5t-34.5 -84.5q0 -42 29 -70t72 -28zM525 300q0 -80 -32.5 -151.5t-90.5 -116t-127 -44.5q-86 0 -141.5 64t-55.5 164q0 80 34 151t93 114.5t129 43.5q85 0 138 -63t53 -162z" />
    <glyph glyph-name="uni1EAF.ss01" horiz-adv-x="638" 
d="M618 897l-65 105l-195 -121l62 -100zM405 569q-78 0 -128.5 46t-50.5 115q0 15 3 31h119q-1 -7 -1 -14q0 -28 19.5 -45.5t51.5 -17.5q38 0 68 22.5t36 54.5h135q-14 -77 -89 -134.5t-163 -57.5zM595 0h-171l86 500h171zM350 142q50 0 84.5 36t34.5 85q0 42 -29 69.5
t-72 27.5q-50 0 -84.5 -35.5t-34.5 -84.5q0 -42 29 -70t72 -28zM525 300q0 -80 -32.5 -151.5t-90.5 -116t-127 -44.5q-86 0 -141.5 64t-55.5 164q0 80 34 151t93 114.5t129 43.5q85 0 138 -63t53 -162z" />
    <glyph glyph-name="uni1EB1.ss01" horiz-adv-x="638" 
d="M277 930l85 92l162 -153l-80 -88zM405 569q-78 0 -128.5 46t-50.5 115q0 15 3 31h119q-1 -7 -1 -14q0 -28 19.5 -45.5t51.5 -17.5q38 0 68 22.5t36 54.5h135q-14 -77 -89 -134.5t-163 -57.5zM595 0h-171l86 500h171zM350 142q50 0 84.5 36t34.5 85q0 42 -29 69.5
t-72 27.5q-50 0 -84.5 -35.5t-34.5 -84.5q0 -42 29 -70t72 -28zM525 300q0 -80 -32.5 -151.5t-90.5 -116t-127 -44.5q-86 0 -141.5 64t-55.5 164q0 80 34 151t93 114.5t129 43.5q85 0 138 -63t53 -162z" />
    <glyph glyph-name="uni1EB3.ss01" horiz-adv-x="638" 
d="M458 1102q63 0 102.5 -37.5t39.5 -96.5q0 -54 -26.5 -91.5t-92.5 -78.5l-51 -28l-49 96l68 33q42 20 42 57q0 17 -12 28t-32 11q-33 0 -46 -32l-97 34q23 49 63.5 77t90.5 28zM405 569q-78 0 -128.5 46t-50.5 115q0 15 3 31h119q-1 -7 -1 -14q0 -28 19.5 -45.5
t51.5 -17.5q38 0 68 22.5t36 54.5h135q-14 -77 -89 -134.5t-163 -57.5zM595 0h-171l86 500h171zM350 142q50 0 84.5 36t34.5 85q0 42 -29 69.5t-72 27.5q-50 0 -84.5 -35.5t-34.5 -84.5q0 -42 29 -70t72 -28zM525 300q0 -80 -32.5 -151.5t-90.5 -116t-127 -44.5
q-86 0 -141.5 64t-55.5 164q0 80 34 151t93 114.5t129 43.5q85 0 138 -63t53 -162z" />
    <glyph glyph-name="uni1EB5.ss01" horiz-adv-x="638" 
d="M377 955q-114 0 -157 -150l105 -18q19 59 51 59q15 0 37 -19q54 -46 99 -46q111 0 154 150l-104 18q-20 -56 -55 -56q-21 0 -39 18q-26 24 -46 34t-45 10zM405 569q-78 0 -128.5 46t-50.5 115q0 15 3 31h119q-1 -7 -1 -14q0 -28 19.5 -45.5t51.5 -17.5q38 0 68 22.5
t36 54.5h135q-14 -77 -89 -134.5t-163 -57.5zM595 0h-171l86 500h171zM350 142q50 0 84.5 36t34.5 85q0 42 -29 69.5t-72 27.5q-50 0 -84.5 -35.5t-34.5 -84.5q0 -42 29 -70t72 -28zM525 300q0 -80 -32.5 -151.5t-90.5 -116t-127 -44.5q-86 0 -141.5 64t-55.5 164
q0 80 34 151t93 114.5t129 43.5q85 0 138 -63t53 -162z" />
    <glyph glyph-name="uni1EB7.ss01" horiz-adv-x="638" 
d="M405 569q-78 0 -128.5 46t-50.5 115q0 15 3 31h119q-1 -7 -1 -14q0 -28 19.5 -45.5t51.5 -17.5q38 0 68 22.5t36 54.5h135q-14 -77 -89 -134.5t-163 -57.5zM193 -160q0 42 28.5 70.5t70.5 28.5t70.5 -28.5t28.5 -70.5t-28.5 -70.5t-70.5 -28.5t-70.5 28.5t-28.5 70.5z
M595 0h-171l86 500h171zM350 142q50 0 84.5 36t34.5 85q0 42 -29 69.5t-72 27.5q-50 0 -84.5 -35.5t-34.5 -84.5q0 -42 29 -70t72 -28zM525 300q0 -80 -32.5 -151.5t-90.5 -116t-127 -44.5q-86 0 -141.5 64t-55.5 164q0 80 34 151t93 114.5t129 43.5q85 0 138 -63t53 -162z
" />
    <glyph glyph-name="G.ss02" 
d="M259 331q0 -80 51.5 -129.5t133.5 -49.5q59 0 104.5 29t60.5 79h-217l26 151h414l-73 -411h-172l18 104q-33 -58 -89.5 -90t-121.5 -32q-135 0 -220.5 93.5t-85.5 240.5q0 109 55 202t149 147.5t204 54.5q115 0 202 -58t118 -154l-165 -66q-16 49 -62.5 78.5t-107.5 29.5
q-92 0 -157 -64.5t-65 -154.5z" />
    </font>
</defs>
</svg>
