<?xml version="1.0" standalone="no"?>
<!DOCTYPE svg PUBLIC "-//W3C//DTD SVG 1.1//EN" "http://www.w3.org/Graphics/SVG/1.1/DTD/svg11.dtd" >
<svg xmlns="http://www.w3.org/2000/svg" xmlns:xlink="http://www.w3.org/1999/xlink" version="1.1">
<metadata>
Created by FontForge 20201107 at Wed Jan 18 08:27:31 2023
 By 
Copyright (c) 2022, RandomMaerks (Bao Nguyen) || For more information, send an email to rmforbusuness@gmail.com
</metadata>
<defs>
<font id="Cygre-Black" horiz-adv-x="270" >
  <font-face 
    font-family="Cygre Black"
    font-weight="900"
    font-stretch="normal"
    units-per-em="1000"
    panose-1="2 0 10 3 0 0 0 0 0 0"
    ascent="800"
    descent="-200"
    x-height="500"
    cap-height="700"
    bbox="-145 -384 1537 1314"
    underline-thickness="50"
    underline-position="-100"
    unicode-range="U+0020-25CF"
  />
<missing-glyph horiz-adv-x="364" 
d="M33 0v666h265v-666h-265zM66 33h199v600h-199v-600z" />
    <glyph glyph-name="f_i" unicode="fi" horiz-adv-x="684" 
d="M348 592q-31 0 -49.5 -18t-18.5 -49v-25h188v-157h-188v-343h-170v343h-85v157h85v65q0 81 60 133t152 52h85v-158h-59zM454 651q0 42 28.5 70.5t70.5 28.5t70.5 -28.5t28.5 -70.5t-28.5 -70.5t-70.5 -28.5t-70.5 28.5t-28.5 70.5zM468 0v500h170v-500h-170z" />
    <glyph glyph-name="f_l" unicode="fl" horiz-adv-x="692" 
d="M348 592q-31 0 -49.5 -18t-18.5 -49v-25h147v-157h-147v-343h-170v343h-85v157h85v65q0 81 60 133t152 52h150v-158h-124zM472 0v750h170v-750h-170z" />
    <glyph glyph-name="f_f_i" unicode="ffi" horiz-adv-x="1076" 
d="M348 592q-31 0 -49.5 -18t-18.5 -49v-25h168v-157h-168v-343h-170v343h-85v157h85v65q0 81 60 133t152 52h85v-158h-59zM750 592q-31 0 -49.5 -18t-18.5 -49v-25h178v-157h-178v-343h-170v343h-64v157h64v65q0 81 60 133t152 52h85v-158h-59zM846 651q0 42 28.5 70.5
t70.5 28.5t70.5 -28.5t28.5 -70.5t-28.5 -70.5t-70.5 -28.5t-70.5 28.5t-28.5 70.5zM860 0v500h170v-500h-170z" />
    <glyph glyph-name="f_f_l" unicode="ffl" horiz-adv-x="1114" 
d="M348 592q-31 0 -49.5 -18t-18.5 -49v-25h167v-157h-167v-343h-170v343h-85v157h85v65q0 81 60 133t152 52h85v-158h-59zM770 592q-31 0 -49.5 -18t-18.5 -49v-25h147v-157h-147v-343h-170v343h-85v157h85v65q0 81 60.5 133t151.5 52h150v-158h-124zM894 0v750h170v-750
h-170z" />
    <glyph glyph-name="f_f" unicode="ff" horiz-adv-x="864" 
d="M348 592q-31 0 -49.5 -18t-18.5 -49v-25h147v-157h-147v-343h-170v343h-85v157h85v65q0 81 60 133t152 52h85v-158h-59zM750 592q-31 0 -49.5 -18t-18.5 -49v-25h147v-157h-147v-343h-170v343h-85v157h85v65q0 81 60 133t152 52h85v-158h-59z" />
    <glyph glyph-name=".notdef" horiz-adv-x="364" 
d="M33 0v666h265v-666h-265zM66 33h199v600h-199v-600z" />
    <glyph glyph-name=".null" horiz-adv-x="0" 
 />
    <glyph glyph-name="nonmarkingreturn" horiz-adv-x="333" 
 />
    <glyph glyph-name="space" unicode=" " 
 />
    <glyph glyph-name="exclam" unicode="!" horiz-adv-x="268" 
d="M205 250h-150l-20 450h190zM25 89q0 48 30 80t75 32q48 0 80.5 -32t32.5 -80q0 -47 -31 -78t-78 -31t-78 31t-31 78z" />
    <glyph glyph-name="quotedbl" unicode="&#x22;" horiz-adv-x="476" 
d="M300 780l150 -43l-59 -251l-145 41zM80 780l150 -43l-59 -251l-145 41z" />
    <glyph glyph-name="numbersign" unicode="#" horiz-adv-x="754" 
d="M729 570v-167h-704v167h704zM729 320v-167h-704v167h704zM472 0h-187l257 700h187zM212 0h-187l257 700h187z" />
    <glyph glyph-name="dollar" unicode="$" horiz-adv-x="494" 
d="M224 281q-94 11 -144 53.5t-50 112.5q0 75 57.5 123t146.5 48q76 0 139 -36.5t91 -96.5l-166 -47q-18 36 -62 36q-36 0 -36 -23q0 -22 61 -28q97 -10 150 -53t53 -112q0 -72 -56.5 -118t-145.5 -46q-78 0 -141 36t-91 97l166 47q18 -46 62 -46q16 0 26 7.5t10 19.5
q0 18 -70 26zM173 596v104h150v-104h-150zM173 118h150v-118h-150v118z" />
    <glyph glyph-name="percent" unicode="%" horiz-adv-x="1102" 
d="M789 209q0 -30 20 -49.5t49 -19.5t49 19.5t20 49.5t-20 49.5t-49 19.5t-49 -19.5t-20 -49.5zM639 209q0 95 63.5 157t155.5 62t155.5 -62t63.5 -157t-63.5 -157t-155.5 -62t-155.5 62t-63.5 157zM175 491q0 -30 20 -49.5t49 -19.5t49 19.5t20 49.5t-20 49.5t-49 19.5
t-49 -19.5t-20 -49.5zM25 491q0 95 63.5 157t155.5 62t155.5 -62t63.5 -157t-63.5 -157t-155.5 -62t-155.5 62t-63.5 157zM501 0h-187l287 700h187z" />
    <glyph glyph-name="ampersand" unicode="&#x26;" horiz-adv-x="708" 
d="M264 584q16 0 28 -10t12 -23q0 -30 -32 -55l-22 -17l-11 13q-22 26 -22 48q0 17 14 30.5t33 13.5zM269 728q-89 0 -148 -52t-59 -130q0 -79 73 -156l17 -18l-36 -26q-40 -29 -63 -74t-23 -94q0 -88 68.5 -145.5t173.5 -57.5q112 0 170 66l21 24l104 -111l111 102l-98 105
l84 75l-116 117l-82 -74l-102 113l18 13q34 25 54 68.5t20 89.5q0 73 -52.5 119t-134.5 46zM257 274l88 -94l-18 -18q-8 -8 -24.5 -13.5t-30.5 -5.5q-26 0 -44.5 18.5t-18.5 44.5t25 48z" />
    <glyph glyph-name="quotesingle" unicode="'" horiz-adv-x="256" 
d="M80 780l150 -43l-59 -251l-145 41z" />
    <glyph glyph-name="parenleft" unicode="(" horiz-adv-x="361" 
d="M30 253v213q0 111 67.5 192t174.5 109l54 -166q-55 -13 -90.5 -55t-35.5 -100v-173q0 -62 38.5 -105t97.5 -53l-53 -166q-111 24 -182 106.5t-71 197.5z" />
    <glyph glyph-name="parenright" unicode=")" horiz-adv-x="361" 
d="M331 463v-213q0 -111 -67.5 -192t-174.5 -109l-54 166q55 13 90.5 55t35.5 100v173q0 62 -38.5 105t-97.5 53l53 166q111 -24 182 -106.5t71 -197.5z" />
    <glyph glyph-name="asterisk" unicode="*" horiz-adv-x="526" 
d="M186 800h154l-12 -133l125 51l48 -147l-131 -31l88 -102l-125 -90l-70 114l-70 -114l-125 90l88 101l-131 32l48 147l122 -52z" />
    <glyph glyph-name="plus" unicode="+" horiz-adv-x="452" 
d="M152 468h148v-128h127v-147h-127v-127h-148v127h-127v147h127v128z" />
    <glyph glyph-name="comma" unicode="," horiz-adv-x="278" 
d="M70 180l174 -29l-64 -311l-136 21z" />
    <glyph glyph-name="hyphen" unicode="-" horiz-adv-x="452" 
d="M427 340v-147h-402v147h402z" />
    <glyph glyph-name="period" unicode="." horiz-adv-x="278" 
d="M30 89q0 48 30 80t75 32q48 0 80.5 -32t32.5 -80q0 -47 -31 -78t-78 -31t-78 31t-31 78z" />
    <glyph glyph-name="slash" unicode="/" horiz-adv-x="496" 
d="M213 0h-187l257 700h187z" />
    <glyph glyph-name="zero" unicode="0" horiz-adv-x="648" 
d="M200 323q0 -75 36 -123t88 -48t88 48t36 123v53q0 75 -36 123t-88 48t-88 -48t-36 -123v-53zM30 323v53q0 148 85.5 244.5t208.5 96.5t208.5 -96.5t85.5 -244.5v-53q0 -148 -85.5 -244.5t-208.5 -96.5t-208.5 96.5t-85.5 244.5z" />
    <glyph glyph-name="one" unicode="1" horiz-adv-x="495" 
d="M445 700v-700h-170v509l-157 -107l-93 138l239 160h181z" />
    <glyph glyph-name="two" unicode="2" horiz-adv-x="571" 
d="M541 467q0 106 -73.5 175t-178.5 69q-100 0 -165.5 -56t-93.5 -145l168 -47q23 78 91 78q34 0 58 -21t24 -53q0 -18 -8 -34t-31.5 -35t-34.5 -27t-47 -31l-211 -148v-192h502v167h-269l126 87q58 38 100.5 94t42.5 119z" />
    <glyph glyph-name="three" unicode="3" horiz-adv-x="571" 
d="M404 420l137 88v192h-502v-167h300l-140 -92l25 -117q68 0 107.5 -25.5t39.5 -68.5q0 -32 -23.5 -51.5t-63.5 -19.5q-37 0 -62.5 20.5t-33.5 57.5l-158 -55q25 -90 94 -141.5t164 -51.5q113 0 183 64.5t70 168.5q0 78 -37.5 132.5t-99.5 65.5z" />
    <glyph glyph-name="four" unicode="4" horiz-adv-x="632" 
d="M205 330h135v162zM510 700v-370h97v-167h-97v-163h-170v163h-315v187l295 350h190z" />
    <glyph glyph-name="five" unicode="5" horiz-adv-x="571" 
d="M210 432v101h311v167h-481v-377l170 -40q36 39 82 39q34 0 56.5 -23t22.5 -58q0 -37 -24.5 -59.5t-62.5 -22.5q-34 0 -56.5 18t-29.5 50l-168 -55q25 -85 93 -134t161 -49q113 0 185 70.5t72 181.5q0 100 -57 169.5t-139 69.5q-73 0 -135 -48z" />
    <glyph glyph-name="six" unicode="6" horiz-adv-x="610" 
d="M476 488q-45 59 -137 59q-58 0 -96 -43t-43 -115q21 42 63.5 66.5t93.5 24.5q93 0 158 -71.5t65 -173.5q0 -109 -75.5 -181t-191.5 -72q-78 0 -142.5 35t-98.5 97q-42 76 -42 200q0 181 87.5 292t230.5 111q70 0 129 -28t93 -77zM210 236q0 -34 31.5 -59t74.5 -25
q41 0 67.5 22.5t26.5 56.5q0 35 -28 57t-71 22q-44 0 -72.5 -21t-28.5 -53z" />
    <glyph glyph-name="seven" unicode="7" horiz-adv-x="558" 
d="M315 0l218 523v177h-508v-167h331l-227 -533h186z" />
    <glyph glyph-name="eight" unicode="8" horiz-adv-x="598" 
d="M200 213q0 -26 28 -43.5t71 -17.5t71 17.5t28 43.5q0 28 -28.5 46.5t-70.5 18.5t-70.5 -18.5t-28.5 -46.5zM50 521q0 85 71 141t178 56t178 -56t71 -141q0 -50 -27 -93t-74 -67q56 -25 88.5 -72t32.5 -103q0 -88 -76.5 -146t-192.5 -58t-192.5 58t-76.5 146
q0 56 32.5 103t88.5 72q-47 24 -74 67t-27 93zM299 442q34 0 56.5 15t22.5 37.5t-22.5 38t-56.5 15.5t-56.5 -15.5t-22.5 -38t22.5 -37.5t56.5 -15z" />
    <glyph glyph-name="nine" unicode="9" horiz-adv-x="610" 
d="M134 211q45 -59 137 -59q58 0 96 43t43 115q-21 -42 -63.5 -66.5t-93.5 -24.5q-93 0 -158 71.5t-65 173.5q0 109 75.5 181t191.5 72q78 0 142.5 -35t98.5 -97q42 -76 42 -200q0 -181 -87.5 -292t-230.5 -111q-70 0 -129 28t-93 77zM400 463q0 34 -31.5 59t-74.5 25
q-41 0 -67.5 -22.5t-26.5 -56.5q0 -35 28 -57t71 -22q44 0 72.5 21t28.5 53z" />
    <glyph glyph-name="colon" unicode=":" horiz-adv-x="278" 
d="M30 417q0 48 30 80t75 32q48 0 80.5 -32t32.5 -80q0 -47 -31 -78t-78 -31t-78 31t-31 78zM30 89q0 48 30 80t75 32q48 0 80.5 -32t32.5 -80q0 -47 -31 -78t-78 -31t-78 31t-31 78z" />
    <glyph glyph-name="semicolon" unicode=";" horiz-adv-x="278" 
d="M30 417q0 48 30 80t75 32q48 0 80.5 -32t32.5 -80q0 -47 -31 -78t-78 -31t-78 31t-31 78zM70 180l174 -29l-64 -311l-136 21z" />
    <glyph glyph-name="less" unicode="&#x3c;" horiz-adv-x="510" 
d="M480 187v-176l-450 143v224l450 143v-176l-306 -76z" />
    <glyph glyph-name="equal" unicode="=" horiz-adv-x="452" 
d="M427 240v-147h-402v147h402zM427 460v-147h-402v147h402z" />
    <glyph glyph-name="greater" unicode="&#x3e;" horiz-adv-x="510" 
d="M30 345v176l450 -143v-224l-450 -143v176l306 76z" />
    <glyph glyph-name="question" unicode="?" horiz-adv-x="551" 
d="M170 90.5q0 47.5 30.5 79t76.5 31.5q47 0 79 -32t32 -80q0 -47 -31 -78t-78 -31t-78 31.5t-31 79zM511 480q0 101 -66.5 166t-168.5 65q-84 0 -146 -50t-90 -141l158 -57q21 78 79 78q29 0 46.5 -17t17.5 -44q0 -46 -59 -70l-86 -30l52 -144l100 37q163 60 163 207z" />
    <glyph glyph-name="at" unicode="@" horiz-adv-x="793" 
d="M438 351q0 21 -14 35t-35 14t-35 -14t-14 -35t14 -35t35 -14t35 14t14 35zM473 351q0 -73 -36.5 -121t-92.5 -48t-95 49t-39 120t39 120t95 49t92.5 -48t36.5 -121zM783 374q0 -95 -48.5 -148.5t-132.5 -53.5q-65 0 -114.5 30t-49.5 68v230h130v-170q0 -42 37 -42
q23 0 35.5 20t12.5 57q0 99 -73.5 167t-181.5 68q-110 0 -184 -72t-74 -180q0 -109 75.5 -182.5t194.5 -73.5q91 0 171 46l55 -105q-104 -61 -232 -61q-112 0 -202 49.5t-141 136t-51 193t50.5 193.5t139.5 136.5t198 49.5q106 0 194.5 -47t139.5 -129t51 -180z" />
    <glyph glyph-name="A" unicode="A" horiz-adv-x="804" 
d="M217 297h375v-158h-375v158zM223 0h-196l262 700h224l264 -700h-196l-177 526z" />
    <glyph glyph-name="B" unicode="B" horiz-adv-x="658" 
d="M397 532h-177v-100h177q21 0 36 15.5t15 37.5q0 21 -14 34t-37 13zM397 270h-177v-102h187q22 0 36.5 14t14.5 35q0 23 -17.5 38t-43.5 15zM419 0h-369v700h359q91 0 150 -53t59 -135q0 -49 -22.5 -92t-60.5 -66q43 -24 68 -67.5t25 -95.5q0 -82 -59.5 -136.5
t-149.5 -54.5z" />
    <glyph glyph-name="C" unicode="C" horiz-adv-x="778" 
d="M30 351q0 103 48 187.5t132 133t186 48.5q114 0 206.5 -62.5t140.5 -170.5l-172 -60q-24 58 -71 90.5t-105 32.5q-83 0 -139 -57.5t-56 -141.5t56 -141.5t138 -57.5q61 0 109 35t72 97l173 -59q-46 -112 -140.5 -177.5t-211.5 -65.5q-102 0 -186 48.5t-132 133t-48 187.5
z" />
    <glyph glyph-name="D" unicode="D" horiz-adv-x="708" 
d="M339 0h-289v700h289q142 0 240.5 -98.5t98.5 -250.5t-98.5 -251.5t-240.5 -99.5zM329 535h-109v-370h109q75 0 127 52.5t52 133.5t-52 132.5t-127 51.5z" />
    <glyph glyph-name="E" unicode="E" horiz-adv-x="595" 
d="M220 435h316v-168h-316v-99h340v-168h-510v700h510v-168h-340v-97z" />
    <glyph glyph-name="F" unicode="F" horiz-adv-x="592" 
d="M220 435h316v-168h-316v-267h-170v700h510v-168h-340v-97z" />
    <glyph glyph-name="G" unicode="G" horiz-adv-x="788" 
d="M200 351q0 -87 56.5 -143t137.5 -56q62 0 110 31t66 82h-224v152h408q4 -26 4 -80q0 -153 -105.5 -254t-258.5 -101t-258.5 104.5t-105.5 264.5t105.5 264.5t258.5 104.5q106 0 193.5 -52t131.5 -141l-153 -80q-24 48 -70 75.5t-102 27.5q-81 0 -137.5 -56t-56.5 -143z
" />
    <glyph glyph-name="H" unicode="H" horiz-adv-x="700" 
d="M50 0v700h170v-265h260v265h170v-700h-170v267h-260v-267h-170z" />
    <glyph glyph-name="I" unicode="I" 
d="M220 0h-170v700h170v-700z" />
    <glyph glyph-name="J" unicode="J" horiz-adv-x="664" 
d="M30 208l159 62q31 -111 130 -111q55 0 90 36.5t35 101.5v403h170v-413q0 -129 -85 -213.5t-210 -84.5q-106 0 -182 58t-107 161z" />
    <glyph glyph-name="K" unicode="K" horiz-adv-x="698" 
d="M50 0v700h170v-265h27l209 265h217l-281 -350l281 -350h-217l-209 262h-27v-262h-170z" />
    <glyph glyph-name="L" unicode="L" horiz-adv-x="585" 
d="M220 168h340v-168h-510v700h170v-532z" />
    <glyph glyph-name="M" unicode="M" horiz-adv-x="836" 
d="M40 0v700h195l183 -365l183 365h195v-700h-170v422l-155 -318h-105l-156 318v-422h-170z" />
    <glyph glyph-name="N" unicode="N" horiz-adv-x="700" 
d="M50 0v700h193l237 -427v427h170v-700h-193l-237 427v-427h-170z" />
    <glyph glyph-name="O" unicode="O" horiz-adv-x="788" 
d="M200 353q0 -88 56 -144.5t138 -56.5t138 56.5t56 144.5q0 86 -56.5 141.5t-137.5 55.5t-137.5 -55.5t-56.5 -141.5zM30 353q0 160 105.5 263.5t258.5 103.5t258.5 -103.5t105.5 -263.5q0 -161 -105.5 -266t-258.5 -105t-258.5 105t-105.5 266z" />
    <glyph glyph-name="P" unicode="P" horiz-adv-x="648" 
d="M349 532h-129v-172h129q42 0 70.5 25.5t28.5 62.5q0 36 -28 60t-71 24zM349 192h-129v-192h-170v700h309q111 0 185 -72t74 -180q0 -107 -78 -181.5t-191 -74.5z" />
    <glyph glyph-name="Q" unicode="Q" horiz-adv-x="788" 
d="M200 353q0 -88 56 -144.5t138 -56.5t138 56.5t56 144.5q0 86 -56.5 141.5t-137.5 55.5t-137.5 -55.5t-56.5 -141.5zM30 353q0 160 105.5 263.5t258.5 103.5t258.5 -103.5t105.5 -263.5q0 -161 -105.5 -266t-258.5 -105t-258.5 105t-105.5 266zM653 -40l-338 338l115 125
l338 -338z" />
    <glyph glyph-name="R" unicode="R" horiz-adv-x="648" 
d="M349 532h-129v-132h129q38 0 63.5 19.5t25.5 47.5t-25.5 46.5t-63.5 18.5zM460 254l158 -254h-194l-145 234h-59v-234h-170v700h309q114 0 186.5 -64.5t72.5 -173.5q0 -77 -43.5 -134t-114.5 -74z" />
    <glyph glyph-name="S" unicode="S" horiz-adv-x="594" 
d="M280 266q-115 18 -179.5 78.5t-64.5 150.5q0 96 69 157t177 61q93 0 168 -47t108 -126l-166 -59q-14 33 -42.5 52t-62.5 19q-32 0 -52.5 -15.5t-20.5 -39.5q0 -23 23.5 -37t75.5 -22q117 -20 184 -83t67 -153q0 -94 -71.5 -153.5t-183.5 -59.5q-93 0 -169 43.5
t-110 116.5l166 79q15 -36 45 -57t66 -21q34 0 56 15.5t22 40.5q0 45 -105 60z" />
    <glyph glyph-name="T" unicode="T" horiz-adv-x="616" 
d="M593 700v-168h-200v-532h-170v532h-200v168h570z" />
    <glyph glyph-name="U" unicode="U" horiz-adv-x="690" 
d="M345 -11q-125 0 -210 84.5t-85 213.5v413h170v-403q0 -65 35 -101.5t90 -36.5t90 36.5t35 101.5v403h170v-413q0 -129 -85 -213.5t-210 -84.5z" />
    <glyph glyph-name="V" unicode="V" horiz-adv-x="804" 
d="M581 700h196l-257 -700h-234l-259 700h196l177 -506z" />
    <glyph glyph-name="W" unicode="W" horiz-adv-x="1053" 
d="M840 700h186l-143 -700h-254l-102 457l-83 -457h-254l-163 700h186l111 -496l105 496h196l118 -496z" />
    <glyph glyph-name="X" unicode="X" horiz-adv-x="724" 
d="M700 0h-204l-133 261l-134 -261h-205l194 350l-194 350h205l134 -261l133 261h204l-192 -350z" />
    <glyph glyph-name="Y" unicode="Y" horiz-adv-x="698" 
d="M274 0h170v220l231 480h-199l-117 -272l-136 272h-200l251 -480v-220z" />
    <glyph glyph-name="Z" unicode="Z" horiz-adv-x="628" 
d="M588 0v167h-345l345 336v197h-548v-167h345l-345 -330v-203h548z" />
    <glyph glyph-name="bracketleft" unicode="[" horiz-adv-x="380" 
d="M220 108h130v-158h-300v810h300v-168h-130v-484z" />
    <glyph glyph-name="backslash" unicode="\" horiz-adv-x="496" 
d="M283 0l-257 700h187l257 -700h-187z" />
    <glyph glyph-name="bracketright" unicode="]" horiz-adv-x="380" 
d="M160 602h-130v158h300v-810h-300v168h130v484z" />
    <glyph glyph-name="asciicircum" unicode="^" horiz-adv-x="508" 
d="M234 750l-204 -122l61 -100l163 97l163 -97l61 100l-204 122h-40z" />
    <glyph glyph-name="underscore" unicode="_" horiz-adv-x="502" 
d="M477 110v-127h-452v127h452z" />
    <glyph glyph-name="grave" unicode="`" horiz-adv-x="316" 
d="M30 633l73 99l183 -138l-69 -94z" />
    <glyph glyph-name="a" unicode="a" horiz-adv-x="537" 
d="M317 193l-83 -11q-34 -5 -34 -24q0 -23 37 -23q35 0 57.5 15.5t22.5 39.5h35q0 -88 -48.5 -144.5t-123.5 -56.5q-65 0 -107.5 43t-42.5 109t43 108t121 52l123 16v2q0 17 -18.5 28.5t-44.5 11.5q-23 0 -39.5 -11.5t-21.5 -30.5l-167 53q21 63 83 102t140 39
q97 0 167.5 -56t70.5 -132v-323h-170v193z" />
    <glyph glyph-name="b" unicode="b" horiz-adv-x="638" 
d="M50 0v750h170v-750h-170zM220 251q0 -47 31 -78t78 -31t78 31t31 78t-31 78t-78 31t-78 -31t-31 -78zM167 251q0 115 62 192t155 77q95 0 159.5 -77.5t64.5 -191.5t-64.5 -191.5t-159.5 -77.5q-93 0 -155 77t-62 192z" />
    <glyph glyph-name="c" unicode="c" horiz-adv-x="594" 
d="M200 251q0 -48 30 -78.5t74 -30.5q72 0 102 62l156 -74q-35 -68 -104 -108t-154 -40q-114 0 -194 76t-80 193t80 193t194 76q86 0 155.5 -41t104.5 -112l-156 -74q-13 31 -41 49t-63 18q-44 0 -74 -30.5t-30 -78.5z" />
    <glyph glyph-name="d" unicode="d" horiz-adv-x="638" 
d="M588 0h-170v750h170v-750zM418 251q0 47 -31 78t-78 31t-78 -31t-31 -78t31 -78t78 -31t78 31t31 78zM471 251q0 -115 -62 -192t-155 -77q-95 0 -159.5 77.5t-64.5 191.5t64.5 191.5t159.5 77.5q93 0 155 -77t62 -192z" />
    <glyph glyph-name="e" unicode="e" horiz-adv-x="592" 
d="M388 317q-11 22 -35.5 35t-55.5 13q-63 0 -86 -48h177zM211 186q23 -49 87 -49q56 0 78 32l156 -59q-32 -59 -95 -93.5t-138 -34.5q-115 0 -192 77t-77 193q0 115 74.5 191.5t186.5 76.5q113 0 192 -79t79 -193q0 -28 -6 -62h-345z" />
    <glyph glyph-name="f" unicode="f" horiz-adv-x="452" 
d="M348 592q-31 0 -49.5 -18t-18.5 -49v-25h147v-157h-147v-343h-170v343h-85v157h85v65q0 81 60 133t152 52h85v-158h-59z" />
    <glyph glyph-name="g" unicode="g" horiz-adv-x="598" 
d="M441 272q0 -104 -57 -173t-142 -69q-90 0 -151 70t-61 172t62 174t151 72q84 0 141 -71t57 -175zM378 269q0 34 -25.5 56.5t-63.5 22.5t-63.5 -22.5t-25.5 -56.5t25.5 -56.5t63.5 -22.5t63.5 22.5t25.5 56.5zM378 20v480h170v-480q0 -114 -70 -181.5t-187 -67.5
q-87 0 -155 36.5t-103 100.5l143 102q16 -30 44 -47t62 -17q41 0 68.5 21t27.5 53z" />
    <glyph glyph-name="h" unicode="h" horiz-adv-x="588" 
d="M50 0v750h170v-750h-170zM368 0v273q0 37 -20.5 57.5t-52.5 20.5q-31 0 -53 -23t-22 -55h-58q0 103 54.5 170.5t136.5 67.5q81 0 133 -52.5t52 -145.5v-313h-170z" />
    <glyph glyph-name="i" unicode="i" horiz-adv-x="262" 
d="M32 651q0 42 28.5 70.5t70.5 28.5t70.5 -28.5t28.5 -70.5t-28.5 -70.5t-70.5 -28.5t-70.5 28.5t-28.5 70.5zM46 0v500h170v-500h-170z" />
    <glyph glyph-name="j" unicode="j" horiz-adv-x="262" 
d="M32 651q0 42 28.5 70.5t70.5 28.5t70.5 -28.5t28.5 -70.5t-28.5 -70.5t-70.5 -28.5t-70.5 28.5t-28.5 70.5zM-22 -62q32 0 50 24.5t18 62.5v475h170v-529q0 -82 -58 -141.5t-150 -59.5h-59v168h29z" />
    <glyph glyph-name="k" unicode="k" horiz-adv-x="612" 
d="M50 0v750h170v-415h27l128 165h217l-200 -250l200 -250h-217l-128 162h-27v-162h-170z" />
    <glyph glyph-name="l" unicode="l" 
d="M50 0v750h170v-750h-170z" />
    <glyph glyph-name="m" unicode="m" horiz-adv-x="847" 
d="M627 0v283q0 31 -16.5 49.5t-41.5 18.5t-42.5 -20t-17.5 -48h-58q0 99 50.5 163.5t125.5 64.5q74 0 122 -49.5t48 -138.5v-323h-170zM50 0v500h170v-500h-170zM338 0v283q0 31 -16.5 49.5t-41.5 18.5t-42.5 -20t-17.5 -48h-58q0 99 50.5 163.5t125.5 64.5q74 0 122 -49.5
t48 -138.5v-323h-170z" />
    <glyph glyph-name="n" unicode="n" horiz-adv-x="588" 
d="M50 0v500h170v-500h-170zM368 0v273q0 37 -20.5 57.5t-52.5 20.5q-31 0 -53 -23t-22 -55h-58q0 103 54.5 170.5t136.5 67.5q81 0 133 -52.5t52 -145.5v-313h-170z" />
    <glyph glyph-name="o" unicode="o" horiz-adv-x="618" 
d="M200 251q0 -48 31.5 -78.5t77.5 -30.5t77.5 30.5t31.5 78.5t-31.5 78.5t-77.5 30.5t-77.5 -30.5t-31.5 -78.5zM30 251q0 117 81 193t198 76t198 -76t81 -193t-81 -193t-198 -76t-198 76t-81 193z" />
    <glyph glyph-name="p" unicode="p" horiz-adv-x="638" 
d="M50 500h170v-700h-170v700zM220 251q0 -47 31 -78t78 -31t78 31t31 78t-31 78t-78 31t-78 -31t-31 -78zM167 251q0 115 62 192t155 77q95 0 159.5 -77.5t64.5 -191.5t-64.5 -191.5t-159.5 -77.5q-93 0 -155 77t-62 192z" />
    <glyph glyph-name="q" unicode="q" horiz-adv-x="638" 
d="M588 500v-700h-170v700h170zM418 251q0 47 -31 78t-78 31t-78 -31t-31 -78t31 -78t78 -31t78 31t31 78zM471 251q0 -115 -62 -192t-155 -77q-95 0 -159.5 77.5t-64.5 191.5t64.5 191.5t159.5 77.5q93 0 155 -77t62 -192z" />
    <glyph glyph-name="r" unicode="r" horiz-adv-x="400" 
d="M50 0v500h170v-500h-170zM348 338q-53 0 -90.5 -27.5t-37.5 -67.5h-58q0 118 53 191.5t133 73.5h28v-170h-28z" />
    <glyph glyph-name="s" unicode="s" horiz-adv-x="494" 
d="M237 174q-99 12 -149.5 54t-50.5 112q0 76 55 124.5t142 48.5q74 0 134.5 -36t87.5 -95l-166 -47q-7 15 -21.5 24.5t-31.5 9.5q-13 0 -21.5 -6t-8.5 -16q0 -23 64 -30q91 -9 142 -52t51 -111q0 -73 -56.5 -119t-145.5 -46q-78 0 -141 36t-91 97l166 47q8 -21 25 -33.5
t37 -12.5q15 0 25.5 7t10.5 18t-13 17t-44 9z" />
    <glyph glyph-name="t" unicode="t" horiz-adv-x="442" 
d="M338 158h79v-158h-105q-94 0 -148 46.5t-54 128.5v168h-85v157h85v134l170 36v-170h137v-157h-137v-128q0 -24 16 -40.5t42 -16.5z" />
    <glyph glyph-name="u" unicode="u" horiz-adv-x="568" 
d="M518 500v-500h-170v500h170zM220 500v-283q0 -32 17.5 -50t45.5 -18q27 0 46 17t19 41h58q0 -94 -51.5 -156t-129.5 -62q-76 0 -125.5 50t-49.5 138v323h170z" />
    <glyph glyph-name="v" unicode="v" horiz-adv-x="624" 
d="M421 500h176l-173 -500h-224l-173 500h176l106 -356z" />
    <glyph glyph-name="w" unicode="w" horiz-adv-x="938" 
d="M735 500h176l-128 -500h-234l-80 287l-70 -287h-234l-138 500h176l86 -346l92 346h176l96 -346z" />
    <glyph glyph-name="x" unicode="x" horiz-adv-x="598" 
d="M574 0h-194l-81 161l-80 -161h-195l150 250l-150 250h195l80 -161l81 161h194l-150 -250z" />
    <glyph glyph-name="y" unicode="y" horiz-adv-x="624" 
d="M418 500l-106 -310l-106 310h-179l190 -490l-75 -210h179l276 700h-179z" />
    <glyph glyph-name="z" unicode="z" horiz-adv-x="492" 
d="M462 0v147h-239l239 181v172h-432v-147h209l-209 -181v-172h432z" />
    <glyph glyph-name="braceleft" unicode="{" horiz-adv-x="411" 
d="M90 526q0 89 64.5 154t167.5 87l54 -166q-55 -12 -90.5 -51t-35.5 -94q0 -83 -60 -100q32 -9 46 -30t14 -63q0 -58 38.5 -98t97.5 -50l-53 -166q-107 18 -175 81.5t-68 152.5q0 90 -80 90v167q39 0 59.5 24t20.5 62z" />
    <glyph glyph-name="bar" unicode="|" 
d="M50 -200v1000h170v-1000h-170z" />
    <glyph glyph-name="braceright" unicode="}" horiz-adv-x="411" 
d="M321 190q0 -89 -64.5 -154t-167.5 -87l-54 166q55 12 90.5 51t35.5 94q0 83 60 100q-32 9 -46 30t-14 63q0 58 -38.5 98t-97.5 50l53 166q107 -18 175 -81.5t68 -152.5q0 -90 80 -90v-167q-39 0 -59.5 -24t-20.5 -62z" />
    <glyph glyph-name="asciitilde" unicode="~" horiz-adv-x="484" 
d="M164 378q-118 0 -134 -150l104 -18q9 59 41 59q15 0 40 -19q62 -46 107 -46q58 0 91 39.5t41 110.5l-104 18q-10 -56 -45 -56q-20 0 -42 18q-30 24 -52 34t-47 10z" />
    <glyph glyph-name="exclamdown" unicode="&#xa1;" horiz-adv-x="268" 
d="M63 340h150l20 -450h-190zM243 501q0 -48 -30 -80t-75 -32q-48 0 -80.5 32t-32.5 80q0 47 31 78t78 31t78 -31t31 -78z" />
    <glyph glyph-name="cent" unicode="&#xa2;" horiz-adv-x="594" 
d="M228 596v104h150v-104h-150zM228 118h150v-118h-150v118zM200 361q0 -48 30 -78.5t74 -30.5q72 0 102 62l156 -74q-35 -68 -104 -108t-154 -40q-114 0 -194 76t-80 193t80 193t194 76q86 0 155.5 -41t104.5 -112l-156 -74q-13 31 -41 49t-63 18q-44 0 -74 -30.5
t-30 -78.5z" />
    <glyph glyph-name="sterling" unicode="&#xa3;" horiz-adv-x="627" 
d="M602 167v-167h-577v167h100v96h-80v167h80v62q0 100 69.5 166t172.5 66q86 0 147.5 -43.5t87.5 -122.5l-165 -57q-17 53 -70 53q-32 0 -52 -19t-20 -53v-52h192v-167h-192v-96h307z" />
    <glyph glyph-name="currency" unicode="&#xa4;" horiz-adv-x="407" 
d="M26 395l60 60l39 -41q34 25 79 25q42 0 77 -24l40 41l61 -62l-40 -40q24 -32 24 -77t-25 -79l41 -39l-60 -60l-39 41q-36 -25 -79 -25q-44 0 -77 24l-40 -40l-62 61l41 40q-24 32 -24 77t25 79zM150 277q0 -23 15.5 -38.5t38.5 -15.5t38.5 15.5t15.5 38.5t-15.5 38.5
t-38.5 15.5t-38.5 -15.5t-15.5 -38.5z" />
    <glyph glyph-name="yen" unicode="&#xa5;" horiz-adv-x="698" 
d="M560 160h-402v-107h402v107zM560 300h-402v-107h402v107zM274 0h170v320l231 380h-199l-117 -212l-136 212h-200l251 -380v-320z" />
    <glyph glyph-name="brokenbar" unicode="&#xa6;" 
d="M220 386h-170v414h170v-414zM220 234v-434h-170v434h170z" />
    <glyph glyph-name="section" unicode="&#xa7;" horiz-adv-x="494" 
d="M270 323q-70 7 -70 34q0 16 24 21q70 -7 70 -34q0 -11 -24 -21zM116 409q-41 -16 -63.5 -43t-22.5 -61q0 -49 49 -80.5t144 -43.5q39 -5 55 -12t16 -20q0 -11 -10 -18.5t-26 -7.5q-20 0 -37 12.5t-25 33.5l-166 -47q28 -61 91 -97t141 -36q89 0 145.5 46.5t56.5 120.5
q0 90 -85 136q85 31 85 99q0 50 -50.5 83.5t-145.5 45.5q-38 5 -53 12t-15 20q0 11 10 18.5t26 7.5q20 0 37 -12.5t25 -33.5l166 47q-28 61 -91 97t-141 36q-89 0 -145.5 -46.5t-56.5 -120.5q0 -91 86 -136z" />
    <glyph glyph-name="dieresis" unicode="&#xa8;" horiz-adv-x="508" 
d="M285 619q0 42 28.5 70.5t70.5 28.5t70.5 -28.5t28.5 -70.5t-28.5 -70.5t-70.5 -28.5t-70.5 28.5t-28.5 70.5zM25 619q0 42 28.5 70.5t70.5 28.5t70.5 -28.5t28.5 -70.5t-28.5 -70.5t-70.5 -28.5t-70.5 28.5t-28.5 70.5z" />
    <glyph glyph-name="copyright" unicode="&#xa9;" horiz-adv-x="788" 
d="M328 351q0 -30 19 -49t46 -19q43 0 61 44l93 -37q-21 -50 -62 -79t-91 -29q-69 0 -116.5 48t-47.5 121t47.5 121t116.5 48q51 0 93 -28t62 -75l-94 -39q-17 41 -62 41q-27 0 -46 -19t-19 -49zM148 353q0 -114 71.5 -187.5t174.5 -73.5t174.5 73.5t71.5 187.5
q0 112 -71.5 184.5t-174.5 72.5t-174.5 -72.5t-71.5 -184.5zM40 353q0 160 102.5 263.5t251.5 103.5t251.5 -103.5t102.5 -263.5q0 -161 -102.5 -266t-251.5 -105t-251.5 105t-102.5 266z" />
    <glyph glyph-name="ordfeminine" unicode="&#xaa;" horiz-adv-x="358" 
d="M218 700h100v-278h-100v278zM328 360v-107h-298v107h298zM130 561q0 -21 13.5 -35t32.5 -14q18 0 30 14t12 35t-12 35t-30 14q-19 0 -32.5 -14t-13.5 -35zM30 561q0 62 32 105.5t78 43.5q52 0 85 -42t33 -107t-33 -107t-85 -42q-46 0 -78 43.5t-32 105.5z" />
    <glyph glyph-name="guillemotleft" unicode="&#xab;" horiz-adv-x="640" 
d="M610 197v-186l-270 143v224l270 143v-186l-136 -66zM300 197v-186l-270 143v224l270 143v-186l-136 -66z" />
    <glyph glyph-name="logicalnot" unicode="&#xac;" horiz-adv-x="512" 
d="M487 380v-240h-160v93h-302v147h462z" />
    <glyph glyph-name="uni00AD" unicode="&#xad;" horiz-adv-x="392" 
d="M367 340v-147h-342v147h342z" />
    <glyph glyph-name="registered" unicode="&#xae;" horiz-adv-x="788" 
d="M422 425h-92v-62h92q15 0 25 10t10 25q0 12 -10 19.5t-25 7.5zM456 292l92 -104h-114l-86 94h-18v-94h-90v325h202q46 0 76 -33t30 -83q0 -36 -26.5 -66.5t-65.5 -38.5zM148 353q0 -114 71.5 -187.5t174.5 -73.5t174.5 73.5t71.5 187.5q0 112 -71.5 184.5t-174.5 72.5
t-174.5 -72.5t-71.5 -184.5zM40 353q0 160 102.5 263.5t251.5 103.5t251.5 -103.5t102.5 -263.5q0 -161 -102.5 -266t-251.5 -105t-251.5 105t-102.5 266z" />
    <glyph glyph-name="macron" unicode="&#xaf;" horiz-adv-x="402" 
d="M377 700v-127h-352v127h352z" />
    <glyph glyph-name="degree" unicode="&#xb0;" horiz-adv-x="488" 
d="M175 491q0 -30 20 -49.5t49 -19.5t49 19.5t20 49.5t-20 49.5t-49 19.5t-49 -19.5t-20 -49.5zM25 491q0 95 63.5 157t155.5 62t155.5 -62t63.5 -157t-63.5 -157t-155.5 -62t-155.5 62t-63.5 157z" />
    <glyph glyph-name="plusminus" unicode="&#xb1;" horiz-adv-x="452" 
d="M427 60v-147h-402v147h402zM152 508h148v-128h127v-147h-127v-127h-148v127h-127v147h127v128z" />
    <glyph glyph-name="uni00B2" unicode="&#xb2;" horiz-adv-x="376" 
d="M345 699q0 62 -45 102.5t-110 40.5q-62 0 -102.5 -33t-57.5 -86l120 -42q8 31 32 31q10 0 16.5 -7.5t6.5 -19.5q0 -11 -13.5 -23t-26.5 -18.5t-39 -18.5l-95 -42v-147h316v126h-149l30 13q22 10 39.5 20t37 25.5t30 35.5t10.5 43z" />
    <glyph glyph-name="uni00B3" unicode="&#xb3;" horiz-adv-x="396" 
d="M252 656l106 46v136h-311v-115h189l-74 -36l24 -81q41 0 41 -24q0 -10 -8 -16t-20 -6q-26 0 -32 26l-137 -21q17 -63 64.5 -99t114.5 -36q68 0 113 34.5t45 86.5q0 46 -32.5 75.5t-82.5 29.5z" />
    <glyph glyph-name="acute" unicode="&#xb4;" horiz-adv-x="306" 
d="M281 651l-73 99l-183 -138l69 -94z" />
    <glyph glyph-name="mu" unicode="&#xb5;" horiz-adv-x="628" 
d="M578 500v-500h-170v500h170zM50 500h170v-700h-170v700zM458 257q0 -114 -41.5 -191t-102.5 -77q-63 0 -107.5 78.5t-44.5 189.5h58q0 -45 28.5 -76.5t69.5 -31.5t65.5 29.5t24.5 78.5h50z" />
    <glyph glyph-name="paragraph" unicode="&#xb6;" horiz-adv-x="670" 
d="M620 0h-100v700h100v-700zM269 312q-92 0 -155.5 57.5t-63.5 141.5q0 80 60 134.5t149 54.5h197v-700h-170v312h-17z" />
    <glyph glyph-name="periodcentered" unicode="&#xb7;" horiz-adv-x="278" 
d="M30 369q0 48 30 80t75 32q48 0 80.5 -32t32.5 -80q0 -47 -31 -78t-78 -31t-78 31t-31 78z" />
    <glyph glyph-name="cedilla" unicode="&#xb8;" horiz-adv-x="405" 
d="M188 -80q34 40 79 40q47 0 80 -43t33 -104q0 -72 -48 -118t-125 -46q-66 0 -115 34t-67 92l127 45q4 -19 18.5 -30t34.5 -11q19 0 30.5 10.5t11.5 27.5q0 16 -9 26.5t-22 10.5q-15 0 -28 -13l-130 39v143h130v-103z" />
    <glyph glyph-name="uni00B9" unicode="&#xb9;" horiz-adv-x="309" 
d="M279 837v-400h-130v253l-51 -41l-68 93l116 95h133z" />
    <glyph glyph-name="ordmasculine" unicode="&#xba;" horiz-adv-x="358" 
d="M328 360v-107h-298v107h298zM130 561q0 -21 14.5 -35t34.5 -14t34.5 14t14.5 35t-14.5 35t-34.5 14t-34.5 -14t-14.5 -35zM30 561q0 65 43 107t106 42t106 -42t43 -107t-43 -107t-106 -42t-106 42t-43 107z" />
    <glyph glyph-name="guillemotright" unicode="&#xbb;" horiz-adv-x="640" 
d="M30 335v186l270 -143v-224l-270 -143v186l136 66zM340 335v186l270 -143v-224l-270 -143v186l136 66z" />
    <glyph glyph-name="onequarter" unicode="&#xbc;" horiz-adv-x="907" 
d="M649 167h50v69zM829 387v-220h48v-106h-48v-74h-130v74h-176v120l162 206h144zM351 0h-187l287 700h187zM279 687v-400h-130v253l-51 -41l-68 93l116 95h133z" />
    <glyph glyph-name="onehalf" unicode="&#xbd;" horiz-adv-x="869" 
d="M838 249q0 62 -45 102.5t-110 40.5q-62 0 -102.5 -33t-57.5 -86l120 -42q8 31 32 31q10 0 16.5 -7.5t6.5 -19.5q0 -11 -13.5 -23t-26.5 -18.5t-39 -18.5l-95 -42v-147h316v126h-149l30 13q22 10 39.5 20t37 25.5t30 35.5t10.5 43zM351 0h-187l287 700h187zM279 687v-400
h-130v253l-51 -41l-68 93l116 95h133z" />
    <glyph glyph-name="threequarters" unicode="&#xbe;" horiz-adv-x="994" 
d="M736 167h50v69zM916 387v-220h48v-106h-48v-74h-130v74h-176v120l162 206h144zM438 0h-187l287 700h187zM252 506l106 46v136h-311v-115h189l-74 -36l24 -81q41 0 41 -24q0 -10 -8 -16t-20 -6q-26 0 -32 26l-137 -21q17 -63 64.5 -99t114.5 -36q68 0 113 34.5t45 86.5
q0 46 -32.5 75.5t-82.5 29.5z" />
    <glyph glyph-name="questiondown" unicode="&#xbf;" horiz-adv-x="551" 
d="M381 500.5q0 -47.5 -30.5 -79t-76.5 -31.5q-47 0 -79 32t-32 80q0 47 31 78t78 31t78 -31.5t31 -79zM40 111q0 -101 66.5 -166t168.5 -65q84 0 146 50t90 141l-158 57q-21 -78 -79 -78q-29 0 -46.5 17t-17.5 44q0 46 59 70l86 30l-52 144l-100 -37q-163 -60 -163 -207z
" />
    <glyph glyph-name="Agrave" unicode="&#xc0;" horiz-adv-x="804" 
d="M227 930l113 99l163 -158l-109 -94zM217 297h375v-158h-375v158zM223 0h-196l262 700h224l264 -700h-196l-177 526z" />
    <glyph glyph-name="Aacute" unicode="&#xc1;" horiz-adv-x="804" 
d="M567 930l-113 109l-153 -168l89 -94zM217 297h375v-158h-375v158zM223 0h-196l262 700h224l264 -700h-196l-177 526z" />
    <glyph glyph-name="Acircumflex" unicode="&#xc2;" horiz-adv-x="804" 
d="M383 989l-184 -122l61 -100l143 97l143 -97l61 100l-184 122h-40zM217 297h375v-158h-375v158zM223 0h-196l262 700h224l264 -700h-196l-177 526z" />
    <glyph glyph-name="Atilde" unicode="&#xc3;" horiz-adv-x="804" 
d="M325 951q-118 0 -134 -150l104 -18q9 59 41 59q15 0 40 -19q62 -46 107 -46q58 0 91 39.5t41 110.5l-104 18q-10 -56 -45 -56q-20 0 -42 18q-30 24 -52 34t-47 10zM217 297h375v-158h-375v158zM223 0h-196l262 700h224l264 -700h-196l-177 526z" />
    <glyph glyph-name="Adieresis" unicode="&#xc4;" horiz-adv-x="804" 
d="M433 876q0 42 28.5 70.5t70.5 28.5t70.5 -28.5t28.5 -70.5t-28.5 -70.5t-70.5 -28.5t-70.5 28.5t-28.5 70.5zM173 876q0 42 28.5 70.5t70.5 28.5t70.5 -28.5t28.5 -70.5t-28.5 -70.5t-70.5 -28.5t-70.5 28.5t-28.5 70.5zM217 297h375v-158h-375v158zM223 0h-196l262 700
h224l264 -700h-196l-177 526z" />
    <glyph glyph-name="Aring" unicode="&#xc5;" horiz-adv-x="804" 
d="M355 930q0 -21 14 -34.5t34 -13.5t34 13.5t14 34.5t-14 35t-34 14t-34 -14t-14 -35zM250 930.5q0 66.5 44.5 110t108.5 43.5t108.5 -43.5t44.5 -110t-44.5 -110t-108.5 -43.5t-108.5 43.5t-44.5 110zM217 297h375v-158h-375v158zM223 0h-196l262 700h224l264 -700h-196
l-177 526z" />
    <glyph glyph-name="AE" unicode="&#xc6;" horiz-adv-x="1051" 
d="M681 435h316v-168h-316v-99h340v-168h-510v700h510v-168h-340v-97zM261 324h275v-168h-275v168zM211 0h-188l361 700h127v-174h-23z" />
    <glyph glyph-name="Ccedilla" unicode="&#xc7;" horiz-adv-x="778" 
d="M441 -80q32 40 79 39q47 1 80 -42t33 -104q0 -73 -48 -118.5t-125 -45.5q-66 0 -115 34t-67 92l127 45q5 -19 19 -30t34 -11q19 0 30.5 10t11.5 28q0 16 -8.5 26.5t-22.5 10.5q-16 0 -28 -13l-130 39v143h130v-103zM30 351q0 103 48 187.5t132 133t186 48.5
q114 0 206.5 -62.5t140.5 -170.5l-172 -60q-24 58 -71 90.5t-105 32.5q-83 0 -139 -57.5t-56 -141.5t56 -141.5t138 -57.5q61 0 109 35t72 97l173 -59q-46 -112 -140.5 -177.5t-211.5 -65.5q-102 0 -186 48.5t-132 133t-48 187.5z" />
    <glyph glyph-name="Egrave" unicode="&#xc8;" horiz-adv-x="595" 
d="M139 930l113 99l163 -158l-109 -94zM220 435h316v-168h-316v-99h340v-168h-510v700h510v-168h-340v-97z" />
    <glyph glyph-name="Eacute" unicode="&#xc9;" horiz-adv-x="595" 
d="M479 930l-113 109l-153 -168l89 -94zM220 435h316v-168h-316v-99h340v-168h-510v700h510v-168h-340v-97z" />
    <glyph glyph-name="Ecircumflex" unicode="&#xca;" horiz-adv-x="595" 
d="M295 989l-184 -122l61 -100l143 97l143 -97l61 100l-184 122h-40zM220 435h316v-168h-316v-99h340v-168h-510v700h510v-168h-340v-97z" />
    <glyph glyph-name="Edieresis" unicode="&#xcb;" horiz-adv-x="595" 
d="M345 876q0 42 28.5 70.5t70.5 28.5t70.5 -28.5t28.5 -70.5t-28.5 -70.5t-70.5 -28.5t-70.5 28.5t-28.5 70.5zM85 876q0 42 28.5 70.5t70.5 28.5t70.5 -28.5t28.5 -70.5t-28.5 -70.5t-70.5 -28.5t-70.5 28.5t-28.5 70.5zM220 435h316v-168h-316v-99h340v-168h-510v700h510
v-168h-340v-97z" />
    <glyph glyph-name="Igrave" unicode="&#xcc;" 
d="M-41 930l113 99l163 -158l-109 -94zM220 0h-170v700h170v-700z" />
    <glyph glyph-name="Iacute" unicode="&#xcd;" 
d="M299 930l-113 109l-153 -168l89 -94zM220 0h-170v700h170v-700z" />
    <glyph glyph-name="Icircumflex" unicode="&#xce;" 
d="M115 989l-184 -122l61 -100l143 97l143 -97l61 100l-184 122h-40zM220 0h-170v700h170v-700z" />
    <glyph glyph-name="Idieresis" unicode="&#xcf;" 
d="M165 876q0 42 28.5 70.5t70.5 28.5t70.5 -28.5t28.5 -70.5t-28.5 -70.5t-70.5 -28.5t-70.5 28.5t-28.5 70.5zM-95 876q0 42 28.5 70.5t70.5 28.5t70.5 -28.5t28.5 -70.5t-28.5 -70.5t-70.5 -28.5t-70.5 28.5t-28.5 70.5zM220 0h-170v700h170v-700z" />
    <glyph glyph-name="Eth" unicode="&#xd0;" horiz-adv-x="718" 
d="M352 432v-147h-352v147h352zM349 0h-289v700h289q142 0 240.5 -98.5t98.5 -250.5t-98.5 -251.5t-240.5 -99.5zM339 535h-109v-370h109q75 0 127 52.5t52 133.5t-52 132.5t-127 51.5z" />
    <glyph glyph-name="Ntilde" unicode="&#xd1;" horiz-adv-x="700" 
d="M277 951q-118 0 -134 -150l104 -18q9 59 41 59q15 0 40 -19q62 -46 107 -46q58 0 91 39.5t41 110.5l-104 18q-10 -56 -45 -56q-20 0 -42 18q-30 24 -52 34t-47 10zM50 0v700h193l237 -427v427h170v-700h-193l-237 427v-427h-170z" />
    <glyph glyph-name="Ograve" unicode="&#xd2;" horiz-adv-x="788" 
d="M218 930l113 99l163 -158l-109 -94zM200 353q0 -88 56 -144.5t138 -56.5t138 56.5t56 144.5q0 86 -56.5 141.5t-137.5 55.5t-137.5 -55.5t-56.5 -141.5zM30 353q0 160 105.5 263.5t258.5 103.5t258.5 -103.5t105.5 -263.5q0 -161 -105.5 -266t-258.5 -105t-258.5 105
t-105.5 266z" />
    <glyph glyph-name="Oacute" unicode="&#xd3;" horiz-adv-x="788" 
d="M558 930l-113 109l-153 -168l89 -94zM200 353q0 -88 56 -144.5t138 -56.5t138 56.5t56 144.5q0 86 -56.5 141.5t-137.5 55.5t-137.5 -55.5t-56.5 -141.5zM30 353q0 160 105.5 263.5t258.5 103.5t258.5 -103.5t105.5 -263.5q0 -161 -105.5 -266t-258.5 -105t-258.5 105
t-105.5 266z" />
    <glyph glyph-name="Ocircumflex" unicode="&#xd4;" horiz-adv-x="788" 
d="M374 989l-184 -122l61 -100l143 97l143 -97l61 100l-184 122h-40zM200 353q0 -88 56 -144.5t138 -56.5t138 56.5t56 144.5q0 86 -56.5 141.5t-137.5 55.5t-137.5 -55.5t-56.5 -141.5zM30 353q0 160 105.5 263.5t258.5 103.5t258.5 -103.5t105.5 -263.5
q0 -161 -105.5 -266t-258.5 -105t-258.5 105t-105.5 266z" />
    <glyph glyph-name="Otilde" unicode="&#xd5;" horiz-adv-x="788" 
d="M316 951q-118 0 -134 -150l104 -18q9 59 41 59q15 0 40 -19q62 -46 107 -46q58 0 91 39.5t41 110.5l-104 18q-10 -56 -45 -56q-20 0 -42 18q-30 24 -52 34t-47 10zM200 353q0 -88 56 -144.5t138 -56.5t138 56.5t56 144.5q0 86 -56.5 141.5t-137.5 55.5t-137.5 -55.5
t-56.5 -141.5zM30 353q0 160 105.5 263.5t258.5 103.5t258.5 -103.5t105.5 -263.5q0 -161 -105.5 -266t-258.5 -105t-258.5 105t-105.5 266z" />
    <glyph glyph-name="Odieresis" unicode="&#xd6;" horiz-adv-x="788" 
d="M424 876q0 42 28.5 70.5t70.5 28.5t70.5 -28.5t28.5 -70.5t-28.5 -70.5t-70.5 -28.5t-70.5 28.5t-28.5 70.5zM164 876q0 42 28.5 70.5t70.5 28.5t70.5 -28.5t28.5 -70.5t-28.5 -70.5t-70.5 -28.5t-70.5 28.5t-28.5 70.5zM200 353q0 -88 56 -144.5t138 -56.5t138 56.5
t56 144.5q0 86 -56.5 141.5t-137.5 55.5t-137.5 -55.5t-56.5 -141.5zM30 353q0 160 105.5 263.5t258.5 103.5t258.5 -103.5t105.5 -263.5q0 -161 -105.5 -266t-258.5 -105t-258.5 105t-105.5 266z" />
    <glyph glyph-name="multiply" unicode="&#xd7;" horiz-adv-x="452" 
d="M32 357l104 104l90 -93l90 93l104 -104l-92 -91l92 -90l-104 -104l-90 93l-90 -93l-104 104l92 90z" />
    <glyph glyph-name="Oslash" unicode="&#xd8;" horiz-adv-x="788" 
d="M780 601l-637 -637l-135 135l637 637zM200 353q0 -88 56 -144.5t138 -56.5t138 56.5t56 144.5q0 86 -56.5 141.5t-137.5 55.5t-137.5 -55.5t-56.5 -141.5zM30 353q0 160 105.5 263.5t258.5 103.5t258.5 -103.5t105.5 -263.5q0 -161 -105.5 -266t-258.5 -105t-258.5 105
t-105.5 266z" />
    <glyph glyph-name="Ugrave" unicode="&#xd9;" horiz-adv-x="690" 
d="M169 930l113 99l163 -158l-109 -94zM345 -11q-125 0 -210 84.5t-85 213.5v413h170v-403q0 -65 35 -101.5t90 -36.5t90 36.5t35 101.5v403h170v-413q0 -129 -85 -213.5t-210 -84.5z" />
    <glyph glyph-name="Uacute" unicode="&#xda;" horiz-adv-x="690" 
d="M509 930l-113 109l-153 -168l89 -94zM345 -11q-125 0 -210 84.5t-85 213.5v413h170v-403q0 -65 35 -101.5t90 -36.5t90 36.5t35 101.5v403h170v-413q0 -129 -85 -213.5t-210 -84.5z" />
    <glyph glyph-name="Ucircumflex" unicode="&#xdb;" horiz-adv-x="690" 
d="M325 989l-184 -122l61 -100l143 97l143 -97l61 100l-184 122h-40zM345 -11q-125 0 -210 84.5t-85 213.5v413h170v-403q0 -65 35 -101.5t90 -36.5t90 36.5t35 101.5v403h170v-413q0 -129 -85 -213.5t-210 -84.5z" />
    <glyph glyph-name="Udieresis" unicode="&#xdc;" horiz-adv-x="690" 
d="M375 876q0 42 28.5 70.5t70.5 28.5t70.5 -28.5t28.5 -70.5t-28.5 -70.5t-70.5 -28.5t-70.5 28.5t-28.5 70.5zM115 876q0 42 28.5 70.5t70.5 28.5t70.5 -28.5t28.5 -70.5t-28.5 -70.5t-70.5 -28.5t-70.5 28.5t-28.5 70.5zM345 -11q-125 0 -210 84.5t-85 213.5v413h170
v-403q0 -65 35 -101.5t90 -36.5t90 36.5t35 101.5v403h170v-413q0 -129 -85 -213.5t-210 -84.5z" />
    <glyph glyph-name="Yacute" unicode="&#xdd;" horiz-adv-x="698" 
d="M520 930l-113 109l-153 -168l89 -94zM274 0h170v220l231 480h-199l-117 -272l-136 272h-200l251 -480v-220z" />
    <glyph glyph-name="Thorn" unicode="&#xde;" horiz-adv-x="648" 
d="M220 442v-172h129q42 0 70.5 25.5t28.5 62.5q0 36 -28 60t-71 24h-129zM220 102v-102h-170v700h170v-90h139q111 0 185 -72t74 -180q0 -107 -78 -181.5t-191 -74.5h-129z" />
    <glyph glyph-name="germandbls" unicode="&#xdf;" horiz-adv-x="691" 
d="M517 392q62 -14 103 -72.5t41 -132.5q0 -86 -61 -142t-155 -56q-75 0 -130 41t-75 112l158 55q8 -38 46 -38q21 0 34 18t13 47q0 37 -27 60t-70 23h-78v166h78q24 0 39.5 17t15.5 44q0 26 -23 42t-60 16q-68 0 -107 -44.5t-39 -122.5v-425h-170v435q0 143 90.5 234
t232.5 91q110 0 178 -57.5t68 -151.5q0 -114 -102 -159z" />
    <glyph glyph-name="agrave" unicode="&#xe0;" horiz-adv-x="537" 
d="M77 721l113 99l163 -158l-109 -94zM317 193l-83 -11q-34 -5 -34 -24q0 -23 37 -23q35 0 57.5 15.5t22.5 39.5h35q0 -88 -48.5 -144.5t-123.5 -56.5q-65 0 -107.5 43t-42.5 109t43 108t121 52l123 16v2q0 17 -18.5 28.5t-44.5 11.5q-23 0 -39.5 -11.5t-21.5 -30.5l-167 53
q21 63 83 102t140 39q97 0 167.5 -56t70.5 -132v-323h-170v193z" />
    <glyph glyph-name="aacute" unicode="&#xe1;" horiz-adv-x="537" 
d="M417 721l-113 109l-153 -168l89 -94zM317 193l-83 -11q-34 -5 -34 -24q0 -23 37 -23q35 0 57.5 15.5t22.5 39.5h35q0 -88 -48.5 -144.5t-123.5 -56.5q-65 0 -107.5 43t-42.5 109t43 108t121 52l123 16v2q0 17 -18.5 28.5t-44.5 11.5q-23 0 -39.5 -11.5t-21.5 -30.5
l-167 53q21 63 83 102t140 39q97 0 167.5 -56t70.5 -132v-323h-170v193z" />
    <glyph glyph-name="acircumflex" unicode="&#xe2;" horiz-adv-x="537" 
d="M233 780l-184 -122l61 -100l143 97l143 -97l61 100l-184 122h-40zM317 193l-83 -11q-34 -5 -34 -24q0 -23 37 -23q35 0 57.5 15.5t22.5 39.5h35q0 -88 -48.5 -144.5t-123.5 -56.5q-65 0 -107.5 43t-42.5 109t43 108t121 52l123 16v2q0 17 -18.5 28.5t-44.5 11.5
q-23 0 -39.5 -11.5t-21.5 -30.5l-167 53q21 63 83 102t140 39q97 0 167.5 -56t70.5 -132v-323h-170v193z" />
    <glyph glyph-name="atilde" unicode="&#xe3;" horiz-adv-x="537" 
d="M175 742q-118 0 -134 -150l104 -18q9 59 41 59q15 0 40 -19q62 -46 107 -46q58 0 91 39.5t41 110.5l-104 18q-10 -56 -45 -56q-20 0 -42 18q-30 24 -52 34t-47 10zM317 193l-83 -11q-34 -5 -34 -24q0 -23 37 -23q35 0 57.5 15.5t22.5 39.5h35q0 -88 -48.5 -144.5
t-123.5 -56.5q-65 0 -107.5 43t-42.5 109t43 108t121 52l123 16v2q0 17 -18.5 28.5t-44.5 11.5q-23 0 -39.5 -11.5t-21.5 -30.5l-167 53q21 63 83 102t140 39q97 0 167.5 -56t70.5 -132v-323h-170v193z" />
    <glyph glyph-name="adieresis" unicode="&#xe4;" horiz-adv-x="537" 
d="M283 667q0 42 28.5 70.5t70.5 28.5t70.5 -28.5t28.5 -70.5t-28.5 -70.5t-70.5 -28.5t-70.5 28.5t-28.5 70.5zM23 667q0 42 28.5 70.5t70.5 28.5t70.5 -28.5t28.5 -70.5t-28.5 -70.5t-70.5 -28.5t-70.5 28.5t-28.5 70.5zM317 193l-83 -11q-34 -5 -34 -24q0 -23 37 -23
q35 0 57.5 15.5t22.5 39.5h35q0 -88 -48.5 -144.5t-123.5 -56.5q-65 0 -107.5 43t-42.5 109t43 108t121 52l123 16v2q0 17 -18.5 28.5t-44.5 11.5q-23 0 -39.5 -11.5t-21.5 -30.5l-167 53q21 63 83 102t140 39q97 0 167.5 -56t70.5 -132v-323h-170v193z" />
    <glyph glyph-name="aring" unicode="&#xe5;" horiz-adv-x="537" 
d="M205 721q0 -21 14 -34.5t34 -13.5t34 13.5t14 34.5t-14 35t-34 14t-34 -14t-14 -35zM100 721.5q0 66.5 44.5 110t108.5 43.5t108.5 -43.5t44.5 -110t-44.5 -110t-108.5 -43.5t-108.5 43.5t-44.5 110zM317 193l-83 -11q-34 -5 -34 -24q0 -23 37 -23q35 0 57.5 15.5
t22.5 39.5h35q0 -88 -48.5 -144.5t-123.5 -56.5q-65 0 -107.5 43t-42.5 109t43 108t121 52l123 16v2q0 17 -18.5 28.5t-44.5 11.5q-23 0 -39.5 -11.5t-21.5 -30.5l-167 53q21 63 83 102t140 39q97 0 167.5 -56t70.5 -132v-323h-170v193z" />
    <glyph glyph-name="ae" unicode="&#xe6;" horiz-adv-x="889" 
d="M317 193l-83 -11q-34 -5 -34 -25q0 -22 39 -22q34 0 56 15.5t22 39.5v3zM508 186q11 -23 34 -36t53 -13q25 0 46.5 8.5t31.5 23.5l156 -59q-32 -58 -94.5 -93t-134.5 -35q-109 0 -181 77t-72 194q0 115 70 191t178 76q110 0 187 -80.5t77 -195.5q0 -24 -6 -58h-345z
M685 317q-10 22 -35 35t-56 13q-62 0 -86 -48h177zM209 -11q-79 0 -129 44t-50 113q0 63 43.5 104t120.5 51l123 16v5q0 15 -18 26t-43 11q-24 0 -41 -11.5t-22 -30.5l-167 53q20 62 77 101.5t126 39.5q82 0 140 -55t58 -133v-104q0 -101 -61.5 -165.5t-156.5 -64.5z" />
    <glyph glyph-name="ccedilla" unicode="&#xe7;" horiz-adv-x="594" 
d="M346 -80q32 40 79 39q47 1 80 -42t33 -104q0 -73 -48 -118.5t-125 -45.5q-66 0 -115 34t-67 92l127 45q5 -19 19 -30t34 -11q19 0 30.5 10t11.5 28q0 16 -8.5 26.5t-22.5 10.5q-16 0 -28 -13l-130 39v143h130v-103zM200 251q0 -48 30 -78.5t74 -30.5q72 0 102 62l156 -74
q-35 -68 -104 -108t-154 -40q-114 0 -194 76t-80 193t80 193t194 76q86 0 155.5 -41t104.5 -112l-156 -74q-13 31 -41 49t-63 18q-44 0 -74 -30.5t-30 -78.5z" />
    <glyph glyph-name="egrave" unicode="&#xe8;" horiz-adv-x="592" 
d="M107 721l113 99l163 -158l-109 -94zM388 317q-11 22 -35.5 35t-55.5 13q-63 0 -86 -48h177zM211 186q23 -49 87 -49q56 0 78 32l156 -59q-32 -59 -95 -93.5t-138 -34.5q-115 0 -192 77t-77 193q0 115 74.5 191.5t186.5 76.5q113 0 192 -79t79 -193q0 -28 -6 -62h-345z
" />
    <glyph glyph-name="eacute" unicode="&#xe9;" horiz-adv-x="592" 
d="M447 721l-113 109l-153 -168l89 -94zM388 317q-11 22 -35.5 35t-55.5 13q-63 0 -86 -48h177zM211 186q23 -49 87 -49q56 0 78 32l156 -59q-32 -59 -95 -93.5t-138 -34.5q-115 0 -192 77t-77 193q0 115 74.5 191.5t186.5 76.5q113 0 192 -79t79 -193q0 -28 -6 -62h-345z
" />
    <glyph glyph-name="ecircumflex" unicode="&#xea;" horiz-adv-x="592" 
d="M263 780l-184 -122l61 -100l143 97l143 -97l61 100l-184 122h-40zM388 317q-11 22 -35.5 35t-55.5 13q-63 0 -86 -48h177zM211 186q23 -49 87 -49q56 0 78 32l156 -59q-32 -59 -95 -93.5t-138 -34.5q-115 0 -192 77t-77 193q0 115 74.5 191.5t186.5 76.5q113 0 192 -79
t79 -193q0 -28 -6 -62h-345z" />
    <glyph glyph-name="edieresis" unicode="&#xeb;" horiz-adv-x="592" 
d="M313 667q0 42 28.5 70.5t70.5 28.5t70.5 -28.5t28.5 -70.5t-28.5 -70.5t-70.5 -28.5t-70.5 28.5t-28.5 70.5zM53 667q0 42 28.5 70.5t70.5 28.5t70.5 -28.5t28.5 -70.5t-28.5 -70.5t-70.5 -28.5t-70.5 28.5t-28.5 70.5zM388 317q-11 22 -35.5 35t-55.5 13q-63 0 -86 -48
h177zM211 186q23 -49 87 -49q56 0 78 32l156 -59q-32 -59 -95 -93.5t-138 -34.5q-115 0 -192 77t-77 193q0 115 74.5 191.5t186.5 76.5q113 0 192 -79t79 -193q0 -28 -6 -62h-345z" />
    <glyph glyph-name="igrave" unicode="&#xec;" 
d="M-41 721l113 99l163 -158l-109 -94zM50 0v500h170v-500h-170z" />
    <glyph glyph-name="iacute" unicode="&#xed;" 
d="M299 721l-113 109l-153 -168l89 -94zM50 0v500h170v-500h-170z" />
    <glyph glyph-name="icircumflex" unicode="&#xee;" 
d="M115 780l-184 -122l61 -100l143 97l143 -97l61 100l-184 122h-40zM50 0v500h170v-500h-170z" />
    <glyph glyph-name="idieresis" unicode="&#xef;" 
d="M165 667q0 42 28.5 70.5t70.5 28.5t70.5 -28.5t28.5 -70.5t-28.5 -70.5t-70.5 -28.5t-70.5 28.5t-28.5 70.5zM-95 667q0 42 28.5 70.5t70.5 28.5t70.5 -28.5t28.5 -70.5t-28.5 -70.5t-70.5 -28.5t-70.5 28.5t-28.5 70.5zM50 0v500h170v-500h-170z" />
    <glyph glyph-name="eth" unicode="&#xf0;" horiz-adv-x="610" 
d="M492 766l-267 -227l73 -82l266 222zM400 226q0 -30 -31.5 -52t-74.5 -22q-41 0 -67.5 19.5t-26.5 49.5q0 31 28 50t71 19q44 0 72.5 -18t28.5 -46zM196 606q199 -35 214 -217q-21 24 -63.5 37.5t-93.5 13.5q-93 0 -158 -65.5t-65 -159.5q0 -101 75.5 -167t191.5 -66
q78 0 142.5 35t98.5 97q42 76 42 200q0 196 -88.5 316t-244.5 136z" />
    <glyph glyph-name="ntilde" unicode="&#xf1;" horiz-adv-x="588" 
d="M215 742q-118 0 -134 -150l104 -18q9 59 41 59q15 0 40 -19q62 -46 107 -46q58 0 91 39.5t41 110.5l-104 18q-10 -56 -45 -56q-20 0 -42 18q-30 24 -52 34t-47 10zM50 0v500h170v-500h-170zM368 0v273q0 37 -20.5 57.5t-52.5 20.5q-31 0 -53 -23t-22 -55h-58
q0 103 54.5 170.5t136.5 67.5q81 0 133 -52.5t52 -145.5v-313h-170z" />
    <glyph glyph-name="ograve" unicode="&#xf2;" horiz-adv-x="618" 
d="M132 721l113 99l163 -158l-109 -94zM200 251q0 -48 31.5 -78.5t77.5 -30.5t77.5 30.5t31.5 78.5t-31.5 78.5t-77.5 30.5t-77.5 -30.5t-31.5 -78.5zM30 251q0 117 81 193t198 76t198 -76t81 -193t-81 -193t-198 -76t-198 76t-81 193z" />
    <glyph glyph-name="oacute" unicode="&#xf3;" horiz-adv-x="618" 
d="M472 721l-113 109l-153 -168l89 -94zM200 251q0 -48 31.5 -78.5t77.5 -30.5t77.5 30.5t31.5 78.5t-31.5 78.5t-77.5 30.5t-77.5 -30.5t-31.5 -78.5zM30 251q0 117 81 193t198 76t198 -76t81 -193t-81 -193t-198 -76t-198 76t-81 193z" />
    <glyph glyph-name="ocircumflex" unicode="&#xf4;" horiz-adv-x="618" 
d="M288 780l-184 -122l61 -100l143 97l143 -97l61 100l-184 122h-40zM200 251q0 -48 31.5 -78.5t77.5 -30.5t77.5 30.5t31.5 78.5t-31.5 78.5t-77.5 30.5t-77.5 -30.5t-31.5 -78.5zM30 251q0 117 81 193t198 76t198 -76t81 -193t-81 -193t-198 -76t-198 76t-81 193z" />
    <glyph glyph-name="otilde" unicode="&#xf5;" horiz-adv-x="618" 
d="M230 742q-118 0 -134 -150l104 -18q9 59 41 59q15 0 40 -19q62 -46 107 -46q58 0 91 39.5t41 110.5l-104 18q-10 -56 -45 -56q-20 0 -42 18q-30 24 -52 34t-47 10zM200 251q0 -48 31.5 -78.5t77.5 -30.5t77.5 30.5t31.5 78.5t-31.5 78.5t-77.5 30.5t-77.5 -30.5
t-31.5 -78.5zM30 251q0 117 81 193t198 76t198 -76t81 -193t-81 -193t-198 -76t-198 76t-81 193z" />
    <glyph glyph-name="odieresis" unicode="&#xf6;" horiz-adv-x="618" 
d="M338 667q0 42 28.5 70.5t70.5 28.5t70.5 -28.5t28.5 -70.5t-28.5 -70.5t-70.5 -28.5t-70.5 28.5t-28.5 70.5zM78 667q0 42 28.5 70.5t70.5 28.5t70.5 -28.5t28.5 -70.5t-28.5 -70.5t-70.5 -28.5t-70.5 28.5t-28.5 70.5zM200 251q0 -48 31.5 -78.5t77.5 -30.5t77.5 30.5
t31.5 78.5t-31.5 78.5t-77.5 30.5t-77.5 -30.5t-31.5 -78.5zM30 251q0 117 81 193t198 76t198 -76t81 -193t-81 -193t-198 -76t-198 76t-81 193z" />
    <glyph glyph-name="divide" unicode="&#xf7;" horiz-adv-x="452" 
d="M120 477q0 48 30 80t75 32q48 0 80.5 -32t32.5 -80q0 -47 -31 -78t-78 -31t-78 31t-31 78zM120 49q0 48 30 80t75 32q48 0 80.5 -32t32.5 -80q0 -47 -31 -78t-78 -31t-78 31t-31 78zM427 340v-147h-402v147h402z" />
    <glyph glyph-name="oslash" unicode="&#xf8;" horiz-adv-x="618" 
d="M519 537l75 -75l-495 -495l-75 75zM190 251q0 -52 34.5 -85.5t84.5 -33.5t84.5 33.5t34.5 85.5t-34.5 85.5t-84.5 33.5t-84.5 -33.5t-34.5 -85.5zM30 251q0 117 81 193t198 76t198 -76t81 -193t-81 -193t-198 -76t-198 76t-81 193z" />
    <glyph glyph-name="ugrave" unicode="&#xf9;" horiz-adv-x="568" 
d="M100 721l113 99l163 -158l-109 -94zM518 500v-500h-170v500h170zM220 500v-283q0 -32 17.5 -50t45.5 -18q27 0 46 17t19 41h58q0 -94 -51.5 -156t-129.5 -62q-76 0 -125.5 50t-49.5 138v323h170z" />
    <glyph glyph-name="uacute" unicode="&#xfa;" horiz-adv-x="568" 
d="M440 721l-113 109l-153 -168l89 -94zM518 500v-500h-170v500h170zM220 500v-283q0 -32 17.5 -50t45.5 -18q27 0 46 17t19 41h58q0 -94 -51.5 -156t-129.5 -62q-76 0 -125.5 50t-49.5 138v323h170z" />
    <glyph glyph-name="ucircumflex" unicode="&#xfb;" horiz-adv-x="568" 
d="M256 780l-184 -122l61 -100l143 97l143 -97l61 100l-184 122h-40zM518 500v-500h-170v500h170zM220 500v-283q0 -32 17.5 -50t45.5 -18q27 0 46 17t19 41h58q0 -94 -51.5 -156t-129.5 -62q-76 0 -125.5 50t-49.5 138v323h170z" />
    <glyph glyph-name="udieresis" unicode="&#xfc;" horiz-adv-x="568" 
d="M306 667q0 42 28.5 70.5t70.5 28.5t70.5 -28.5t28.5 -70.5t-28.5 -70.5t-70.5 -28.5t-70.5 28.5t-28.5 70.5zM46 667q0 42 28.5 70.5t70.5 28.5t70.5 -28.5t28.5 -70.5t-28.5 -70.5t-70.5 -28.5t-70.5 28.5t-28.5 70.5zM518 500v-500h-170v500h170zM220 500v-283
q0 -32 17.5 -50t45.5 -18q27 0 46 17t19 41h58q0 -94 -51.5 -156t-129.5 -62q-76 0 -125.5 50t-49.5 138v323h170z" />
    <glyph glyph-name="yacute" unicode="&#xfd;" horiz-adv-x="624" 
d="M475 721l-113 109l-153 -168l89 -94zM418 500l-106 -310l-106 310h-179l190 -490l-75 -210h179l276 700h-179z" />
    <glyph glyph-name="thorn" unicode="&#xfe;" horiz-adv-x="638" 
d="M50 -200v950h170v-950h-170zM220 251q0 -47 31 -78t78 -31t78 31t31 78t-31 78t-78 31t-78 -31t-31 -78zM167 251q0 115 62 192t155 77q95 0 159.5 -77.5t64.5 -191.5t-64.5 -191.5t-159.5 -77.5q-93 0 -155 77t-62 192z" />
    <glyph glyph-name="ydieresis" unicode="&#xff;" horiz-adv-x="624" 
d="M341 667q0 42 28.5 70.5t70.5 28.5t70.5 -28.5t28.5 -70.5t-28.5 -70.5t-70.5 -28.5t-70.5 28.5t-28.5 70.5zM81 667q0 42 28.5 70.5t70.5 28.5t70.5 -28.5t28.5 -70.5t-28.5 -70.5t-70.5 -28.5t-70.5 28.5t-28.5 70.5zM418 500l-106 -310l-106 310h-179l190 -490
l-75 -210h179l276 700h-179z" />
    <glyph glyph-name="Amacron" unicode="&#x100;" horiz-adv-x="804" 
d="M583 914v-127h-352v127h352zM217 297h375v-158h-375v158zM223 0h-196l262 700h224l264 -700h-196l-177 526z" />
    <glyph glyph-name="amacron" unicode="&#x101;" horiz-adv-x="537" 
d="M433 705v-127h-352v127h352zM317 193l-83 -11q-34 -5 -34 -24q0 -23 37 -23q35 0 57.5 15.5t22.5 39.5h35q0 -88 -48.5 -144.5t-123.5 -56.5q-65 0 -107.5 43t-42.5 109t43 108t121 52l123 16v2q0 17 -18.5 28.5t-44.5 11.5q-23 0 -39.5 -11.5t-21.5 -30.5l-167 53
q21 63 83 102t140 39q97 0 167.5 -56t70.5 -132v-323h-170v193z" />
    <glyph glyph-name="Abreve" unicode="&#x102;" horiz-adv-x="804" 
d="M402 778q-87 0 -148.5 56t-61.5 136h127q0 -33 24 -55t60 -22q37 0 63.5 22.5t26.5 54.5h127q0 -77 -65 -134.5t-153 -57.5zM217 297h375v-158h-375v158zM223 0h-196l262 700h224l264 -700h-196l-177 526z" />
    <glyph glyph-name="abreve" unicode="&#x103;" horiz-adv-x="537" 
d="M252 569q-87 0 -148.5 56t-61.5 136h127q0 -33 24 -55t60 -22q37 0 63.5 22.5t26.5 54.5h127q0 -77 -65 -134.5t-153 -57.5zM317 193l-83 -11q-34 -5 -34 -24q0 -23 37 -23q35 0 57.5 15.5t22.5 39.5h35q0 -88 -48.5 -144.5t-123.5 -56.5q-65 0 -107.5 43t-42.5 109
t43 108t121 52l123 16v2q0 17 -18.5 28.5t-44.5 11.5q-23 0 -39.5 -11.5t-21.5 -30.5l-167 53q21 63 83 102t140 39q97 0 167.5 -56t70.5 -132v-323h-170v193z" />
    <glyph glyph-name="Aogonek" unicode="&#x104;" horiz-adv-x="804" 
d="M619 -29v37h117v-63l-68 -48q-43 -28 -43 -61q0 -16 8.5 -26t22.5 -10q30 0 38 30l114 -19q-15 -59 -55 -93t-95 -34q-67 0 -110 37t-43 95q0 38 18.5 66.5t68.5 70.5zM217 297h375v-158h-375v158zM223 0h-196l262 700h224l264 -700h-196l-177 526z" />
    <glyph glyph-name="aogonek" unicode="&#x105;" horiz-adv-x="537" 
d="M345 -29v37h117v-63l-68 -48q-43 -28 -43 -61q0 -16 8.5 -26t22.5 -10q30 0 38 30l114 -19q-15 -59 -55 -93t-95 -34q-67 0 -110 37t-43 95q0 38 18.5 66.5t68.5 70.5zM317 193l-83 -11q-34 -5 -34 -24q0 -23 37 -23q35 0 57.5 15.5t22.5 39.5h35q0 -88 -48.5 -144.5
t-123.5 -56.5q-65 0 -107.5 43t-42.5 109t43 108t121 52l123 16v2q0 17 -18.5 28.5t-44.5 11.5q-23 0 -39.5 -11.5t-21.5 -30.5l-167 53q21 63 83 102t140 39q97 0 167.5 -56t70.5 -132v-323h-170v193z" />
    <glyph glyph-name="Cacute" unicode="&#x106;" horiz-adv-x="778" 
d="M558 930l-113 109l-153 -168l89 -94zM30 351q0 103 48 187.5t132 133t186 48.5q114 0 206.5 -62.5t140.5 -170.5l-172 -60q-24 58 -71 90.5t-105 32.5q-83 0 -139 -57.5t-56 -141.5t56 -141.5t138 -57.5q61 0 109 35t72 97l173 -59q-46 -112 -140.5 -177.5t-211.5 -65.5
q-102 0 -186 48.5t-132 133t-48 187.5z" />
    <glyph glyph-name="cacute" unicode="&#x107;" horiz-adv-x="594" 
d="M469 721l-113 109l-153 -168l89 -94zM200 251q0 -48 30 -78.5t74 -30.5q72 0 102 62l156 -74q-35 -68 -104 -108t-154 -40q-114 0 -194 76t-80 193t80 193t194 76q86 0 155.5 -41t104.5 -112l-156 -74q-13 31 -41 49t-63 18q-44 0 -74 -30.5t-30 -78.5z" />
    <glyph glyph-name="Ccircumflex" unicode="&#x108;" horiz-adv-x="778" 
d="M374 989l-184 -122l61 -100l143 97l143 -97l61 100l-184 122h-40zM30 351q0 103 48 187.5t132 133t186 48.5q114 0 206.5 -62.5t140.5 -170.5l-172 -60q-24 58 -71 90.5t-105 32.5q-83 0 -139 -57.5t-56 -141.5t56 -141.5t138 -57.5q61 0 109 35t72 97l173 -59
q-46 -112 -140.5 -177.5t-211.5 -65.5q-102 0 -186 48.5t-132 133t-48 187.5z" />
    <glyph glyph-name="ccircumflex" unicode="&#x109;" horiz-adv-x="594" 
d="M285 780l-184 -122l61 -100l143 97l143 -97l61 100l-184 122h-40zM200 251q0 -48 30 -78.5t74 -30.5q72 0 102 62l156 -74q-35 -68 -104 -108t-154 -40q-114 0 -194 76t-80 193t80 193t194 76q86 0 155.5 -41t104.5 -112l-156 -74q-13 31 -41 49t-63 18q-44 0 -74 -30.5
t-30 -78.5z" />
    <glyph glyph-name="Cdotaccent" unicode="&#x10a;" horiz-adv-x="778" 
d="M295 876q0 42 28.5 70.5t70.5 28.5t70.5 -28.5t28.5 -70.5t-28.5 -70.5t-70.5 -28.5t-70.5 28.5t-28.5 70.5zM30 351q0 103 48 187.5t132 133t186 48.5q114 0 206.5 -62.5t140.5 -170.5l-172 -60q-24 58 -71 90.5t-105 32.5q-83 0 -139 -57.5t-56 -141.5t56 -141.5
t138 -57.5q61 0 109 35t72 97l173 -59q-46 -112 -140.5 -177.5t-211.5 -65.5q-102 0 -186 48.5t-132 133t-48 187.5z" />
    <glyph glyph-name="cdotaccent" unicode="&#x10b;" horiz-adv-x="594" 
d="M206 667q0 42 28.5 70.5t70.5 28.5t70.5 -28.5t28.5 -70.5t-28.5 -70.5t-70.5 -28.5t-70.5 28.5t-28.5 70.5zM200 251q0 -48 30 -78.5t74 -30.5q72 0 102 62l156 -74q-35 -68 -104 -108t-154 -40q-114 0 -194 76t-80 193t80 193t194 76q86 0 155.5 -41t104.5 -112
l-156 -74q-13 31 -41 49t-63 18q-44 0 -74 -30.5t-30 -78.5z" />
    <glyph glyph-name="Ccaron" unicode="&#x10c;" horiz-adv-x="778" 
d="M414 767l184 122l-61 100l-143 -97l-143 97l-61 -100l184 -122h40zM30 351q0 103 48 187.5t132 133t186 48.5q114 0 206.5 -62.5t140.5 -170.5l-172 -60q-24 58 -71 90.5t-105 32.5q-83 0 -139 -57.5t-56 -141.5t56 -141.5t138 -57.5q61 0 109 35t72 97l173 -59
q-46 -112 -140.5 -177.5t-211.5 -65.5q-102 0 -186 48.5t-132 133t-48 187.5z" />
    <glyph glyph-name="ccaron" unicode="&#x10d;" horiz-adv-x="594" 
d="M325 558l184 122l-61 100l-143 -97l-143 97l-61 -100l184 -122h40zM200 251q0 -48 30 -78.5t74 -30.5q72 0 102 62l156 -74q-35 -68 -104 -108t-154 -40q-114 0 -194 76t-80 193t80 193t194 76q86 0 155.5 -41t104.5 -112l-156 -74q-13 31 -41 49t-63 18q-44 0 -74 -30.5
t-30 -78.5z" />
    <glyph glyph-name="Dcaron" unicode="&#x10e;" horiz-adv-x="708" 
d="M354 767l184 122l-61 100l-143 -97l-143 97l-61 -100l184 -122h40zM339 0h-289v700h289q142 0 240.5 -98.5t98.5 -250.5t-98.5 -251.5t-240.5 -99.5zM329 535h-109v-370h109q75 0 127 52.5t52 133.5t-52 132.5t-127 51.5z" />
    <glyph glyph-name="dcaron" unicode="&#x10f;" horiz-adv-x="864" 
d="M692 829l150 -43l-59 -251l-145 41zM588 0h-170v750h170v-750zM418 251q0 47 -31 78t-78 31t-78 -31t-31 -78t31 -78t78 -31t78 31t31 78zM471 251q0 -115 -62 -192t-155 -77q-95 0 -159.5 77.5t-64.5 191.5t64.5 191.5t159.5 77.5q93 0 155 -77t62 -192z" />
    <glyph glyph-name="Dcroat" unicode="&#x110;" horiz-adv-x="718" 
d="M352 432v-147h-352v147h352zM349 0h-289v700h289q142 0 240.5 -98.5t98.5 -250.5t-98.5 -251.5t-240.5 -99.5zM339 535h-109v-370h109q75 0 127 52.5t52 133.5t-52 132.5t-127 51.5z" />
    <glyph glyph-name="dcroat" unicode="&#x111;" horiz-adv-x="668" 
d="M471 251q0 -115 -62 -192t-155 -77q-95 0 -159.5 77.5t-64.5 191.5t64.5 191.5t159.5 77.5q93 0 155 -77t62 -192zM418 251q0 47 -31 78t-78 31t-78 -31t-31 -78t31 -78t78 -31t78 31t31 78zM588 0h-170v556h-182v147h182v47h170v-47h80v-147h-80v-556z" />
    <glyph glyph-name="Emacron" unicode="&#x112;" horiz-adv-x="595" 
d="M495 914v-127h-352v127h352zM220 435h316v-168h-316v-99h340v-168h-510v700h510v-168h-340v-97z" />
    <glyph glyph-name="emacron" unicode="&#x113;" horiz-adv-x="592" 
d="M463 705v-127h-352v127h352zM388 317q-11 22 -35.5 35t-55.5 13q-63 0 -86 -48h177zM211 186q23 -49 87 -49q56 0 78 32l156 -59q-32 -59 -95 -93.5t-138 -34.5q-115 0 -192 77t-77 193q0 115 74.5 191.5t186.5 76.5q113 0 192 -79t79 -193q0 -28 -6 -62h-345z" />
    <glyph glyph-name="Ebreve" unicode="&#x114;" horiz-adv-x="595" 
d="M314 778q-87 0 -148.5 56t-61.5 136h127q0 -33 24 -55t60 -22q37 0 63.5 22.5t26.5 54.5h127q0 -77 -65 -134.5t-153 -57.5zM220 435h316v-168h-316v-99h340v-168h-510v700h510v-168h-340v-97z" />
    <glyph glyph-name="ebreve" unicode="&#x115;" horiz-adv-x="592" 
d="M282 569q-87 0 -148.5 56t-61.5 136h127q0 -33 24 -55t60 -22q37 0 63.5 22.5t26.5 54.5h127q0 -77 -65 -134.5t-153 -57.5zM388 317q-11 22 -35.5 35t-55.5 13q-63 0 -86 -48h177zM211 186q23 -49 87 -49q56 0 78 32l156 -59q-32 -59 -95 -93.5t-138 -34.5
q-115 0 -192 77t-77 193q0 115 74.5 191.5t186.5 76.5q113 0 192 -79t79 -193q0 -28 -6 -62h-345z" />
    <glyph glyph-name="Edotaccent" unicode="&#x116;" horiz-adv-x="595" 
d="M216 876q0 42 28.5 70.5t70.5 28.5t70.5 -28.5t28.5 -70.5t-28.5 -70.5t-70.5 -28.5t-70.5 28.5t-28.5 70.5zM220 435h316v-168h-316v-99h340v-168h-510v700h510v-168h-340v-97z" />
    <glyph glyph-name="edotaccent" unicode="&#x117;" horiz-adv-x="592" 
d="M184 667q0 42 28.5 70.5t70.5 28.5t70.5 -28.5t28.5 -70.5t-28.5 -70.5t-70.5 -28.5t-70.5 28.5t-28.5 70.5zM388 317q-11 22 -35.5 35t-55.5 13q-63 0 -86 -48h177zM211 186q23 -49 87 -49q56 0 78 32l156 -59q-32 -59 -95 -93.5t-138 -34.5q-115 0 -192 77t-77 193
q0 115 74.5 191.5t186.5 76.5q113 0 192 -79t79 -193q0 -28 -6 -62h-345z" />
    <glyph glyph-name="Eogonek" unicode="&#x118;" horiz-adv-x="595" 
d="M441 -29v37h117v-63l-68 -48q-43 -28 -43 -61q0 -16 8.5 -26t22.5 -10q30 0 38 30l114 -19q-15 -59 -55 -93t-95 -34q-67 0 -110 37t-43 95q0 38 18.5 66.5t68.5 70.5zM220 435h316v-168h-316v-99h340v-168h-510v700h510v-168h-340v-97z" />
    <glyph glyph-name="eogonek" unicode="&#x119;" horiz-adv-x="592" 
d="M227 -29v37h117v-63l-68 -48q-43 -28 -43 -61q0 -16 8.5 -26t22.5 -10q30 0 38 30l114 -19q-15 -59 -55 -93t-95 -34q-67 0 -110 37t-43 95q0 38 18.5 66.5t68.5 70.5zM388 317q-11 22 -35.5 35t-55.5 13q-63 0 -86 -48h177zM211 186q23 -49 87 -49q56 0 78 32l156 -59
q-32 -59 -95 -93.5t-138 -34.5q-115 0 -192 77t-77 193q0 115 74.5 191.5t186.5 76.5q113 0 192 -79t79 -193q0 -28 -6 -62h-345z" />
    <glyph glyph-name="Ecaron" unicode="&#x11a;" horiz-adv-x="595" 
d="M335 767l184 122l-61 100l-143 -97l-143 97l-61 -100l184 -122h40zM220 435h316v-168h-316v-99h340v-168h-510v700h510v-168h-340v-97z" />
    <glyph glyph-name="ecaron" unicode="&#x11b;" horiz-adv-x="592" 
d="M303 558l184 122l-61 100l-143 -97l-143 97l-61 -100l184 -122h40zM388 317q-11 22 -35.5 35t-55.5 13q-63 0 -86 -48h177zM211 186q23 -49 87 -49q56 0 78 32l156 -59q-32 -59 -95 -93.5t-138 -34.5q-115 0 -192 77t-77 193q0 115 74.5 191.5t186.5 76.5q113 0 192 -79
t79 -193q0 -28 -6 -62h-345z" />
    <glyph glyph-name="Gcircumflex" unicode="&#x11c;" horiz-adv-x="788" 
d="M374 989l-184 -122l61 -100l143 97l143 -97l61 100l-184 122h-40zM200 351q0 -87 56.5 -143t137.5 -56q62 0 110 31t66 82h-224v152h408q4 -26 4 -80q0 -153 -105.5 -254t-258.5 -101t-258.5 104.5t-105.5 264.5t105.5 264.5t258.5 104.5q106 0 193.5 -52t131.5 -141
l-153 -80q-24 48 -70 75.5t-102 27.5q-81 0 -137.5 -56t-56.5 -143z" />
    <glyph glyph-name="gcircumflex" unicode="&#x11d;" horiz-adv-x="598" 
d="M268 780l-184 -122l61 -100l143 97l143 -97l61 100l-184 122h-40zM441 272q0 -104 -57 -173t-142 -69q-90 0 -151 70t-61 172t62 174t151 72q84 0 141 -71t57 -175zM378 269q0 34 -25.5 56.5t-63.5 22.5t-63.5 -22.5t-25.5 -56.5t25.5 -56.5t63.5 -22.5t63.5 22.5
t25.5 56.5zM378 20v480h170v-480q0 -114 -70 -181.5t-187 -67.5q-87 0 -155 36.5t-103 100.5l143 102q16 -30 44 -47t62 -17q41 0 68.5 21t27.5 53z" />
    <glyph glyph-name="Gbreve" unicode="&#x11e;" horiz-adv-x="788" 
d="M393 778q-87 0 -148.5 56t-61.5 136h127q0 -33 24 -55t60 -22q37 0 63.5 22.5t26.5 54.5h127q0 -77 -65 -134.5t-153 -57.5zM200 351q0 -87 56.5 -143t137.5 -56q62 0 110 31t66 82h-224v152h408q4 -26 4 -80q0 -153 -105.5 -254t-258.5 -101t-258.5 104.5t-105.5 264.5
t105.5 264.5t258.5 104.5q106 0 193.5 -52t131.5 -141l-153 -80q-24 48 -70 75.5t-102 27.5q-81 0 -137.5 -56t-56.5 -143z" />
    <glyph glyph-name="gbreve" unicode="&#x11f;" horiz-adv-x="598" 
d="M287 569q-87 0 -148.5 56t-61.5 136h127q0 -33 24 -55t60 -22q37 0 63.5 22.5t26.5 54.5h127q0 -77 -65 -134.5t-153 -57.5zM441 272q0 -104 -57 -173t-142 -69q-90 0 -151 70t-61 172t62 174t151 72q84 0 141 -71t57 -175zM378 269q0 34 -25.5 56.5t-63.5 22.5
t-63.5 -22.5t-25.5 -56.5t25.5 -56.5t63.5 -22.5t63.5 22.5t25.5 56.5zM378 20v480h170v-480q0 -114 -70 -181.5t-187 -67.5q-87 0 -155 36.5t-103 100.5l143 102q16 -30 44 -47t62 -17q41 0 68.5 21t27.5 53z" />
    <glyph glyph-name="Gdotaccent" unicode="&#x120;" horiz-adv-x="788" 
d="M295 876q0 42 28.5 70.5t70.5 28.5t70.5 -28.5t28.5 -70.5t-28.5 -70.5t-70.5 -28.5t-70.5 28.5t-28.5 70.5zM200 351q0 -87 56.5 -143t137.5 -56q62 0 110 31t66 82h-224v152h408q4 -26 4 -80q0 -153 -105.5 -254t-258.5 -101t-258.5 104.5t-105.5 264.5t105.5 264.5
t258.5 104.5q106 0 193.5 -52t131.5 -141l-153 -80q-24 48 -70 75.5t-102 27.5q-81 0 -137.5 -56t-56.5 -143z" />
    <glyph glyph-name="gdotaccent" unicode="&#x121;" horiz-adv-x="598" 
d="M189 667q0 42 28.5 70.5t70.5 28.5t70.5 -28.5t28.5 -70.5t-28.5 -70.5t-70.5 -28.5t-70.5 28.5t-28.5 70.5zM441 272q0 -104 -57 -173t-142 -69q-90 0 -151 70t-61 172t62 174t151 72q84 0 141 -71t57 -175zM378 269q0 34 -25.5 56.5t-63.5 22.5t-63.5 -22.5
t-25.5 -56.5t25.5 -56.5t63.5 -22.5t63.5 22.5t25.5 56.5zM378 20v480h170v-480q0 -114 -70 -181.5t-187 -67.5q-87 0 -155 36.5t-103 100.5l143 102q16 -30 44 -47t62 -17q41 0 68.5 21t27.5 53z" />
    <glyph glyph-name="uni0122" unicode="&#x122;" horiz-adv-x="788" 
d="M438 -296q0 -35 -24 -61.5t-62 -26.5t-64 25t-26 62q0 31 18 57l135 193l55 -42l-88 -124q25 -10 40.5 -33t15.5 -50zM200 351q0 -87 56.5 -143t137.5 -56q62 0 110 31t66 82h-224v152h408q4 -26 4 -80q0 -153 -105.5 -254t-258.5 -101t-258.5 104.5t-105.5 264.5
t105.5 264.5t258.5 104.5q106 0 193.5 -52t131.5 -141l-153 -80q-24 48 -70 75.5t-102 27.5q-81 0 -137.5 -56t-56.5 -143z" />
    <glyph glyph-name="uni0123" unicode="&#x123;" horiz-adv-x="598" 
d="M374 656q0 -35 -24 -61.5t-62 -26.5t-64 25t-26 62q0 31 18 57l135 193l55 -42l-88 -124q25 -10 40.5 -33t15.5 -50zM441 272q0 -104 -57 -173t-142 -69q-90 0 -151 70t-61 172t62 174t151 72q84 0 141 -71t57 -175zM378 269q0 34 -25.5 56.5t-63.5 22.5t-63.5 -22.5
t-25.5 -56.5t25.5 -56.5t63.5 -22.5t63.5 22.5t25.5 56.5zM378 20v480h170v-480q0 -114 -70 -181.5t-187 -67.5q-87 0 -155 36.5t-103 100.5l143 102q16 -30 44 -47t62 -17q41 0 68.5 21t27.5 53z" />
    <glyph glyph-name="Hcircumflex" unicode="&#x124;" horiz-adv-x="700" 
d="M331 989l-184 -122l61 -100l143 97l143 -97l61 100l-184 122h-40zM50 0v700h170v-265h260v265h170v-700h-170v267h-260v-267h-170z" />
    <glyph glyph-name="hcircumflex" unicode="&#x125;" horiz-adv-x="588" 
d="M114 1012l-184 -122l61 -100l143 97l143 -97l61 100l-184 122h-40zM50 0v750h170v-750h-170zM368 0v273q0 37 -20.5 57.5t-52.5 20.5q-31 0 -53 -23t-22 -55h-58q0 103 54.5 170.5t136.5 67.5q81 0 133 -52.5t52 -145.5v-313h-170z" />
    <glyph glyph-name="Hbar" unicode="&#x126;" horiz-adv-x="700" 
d="M700 630v-147h-50v-483h-170v257h-260v-257h-170v483h-50v147h50v70h170v-70h260v70h170v-70h50zM220 483v-58h260v58h-260z" />
    <glyph glyph-name="hbar" unicode="&#x127;" horiz-adv-x="598" 
d="M60 0v546h-60v147h60v57h170v-57h192v-147h-192v-546h-170zM378 0v273q0 37 -20.5 57.5t-52.5 20.5q-31 0 -53 -23t-22 -55h-58q0 103 54.5 170.5t136.5 67.5q81 0 133 -52.5t52 -145.5v-313h-170z" />
    <glyph glyph-name="Itilde" unicode="&#x128;" 
d="M57 951q-118 0 -134 -150l104 -18q9 59 41 59q15 0 40 -19q62 -46 107 -46q58 0 91 39.5t41 110.5l-104 18q-10 -56 -45 -56q-20 0 -42 18q-30 24 -52 34t-47 10zM220 0h-170v700h170v-700z" />
    <glyph glyph-name="itilde" unicode="&#x129;" 
d="M57 742q-118 0 -134 -150l104 -18q9 59 41 59q15 0 40 -19q62 -46 107 -46q58 0 91 39.5t41 110.5l-104 18q-10 -56 -45 -56q-20 0 -42 18q-30 24 -52 34t-47 10zM50 0v500h170v-500h-170z" />
    <glyph glyph-name="Imacron" unicode="&#x12a;" 
d="M315 914v-127h-352v127h352zM220 0h-170v700h170v-700z" />
    <glyph glyph-name="imacron" unicode="&#x12b;" 
d="M315 705v-127h-352v127h352zM50 0v500h170v-500h-170z" />
    <glyph glyph-name="Ibreve" unicode="&#x12c;" 
d="M134 778q-87 0 -148.5 56t-61.5 136h127q0 -33 24 -55t60 -22q37 0 63.5 22.5t26.5 54.5h127q0 -77 -65 -134.5t-153 -57.5zM220 0h-170v700h170v-700z" />
    <glyph glyph-name="ibreve" unicode="&#x12d;" 
d="M134 569q-87 0 -148.5 56t-61.5 136h127q0 -33 24 -55t60 -22q37 0 63.5 22.5t26.5 54.5h127q0 -77 -65 -134.5t-153 -57.5zM50 0v500h170v-500h-170z" />
    <glyph glyph-name="Iogonek" unicode="&#x12e;" 
d="M77 -29v37h117v-63l-68 -48q-43 -28 -43 -61q0 -16 8.5 -26t22.5 -10q30 0 38 30l114 -19q-15 -59 -55 -93t-95 -34q-67 0 -110 37t-43 95q0 38 18.5 66.5t68.5 70.5zM220 0h-170v700h170v-700z" />
    <glyph glyph-name="iogonek" unicode="&#x12f;" horiz-adv-x="262" 
d="M73 -29v37h117v-63l-68 -48q-43 -28 -43 -61q0 -16 8.5 -26t22.5 -10q30 0 38 30l114 -19q-15 -59 -55 -93t-95 -34q-67 0 -110 37t-43 95q0 38 18.5 66.5t68.5 70.5zM32 651q0 42 28.5 70.5t70.5 28.5t70.5 -28.5t28.5 -70.5t-28.5 -70.5t-70.5 -28.5t-70.5 28.5
t-28.5 70.5zM46 0v500h170v-500h-170z" />
    <glyph glyph-name="Idotaccent" unicode="&#x130;" 
d="M36 876q0 42 28.5 70.5t70.5 28.5t70.5 -28.5t28.5 -70.5t-28.5 -70.5t-70.5 -28.5t-70.5 28.5t-28.5 70.5zM220 0h-170v700h170v-700z" />
    <glyph glyph-name="dotlessi" unicode="&#x131;" 
d="M50 0v500h170v-500h-170z" />
    <glyph glyph-name="IJ" unicode="&#x132;" horiz-adv-x="934" 
d="M300 208l159 62q31 -111 130 -111q55 0 90 36.5t35 101.5v403h170v-413q0 -129 -85 -213.5t-210 -84.5q-106 0 -182 58t-107 161zM220 0h-170v700h170v-700z" />
    <glyph glyph-name="ij" unicode="&#x133;" horiz-adv-x="524" 
d="M294 651q0 42 28.5 70.5t70.5 28.5t70.5 -28.5t28.5 -70.5t-28.5 -70.5t-70.5 -28.5t-70.5 28.5t-28.5 70.5zM240 -62q32 0 50 24.5t18 62.5v475h170v-529q0 -82 -58 -141.5t-150 -59.5h-59v168h29zM32 651q0 42 28.5 70.5t70.5 28.5t70.5 -28.5t28.5 -70.5t-28.5 -70.5
t-70.5 -28.5t-70.5 28.5t-28.5 70.5zM46 0v500h170v-500h-170z" />
    <glyph glyph-name="Jcircumflex" unicode="&#x134;" horiz-adv-x="664" 
d="M506 989l-184 -122l61 -100l143 97l143 -97l61 100l-184 122h-40zM30 208l159 62q31 -111 130 -111q55 0 90 36.5t35 101.5v403h170v-413q0 -129 -85 -213.5t-210 -84.5q-106 0 -182 58t-107 161z" />
    <glyph glyph-name="jcircumflex" unicode="&#x135;" horiz-adv-x="262" 
d="M111 779l-184 -122l61 -100l143 97l143 -97l61 100l-184 122h-40zM-22 -62q32 0 50 24.5t18 62.5v475h170v-529q0 -82 -58 -141.5t-150 -59.5h-59v168h29z" />
    <glyph glyph-name="uni0136" unicode="&#x136;" horiz-adv-x="698" 
d="M348 -296q0 -35 -24 -61.5t-62 -26.5t-64 25t-26 62q0 31 18 57l135 193l55 -42l-88 -124q25 -10 40.5 -33t15.5 -50zM50 0v700h170v-265h27l209 265h217l-281 -350l281 -350h-217l-209 262h-27v-262h-170z" />
    <glyph glyph-name="uni0137" unicode="&#x137;" horiz-adv-x="612" 
d="M343 -296q0 -35 -24 -61.5t-62 -26.5t-64 25t-26 62q0 31 18 57l135 193l55 -42l-88 -124q25 -10 40.5 -33t15.5 -50zM50 0v750h170v-415h27l128 165h217l-200 -250l200 -250h-217l-128 162h-27v-162h-170z" />
    <glyph glyph-name="kgreenlandic" unicode="&#x138;" horiz-adv-x="612" 
d="M50 0v500h170v-165h27l128 165h217l-200 -250l200 -250h-217l-128 162h-27v-162h-170z" />
    <glyph glyph-name="Lacute" unicode="&#x139;" horiz-adv-x="585" 
d="M299 930l-113 109l-153 -168l89 -94zM220 168h340v-168h-510v700h170v-532z" />
    <glyph glyph-name="lacute" unicode="&#x13a;" 
d="M298 953l-113 109l-153 -168l89 -94zM50 0v750h170v-750h-170z" />
    <glyph glyph-name="uni013B" unicode="&#x13b;" horiz-adv-x="585" 
d="M348 -296q0 -35 -24 -61.5t-62 -26.5t-64 25t-26 62q0 31 18 57l135 193l55 -42l-88 -124q25 -10 40.5 -33t15.5 -50zM220 168h340v-168h-510v700h170v-532z" />
    <glyph glyph-name="uni013C" unicode="&#x13c;" 
d="M179 -296q0 -35 -24 -61.5t-62 -26.5t-64 25t-26 62q0 31 18 57l135 193l55 -42l-88 -124q25 -10 40.5 -33t15.5 -50zM50 0v750h170v-750h-170z" />
    <glyph glyph-name="Lcaron" unicode="&#x13d;" horiz-adv-x="585" 
d="M402 751l150 -43l-59 -251l-145 41zM220 168h340v-168h-510v700h170v-532z" />
    <glyph glyph-name="lcaron" unicode="&#x13e;" horiz-adv-x="462" 
d="M322 829l150 -43l-59 -251l-145 41zM50 0v750h170v-750h-170z" />
    <glyph glyph-name="Ldot" unicode="&#x13f;" horiz-adv-x="585" 
d="M316 359q0 48 30 80t75 32q48 0 80.5 -32t32.5 -80q0 -47 -31 -78t-78 -31t-78 31t-31 78zM220 168h340v-168h-510v700h170v-532z" />
    <glyph glyph-name="ldot" unicode="&#x140;" horiz-adv-x="548" 
d="M300 369q0 48 30 80t75 32q48 0 80.5 -32t32.5 -80q0 -47 -31 -78t-78 -31t-78 31t-31 78zM50 0v750h170v-750h-170z" />
    <glyph glyph-name="Lslash" unicode="&#x141;" horiz-adv-x="585" 
d="M344 483l28 -144l-353 -72l-27 144zM220 168h340v-168h-510v700h170v-532z" />
    <glyph glyph-name="lslash" unicode="&#x142;" horiz-adv-x="357" 
d="M328 485l28 -146l-327 -52l-28 146zM90 0v750h170v-750h-170z" />
    <glyph glyph-name="Nacute" unicode="&#x143;" horiz-adv-x="700" 
d="M519 930l-113 109l-153 -168l89 -94zM50 0v700h193l237 -427v427h170v-700h-193l-237 427v-427h-170z" />
    <glyph glyph-name="nacute" unicode="&#x144;" horiz-adv-x="588" 
d="M457 721l-113 109l-153 -168l89 -94zM50 0v500h170v-500h-170zM368 0v273q0 37 -20.5 57.5t-52.5 20.5q-31 0 -53 -23t-22 -55h-58q0 103 54.5 170.5t136.5 67.5q81 0 133 -52.5t52 -145.5v-313h-170z" />
    <glyph glyph-name="uni0145" unicode="&#x145;" horiz-adv-x="700" 
d="M408 -296q0 -35 -24 -61.5t-62 -26.5t-64 25t-26 62q0 31 18 57l135 193l55 -42l-88 -124q25 -10 40.5 -33t15.5 -50zM50 0v700h193l237 -427v427h170v-700h-193l-237 427v-427h-170z" />
    <glyph glyph-name="uni0146" unicode="&#x146;" horiz-adv-x="588" 
d="M348 -296q0 -35 -24 -61.5t-62 -26.5t-64 25t-26 62q0 31 18 57l135 193l55 -42l-88 -124q25 -10 40.5 -33t15.5 -50zM50 0v500h170v-500h-170zM368 0v273q0 37 -20.5 57.5t-52.5 20.5q-31 0 -53 -23t-22 -55h-58q0 103 54.5 170.5t136.5 67.5q81 0 133 -52.5t52 -145.5
v-313h-170z" />
    <glyph glyph-name="Ncaron" unicode="&#x147;" horiz-adv-x="700" 
d="M375 767l184 122l-61 100l-143 -97l-143 97l-61 -100l184 -122h40zM50 0v700h193l237 -427v427h170v-700h-193l-237 427v-427h-170z" />
    <glyph glyph-name="ncaron" unicode="&#x148;" horiz-adv-x="588" 
d="M313 558l184 122l-61 100l-143 -97l-143 97l-61 -100l184 -122h40zM50 0v500h170v-500h-170zM368 0v273q0 37 -20.5 57.5t-52.5 20.5q-31 0 -53 -23t-22 -55h-58q0 103 54.5 170.5t136.5 67.5q81 0 133 -52.5t52 -145.5v-313h-170z" />
    <glyph glyph-name="napostrophe" unicode="&#x149;" horiz-adv-x="818" 
d="M280 0v500h170v-500h-170zM598 0v273q0 37 -20.5 57.5t-52.5 20.5q-31 0 -53 -23t-22 -55h-58q0 103 54.5 170.5t136.5 67.5q81 0 133 -52.5t52 -145.5v-313h-170zM80 780l150 -43l-59 -251l-145 41z" />
    <glyph glyph-name="Eng" unicode="&#x14a;" horiz-adv-x="668" 
d="M50 0v700h170v-700h-170zM390 -9q28 0 43 19t15 48v365q0 55 -29.5 86.5t-75.5 31.5q-51 0 -87 -34.5t-36 -83.5h-58q0 116 70 202t171 86q91 0 153 -73t62 -185v-409q0 -90 -60.5 -155.5t-157.5 -65.5h-69v168h59z" />
    <glyph glyph-name="eng" unicode="&#x14b;" horiz-adv-x="588" 
d="M50 0v500h170v-500h-170zM368 30v243q0 35 -20.5 56.5t-54.5 21.5q-30 0 -51.5 -23t-21.5 -55h-58q0 98 56 168t135 70t132 -53.5t53 -134.5v-317q0 -81 -57 -136t-141 -55h-59v158h39q22 0 35 15.5t13 41.5z" />
    <glyph glyph-name="Omacron" unicode="&#x14c;" horiz-adv-x="788" 
d="M574 914v-127h-352v127h352zM200 353q0 -88 56 -144.5t138 -56.5t138 56.5t56 144.5q0 86 -56.5 141.5t-137.5 55.5t-137.5 -55.5t-56.5 -141.5zM30 353q0 160 105.5 263.5t258.5 103.5t258.5 -103.5t105.5 -263.5q0 -161 -105.5 -266t-258.5 -105t-258.5 105t-105.5 266
z" />
    <glyph glyph-name="omacron" unicode="&#x14d;" horiz-adv-x="618" 
d="M488 705v-127h-352v127h352zM200 251q0 -48 31.5 -78.5t77.5 -30.5t77.5 30.5t31.5 78.5t-31.5 78.5t-77.5 30.5t-77.5 -30.5t-31.5 -78.5zM30 251q0 117 81 193t198 76t198 -76t81 -193t-81 -193t-198 -76t-198 76t-81 193z" />
    <glyph glyph-name="Obreve" unicode="&#x14e;" horiz-adv-x="788" 
d="M393 778q-87 0 -148.5 56t-61.5 136h127q0 -33 24 -55t60 -22q37 0 63.5 22.5t26.5 54.5h127q0 -77 -65 -134.5t-153 -57.5zM200 353q0 -88 56 -144.5t138 -56.5t138 56.5t56 144.5q0 86 -56.5 141.5t-137.5 55.5t-137.5 -55.5t-56.5 -141.5zM30 353q0 160 105.5 263.5
t258.5 103.5t258.5 -103.5t105.5 -263.5q0 -161 -105.5 -266t-258.5 -105t-258.5 105t-105.5 266z" />
    <glyph glyph-name="obreve" unicode="&#x14f;" horiz-adv-x="618" 
d="M307 569q-87 0 -148.5 56t-61.5 136h127q0 -33 24 -55t60 -22q37 0 63.5 22.5t26.5 54.5h127q0 -77 -65 -134.5t-153 -57.5zM200 251q0 -48 31.5 -78.5t77.5 -30.5t77.5 30.5t31.5 78.5t-31.5 78.5t-77.5 30.5t-77.5 -30.5t-31.5 -78.5zM30 251q0 117 81 193t198 76
t198 -76t81 -193t-81 -193t-198 -76t-198 76t-81 193z" />
    <glyph glyph-name="Ohungarumlaut" unicode="&#x150;" horiz-adv-x="788" 
d="M651 910l-73 99l-170 -159l56 -73zM391 910l-73 99l-170 -159l56 -73zM200 353q0 -88 56 -144.5t138 -56.5t138 56.5t56 144.5q0 86 -56.5 141.5t-137.5 55.5t-137.5 -55.5t-56.5 -141.5zM30 353q0 160 105.5 263.5t258.5 103.5t258.5 -103.5t105.5 -263.5
q0 -161 -105.5 -266t-258.5 -105t-258.5 105t-105.5 266z" />
    <glyph glyph-name="ohungarumlaut" unicode="&#x151;" horiz-adv-x="618" 
d="M565 701l-73 99l-170 -159l56 -73zM305 701l-73 99l-170 -159l56 -73zM200 251q0 -48 31.5 -78.5t77.5 -30.5t77.5 30.5t31.5 78.5t-31.5 78.5t-77.5 30.5t-77.5 -30.5t-31.5 -78.5zM30 251q0 117 81 193t198 76t198 -76t81 -193t-81 -193t-198 -76t-198 76t-81 193z" />
    <glyph glyph-name="OE" unicode="&#x152;" horiz-adv-x="1168" 
d="M758 435h356v-168h-356v-99h380v-168h-550v700h550v-168h-380v-97zM200 353q0 -86 55.5 -143.5t138.5 -57.5t138.5 57.5t55.5 143.5q0 84 -55.5 140.5t-138.5 56.5t-138.5 -56.5t-55.5 -140.5zM30 353q0 157 98.5 262t245.5 105q143 0 238.5 -105t95.5 -262
q0 -158 -95.5 -264.5t-238.5 -106.5q-147 0 -245.5 106.5t-98.5 264.5z" />
    <glyph glyph-name="oe" unicode="&#x153;" horiz-adv-x="1002" 
d="M798 317q-11 22 -38.5 35t-62.5 13q-70 0 -96 -48h197zM601 186q26 -49 97 -49q29 0 52.5 8.5t35.5 23.5l156 -59q-33 -58 -96 -93t-135 -35q-109 0 -180 76.5t-71 194.5q0 115 69.5 191t175.5 76q112 0 189.5 -80.5t77.5 -196.5q0 -23 -6 -57h-365zM200 251
q0 -47 31 -78t78 -31t78 31t31 78t-31 78t-78 31t-78 -31t-31 -78zM30 251q0 114 76 191.5t187 77.5q110 0 182.5 -76.5t72.5 -192.5t-72.5 -192.5t-182.5 -76.5q-111 0 -187 77.5t-76 191.5z" />
    <glyph glyph-name="Racute" unicode="&#x154;" horiz-adv-x="648" 
d="M489 930l-113 109l-153 -168l89 -94zM349 532h-129v-132h129q38 0 63.5 19.5t25.5 47.5t-25.5 46.5t-63.5 18.5zM460 254l158 -254h-194l-145 234h-59v-234h-170v700h309q114 0 186.5 -64.5t72.5 -173.5q0 -77 -43.5 -134t-114.5 -74z" />
    <glyph glyph-name="racute" unicode="&#x155;" horiz-adv-x="400" 
d="M397 721l-113 109l-153 -168l89 -94zM50 0v500h170v-500h-170zM348 338q-53 0 -90.5 -27.5t-37.5 -67.5h-58q0 118 53 191.5t133 73.5h28v-170h-28z" />
    <glyph glyph-name="uni0156" unicode="&#x156;" horiz-adv-x="648" 
d="M358 -296q0 -35 -24 -61.5t-62 -26.5t-64 25t-26 62q0 31 18 57l135 193l55 -42l-88 -124q25 -10 40.5 -33t15.5 -50zM349 532h-129v-132h129q38 0 63.5 19.5t25.5 47.5t-25.5 46.5t-63.5 18.5zM460 254l158 -254h-194l-145 234h-59v-234h-170v700h309q114 0 186.5 -64.5
t72.5 -173.5q0 -77 -43.5 -134t-114.5 -74z" />
    <glyph glyph-name="uni0157" unicode="&#x157;" horiz-adv-x="400" 
d="M180 -296q0 -35 -24 -61.5t-62 -26.5t-64 25t-26 62q0 31 18 57l135 193l55 -42l-88 -124q25 -10 40.5 -33t15.5 -50zM50 0v500h170v-500h-170zM348 338q-53 0 -90.5 -27.5t-37.5 -67.5h-58q0 118 53 191.5t133 73.5h28v-170h-28z" />
    <glyph glyph-name="Rcaron" unicode="&#x158;" horiz-adv-x="648" 
d="M345 767l184 122l-61 100l-143 -97l-143 97l-61 -100l184 -122h40zM349 532h-129v-132h129q38 0 63.5 19.5t25.5 47.5t-25.5 46.5t-63.5 18.5zM460 254l158 -254h-194l-145 234h-59v-234h-170v700h309q114 0 186.5 -64.5t72.5 -173.5q0 -77 -43.5 -134t-114.5 -74z" />
    <glyph glyph-name="rcaron" unicode="&#x159;" horiz-adv-x="400" 
d="M253 558l184 122l-61 100l-143 -97l-143 97l-61 -100l184 -122h40zM50 0v500h170v-500h-170zM348 338q-53 0 -90.5 -27.5t-37.5 -67.5h-58q0 118 53 191.5t133 73.5h28v-170h-28z" />
    <glyph glyph-name="Sacute" unicode="&#x15a;" horiz-adv-x="594" 
d="M445 930l-113 109l-153 -168l89 -94zM280 266q-115 18 -179.5 78.5t-64.5 150.5q0 96 69 157t177 61q93 0 168 -47t108 -126l-166 -59q-14 33 -42.5 52t-62.5 19q-32 0 -52.5 -15.5t-20.5 -39.5q0 -23 23.5 -37t75.5 -22q117 -20 184 -83t67 -153q0 -94 -71.5 -153.5
t-183.5 -59.5q-93 0 -169 43.5t-110 116.5l166 79q15 -36 45 -57t66 -21q34 0 56 15.5t22 40.5q0 45 -105 60z" />
    <glyph glyph-name="sacute" unicode="&#x15b;" horiz-adv-x="494" 
d="M416 721l-113 109l-153 -168l89 -94zM237 174q-99 12 -149.5 54t-50.5 112q0 76 55 124.5t142 48.5q74 0 134.5 -36t87.5 -95l-166 -47q-7 15 -21.5 24.5t-31.5 9.5q-13 0 -21.5 -6t-8.5 -16q0 -23 64 -30q91 -9 142 -52t51 -111q0 -73 -56.5 -119t-145.5 -46
q-78 0 -141 36t-91 97l166 47q8 -21 25 -33.5t37 -12.5q15 0 25.5 7t10.5 18t-13 17t-44 9z" />
    <glyph glyph-name="Scircumflex" unicode="&#x15c;" horiz-adv-x="594" 
d="M261 989l-184 -122l61 -100l143 97l143 -97l61 100l-184 122h-40zM280 266q-115 18 -179.5 78.5t-64.5 150.5q0 96 69 157t177 61q93 0 168 -47t108 -126l-166 -59q-14 33 -42.5 52t-62.5 19q-32 0 -52.5 -15.5t-20.5 -39.5q0 -23 23.5 -37t75.5 -22q117 -20 184 -83
t67 -153q0 -94 -71.5 -153.5t-183.5 -59.5q-93 0 -169 43.5t-110 116.5l166 79q15 -36 45 -57t66 -21q34 0 56 15.5t22 40.5q0 45 -105 60z" />
    <glyph glyph-name="scircumflex" unicode="&#x15d;" horiz-adv-x="494" 
d="M232 780l-184 -122l61 -100l143 97l143 -97l61 100l-184 122h-40zM237 174q-99 12 -149.5 54t-50.5 112q0 76 55 124.5t142 48.5q74 0 134.5 -36t87.5 -95l-166 -47q-7 15 -21.5 24.5t-31.5 9.5q-13 0 -21.5 -6t-8.5 -16q0 -23 64 -30q91 -9 142 -52t51 -111
q0 -73 -56.5 -119t-145.5 -46q-78 0 -141 36t-91 97l166 47q8 -21 25 -33.5t37 -12.5q15 0 25.5 7t10.5 18t-13 17t-44 9z" />
    <glyph glyph-name="Scedilla" unicode="&#x15e;" horiz-adv-x="594" 
d="M356 -80q32 40 79 39q47 1 80 -42t33 -104q0 -73 -48 -118.5t-125 -45.5q-66 0 -115 34t-67 92l127 45q5 -19 19 -30t34 -11q19 0 30.5 10t11.5 28q0 16 -8.5 26.5t-22.5 10.5q-16 0 -28 -13l-130 39v143h130v-103zM280 266q-115 18 -179.5 78.5t-64.5 150.5q0 96 69 157
t177 61q93 0 168 -47t108 -126l-166 -59q-14 33 -42.5 52t-62.5 19q-32 0 -52.5 -15.5t-20.5 -39.5q0 -23 23.5 -37t75.5 -22q117 -20 184 -83t67 -153q0 -94 -71.5 -153.5t-183.5 -59.5q-93 0 -169 43.5t-110 116.5l166 79q15 -36 45 -57t66 -21q34 0 56 15.5t22 40.5
q0 45 -105 60z" />
    <glyph glyph-name="scedilla" unicode="&#x15f;" horiz-adv-x="494" 
d="M306 -80q32 40 79 39q47 1 80 -42t33 -104q0 -73 -48 -118.5t-125 -45.5q-66 0 -115 34t-67 92l127 45q5 -19 19 -30t34 -11q19 0 30.5 10t11.5 28q0 16 -8.5 26.5t-22.5 10.5q-16 0 -28 -13l-130 39v143h130v-103zM237 174q-99 12 -149.5 54t-50.5 112q0 76 55 124.5
t142 48.5q74 0 134.5 -36t87.5 -95l-166 -47q-7 15 -21.5 24.5t-31.5 9.5q-13 0 -21.5 -6t-8.5 -16q0 -23 64 -30q91 -9 142 -52t51 -111q0 -73 -56.5 -119t-145.5 -46q-78 0 -141 36t-91 97l166 47q8 -21 25 -33.5t37 -12.5q15 0 25.5 7t10.5 18t-13 17t-44 9z" />
    <glyph glyph-name="Scaron" unicode="&#x160;" horiz-adv-x="594" 
d="M301 767l184 122l-61 100l-143 -97l-143 97l-61 -100l184 -122h40zM280 266q-115 18 -179.5 78.5t-64.5 150.5q0 96 69 157t177 61q93 0 168 -47t108 -126l-166 -59q-14 33 -42.5 52t-62.5 19q-32 0 -52.5 -15.5t-20.5 -39.5q0 -23 23.5 -37t75.5 -22q117 -20 184 -83
t67 -153q0 -94 -71.5 -153.5t-183.5 -59.5q-93 0 -169 43.5t-110 116.5l166 79q15 -36 45 -57t66 -21q34 0 56 15.5t22 40.5q0 45 -105 60z" />
    <glyph glyph-name="scaron" unicode="&#x161;" horiz-adv-x="494" 
d="M272 558l184 122l-61 100l-143 -97l-143 97l-61 -100l184 -122h40zM237 174q-99 12 -149.5 54t-50.5 112q0 76 55 124.5t142 48.5q74 0 134.5 -36t87.5 -95l-166 -47q-7 15 -21.5 24.5t-31.5 9.5q-13 0 -21.5 -6t-8.5 -16q0 -23 64 -30q91 -9 142 -52t51 -111
q0 -73 -56.5 -119t-145.5 -46q-78 0 -141 36t-91 97l166 47q8 -21 25 -33.5t37 -12.5q15 0 25.5 7t10.5 18t-13 17t-44 9z" />
    <glyph glyph-name="uni0162" unicode="&#x162;" horiz-adv-x="616" 
d="M351 -80q32 40 79 39q47 1 80 -42t33 -104q0 -73 -48 -118.5t-125 -45.5q-66 0 -115 34t-67 92l127 45q5 -19 19 -30t34 -11q19 0 30.5 10t11.5 28q0 16 -8.5 26.5t-22.5 10.5q-16 0 -28 -13l-130 39v143h130v-103zM593 700v-168h-200v-532h-170v532h-200v168h570z" />
    <glyph glyph-name="uni0163" unicode="&#x163;" horiz-adv-x="442" 
d="M362 -80q32 40 79 39q47 1 80 -42t33 -104q0 -73 -48 -118.5t-125 -45.5q-66 0 -115 34t-67 92l127 45q5 -19 19 -30t34 -11q19 0 30.5 10t11.5 28q0 16 -8.5 26.5t-22.5 10.5q-16 0 -28 -13l-130 39v143h130v-103zM338 158h79v-158h-105q-94 0 -148 46.5t-54 128.5v168
h-85v157h85v134l170 36v-170h137v-157h-137v-128q0 -24 16 -40.5t42 -16.5z" />
    <glyph glyph-name="Tcaron" unicode="&#x164;" horiz-adv-x="616" 
d="M328 770l184 122l-61 100l-143 -97l-143 97l-61 -100l184 -122h40zM593 700v-168h-200v-532h-170v532h-200v168h570z" />
    <glyph glyph-name="tcaron" unicode="&#x165;" horiz-adv-x="442" 
d="M408 829l150 -43l-59 -251l-145 41zM338 158h79v-158h-105q-94 0 -148 46.5t-54 128.5v168h-85v157h85v134l170 36v-170h137v-157h-137v-128q0 -24 16 -40.5t42 -16.5z" />
    <glyph glyph-name="Tbar" unicode="&#x166;" horiz-adv-x="616" 
d="M512 380v-167h-412v167h412zM593 700v-168h-200v-532h-170v532h-200v168h570z" />
    <glyph glyph-name="tbar" unicode="&#x167;" horiz-adv-x="442" 
d="M417 330v-127h-387v127h387zM338 158h79v-158h-105q-94 0 -148 44t-54 121v198h-85v137h85v134l170 36v-170h137v-137h-137v-168q0 -16 16 -26.5t42 -10.5z" />
    <glyph glyph-name="Utilde" unicode="&#x168;" horiz-adv-x="690" 
d="M267 951q-118 0 -134 -150l104 -18q9 59 41 59q15 0 40 -19q62 -46 107 -46q58 0 91 39.5t41 110.5l-104 18q-10 -56 -45 -56q-20 0 -42 18q-30 24 -52 34t-47 10zM345 -11q-125 0 -210 84.5t-85 213.5v413h170v-403q0 -65 35 -101.5t90 -36.5t90 36.5t35 101.5v403h170
v-413q0 -129 -85 -213.5t-210 -84.5z" />
    <glyph glyph-name="utilde" unicode="&#x169;" horiz-adv-x="568" 
d="M198 742q-118 0 -134 -150l104 -18q9 59 41 59q15 0 40 -19q62 -46 107 -46q58 0 91 39.5t41 110.5l-104 18q-10 -56 -45 -56q-20 0 -42 18q-30 24 -52 34t-47 10zM518 500v-500h-170v500h170zM220 500v-283q0 -32 17.5 -50t45.5 -18q27 0 46 17t19 41h58
q0 -94 -51.5 -156t-129.5 -62q-76 0 -125.5 50t-49.5 138v323h170z" />
    <glyph glyph-name="Umacron" unicode="&#x16a;" horiz-adv-x="690" 
d="M525 914v-127h-352v127h352zM345 -11q-125 0 -210 84.5t-85 213.5v413h170v-403q0 -65 35 -101.5t90 -36.5t90 36.5t35 101.5v403h170v-413q0 -129 -85 -213.5t-210 -84.5z" />
    <glyph glyph-name="umacron" unicode="&#x16b;" horiz-adv-x="568" 
d="M456 705v-127h-352v127h352zM518 500v-500h-170v500h170zM220 500v-283q0 -32 17.5 -50t45.5 -18q27 0 46 17t19 41h58q0 -94 -51.5 -156t-129.5 -62q-76 0 -125.5 50t-49.5 138v323h170z" />
    <glyph glyph-name="Ubreve" unicode="&#x16c;" horiz-adv-x="690" 
d="M344 778q-87 0 -148.5 56t-61.5 136h127q0 -33 24 -55t60 -22q37 0 63.5 22.5t26.5 54.5h127q0 -77 -65 -134.5t-153 -57.5zM345 -11q-125 0 -210 84.5t-85 213.5v413h170v-403q0 -65 35 -101.5t90 -36.5t90 36.5t35 101.5v403h170v-413q0 -129 -85 -213.5t-210 -84.5z
" />
    <glyph glyph-name="ubreve" unicode="&#x16d;" horiz-adv-x="568" 
d="M275 569q-87 0 -148.5 56t-61.5 136h127q0 -33 24 -55t60 -22q37 0 63.5 22.5t26.5 54.5h127q0 -77 -65 -134.5t-153 -57.5zM518 500v-500h-170v500h170zM220 500v-283q0 -32 17.5 -50t45.5 -18q27 0 46 17t19 41h58q0 -94 -51.5 -156t-129.5 -62q-76 0 -125.5 50
t-49.5 138v323h170z" />
    <glyph glyph-name="Uring" unicode="&#x16e;" horiz-adv-x="690" 
d="M297 930q0 -21 14 -34.5t34 -13.5t34 13.5t14 34.5t-14 35t-34 14t-34 -14t-14 -35zM192 930.5q0 66.5 44.5 110t108.5 43.5t108.5 -43.5t44.5 -110t-44.5 -110t-108.5 -43.5t-108.5 43.5t-44.5 110zM345 -11q-125 0 -210 84.5t-85 213.5v413h170v-403q0 -65 35 -101.5
t90 -36.5t90 36.5t35 101.5v403h170v-413q0 -129 -85 -213.5t-210 -84.5z" />
    <glyph glyph-name="uring" unicode="&#x16f;" horiz-adv-x="568" 
d="M228 721q0 -21 14 -34.5t34 -13.5t34 13.5t14 34.5t-14 35t-34 14t-34 -14t-14 -35zM123 721.5q0 66.5 44.5 110t108.5 43.5t108.5 -43.5t44.5 -110t-44.5 -110t-108.5 -43.5t-108.5 43.5t-44.5 110zM518 500v-500h-170v500h170zM220 500v-283q0 -32 17.5 -50t45.5 -18
q27 0 46 17t19 41h58q0 -94 -51.5 -156t-129.5 -62q-76 0 -125.5 50t-49.5 138v323h170z" />
    <glyph glyph-name="Uhungarumlaut" unicode="&#x170;" horiz-adv-x="690" 
d="M602 910l-73 99l-170 -159l56 -73zM342 910l-73 99l-170 -159l56 -73zM345 -11q-125 0 -210 84.5t-85 213.5v413h170v-403q0 -65 35 -101.5t90 -36.5t90 36.5t35 101.5v403h170v-413q0 -129 -85 -213.5t-210 -84.5z" />
    <glyph glyph-name="uhungarumlaut" unicode="&#x171;" horiz-adv-x="568" 
d="M533 701l-73 99l-170 -159l56 -73zM273 701l-73 99l-170 -159l56 -73zM518 500v-500h-170v500h170zM220 500v-283q0 -32 17.5 -50t45.5 -18q27 0 46 17t19 41h58q0 -94 -51.5 -156t-129.5 -62q-76 0 -125.5 50t-49.5 138v323h170z" />
    <glyph glyph-name="Uogonek" unicode="&#x172;" horiz-adv-x="690" 
d="M286 -29v37h117v-63l-68 -48q-43 -28 -43 -61q0 -16 8.5 -26t22.5 -10q30 0 38 30l114 -19q-15 -59 -55 -93t-95 -34q-67 0 -110 37t-43 95q0 38 18.5 66.5t68.5 70.5zM345 -11q-125 0 -210 84.5t-85 213.5v413h170v-403q0 -65 35 -101.5t90 -36.5t90 36.5t35 101.5v403
h170v-413q0 -129 -85 -213.5t-210 -84.5z" />
    <glyph glyph-name="uogonek" unicode="&#x173;" horiz-adv-x="568" 
d="M387 -29v37h117v-63l-68 -48q-43 -28 -43 -61q0 -16 8.5 -26t22.5 -10q30 0 38 30l114 -19q-15 -59 -55 -93t-95 -34q-67 0 -110 37t-43 95q0 38 18.5 66.5t68.5 70.5zM518 500v-500h-170v500h170zM220 500v-283q0 -32 17.5 -50t45.5 -18q27 0 46 17t19 41h58
q0 -94 -51.5 -156t-129.5 -62q-76 0 -125.5 50t-49.5 138v323h170z" />
    <glyph glyph-name="Wcircumflex" unicode="&#x174;" horiz-adv-x="1053" 
d="M503 989l-184 -122l61 -100l143 97l143 -97l61 100l-184 122h-40zM840 700h186l-143 -700h-254l-102 457l-83 -457h-254l-163 700h186l111 -496l105 496h196l118 -496z" />
    <glyph glyph-name="wcircumflex" unicode="&#x175;" horiz-adv-x="938" 
d="M445 780l-184 -122l61 -100l143 97l143 -97l61 100l-184 122h-40zM735 500h176l-128 -500h-234l-80 287l-70 -287h-234l-138 500h176l86 -346l92 346h176l96 -346z" />
    <glyph glyph-name="Ycircumflex" unicode="&#x176;" horiz-adv-x="698" 
d="M336 989l-184 -122l61 -100l143 97l143 -97l61 100l-184 122h-40zM274 0h170v220l231 480h-199l-117 -272l-136 272h-200l251 -480v-220z" />
    <glyph glyph-name="ycircumflex" unicode="&#x177;" horiz-adv-x="624" 
d="M291 780l-184 -122l61 -100l143 97l143 -97l61 100l-184 122h-40zM418 500l-106 -310l-106 310h-179l190 -490l-75 -210h179l276 700h-179z" />
    <glyph glyph-name="Ydieresis" unicode="&#x178;" horiz-adv-x="698" 
d="M386 876q0 42 28.5 70.5t70.5 28.5t70.5 -28.5t28.5 -70.5t-28.5 -70.5t-70.5 -28.5t-70.5 28.5t-28.5 70.5zM126 876q0 42 28.5 70.5t70.5 28.5t70.5 -28.5t28.5 -70.5t-28.5 -70.5t-70.5 -28.5t-70.5 28.5t-28.5 70.5zM274 0h170v220l231 480h-199l-117 -272l-136 272
h-200l251 -480v-220z" />
    <glyph glyph-name="Zacute" unicode="&#x179;" horiz-adv-x="628" 
d="M479 930l-113 109l-153 -168l89 -94zM588 0v167h-345l345 336v197h-548v-167h345l-345 -330v-203h548z" />
    <glyph glyph-name="zacute" unicode="&#x17a;" horiz-adv-x="492" 
d="M416 721l-113 109l-153 -168l89 -94zM462 0v147h-239l239 181v172h-432v-147h209l-209 -181v-172h432z" />
    <glyph glyph-name="Zdotaccent" unicode="&#x17b;" horiz-adv-x="628" 
d="M216 876q0 42 28.5 70.5t70.5 28.5t70.5 -28.5t28.5 -70.5t-28.5 -70.5t-70.5 -28.5t-70.5 28.5t-28.5 70.5zM588 0v167h-345l345 336v197h-548v-167h345l-345 -330v-203h548z" />
    <glyph glyph-name="zdotaccent" unicode="&#x17c;" horiz-adv-x="492" 
d="M153 667q0 42 28.5 70.5t70.5 28.5t70.5 -28.5t28.5 -70.5t-28.5 -70.5t-70.5 -28.5t-70.5 28.5t-28.5 70.5zM462 0v147h-239l239 181v172h-432v-147h209l-209 -181v-172h432z" />
    <glyph glyph-name="Zcaron" unicode="&#x17d;" horiz-adv-x="628" 
d="M335 767l184 122l-61 100l-143 -97l-143 97l-61 -100l184 -122h40zM588 0v167h-345l345 336v197h-548v-167h345l-345 -330v-203h548z" />
    <glyph glyph-name="zcaron" unicode="&#x17e;" horiz-adv-x="492" 
d="M272 558l184 122l-61 100l-143 -97l-143 97l-61 -100l184 -122h40zM462 0v147h-239l239 181v172h-432v-147h209l-209 -181v-172h432z" />
    <glyph glyph-name="Ohorn" unicode="&#x1a0;" horiz-adv-x="812" 
d="M569 558v103h60q45 0 45 37q0 26 -28 48l89 73q57 -34 57 -110q0 -63 -37.5 -107t-89.5 -44h-96zM200 353q0 -88 56 -144.5t138 -56.5t138 56.5t56 144.5q0 86 -56.5 141.5t-137.5 55.5t-137.5 -55.5t-56.5 -141.5zM30 353q0 160 105.5 263.5t258.5 103.5t258.5 -103.5
t105.5 -263.5q0 -161 -105.5 -266t-258.5 -105t-258.5 105t-105.5 266z" />
    <glyph glyph-name="ohorn" unicode="&#x1a1;" horiz-adv-x="706" 
d="M468 350v103h60q45 0 45 37q0 26 -28 48l89 73q57 -34 57 -110q0 -63 -37.5 -107t-89.5 -44h-96zM200 251q0 -48 31.5 -78.5t77.5 -30.5t77.5 30.5t31.5 78.5t-31.5 78.5t-77.5 30.5t-77.5 -30.5t-31.5 -78.5zM30 251q0 117 81 193t198 76t198 -76t81 -193t-81 -193
t-198 -76t-198 76t-81 193z" />
    <glyph glyph-name="Uhorn" unicode="&#x1af;" horiz-adv-x="830" 
d="M589 558v103h60q45 0 45 37q0 26 -28 48l89 73q57 -34 57 -110q0 -63 -37.5 -107t-89.5 -44h-96zM345 -11q-125 0 -210 84.5t-85 213.5v413h170v-403q0 -65 35 -101.5t90 -36.5t90 36.5t35 101.5v403h170v-413q0 -129 -85 -213.5t-210 -84.5z" />
    <glyph glyph-name="uhorn" unicode="&#x1b0;" horiz-adv-x="704" 
d="M478 350v103h60q45 0 45 37q0 26 -28 48l89 73q57 -34 57 -110q0 -63 -37.5 -107t-89.5 -44h-96zM518 500v-500h-170v500h170zM220 500v-283q0 -32 17.5 -50t45.5 -18q27 0 46 17t19 41h58q0 -94 -51.5 -156t-129.5 -62q-76 0 -125.5 50t-49.5 138v323h170z" />
    <glyph glyph-name="uni0237" unicode="&#x237;" horiz-adv-x="262" 
d="M-22 -62q32 0 50 24.5t18 62.5v475h170v-529q0 -82 -58 -141.5t-150 -59.5h-59v168h29z" />
    <glyph glyph-name="uni02BC" unicode="&#x2bc;" horiz-adv-x="230" 
d="M80 780l150 -43l-59 -251l-145 41z" />
    <glyph glyph-name="gravecomb" unicode="&#x300;" horiz-adv-x="264" 
d="M-17 653l113 99l163 -158l-109 -94z" />
    <glyph glyph-name="acutecomb" unicode="&#x301;" horiz-adv-x="264" 
d="M269 653l-113 109l-153 -168l89 -94z" />
    <glyph glyph-name="uni0302" unicode="&#x302;" horiz-adv-x="388" 
d="M174 712l-184 -122l61 -100l143 97l143 -97l61 100l-184 122h-40z" />
    <glyph glyph-name="tildecomb" unicode="&#x303;" horiz-adv-x="404" 
d="M124 674q-118 0 -134 -150l104 -18q9 59 41 59q15 0 40 -19q62 -46 107 -46q58 0 91 39.5t41 110.5l-104 18q-10 -56 -45 -56q-20 0 -42 18q-30 24 -52 34t-47 10z" />
    <glyph glyph-name="uni0304" unicode="&#x304;" horiz-adv-x="352" 
d="M352 637v-127h-352v127h352z" />
    <glyph glyph-name="uni0306" unicode="&#x306;" horiz-adv-x="338" 
d="M165 501q-87 0 -148.5 56t-61.5 136h127q0 -33 24 -55t60 -22q37 0 63.5 22.5t26.5 54.5h127q0 -77 -65 -134.5t-153 -57.5z" />
    <glyph glyph-name="uni0307" unicode="&#x307;" horiz-adv-x="170" 
d="M-14 599q0 42 28.5 70.5t70.5 28.5t70.5 -28.5t28.5 -70.5t-28.5 -70.5t-70.5 -28.5t-70.5 28.5t-28.5 70.5z" />
    <glyph glyph-name="uni0308" unicode="&#x308;" horiz-adv-x="390" 
d="M226 599q0 42 28.5 70.5t70.5 28.5t70.5 -28.5t28.5 -70.5t-28.5 -70.5t-70.5 -28.5t-70.5 28.5t-28.5 70.5zM-34 599q0 42 28.5 70.5t70.5 28.5t70.5 -28.5t28.5 -70.5t-28.5 -70.5t-70.5 -28.5t-70.5 28.5t-28.5 70.5z" />
    <glyph glyph-name="hookabovecomb" unicode="&#x309;" horiz-adv-x="260" 
d="M137 480l-65 90l61 39q33 20 33 50q0 20 -13 32.5t-33 12.5q-37 0 -45 -36l-103 25q15 55 55 86.5t95 31.5q68 0 110.5 -42.5t42.5 -109.5q0 -45 -22 -77.5t-70 -69.5z" />
    <glyph glyph-name="uni030A" unicode="&#x30a;" horiz-adv-x="298" 
d="M101 653q0 -21 14 -34.5t34 -13.5t34 13.5t14 34.5t-14 35t-34 14t-34 -14t-14 -35zM-4 653.5q0 66.5 44.5 110t108.5 43.5t108.5 -43.5t44.5 -110t-44.5 -110t-108.5 -43.5t-108.5 43.5t-44.5 110z" />
    <glyph glyph-name="uni030B" unicode="&#x30b;" horiz-adv-x="424" 
d="M462 633l-73 99l-170 -159l56 -73zM202 633l-73 99l-170 -159l56 -73z" />
    <glyph glyph-name="uni030C" unicode="&#x30c;" horiz-adv-x="388" 
d="M214 490l184 122l-61 100l-143 -97l-143 97l-61 -100l184 -122h40z" />
    <glyph glyph-name="uni0312" unicode="&#x312;" horiz-adv-x="170" 
d="M175 588q0 -35 -24 -61.5t-62 -26.5t-64 25t-26 62q0 31 18 57l135 193l55 -42l-88 -124q25 -10 40.5 -33t15.5 -50z" />
    <glyph glyph-name="uni0313" unicode="&#x313;" horiz-adv-x="170" 
d="M31 749q0 35 24 61.5t62 26.5t64 -25t26 -62q0 -31 -18 -57l-135 -193l-55 42l88 124q-25 10 -40.5 33t-15.5 50z" />
    <glyph glyph-name="uni0315" unicode="&#x315;" horiz-adv-x="170" 
d="M119 753l150 -43l-59 -251l-145 41z" />
    <glyph glyph-name="uni031B" unicode="&#x31b;" horiz-adv-x="247" 
d="M46 422v103h60q45 0 45 37q0 26 -28 48l89 73q57 -34 57 -110q0 -63 -37.5 -107t-89.5 -44h-96z" />
    <glyph glyph-name="dotbelowcomb" unicode="&#x323;" horiz-adv-x="170" 
d="M-14 -160q0 42 28.5 70.5t70.5 28.5t70.5 -28.5t28.5 -70.5t-28.5 -70.5t-70.5 -28.5t-70.5 28.5t-28.5 70.5z" />
    <glyph glyph-name="uni0326" unicode="&#x326;" horiz-adv-x="170" 
d="M120 -296q0 -35 -24 -61.5t-62 -26.5t-64 25t-26 62q0 31 18 57l135 193l55 -42l-88 -124q25 -10 40.5 -33t15.5 -50z" />
    <glyph glyph-name="uni0327" unicode="&#x327;" horiz-adv-x="243" 
d="M118 -80q32 40 79 39q47 1 80 -42t33 -104q0 -73 -48 -118.5t-125 -45.5q-66 0 -115 34t-67 92l127 45q5 -19 19 -30t34 -11q19 0 30.5 10t11.5 28q0 16 -8.5 26.5t-22.5 10.5q-16 0 -28 -13l-130 39v143h130v-103z" />
    <glyph glyph-name="uni0328" unicode="&#x328;" horiz-adv-x="247" 
d="M81 -29v37h117v-63l-68 -48q-43 -28 -43 -61q0 -16 8.5 -26t22.5 -10q30 0 38 30l114 -19q-15 -59 -55 -93t-95 -34q-67 0 -110 37t-43 95q0 38 18.5 66.5t68.5 70.5z" />
    <glyph glyph-name="uni0400" unicode="&#x400;" horiz-adv-x="595" 
d="M109 930l113 99l163 -158l-109 -94zM220 435h316v-168h-316v-99h340v-168h-510v700h510v-168h-340v-97z" />
    <glyph glyph-name="uni0401" unicode="&#x401;" horiz-adv-x="595" 
d="M315 876q0 42 28.5 70.5t70.5 28.5t70.5 -28.5t28.5 -70.5t-28.5 -70.5t-70.5 -28.5t-70.5 28.5t-28.5 70.5zM55 876q0 42 28.5 70.5t70.5 28.5t70.5 -28.5t28.5 -70.5t-28.5 -70.5t-70.5 -28.5t-70.5 28.5t-28.5 70.5zM220 435h316v-168h-316v-99h340v-168h-510v700h510
v-168h-340v-97z" />
    <glyph glyph-name="uni0402" unicode="&#x402;" horiz-adv-x="775" 
d="M506 428q96 0 162.5 -63t66.5 -153q0 -91 -62.5 -151.5t-156.5 -60.5h-82v168h72q25 0 42 12.5t17 31.5q0 20 -17 34t-42 14h-169v-260h-170v533h-142v167h564v-167h-252v-105h169z" />
    <glyph glyph-name="uni0403" unicode="&#x403;" horiz-adv-x="600" 
d="M479 930l-113 109l-153 -168l89 -94zM50 0h170v542h350v158h-520v-700z" />
    <glyph glyph-name="uni0404" unicode="&#x404;" horiz-adv-x="778" 
d="M542 436v-167h-482v167h482zM30 351q0 103 48 187.5t132 133t186 48.5q114 0 206.5 -57t140.5 -156l-172 -60q-24 48 -71 75.5t-105 27.5q-83 0 -139 -57.5t-56 -141.5t56 -141.5t138 -57.5q61 0 109 30t72 82l173 -59q-46 -103 -140.5 -163t-211.5 -60q-102 0 -186 48.5
t-132 133t-48 187.5z" />
    <glyph glyph-name="uni0405" unicode="&#x405;" horiz-adv-x="554" 
d="M256 266q-106 18 -166 78.5t-60 150.5q0 95 64.5 156.5t163.5 61.5q91 0 162.5 -52.5t103.5 -140.5l-166 -39q-12 31 -37 49t-55 18q-27 0 -44.5 -14.5t-17.5 -37t20.5 -36.5t66.5 -22q108 -20 170.5 -83t62.5 -153q0 -93 -65 -153t-166 -60q-89 0 -160.5 47t-102.5 126
l166 59q12 -31 36.5 -49t54.5 -18q27 0 44.5 14.5t17.5 36.5q0 46 -93 61z" />
    <glyph glyph-name="uni0406" unicode="&#x406;" 
d="M220 0h-170v700h170v-700z" />
    <glyph glyph-name="uni0407" unicode="&#x407;" 
d="M165 876q0 42 28.5 70.5t70.5 28.5t70.5 -28.5t28.5 -70.5t-28.5 -70.5t-70.5 -28.5t-70.5 28.5t-28.5 70.5zM-95 876q0 42 28.5 70.5t70.5 28.5t70.5 -28.5t28.5 -70.5t-28.5 -70.5t-70.5 -28.5t-70.5 28.5t-28.5 70.5zM220 0h-170v700h170v-700z" />
    <glyph glyph-name="uni0408" unicode="&#x408;" horiz-adv-x="664" 
d="M30 208l159 62q31 -111 130 -111q55 0 90 36.5t35 101.5v403h170v-413q0 -129 -85 -213.5t-210 -84.5q-106 0 -182 58t-107 161z" />
    <glyph glyph-name="uni0409" unicode="&#x409;" horiz-adv-x="1205" 
d="M59 158h-29v-158h49q127 0 207.5 80.5t80.5 190.5v271h160v-542h409q98 0 163.5 67.5t65.5 169.5q0 97 -69.5 164t-169.5 67h-229v232h-500v-395q0 -64 -36 -105.5t-102 -41.5zM697 300h229q29 0 49 -18t20 -45q0 -30 -19.5 -49.5t-49.5 -19.5h-229v132z" />
    <glyph glyph-name="uni040A" unicode="&#x40a;" horiz-adv-x="1038" 
d="M590 700h-170v-700h359q94 0 156.5 65t62.5 162q0 92 -66.5 156.5t-162.5 64.5h-179v252zM769 168h-179v112h179q25 0 42 -15t17 -38q0 -25 -17 -42t-42 -17zM430 445h-210v255h-170v-700h170v277h210v168z" />
    <glyph glyph-name="uni040B" unicode="&#x40b;" horiz-adv-x="705" 
d="M665 192v-192h-170v192q0 29 -20 48.5t-49 19.5h-89v-260h-170v533h-142v167h564v-167h-252v-105h89q100 0 169.5 -68.5t69.5 -167.5z" />
    <glyph glyph-name="uni040C" unicode="&#x40c;" horiz-adv-x="698" 
d="M499 930l-113 109l-153 -168l89 -94zM50 0v700h170v-265h27l209 265h217l-281 -350l281 -350h-217l-209 262h-27v-262h-170z" />
    <glyph glyph-name="uni040D" unicode="&#x40d;" horiz-adv-x="700" 
d="M169 930l113 99l163 -158l-109 -94zM650 0h-170v427l-237 -427h-193v700h170v-427l237 427h193v-700z" />
    <glyph glyph-name="uni040E" unicode="&#x40e;" horiz-adv-x="712" 
d="M362 778q-87 0 -148.5 56t-61.5 136h127q0 -33 24 -55t60 -22q37 0 63.5 22.5t26.5 54.5h127q0 -77 -65 -134.5t-153 -57.5zM169 0h192l321 700h-199l-116 -300l-137 300h-200l240 -452z" />
    <glyph glyph-name="uni040F" unicode="&#x40f;" horiz-adv-x="740" 
d="M690 0v700h-170v-542h-300v542h-170v-700h229v-175h190v175h221z" />
    <glyph glyph-name="uni0410" unicode="&#x410;" horiz-adv-x="804" 
d="M217 297h375v-158h-375v158zM223 0h-196l262 700h224l264 -700h-196l-177 526z" />
    <glyph glyph-name="uni0411" unicode="&#x411;" horiz-adv-x="713" 
d="M439 438q98 0 166 -64.5t68 -156.5q0 -93 -64 -155t-160 -62h-399v700h502v-167h-332v-95h219zM439 168q28 0 46 14t18 35q0 23 -18.5 38t-45.5 15h-219v-102h219z" />
    <glyph glyph-name="uni0412" unicode="&#x412;" horiz-adv-x="658" 
d="M397 532h-177v-100h177q21 0 36 15.5t15 37.5q0 21 -14 34t-37 13zM397 270h-177v-102h187q22 0 36.5 14t14.5 35q0 23 -17.5 38t-43.5 15zM419 0h-369v700h359q91 0 150 -53t59 -135q0 -49 -22.5 -92t-60.5 -66q43 -24 68 -67.5t25 -95.5q0 -82 -59.5 -136.5
t-149.5 -54.5z" />
    <glyph glyph-name="uni0413" unicode="&#x413;" horiz-adv-x="600" 
d="M50 0h170v542h350v158h-520v-700z" />
    <glyph glyph-name="uni0414" unicode="&#x414;" horiz-adv-x="820" 
d="M25 158v-274h170v116h430v-116h170v274h-770zM59 158h-34l15 -117h29q136 0 222 80t86 190v221h150v-531h170v699h-490v-375q0 -73 -38.5 -120t-109.5 -47z" />
    <glyph glyph-name="uni0415" unicode="&#x415;" horiz-adv-x="595" 
d="M220 435h316v-168h-316v-99h340v-168h-510v700h510v-168h-340v-97z" />
    <glyph glyph-name="uni0416" unicode="&#x416;" horiz-adv-x="1070" 
d="M450 700h170v-263h57l180 263h186l-240 -348l240 -352h-186l-180 264h-57v-264h-170v264h-57l-185 -264h-181l240 349l-240 351h181l185 -263h57v263z" />
    <glyph glyph-name="uni0417" unicode="&#x417;" horiz-adv-x="576" 
d="M49 571q33 69 97.5 108t145.5 39q99 0 166.5 -56t67.5 -139q0 -48 -24 -88.5t-67 -63.5q51 -26 81 -75.5t30 -105.5q0 -90 -72.5 -149t-181.5 -59q-87 0 -157 40.5t-105 111.5l164 83q12 -35 38.5 -55t59.5 -20q36 0 60 21t24 52q0 28 -20 47t-49 19h-111v158h111
q21 0 35 15.5t14 38.5q0 28 -20 46.5t-49 18.5q-27 0 -49.5 -15.5t-33.5 -42.5z" />
    <glyph glyph-name="uni0418" unicode="&#x418;" horiz-adv-x="700" 
d="M650 0h-170v427l-237 -427h-193v700h170v-427l237 427h193v-700z" />
    <glyph glyph-name="uni0419" unicode="&#x419;" horiz-adv-x="700" 
d="M354 778q-87 0 -148.5 56t-61.5 136h127q0 -33 24 -55t60 -22q37 0 63.5 22.5t26.5 54.5h127q0 -77 -65 -134.5t-153 -57.5zM650 0h-170v427l-237 -427h-193v700h170v-427l237 427h193v-700z" />
    <glyph glyph-name="uni041A" unicode="&#x41a;" horiz-adv-x="698" 
d="M50 0v700h170v-265h27l209 265h217l-281 -350l281 -350h-217l-209 262h-27v-262h-170z" />
    <glyph glyph-name="uni041B" unicode="&#x41b;" horiz-adv-x="747" 
d="M59 158h-29v-158h49q127 0 207.5 80.5t80.5 190.5v271h160v-542h170v700h-500v-395q0 -64 -36 -105.5t-102 -41.5z" />
    <glyph glyph-name="uni041C" unicode="&#x41c;" horiz-adv-x="836" 
d="M40 0v700h195l183 -365l183 365h195v-700h-170v422l-155 -318h-105l-156 318v-422h-170z" />
    <glyph glyph-name="uni041D" unicode="&#x41d;" horiz-adv-x="700" 
d="M50 0v700h170v-265h260v265h170v-700h-170v267h-260v-267h-170z" />
    <glyph glyph-name="uni041E" unicode="&#x41e;" horiz-adv-x="788" 
d="M200 353q0 -88 56 -144.5t138 -56.5t138 56.5t56 144.5q0 86 -56.5 141.5t-137.5 55.5t-137.5 -55.5t-56.5 -141.5zM30 353q0 160 105.5 263.5t258.5 103.5t258.5 -103.5t105.5 -263.5q0 -161 -105.5 -266t-258.5 -105t-258.5 105t-105.5 266z" />
    <glyph glyph-name="uni041F" unicode="&#x41f;" horiz-adv-x="720" 
d="M50 700v-700h170v542h280v-542h170v700h-620z" />
    <glyph glyph-name="uni0420" unicode="&#x420;" horiz-adv-x="648" 
d="M349 532h-129v-172h129q42 0 70.5 25.5t28.5 62.5q0 36 -28 60t-71 24zM349 192h-129v-192h-170v700h309q111 0 185 -72t74 -180q0 -107 -78 -181.5t-191 -74.5z" />
    <glyph glyph-name="uni0421" unicode="&#x421;" horiz-adv-x="778" 
d="M30 351q0 103 48 187.5t132 133t186 48.5q114 0 206.5 -62.5t140.5 -170.5l-172 -60q-24 58 -71 90.5t-105 32.5q-83 0 -139 -57.5t-56 -141.5t56 -141.5t138 -57.5q61 0 109 35t72 97l173 -59q-46 -112 -140.5 -177.5t-211.5 -65.5q-102 0 -186 48.5t-132 133t-48 187.5
z" />
    <glyph glyph-name="uni0422" unicode="&#x422;" horiz-adv-x="616" 
d="M593 700v-168h-200v-532h-170v532h-200v168h570z" />
    <glyph glyph-name="uni0423" unicode="&#x423;" horiz-adv-x="712" 
d="M169 0h192l321 700h-199l-116 -300l-137 300h-200l240 -452z" />
    <glyph glyph-name="uni0424" unicode="&#x424;" horiz-adv-x="808" 
d="M318 0v750h170v-750h-170zM200 385q0 -59 55.5 -95t148.5 -36t148.5 36t55.5 95q0 57 -55.5 92t-148.5 35t-148.5 -35t-55.5 -92zM30 385q0 128 102.5 207.5t271.5 79.5t271.5 -79.5t102.5 -207.5q0 -129 -102.5 -210t-271.5 -81t-271.5 81t-102.5 210z" />
    <glyph glyph-name="uni0425" unicode="&#x425;" horiz-adv-x="724" 
d="M700 0h-204l-133 261l-134 -261h-205l194 350l-194 350h205l134 -261l133 261h204l-192 -350z" />
    <glyph glyph-name="uni0426" unicode="&#x426;" horiz-adv-x="770" 
d="M640 168v532h-170v-532h-250v532h-170v-700h520v-136h170v304h-100z" />
    <glyph glyph-name="uni0427" unicode="&#x427;" horiz-adv-x="668" 
d="M618 700v-700h-170v700h170zM220 700v-213q0 -55 31.5 -86.5t81.5 -31.5q47 0 81 29t34 69h58q0 -111 -66 -184.5t-165 -73.5q-98 0 -161.5 63t-63.5 175v253h170z" />
    <glyph glyph-name="uni0428" unicode="&#x428;" horiz-adv-x="980" 
d="M930 0v700h-170v-532h-183v532h-170v-532h-187v532h-170v-700h880z" />
    <glyph glyph-name="uni0429" unicode="&#x429;" horiz-adv-x="1050" 
d="M930 168v532h-170v-532h-183v532h-170v-532h-187v532h-170v-700h800v-136h170v304h-90z" />
    <glyph glyph-name="uni042A" unicode="&#x42a;" horiz-adv-x="830" 
d="M541 168q34 0 56.5 18t22.5 46q0 29 -22.5 48.5t-56.5 19.5h-179v-132h179zM362 700v-232h179q104 0 176.5 -68.5t72.5 -167.5q0 -100 -68 -166t-171 -66h-359v533h-162v167h332z" />
    <glyph glyph-name="uni042B" unicode="&#x42b;" horiz-adv-x="912" 
d="M862 0h-170v700h170v-700zM220 700v-232h159q100 0 169.5 -67t69.5 -164q0 -102 -65.5 -169.5t-163.5 -67.5h-339v700h170zM379 168q30 0 49.5 19.5t19.5 49.5q0 27 -20 45t-49 18h-159v-132h159z" />
    <glyph glyph-name="uni042C" unicode="&#x42c;" horiz-adv-x="723" 
d="M220 700v-232h229q100 0 169.5 -67t69.5 -164q0 -102 -65.5 -169.5t-163.5 -67.5h-409v700h170zM449 168q30 0 49.5 19.5t19.5 49.5q0 27 -20 45t-49 18h-229v-132h229z" />
    <glyph glyph-name="uni042D" unicode="&#x42d;" horiz-adv-x="778" 
d="M236 266v167h482v-167h-482zM748 351q0 -103 -48 -187.5t-132 -133t-186 -48.5q-114 0 -206.5 57t-140.5 156l172 60q24 -48 71 -75.5t105 -27.5q83 0 139 57.5t56 141.5t-56 141.5t-138 57.5q-61 0 -109 -30t-72 -82l-173 59q46 103 140.5 163t211.5 60q102 0 186 -48.5
t132 -133t48 -187.5z" />
    <glyph glyph-name="uni042E" unicode="&#x42e;" horiz-adv-x="1098" 
d="M500 353q0 86 56.5 141.5t137.5 55.5t137.5 -55.5t56.5 -141.5q0 -88 -56 -144.5t-138 -56.5t-138 56.5t-56 144.5zM330 353q0 -161 105.5 -266t258.5 -105t258.5 105t105.5 266q0 160 -105.5 263.5t-258.5 103.5t-258.5 -103.5t-105.5 -263.5zM380 435h-160v265h-170
v-700h170v267h160v168z" />
    <glyph glyph-name="uni042F" unicode="&#x42f;" horiz-adv-x="648" 
d="M299 532q-38 0 -63.5 -18.5t-25.5 -46.5t25.5 -47.5t63.5 -19.5h129v132h-129zM188 254q-71 17 -114.5 74t-43.5 134q0 109 72.5 173.5t186.5 64.5h309v-700h-170v234h-59l-145 -234h-194z" />
    <glyph glyph-name="uni0430" unicode="&#x430;" horiz-adv-x="537" 
d="M317 193l-83 -11q-34 -5 -34 -24q0 -23 37 -23q35 0 57.5 15.5t22.5 39.5h35q0 -88 -48.5 -144.5t-123.5 -56.5q-65 0 -107.5 43t-42.5 109t43 108t121 52l123 16v2q0 17 -17 28.5t-41 11.5q-21 0 -36 -11.5t-20 -30.5l-167 53q21 63 81.5 102t136.5 39q95 0 164 -56
t69 -132v-323h-170v193z" />
    <glyph glyph-name="uni0431" unicode="&#x431;" horiz-adv-x="610" 
d="M556 625q-62 -54 -212 -73q-59 -8 -94 -52.5t-40 -120.5q24 42 69.5 67.5t97.5 25.5q86 0 144.5 -67.5t58.5 -166.5q0 -111 -75 -183.5t-189 -72.5q-78 0 -140 35t-95 98q-41 76 -41 204q0 171 72.5 268t204.5 112q110 13 159 51zM220 236q0 -35 29 -59.5t70 -24.5
q39 0 65 22.5t26 56.5q0 35 -27.5 57t-68.5 22t-67.5 -21t-26.5 -53z" />
    <glyph glyph-name="uni0432" unicode="&#x432;" horiz-adv-x="608" 
d="M369 352h-149v-41h155q10 0 16.5 5.5t6.5 13.5q0 10 -8 16t-21 6zM379 189h-159v-41h159q12 0 20.5 6t8.5 15t-8 14.5t-21 5.5zM389 0h-339v500h329q81 0 135 -37.5t54 -93.5q0 -33 -17.5 -60.5t-48.5 -42.5q35 -19 55.5 -53t20.5 -73q0 -61 -53.5 -100.5t-135.5 -39.5z
" />
    <glyph glyph-name="uni0433" unicode="&#x433;" horiz-adv-x="470" 
d="M50 0h170v342h220v158h-390v-500z" />
    <glyph glyph-name="uni0434" unicode="&#x434;" horiz-adv-x="672" 
d="M25 158v-274h170v116h282v-116h170v274h-622zM49 158h-19v-98h29q114 0 186 56.5t72 134.5v81h90v-331h170v499h-430v-235q0 -47 -25.5 -77t-72.5 -30z" />
    <glyph glyph-name="uni0435" unicode="&#x435;" horiz-adv-x="592" 
d="M396 307q-10 22 -35 35t-56 13q-63 0 -86 -48h177zM219 176q11 -24 34 -36.5t53 -12.5q55 0 78 32l156 -59q-33 -59 -96 -93.5t-137 -34.5q-116 0 -192.5 77t-76.5 193q0 115 74.5 191.5t186.5 76.5q114 0 192.5 -78.5t78.5 -193.5q0 -28 -6 -62h-345z" />
    <glyph glyph-name="uni0436" unicode="&#x436;" horiz-adv-x="904" 
d="M367 500h170v-170h30l128 170h184l-190 -250l190 -250h-184l-128 167h-30v-167h-170v170h-30l-128 -170h-184l190 250l-190 250h184l128 -167h30v167z" />
    <glyph glyph-name="uni0437" unicode="&#x437;" horiz-adv-x="504" 
d="M49 401q28 55 84.5 86t126.5 31q87 0 145.5 -45t58.5 -112q0 -35 -16 -64t-43 -46q31 -18 50 -50.5t19 -68.5q0 -65 -60.5 -107.5t-152.5 -42.5q-77 0 -138.5 32.5t-92.5 89.5l164 73q8 -15 25 -24t38 -9q20 0 33.5 8t13.5 19q0 9 -9 14.5t-23 5.5h-76v118h76q10 0 16 5
t6 12q0 11 -11 18.5t-27 7.5q-30 0 -42 -22z" />
    <glyph glyph-name="uni0438" unicode="&#x438;" horiz-adv-x="640" 
d="M590 0h-170v287l-177 -287h-193v500h170v-277l177 277h193v-500z" />
    <glyph glyph-name="uni0439" unicode="&#x439;" horiz-adv-x="640" 
d="M322 569q-87 0 -148.5 56t-61.5 136h127q0 -33 24 -55t60 -22q37 0 63.5 22.5t26.5 54.5h127q0 -77 -65 -134.5t-153 -57.5zM590 0h-170v287l-177 -287h-193v500h170v-277l177 277h193v-500z" />
    <glyph glyph-name="uni043A" unicode="&#x43a;" horiz-adv-x="612" 
d="M50 0v500h170v-165h27l128 165h217l-200 -250l200 -250h-217l-128 162h-27v-162h-170z" />
    <glyph glyph-name="uni043B" unicode="&#x43b;" horiz-adv-x="596" 
d="M58 168h-29v-168h39q96 0 157 62.5t61 148.5v121h90v-332h170v500h-430v-275q0 -25 -15 -41t-43 -16z" />
    <glyph glyph-name="uni043C" unicode="&#x43c;" horiz-adv-x="756" 
d="M50 0v500h185l143 -225l143 225h185v-500h-170v272l-115 -198h-85l-116 198v-272h-170z" />
    <glyph glyph-name="uni043D" unicode="&#x43d;" horiz-adv-x="611" 
d="M50 0v500h170v-170h171v170h170v-500h-170v172h-171v-172h-170z" />
    <glyph glyph-name="uni043E" unicode="&#x43e;" horiz-adv-x="618" 
d="M200 251q0 -48 31.5 -78.5t77.5 -30.5t77.5 30.5t31.5 78.5t-31.5 78.5t-77.5 30.5t-77.5 -30.5t-31.5 -78.5zM30 251q0 117 81 193t198 76t198 -76t81 -193t-81 -193t-198 -76t-198 76t-81 193z" />
    <glyph glyph-name="uni043F" unicode="&#x43f;" horiz-adv-x="590" 
d="M540 500v-500h-170v342h-150v-342h-170v500h490z" />
    <glyph glyph-name="uni0440" unicode="&#x440;" horiz-adv-x="638" 
d="M50 500h170v-700h-170v700zM220 251q0 -47 31 -78t78 -31t78 31t31 78t-31 78t-78 31t-78 -31t-31 -78zM167 251q0 115 62 192t155 77q95 0 159.5 -77.5t64.5 -191.5t-64.5 -191.5t-159.5 -77.5q-93 0 -155 77t-62 192z" />
    <glyph glyph-name="uni0441" unicode="&#x441;" horiz-adv-x="594" 
d="M200 251q0 -48 30 -78.5t74 -30.5q72 0 102 62l156 -74q-35 -68 -104 -108t-154 -40q-114 0 -194 76t-80 193t80 193t194 76q86 0 155.5 -41t104.5 -112l-156 -74q-13 31 -41 49t-63 18q-44 0 -74 -30.5t-30 -78.5z" />
    <glyph glyph-name="uni0442" unicode="&#x442;" horiz-adv-x="510" 
d="M480 500v-158h-140v-342h-170v342h-140v158h450z" />
    <glyph glyph-name="uni0443" unicode="&#x443;" horiz-adv-x="624" 
d="M418 500l-106 -310l-106 310h-179l190 -490l-75 -210h179l276 700h-179z" />
    <glyph glyph-name="uni0444" unicode="&#x444;" horiz-adv-x="698" 
d="M267 -190v870h160v-870h-160zM200 251q0 -48 43 -78.5t106 -30.5t106 30.5t43 78.5t-43 78.5t-106 30.5t-106 -30.5t-43 -78.5zM30 251q0 117 92.5 193t226.5 76t226.5 -76t92.5 -193t-92.5 -193t-226.5 -76t-226.5 76t-92.5 193z" />
    <glyph glyph-name="uni0445" unicode="&#x445;" horiz-adv-x="598" 
d="M574 0h-194l-81 161l-80 -161h-195l150 250l-150 250h195l80 -161l81 161h194l-150 -250z" />
    <glyph glyph-name="uni0446" unicode="&#x446;" horiz-adv-x="642" 
d="M50 0v500h170v-342h160v342h170v-342h62v-274h-170v116h-392z" />
    <glyph glyph-name="uni0447" unicode="&#x447;" horiz-adv-x="568" 
d="M518 500v-500h-170v500h170zM220 500v-143q0 -32 17.5 -50t45.5 -18q27 0 46 17t19 41h58q0 -94 -51.5 -156t-129.5 -62q-76 0 -125.5 50t-49.5 138v183h170z" />
    <glyph glyph-name="uni0448" unicode="&#x448;" horiz-adv-x="870" 
d="M820 0v500h-170v-342h-130v342h-170v-342h-130v342h-170v-500h770z" />
    <glyph glyph-name="uni0449" unicode="&#x449;" horiz-adv-x="942" 
d="M820 158v342h-170v-342h-130v342h-170v-342h-130v342h-170v-500h672v-116h170v274h-72z" />
    <glyph glyph-name="uni044A" unicode="&#x44a;" horiz-adv-x="640" 
d="M424 377q79 0 132.5 -55.5t53.5 -135.5q0 -79 -53.5 -132.5t-132.5 -53.5h-292v333h-102v167h272v-123h122zM414 209h-112v-41h112q11 0 18.5 5t7.5 13q0 10 -7.5 16.5t-18.5 6.5z" />
    <glyph glyph-name="uni044B" unicode="&#x44b;" horiz-adv-x="828" 
d="M608 0v500h170v-500h-170zM349 209h-139v-42h139q13 0 21 5.5t8 14.5t-8.5 15.5t-20.5 6.5zM359 367q80 0 134.5 -52.5t54.5 -130.5t-54.5 -131t-134.5 -53h-319v500h170v-133h149z" />
    <glyph glyph-name="uni044C" unicode="&#x44c;" horiz-adv-x="618" 
d="M389 209h-169v-42h169q13 0 21 5.5t8 14.5t-8.5 15.5t-20.5 6.5zM399 367q80 0 134.5 -52.5t54.5 -130.5t-54.5 -131t-134.5 -53h-349v500h170v-133h179z" />
    <glyph glyph-name="uni044D" unicode="&#x44d;" horiz-adv-x="594" 
d="M204 186v127h322v-127h-322zM394 251q0 52 -31 85.5t-79 33.5q-30 0 -56 -14t-40 -38l-156 74q35 59 103 93.5t147 34.5q121 0 201.5 -76.5t80.5 -192.5t-80.5 -192.5t-201.5 -76.5q-81 0 -149.5 36t-102.5 97l156 74q13 -26 40 -41.5t59 -15.5q48 0 78.5 33.5t30.5 85.5
z" />
    <glyph glyph-name="uni044E" unicode="&#x44e;" horiz-adv-x="868" 
d="M460 251q0 48 30 78.5t74 30.5t74 -30.5t30 -78.5t-30 -78.5t-74 -30.5t-74 30.5t-30 78.5zM290 251q0 -117 79.5 -193t194.5 -76t194.5 76t79.5 193t-79.5 193t-194.5 76t-194.5 -76t-79.5 -193zM310 335h-90v165h-170v-500h170v167h90v168z" />
    <glyph glyph-name="uni044F" unicode="&#x44f;" horiz-adv-x="558" 
d="M239 301h99v31h-99q-11 0 -18.5 -4.5t-7.5 -11t7.5 -11t18.5 -4.5zM300 153l-81 -153h-189l104 173q-48 16 -76 56t-28 91q0 76 56 128t138 52h284v-500h-170v153h-38z" />
    <glyph glyph-name="uni0450" unicode="&#x450;" horiz-adv-x="592" 
d="M125 721l113 99l163 -158l-109 -94zM396 307q-10 22 -35 35t-56 13q-63 0 -86 -48h177zM219 176q11 -24 34 -36.5t53 -12.5q55 0 78 32l156 -59q-33 -59 -96 -93.5t-137 -34.5q-116 0 -192.5 77t-76.5 193q0 115 74.5 191.5t186.5 76.5q114 0 192.5 -78.5t78.5 -193.5
q0 -28 -6 -62h-345z" />
    <glyph glyph-name="uni0451" unicode="&#x451;" horiz-adv-x="592" 
d="M331 667q0 42 28.5 70.5t70.5 28.5t70.5 -28.5t28.5 -70.5t-28.5 -70.5t-70.5 -28.5t-70.5 28.5t-28.5 70.5zM71 667q0 42 28.5 70.5t70.5 28.5t70.5 -28.5t28.5 -70.5t-28.5 -70.5t-70.5 -28.5t-70.5 28.5t-28.5 70.5zM396 307q-10 22 -35 35t-56 13q-63 0 -86 -48h177z
M219 176q11 -24 34 -36.5t53 -12.5q55 0 78 32l156 -59q-33 -59 -96 -93.5t-137 -34.5q-116 0 -192.5 77t-76.5 193q0 115 74.5 191.5t186.5 76.5q114 0 192.5 -78.5t78.5 -193.5q0 -28 -6 -62h-345z" />
    <glyph glyph-name="uni0452" unicode="&#x452;" horiz-adv-x="598" 
d="M60 0v546h-60v147h60v57h170v-57h192v-147h-192v-546h-170zM378 63v210q0 37 -20.5 57.5t-52.5 20.5q-31 0 -53 -23t-22 -55h-58q0 103 54.5 170.5t136.5 67.5q81 0 133 -52.5t52 -145.5v-260q0 -109 -58 -167t-160 -61h-59v168h39q33 0 50.5 19.5t17.5 50.5z" />
    <glyph glyph-name="uni0453" unicode="&#x453;" horiz-adv-x="470" 
d="M417 721l-113 109l-153 -168l89 -94zM50 0h170v342h220v158h-390v-500z" />
    <glyph glyph-name="uni0454" unicode="&#x454;" horiz-adv-x="594" 
d="M390 316v-127h-322v127h322zM200 251q0 -52 31 -85.5t79 -33.5q30 0 56 14t40 38l156 -74q-35 -59 -103 -93.5t-147 -34.5q-121 0 -201.5 76.5t-80.5 192.5t80.5 192.5t201.5 76.5q81 0 149.5 -36t102.5 -97l-156 -74q-13 26 -40 41.5t-59 15.5q-48 0 -78.5 -33.5
t-30.5 -85.5z" />
    <glyph glyph-name="uni0455" unicode="&#x455;" horiz-adv-x="494" 
d="M224 176q-94 11 -144 53.5t-50 112.5q0 75 57.5 123t146.5 48q76 0 139 -36.5t91 -96.5l-166 -47q-18 36 -62 36q-36 0 -36 -23q0 -22 61 -28q97 -10 150 -53t53 -112q0 -72 -56.5 -118t-145.5 -46q-78 0 -141 36t-91 97l166 47q18 -46 62 -46q16 0 26 7.5t10 19.5
q0 10 -16 15.5t-54 10.5z" />
    <glyph glyph-name="uni0456" unicode="&#x456;" horiz-adv-x="262" 
d="M32 651q0 42 28.5 70.5t70.5 28.5t70.5 -28.5t28.5 -70.5t-28.5 -70.5t-70.5 -28.5t-70.5 28.5t-28.5 70.5zM46 0v500h170v-500h-170z" />
    <glyph glyph-name="uni0457" unicode="&#x457;" 
d="M165 667q0 42 28.5 70.5t70.5 28.5t70.5 -28.5t28.5 -70.5t-28.5 -70.5t-70.5 -28.5t-70.5 28.5t-28.5 70.5zM-95 667q0 42 28.5 70.5t70.5 28.5t70.5 -28.5t28.5 -70.5t-28.5 -70.5t-70.5 -28.5t-70.5 28.5t-28.5 70.5zM50 0v500h170v-500h-170z" />
    <glyph glyph-name="uni0458" unicode="&#x458;" horiz-adv-x="262" 
d="M32 651q0 42 28.5 70.5t70.5 28.5t70.5 -28.5t28.5 -70.5t-28.5 -70.5t-70.5 -28.5t-70.5 28.5t-28.5 70.5zM-22 -62q32 0 50 24.5t18 62.5v475h170v-529q0 -82 -58 -141.5t-150 -59.5h-59v168h29z" />
    <glyph glyph-name="uni0459" unicode="&#x459;" horiz-adv-x="944" 
d="M58 168h-29v-168h39q96 0 157 62.5t61 148.5v121h90v-332h349q80 0 134.5 53t54.5 131t-54.5 130.5t-134.5 52.5h-179v133h-430v-275q0 -25 -15 -41t-43 -16zM715 209q12 0 20.5 -6.5t8.5 -15.5t-8 -14.5t-21 -5.5h-169v42h169z" />
    <glyph glyph-name="uni045A" unicode="&#x45a;" horiz-adv-x="883" 
d="M659 199q10 0 17 -5t7 -12q0 -6 -7 -10.5t-17 -4.5h-129v32h129zM669 357h-139v143h-170v-500h309q78 0 131 51.5t53 127.5t-53 127t-131 51zM390 335h-170v165h-170v-500h170v167h170v168z" />
    <glyph glyph-name="uni045B" unicode="&#x45b;" horiz-adv-x="598" 
d="M60 0v546h-60v147h60v57h170v-57h192v-147h-192v-546h-170zM378 0v273q0 37 -20.5 57.5t-52.5 20.5q-31 0 -53 -23t-22 -55h-58q0 103 54.5 170.5t136.5 67.5q81 0 133 -52.5t52 -145.5v-313h-170z" />
    <glyph glyph-name="uni045C" unicode="&#x45c;" horiz-adv-x="612" 
d="M457 721l-113 109l-153 -168l89 -94zM50 0v500h170v-165h27l128 165h217l-200 -250l200 -250h-217l-128 162h-27v-162h-170z" />
    <glyph glyph-name="uni045D" unicode="&#x45d;" horiz-adv-x="640" 
d="M147 721l113 99l163 -158l-109 -94zM590 0h-170v287l-177 -287h-193v500h170v-277l177 277h193v-500z" />
    <glyph glyph-name="uni045E" unicode="&#x45e;" horiz-adv-x="624" 
d="M310 569q-87 0 -148.5 56t-61.5 136h127q0 -33 24 -55t60 -22q37 0 63.5 22.5t26.5 54.5h127q0 -77 -65 -134.5t-153 -57.5zM418 500l-106 -310l-106 310h-179l190 -490l-75 -210h179l276 700h-179z" />
    <glyph glyph-name="uni045F" unicode="&#x45f;" horiz-adv-x="630" 
d="M50 0v500h170v-342h190v342h170v-500h-175v-165h-170v165h-185z" />
    <glyph glyph-name="uni1EA0" unicode="&#x1ea0;" horiz-adv-x="804" 
d="M313 -160q0 42 28.5 70.5t70.5 28.5t70.5 -28.5t28.5 -70.5t-28.5 -70.5t-70.5 -28.5t-70.5 28.5t-28.5 70.5zM217 297h375v-158h-375v158zM223 0h-196l262 700h224l264 -700h-196l-177 526z" />
    <glyph glyph-name="uni1EA1" unicode="&#x1ea1;" horiz-adv-x="537" 
d="M165 -160q0 42 28.5 70.5t70.5 28.5t70.5 -28.5t28.5 -70.5t-28.5 -70.5t-70.5 -28.5t-70.5 28.5t-28.5 70.5zM317 193l-83 -11q-34 -5 -34 -24q0 -23 37 -23q35 0 57.5 15.5t22.5 39.5h35q0 -88 -48.5 -144.5t-123.5 -56.5q-65 0 -107.5 43t-42.5 109t43 108t121 52
l123 16v2q0 17 -18.5 28.5t-44.5 11.5q-23 0 -39.5 -11.5t-21.5 -30.5l-167 53q21 63 83 102t140 39q97 0 167.5 -56t70.5 -132v-323h-170v193z" />
    <glyph glyph-name="uni1EA2" unicode="&#x1ea2;" horiz-adv-x="804" 
d="M413 757l-65 90l61 39q33 20 33 50q0 20 -13 32.5t-33 12.5q-37 0 -45 -36l-103 25q15 55 55 86.5t95 31.5q68 0 110.5 -42.5t42.5 -109.5q0 -45 -22 -77.5t-70 -69.5zM217 297h375v-158h-375v158zM223 0h-196l262 700h224l264 -700h-196l-177 526z" />
    <glyph glyph-name="uni1EA3" unicode="&#x1ea3;" horiz-adv-x="537" 
d="M263 548l-65 90l61 39q33 20 33 50q0 20 -13 32.5t-33 12.5q-37 0 -45 -36l-103 25q15 55 55 86.5t95 31.5q68 0 110.5 -42.5t42.5 -109.5q0 -45 -22 -77.5t-70 -69.5zM317 193l-83 -11q-34 -5 -34 -24q0 -23 37 -23q35 0 57.5 15.5t22.5 39.5h35q0 -88 -48.5 -144.5
t-123.5 -56.5q-65 0 -107.5 43t-42.5 109t43 108t121 52l123 16v2q0 17 -18.5 28.5t-44.5 11.5q-23 0 -39.5 -11.5t-21.5 -30.5l-167 53q21 63 83 102t140 39q97 0 167.5 -56t70.5 -132v-323h-170v193z" />
    <glyph glyph-name="uni1EA4" unicode="&#x1ea4;" horiz-adv-x="804" 
d="M790 1126l-113 109l-153 -168l89 -94zM383 989l-184 -122l61 -100l143 97l143 -97l61 100l-184 122h-40zM217 297h375v-158h-375v158zM223 0h-196l262 700h224l264 -700h-196l-177 526z" />
    <glyph glyph-name="uni1EA5" unicode="&#x1ea5;" horiz-adv-x="537" 
d="M634 944l-113 109l-153 -168l89 -94zM233 780l-184 -122l61 -100l143 97l143 -97l61 100l-184 122h-40zM317 193l-83 -11q-34 -5 -34 -24q0 -23 37 -23q35 0 57.5 15.5t22.5 39.5h35q0 -88 -48.5 -144.5t-123.5 -56.5q-65 0 -107.5 43t-42.5 109t43 108t121 52l123 16v2
q0 17 -18.5 28.5t-44.5 11.5q-23 0 -39.5 -11.5t-21.5 -30.5l-167 53q21 63 83 102t140 39q97 0 167.5 -56t70.5 -132v-323h-170v193z" />
    <glyph glyph-name="uni1EA6" unicode="&#x1ea6;" horiz-adv-x="804" 
d="M450 1126l113 99l163 -158l-109 -94zM383 989l-184 -122l61 -100l143 97l143 -97l61 100l-184 122h-40zM217 297h375v-158h-375v158zM223 0h-196l262 700h224l264 -700h-196l-177 526z" />
    <glyph glyph-name="uni1EA7" unicode="&#x1ea7;" horiz-adv-x="537" 
d="M294 914l113 99l163 -158l-109 -94zM233 780l-184 -122l61 -100l143 97l143 -97l61 100l-184 122h-40zM317 193l-83 -11q-34 -5 -34 -24q0 -23 37 -23q35 0 57.5 15.5t22.5 39.5h35q0 -88 -48.5 -144.5t-123.5 -56.5q-65 0 -107.5 43t-42.5 109t43 108t121 52l123 16v2
q0 17 -18.5 28.5t-44.5 11.5q-23 0 -39.5 -11.5t-21.5 -30.5l-167 53q21 63 83 102t140 39q97 0 167.5 -56t70.5 -132v-323h-170v193z" />
    <glyph glyph-name="uni1EA8" unicode="&#x1ea8;" horiz-adv-x="804" 
d="M636 953l-65 90l61 39q33 20 33 50q0 20 -13 32.5t-33 12.5q-37 0 -45 -36l-103 25q15 55 55 86.5t95 31.5q68 0 110.5 -42.5t42.5 -109.5q0 -45 -22 -77.5t-70 -69.5zM383 989l-184 -122l61 -100l143 97l143 -97l61 100l-184 122h-40zM217 297h375v-158h-375v158zM223 0
h-196l262 700h224l264 -700h-196l-177 526z" />
    <glyph glyph-name="uni1EA9" unicode="&#x1ea9;" horiz-adv-x="537" 
d="M480 771l-65 90l61 39q33 20 33 50q0 20 -13 32.5t-33 12.5q-37 0 -45 -36l-103 25q15 55 55 86.5t95 31.5q68 0 110.5 -42.5t42.5 -109.5q0 -45 -22 -77.5t-70 -69.5zM233 780l-184 -122l61 -100l143 97l143 -97l61 100l-184 122h-40zM317 193l-83 -11q-34 -5 -34 -24
q0 -23 37 -23q35 0 57.5 15.5t22.5 39.5h35q0 -88 -48.5 -144.5t-123.5 -56.5q-65 0 -107.5 43t-42.5 109t43 108t121 52l123 16v2q0 17 -18.5 28.5t-44.5 11.5q-23 0 -39.5 -11.5t-21.5 -30.5l-167 53q21 63 83 102t140 39q97 0 167.5 -56t70.5 -132v-323h-170v193z" />
    <glyph glyph-name="uni1EAA" unicode="&#x1eaa;" horiz-adv-x="804" 
d="M317 1201q-118 0 -134 -150l104 -18q9 59 41 59q15 0 40 -19q62 -46 107 -46q58 0 91 39.5t41 110.5l-104 18q-10 -56 -45 -56q-20 0 -42 18q-30 24 -52 34t-47 10zM383 989l-184 -122l61 -100l143 97l143 -97l61 100l-184 122h-40zM217 297h375v-158h-375v158zM223 0
h-196l262 700h224l264 -700h-196l-177 526z" />
    <glyph glyph-name="uni1EAB" unicode="&#x1eab;" horiz-adv-x="537" 
d="M175 1002q-118 0 -134 -150l104 -18q9 59 41 59q15 0 40 -19q62 -46 107 -46q58 0 91 39.5t41 110.5l-104 18q-10 -56 -45 -56q-20 0 -42 18q-30 24 -52 34t-47 10zM233 780l-184 -122l61 -100l143 97l143 -97l61 100l-184 122h-40zM317 193l-83 -11q-34 -5 -34 -24
q0 -23 37 -23q35 0 57.5 15.5t22.5 39.5h35q0 -88 -48.5 -144.5t-123.5 -56.5q-65 0 -107.5 43t-42.5 109t43 108t121 52l123 16v2q0 17 -18.5 28.5t-44.5 11.5q-23 0 -39.5 -11.5t-21.5 -30.5l-167 53q21 63 83 102t140 39q97 0 167.5 -56t70.5 -132v-323h-170v193z" />
    <glyph glyph-name="uni1EAC" unicode="&#x1eac;" horiz-adv-x="804" 
d="M383 989l-184 -122l61 -100l143 97l143 -97l61 100l-184 122h-40zM313 -160q0 42 28.5 70.5t70.5 28.5t70.5 -28.5t28.5 -70.5t-28.5 -70.5t-70.5 -28.5t-70.5 28.5t-28.5 70.5zM217 297h375v-158h-375v158zM223 0h-196l262 700h224l264 -700h-196l-177 526z" />
    <glyph glyph-name="uni1EAD" unicode="&#x1ead;" horiz-adv-x="537" 
d="M233 780l-184 -122l61 -100l143 97l143 -97l61 100l-184 122h-40zM165 -160q0 42 28.5 70.5t70.5 28.5t70.5 -28.5t28.5 -70.5t-28.5 -70.5t-70.5 -28.5t-70.5 28.5t-28.5 70.5zM317 193l-83 -11q-34 -5 -34 -24q0 -23 37 -23q35 0 57.5 15.5t22.5 39.5h35
q0 -88 -48.5 -144.5t-123.5 -56.5q-65 0 -107.5 43t-42.5 109t43 108t121 52l123 16v2q0 17 -18.5 28.5t-44.5 11.5q-23 0 -39.5 -11.5t-21.5 -30.5l-167 53q21 63 83 102t140 39q97 0 167.5 -56t70.5 -132v-323h-170v193z" />
    <glyph glyph-name="uni1EAE" unicode="&#x1eae;" horiz-adv-x="804" 
d="M569 1156l-113 109l-153 -168l89 -94zM402 778q-87 0 -148.5 56t-61.5 136h127q0 -33 24 -55t60 -22q37 0 63.5 22.5t26.5 54.5h127q0 -77 -65 -134.5t-153 -57.5zM217 297h375v-158h-375v158zM223 0h-196l262 700h224l264 -700h-196l-177 526z" />
    <glyph glyph-name="uni1EAF" unicode="&#x1eaf;" horiz-adv-x="537" 
d="M417 934l-113 109l-153 -168l89 -94zM252 569q-87 0 -148.5 56t-61.5 136h127q0 -33 24 -55t60 -22q37 0 63.5 22.5t26.5 54.5h127q0 -77 -65 -134.5t-153 -57.5zM317 193l-83 -11q-34 -5 -34 -24q0 -23 37 -23q35 0 57.5 15.5t22.5 39.5h35q0 -88 -48.5 -144.5
t-123.5 -56.5q-65 0 -107.5 43t-42.5 109t43 108t121 52l123 16v2q0 17 -18.5 28.5t-44.5 11.5q-23 0 -39.5 -11.5t-21.5 -30.5l-167 53q21 63 83 102t140 39q97 0 167.5 -56t70.5 -132v-323h-170v193z" />
    <glyph glyph-name="uni1EB0" unicode="&#x1eb0;" horiz-adv-x="804" 
d="M229 1156l113 99l163 -158l-109 -94zM402 778q-87 0 -148.5 56t-61.5 136h127q0 -33 24 -55t60 -22q37 0 63.5 22.5t26.5 54.5h127q0 -77 -65 -134.5t-153 -57.5zM217 297h375v-158h-375v158zM223 0h-196l262 700h224l264 -700h-196l-177 526z" />
    <glyph glyph-name="uni1EB1" unicode="&#x1eb1;" horiz-adv-x="537" 
d="M77 934l113 99l163 -158l-109 -94zM252 569q-87 0 -148.5 56t-61.5 136h127q0 -33 24 -55t60 -22q37 0 63.5 22.5t26.5 54.5h127q0 -77 -65 -134.5t-153 -57.5zM317 193l-83 -11q-34 -5 -34 -24q0 -23 37 -23q35 0 57.5 15.5t22.5 39.5h35q0 -88 -48.5 -144.5
t-123.5 -56.5q-65 0 -107.5 43t-42.5 109t43 108t121 52l123 16v2q0 17 -18.5 28.5t-44.5 11.5q-23 0 -39.5 -11.5t-21.5 -30.5l-167 53q21 63 83 102t140 39q97 0 167.5 -56t70.5 -132v-323h-170v193z" />
    <glyph glyph-name="uni1EB2" unicode="&#x1eb2;" horiz-adv-x="804" 
d="M415 983l-65 90l61 39q33 20 33 50q0 20 -13 32.5t-33 12.5q-37 0 -45 -36l-103 25q15 55 55 86.5t95 31.5q68 0 110.5 -42.5t42.5 -109.5q0 -45 -22 -77.5t-70 -69.5zM402 778q-87 0 -148.5 56t-61.5 136h127q0 -33 24 -55t60 -22q37 0 63.5 22.5t26.5 54.5h127
q0 -77 -65 -134.5t-153 -57.5zM217 297h375v-158h-375v158zM223 0h-196l262 700h224l264 -700h-196l-177 526z" />
    <glyph glyph-name="uni1EB3" unicode="&#x1eb3;" horiz-adv-x="537" 
d="M263 761l-65 90l61 39q33 20 33 50q0 20 -13 32.5t-33 12.5q-37 0 -45 -36l-103 25q15 55 55 86.5t95 31.5q68 0 110.5 -42.5t42.5 -109.5q0 -45 -22 -77.5t-70 -69.5zM252 569q-87 0 -148.5 56t-61.5 136h127q0 -33 24 -55t60 -22q37 0 63.5 22.5t26.5 54.5h127
q0 -77 -65 -134.5t-153 -57.5zM317 193l-83 -11q-34 -5 -34 -24q0 -23 37 -23q35 0 57.5 15.5t22.5 39.5h35q0 -88 -48.5 -144.5t-123.5 -56.5q-65 0 -107.5 43t-42.5 109t43 108t121 52l123 16v2q0 17 -18.5 28.5t-44.5 11.5q-23 0 -39.5 -11.5t-21.5 -30.5l-167 53
q21 63 83 102t140 39q97 0 167.5 -56t70.5 -132v-323h-170v193z" />
    <glyph glyph-name="uni1EB4" unicode="&#x1eb4;" horiz-adv-x="804" 
d="M327 1177q-118 0 -134 -150l104 -18q9 59 41 59q15 0 40 -19q62 -46 107 -46q58 0 91 39.5t41 110.5l-104 18q-10 -56 -45 -56q-20 0 -42 18q-30 24 -52 34t-47 10zM402 778q-87 0 -148.5 56t-61.5 136h127q0 -33 24 -55t60 -22q37 0 63.5 22.5t26.5 54.5h127
q0 -77 -65 -134.5t-153 -57.5zM217 297h375v-158h-375v158zM223 0h-196l262 700h224l264 -700h-196l-177 526z" />
    <glyph glyph-name="uni1EB5" unicode="&#x1eb5;" horiz-adv-x="537" 
d="M175 955q-118 0 -134 -150l104 -18q9 59 41 59q15 0 40 -19q62 -46 107 -46q58 0 91 39.5t41 110.5l-104 18q-10 -56 -45 -56q-20 0 -42 18q-30 24 -52 34t-47 10zM252 569q-87 0 -148.5 56t-61.5 136h127q0 -33 24 -55t60 -22q37 0 63.5 22.5t26.5 54.5h127
q0 -77 -65 -134.5t-153 -57.5zM317 193l-83 -11q-34 -5 -34 -24q0 -23 37 -23q35 0 57.5 15.5t22.5 39.5h35q0 -88 -48.5 -144.5t-123.5 -56.5q-65 0 -107.5 43t-42.5 109t43 108t121 52l123 16v2q0 17 -18.5 28.5t-44.5 11.5q-23 0 -39.5 -11.5t-21.5 -30.5l-167 53
q21 63 83 102t140 39q97 0 167.5 -56t70.5 -132v-323h-170v193z" />
    <glyph glyph-name="uni1EB6" unicode="&#x1eb6;" horiz-adv-x="804" 
d="M397 777q-87 0 -148.5 56t-61.5 136h127q0 -33 24 -55t60 -22q37 0 63.5 22.5t26.5 54.5h127q0 -77 -65 -134.5t-153 -57.5zM313 -160q0 42 28.5 70.5t70.5 28.5t70.5 -28.5t28.5 -70.5t-28.5 -70.5t-70.5 -28.5t-70.5 28.5t-28.5 70.5zM217 297h375v-158h-375v158z
M223 0h-196l262 700h224l264 -700h-196l-177 526z" />
    <glyph glyph-name="uni1EB7" unicode="&#x1eb7;" horiz-adv-x="537" 
d="M250 577q-87 0 -148.5 56t-61.5 136h127q0 -33 24 -55t60 -22q37 0 63.5 22.5t26.5 54.5h127q0 -77 -65 -134.5t-153 -57.5zM165 -160q0 42 28.5 70.5t70.5 28.5t70.5 -28.5t28.5 -70.5t-28.5 -70.5t-70.5 -28.5t-70.5 28.5t-28.5 70.5zM317 193l-83 -11q-34 -5 -34 -24
q0 -23 37 -23q35 0 57.5 15.5t22.5 39.5h35q0 -88 -48.5 -144.5t-123.5 -56.5q-65 0 -107.5 43t-42.5 109t43 108t121 52l123 16v2q0 17 -18.5 28.5t-44.5 11.5q-23 0 -39.5 -11.5t-21.5 -30.5l-167 53q21 63 83 102t140 39q97 0 167.5 -56t70.5 -132v-323h-170v193z" />
    <glyph glyph-name="uni1EB8" unicode="&#x1eb8;" horiz-adv-x="595" 
d="M225 -160q0 42 28.5 70.5t70.5 28.5t70.5 -28.5t28.5 -70.5t-28.5 -70.5t-70.5 -28.5t-70.5 28.5t-28.5 70.5zM220 435h316v-168h-316v-99h340v-168h-510v700h510v-168h-340v-97z" />
    <glyph glyph-name="uni1EB9" unicode="&#x1eb9;" horiz-adv-x="592" 
d="M187 -160q0 42 28.5 70.5t70.5 28.5t70.5 -28.5t28.5 -70.5t-28.5 -70.5t-70.5 -28.5t-70.5 28.5t-28.5 70.5zM388 317q-11 22 -35.5 35t-55.5 13q-63 0 -86 -48h177zM211 186q23 -49 87 -49q56 0 78 32l156 -59q-32 -59 -95 -93.5t-138 -34.5q-115 0 -192 77t-77 193
q0 115 74.5 191.5t186.5 76.5q113 0 192 -79t79 -193q0 -28 -6 -62h-345z" />
    <glyph glyph-name="uni1EBA" unicode="&#x1eba;" horiz-adv-x="595" 
d="M325 757l-65 90l61 39q33 20 33 50q0 20 -13 32.5t-33 12.5q-37 0 -45 -36l-103 25q15 55 55 86.5t95 31.5q68 0 110.5 -42.5t42.5 -109.5q0 -45 -22 -77.5t-70 -69.5zM220 435h316v-168h-316v-99h340v-168h-510v700h510v-168h-340v-97z" />
    <glyph glyph-name="uni1EBB" unicode="&#x1ebb;" horiz-adv-x="592" 
d="M293 548l-65 90l61 39q33 20 33 50q0 20 -13 32.5t-33 12.5q-37 0 -45 -36l-103 25q15 55 55 86.5t95 31.5q68 0 110.5 -42.5t42.5 -109.5q0 -45 -22 -77.5t-70 -69.5zM388 317q-11 22 -35.5 35t-55.5 13q-63 0 -86 -48h177zM211 186q23 -49 87 -49q56 0 78 32l156 -59
q-32 -59 -95 -93.5t-138 -34.5q-115 0 -192 77t-77 193q0 115 74.5 191.5t186.5 76.5q113 0 192 -79t79 -193q0 -28 -6 -62h-345z" />
    <glyph glyph-name="uni1EBC" unicode="&#x1ebc;" horiz-adv-x="595" 
d="M237 951q-118 0 -134 -150l104 -18q9 59 41 59q15 0 40 -19q62 -46 107 -46q58 0 91 39.5t41 110.5l-104 18q-10 -56 -45 -56q-20 0 -42 18q-30 24 -52 34t-47 10zM220 435h316v-168h-316v-99h340v-168h-510v700h510v-168h-340v-97z" />
    <glyph glyph-name="uni1EBD" unicode="&#x1ebd;" horiz-adv-x="592" 
d="M205 742q-118 0 -134 -150l104 -18q9 59 41 59q15 0 40 -19q62 -46 107 -46q58 0 91 39.5t41 110.5l-104 18q-10 -56 -45 -56q-20 0 -42 18q-30 24 -52 34t-47 10zM388 317q-11 22 -35.5 35t-55.5 13q-63 0 -86 -48h177zM211 186q23 -49 87 -49q56 0 78 32l156 -59
q-32 -59 -95 -93.5t-138 -34.5q-115 0 -192 77t-77 193q0 115 74.5 191.5t186.5 76.5q113 0 192 -79t79 -193q0 -28 -6 -62h-345z" />
    <glyph glyph-name="uni1EBE" unicode="&#x1ebe;" horiz-adv-x="595" 
d="M698 1105l-113 109l-153 -168l89 -94zM295 989l-184 -122l61 -100l143 97l143 -97l61 100l-184 122h-40zM220 435h316v-168h-316v-99h340v-168h-510v700h510v-168h-340v-97z" />
    <glyph glyph-name="uni1EBF" unicode="&#x1ebf;" horiz-adv-x="592" 
d="M636 944l-113 109l-153 -168l89 -94zM263 780l-184 -122l61 -100l143 97l143 -97l61 100l-184 122h-40zM388 317q-11 22 -35.5 35t-55.5 13q-63 0 -86 -48h177zM211 186q23 -49 87 -49q56 0 78 32l156 -59q-32 -59 -95 -93.5t-138 -34.5q-115 0 -192 77t-77 193
q0 115 74.5 191.5t186.5 76.5q113 0 192 -79t79 -193q0 -28 -6 -62h-345z" />
    <glyph glyph-name="uni1EC0" unicode="&#x1ec0;" horiz-adv-x="595" 
d="M358 1105l113 99l163 -158l-109 -94zM295 989l-184 -122l61 -100l143 97l143 -97l61 100l-184 122h-40zM220 435h316v-168h-316v-99h340v-168h-510v700h510v-168h-340v-97z" />
    <glyph glyph-name="uni1EC1" unicode="&#x1ec1;" horiz-adv-x="592" 
d="M296 944l113 99l163 -158l-109 -94zM263 780l-184 -122l61 -100l143 97l143 -97l61 100l-184 122h-40zM388 317q-11 22 -35.5 35t-55.5 13q-63 0 -86 -48h177zM211 186q23 -49 87 -49q56 0 78 32l156 -59q-32 -59 -95 -93.5t-138 -34.5q-115 0 -192 77t-77 193
q0 115 74.5 191.5t186.5 76.5q113 0 192 -79t79 -193q0 -28 -6 -62h-345z" />
    <glyph glyph-name="uni1EC2" unicode="&#x1ec2;" horiz-adv-x="595" 
d="M544 932l-65 90l61 39q33 20 33 50q0 20 -13 32.5t-33 12.5q-37 0 -45 -36l-103 25q15 55 55 86.5t95 31.5q68 0 110.5 -42.5t42.5 -109.5q0 -45 -22 -77.5t-70 -69.5zM295 989l-184 -122l61 -100l143 97l143 -97l61 100l-184 122h-40zM220 435h316v-168h-316v-99h340
v-168h-510v700h510v-168h-340v-97z" />
    <glyph glyph-name="uni1EC3" unicode="&#x1ec3;" horiz-adv-x="592" 
d="M482 771l-65 90l61 39q33 20 33 50q0 20 -13 32.5t-33 12.5q-37 0 -45 -36l-103 25q15 55 55 86.5t95 31.5q68 0 110.5 -42.5t42.5 -109.5q0 -45 -22 -77.5t-70 -69.5zM263 780l-184 -122l61 -100l143 97l143 -97l61 100l-184 122h-40zM388 317q-11 22 -35.5 35t-55.5 13
q-63 0 -86 -48h177zM211 186q23 -49 87 -49q56 0 78 32l156 -59q-32 -59 -95 -93.5t-138 -34.5q-115 0 -192 77t-77 193q0 115 74.5 191.5t186.5 76.5q113 0 192 -79t79 -193q0 -28 -6 -62h-345z" />
    <glyph glyph-name="uni1EC4" unicode="&#x1ec4;" horiz-adv-x="595" 
d="M207 1201q-118 0 -134 -150l104 -18q9 59 41 59q15 0 40 -19q62 -46 107 -46q58 0 91 39.5t41 110.5l-104 18q-10 -56 -45 -56q-20 0 -42 18q-30 24 -52 34t-47 10zM295 989l-184 -122l61 -100l143 97l143 -97l61 100l-184 122h-40zM220 435h316v-168h-316v-99h340v-168
h-510v700h510v-168h-340v-97z" />
    <glyph glyph-name="uni1EC5" unicode="&#x1ec5;" horiz-adv-x="592" 
d="M215 1002q-118 0 -134 -150l104 -18q9 59 41 59q15 0 40 -19q62 -46 107 -46q58 0 91 39.5t41 110.5l-104 18q-10 -56 -45 -56q-20 0 -42 18q-30 24 -52 34t-47 10zM263 780l-184 -122l61 -100l143 97l143 -97l61 100l-184 122h-40zM388 317q-11 22 -35.5 35t-55.5 13
q-63 0 -86 -48h177zM211 186q23 -49 87 -49q56 0 78 32l156 -59q-32 -59 -95 -93.5t-138 -34.5q-115 0 -192 77t-77 193q0 115 74.5 191.5t186.5 76.5q113 0 192 -79t79 -193q0 -28 -6 -62h-345z" />
    <glyph glyph-name="uni1EC6" unicode="&#x1ec6;" horiz-adv-x="595" 
d="M295 989l-184 -122l61 -100l143 97l143 -97l61 100l-184 122h-40zM225 -160q0 42 28.5 70.5t70.5 28.5t70.5 -28.5t28.5 -70.5t-28.5 -70.5t-70.5 -28.5t-70.5 28.5t-28.5 70.5zM220 435h316v-168h-316v-99h340v-168h-510v700h510v-168h-340v-97z" />
    <glyph glyph-name="uni1EC7" unicode="&#x1ec7;" horiz-adv-x="592" 
d="M263 780l-184 -122l61 -100l143 97l143 -97l61 100l-184 122h-40zM187 -160q0 42 28.5 70.5t70.5 28.5t70.5 -28.5t28.5 -70.5t-28.5 -70.5t-70.5 -28.5t-70.5 28.5t-28.5 70.5zM388 317q-11 22 -35.5 35t-55.5 13q-63 0 -86 -48h177zM211 186q23 -49 87 -49q56 0 78 32
l156 -59q-32 -59 -95 -93.5t-138 -34.5q-115 0 -192 77t-77 193q0 115 74.5 191.5t186.5 76.5q113 0 192 -79t79 -193q0 -28 -6 -62h-345z" />
    <glyph glyph-name="uni1EC8" unicode="&#x1ec8;" 
d="M145 757l-65 90l61 39q33 20 33 50q0 20 -13 32.5t-33 12.5q-37 0 -45 -36l-103 25q15 55 55 86.5t95 31.5q68 0 110.5 -42.5t42.5 -109.5q0 -45 -22 -77.5t-70 -69.5zM220 0h-170v700h170v-700z" />
    <glyph glyph-name="uni1EC9" unicode="&#x1ec9;" 
d="M145 548l-65 90l61 39q33 20 33 50q0 20 -13 32.5t-33 12.5q-37 0 -45 -36l-103 25q15 55 55 86.5t95 31.5q68 0 110.5 -42.5t42.5 -109.5q0 -45 -22 -77.5t-70 -69.5zM50 0v500h170v-500h-170z" />
    <glyph glyph-name="uni1ECA" unicode="&#x1eca;" 
d="M36 -160q0 42 28.5 70.5t70.5 28.5t70.5 -28.5t28.5 -70.5t-28.5 -70.5t-70.5 -28.5t-70.5 28.5t-28.5 70.5zM220 0h-170v700h170v-700z" />
    <glyph glyph-name="uni1ECB" unicode="&#x1ecb;" horiz-adv-x="262" 
d="M32 -160q0 42 28.5 70.5t70.5 28.5t70.5 -28.5t28.5 -70.5t-28.5 -70.5t-70.5 -28.5t-70.5 28.5t-28.5 70.5zM32 651q0 42 28.5 70.5t70.5 28.5t70.5 -28.5t28.5 -70.5t-28.5 -70.5t-70.5 -28.5t-70.5 28.5t-28.5 70.5zM46 0v500h170v-500h-170z" />
    <glyph glyph-name="uni1ECC" unicode="&#x1ecc;" horiz-adv-x="788" 
d="M295 -160q0 42 28.5 70.5t70.5 28.5t70.5 -28.5t28.5 -70.5t-28.5 -70.5t-70.5 -28.5t-70.5 28.5t-28.5 70.5zM200 353q0 -88 56 -144.5t138 -56.5t138 56.5t56 144.5q0 86 -56.5 141.5t-137.5 55.5t-137.5 -55.5t-56.5 -141.5zM30 353q0 160 105.5 263.5t258.5 103.5
t258.5 -103.5t105.5 -263.5q0 -161 -105.5 -266t-258.5 -105t-258.5 105t-105.5 266z" />
    <glyph glyph-name="uni1ECD" unicode="&#x1ecd;" horiz-adv-x="618" 
d="M208 -160q0 42 28.5 70.5t70.5 28.5t70.5 -28.5t28.5 -70.5t-28.5 -70.5t-70.5 -28.5t-70.5 28.5t-28.5 70.5zM200 251q0 -48 31.5 -78.5t77.5 -30.5t77.5 30.5t31.5 78.5t-31.5 78.5t-77.5 30.5t-77.5 -30.5t-31.5 -78.5zM30 251q0 117 81 193t198 76t198 -76t81 -193
t-81 -193t-198 -76t-198 76t-81 193z" />
    <glyph glyph-name="uni1ECE" unicode="&#x1ece;" horiz-adv-x="788" 
d="M404 757l-65 90l61 39q33 20 33 50q0 20 -13 32.5t-33 12.5q-37 0 -45 -36l-103 25q15 55 55 86.5t95 31.5q68 0 110.5 -42.5t42.5 -109.5q0 -45 -22 -77.5t-70 -69.5zM200 353q0 -88 56 -144.5t138 -56.5t138 56.5t56 144.5q0 86 -56.5 141.5t-137.5 55.5t-137.5 -55.5
t-56.5 -141.5zM30 353q0 160 105.5 263.5t258.5 103.5t258.5 -103.5t105.5 -263.5q0 -161 -105.5 -266t-258.5 -105t-258.5 105t-105.5 266z" />
    <glyph glyph-name="uni1ECF" unicode="&#x1ecf;" horiz-adv-x="618" 
d="M318 548l-65 90l61 39q33 20 33 50q0 20 -13 32.5t-33 12.5q-37 0 -45 -36l-103 25q15 55 55 86.5t95 31.5q68 0 110.5 -42.5t42.5 -109.5q0 -45 -22 -77.5t-70 -69.5zM200 251q0 -48 31.5 -78.5t77.5 -30.5t77.5 30.5t31.5 78.5t-31.5 78.5t-77.5 30.5t-77.5 -30.5
t-31.5 -78.5zM30 251q0 117 81 193t198 76t198 -76t81 -193t-81 -193t-198 -76t-198 76t-81 193z" />
    <glyph glyph-name="uni1ED0" unicode="&#x1ed0;" horiz-adv-x="788" 
d="M798 1123l-113 109l-153 -168l89 -94zM374 989l-184 -122l61 -100l143 97l143 -97l61 100l-184 122h-40zM200 353q0 -88 56 -144.5t138 -56.5t138 56.5t56 144.5q0 86 -56.5 141.5t-137.5 55.5t-137.5 -55.5t-56.5 -141.5zM30 353q0 160 105.5 263.5t258.5 103.5
t258.5 -103.5t105.5 -263.5q0 -161 -105.5 -266t-258.5 -105t-258.5 105t-105.5 266z" />
    <glyph glyph-name="uni1ED1" unicode="&#x1ed1;" horiz-adv-x="618" 
d="M654 944l-113 109l-153 -168l89 -94zM288 780l-184 -122l61 -100l143 97l143 -97l61 100l-184 122h-40zM200 251q0 -48 31.5 -78.5t77.5 -30.5t77.5 30.5t31.5 78.5t-31.5 78.5t-77.5 30.5t-77.5 -30.5t-31.5 -78.5zM30 251q0 117 81 193t198 76t198 -76t81 -193
t-81 -193t-198 -76t-198 76t-81 193z" />
    <glyph glyph-name="uni1ED2" unicode="&#x1ed2;" horiz-adv-x="788" 
d="M458 1123l113 99l163 -158l-109 -94zM374 989l-184 -122l61 -100l143 97l143 -97l61 100l-184 122h-40zM200 353q0 -88 56 -144.5t138 -56.5t138 56.5t56 144.5q0 86 -56.5 141.5t-137.5 55.5t-137.5 -55.5t-56.5 -141.5zM30 353q0 160 105.5 263.5t258.5 103.5
t258.5 -103.5t105.5 -263.5q0 -161 -105.5 -266t-258.5 -105t-258.5 105t-105.5 266z" />
    <glyph glyph-name="uni1ED3" unicode="&#x1ed3;" horiz-adv-x="618" 
d="M314 944l113 99l163 -158l-109 -94zM288 780l-184 -122l61 -100l143 97l143 -97l61 100l-184 122h-40zM200 251q0 -48 31.5 -78.5t77.5 -30.5t77.5 30.5t31.5 78.5t-31.5 78.5t-77.5 30.5t-77.5 -30.5t-31.5 -78.5zM30 251q0 117 81 193t198 76t198 -76t81 -193t-81 -193
t-198 -76t-198 76t-81 193z" />
    <glyph glyph-name="uni1ED4" unicode="&#x1ed4;" horiz-adv-x="788" 
d="M644 950l-65 90l61 39q33 20 33 50q0 20 -13 32.5t-33 12.5q-37 0 -45 -36l-103 25q15 55 55 86.5t95 31.5q68 0 110.5 -42.5t42.5 -109.5q0 -45 -22 -77.5t-70 -69.5zM374 989l-184 -122l61 -100l143 97l143 -97l61 100l-184 122h-40zM200 353q0 -88 56 -144.5
t138 -56.5t138 56.5t56 144.5q0 86 -56.5 141.5t-137.5 55.5t-137.5 -55.5t-56.5 -141.5zM30 353q0 160 105.5 263.5t258.5 103.5t258.5 -103.5t105.5 -263.5q0 -161 -105.5 -266t-258.5 -105t-258.5 105t-105.5 266z" />
    <glyph glyph-name="uni1ED5" unicode="&#x1ed5;" horiz-adv-x="618" 
d="M500 771l-65 90l61 39q33 20 33 50q0 20 -13 32.5t-33 12.5q-37 0 -45 -36l-103 25q15 55 55 86.5t95 31.5q68 0 110.5 -42.5t42.5 -109.5q0 -45 -22 -77.5t-70 -69.5zM288 780l-184 -122l61 -100l143 97l143 -97l61 100l-184 122h-40zM200 251q0 -48 31.5 -78.5
t77.5 -30.5t77.5 30.5t31.5 78.5t-31.5 78.5t-77.5 30.5t-77.5 -30.5t-31.5 -78.5zM30 251q0 117 81 193t198 76t198 -76t81 -193t-81 -193t-198 -76t-198 76t-81 193z" />
    <glyph glyph-name="uni1ED6" unicode="&#x1ed6;" horiz-adv-x="788" 
d="M316 1201q-118 0 -134 -150l104 -18q9 59 41 59q15 0 40 -19q62 -46 107 -46q58 0 91 39.5t41 110.5l-104 18q-10 -56 -45 -56q-20 0 -42 18q-30 24 -52 34t-47 10zM374 989l-184 -122l61 -100l143 97l143 -97l61 100l-184 122h-40zM200 353q0 -88 56 -144.5t138 -56.5
t138 56.5t56 144.5q0 86 -56.5 141.5t-137.5 55.5t-137.5 -55.5t-56.5 -141.5zM30 353q0 160 105.5 263.5t258.5 103.5t258.5 -103.5t105.5 -263.5q0 -161 -105.5 -266t-258.5 -105t-258.5 105t-105.5 266z" />
    <glyph glyph-name="uni1ED7" unicode="&#x1ed7;" horiz-adv-x="618" 
d="M230 1002q-118 0 -134 -150l104 -18q9 59 41 59q15 0 40 -19q62 -46 107 -46q58 0 91 39.5t41 110.5l-104 18q-10 -56 -45 -56q-20 0 -42 18q-30 24 -52 34t-47 10zM288 780l-184 -122l61 -100l143 97l143 -97l61 100l-184 122h-40zM200 251q0 -48 31.5 -78.5t77.5 -30.5
t77.5 30.5t31.5 78.5t-31.5 78.5t-77.5 30.5t-77.5 -30.5t-31.5 -78.5zM30 251q0 117 81 193t198 76t198 -76t81 -193t-81 -193t-198 -76t-198 76t-81 193z" />
    <glyph glyph-name="uni1ED8" unicode="&#x1ed8;" horiz-adv-x="788" 
d="M374 989l-184 -122l61 -100l143 97l143 -97l61 100l-184 122h-40zM295 -160q0 42 28.5 70.5t70.5 28.5t70.5 -28.5t28.5 -70.5t-28.5 -70.5t-70.5 -28.5t-70.5 28.5t-28.5 70.5zM200 353q0 -88 56 -144.5t138 -56.5t138 56.5t56 144.5q0 86 -56.5 141.5t-137.5 55.5
t-137.5 -55.5t-56.5 -141.5zM30 353q0 160 105.5 263.5t258.5 103.5t258.5 -103.5t105.5 -263.5q0 -161 -105.5 -266t-258.5 -105t-258.5 105t-105.5 266z" />
    <glyph glyph-name="uni1ED9" unicode="&#x1ed9;" horiz-adv-x="618" 
d="M288 780l-184 -122l61 -100l143 97l143 -97l61 100l-184 122h-40zM208 -160q0 42 28.5 70.5t70.5 28.5t70.5 -28.5t28.5 -70.5t-28.5 -70.5t-70.5 -28.5t-70.5 28.5t-28.5 70.5zM200 251q0 -48 31.5 -78.5t77.5 -30.5t77.5 30.5t31.5 78.5t-31.5 78.5t-77.5 30.5
t-77.5 -30.5t-31.5 -78.5zM30 251q0 117 81 193t198 76t198 -76t81 -193t-81 -193t-198 -76t-198 76t-81 193z" />
    <glyph glyph-name="uni1EDA" unicode="&#x1eda;" horiz-adv-x="812" 
d="M558 930l-113 109l-153 -168l89 -94zM569 558v103h60q45 0 45 37q0 26 -28 48l89 73q57 -34 57 -110q0 -63 -37.5 -107t-89.5 -44h-96zM200 353q0 -88 56 -144.5t138 -56.5t138 56.5t56 144.5q0 86 -56.5 141.5t-137.5 55.5t-137.5 -55.5t-56.5 -141.5zM30 353
q0 160 105.5 263.5t258.5 103.5t258.5 -103.5t105.5 -263.5q0 -161 -105.5 -266t-258.5 -105t-258.5 105t-105.5 266z" />
    <glyph glyph-name="uni1EDB" unicode="&#x1edb;" horiz-adv-x="706" 
d="M472 721l-113 109l-153 -168l89 -94zM468 350v103h60q45 0 45 37q0 26 -28 48l89 73q57 -34 57 -110q0 -63 -37.5 -107t-89.5 -44h-96zM200 251q0 -48 31.5 -78.5t77.5 -30.5t77.5 30.5t31.5 78.5t-31.5 78.5t-77.5 30.5t-77.5 -30.5t-31.5 -78.5zM30 251q0 117 81 193
t198 76t198 -76t81 -193t-81 -193t-198 -76t-198 76t-81 193z" />
    <glyph glyph-name="uni1EDC" unicode="&#x1edc;" horiz-adv-x="812" 
d="M218 930l113 99l163 -158l-109 -94zM569 558v103h60q45 0 45 37q0 26 -28 48l89 73q57 -34 57 -110q0 -63 -37.5 -107t-89.5 -44h-96zM200 353q0 -88 56 -144.5t138 -56.5t138 56.5t56 144.5q0 86 -56.5 141.5t-137.5 55.5t-137.5 -55.5t-56.5 -141.5zM30 353
q0 160 105.5 263.5t258.5 103.5t258.5 -103.5t105.5 -263.5q0 -161 -105.5 -266t-258.5 -105t-258.5 105t-105.5 266z" />
    <glyph glyph-name="uni1EDD" unicode="&#x1edd;" horiz-adv-x="706" 
d="M132 721l113 99l163 -158l-109 -94zM468 350v103h60q45 0 45 37q0 26 -28 48l89 73q57 -34 57 -110q0 -63 -37.5 -107t-89.5 -44h-96zM200 251q0 -48 31.5 -78.5t77.5 -30.5t77.5 30.5t31.5 78.5t-31.5 78.5t-77.5 30.5t-77.5 -30.5t-31.5 -78.5zM30 251q0 117 81 193
t198 76t198 -76t81 -193t-81 -193t-198 -76t-198 76t-81 193z" />
    <glyph glyph-name="uni1EDE" unicode="&#x1ede;" horiz-adv-x="812" 
d="M404 757l-65 90l61 39q33 20 33 50q0 20 -13 32.5t-33 12.5q-37 0 -45 -36l-103 25q15 55 55 86.5t95 31.5q68 0 110.5 -42.5t42.5 -109.5q0 -45 -22 -77.5t-70 -69.5zM569 558v103h60q45 0 45 37q0 26 -28 48l89 73q57 -34 57 -110q0 -63 -37.5 -107t-89.5 -44h-96z
M200 353q0 -88 56 -144.5t138 -56.5t138 56.5t56 144.5q0 86 -56.5 141.5t-137.5 55.5t-137.5 -55.5t-56.5 -141.5zM30 353q0 160 105.5 263.5t258.5 103.5t258.5 -103.5t105.5 -263.5q0 -161 -105.5 -266t-258.5 -105t-258.5 105t-105.5 266z" />
    <glyph glyph-name="uni1EDF" unicode="&#x1edf;" horiz-adv-x="706" 
d="M318 548l-65 90l61 39q33 20 33 50q0 20 -13 32.5t-33 12.5q-37 0 -45 -36l-103 25q15 55 55 86.5t95 31.5q68 0 110.5 -42.5t42.5 -109.5q0 -45 -22 -77.5t-70 -69.5zM468 350v103h60q45 0 45 37q0 26 -28 48l89 73q57 -34 57 -110q0 -63 -37.5 -107t-89.5 -44h-96z
M200 251q0 -48 31.5 -78.5t77.5 -30.5t77.5 30.5t31.5 78.5t-31.5 78.5t-77.5 30.5t-77.5 -30.5t-31.5 -78.5zM30 251q0 117 81 193t198 76t198 -76t81 -193t-81 -193t-198 -76t-198 76t-81 193z" />
    <glyph glyph-name="uni1EE0" unicode="&#x1ee0;" horiz-adv-x="812" 
d="M316 951q-118 0 -134 -150l104 -18q9 59 41 59q15 0 40 -19q62 -46 107 -46q58 0 91 39.5t41 110.5l-104 18q-10 -56 -45 -56q-20 0 -42 18q-30 24 -52 34t-47 10zM569 558v103h60q45 0 45 37q0 26 -28 48l89 73q57 -34 57 -110q0 -63 -37.5 -107t-89.5 -44h-96zM200 353
q0 -88 56 -144.5t138 -56.5t138 56.5t56 144.5q0 86 -56.5 141.5t-137.5 55.5t-137.5 -55.5t-56.5 -141.5zM30 353q0 160 105.5 263.5t258.5 103.5t258.5 -103.5t105.5 -263.5q0 -161 -105.5 -266t-258.5 -105t-258.5 105t-105.5 266z" />
    <glyph glyph-name="uni1EE1" unicode="&#x1ee1;" horiz-adv-x="706" 
d="M230 742q-118 0 -134 -150l104 -18q9 59 41 59q15 0 40 -19q62 -46 107 -46q58 0 91 39.5t41 110.5l-104 18q-10 -56 -45 -56q-20 0 -42 18q-30 24 -52 34t-47 10zM468 350v103h60q45 0 45 37q0 26 -28 48l89 73q57 -34 57 -110q0 -63 -37.5 -107t-89.5 -44h-96zM200 251
q0 -48 31.5 -78.5t77.5 -30.5t77.5 30.5t31.5 78.5t-31.5 78.5t-77.5 30.5t-77.5 -30.5t-31.5 -78.5zM30 251q0 117 81 193t198 76t198 -76t81 -193t-81 -193t-198 -76t-198 76t-81 193z" />
    <glyph glyph-name="uni1EE2" unicode="&#x1ee2;" horiz-adv-x="812" 
d="M295 -160q0 42 28.5 70.5t70.5 28.5t70.5 -28.5t28.5 -70.5t-28.5 -70.5t-70.5 -28.5t-70.5 28.5t-28.5 70.5zM569 558v103h60q45 0 45 37q0 26 -28 48l89 73q57 -34 57 -110q0 -63 -37.5 -107t-89.5 -44h-96zM200 353q0 -88 56 -144.5t138 -56.5t138 56.5t56 144.5
q0 86 -56.5 141.5t-137.5 55.5t-137.5 -55.5t-56.5 -141.5zM30 353q0 160 105.5 263.5t258.5 103.5t258.5 -103.5t105.5 -263.5q0 -161 -105.5 -266t-258.5 -105t-258.5 105t-105.5 266z" />
    <glyph glyph-name="uni1EE3" unicode="&#x1ee3;" horiz-adv-x="706" 
d="M208 -160q0 42 28.5 70.5t70.5 28.5t70.5 -28.5t28.5 -70.5t-28.5 -70.5t-70.5 -28.5t-70.5 28.5t-28.5 70.5zM468 350v103h60q45 0 45 37q0 26 -28 48l89 73q57 -34 57 -110q0 -63 -37.5 -107t-89.5 -44h-96zM200 251q0 -48 31.5 -78.5t77.5 -30.5t77.5 30.5t31.5 78.5
t-31.5 78.5t-77.5 30.5t-77.5 -30.5t-31.5 -78.5zM30 251q0 117 81 193t198 76t198 -76t81 -193t-81 -193t-198 -76t-198 76t-81 193z" />
    <glyph glyph-name="uni1EE4" unicode="&#x1ee4;" horiz-adv-x="690" 
d="M245 -160q0 42 28.5 70.5t70.5 28.5t70.5 -28.5t28.5 -70.5t-28.5 -70.5t-70.5 -28.5t-70.5 28.5t-28.5 70.5zM345 -11q-125 0 -210 84.5t-85 213.5v413h170v-403q0 -65 35 -101.5t90 -36.5t90 36.5t35 101.5v403h170v-413q0 -129 -85 -213.5t-210 -84.5z" />
    <glyph glyph-name="uni1EE5" unicode="&#x1ee5;" horiz-adv-x="568" 
d="M175 -160q0 42 28.5 70.5t70.5 28.5t70.5 -28.5t28.5 -70.5t-28.5 -70.5t-70.5 -28.5t-70.5 28.5t-28.5 70.5zM518 500v-500h-170v500h170zM220 500v-283q0 -32 17.5 -50t45.5 -18q27 0 46 17t19 41h58q0 -94 -51.5 -156t-129.5 -62q-76 0 -125.5 50t-49.5 138v323h170z
" />
    <glyph glyph-name="uni1EE6" unicode="&#x1ee6;" horiz-adv-x="690" 
d="M355 757l-65 90l61 39q33 20 33 50q0 20 -13 32.5t-33 12.5q-37 0 -45 -36l-103 25q15 55 55 86.5t95 31.5q68 0 110.5 -42.5t42.5 -109.5q0 -45 -22 -77.5t-70 -69.5zM345 -11q-125 0 -210 84.5t-85 213.5v413h170v-403q0 -65 35 -101.5t90 -36.5t90 36.5t35 101.5v403
h170v-413q0 -129 -85 -213.5t-210 -84.5z" />
    <glyph glyph-name="uni1EE7" unicode="&#x1ee7;" horiz-adv-x="568" 
d="M286 548l-65 90l61 39q33 20 33 50q0 20 -13 32.5t-33 12.5q-37 0 -45 -36l-103 25q15 55 55 86.5t95 31.5q68 0 110.5 -42.5t42.5 -109.5q0 -45 -22 -77.5t-70 -69.5zM518 500v-500h-170v500h170zM220 500v-283q0 -32 17.5 -50t45.5 -18q27 0 46 17t19 41h58
q0 -94 -51.5 -156t-129.5 -62q-76 0 -125.5 50t-49.5 138v323h170z" />
    <glyph glyph-name="uni1EE8" unicode="&#x1ee8;" horiz-adv-x="830" 
d="M509 930l-113 109l-153 -168l89 -94zM589 558v103h60q45 0 45 37q0 26 -28 48l89 73q57 -34 57 -110q0 -63 -37.5 -107t-89.5 -44h-96zM345 -11q-125 0 -210 84.5t-85 213.5v413h170v-403q0 -65 35 -101.5t90 -36.5t90 36.5t35 101.5v403h170v-413q0 -129 -85 -213.5
t-210 -84.5z" />
    <glyph glyph-name="uni1EE9" unicode="&#x1ee9;" horiz-adv-x="704" 
d="M440 721l-113 109l-153 -168l89 -94zM478 350v103h60q45 0 45 37q0 26 -28 48l89 73q57 -34 57 -110q0 -63 -37.5 -107t-89.5 -44h-96zM518 500v-500h-170v500h170zM220 500v-283q0 -32 17.5 -50t45.5 -18q27 0 46 17t19 41h58q0 -94 -51.5 -156t-129.5 -62
q-76 0 -125.5 50t-49.5 138v323h170z" />
    <glyph glyph-name="uni1EEA" unicode="&#x1eea;" horiz-adv-x="830" 
d="M169 930l113 99l163 -158l-109 -94zM589 558v103h60q45 0 45 37q0 26 -28 48l89 73q57 -34 57 -110q0 -63 -37.5 -107t-89.5 -44h-96zM345 -11q-125 0 -210 84.5t-85 213.5v413h170v-403q0 -65 35 -101.5t90 -36.5t90 36.5t35 101.5v403h170v-413q0 -129 -85 -213.5
t-210 -84.5z" />
    <glyph glyph-name="uni1EEB" unicode="&#x1eeb;" horiz-adv-x="704" 
d="M100 721l113 99l163 -158l-109 -94zM478 350v103h60q45 0 45 37q0 26 -28 48l89 73q57 -34 57 -110q0 -63 -37.5 -107t-89.5 -44h-96zM518 500v-500h-170v500h170zM220 500v-283q0 -32 17.5 -50t45.5 -18q27 0 46 17t19 41h58q0 -94 -51.5 -156t-129.5 -62
q-76 0 -125.5 50t-49.5 138v323h170z" />
    <glyph glyph-name="uni1EEC" unicode="&#x1eec;" horiz-adv-x="830" 
d="M355 757l-65 90l61 39q33 20 33 50q0 20 -13 32.5t-33 12.5q-37 0 -45 -36l-103 25q15 55 55 86.5t95 31.5q68 0 110.5 -42.5t42.5 -109.5q0 -45 -22 -77.5t-70 -69.5zM589 558v103h60q45 0 45 37q0 26 -28 48l89 73q57 -34 57 -110q0 -63 -37.5 -107t-89.5 -44h-96z
M345 -11q-125 0 -210 84.5t-85 213.5v413h170v-403q0 -65 35 -101.5t90 -36.5t90 36.5t35 101.5v403h170v-413q0 -129 -85 -213.5t-210 -84.5z" />
    <glyph glyph-name="uni1EED" unicode="&#x1eed;" horiz-adv-x="704" 
d="M286 548l-65 90l61 39q33 20 33 50q0 20 -13 32.5t-33 12.5q-37 0 -45 -36l-103 25q15 55 55 86.5t95 31.5q68 0 110.5 -42.5t42.5 -109.5q0 -45 -22 -77.5t-70 -69.5zM478 350v103h60q45 0 45 37q0 26 -28 48l89 73q57 -34 57 -110q0 -63 -37.5 -107t-89.5 -44h-96z
M518 500v-500h-170v500h170zM220 500v-283q0 -32 17.5 -50t45.5 -18q27 0 46 17t19 41h58q0 -94 -51.5 -156t-129.5 -62q-76 0 -125.5 50t-49.5 138v323h170z" />
    <glyph glyph-name="uni1EEE" unicode="&#x1eee;" horiz-adv-x="830" 
d="M267 951q-118 0 -134 -150l104 -18q9 59 41 59q15 0 40 -19q62 -46 107 -46q58 0 91 39.5t41 110.5l-104 18q-10 -56 -45 -56q-20 0 -42 18q-30 24 -52 34t-47 10zM589 558v103h60q45 0 45 37q0 26 -28 48l89 73q57 -34 57 -110q0 -63 -37.5 -107t-89.5 -44h-96zM345 -11
q-125 0 -210 84.5t-85 213.5v413h170v-403q0 -65 35 -101.5t90 -36.5t90 36.5t35 101.5v403h170v-413q0 -129 -85 -213.5t-210 -84.5z" />
    <glyph glyph-name="uni1EEF" unicode="&#x1eef;" horiz-adv-x="704" 
d="M198 742q-118 0 -134 -150l104 -18q9 59 41 59q15 0 40 -19q62 -46 107 -46q58 0 91 39.5t41 110.5l-104 18q-10 -56 -45 -56q-20 0 -42 18q-30 24 -52 34t-47 10zM478 350v103h60q45 0 45 37q0 26 -28 48l89 73q57 -34 57 -110q0 -63 -37.5 -107t-89.5 -44h-96zM518 500
v-500h-170v500h170zM220 500v-283q0 -32 17.5 -50t45.5 -18q27 0 46 17t19 41h58q0 -94 -51.5 -156t-129.5 -62q-76 0 -125.5 50t-49.5 138v323h170z" />
    <glyph glyph-name="uni1EF0" unicode="&#x1ef0;" horiz-adv-x="830" 
d="M245 -160q0 42 28.5 70.5t70.5 28.5t70.5 -28.5t28.5 -70.5t-28.5 -70.5t-70.5 -28.5t-70.5 28.5t-28.5 70.5zM589 558v103h60q45 0 45 37q0 26 -28 48l89 73q57 -34 57 -110q0 -63 -37.5 -107t-89.5 -44h-96zM345 -11q-125 0 -210 84.5t-85 213.5v413h170v-403
q0 -65 35 -101.5t90 -36.5t90 36.5t35 101.5v403h170v-413q0 -129 -85 -213.5t-210 -84.5z" />
    <glyph glyph-name="uni1EF1" unicode="&#x1ef1;" horiz-adv-x="704" 
d="M175 -160q0 42 28.5 70.5t70.5 28.5t70.5 -28.5t28.5 -70.5t-28.5 -70.5t-70.5 -28.5t-70.5 28.5t-28.5 70.5zM478 350v103h60q45 0 45 37q0 26 -28 48l89 73q57 -34 57 -110q0 -63 -37.5 -107t-89.5 -44h-96zM518 500v-500h-170v500h170zM220 500v-283q0 -32 17.5 -50
t45.5 -18q27 0 46 17t19 41h58q0 -94 -51.5 -156t-129.5 -62q-76 0 -125.5 50t-49.5 138v323h170z" />
    <glyph glyph-name="Ygrave" unicode="&#x1ef2;" horiz-adv-x="698" 
d="M180 930l113 99l163 -158l-109 -94zM274 0h170v220l231 480h-199l-117 -272l-136 272h-200l251 -480v-220z" />
    <glyph glyph-name="ygrave" unicode="&#x1ef3;" horiz-adv-x="624" 
d="M135 721l113 99l163 -158l-109 -94zM418 500l-106 -310l-106 310h-179l190 -490l-75 -210h179l276 700h-179z" />
    <glyph glyph-name="uni1EF4" unicode="&#x1ef4;" horiz-adv-x="698" 
d="M261 -160q0 42 28.5 70.5t70.5 28.5t70.5 -28.5t28.5 -70.5t-28.5 -70.5t-70.5 -28.5t-70.5 28.5t-28.5 70.5zM274 0h170v220l231 480h-199l-117 -272l-136 272h-200l251 -480v-220z" />
    <glyph glyph-name="uni1EF5" unicode="&#x1ef5;" horiz-adv-x="624" 
d="M410 -160q0 42 28.5 70.5t70.5 28.5t70.5 -28.5t28.5 -70.5t-28.5 -70.5t-70.5 -28.5t-70.5 28.5t-28.5 70.5zM418 500l-106 -310l-106 310h-179l190 -490l-75 -210h179l276 700h-179z" />
    <glyph glyph-name="uni1EF6" unicode="&#x1ef6;" horiz-adv-x="698" 
d="M366 757l-65 90l61 39q33 20 33 50q0 20 -13 32.5t-33 12.5q-37 0 -45 -36l-103 25q15 55 55 86.5t95 31.5q68 0 110.5 -42.5t42.5 -109.5q0 -45 -22 -77.5t-70 -69.5zM274 0h170v220l231 480h-199l-117 -272l-136 272h-200l251 -480v-220z" />
    <glyph glyph-name="uni1EF7" unicode="&#x1ef7;" horiz-adv-x="624" 
d="M321 548l-65 90l61 39q33 20 33 50q0 20 -13 32.5t-33 12.5q-37 0 -45 -36l-103 25q15 55 55 86.5t95 31.5q68 0 110.5 -42.5t42.5 -109.5q0 -45 -22 -77.5t-70 -69.5zM418 500l-106 -310l-106 310h-179l190 -490l-75 -210h179l276 700h-179z" />
    <glyph glyph-name="uni1EF8" unicode="&#x1ef8;" horiz-adv-x="698" 
d="M278 951q-118 0 -134 -150l104 -18q9 59 41 59q15 0 40 -19q62 -46 107 -46q58 0 91 39.5t41 110.5l-104 18q-10 -56 -45 -56q-20 0 -42 18q-30 24 -52 34t-47 10zM274 0h170v220l231 480h-199l-117 -272l-136 272h-200l251 -480v-220z" />
    <glyph glyph-name="uni1EF9" unicode="&#x1ef9;" horiz-adv-x="624" 
d="M233 742q-118 0 -134 -150l104 -18q9 59 41 59q15 0 40 -19q62 -46 107 -46q58 0 91 39.5t41 110.5l-104 18q-10 -56 -45 -56q-20 0 -42 18q-30 24 -52 34t-47 10zM418 500l-106 -310l-106 310h-179l190 -490l-75 -210h179l276 700h-179z" />
    <glyph glyph-name="uni2010" unicode="&#x2010;" horiz-adv-x="392" 
d="M367 340v-147h-342v147h342z" />
    <glyph glyph-name="endash" unicode="&#x2013;" horiz-adv-x="572" 
d="M547 340v-147h-522v147h522z" />
    <glyph glyph-name="emdash" unicode="&#x2014;" horiz-adv-x="911" 
d="M886 340v-147h-861v147h861z" />
    <glyph glyph-name="quoteleft" unicode="&#x2018;" horiz-adv-x="257" 
d="M228 700q-47 -9 -77.5 -41t-30.5 -72q8 4 27 4q36 0 60.5 -26t24.5 -63t-26.5 -61t-66.5 -24q-54 0 -86 50q-23 36 -23 91q0 71 45 138t107 87z" />
    <glyph glyph-name="quoteright" unicode="&#x2019;" horiz-adv-x="257" 
d="M34 500q47 9 77.5 41t30.5 72q-8 -4 -27 -4q-36 0 -60.5 26t-24.5 63t26.5 61t66.5 24q54 0 86 -50q23 -36 23 -91q0 -71 -45 -138t-107 -87z" />
    <glyph glyph-name="quotesinglbase" unicode="&#x201a;" horiz-adv-x="257" 
d="M34 -120q47 9 77.5 41t30.5 72q-8 -4 -27 -4q-36 0 -60.5 26t-24.5 63t26.5 61t66.5 24q54 0 86 -50q23 -36 23 -91q0 -71 -45 -138t-107 -87z" />
    <glyph glyph-name="quotereversed" unicode="&#x201b;" horiz-adv-x="257" 
d="M228 500l-46 -83q-62 20 -107 87t-45 138q0 55 23 91q32 50 86 50q40 0 66.5 -24t26.5 -61t-24.5 -63t-60.5 -26q-19 0 -27 4q0 -40 30.5 -72t77.5 -41z" />
    <glyph glyph-name="quotedblleft" unicode="&#x201c;" horiz-adv-x="487" 
d="M458 700q-47 -9 -77.5 -41t-30.5 -72q8 4 27 4q36 0 60.5 -26t24.5 -63t-26.5 -61t-66.5 -24q-54 0 -86 50q-23 36 -23 91q0 71 45 138t107 87zM228 700q-47 -9 -77.5 -41t-30.5 -72q8 4 27 4q36 0 60.5 -26t24.5 -63t-26.5 -61t-66.5 -24q-54 0 -86 50q-23 36 -23 91
q0 71 45 138t107 87z" />
    <glyph glyph-name="quotedblright" unicode="&#x201d;" horiz-adv-x="487" 
d="M34 500q47 9 77.5 41t30.5 72q-8 -4 -27 -4q-36 0 -60.5 26t-24.5 63t26.5 61t66.5 24q54 0 86 -50q23 -36 23 -91q0 -71 -45 -138t-107 -87zM264 500q47 9 77.5 41t30.5 72q-8 -4 -27 -4q-36 0 -60.5 26t-24.5 63t26.5 61t66.5 24q54 0 86 -50q23 -36 23 -91
q0 -71 -45 -138t-107 -87z" />
    <glyph glyph-name="quotedblbase" unicode="&#x201e;" horiz-adv-x="487" 
d="M34 -120q47 9 77.5 41t30.5 72q-8 -4 -27 -4q-36 0 -60.5 26t-24.5 63t26.5 61t66.5 24q54 0 86 -50q23 -36 23 -91q0 -71 -45 -138t-107 -87zM264 -120q47 9 77.5 41t30.5 72q-8 -4 -27 -4q-36 0 -60.5 26t-24.5 63t26.5 61t66.5 24q54 0 86 -50q23 -36 23 -91
q0 -71 -45 -138t-107 -87z" />
    <glyph glyph-name="uni201F" unicode="&#x201f;" horiz-adv-x="487" 
d="M458 500l-46 -83q-62 20 -107 87t-45 138q0 55 23 91q32 50 86 50q40 0 66.5 -24t26.5 -61t-24.5 -63t-60.5 -26q-19 0 -27 4q0 -40 30.5 -72t77.5 -41zM228 500l-46 -83q-62 20 -107 87t-45 138q0 55 23 91q32 50 86 50q40 0 66.5 -24t26.5 -61t-24.5 -63t-60.5 -26
q-19 0 -27 4q0 -40 30.5 -72t77.5 -41z" />
    <glyph glyph-name="dagger" unicode="&#x2020;" horiz-adv-x="412" 
d="M102 664h210l-20 -152h90v-157h-90v-355h-170v355h-92v157h92z" />
    <glyph glyph-name="daggerdbl" unicode="&#x2021;" horiz-adv-x="412" 
d="M102 664h210l-20 -152h90v-157h-90v-46h90v-157h-90l18 -152h-210l20 152h-90v157h90v46h-90v157h90z" />
    <glyph glyph-name="bullet" unicode="&#x2022;" horiz-adv-x="278" 
d="M30 279q0 48 30 80t75 32q48 0 80.5 -32t32.5 -80q0 -47 -31 -78t-78 -31t-78 31t-31 78z" />
    <glyph glyph-name="uni2023" unicode="&#x2023;" horiz-adv-x="278" 
d="M45 411l203 -132l-203 -129v261z" />
    <glyph glyph-name="ellipsis" unicode="&#x2026;" horiz-adv-x="834" 
d="M586 89q0 48 30 80t75 32q48 0 80.5 -32t32.5 -80q0 -47 -31 -78t-78 -31t-78 31t-31 78zM308 89q0 48 30 80t75 32q48 0 80.5 -32t32.5 -80q0 -47 -31 -78t-78 -31t-78 31t-31 78zM30 89q0 48 30 80t75 32q48 0 80.5 -32t32.5 -80q0 -47 -31 -78t-78 -31t-78 31t-31 78z
" />
    <glyph glyph-name="perthousand" unicode="&#x2030;" horiz-adv-x="1562" 
d="M1249 209q0 -30 20 -49.5t49 -19.5t49 19.5t20 49.5t-20 49.5t-49 19.5t-49 -19.5t-20 -49.5zM1099 209q0 95 63.5 157t155.5 62t155.5 -62t63.5 -157t-63.5 -157t-155.5 -62t-155.5 62t-63.5 157zM789 209q0 -30 20 -49.5t49 -19.5t49 19.5t20 49.5t-20 49.5t-49 19.5
t-49 -19.5t-20 -49.5zM639 209q0 95 63.5 157t155.5 62t155.5 -62t63.5 -157t-63.5 -157t-155.5 -62t-155.5 62t-63.5 157zM175 491q0 -30 20 -49.5t49 -19.5t49 19.5t20 49.5t-20 49.5t-49 19.5t-49 -19.5t-20 -49.5zM25 491q0 95 63.5 157t155.5 62t155.5 -62t63.5 -157
t-63.5 -157t-155.5 -62t-155.5 62t-63.5 157zM501 0h-187l287 700h187z" />
    <glyph glyph-name="minute" unicode="&#x2032;" horiz-adv-x="256" 
d="M80 780l150 -43l-59 -251l-145 41z" />
    <glyph glyph-name="second" unicode="&#x2033;" horiz-adv-x="476" 
d="M300 780l150 -43l-59 -251l-145 41zM80 780l150 -43l-59 -251l-145 41z" />
    <glyph glyph-name="uni2034" unicode="&#x2034;" horiz-adv-x="696" 
d="M520 780l150 -43l-59 -251l-145 41zM300 780l150 -43l-59 -251l-145 41zM80 780l150 -43l-59 -251l-145 41z" />
    <glyph glyph-name="uni2035" unicode="&#x2035;" horiz-adv-x="256" 
d="M176 780l54 -253l-145 -41l-59 251z" />
    <glyph glyph-name="uni2036" unicode="&#x2036;" horiz-adv-x="476" 
d="M176 780l54 -253l-145 -41l-59 251zM396 780l54 -253l-145 -41l-59 251z" />
    <glyph glyph-name="uni2037" unicode="&#x2037;" horiz-adv-x="696" 
d="M176 780l54 -253l-145 -41l-59 251zM396 780l54 -253l-145 -41l-59 251zM616 780l54 -253l-145 -41l-59 251z" />
    <glyph glyph-name="fractionslash" unicode="&#x2044;" horiz-adv-x="184" 
d="M42 0h-187l287 700h187z" />
    <glyph glyph-name="uni2070" unicode="&#x2070;" horiz-adv-x="388" 
d="M160 595q0 -16 10.5 -27t24.5 -11t23.5 11t9.5 27v82q0 18 -9.5 29t-23.5 11t-24.5 -11t-10.5 -29v-82zM30 585v102q0 70 48 115t117 45t116 -45t47 -115v-102q0 -68 -47.5 -113t-115.5 -45q-69 0 -117 45t-48 113z" />
    <glyph glyph-name="uni2074" unicode="&#x2074;" horiz-adv-x="414" 
d="M156 617h50v69zM336 837v-220h48v-106h-48v-74h-130v74h-176v120l162 206h144z" />
    <glyph glyph-name="uni2075" unicode="&#x2075;" horiz-adv-x="388" 
d="M160 680v43h183v116h-313v-201l130 -38q16 16 34 16q15 0 24.5 -10.5t9.5 -27.5q0 -13 -9.5 -21.5t-24.5 -8.5q-30 0 -37 28l-127 -31q17 -54 62 -85.5t105 -31.5q70 0 115.5 42.5t45.5 107.5q0 55 -32 92.5t-80 37.5q-49 0 -86 -28z" />
    <glyph glyph-name="uni2076" unicode="&#x2076;" horiz-adv-x="391" 
d="M279 714q-20 24 -56 24q-31 0 -50.5 -24.5t-22.5 -66.5q12 21 36.5 34t51.5 13q48 0 81 -37t33 -90q0 -60 -44.5 -100t-112.5 -40q-80 0 -123 57q-42 54 -42 143q0 98 51 159t133 61q52 0 91 -24t56 -67zM164 568q0 -13 10.5 -22t25.5 -9q14 0 23 7.5t9 19.5
q0 13 -10 21.5t-25 8.5q-14 0 -23.5 -7.5t-9.5 -18.5z" />
    <glyph glyph-name="uni2077" unicode="&#x2077;" horiz-adv-x="358" 
d="M214 437l114 270v130h-298v-116h172l-127 -284h139z" />
    <glyph glyph-name="uni2078" unicode="&#x2078;" horiz-adv-x="385" 
d="M160 563q0 -11 9.5 -18.5t23.5 -7.5t23 7.5t9 18.5t-9 18.5t-23 7.5t-23.5 -7.5t-9.5 -18.5zM44 731q0 49 43 82.5t105.5 33.5t105.5 -33.5t43 -82.5q0 -29 -16 -52.5t-45 -37.5q35 -12 55 -37t20 -57q0 -51 -47 -85.5t-115.5 -34.5t-115.5 34.5t-47 85.5q0 32 20 57
t55 37q-29 14 -45 37.5t-16 52.5zM192.5 691q7.5 0 13 6.5t5.5 16.5t-5 16.5t-13 6.5t-13.5 -6.5t-5.5 -16.5t5.5 -16.5t13 -6.5z" />
    <glyph glyph-name="uni2079" unicode="&#x2079;" horiz-adv-x="391" 
d="M112 560q20 -24 56 -24q31 0 50.5 24.5t22.5 66.5q-12 -21 -36.5 -34t-51.5 -13q-48 0 -81 37t-33 90q0 60 44.5 100t112.5 40q80 0 123 -57q42 -54 42 -143q0 -98 -51 -159t-133 -61q-52 0 -91 24t-56 67zM227 706q0 13 -10.5 22t-25.5 9q-14 0 -23 -7.5t-9 -19.5
q0 -13 10 -21.5t25 -8.5q14 0 23.5 7.5t9.5 18.5z" />
    <glyph glyph-name="uni2080" unicode="&#x2080;" horiz-adv-x="388" 
d="M160 5q0 -16 10.5 -27t24.5 -11t23.5 11t9.5 27v82q0 18 -9.5 29t-23.5 11t-24.5 -11t-10.5 -29v-82zM30 -5v102q0 70 48 115t117 45t116 -45t47 -115v-102q0 -68 -47.5 -113t-115.5 -45q-69 0 -117 45t-48 113z" />
    <glyph glyph-name="uni2081" unicode="&#x2081;" horiz-adv-x="309" 
d="M279 247v-400h-130v253l-51 -41l-68 93l116 95h133z" />
    <glyph glyph-name="uni2082" unicode="&#x2082;" horiz-adv-x="376" 
d="M345 109q0 62 -45 102.5t-110 40.5q-62 0 -102.5 -33t-57.5 -86l120 -42q8 31 32 31q10 0 16.5 -7.5t6.5 -19.5q0 -11 -13.5 -23t-26.5 -18.5t-39 -18.5l-95 -42v-147h316v126h-149l30 13q22 10 39.5 20t37 25.5t30 35.5t10.5 43z" />
    <glyph glyph-name="uni2083" unicode="&#x2083;" horiz-adv-x="396" 
d="M252 66l106 46v136h-311v-115h189l-74 -36l24 -81q41 0 41 -24q0 -10 -8 -16t-20 -6q-26 0 -32 26l-137 -21q17 -63 64.5 -99t114.5 -36q68 0 113 34.5t45 86.5q0 46 -32.5 75.5t-82.5 29.5z" />
    <glyph glyph-name="uni2084" unicode="&#x2084;" horiz-adv-x="414" 
d="M156 27h50v69zM336 247v-220h48v-106h-48v-74h-130v74h-176v120l162 206h144z" />
    <glyph glyph-name="uni2085" unicode="&#x2085;" horiz-adv-x="388" 
d="M160 90v43h183v116h-313v-201l130 -38q16 16 34 16q15 0 24.5 -10.5t9.5 -27.5q0 -13 -9.5 -21.5t-24.5 -8.5q-30 0 -37 28l-127 -31q17 -54 62 -85.5t105 -31.5q70 0 115.5 42.5t45.5 107.5q0 55 -32 92.5t-80 37.5q-49 0 -86 -28z" />
    <glyph glyph-name="uni2086" unicode="&#x2086;" horiz-adv-x="391" 
d="M279 124q-20 24 -56 24q-31 0 -50.5 -24.5t-22.5 -66.5q12 21 36.5 34t51.5 13q48 0 81 -37t33 -90q0 -60 -44.5 -100t-112.5 -40q-80 0 -123 57q-42 54 -42 143q0 98 51 159t133 61q52 0 91 -24t56 -67zM164 -22q0 -13 10.5 -22t25.5 -9q14 0 23 7.5t9 19.5
q0 13 -10 21.5t-25 8.5q-14 0 -23.5 -7.5t-9.5 -18.5z" />
    <glyph glyph-name="uni2087" unicode="&#x2087;" horiz-adv-x="358" 
d="M214 -153l114 270v130h-298v-116h172l-127 -284h139z" />
    <glyph glyph-name="uni2088" unicode="&#x2088;" horiz-adv-x="385" 
d="M160 -27q0 -11 9.5 -18.5t23.5 -7.5t23 7.5t9 18.5t-9 18.5t-23 7.5t-23.5 -7.5t-9.5 -18.5zM44 141q0 49 43 82.5t105.5 33.5t105.5 -33.5t43 -82.5q0 -29 -16 -52.5t-45 -37.5q35 -12 55 -37t20 -57q0 -51 -47 -85.5t-115.5 -34.5t-115.5 34.5t-47 85.5q0 32 20 57
t55 37q-29 14 -45 37.5t-16 52.5zM192.5 101q7.5 0 13 6.5t5.5 16.5t-5 16.5t-13 6.5t-13.5 -6.5t-5.5 -16.5t5.5 -16.5t13 -6.5z" />
    <glyph glyph-name="uni2089" unicode="&#x2089;" horiz-adv-x="391" 
d="M112 -30q20 -24 56 -24q31 0 50.5 24.5t22.5 66.5q-12 -21 -36.5 -34t-51.5 -13q-48 0 -81 37t-33 90q0 60 44.5 100t112.5 40q80 0 123 -57q42 -54 42 -143q0 -98 -51 -159t-133 -61q-52 0 -91 24t-56 67zM227 116q0 13 -10.5 22t-25.5 9q-14 0 -23 -7.5t-9 -19.5
q0 -13 10 -21.5t25 -8.5q14 0 23.5 7.5t9.5 18.5z" />
    <glyph glyph-name="dong" unicode="&#x20ab;" horiz-adv-x="668" 
d="M647 -50v-127h-622v127h622zM471 251q0 -115 -62 -192t-155 -77q-95 0 -159.5 77.5t-64.5 191.5t64.5 191.5t159.5 77.5q93 0 155 -77t62 -192zM418 251q0 47 -31 78t-78 31t-78 -31t-31 -78t31 -78t78 -31t78 31t31 78zM588 0h-170v556h-182v147h182v47h170v-47h80v-147
h-80v-556z" />
    <glyph glyph-name="Euro" unicode="&#x20ac;" horiz-adv-x="858" 
d="M537 325v-87h-502v87h502zM537 475v-97h-502v97h502zM110 351q0 103 48 187.5t132 133t186 48.5q104 0 189 -46t128 -127l-142 -90q-24 44 -71 68.5t-105 24.5q-83 0 -139 -57.5t-56 -141.5t56 -141.5t138 -57.5q61 0 109 27t72 75l143 -89q-42 -85 -128.5 -134
t-193.5 -49q-102 0 -186 48.5t-132 133t-48 187.5z" />
    <glyph glyph-name="uni20B4" unicode="&#x20b4;" horiz-adv-x="594" 
d="M577 330v-87h-345q-13 -12 -13 -34q0 -27 19 -43t50 -16q36 0 65.5 21t44.5 57l166 -79q-34 -73 -110 -116.5t-169 -43.5q-108 0 -176.5 57.5t-68.5 146.5q0 29 9 50h-24v87h552zM542 465h35v-87h-552v87h332q13 10 13 30q0 26 -18 41.5t-47 15.5q-33 0 -61 -19.5
t-42 -51.5l-166 59q33 79 108 126t167 47q104 0 170.5 -58t66.5 -148q0 -24 -6 -42z" />
    <glyph glyph-name="uni20B8" unicode="&#x20b8;" horiz-adv-x="616" 
d="M23 542v158h570v-158h-570zM593 480v-168h-200v-312h-170v312h-200v168h570z" />
    <glyph glyph-name="uni20BD" unicode="&#x20bd;" horiz-adv-x="648" 
d="M389 272h-119v-42h157v-127h-157v-103h-170v103h-75v127h75v43h-75v147h75v280h299q94 0 156.5 -63.5t62.5 -158.5q0 -86 -66.5 -146t-162.5 -60zM389 532h-119v-112h119q25 0 42 16.5t17 41.5q0 23 -17 38.5t-42 15.5z" />
    <glyph glyph-name="uni2103" unicode="&#x2103;" horiz-adv-x="1266" 
d="M518 351q0 103 48 187.5t132 133t186 48.5q114 0 206.5 -62.5t140.5 -170.5l-172 -60q-24 58 -71 90.5t-105 32.5q-83 0 -139 -57.5t-56 -141.5t56 -141.5t138 -57.5q61 0 109 35t72 97l173 -59q-46 -112 -140.5 -177.5t-211.5 -65.5q-102 0 -186 48.5t-132 133
t-48 187.5zM175 491q0 -30 20 -49.5t49 -19.5t49 19.5t20 49.5t-20 49.5t-49 19.5t-49 -19.5t-20 -49.5zM25 491q0 95 63.5 157t155.5 62t155.5 -62t63.5 -157t-63.5 -157t-155.5 -62t-155.5 62t-63.5 157z" />
    <glyph glyph-name="uni2109" unicode="&#x2109;" horiz-adv-x="1080" 
d="M708 435h316v-168h-316v-267h-170v700h510v-168h-340v-97zM175 491q0 -30 20 -49.5t49 -19.5t49 19.5t20 49.5t-20 49.5t-49 19.5t-49 -19.5t-20 -49.5zM25 491q0 95 63.5 157t155.5 62t155.5 -62t63.5 -157t-63.5 -157t-155.5 -62t-155.5 62t-63.5 157z" />
    <glyph glyph-name="trademark" unicode="&#x2122;" horiz-adv-x="577" 
d="M234 700v-66h-71v-210h-70v210h-68v66h209zM268 424v276h81l60 -132l61 132h82v-276h-70v151l-49 -106h-46l-49 106v-151h-70z" />
    <glyph glyph-name="estimated" unicode="&#x212e;" horiz-adv-x="598" 
d="M201 524v-139h197v141q-40 24 -99 24t-98 -26zM201 181q41 -29 103 -29q60 0 108.5 29.5t73.5 80.5l66 -32q-34 -68 -100.5 -108t-147.5 -40q-115 0 -194.5 76t-79.5 193t78.5 193t190.5 76t190.5 -73.5t78.5 -185.5q0 -14 -2 -43h-365v-137z" />
    <glyph glyph-name="arrowleft" unicode="&#x2190;" horiz-adv-x="816" 
d="M336 685l104 -103l-140 -140h486v-147h-485l139 -139l-104 -103l-306 316z" />
    <glyph glyph-name="arrowup" unicode="&#x2191;" horiz-adv-x="692" 
d="M662 441l-103 -104l-140 140v-486h-147v485l-139 -139l-103 104l316 306z" />
    <glyph glyph-name="arrowright" unicode="&#x2192;" horiz-adv-x="816" 
d="M480 53l-104 103l140 140h-486v147h485l-139 139l104 103l306 -316z" />
    <glyph glyph-name="arrowdown" unicode="&#x2193;" horiz-adv-x="692" 
d="M30 297l103 104l140 -140v486h147v-485l139 139l103 -104l-316 -306z" />
    <glyph glyph-name="arrowboth" unicode="&#x2194;" horiz-adv-x="996" 
d="M660 53l-104 103l139 139h-394l139 -139l-104 -103l-306 316l306 316l104 -103l-139 -139h394l-139 139l104 103l306 -316z" />
    <glyph glyph-name="arrowupdn" unicode="&#x2195;" horiz-adv-x="692" 
d="M30 207l103 104l139 -139v394l-139 -139l-103 104l316 306l316 -306l-103 -104l-139 139v-394l139 139l103 -104l-316 -306z" />
    <glyph glyph-name="uni2196" unicode="&#x2196;" horiz-adv-x="653" 
d="M477 643l1 -146h-198l343 -344l-104 -104l-343 343v-196h-146l7 440z" />
    <glyph glyph-name="uni2197" unicode="&#x2197;" horiz-adv-x="653" 
d="M624 196h-146v198l-344 -344l-104 104l343 343h-197l1 146l440 -7z" />
    <glyph glyph-name="uni2198" unicode="&#x2198;" horiz-adv-x="653" 
d="M176 95v146h198l-344 344l104 104l343 -343v196h146l-7 -440z" />
    <glyph glyph-name="uni2199" unicode="&#x2199;" horiz-adv-x="653" 
d="M30 542h146v-198l344 344l104 -104l-343 -343h197l-1 -146l-440 7z" />
    <glyph glyph-name="approxequal" unicode="&#x2248;" horiz-adv-x="484" 
d="M164 268q-118 0 -134 -150l104 -18q9 59 41 59q15 0 40 -19q62 -46 107 -46q58 0 91 39.5t41 110.5l-104 18q-10 -56 -45 -56q-20 0 -42 18q-30 24 -52 34t-47 10zM164 468q-118 0 -134 -150l104 -18q9 59 41 59q15 0 40 -19q62 -46 107 -46q58 0 91 39.5t41 110.5
l-104 18q-10 -56 -45 -56q-20 0 -42 18q-30 24 -52 34t-47 10z" />
    <glyph glyph-name="notequal" unicode="&#x2260;" horiz-adv-x="452" 
d="M213 0h-167l185 556h167zM427 240v-147h-402v147h402zM427 460v-147h-402v147h402z" />
    <glyph glyph-name="lessequal" unicode="&#x2264;" horiz-adv-x="510" 
d="M480 20v-127h-455v127h455zM480 217v-176l-450 143v224l450 143v-176l-306 -76z" />
    <glyph glyph-name="greaterequal" unicode="&#x2265;" horiz-adv-x="510" 
d="M480 20v-127h-455v127h455zM30 375v176l450 -143v-224l-450 -143v176l306 76z" />
    <glyph glyph-name="filledbox" unicode="&#x25a0;" horiz-adv-x="820" 
d="M60 700h700v-700h-700v700z" />
    <glyph glyph-name="H22073" unicode="&#x25a1;" horiz-adv-x="820" 
d="M230 530v-360h360v360h-360zM60 700h700v-700h-700v700z" />
    <glyph glyph-name="H18543" unicode="&#x25aa;" horiz-adv-x="520" 
d="M60 570h400v-400h-400v400z" />
    <glyph glyph-name="H18551" unicode="&#x25ab;" horiz-adv-x="520" 
d="M210 420v-100h100v100h-100zM50 580h420v-420h-420v420z" />
    <glyph glyph-name="triagup" unicode="&#x25b2;" horiz-adv-x="820" 
d="M410 700l350 -700h-700z" />
    <glyph glyph-name="uni25B3" unicode="&#x25b3;" horiz-adv-x="820" 
d="M410 700l350 -700h-700zM410 423l-143 -293h286z" />
    <glyph glyph-name="uni25B6" unicode="&#x25b6;" horiz-adv-x="820" 
d="M760 350l-700 -350v700z" />
    <glyph glyph-name="uni25B7" unicode="&#x25b7;" horiz-adv-x="820" 
d="M760 350l-700 -350v700zM483 350l-293 143v-286z" />
    <glyph glyph-name="triagdn" unicode="&#x25bc;" horiz-adv-x="820" 
d="M410 0l-350 700h700z" />
    <glyph glyph-name="uni25BD" unicode="&#x25bd;" horiz-adv-x="820" 
d="M410 0l-350 700h700zM410 277l143 293h-286z" />
    <glyph glyph-name="uni25C0" unicode="&#x25c0;" horiz-adv-x="820" 
d="M60 350l700 350v-700z" />
    <glyph glyph-name="uni25C1" unicode="&#x25c1;" horiz-adv-x="820" 
d="M60 350l700 350v-700zM337 350l293 -143v286z" />
    <glyph glyph-name="uni25C6" unicode="&#x25c6;" horiz-adv-x="820" 
d="M53 350l357 357l357 -357l-357 -357z" />
    <glyph glyph-name="uni25C7" unicode="&#x25c7;" horiz-adv-x="820" 
d="M253 350l157 -157l157 157l-157 157zM53 350l357 357l357 -357l-357 -357z" />
    <glyph glyph-name="lozenge" unicode="&#x25ca;" horiz-adv-x="620" 
d="M223 350l87 -157l87 157l-87 157zM53 350l212 357h90l212 -357l-212 -357h-90z" />
    <glyph glyph-name="circle" unicode="&#x25cb;" horiz-adv-x="820" 
d="M243 350q0 -69 49 -118t118 -49t118 49t49 118t-49 118t-118 49t-118 -49t-49 -118zM53 350q0 148 104.5 252.5t252.5 104.5t252.5 -104.5t104.5 -252.5t-104.5 -252.5t-252.5 -104.5t-252.5 104.5t-104.5 252.5z" />
    <glyph glyph-name="H18533" unicode="&#x25cf;" horiz-adv-x="820" 
d="M53 350q0 148 104.5 252.5t252.5 104.5t252.5 -104.5t104.5 -252.5t-104.5 -252.5t-252.5 -104.5t-252.5 104.5t-104.5 252.5z" />
    <glyph glyph-name="zero.dnom" horiz-adv-x="388" 
d="M160 155q0 -16 10.5 -27t24.5 -11t23.5 11t9.5 27v82q0 18 -9.5 29t-23.5 11t-24.5 -11t-10.5 -29v-82zM30 145v102q0 70 48 115t117 45t116 -45t47 -115v-102q0 -68 -47.5 -113t-115.5 -45q-69 0 -117 45t-48 113z" />
    <glyph glyph-name="one.dnom" horiz-adv-x="309" 
d="M279 397v-400h-130v253l-51 -41l-68 93l116 95h133z" />
    <glyph glyph-name="two.dnom" horiz-adv-x="376" 
d="M345 259q0 62 -45 102.5t-110 40.5q-62 0 -102.5 -33t-57.5 -86l120 -42q8 31 32 31q10 0 16.5 -7.5t6.5 -19.5q0 -11 -13.5 -23t-26.5 -18.5t-39 -18.5l-95 -42v-147h316v126h-149l30 13q22 10 39.5 20t37 25.5t30 35.5t10.5 43z" />
    <glyph glyph-name="three.dnom" horiz-adv-x="396" 
d="M252 216l106 46v136h-311v-115h189l-74 -36l24 -81q41 0 41 -24q0 -10 -8 -16t-20 -6q-26 0 -32 26l-137 -21q17 -63 64.5 -99t114.5 -36q68 0 113 34.5t45 86.5q0 46 -32.5 75.5t-82.5 29.5z" />
    <glyph glyph-name="four.dnom" horiz-adv-x="414" 
d="M156 177h50v69zM336 397v-220h48v-106h-48v-74h-130v74h-176v120l162 206h144z" />
    <glyph glyph-name="five.dnom" horiz-adv-x="388" 
d="M160 240v43h183v116h-313v-201l130 -38q16 16 34 16q15 0 24.5 -10.5t9.5 -27.5q0 -13 -9.5 -21.5t-24.5 -8.5q-30 0 -37 28l-127 -31q17 -54 62 -85.5t105 -31.5q70 0 115.5 42.5t45.5 107.5q0 55 -32 92.5t-80 37.5q-49 0 -86 -28z" />
    <glyph glyph-name="six.dnom" horiz-adv-x="391" 
d="M279 274q-20 24 -56 24q-31 0 -50.5 -24.5t-22.5 -66.5q12 21 36.5 34t51.5 13q48 0 81 -37t33 -90q0 -60 -44.5 -100t-112.5 -40q-80 0 -123 57q-42 54 -42 143q0 98 51 159t133 61q52 0 91 -24t56 -67zM164 128q0 -13 10.5 -22t25.5 -9q14 0 23 7.5t9 19.5
q0 13 -10 21.5t-25 8.5q-14 0 -23.5 -7.5t-9.5 -18.5z" />
    <glyph glyph-name="seven.dnom" horiz-adv-x="358" 
d="M214 -3l114 270v130h-298v-116h172l-127 -284h139z" />
    <glyph glyph-name="eight.dnom" horiz-adv-x="385" 
d="M160 123q0 -11 9.5 -18.5t23.5 -7.5t23 7.5t9 18.5t-9 18.5t-23 7.5t-23.5 -7.5t-9.5 -18.5zM44 291q0 49 43 82.5t105.5 33.5t105.5 -33.5t43 -82.5q0 -29 -16 -52.5t-45 -37.5q35 -12 55 -37t20 -57q0 -51 -47 -85.5t-115.5 -34.5t-115.5 34.5t-47 85.5q0 32 20 57
t55 37q-29 14 -45 37.5t-16 52.5zM192.5 251q7.5 0 13 6.5t5.5 16.5t-5 16.5t-13 6.5t-13.5 -6.5t-5.5 -16.5t5.5 -16.5t13 -6.5z" />
    <glyph glyph-name="nine.dnom" horiz-adv-x="391" 
d="M112 120q20 -24 56 -24q31 0 50.5 24.5t22.5 66.5q-12 -21 -36.5 -34t-51.5 -13q-48 0 -81 37t-33 90q0 60 44.5 100t112.5 40q80 0 123 -57q42 -54 42 -143q0 -98 -51 -159t-133 -61q-52 0 -91 24t-56 67zM227 266q0 13 -10.5 22t-25.5 9q-14 0 -23 -7.5t-9 -19.5
q0 -13 10 -21.5t25 -8.5q14 0 23.5 7.5t9.5 18.5z" />
    <glyph glyph-name="zero.numr" horiz-adv-x="388" 
d="M160 445q0 -16 10.5 -27t24.5 -11t23.5 11t9.5 27v82q0 18 -9.5 29t-23.5 11t-24.5 -11t-10.5 -29v-82zM30 435v102q0 70 48 115t117 45t116 -45t47 -115v-102q0 -68 -47.5 -113t-115.5 -45q-69 0 -117 45t-48 113z" />
    <glyph glyph-name="one.numr" horiz-adv-x="309" 
d="M279 687v-400h-130v253l-51 -41l-68 93l116 95h133z" />
    <glyph glyph-name="two.numr" horiz-adv-x="376" 
d="M345 549q0 62 -45 102.5t-110 40.5q-62 0 -102.5 -33t-57.5 -86l120 -42q8 31 32 31q10 0 16.5 -7.5t6.5 -19.5q0 -11 -13.5 -23t-26.5 -18.5t-39 -18.5l-95 -42v-147h316v126h-149l30 13q22 10 39.5 20t37 25.5t30 35.5t10.5 43z" />
    <glyph glyph-name="three.numr" horiz-adv-x="396" 
d="M252 506l106 46v136h-311v-115h189l-74 -36l24 -81q41 0 41 -24q0 -10 -8 -16t-20 -6q-26 0 -32 26l-137 -21q17 -63 64.5 -99t114.5 -36q68 0 113 34.5t45 86.5q0 46 -32.5 75.5t-82.5 29.5z" />
    <glyph glyph-name="four.numr" horiz-adv-x="414" 
d="M156 467h50v69zM336 687v-220h48v-106h-48v-74h-130v74h-176v120l162 206h144z" />
    <glyph glyph-name="five.numr" horiz-adv-x="388" 
d="M160 530v43h183v116h-313v-201l130 -38q16 16 34 16q15 0 24.5 -10.5t9.5 -27.5q0 -13 -9.5 -21.5t-24.5 -8.5q-30 0 -37 28l-127 -31q17 -54 62 -85.5t105 -31.5q70 0 115.5 42.5t45.5 107.5q0 55 -32 92.5t-80 37.5q-49 0 -86 -28z" />
    <glyph glyph-name="six.numr" horiz-adv-x="391" 
d="M279 564q-20 24 -56 24q-31 0 -50.5 -24.5t-22.5 -66.5q12 21 36.5 34t51.5 13q48 0 81 -37t33 -90q0 -60 -44.5 -100t-112.5 -40q-80 0 -123 57q-42 54 -42 143q0 98 51 159t133 61q52 0 91 -24t56 -67zM164 418q0 -13 10.5 -22t25.5 -9q14 0 23 7.5t9 19.5
q0 13 -10 21.5t-25 8.5q-14 0 -23.5 -7.5t-9.5 -18.5z" />
    <glyph glyph-name="seven.numr" horiz-adv-x="358" 
d="M214 287l114 270v130h-298v-116h172l-127 -284h139z" />
    <glyph glyph-name="eight.numr" horiz-adv-x="385" 
d="M160 413q0 -11 9.5 -18.5t23.5 -7.5t23 7.5t9 18.5t-9 18.5t-23 7.5t-23.5 -7.5t-9.5 -18.5zM44 581q0 49 43 82.5t105.5 33.5t105.5 -33.5t43 -82.5q0 -29 -16 -52.5t-45 -37.5q35 -12 55 -37t20 -57q0 -51 -47 -85.5t-115.5 -34.5t-115.5 34.5t-47 85.5q0 32 20 57
t55 37q-29 14 -45 37.5t-16 52.5zM192.5 541q7.5 0 13 6.5t5.5 16.5t-5 16.5t-13 6.5t-13.5 -6.5t-5.5 -16.5t5.5 -16.5t13 -6.5z" />
    <glyph glyph-name="nine.numr" horiz-adv-x="391" 
d="M112 410q20 -24 56 -24q31 0 50.5 24.5t22.5 66.5q-12 -21 -36.5 -34t-51.5 -13q-48 0 -81 37t-33 90q0 60 44.5 100t112.5 40q80 0 123 -57q42 -54 42 -143q0 -98 -51 -159t-133 -61q-52 0 -91 24t-56 67zM227 556q0 13 -10.5 22t-25.5 9q-14 0 -23 -7.5t-9 -19.5
q0 -13 10 -21.5t25 -8.5q14 0 23.5 7.5t9.5 18.5z" />
    <glyph glyph-name="zero.tabl" horiz-adv-x="610" 
d="M200 303q0 -66 30 -108.5t74 -42.5t74 42.5t30 108.5v93q0 66 -30 108.5t-74 42.5t-74 -42.5t-30 -108.5v-93zM30 303v93q0 139 79.5 230t194.5 91t194.5 -91t79.5 -230v-93q0 -139 -79.5 -230t-194.5 -91t-194.5 91t-79.5 230z" />
    <glyph glyph-name="one.tabl" horiz-adv-x="610" 
d="M566 167v-167h-522v167h191v342l-117 -87l-93 138l199 140h181v-533h161z" />
    <glyph glyph-name="two.tabl" horiz-adv-x="610" 
d="M581 447q0 114 -79 189t-193 75q-108 0 -178.5 -62t-100.5 -159l168 -47q28 98 111 98q43 0 72.5 -26.5t29.5 -67.5q0 -8 -2 -15.5t-7.5 -15t-11 -13.5t-15 -13t-17 -12.5t-20.5 -13t-21 -12t-23.5 -13t-23.5 -12.5l-231 -135v-192h542v167h-309l146 75q63 33 113 88.5
t50 116.5z" />
    <glyph glyph-name="three.tabl" horiz-adv-x="610" 
d="M404 420l177 88v192h-542v-167h340l-160 -92l25 -117q77 0 122 -25.5t45 -68.5q0 -32 -29 -51.5t-78 -19.5q-45 0 -75.5 20.5t-40.5 57.5l-158 -55q27 -90 101.5 -141.5t176.5 -51.5q122 0 197.5 64.5t75.5 168.5q0 78 -49 132.5t-128 65.5z" />
    <glyph glyph-name="four.tabl" horiz-adv-x="610" 
d="M205 330h115v152zM490 700v-370h77v-167h-77v-163h-170v163h-295v187l275 350h190z" />
    <glyph glyph-name="five.tabl" horiz-adv-x="610" 
d="M210 432v101h341v167h-511v-377l170 -40q44 39 101 39q39 0 64.5 -23t25.5 -58q0 -37 -27.5 -59.5t-70.5 -22.5q-41 0 -68.5 18t-36.5 50l-168 -55q27 -85 100 -134t173 -49q118 0 193 70.5t75 181.5q0 100 -60 169.5t-147 69.5q-84 0 -154 -48z" />
    <glyph glyph-name="six.tabl" horiz-adv-x="610" 
d="M476 488q-45 59 -137 59q-58 0 -96 -43t-43 -115q21 42 63.5 66.5t93.5 24.5q93 0 158 -71.5t65 -173.5q0 -109 -75.5 -181t-191.5 -72q-78 0 -142.5 35t-98.5 97q-42 76 -42 200q0 181 87.5 292t230.5 111q70 0 129 -28t93 -77zM210 236q0 -34 31.5 -59t74.5 -25
q41 0 67.5 22.5t26.5 56.5q0 35 -28 57t-71 22q-44 0 -72.5 -21t-28.5 -53z" />
    <glyph glyph-name="seven.tabl" horiz-adv-x="610" 
d="M335 0l248 523v177h-558v-167h381l-257 -533h186z" />
    <glyph glyph-name="eight.tabl" horiz-adv-x="610" 
d="M206 213q0 -26 28 -43.5t71 -17.5t71 17.5t28 43.5q0 28 -28.5 46.5t-70.5 18.5t-70.5 -18.5t-28.5 -46.5zM56 521q0 85 71 141t178 56t178 -56t71 -141q0 -50 -27 -93t-74 -67q56 -25 88.5 -72t32.5 -103q0 -88 -76.5 -146t-192.5 -58t-192.5 58t-76.5 146
q0 56 32.5 103t88.5 72q-47 24 -74 67t-27 93zM305 442q34 0 56.5 15t22.5 37.5t-22.5 38t-56.5 15.5t-56.5 -15.5t-22.5 -38t22.5 -37.5t56.5 -15z" />
    <glyph glyph-name="nine.tabl" horiz-adv-x="610" 
d="M134 211q45 -59 137 -59q58 0 96 43t43 115q-21 -42 -63.5 -66.5t-93.5 -24.5q-93 0 -158 71.5t-65 173.5q0 109 75.5 181t191.5 72q78 0 142.5 -35t98.5 -97q42 -76 42 -200q0 -181 -87.5 -292t-230.5 -111q-70 0 -129 28t-93 77zM400 463q0 34 -31.5 59t-74.5 25
q-41 0 -67.5 -22.5t-26.5 -56.5q0 -35 28 -57t71 -22q44 0 72.5 21t28.5 53z" />
    <glyph glyph-name="zero.slsh" horiz-adv-x="648" 
d="M60 189l444 444l85 -145l-433 -434zM200 323q0 -75 36 -123t88 -48t88 48t36 123v53q0 75 -36 123t-88 48t-88 -48t-36 -123v-53zM30 323v53q0 148 85.5 244.5t208.5 96.5t208.5 -96.5t85.5 -244.5v-53q0 -148 -85.5 -244.5t-208.5 -96.5t-208.5 96.5t-85.5 244.5z" />
    <glyph glyph-name="a.ss01" horiz-adv-x="638" 
d="M588 0h-170v500h170v-500zM418 251q0 47 -31 78t-78 31t-78 -31t-31 -78t31 -78t78 -31t78 31t31 78zM471 251q0 -115 -62 -192t-155 -77q-95 0 -159.5 77.5t-64.5 191.5t64.5 191.5t159.5 77.5q93 0 155 -77t62 -192z" />
    <glyph glyph-name="agrave.ss01" horiz-adv-x="638" 
d="M127 721l113 99l163 -158l-109 -94zM588 0h-170v500h170v-500zM418 251q0 47 -31 78t-78 31t-78 -31t-31 -78t31 -78t78 -31t78 31t31 78zM471 251q0 -115 -62 -192t-155 -77q-95 0 -159.5 77.5t-64.5 191.5t64.5 191.5t159.5 77.5q93 0 155 -77t62 -192z" />
    <glyph glyph-name="aacute.ss01" horiz-adv-x="638" 
d="M467 721l-113 109l-153 -168l89 -94zM588 0h-170v500h170v-500zM418 251q0 47 -31 78t-78 31t-78 -31t-31 -78t31 -78t78 -31t78 31t31 78zM471 251q0 -115 -62 -192t-155 -77q-95 0 -159.5 77.5t-64.5 191.5t64.5 191.5t159.5 77.5q93 0 155 -77t62 -192z" />
    <glyph glyph-name="acircumflex.ss01" horiz-adv-x="638" 
d="M283 780l-184 -122l61 -100l143 97l143 -97l61 100l-184 122h-40zM588 0h-170v500h170v-500zM418 251q0 47 -31 78t-78 31t-78 -31t-31 -78t31 -78t78 -31t78 31t31 78zM471 251q0 -115 -62 -192t-155 -77q-95 0 -159.5 77.5t-64.5 191.5t64.5 191.5t159.5 77.5
q93 0 155 -77t62 -192z" />
    <glyph glyph-name="atilde.ss01" horiz-adv-x="638" 
d="M225 742q-118 0 -134 -150l104 -18q9 59 41 59q15 0 40 -19q62 -46 107 -46q58 0 91 39.5t41 110.5l-104 18q-10 -56 -45 -56q-20 0 -42 18q-30 24 -52 34t-47 10zM588 0h-170v500h170v-500zM418 251q0 47 -31 78t-78 31t-78 -31t-31 -78t31 -78t78 -31t78 31t31 78z
M471 251q0 -115 -62 -192t-155 -77q-95 0 -159.5 77.5t-64.5 191.5t64.5 191.5t159.5 77.5q93 0 155 -77t62 -192z" />
    <glyph glyph-name="adieresis.ss01" horiz-adv-x="638" 
d="M333 667q0 42 28.5 70.5t70.5 28.5t70.5 -28.5t28.5 -70.5t-28.5 -70.5t-70.5 -28.5t-70.5 28.5t-28.5 70.5zM73 667q0 42 28.5 70.5t70.5 28.5t70.5 -28.5t28.5 -70.5t-28.5 -70.5t-70.5 -28.5t-70.5 28.5t-28.5 70.5zM588 0h-170v500h170v-500zM418 251q0 47 -31 78
t-78 31t-78 -31t-31 -78t31 -78t78 -31t78 31t31 78zM471 251q0 -115 -62 -192t-155 -77q-95 0 -159.5 77.5t-64.5 191.5t64.5 191.5t159.5 77.5q93 0 155 -77t62 -192z" />
    <glyph glyph-name="aring.ss01" horiz-adv-x="638" 
d="M255 721q0 -21 14 -34.5t34 -13.5t34 13.5t14 34.5t-14 35t-34 14t-34 -14t-14 -35zM150 721.5q0 66.5 44.5 110t108.5 43.5t108.5 -43.5t44.5 -110t-44.5 -110t-108.5 -43.5t-108.5 43.5t-44.5 110zM588 0h-170v500h170v-500zM418 251q0 47 -31 78t-78 31t-78 -31
t-31 -78t31 -78t78 -31t78 31t31 78zM471 251q0 -115 -62 -192t-155 -77q-95 0 -159.5 77.5t-64.5 191.5t64.5 191.5t159.5 77.5q93 0 155 -77t62 -192z" />
    <glyph glyph-name="ae.ss01" horiz-adv-x="1020" 
d="M816 307q-11 22 -35.5 35t-55.5 13q-63 0 -86 -48h177zM639 176q24 -49 87 -49q54 0 78 32l156 -59q-28 -58 -83 -93t-118 -35q-95 0 -158 77t-63 194q0 115 61.5 191t155.5 76q98 0 166.5 -80.5t68.5 -196.5q0 -19 -6 -57h-345zM588 0h-170v500h170v-500zM418 251
q0 47 -31 78t-78 31t-78 -31t-31 -78t31 -78t78 -31t78 31t31 78zM471 251q0 -116 -62 -192.5t-156 -76.5q-95 0 -159 77.5t-64 191.5t64 191.5t159 77.5q94 0 156 -76.5t62 -192.5z" />
    <glyph glyph-name="amacron.ss01" horiz-adv-x="638" 
d="M483 705v-127h-352v127h352zM588 0h-170v500h170v-500zM418 251q0 47 -31 78t-78 31t-78 -31t-31 -78t31 -78t78 -31t78 31t31 78zM471 251q0 -115 -62 -192t-155 -77q-95 0 -159.5 77.5t-64.5 191.5t64.5 191.5t159.5 77.5q93 0 155 -77t62 -192z" />
    <glyph glyph-name="abreve.ss01" horiz-adv-x="638" 
d="M302 569q-87 0 -148.5 56t-61.5 136h127q0 -33 24 -55t60 -22q37 0 63.5 22.5t26.5 54.5h127q0 -77 -65 -134.5t-153 -57.5zM588 0h-170v500h170v-500zM418 251q0 47 -31 78t-78 31t-78 -31t-31 -78t31 -78t78 -31t78 31t31 78zM471 251q0 -115 -62 -192t-155 -77
q-95 0 -159.5 77.5t-64.5 191.5t64.5 191.5t159.5 77.5q93 0 155 -77t62 -192z" />
    <glyph glyph-name="aogonek.ss01" horiz-adv-x="638" 
d="M445 -29v37h117v-63l-68 -48q-43 -28 -43 -61q0 -16 8.5 -26t22.5 -10q30 0 38 30l114 -19q-15 -59 -55 -93t-95 -34q-67 0 -110 37t-43 95q0 38 18.5 66.5t68.5 70.5zM588 0h-170v500h170v-500zM418 251q0 47 -31 78t-78 31t-78 -31t-31 -78t31 -78t78 -31t78 31t31 78z
M471 251q0 -115 -62 -192t-155 -77q-95 0 -159.5 77.5t-64.5 191.5t64.5 191.5t159.5 77.5q93 0 155 -77t62 -192z" />
    <glyph glyph-name="uni1EA1.ss01" horiz-adv-x="638" 
d="M215 -160q0 42 28.5 70.5t70.5 28.5t70.5 -28.5t28.5 -70.5t-28.5 -70.5t-70.5 -28.5t-70.5 28.5t-28.5 70.5zM588 0h-170v500h170v-500zM418 251q0 47 -31 78t-78 31t-78 -31t-31 -78t31 -78t78 -31t78 31t31 78zM471 251q0 -115 -62 -192t-155 -77q-95 0 -159.5 77.5
t-64.5 191.5t64.5 191.5t159.5 77.5q93 0 155 -77t62 -192z" />
    <glyph glyph-name="uni1EA3.ss01" horiz-adv-x="638" 
d="M313 548l-65 90l61 39q33 20 33 50q0 20 -13 32.5t-33 12.5q-37 0 -45 -36l-103 25q15 55 55 86.5t95 31.5q68 0 110.5 -42.5t42.5 -109.5q0 -45 -22 -77.5t-70 -69.5zM588 0h-170v500h170v-500zM418 251q0 47 -31 78t-78 31t-78 -31t-31 -78t31 -78t78 -31t78 31t31 78z
M471 251q0 -115 -62 -192t-155 -77q-95 0 -159.5 77.5t-64.5 191.5t64.5 191.5t159.5 77.5q93 0 155 -77t62 -192z" />
    <glyph glyph-name="uni1EA5.ss01" horiz-adv-x="638" 
d="M694 894l-113 109l-153 -168l89 -94zM283 780l-184 -122l61 -100l143 97l143 -97l61 100l-184 122h-40zM588 0h-170v500h170v-500zM418 251q0 47 -31 78t-78 31t-78 -31t-31 -78t31 -78t78 -31t78 31t31 78zM471 251q0 -115 -62 -192t-155 -77q-95 0 -159.5 77.5
t-64.5 191.5t64.5 191.5t159.5 77.5q93 0 155 -77t62 -192z" />
    <glyph glyph-name="uni1EA7.ss01" horiz-adv-x="638" 
d="M354 894l113 99l163 -158l-109 -94zM283 780l-184 -122l61 -100l143 97l143 -97l61 100l-184 122h-40zM588 0h-170v500h170v-500zM418 251q0 47 -31 78t-78 31t-78 -31t-31 -78t31 -78t78 -31t78 31t31 78zM471 251q0 -115 -62 -192t-155 -77q-95 0 -159.5 77.5
t-64.5 191.5t64.5 191.5t159.5 77.5q93 0 155 -77t62 -192z" />
    <glyph glyph-name="uni1EA9.ss01" horiz-adv-x="638" 
d="M540 721l-65 90l61 39q33 20 33 50q0 20 -13 32.5t-33 12.5q-37 0 -45 -36l-103 25q15 55 55 86.5t95 31.5q68 0 110.5 -42.5t42.5 -109.5q0 -45 -22 -77.5t-70 -69.5zM283 780l-184 -122l61 -100l143 97l143 -97l61 100l-184 122h-40zM588 0h-170v500h170v-500zM418 251
q0 47 -31 78t-78 31t-78 -31t-31 -78t31 -78t78 -31t78 31t31 78zM471 251q0 -115 -62 -192t-155 -77q-95 0 -159.5 77.5t-64.5 191.5t64.5 191.5t159.5 77.5q93 0 155 -77t62 -192z" />
    <glyph glyph-name="uni1EAB.ss01" horiz-adv-x="638" 
d="M225 1014q-118 0 -134 -150l104 -18q9 59 41 59q15 0 40 -19q62 -46 107 -46q58 0 91 39.5t41 110.5l-104 18q-10 -56 -45 -56q-20 0 -42 18q-30 24 -52 34t-47 10zM283 780l-184 -122l61 -100l143 97l143 -97l61 100l-184 122h-40zM588 0h-170v500h170v-500zM418 251
q0 47 -31 78t-78 31t-78 -31t-31 -78t31 -78t78 -31t78 31t31 78zM471 251q0 -115 -62 -192t-155 -77q-95 0 -159.5 77.5t-64.5 191.5t64.5 191.5t159.5 77.5q93 0 155 -77t62 -192z" />
    <glyph glyph-name="uni1EAD.ss01" horiz-adv-x="638" 
d="M283 780l-184 -122l61 -100l143 97l143 -97l61 100l-184 122h-40zM215 -160q0 42 28.5 70.5t70.5 28.5t70.5 -28.5t28.5 -70.5t-28.5 -70.5t-70.5 -28.5t-70.5 28.5t-28.5 70.5zM588 0h-170v500h170v-500zM418 251q0 47 -31 78t-78 31t-78 -31t-31 -78t31 -78t78 -31
t78 31t31 78zM471 251q0 -115 -62 -192t-155 -77q-95 0 -159.5 77.5t-64.5 191.5t64.5 191.5t159.5 77.5q93 0 155 -77t62 -192z" />
    <glyph glyph-name="uni1EAF.ss01" horiz-adv-x="638" 
d="M467 934l-113 109l-153 -168l89 -94zM302 569q-87 0 -148.5 56t-61.5 136h127q0 -33 24 -55t60 -22q37 0 63.5 22.5t26.5 54.5h127q0 -77 -65 -134.5t-153 -57.5zM588 0h-170v500h170v-500zM418 251q0 47 -31 78t-78 31t-78 -31t-31 -78t31 -78t78 -31t78 31t31 78z
M471 251q0 -115 -62 -192t-155 -77q-95 0 -159.5 77.5t-64.5 191.5t64.5 191.5t159.5 77.5q93 0 155 -77t62 -192z" />
    <glyph glyph-name="uni1EB1.ss01" horiz-adv-x="638" 
d="M127 934l113 99l163 -158l-109 -94zM302 569q-87 0 -148.5 56t-61.5 136h127q0 -33 24 -55t60 -22q37 0 63.5 22.5t26.5 54.5h127q0 -77 -65 -134.5t-153 -57.5zM588 0h-170v500h170v-500zM418 251q0 47 -31 78t-78 31t-78 -31t-31 -78t31 -78t78 -31t78 31t31 78z
M471 251q0 -115 -62 -192t-155 -77q-95 0 -159.5 77.5t-64.5 191.5t64.5 191.5t159.5 77.5q93 0 155 -77t62 -192z" />
    <glyph glyph-name="uni1EB3.ss01" horiz-adv-x="638" 
d="M313 761l-65 90l61 39q33 20 33 50q0 20 -13 32.5t-33 12.5q-37 0 -45 -36l-103 25q15 55 55 86.5t95 31.5q68 0 110.5 -42.5t42.5 -109.5q0 -45 -22 -77.5t-70 -69.5zM302 569q-87 0 -148.5 56t-61.5 136h127q0 -33 24 -55t60 -22q37 0 63.5 22.5t26.5 54.5h127
q0 -77 -65 -134.5t-153 -57.5zM588 0h-170v500h170v-500zM418 251q0 47 -31 78t-78 31t-78 -31t-31 -78t31 -78t78 -31t78 31t31 78zM471 251q0 -115 -62 -192t-155 -77q-95 0 -159.5 77.5t-64.5 191.5t64.5 191.5t159.5 77.5q93 0 155 -77t62 -192z" />
    <glyph glyph-name="uni1EB5.ss01" horiz-adv-x="638" 
d="M225 955q-118 0 -134 -150l104 -18q9 59 41 59q15 0 40 -19q62 -46 107 -46q58 0 91 39.5t41 110.5l-104 18q-10 -56 -45 -56q-20 0 -42 18q-30 24 -52 34t-47 10zM302 569q-87 0 -148.5 56t-61.5 136h127q0 -33 24 -55t60 -22q37 0 63.5 22.5t26.5 54.5h127
q0 -77 -65 -134.5t-153 -57.5zM588 0h-170v500h170v-500zM418 251q0 47 -31 78t-78 31t-78 -31t-31 -78t31 -78t78 -31t78 31t31 78zM471 251q0 -115 -62 -192t-155 -77q-95 0 -159.5 77.5t-64.5 191.5t64.5 191.5t159.5 77.5q93 0 155 -77t62 -192z" />
    <glyph glyph-name="uni1EB7.ss01" horiz-adv-x="638" 
d="M302 569q-87 0 -148.5 56t-61.5 136h127q0 -33 24 -55t60 -22q37 0 63.5 22.5t26.5 54.5h127q0 -77 -65 -134.5t-153 -57.5zM215 -160q0 42 28.5 70.5t70.5 28.5t70.5 -28.5t28.5 -70.5t-28.5 -70.5t-70.5 -28.5t-70.5 28.5t-28.5 70.5zM588 0h-170v500h170v-500z
M418 251q0 47 -31 78t-78 31t-78 -31t-31 -78t31 -78t78 -31t78 31t31 78zM471 251q0 -115 -62 -192t-155 -77q-95 0 -159.5 77.5t-64.5 191.5t64.5 191.5t159.5 77.5q93 0 155 -77t62 -192z" />
    <glyph glyph-name="G.ss02" horiz-adv-x="798" 
d="M200 351q0 -85 55.5 -142t138.5 -57q62 0 110 30.5t66 82.5h-224v152h412v-417h-170v75q-92 -93 -224 -93q-143 0 -238.5 106t-95.5 263t104.5 263t259.5 106q106 0 193.5 -52t131.5 -141l-153 -80q-24 48 -70 75.5t-102 27.5q-83 0 -138.5 -57t-55.5 -142z" />
    <glyph glyph-name="Gcircumflex.ss02" horiz-adv-x="798" 
d="M374 989l-184 -122l61 -100l143 97l143 -97l61 100l-184 122h-40zM200 351q0 -85 55.5 -142t138.5 -57q62 0 110 30.5t66 82.5h-224v152h412v-417h-170v75q-92 -93 -224 -93q-143 0 -238.5 106t-95.5 263t104.5 263t259.5 106q106 0 193.5 -52t131.5 -141l-153 -80
q-24 48 -70 75.5t-102 27.5q-83 0 -138.5 -57t-55.5 -142z" />
    <glyph glyph-name="Gbreve.ss02" horiz-adv-x="798" 
d="M393 778q-87 0 -148.5 56t-61.5 136h127q0 -33 24 -55t60 -22q37 0 63.5 22.5t26.5 54.5h127q0 -77 -65 -134.5t-153 -57.5zM200 351q0 -85 55.5 -142t138.5 -57q62 0 110 30.5t66 82.5h-224v152h412v-417h-170v75q-92 -93 -224 -93q-143 0 -238.5 106t-95.5 263
t104.5 263t259.5 106q106 0 193.5 -52t131.5 -141l-153 -80q-24 48 -70 75.5t-102 27.5q-83 0 -138.5 -57t-55.5 -142z" />
    <glyph glyph-name="Gdotaccent.ss02" horiz-adv-x="798" 
d="M295 876q0 42 28.5 70.5t70.5 28.5t70.5 -28.5t28.5 -70.5t-28.5 -70.5t-70.5 -28.5t-70.5 28.5t-28.5 70.5zM200 351q0 -85 55.5 -142t138.5 -57q62 0 110 30.5t66 82.5h-224v152h412v-417h-170v75q-92 -93 -224 -93q-143 0 -238.5 106t-95.5 263t104.5 263t259.5 106
q106 0 193.5 -52t131.5 -141l-153 -80q-24 48 -70 75.5t-102 27.5q-83 0 -138.5 -57t-55.5 -142z" />
    <glyph glyph-name="uni0122.ss02" horiz-adv-x="798" 
d="M438 -296q0 -35 -24 -61.5t-62 -26.5t-64 25t-26 62q0 31 18 57l135 193l55 -42l-88 -124q25 -10 40.5 -33t15.5 -50zM200 351q0 -85 55.5 -142t138.5 -57q62 0 110 30.5t66 82.5h-224v152h412v-417h-170v75q-92 -93 -224 -93q-143 0 -238.5 106t-95.5 263t104.5 263
t259.5 106q106 0 193.5 -52t131.5 -141l-153 -80q-24 48 -70 75.5t-102 27.5q-83 0 -138.5 -57t-55.5 -142z" />
    </font>
</defs>
</svg>
