<?xml version="1.0" standalone="no"?>
<!DOCTYPE svg PUBLIC "-//W3C//DTD SVG 1.1//EN" "http://www.w3.org/Graphics/SVG/1.1/DTD/svg11.dtd" >
<svg xmlns="http://www.w3.org/2000/svg" xmlns:xlink="http://www.w3.org/1999/xlink" version="1.1">
<metadata>
Created by FontForge 20201107 at Wed Jan 18 09:25:05 2023
 By 
Copyright (c) 2022, RandomMaerks (Bao Nguyen) || For more information, send an email to rmforbusuness@gmail.com
</metadata>
<defs>
<font id="Cygre-MediumIt" horiz-adv-x="788" >
  <font-face 
    font-family="Cygre Medium"
    font-weight="500"
    font-style="italic"
    font-stretch="normal"
    units-per-em="1000"
    panose-1="2 0 6 3 0 0 0 0 0 0"
    ascent="800"
    descent="-200"
    x-height="500"
    cap-height="700"
    bbox="-138 -288 1337 1240"
    underline-thickness="50"
    underline-position="-100"
    unicode-range="U+0020-25CF"
  />
<missing-glyph horiz-adv-x="364" 
d="M33 0v666h265v-666h-265zM66 33h199v600h-199v-600z" />
    <glyph glyph-name="f_i" unicode="fi" horiz-adv-x="606" 
d="M428 659q-36 0 -61 -26t-32 -67l-12 -66h222l-14 -88h-223l-72 -412h-96l72 412h-110l15 88h111l16 95q11 64 63 109.5t117 45.5h83l-16 -91h-63zM560 638.5q0 26.5 17.5 44t43.5 17.5t44 -17.5t18 -44t-18 -44t-44 -17.5t-43.5 17.5t-17.5 44zM457 0l88 500h97l-88 -500
h-97z" />
    <glyph glyph-name="f_l" unicode="fl" horiz-adv-x="628" 
d="M428 659q-36 0 -61 -26t-32 -67l-12 -66h160l-15 -88h-160l-72 -412h-96l72 412h-110l15 88h111l16 95q11 64 63 109.5t117 45.5h184l-15 -91h-165zM476 0l132 750h96l-132 -750h-96z" />
    <glyph glyph-name="f_f_i" unicode="ffi" horiz-adv-x="965" 
d="M428 659q-36 0 -61 -26t-32 -67l-12 -66h160l-15 -88h-160l-72 -412h-96l72 412h-110l15 88h111l16 95q11 64 63 109.5t117 45.5h83l-16 -91h-63zM782 659q-37 0 -61.5 -26t-32.5 -67l-12 -66h228l-15 -88h-228l-72 -412h-95l72 412h-98l15 88h98l17 95q11 64 63 109.5
t117 45.5h82l-16 -91h-62zM919 638.5q0 26.5 17.5 44t43.5 17.5t44 -17.5t18 -44t-18 -44t-44 -17.5t-43.5 17.5t-17.5 44zM816 0l88 500h97l-88 -500h-97z" />
    <glyph glyph-name="f_f_l" unicode="ffl" horiz-adv-x="968" 
d="M428 659q-36 0 -61 -26t-32 -67l-12 -66h160l-15 -88h-160l-72 -412h-96l72 412h-110l15 88h111l16 95q11 64 63 109.5t117 45.5h83l-16 -91h-63zM769 659q-36 0 -61 -26t-32 -67l-12 -66h160l-15 -88h-160l-72 -412h-96l72 412h-85l15 88h85l17 95q11 64 63 109.5
t117 45.5h184l-15 -91h-165zM817 0l132 750h96l-132 -750h-96z" />
    <glyph glyph-name="f_f" unicode="ff" horiz-adv-x="767" 
d="M428 659q-36 0 -61 -26t-32 -67l-12 -66h160l-15 -88h-160l-72 -412h-96l72 412h-110l15 88h111l16 95q11 64 63 109.5t117 45.5h83l-16 -91h-63zM775 659q-36 0 -61 -26t-33 -67l-11 -66h160l-16 -88h-160l-72 -412h-95l72 412h-91l15 88h91l17 95q11 64 63 109.5
t117 45.5h82l-16 -91h-62z" />
    <glyph glyph-name=".notdef" horiz-adv-x="364" 
d="M33 0v666h265v-666h-265zM66 33h199v600h-199v-600z" />
    <glyph glyph-name=".null" horiz-adv-x="0" 
 />
    <glyph glyph-name="nonmarkingreturn" horiz-adv-x="333" 
 />
    <glyph glyph-name="space" unicode=" " horiz-adv-x="270" 
 />
    <glyph glyph-name="exclam" unicode="!" horiz-adv-x="206" 
d="M46 58q0 31 20 51.5t50 20.5q31 0 52 -20.5t21 -51.5t-20.5 -51.5t-51 -20.5t-51 20.5t-20.5 51.5zM185 206h-89l80 494h103z" />
    <glyph glyph-name="quotedbl" unicode="&#x22;" horiz-adv-x="353" 
d="M371 762l82 -32l-99 -226l-77 30zM220 762l82 -32l-99 -226l-78 30z" />
    <glyph glyph-name="numbersign" unicode="#" horiz-adv-x="697" 
d="M761 520l-16 -92h-641l16 92h641zM722 295l-17 -92h-641l16 92h642zM394 0h-106l399 700h106zM134 0h-106l399 700h106z" />
    <glyph glyph-name="dollar" unicode="$" horiz-adv-x="456" 
d="M290 173q39 0 65.5 19t26.5 48q0 45 -101 73q-163 42 -163 141q0 67 53 115t133 48q74 0 129.5 -43t70.5 -114l-94 -20q-8 40 -36 66t-72 26q-37 0 -62.5 -19.5t-25.5 -46.5q0 -43 95 -69q169 -44 169 -148q0 -65 -55.5 -111.5t-138.5 -46.5q-79 0 -139 42t-77 110l93 24
q9 -39 44 -66.5t85 -27.5zM286 585l22 115h88l-22 -115h-88zM209 133h88l-25 -133h-87z" />
    <glyph glyph-name="percent" unicode="%" horiz-adv-x="914" 
d="M740 267q-46 0 -77.5 -32.5t-31.5 -78.5q0 -40 27 -65t66 -25q46 0 77.5 32.5t31.5 78.5q0 40 -26.5 65t-66.5 25zM543 147q0 85 60 146t144 61q75 0 124.5 -47.5t49.5 -120.5q0 -85 -59.5 -146t-144.5 -61q-75 0 -124.5 47.5t-49.5 120.5zM310 631q-46 0 -77.5 -32.5
t-31.5 -78.5q0 -39 26.5 -64t66.5 -25q46 0 77.5 32.5t31.5 78.5q0 39 -27 64t-66 25zM113 512q0 85 59.5 146t144.5 61q75 0 124.5 -47.5t49.5 -121.5q0 -85 -60 -146t-144 -61q-75 0 -124.5 47.5t-49.5 121.5zM368 0h-109l411 700h108z" />
    <glyph glyph-name="ampersand" unicode="&#x26;" horiz-adv-x="664" 
d="M360 643q32 0 52 -17.5t20 -45.5q0 -55 -70 -103l-54 -37l-18 30q-29 48 -29 75q0 40 29.5 69t69.5 29zM521 592q0 60 -43 98t-110 38q-81 0 -138.5 -54.5t-57.5 -130.5q0 -62 46 -126l21 -31l-70 -52q-44 -30 -69 -74t-25 -93q0 -77 57.5 -128t145.5 -51q78 0 134 48
l58 47l83 -119l73 54l-82 117l114 87l-53 71l-112 -86l-131 172l55 38q47 30 75.5 78.5t28.5 96.5zM281 84q-45 0 -75 27.5t-30 69.5q0 55 54 96l59 45l128 -168l-52 -42q-37 -28 -84 -28z" />
    <glyph glyph-name="quotesingle" unicode="'" horiz-adv-x="202" 
d="M220 762l82 -32l-99 -226l-78 30z" />
    <glyph glyph-name="parenleft" unicode="(" horiz-adv-x="295" 
d="M87 271l37 212q19 107 83 182t152 95l19 -95q-58 -13 -103 -67t-59 -133l-34 -197q-5 -29 -5 -55q0 -63 27.5 -109t74.5 -61l-49 -87q-69 26 -109.5 91t-40.5 153q0 35 7 71z" />
    <glyph glyph-name="parenright" unicode=")" horiz-adv-x="295" 
d="M337 444l-37 -212q-19 -107 -83.5 -182t-151.5 -95l-19 95q58 12 103 66t58 133l35 197q5 29 5 55q0 64 -27.5 109.5t-74.5 61.5l49 86q69 -26 109 -91t40 -152q0 -36 -6 -71z" />
    <glyph glyph-name="asterisk" unicode="*" horiz-adv-x="493" 
d="M345 805l88 -16l-33 -157l159 27l12 -89l-159 -18l74 -142l-80 -39l-67 145l-112 -113l-62 64l118 108l-143 71l42 79l138 -79z" />
    <glyph glyph-name="plus" unicode="+" horiz-adv-x="389" 
d="M229 433h86l-22 -124h123l-15 -85h-123l-22 -124h-86l22 124h-124l15 85h124z" />
    <glyph glyph-name="comma" unicode="," horiz-adv-x="210" 
d="M96 120l92 -27l-105 -249l-76 22z" />
    <glyph glyph-name="hyphen" unicode="-" horiz-adv-x="389" 
d="M416 309l-15 -85h-333l15 85h333z" />
    <glyph glyph-name="period" unicode="." horiz-adv-x="210" 
d="M46 58q0 31 20 51.5t50 20.5q31 0 52 -20.5t21 -51.5t-20.5 -51.5t-51 -20.5t-51 20.5t-20.5 51.5z" />
    <glyph glyph-name="slash" unicode="/" horiz-adv-x="438" 
d="M142 0h-114l392 700h113z" />
    <glyph glyph-name="zero" unicode="0" horiz-adv-x="648" 
d="M586 418q0 91 -47 147.5t-120 56.5q-77 0 -139.5 -64t-79.5 -165l-9 -53q-6 -29 -6 -59q0 -91 47.5 -147.5t120.5 -56.5q76 0 138.5 64t80.5 165l9 53q5 32 5 59zM344 -18q-110 0 -182 81.5t-72 208.5q0 40 7 76l9 53q24 139 115.5 227.5t205.5 88.5q111 0 183 -81.5
t72 -208.5q0 -40 -8 -76l-8 -53q-25 -139 -116.5 -227.5t-205.5 -88.5z" />
    <glyph glyph-name="one" unicode="1" horiz-adv-x="391" 
d="M456 700l-123 -700h-95l104 591l-177 -110l-42 78l230 141h103z" />
    <glyph glyph-name="two" unicode="2" horiz-adv-x="571" 
d="M379 616q62 0 102.5 -37t40.5 -94q0 -27 -7.5 -47.5t-32 -44t-52.5 -43t-85 -56.5l-282 -180l-15 -114h492l11 95h-360l220 137q108 63 157.5 122.5t49.5 140.5q0 93 -65.5 154t-165.5 61q-84 0 -151 -47.5t-108 -131.5l86 -36q59 121 165 121z" />
    <glyph glyph-name="three" unicode="3" horiz-adv-x="571" 
d="M310 -11q113 0 187 69.5t74 176.5q0 71 -40 120t-112 65l217 167l16 113h-489l-11 -95h379l-234 -171l13 -69q78 -7 121.5 -43t43.5 -95q0 -64 -44 -103.5t-114 -39.5q-69 0 -111 36.5t-45 99.5l-93 -22q10 -96 75 -152.5t167 -56.5z" />
    <glyph glyph-name="four" unicode="4" horiz-adv-x="600" 
d="M183 292h239l53 288zM588 700l-71 -408h109l-16 -92h-110l-35 -200h-95l35 200h-336l15 114l388 386h116z" />
    <glyph glyph-name="five" unicode="5" horiz-adv-x="571" 
d="M578 263q0 96 -55 158.5t-139 62.5q-88 0 -168 -58l33 179h375l11 95h-466l-58 -332l89 -35q73 63 152 63q59 0 95 -37.5t36 -97.5q0 -76 -48 -126t-120 -50q-64 0 -104 35t-43 96l-98 -22q11 -93 75.5 -149t163.5 -56q114 0 191.5 79t77.5 195z" />
    <glyph glyph-name="six" unicode="6" horiz-adv-x="610" 
d="M86 239q0 132 48.5 241t131 171t180.5 62q76 0 136.5 -33.5t86.5 -90.5l-71 -62q-21 42 -65.5 66.5t-100.5 24.5q-82 0 -145 -64t-90 -175q34 46 87.5 72.5t112.5 26.5q95 0 157 -62.5t62 -158.5q0 -115 -81 -195.5t-197.5 -80.5t-184 69.5t-67.5 188.5zM360 385
q-75 0 -126 -46t-51 -113q0 -63 48 -106.5t117 -43.5q72 0 122 49.5t50 119.5q0 62 -44.5 101t-115.5 39z" />
    <glyph glyph-name="seven" unicode="7" horiz-adv-x="526" 
d="M270 0l338 598l14 102h-468l-11 -94h358l-349 -606h118z" />
    <glyph glyph-name="eight" unicode="8" horiz-adv-x="598" 
d="M333 316q-72 0 -119.5 -36t-47.5 -88q0 -49 49.5 -82t120.5 -33q69 0 116.5 33.5t47.5 86.5q0 52 -48.5 85.5t-118.5 33.5zM148 515q0 84 71.5 143.5t176.5 59.5q100 0 168.5 -53t68.5 -134q0 -59 -41.5 -105.5t-111.5 -68.5q53 -27 83.5 -70.5t30.5 -95.5
q0 -89 -76.5 -149t-188.5 -60q-110 0 -185 55.5t-75 139.5q0 63 47 114.5t128 73.5q-45 26 -70.5 65t-25.5 85zM242 510q0 -46 42.5 -76t104.5 -30q63 0 105 31.5t42 79.5q0 47 -42.5 77.5t-104.5 30.5q-63 0 -105 -33t-42 -80z" />
    <glyph glyph-name="nine" unicode="9" horiz-adv-x="610" 
d="M645 455q0 -132 -48.5 -241t-131 -171t-180.5 -62q-76 0 -136.5 33.5t-86.5 90.5l71 62q21 -42 65.5 -66.5t100.5 -24.5q81 0 144.5 64t90.5 175q-34 -46 -87.5 -72.5t-112.5 -26.5q-95 0 -157 62.5t-62 158.5q0 115 81 195.5t197 80.5t184 -69.5t68 -188.5zM371 309
q75 0 126 46t51 113q0 63 -48 106.5t-117 43.5q-72 0 -122 -49.5t-50 -119.5q0 -62 44.5 -101t115.5 -39z" />
    <glyph glyph-name="colon" unicode=":" horiz-adv-x="210" 
d="M106 400q0 31 20 51.5t50 20.5q31 0 52 -20.5t21 -51.5t-20.5 -51.5t-51 -20.5t-51 20.5t-20.5 51.5zM45 58q0 31 20 51.5t50 20.5q32 0 52.5 -20.5t20.5 -51.5t-20 -51.5t-51 -20.5t-51.5 20.5t-20.5 51.5z" />
    <glyph glyph-name="semicolon" unicode=";" horiz-adv-x="210" 
d="M96 120l92 -27l-105 -249l-76 22zM106 400q0 31 20 51.5t50 20.5q31 0 52 -20.5t21 -51.5t-20.5 -51.5t-51 -20.5t-51 20.5t-20.5 51.5z" />
    <glyph glyph-name="less" unicode="&#x3c;" horiz-adv-x="503" 
d="M493 141l-18 -96l-402 161l22 124l459 162l-16 -106l-366 -121z" />
    <glyph glyph-name="equal" unicode="=" horiz-adv-x="389" 
d="M400 220l-15 -84h-333l15 84h333zM433 409l-14 -85h-334l15 85h333z" />
    <glyph glyph-name="greater" unicode="&#x3e;" horiz-adv-x="503" 
d="M106 398l17 94l403 -162l-22 -124l-460 -161l19 108l366 121z" />
    <glyph glyph-name="question" unicode="?" horiz-adv-x="551" 
d="M202 58q0 31 20.5 51.5t50.5 20.5q31 0 52 -20.5t21 -51.5t-20.5 -51.5t-51.5 -20.5t-51.5 20.5t-20.5 51.5zM368 616q57 0 94 -33.5t37 -85.5q0 -47 -24.5 -82t-91.5 -73l-108 -56l27 -81l111 58q97 50 139 108t42 136q0 89 -61.5 146.5t-156.5 57.5q-77 0 -140.5 -44.5
t-104.5 -126.5l82 -42q57 118 155 118z" />
    <glyph glyph-name="at" unicode="@" horiz-adv-x="793" 
d="M444 250q42 0 71 30t29 73q0 36 -24 59.5t-62 23.5q-41 0 -70.5 -30t-29.5 -73q0 -36 24 -59.5t62 -23.5zM575 370q0 -79 -48.5 -136.5t-115.5 -57.5q-58 0 -96 41.5t-38 105.5q0 77 50.5 133.5t118.5 56.5q57 0 93 -39.5t36 -103.5zM833 402q0 -102 -49.5 -169
t-125.5 -67q-51 0 -88.5 27.5t-37.5 64.5v12l40 230h81l-36 -203q-1 -9 -1 -15q0 -20 12.5 -32t35.5 -12q39 0 63 42t24 109q0 110 -75 181.5t-190 71.5q-85 0 -158 -44t-115 -118.5t-42 -161.5q0 -115 76.5 -189.5t195.5 -74.5q86 0 165 43l27 -69q-94 -50 -199 -50
q-151 0 -248 93.5t-97 240.5q0 111 53 206t144 150.5t198 55.5q148 0 247.5 -93t99.5 -229z" />
    <glyph glyph-name="A" unicode="A" horiz-adv-x="770" 
d="M145 0h-113l415 700h127l168 -700h-104l-141 593zM231 271h407l-16 -90h-406z" />
    <glyph glyph-name="B" unicode="B" horiz-adv-x="651" 
d="M465 396q47 0 85 36.5t38 81.5q0 41 -25.5 67t-66.5 26h-240l-37 -211h246zM416 93q54 0 92.5 35.5t38.5 84.5q0 42 -27 67.5t-71 25.5h-246l-37 -213h250zM642 217q0 -88 -68.5 -152.5t-163.5 -64.5h-357l124 700h346q73 0 118 -44.5t45 -115.5q0 -56 -34 -109t-89 -79
q38 -21 58.5 -56t20.5 -79z" />
    <glyph glyph-name="C" unicode="C" horiz-adv-x="778" 
d="M97 314q0 111 52.5 204.5t143 147t199 53.5t194.5 -60t118 -172l-91 -31q-21 77 -83.5 122.5t-145.5 45.5q-121 0 -206 -89t-85 -215q0 -106 69 -175t175 -69q73 0 138.5 41.5t106.5 114.5l85 -47q-57 -96 -146 -150t-191 -54q-143 0 -238 95t-95 238z" />
    <glyph glyph-name="D" unicode="D" horiz-adv-x="701" 
d="M728 410q0 -110 -51 -203.5t-146.5 -150t-213.5 -56.5h-264l123 700h257q131 0 213 -81.5t82 -208.5zM323 92q91 0 162.5 43t109 112.5t37.5 152.5q0 94 -59 151t-159 57h-157l-92 -516h158z" />
    <glyph glyph-name="E" unicode="E" horiz-adv-x="566" 
d="M221 410h357l-15 -93h-358l-39 -224h379l-16 -93h-476l124 700h474l-16 -93h-378z" />
    <glyph glyph-name="F" unicode="F" horiz-adv-x="566" 
d="M221 410h357l-15 -93h-358l-55 -317h-97l124 700h474l-16 -93h-378z" />
    <glyph glyph-name="G" unicode="G" 
d="M491 625q-124 0 -211 -88.5t-87 -213.5q0 -108 68 -177t174 -69q102 0 173.5 56t94.5 155h-287l13 84h386q-8 -173 -115 -281.5t-271 -108.5q-146 0 -239 93.5t-93 238.5q0 110 54 203.5t147 148t202 54.5t193 -59.5t113 -157.5l-92 -35q-21 72 -81.5 114.5t-141.5 42.5z
" />
    <glyph glyph-name="H" unicode="H" horiz-adv-x="687" 
d="M54 0l122 700h96l-52 -296h386l52 296h95l-122 -700h-96l55 313h-385l-55 -313h-96z" />
    <glyph glyph-name="I" unicode="I" horiz-adv-x="207" 
d="M149 0h-96l123 700h95z" />
    <glyph glyph-name="J" unicode="J" horiz-adv-x="609" 
d="M159 218q9 -64 50.5 -98.5t109.5 -34.5q70 0 118 43t61 118l80 454h95l-83 -472q-18 -105 -97 -171.5t-184 -66.5q-99 0 -165 55.5t-79 150.5z" />
    <glyph glyph-name="K" unicode="K" horiz-adv-x="627" 
d="M53 0l124 700h95l-52 -301h28l343 301h132l-397 -351l271 -349h-121l-241 301h-32l-53 -301h-97z" />
    <glyph glyph-name="L" unicode="L" horiz-adv-x="556" 
d="M166 93h379l-17 -93h-475l124 700h95z" />
    <glyph glyph-name="M" unicode="M" horiz-adv-x="836" 
d="M53 0l123 700h112l169 -457l333 457h119l-123 -700h-96l96 540l-310 -428h-70l-160 435l-96 -547h-97z" />
    <glyph glyph-name="N" unicode="N" horiz-adv-x="687" 
d="M53 0l123 700h121l262 -568l99 568h96l-123 -700h-121l-260 574l-100 -574h-97z" />
    <glyph glyph-name="O" unicode="O" 
d="M481 625q-120 0 -204 -89t-84 -215q0 -108 68.5 -176t172.5 -68q79 0 146 42t105 112.5t38 151.5q0 107 -69 174.5t-173 67.5zM98 317q0 109 51 201.5t140.5 147t194.5 54.5q143 0 238.5 -94t95.5 -238q0 -108 -51 -201.5t-140.5 -149t-195.5 -55.5q-142 0 -237.5 95
t-95.5 240z" />
    <glyph glyph-name="P" unicode="P" horiz-adv-x="629" 
d="M395 322q83 0 137 46t54 122q0 52 -36.5 84.5t-97.5 32.5h-195l-50 -285h188zM683 502q0 -123 -85.5 -197.5t-210.5 -74.5h-197l-40 -230h-97l123 700h290q93 0 155 -56.5t62 -141.5z" />
    <glyph glyph-name="Q" unicode="Q" 
d="M481 625q-120 0 -204 -89t-84 -215q0 -108 68.5 -176t172.5 -68q79 0 146 42t105 112.5t38 151.5q0 107 -69 174.5t-173 67.5zM98 317q0 109 51 201.5t140.5 147t194.5 54.5q143 0 238.5 -94t95.5 -238q0 -108 -51 -201.5t-140.5 -149t-195.5 -55.5q-142 0 -237.5 95
t-95.5 240zM739 -21l-318 331l69 66l318 -332z" />
    <glyph glyph-name="R" unicode="R" horiz-adv-x="635" 
d="M409 350q70 0 122.5 46t52.5 106q0 47 -34.5 76t-90.5 29h-203l-45 -257h198zM684 513q0 -97 -71 -168.5t-172 -79.5l155 -265h-109l-152 258h-140l-46 -258h-96l124 700h309q89 0 143.5 -52.5t54.5 -134.5z" />
    <glyph glyph-name="S" unicode="S" horiz-adv-x="581" 
d="M341 80q61 0 103 32.5t42 79.5q0 36 -34.5 63t-105.5 49q-206 61 -206 197q0 90 69 151.5t170 61.5q96 0 166.5 -54t88.5 -142l-94 -28q-14 61 -58.5 96.5t-106.5 35.5q-58 0 -97 -31.5t-39 -78.5q0 -37 33.5 -63.5t105.5 -48.5q101 -31 153.5 -82.5t52.5 -118.5
q0 -90 -71 -150.5t-175 -60.5q-99 0 -172 54.5t-92 143.5l97 35q13 -65 59 -103t111 -38z" />
    <glyph glyph-name="T" unicode="T" horiz-adv-x="599" 
d="M695 700l-16 -93h-225l-107 -607h-95l107 607h-227l16 93h547z" />
    <glyph glyph-name="U" unicode="U" horiz-adv-x="690" 
d="M370 -11q-116 0 -192.5 72.5t-76.5 184.5q0 26 5 54l70 400h96l-70 -398q-4 -24 -4 -47q0 -69 47 -120t135 -51q79 0 134.5 49t70.5 135l75 432h96l-79 -450q-20 -115 -106.5 -188t-200.5 -73z" />
    <glyph glyph-name="V" unicode="V" horiz-adv-x="770" 
d="M750 700h113l-415 -700h-127l-168 700h104l141 -593z" />
    <glyph glyph-name="W" unicode="W" horiz-adv-x="1040" 
d="M1018 700h107l-317 -700h-132l-65 549l-246 -549h-135l-78 700h101l63 -577l267 577h105l71 -577z" />
    <glyph glyph-name="X" unicode="X" horiz-adv-x="706" 
d="M675 0h-112l-157 288l-258 -288h-122l310 346l-186 354h113l155 -296l259 296h121l-310 -354z" />
    <glyph glyph-name="Y" unicode="Y" horiz-adv-x="671" 
d="M297 0h95l41 232l332 468h-116l-248 -353l-142 353h-108l187 -468z" />
    <glyph glyph-name="Z" unicode="Z" horiz-adv-x="628" 
d="M591 0l17 92h-430l517 498l20 110h-548l-17 -92h429l-516 -492l-20 -116h548z" />
    <glyph glyph-name="bracketleft" unicode="[" horiz-adv-x="317" 
d="M162 46h127l-15 -90h-225l140 798h225l-16 -93h-127z" />
    <glyph glyph-name="backslash" unicode="\" horiz-adv-x="438" 
d="M309 0l-157 700h101l157 -700h-101z" />
    <glyph glyph-name="bracketright" unicode="]" horiz-adv-x="317" 
d="M281 664h-128l16 90h225l-140 -798h-225l16 93h127z" />
    <glyph glyph-name="asciicircum" unicode="^" horiz-adv-x="433" 
d="M339 751l-195 -146l38 -63l160 124l115 -132l55 53l-145 161z" />
    <glyph glyph-name="underscore" unicode="_" horiz-adv-x="439" 
d="M422 60l-14 -77h-383l14 77h383z" />
    <glyph glyph-name="grave" unicode="`" horiz-adv-x="283" 
d="M152 681l55 55l146 -167l-52 -50z" />
    <glyph glyph-name="a" unicode="a" horiz-adv-x="505" 
d="M312 511q83 0 142 -50.5t59 -121.5q0 -13 -3 -28l-53 -311h-96l38 216l-130 -12q-51 -3 -79 -21t-28 -47t25 -45.5t67 -16.5q56 0 94 30.5t46 83.5h34q-14 -87 -74 -142t-139 -55q-66 0 -107.5 38t-41.5 98q0 67 54 110t144 50l150 12l1 12q3 14 3 21q0 39 -31 65.5
t-76 26.5q-40 0 -73.5 -21t-48.5 -54l-84 39q29 56 85.5 89.5t121.5 33.5z" />
    <glyph glyph-name="b" unicode="b" horiz-adv-x="638" 
d="M52 0l131 750h96l-131 -750h-96zM384 429q-81 0 -137 -58t-56 -138q0 -70 47 -114.5t118 -44.5q81 0 137 57.5t56 138.5q0 70 -47 114.5t-118 44.5zM149 213q0 80 35.5 150t98 112.5t136.5 42.5q96 0 161 -66t65 -169q0 -80 -36.5 -149.5t-100.5 -111.5t-140 -42
q-97 0 -158 66t-61 167z" />
    <glyph glyph-name="c" unicode="c" horiz-adv-x="587" 
d="M365 428q-78 0 -133 -58t-55 -140q0 -69 45 -113.5t115 -44.5q51 0 97 26t72 72l79 -47q-40 -67 -107.5 -104.5t-147.5 -37.5q-108 0 -178.5 68.5t-70.5 172.5q0 123 85.5 210t205.5 87q88 0 153 -43.5t89 -115.5l-91 -37q-15 49 -57 77t-101 28z" />
    <glyph glyph-name="d" unicode="d" horiz-adv-x="638" 
d="M588 0h-95l131 750h95zM344 74q81 0 137 57.5t56 138.5q0 70 -47 114.5t-118 44.5q-80 0 -136 -58t-56 -138q0 -70 47 -114.5t117 -44.5zM579 290q0 -80 -35 -150.5t-97.5 -112.5t-137.5 -42q-95 0 -160 65.5t-65 169.5q0 80 36.5 149.5t100.5 111t139 41.5
q97 0 158 -65.5t61 -166.5z" />
    <glyph glyph-name="e" unicode="e" horiz-adv-x="595" 
d="M513 310q-5 54 -45.5 87.5t-98.5 33.5q-64 0 -116 -37.5t-69 -98.5h329q1 8 0 15zM606 283q0 -33 -10 -73h-419q3 -61 48 -100t112 -39q51 0 94.5 24t70.5 67l77 -51q-44 -64 -108 -96.5t-139 -32.5q-109 0 -181 68.5t-72 174.5q0 121 85.5 208t206.5 87q100 0 167.5 -67
t67.5 -170z" />
    <glyph glyph-name="f" unicode="f" horiz-adv-x="420" 
d="M428 659q-36 0 -61 -26t-32 -67l-12 -66h160l-15 -88h-160l-72 -412h-96l72 412h-110l15 88h111l16 95q11 64 63 109.5t117 45.5h83l-16 -91h-63z" />
    <glyph glyph-name="g" unicode="g" horiz-adv-x="598" 
d="M539 304q0 -113 -72.5 -196t-175.5 -83q-90 0 -150 61.5t-60 156.5q0 112 76 194t181 82q89 0 145 -61t56 -154zM324 114q71 0 120 49.5t49 120.5q0 60 -41.5 99.5t-105.5 39.5q-71 0 -120.5 -49.5t-49.5 -120.5q0 -60 42 -99.5t106 -39.5zM125 -11q14 -56 56.5 -88.5
t103.5 -32.5t105 32t53 82l90 518h96l-92 -526q-16 -91 -87 -147t-170 -56q-34 0 -69.5 9.5t-70.5 29t-63.5 54.5t-41.5 80z" />
    <glyph glyph-name="h" unicode="h" horiz-adv-x="550" 
d="M54 0l131 750h97l-131 -750h-97zM402 0l49 278q11 64 -19 106t-88 42q-53 0 -92 -36.5t-51 -95.5h-44q18 95 81 156.5t144 61.5q88 0 136 -67.5t30 -168.5l-49 -276h-97z" />
    <glyph glyph-name="i" unicode="i" horiz-adv-x="204" 
d="M157 638.5q0 26.5 18 44t44 17.5t43.5 -17.5t17.5 -44t-17.5 -44t-43.5 -17.5t-44 17.5t-18 44zM55 0l88 500h96l-88 -500h-96z" />
    <glyph glyph-name="j" unicode="j" horiz-adv-x="204" 
d="M157 638.5q0 26.5 18 44t44 17.5t43.5 -17.5t17.5 -44t-17.5 -44t-43.5 -17.5t-44 17.5t-18 44zM-28 -92q32 0 53.5 23t27.5 58l90 511h96l-97 -548q-10 -58 -54.5 -98t-106.5 -40h-43l12 94h22z" />
    <glyph glyph-name="k" unicode="k" horiz-adv-x="519" 
d="M53 0l129 731h95l-74 -425h26l226 194h135l-287 -248l193 -252h-116l-167 210h-27l-36 -210h-97z" />
    <glyph glyph-name="l" unicode="l" horiz-adv-x="207" 
d="M55 0l132 750h97l-132 -750h-97z" />
    <glyph glyph-name="m" unicode="m" horiz-adv-x="821" 
d="M668 0l52 299q10 54 -15 90t-73 36q-47 0 -81 -35t-41 -92h-43q14 96 70.5 154t132.5 58q75 0 118.5 -62.5t28.5 -149.5l-53 -298h-96zM53 0l88 500h96l-88 -500h-96zM361 0l52 296q9 55 -16 92t-72 37t-81 -35.5t-43 -93.5h-42q15 91 72.5 152.5t130.5 61.5
q76 0 119.5 -62.5t28.5 -149.5l-53 -298h-96z" />
    <glyph glyph-name="n" unicode="n" horiz-adv-x="550" 
d="M54 0l88 500h97l-88 -500h-97zM402 0l49 278q11 65 -19 106.5t-88 41.5q-53 0 -92 -36.5t-51 -95.5h-44q17 88 81.5 153t143.5 65q88 0 135.5 -67.5t30.5 -168.5l-49 -276h-97z" />
    <glyph glyph-name="o" unicode="o" horiz-adv-x="618" 
d="M368 429q-81 0 -137 -58t-56 -139q0 -70 47.5 -114.5t117.5 -44.5q81 0 137 58t56 139q0 70 -47.5 114.5t-117.5 44.5zM80 224q0 122 85.5 209t209.5 87q108 0 180.5 -68t72.5 -174q0 -122 -85.5 -209t-209.5 -87q-108 0 -180.5 68t-72.5 174z" />
    <glyph glyph-name="p" unicode="p" horiz-adv-x="638" 
d="M137 500h95l-122 -700h-95zM381 427q-81 0 -137 -58t-56 -138q0 -70 47.5 -114.5t117.5 -44.5q81 0 137 57.5t56 138.5q0 70 -47 114.5t-118 44.5zM146 211q0 80 35.5 150t98 112.5t136.5 42.5q96 0 161 -66t65 -170q0 -79 -36.5 -148.5t-100.5 -111.5t-140 -42
q-96 0 -157.5 66t-61.5 167z" />
    <glyph glyph-name="q" unicode="q" horiz-adv-x="638" 
d="M674 500l-123 -700h-95l122 700h96zM342 72q81 0 137 57.5t56 138.5q0 70 -47.5 114.5t-117.5 44.5q-81 0 -137 -58t-56 -138q0 -70 47 -114.5t118 -44.5zM577 288q0 -81 -35.5 -151t-98 -112t-136.5 -42q-96 0 -161 65.5t-65 169.5q0 80 36.5 149.5t100.5 111t140 41.5
q96 0 157.5 -65.5t61.5 -166.5z" />
    <glyph glyph-name="r" unicode="r" horiz-adv-x="350" 
d="M53 0l87 500h96l-87 -500h-96zM369 414q-61 0 -111 -35.5t-59 -88.5h-45q15 88 81.5 153t144.5 65h33l-16 -94h-28z" />
    <glyph glyph-name="s" unicode="s" horiz-adv-x="481" 
d="M279 70q39 0 65 19t26 48q0 45 -100 73q-163 42 -163 141q0 67 53 115t133 48q74 0 129.5 -43t70.5 -114l-94 -21q-8 41 -36 66.5t-72 25.5q-37 0 -62.5 -19t-25.5 -46q0 -44 95 -69q169 -44 169 -148q0 -65 -55.5 -111.5t-138.5 -46.5q-79 0 -139.5 42t-76.5 110l92 24
q10 -39 45 -66.5t85 -27.5z" />
    <glyph glyph-name="t" unicode="t" horiz-adv-x="392" 
d="M314 88h68l-15 -88h-83q-64 0 -102 34t-38 88q0 14 3 29l46 261h-92l15 88h92l26 150l98 11l-28 -161h150l-16 -88h-150l-44 -248q-1 -12 -1 -19q0 -57 71 -57z" />
    <glyph glyph-name="u" unicode="u" horiz-adv-x="543" 
d="M573 500l-88 -500h-97l88 500h97zM245 500l-55 -306q-10 -57 17 -88t82 -31q50 0 86.5 28t44.5 76h45q-17 -82 -77 -136t-136 -54q-84 0 -130 54t-29 147l55 310h97z" />
    <glyph glyph-name="v" unicode="v" horiz-adv-x="567" 
d="M524 500h104l-288 -500h-124l-99 500h99l76 -408z" />
    <glyph glyph-name="w" unicode="w" horiz-adv-x="842" 
d="M799 500h105l-245 -500h-134l-48 364l-179 -364h-116l-65 500h99l43 -397l192 397h95l58 -402z" />
    <glyph glyph-name="x" unicode="x" horiz-adv-x="558" 
d="M532 0h-107l-112 192l-165 -192h-122l229 256l-138 244h108l108 -192l170 192h120l-232 -256z" />
    <glyph glyph-name="y" unicode="y" horiz-adv-x="567" 
d="M523 500l-225 -384l-82 384h-99l108 -487l-122 -213h108l417 700h-105z" />
    <glyph glyph-name="z" unicode="z" horiz-adv-x="485" 
d="M451 0l15 84h-311l365 313l18 103h-414l-15 -84h300l-354 -313l-18 -103h414z" />
    <glyph glyph-name="braceleft" unicode="{" horiz-adv-x="338" 
d="M134 182q0 18 4 45t4 44q0 63 -61 63l16 92q35 0 58.5 21.5t29.5 57.5q17 99 79.5 168t147.5 87l20 -93q-59 -13 -103.5 -66.5t-57.5 -129.5q-15 -88 -78 -101q45 -19 45 -69q0 -17 -4 -44t-4 -44q0 -62 28 -107.5t75 -60.5l-50 -88q-68 24 -108.5 84t-40.5 141z" />
    <glyph glyph-name="bar" unicode="|" horiz-adv-x="207" 
d="M19 -200l176 1000h98l-177 -1000h-97z" />
    <glyph glyph-name="braceright" unicode="}" horiz-adv-x="338" 
d="M333 537q0 -17 -4 -44t-4 -43q0 -32 16 -49t45 -17l-16 -92q-36 0 -58.5 -20.5t-29.5 -58.5q-17 -97 -79 -167t-148 -88l-19 94q59 12 103 65.5t57 130.5q15 87 78 100q-45 19 -45 69q0 18 4 44.5t4 44.5q0 62 -27.5 107t-75.5 61l50 87q69 -24 109 -84t40 -140z" />
    <glyph glyph-name="asciitilde" unicode="~" horiz-adv-x="471" 
d="M219 353q-86 0 -130 -125l68 -18q25 70 59 70q13 0 23 -6.5t25 -24.5q23 -25 42.5 -35t44.5 -10q43 0 76 33t54 92l-66 18q-26 -67 -66 -67q-13 0 -23.5 6.5t-24.5 23.5q-22 24 -39.5 33.5t-42.5 9.5z" />
    <glyph glyph-name="exclamdown" unicode="&#xa1;" horiz-adv-x="206" 
d="M266 531q0 -31 -20 -52t-50 -21q-32 0 -52.5 21t-20.5 52q0 30 20 50.5t51 20.5t51.5 -20.5t20.5 -50.5zM127 382h89l-80 -494h-104z" />
    <glyph glyph-name="cent" unicode="&#xa2;" horiz-adv-x="587" 
d="M381 535q-79 0 -134 -58t-55 -140q0 -69 45 -113.5t115 -44.5q52 0 98 26t71 72l80 -46q-41 -67 -108.5 -105t-147.5 -38q-108 0 -178 68.5t-70 172.5q0 123 85.5 210t205.5 87q87 0 152.5 -43t89.5 -116l-91 -36q-16 48 -58 76t-100 28zM365 596l18 104h88l-19 -104h-87
zM281 118h87l-21 -118h-87z" />
    <glyph glyph-name="sterling" unicode="&#xa3;" horiz-adv-x="589" 
d="M578 92l-17 -92h-533l16 92h107l34 196h-86l16 92h86l22 124q18 99 87 158.5t157 59.5q155 0 196 -145l-94 -32q-24 81 -105 81q-55 0 -95.5 -32.5t-51.5 -99.5l-21 -114h211l-16 -92h-211l-34 -196h332z" />
    <glyph glyph-name="currency" unicode="&#xa4;" horiz-adv-x="385" 
d="M88 276q0 64 43 107l-30 42l50 35l28 -43q27 14 63 14q61 0 104 -43l42 31l36 -52l-42 -30q13 -28 13 -59q0 -64 -43 -107l30 -42l-50 -35l-28 43q-29 -14 -63 -14q-63 0 -105 42l-41 -29l-37 51l43 30q-13 29 -13 59zM240 359q-34 0 -57.5 -24t-23.5 -60q0 -34 24 -57
t59 -23t58.5 24t23.5 60q0 34 -24 57t-60 23z" />
    <glyph glyph-name="yen" unicode="&#xa5;" horiz-adv-x="589" 
d="M493 162h-333l-12 -69h333zM516 290h-334l-12 -70h333zM253 0h95l60 341l277 359h-117l-196 -260l-113 260h-107l161 -359z" />
    <glyph glyph-name="brokenbar" unicode="&#xa6;" horiz-adv-x="207" 
d="M224 411h-95l68 389h95zM188 209l-72 -409h-95l72 409h95z" />
    <glyph glyph-name="section" unicode="&#xa7;" horiz-adv-x="456" 
d="M387 347q0 -28 -26 -45t-72 -18q-49 14 -71.5 30.5t-22.5 39.5q0 28 27 45.5t71 18.5q49 -15 71.5 -31.5t22.5 -39.5zM318 713q-77 0 -129 -44t-52 -109q0 -66 73 -109q-53 -12 -83.5 -44.5t-30.5 -75.5q0 -90 154 -129q52 -14 75.5 -30.5t23.5 -39.5q0 -27 -24 -44.5
t-59 -17.5q-42 0 -71.5 24.5t-38.5 66.5l-95 -21q15 -68 71 -110t132 -42q77 0 129 44t52 109t-72 108q51 11 81.5 43.5t30.5 75.5q0 44 -35.5 74.5t-115.5 55.5q-55 19 -78 35.5t-23 36.5q0 26 24 43.5t59 17.5q42 0 71.5 -24.5t38.5 -66.5l95 22q-15 67 -71 109t-132 42z
" />
    <glyph glyph-name="dieresis" unicode="&#xa8;" horiz-adv-x="434" 
d="M384 626.5q0 26.5 18 44t44 17.5t43.5 -17.5t17.5 -44t-17.5 -44t-43.5 -17.5t-44 17.5t-18 44zM149 626.5q0 26.5 18 44t44 17.5t43.5 -17.5t17.5 -44t-17.5 -44t-43.5 -17.5t-44 17.5t-18 44z" />
    <glyph glyph-name="copyright" unicode="&#xa9;" 
d="M464 451q-43 0 -74 -33t-31 -79q0 -38 25 -63t63 -25q57 0 91 57l59 -31q-28 -45 -69.5 -70t-87.5 -25q-64 0 -106.5 42.5t-42.5 107.5q0 77 53 132.5t127 55.5q55 0 96 -32t54 -85l-68 -21q-7 31 -31.5 50t-57.5 19zM482 648q-84 0 -155.5 -44.5t-113 -120.5t-41.5 -166
q0 -115 73 -188.5t185 -73.5q84 0 155.5 44.5t113.5 121t42 166.5q0 114 -73 187.5t-186 73.5zM100 310q0 111 52 205.5t141.5 149.5t194.5 55q141 0 233 -92t92 -233q0 -112 -52 -207t-142 -150.5t-195 -55.5q-141 0 -232.5 93t-91.5 235z" />
    <glyph glyph-name="ordfeminine" unicode="&#xaa;" horiz-adv-x="358" 
d="M373 700h70l-49 -278l-70 1zM388 350l-11 -69h-298l11 69h298zM281 641q-34 0 -59.5 -26.5t-25.5 -62.5q0 -31 20.5 -51t50.5 -20q34 0 57.5 26.5t23.5 64.5q0 30 -18.5 49.5t-48.5 19.5zM127 543q0 67 44 118t102 51q48 0 79 -34.5t31 -90.5q0 -71 -40.5 -122.5
t-100.5 -51.5q-51 0 -83 37.5t-32 92.5z" />
    <glyph glyph-name="guillemotleft" unicode="&#xab;" horiz-adv-x="552" 
d="M548 172l-19 -102l-209 133l22 127l257 137l-19 -113l-172 -90zM300 172l-19 -102l-208 136l22 124l256 137l-19 -113l-172 -90z" />
    <glyph glyph-name="logicalnot" unicode="&#xac;" horiz-adv-x="449" 
d="M484 355l-35 -196h-91l20 111h-302l15 85h393z" />
    <glyph glyph-name="uni00AD" unicode="&#xad;" horiz-adv-x="335" 
d="M362 309l-15 -85h-279l15 85h279z" />
    <glyph glyph-name="registered" unicode="&#xae;" 
d="M482 648q-84 0 -155.5 -44.5t-113 -120.5t-41.5 -166q0 -115 73 -188.5t185 -73.5q84 0 155.5 44.5t113.5 121t42 166.5q0 114 -73 187.5t-186 73.5zM100 310q0 111 52 205.5t141.5 149.5t194.5 55q141 0 233 -92t92 -233q0 -112 -52 -207t-142 -150.5t-195 -55.5
q-141 0 -232.5 93t-91.5 235zM520 450h-124l-16 -93h123q27 0 45 15t18 37q0 18 -13 29.5t-33 11.5zM506 300l87 -112h-83l-85 108h-56l-19 -108h-65l57 325h202q38 0 62.5 -28.5t24.5 -71.5q0 -44 -36 -76.5t-89 -36.5z" />
    <glyph glyph-name="macron" unicode="&#xaf;" horiz-adv-x="370" 
d="M466 700l-14 -77h-314l14 77h314z" />
    <glyph glyph-name="degree" unicode="&#xb0;" horiz-adv-x="406" 
d="M306 623q-40 0 -67.5 -28.5t-27.5 -69.5q0 -34 23 -56t58 -22q40 0 67.5 28.5t27.5 68.5q0 34 -23 56.5t-58 22.5zM123 517q0 79 55.5 136t134.5 57q70 0 116 -44t46 -113q0 -80 -55.5 -137t-134.5 -57q-70 0 -116 44.5t-46 113.5z" />
    <glyph glyph-name="plusminus" unicode="&#xb1;" horiz-adv-x="389" 
d="M366 29l-14 -85h-334l15 85h333zM231 448h87l-22 -124h122l-14 -85h-123l-22 -124h-87l22 124h-124l15 85h124z" />
    <glyph glyph-name="uni00B2" unicode="&#xb2;" horiz-adv-x="304" 
d="M406 732q9 51 -21 84.5t-82 33.5q-49 0 -85.5 -27.5t-58.5 -70.5l71 -27q20 45 56 45q18 0 28.5 -12t6.5 -31q-5 -28 -81 -64l-104 -53l-17 -94h250l14 77h-149l56 27q105 48 116 112z" />
    <glyph glyph-name="uni00B3" unicode="&#xb3;" horiz-adv-x="312" 
d="M324 705l88 51l16 90h-238l-13 -73h159l-83 -56l14 -54q25 0 36.5 -10t8.5 -28q-3 -15 -16.5 -25t-32.5 -10q-20 0 -31 12t-12 34l-84 -17q4 -50 34.5 -79.5t80.5 -29.5q54 0 94.5 30t48.5 77q7 37 -12.5 61t-57.5 27z" />
    <glyph glyph-name="acute" unicode="&#xb4;" horiz-adv-x="279" 
d="M375 680l-44 66l-189 -139l40 -61z" />
    <glyph glyph-name="mu" unicode="&#xb5;" horiz-adv-x="571" 
d="M604 500l-88 -500h-96l89 500h95zM144 500h95l-123 -700h-95zM503 220q-17 -99 -78 -165t-135 -66q-76 0 -119 67.5t-27 163.5h46q-10 -59 24 -99.5t93 -40.5q58 0 99.5 38.5t52.5 101.5h44z" />
    <glyph glyph-name="paragraph" unicode="&#xb6;" horiz-adv-x="557" 
d="M501 0h-69l124 700h69zM147 500q0 81 66 140.5t157 59.5h122l-124 -700h-94l61 350h-17q-75 0 -123 42.5t-48 107.5z" />
    <glyph glyph-name="periodcentered" unicode="&#xb7;" horiz-adv-x="210" 
d="M103 364q0 28 18 47t46 19t47 -19t19 -47t-18.5 -46.5t-46.5 -18.5t-46.5 18.5t-18.5 46.5z" />
    <glyph glyph-name="cedilla" unicode="&#xb8;" horiz-adv-x="303" 
d="M170 -145q0 15 -8 24t-21 9q-16 0 -31 -15l-68 34l21 122l73 -7l-16 -92q25 21 53 21q32 0 52.5 -25.5t20.5 -64.5q0 -56 -36.5 -93t-91.5 -37q-48 0 -80.5 26t-37.5 69l75 20q1 -19 13.5 -30t32.5 -11q21 0 35 14.5t14 35.5z" />
    <glyph glyph-name="uni00B9" unicode="&#xb9;" horiz-adv-x="235" 
d="M358 845l-58 -329h-80l41 235l-62 -43l-37 59l114 78h82z" />
    <glyph glyph-name="ordmasculine" unicode="&#xba;" horiz-adv-x="358" 
d="M388 350l-11 -69h-298l11 69h298zM285 641q-36 0 -61.5 -26t-25.5 -62q0 -32 21 -52t53 -20q37 0 62 26t25 62q0 32 -21 52t-53 20zM129 545q0 69 47 117t115 48q59 0 98.5 -38t39.5 -95q0 -69 -47.5 -117t-114.5 -48q-60 0 -99 38t-39 95z" />
    <glyph glyph-name="guillemotright" unicode="&#xbb;" horiz-adv-x="552" 
d="M100 366l19 101l208 -137l-22 -124l-256 -136l19 114l171 90zM347 366l19 101l209 -137l-22 -124l-257 -136l19 114l172 90z" />
    <glyph glyph-name="onequarter" unicode="&#xbc;" horiz-adv-x="742" 
d="M500 129h69l17 97zM683 324l-34 -195h39l-12 -69h-39l-12 -65h-80l12 65h-145l14 81l166 183h91zM278 0h-113l391 700h114zM358 695l-58 -329h-80l41 235l-62 -43l-37 59l114 78h82z" />
    <glyph glyph-name="onehalf" unicode="&#xbd;" horiz-adv-x="728" 
d="M688 211q9 51 -21 84t-81 33q-50 0 -86.5 -27.5t-57.5 -70.5l70 -26q20 44 57 44q18 0 28 -12t7 -31q-5 -28 -81 -64l-105 -53l-17 -94h250l14 77h-149l56 28q105 47 116 112zM278 0h-113l391 700h114zM358 695l-58 -329h-80l41 235l-62 -43l-37 59l114 78h82z" />
    <glyph glyph-name="threequarters" unicode="&#xbe;" horiz-adv-x="775" 
d="M532 129h69l17 97zM715 324l-34 -195h39l-12 -69h-39l-12 -65h-80l12 65h-145l14 81l166 183h91zM311 0h-113l391 700h114zM324 555l88 51l16 90h-238l-13 -73h159l-83 -56l14 -54q25 0 36.5 -10t8.5 -28q-3 -15 -16.5 -25t-32.5 -10q-20 0 -31 12t-12 34l-84 -17
q4 -50 34.5 -79.5t80.5 -29.5q54 0 94.5 30t48.5 77q7 37 -12.5 61t-57.5 27z" />
    <glyph glyph-name="questiondown" unicode="&#xbf;" horiz-adv-x="551" 
d="M450 530q0 -31 -20 -51.5t-50 -20.5q-31 0 -52 21t-21 52q0 30 20.5 50.5t51.5 20.5t51 -20.5t20 -51.5zM285 -28q-57 0 -94 33.5t-37 85.5q0 47 24.5 82.5t91.5 73.5l108 55l-27 81l-111 -57q-97 -50 -139 -108.5t-42 -135.5q0 -89 61.5 -147t156.5 -58q77 0 140.5 45
t104.5 126l-82 42q-57 -118 -155 -118z" />
    <glyph glyph-name="Agrave" unicode="&#xc0;" horiz-adv-x="770" 
d="M405 939l55 56l146 -168l-52 -50zM145 0h-113l415 700h127l168 -700h-104l-141 593zM231 271h407l-16 -90h-406z" />
    <glyph glyph-name="Aacute" unicode="&#xc1;" horiz-adv-x="770" 
d="M688 911l-44 66l-189 -139l40 -61zM145 0h-113l415 700h127l168 -700h-104l-141 593zM231 271h407l-16 -90h-406z" />
    <glyph glyph-name="Acircumflex" unicode="&#xc2;" horiz-adv-x="770" 
d="M544 980l-195 -146l38 -62l160 123l115 -131l55 52l-146 162zM145 0h-113l415 700h127l168 -700h-104l-141 593zM231 271h407l-16 -90h-406z" />
    <glyph glyph-name="Atilde" unicode="&#xc3;" horiz-adv-x="770" 
d="M470 926q-86 0 -130 -125l68 -18q25 70 59 70q13 0 23 -6.5t25 -24.5q23 -25 42.5 -35t44.5 -10q43 0 76 33t54 92l-66 18q-26 -67 -66 -67q-13 0 -23.5 6.5t-24.5 23.5q-22 24 -39.5 33.5t-42.5 9.5zM145 0h-113l415 700h127l168 -700h-104l-141 593zM231 271h407
l-16 -90h-406z" />
    <glyph glyph-name="Adieresis" unicode="&#xc4;" horiz-adv-x="770" 
d="M567 838.5q0 26.5 18 44t44 17.5t44 -17.5t18 -44t-18 -44t-44 -17.5t-44 17.5t-18 44zM357 838.5q0 26.5 18 44t44 17.5t44 -17.5t18 -44t-18 -44t-44 -17.5t-44 17.5t-18 44zM145 0h-113l415 700h127l168 -700h-104l-141 593zM231 271h407l-16 -90h-406z" />
    <glyph glyph-name="Aring" unicode="&#xc5;" horiz-adv-x="770" 
d="M538 948q-23 0 -39 -17t-16 -40q0 -20 13.5 -33t33.5 -13q23 0 39.5 16.5t16.5 40.5q0 20 -14 33t-34 13zM414 884q0 54 38 93t92 39q47 0 78.5 -30.5t31.5 -76.5q0 -54 -38 -93t-92 -39q-47 0 -78.5 30t-31.5 77zM145 0h-113l415 700h127l168 -700h-104l-141 593z
M231 271h407l-16 -90h-406z" />
    <glyph glyph-name="AE" unicode="&#xc6;" horiz-adv-x="981" 
d="M638 398h354l-17 -94h-353l-38 -211h378l-17 -93h-472l123 700h472l-16 -93h-377zM260 280h287l-16 -93h-288zM137 0h-108l484 700h93l-17 -99h-31z" />
    <glyph glyph-name="Ccedilla" unicode="&#xc7;" horiz-adv-x="778" 
d="M506 -145q0 15 -8 24t-21 9q-16 0 -31 -15l-68 34l21 122l73 -7l-16 -92q25 21 53 21q32 0 52.5 -25.5t20.5 -64.5q0 -56 -36.5 -93t-91.5 -37q-48 0 -80.5 26t-37.5 69l75 20q1 -19 13.5 -30t32.5 -11q21 0 35 14.5t14 35.5zM97 314q0 111 52.5 204.5t143 147t199 53.5
t194.5 -60t118 -172l-91 -31q-21 77 -83.5 122.5t-145.5 45.5q-121 0 -206 -89t-85 -215q0 -106 69 -175t175 -69q73 0 138.5 41.5t106.5 114.5l85 -47q-57 -96 -146 -150t-191 -54q-143 0 -238 95t-95 238z" />
    <glyph glyph-name="Egrave" unicode="&#xc8;" horiz-adv-x="566" 
d="M305 938l55 56l146 -168l-52 -50zM221 410h357l-15 -93h-358l-39 -224h379l-16 -93h-476l124 700h474l-16 -93h-378z" />
    <glyph glyph-name="Eacute" unicode="&#xc9;" horiz-adv-x="566" 
d="M588 910l-44 66l-189 -139l40 -61zM221 410h357l-15 -93h-358l-39 -224h379l-16 -93h-476l124 700h474l-16 -93h-378z" />
    <glyph glyph-name="Ecircumflex" unicode="&#xca;" horiz-adv-x="566" 
d="M444 979l-195 -146l38 -62l160 123l115 -131l55 52l-146 162zM221 410h357l-15 -93h-358l-39 -224h379l-16 -93h-476l124 700h474l-16 -93h-378z" />
    <glyph glyph-name="Edieresis" unicode="&#xcb;" horiz-adv-x="566" 
d="M467 837.5q0 26.5 18 44t44 17.5t44 -17.5t18 -44t-18 -44t-44 -17.5t-44 17.5t-18 44zM257 837.5q0 26.5 18 44t44 17.5t44 -17.5t18 -44t-18 -44t-44 -17.5t-44 17.5t-18 44zM221 410h357l-15 -93h-358l-39 -224h379l-16 -93h-476l124 700h474l-16 -93h-378z" />
    <glyph glyph-name="Igrave" unicode="&#xcc;" horiz-adv-x="207" 
d="M117 937l55 56l146 -168l-52 -50zM149 0h-96l123 700h95z" />
    <glyph glyph-name="Iacute" unicode="&#xcd;" horiz-adv-x="207" 
d="M400 909l-44 66l-189 -139l40 -61zM149 0h-96l123 700h95z" />
    <glyph glyph-name="Icircumflex" unicode="&#xce;" horiz-adv-x="207" 
d="M256 978l-195 -146l38 -62l160 123l115 -131l55 52l-146 162zM149 0h-96l123 700h95z" />
    <glyph glyph-name="Idieresis" unicode="&#xcf;" horiz-adv-x="207" 
d="M279 836.5q0 26.5 18 44t44 17.5t44 -17.5t18 -44t-18 -44t-44 -17.5t-44 17.5t-18 44zM69 836.5q0 26.5 18 44t44 17.5t44 -17.5t18 -44t-18 -44t-44 -17.5t-44 17.5t-18 44zM149 0h-96l123 700h95z" />
    <glyph glyph-name="Eth" unicode="&#xd0;" horiz-adv-x="705" 
d="M728 407q0 -110 -51.5 -203t-146 -148.5t-213.5 -55.5h-225l123 700h218q130 0 212.5 -83t82.5 -210zM323 92q91 0 162.5 43t109 112.5t37.5 152.5q0 94 -59 151t-159 57h-118l-92 -516h119zM416 401l-14 -85h-346l15 85h345z" />
    <glyph glyph-name="Ntilde" unicode="&#xd1;" horiz-adv-x="687" 
d="M428 924q-86 0 -130 -125l68 -18q25 70 59 70q13 0 23 -6.5t25 -24.5q23 -25 42.5 -35t44.5 -10q43 0 76 33t54 92l-66 18q-26 -67 -66 -67q-13 0 -23.5 6.5t-24.5 23.5q-22 24 -39.5 33.5t-42.5 9.5zM53 0l123 700h121l262 -568l99 568h96l-123 -700h-121l-260 574
l-100 -574h-97z" />
    <glyph glyph-name="Ograve" unicode="&#xd2;" 
d="M399 938l55 56l146 -168l-52 -50zM481 625q-120 0 -204 -89t-84 -215q0 -108 68.5 -176t172.5 -68q79 0 146 42t105 112.5t38 151.5q0 107 -69 174.5t-173 67.5zM98 317q0 109 51 201.5t140.5 147t194.5 54.5q143 0 238.5 -94t95.5 -238q0 -108 -51 -201.5t-140.5 -149
t-195.5 -55.5q-142 0 -237.5 95t-95.5 240z" />
    <glyph glyph-name="Oacute" unicode="&#xd3;" 
d="M682 910l-44 66l-189 -139l40 -61zM481 625q-120 0 -204 -89t-84 -215q0 -108 68.5 -176t172.5 -68q79 0 146 42t105 112.5t38 151.5q0 107 -69 174.5t-173 67.5zM98 317q0 109 51 201.5t140.5 147t194.5 54.5q143 0 238.5 -94t95.5 -238q0 -108 -51 -201.5t-140.5 -149
t-195.5 -55.5q-142 0 -237.5 95t-95.5 240z" />
    <glyph glyph-name="Ocircumflex" unicode="&#xd4;" 
d="M538 979l-195 -146l38 -62l160 123l115 -131l55 52l-146 162zM481 625q-120 0 -204 -89t-84 -215q0 -108 68.5 -176t172.5 -68q79 0 146 42t105 112.5t38 151.5q0 107 -69 174.5t-173 67.5zM98 317q0 109 51 201.5t140.5 147t194.5 54.5q143 0 238.5 -94t95.5 -238
q0 -108 -51 -201.5t-140.5 -149t-195.5 -55.5q-142 0 -237.5 95t-95.5 240z" />
    <glyph glyph-name="Otilde" unicode="&#xd5;" 
d="M464 925q-86 0 -130 -125l68 -18q25 70 59 70q13 0 23 -6.5t25 -24.5q23 -25 42.5 -35t44.5 -10q43 0 76 33t54 92l-66 18q-26 -67 -66 -67q-13 0 -23.5 6.5t-24.5 23.5q-22 24 -39.5 33.5t-42.5 9.5zM481 625q-120 0 -204 -89t-84 -215q0 -108 68.5 -176t172.5 -68
q79 0 146 42t105 112.5t38 151.5q0 107 -69 174.5t-173 67.5zM98 317q0 109 51 201.5t140.5 147t194.5 54.5q143 0 238.5 -94t95.5 -238q0 -108 -51 -201.5t-140.5 -149t-195.5 -55.5q-142 0 -237.5 95t-95.5 240z" />
    <glyph glyph-name="Odieresis" unicode="&#xd6;" 
d="M561 837.5q0 26.5 18 44t44 17.5t44 -17.5t18 -44t-18 -44t-44 -17.5t-44 17.5t-18 44zM351 837.5q0 26.5 18 44t44 17.5t44 -17.5t18 -44t-18 -44t-44 -17.5t-44 17.5t-18 44zM481 625q-120 0 -204 -89t-84 -215q0 -108 68.5 -176t172.5 -68q79 0 146 42t105 112.5
t38 151.5q0 107 -69 174.5t-173 67.5zM98 317q0 109 51 201.5t140.5 147t194.5 54.5q143 0 238.5 -94t95.5 -238q0 -108 -51 -201.5t-140.5 -149t-195.5 -55.5q-142 0 -237.5 95t-95.5 240z" />
    <glyph glyph-name="multiply" unicode="&#xd7;" horiz-adv-x="389" 
d="M106 358l68 61l75 -93l107 92l53 -60l-107 -91l76 -92l-66 -61l-75 94l-108 -94l-55 61l108 91z" />
    <glyph glyph-name="Oslash" unicode="&#xd8;" 
d="M481 625q-120 0 -204 -89t-84 -215q0 -108 68.5 -176t172.5 -68q79 0 146 42t105 112.5t38 151.5q0 107 -69 174.5t-173 67.5zM98 317q0 109 51 201.5t140.5 147t194.5 54.5q143 0 238.5 -94t95.5 -238q0 -108 -51 -201.5t-140.5 -149t-195.5 -55.5q-142 0 -237.5 95
t-95.5 240zM807 632l-637 -637l-73 73l637 637z" />
    <glyph glyph-name="Ugrave" unicode="&#xd9;" horiz-adv-x="690" 
d="M359 937l55 56l146 -168l-52 -50zM370 -11q-116 0 -192.5 72.5t-76.5 184.5q0 26 5 54l70 400h96l-70 -398q-4 -24 -4 -47q0 -69 47 -120t135 -51q79 0 134.5 49t70.5 135l75 432h96l-79 -450q-20 -115 -106.5 -188t-200.5 -73z" />
    <glyph glyph-name="Uacute" unicode="&#xda;" horiz-adv-x="690" 
d="M642 909l-44 66l-189 -139l40 -61zM370 -11q-116 0 -192.5 72.5t-76.5 184.5q0 26 5 54l70 400h96l-70 -398q-4 -24 -4 -47q0 -69 47 -120t135 -51q79 0 134.5 49t70.5 135l75 432h96l-79 -450q-20 -115 -106.5 -188t-200.5 -73z" />
    <glyph glyph-name="Ucircumflex" unicode="&#xdb;" horiz-adv-x="690" 
d="M498 978l-195 -146l38 -62l160 123l115 -131l55 52l-146 162zM370 -11q-116 0 -192.5 72.5t-76.5 184.5q0 26 5 54l70 400h96l-70 -398q-4 -24 -4 -47q0 -69 47 -120t135 -51q79 0 134.5 49t70.5 135l75 432h96l-79 -450q-20 -115 -106.5 -188t-200.5 -73z" />
    <glyph glyph-name="Udieresis" unicode="&#xdc;" horiz-adv-x="690" 
d="M521 836.5q0 26.5 18 44t44 17.5t44 -17.5t18 -44t-18 -44t-44 -17.5t-44 17.5t-18 44zM311 836.5q0 26.5 18 44t44 17.5t44 -17.5t18 -44t-18 -44t-44 -17.5t-44 17.5t-18 44zM370 -11q-116 0 -192.5 72.5t-76.5 184.5q0 26 5 54l70 400h96l-70 -398q-4 -24 -4 -47
q0 -69 47 -120t135 -51q79 0 134.5 49t70.5 135l75 432h96l-79 -450q-20 -115 -106.5 -188t-200.5 -73z" />
    <glyph glyph-name="Yacute" unicode="&#xdd;" horiz-adv-x="671" 
d="M642 911l-44 66l-189 -139l40 -61zM297 0h95l41 232l332 468h-116l-248 -353l-142 353h-108l187 -468z" />
    <glyph glyph-name="Thorn" unicode="&#xde;" horiz-adv-x="635" 
d="M171 121l-21 -121h-97l124 700h96l-19 -109h193q93 0 155 -56.5t62 -141.5q0 -122 -85.5 -197t-210.5 -75h-197zM238 498l-50 -284h188q83 0 137 45.5t54 121.5q0 53 -36.5 85t-97.5 32h-195z" />
    <glyph glyph-name="germandbls" unicode="&#xdf;" horiz-adv-x="672" 
d="M678 570q0 -71 -35.5 -119.5t-102.5 -68.5q52 -17 84 -66.5t32 -112.5q0 -93 -64 -156t-159 -63q-79 0 -130 43t-59 115l94 22q2 -39 29.5 -62t70.5 -23q54 0 90 39.5t36 98.5q0 55 -38.5 90.5t-97.5 35.5h-58l12 91h62q62 0 99.5 33.5t37.5 89.5q0 50 -40 80.5
t-106 30.5q-76 0 -131.5 -52t-71.5 -142l-83 -474h-96l87 492q21 119 106.5 193.5t203.5 74.5q102 0 165 -52t63 -138z" />
    <glyph glyph-name="agrave" unicode="&#xe0;" horiz-adv-x="505" 
d="M222 729l55 56l146 -168l-52 -50zM312 511q83 0 142 -50.5t59 -121.5q0 -13 -3 -28l-53 -311h-96l38 216l-130 -12q-51 -3 -79 -21t-28 -47t25 -45.5t67 -16.5q56 0 94 30.5t46 83.5h34q-14 -87 -74 -142t-139 -55q-66 0 -107.5 38t-41.5 98q0 67 54 110t144 50l150 12
l1 12q3 14 3 21q0 39 -31 65.5t-76 26.5q-40 0 -73.5 -21t-48.5 -54l-84 39q29 56 85.5 89.5t121.5 33.5z" />
    <glyph glyph-name="aacute" unicode="&#xe1;" horiz-adv-x="505" 
d="M505 701l-44 66l-189 -139l40 -61zM312 511q83 0 142 -50.5t59 -121.5q0 -13 -3 -28l-53 -311h-96l38 216l-130 -12q-51 -3 -79 -21t-28 -47t25 -45.5t67 -16.5q56 0 94 30.5t46 83.5h34q-14 -87 -74 -142t-139 -55q-66 0 -107.5 38t-41.5 98q0 67 54 110t144 50l150 12
l1 12q3 14 3 21q0 39 -31 65.5t-76 26.5q-40 0 -73.5 -21t-48.5 -54l-84 39q29 56 85.5 89.5t121.5 33.5z" />
    <glyph glyph-name="acircumflex" unicode="&#xe2;" horiz-adv-x="505" 
d="M361 770l-195 -146l38 -62l160 123l115 -131l55 52l-146 162zM312 511q83 0 142 -50.5t59 -121.5q0 -13 -3 -28l-53 -311h-96l38 216l-130 -12q-51 -3 -79 -21t-28 -47t25 -45.5t67 -16.5q56 0 94 30.5t46 83.5h34q-14 -87 -74 -142t-139 -55q-66 0 -107.5 38t-41.5 98
q0 67 54 110t144 50l150 12l1 12q3 14 3 21q0 39 -31 65.5t-76 26.5q-40 0 -73.5 -21t-48.5 -54l-84 39q29 56 85.5 89.5t121.5 33.5z" />
    <glyph glyph-name="atilde" unicode="&#xe3;" horiz-adv-x="505" 
d="M287 716q-86 0 -130 -125l68 -18q25 70 59 70q13 0 23 -6.5t25 -24.5q23 -25 42.5 -35t44.5 -10q43 0 76 33t54 92l-66 18q-26 -67 -66 -67q-13 0 -23.5 6.5t-24.5 23.5q-22 24 -39.5 33.5t-42.5 9.5zM312 511q83 0 142 -50.5t59 -121.5q0 -13 -3 -28l-53 -311h-96
l38 216l-130 -12q-51 -3 -79 -21t-28 -47t25 -45.5t67 -16.5q56 0 94 30.5t46 83.5h34q-14 -87 -74 -142t-139 -55q-66 0 -107.5 38t-41.5 98q0 67 54 110t144 50l150 12l1 12q3 14 3 21q0 39 -31 65.5t-76 26.5q-40 0 -73.5 -21t-48.5 -54l-84 39q29 56 85.5 89.5
t121.5 33.5z" />
    <glyph glyph-name="adieresis" unicode="&#xe4;" horiz-adv-x="505" 
d="M384 628.5q0 26.5 18 44t44 17.5t44 -17.5t18 -44t-18 -44t-44 -17.5t-44 17.5t-18 44zM174 628.5q0 26.5 18 44t44 17.5t44 -17.5t18 -44t-18 -44t-44 -17.5t-44 17.5t-18 44zM312 511q83 0 142 -50.5t59 -121.5q0 -13 -3 -28l-53 -311h-96l38 216l-130 -12
q-51 -3 -79 -21t-28 -47t25 -45.5t67 -16.5q56 0 94 30.5t46 83.5h34q-14 -87 -74 -142t-139 -55q-66 0 -107.5 38t-41.5 98q0 67 54 110t144 50l150 12l1 12q3 14 3 21q0 39 -31 65.5t-76 26.5q-40 0 -73.5 -21t-48.5 -54l-84 39q29 56 85.5 89.5t121.5 33.5z" />
    <glyph glyph-name="aring" unicode="&#xe5;" horiz-adv-x="505" 
d="M355 738q-23 0 -39 -17t-16 -40q0 -20 13.5 -33t33.5 -13q23 0 39.5 16.5t16.5 40.5q0 20 -14 33t-34 13zM231 674q0 54 38 93t92 39q47 0 78.5 -30.5t31.5 -76.5q0 -54 -38 -93t-92 -39q-47 0 -78.5 30t-31.5 77zM312 511q83 0 142 -50.5t59 -121.5q0 -13 -3 -28
l-53 -311h-96l38 216l-130 -12q-51 -3 -79 -21t-28 -47t25 -45.5t67 -16.5q56 0 94 30.5t46 83.5h34q-14 -87 -74 -142t-139 -55q-66 0 -107.5 38t-41.5 98q0 67 54 110t144 50l150 12l1 12q3 14 3 21q0 39 -31 65.5t-76 26.5q-40 0 -73.5 -21t-48.5 -54l-84 39
q29 56 85.5 89.5t121.5 33.5z" />
    <glyph glyph-name="ae" unicode="&#xe6;" horiz-adv-x="917" 
d="M930 283q0 -33 -10 -73h-419q3 -61 48 -100t112 -39q50 0 94 24t71 67l77 -51q-43 -63 -107.5 -96t-139.5 -33q-105 0 -173.5 68.5t-68.5 174.5q0 121 81.5 208t199.5 87q100 0 167.5 -67t67.5 -170zM837 312q-4 53 -45 86t-100 33q-63 0 -115.5 -37.5t-68.5 -98.5h329
q1 10 0 17zM309 511q79 0 131 -49.5t52 -122.5q0 -6 -3 -28l-14 -123q-12 -91 -75 -144t-163 -53q-75 0 -123 38t-48 98q0 67 54 110t144 50l150 12l1 12q3 13 3 21q0 39 -31 65.5t-76 26.5q-40 0 -73.5 -21t-48.5 -54l-84 39q28 56 83.5 89.5t120.5 33.5zM398 184l4 33
l-132 -11q-51 -4 -79.5 -21.5t-28.5 -46.5t26 -46.5t70 -17.5q55 0 93.5 30.5t46.5 79.5z" />
    <glyph glyph-name="ccedilla" unicode="&#xe7;" horiz-adv-x="587" 
d="M380 -145q0 15 -8 24t-21 9q-16 0 -31 -15l-68 34l21 122l73 -7l-16 -92q25 21 53 21q32 0 52.5 -25.5t20.5 -64.5q0 -56 -36.5 -93t-91.5 -37q-48 0 -80.5 26t-37.5 69l75 20q1 -19 13.5 -30t32.5 -11q21 0 35 14.5t14 35.5zM365 428q-78 0 -133 -58t-55 -140
q0 -69 45 -113.5t115 -44.5q51 0 97 26t72 72l79 -47q-40 -67 -107.5 -104.5t-147.5 -37.5q-108 0 -178.5 68.5t-70.5 172.5q0 123 85.5 210t205.5 87q88 0 153 -43.5t89 -115.5l-91 -37q-15 49 -57 77t-101 28z" />
    <glyph glyph-name="egrave" unicode="&#xe8;" horiz-adv-x="595" 
d="M274 729l55 56l146 -168l-52 -50zM513 310q-5 54 -45.5 87.5t-98.5 33.5q-64 0 -116 -37.5t-69 -98.5h329q1 8 0 15zM606 283q0 -33 -10 -73h-419q3 -61 48 -100t112 -39q51 0 94.5 24t70.5 67l77 -51q-44 -64 -108 -96.5t-139 -32.5q-109 0 -181 68.5t-72 174.5
q0 121 85.5 208t206.5 87q100 0 167.5 -67t67.5 -170z" />
    <glyph glyph-name="eacute" unicode="&#xe9;" horiz-adv-x="595" 
d="M557 701l-44 66l-189 -139l40 -61zM513 310q-5 54 -45.5 87.5t-98.5 33.5q-64 0 -116 -37.5t-69 -98.5h329q1 8 0 15zM606 283q0 -33 -10 -73h-419q3 -61 48 -100t112 -39q51 0 94.5 24t70.5 67l77 -51q-44 -64 -108 -96.5t-139 -32.5q-109 0 -181 68.5t-72 174.5
q0 121 85.5 208t206.5 87q100 0 167.5 -67t67.5 -170z" />
    <glyph glyph-name="ecircumflex" unicode="&#xea;" horiz-adv-x="595" 
d="M413 770l-195 -146l38 -62l160 123l115 -131l55 52l-146 162zM513 310q-5 54 -45.5 87.5t-98.5 33.5q-64 0 -116 -37.5t-69 -98.5h329q1 8 0 15zM606 283q0 -33 -10 -73h-419q3 -61 48 -100t112 -39q51 0 94.5 24t70.5 67l77 -51q-44 -64 -108 -96.5t-139 -32.5
q-109 0 -181 68.5t-72 174.5q0 121 85.5 208t206.5 87q100 0 167.5 -67t67.5 -170z" />
    <glyph glyph-name="edieresis" unicode="&#xeb;" horiz-adv-x="595" 
d="M436 628.5q0 26.5 18 44t44 17.5t44 -17.5t18 -44t-18 -44t-44 -17.5t-44 17.5t-18 44zM226 628.5q0 26.5 18 44t44 17.5t44 -17.5t18 -44t-18 -44t-44 -17.5t-44 17.5t-18 44zM513 310q-5 54 -45.5 87.5t-98.5 33.5q-64 0 -116 -37.5t-69 -98.5h329q1 8 0 15zM606 283
q0 -33 -10 -73h-419q3 -61 48 -100t112 -39q51 0 94.5 24t70.5 67l77 -51q-44 -64 -108 -96.5t-139 -32.5q-109 0 -181 68.5t-72 174.5q0 121 85.5 208t206.5 87q100 0 167.5 -67t67.5 -170z" />
    <glyph glyph-name="igrave" unicode="&#xec;" horiz-adv-x="204" 
d="M80 730l55 56l146 -168l-52 -50zM55 0l88 500h96l-88 -500h-96z" />
    <glyph glyph-name="iacute" unicode="&#xed;" horiz-adv-x="204" 
d="M363 702l-44 66l-189 -139l40 -61zM55 0l88 500h96l-88 -500h-96z" />
    <glyph glyph-name="icircumflex" unicode="&#xee;" horiz-adv-x="204" 
d="M219 771l-195 -146l38 -62l160 123l115 -131l55 52l-146 162zM55 0l88 500h96l-88 -500h-96z" />
    <glyph glyph-name="idieresis" unicode="&#xef;" horiz-adv-x="204" 
d="M242 629.5q0 26.5 18 44t44 17.5t44 -17.5t18 -44t-18 -44t-44 -17.5t-44 17.5t-18 44zM32 629.5q0 26.5 18 44t44 17.5t44 -17.5t18 -44t-18 -44t-44 -17.5t-44 17.5t-18 44zM55 0l88 500h96l-88 -500h-96z" />
    <glyph glyph-name="eth" unicode="&#xf0;" horiz-adv-x="610" 
d="M642 739l-284 -160l34 -59l282 158zM506 244q0 -67 -55.5 -116.5t-130.5 -49.5q-67 0 -110 39t-43 99q0 69 50 116t125 47q70 0 117 -38.5t47 -96.5zM71 205q0 -96 69.5 -159t176.5 -63q76 0 137 30.5t101 88.5q36 53 57 134.5t21 174.5q0 143 -66 236.5t-184 119.5
l-41 -87q95 -21 146 -93t51 -183q0 -27 -3 -55q-21 53 -78 86t-127 33q-106 0 -183 -77.5t-77 -185.5z" />
    <glyph glyph-name="ntilde" unicode="&#xf1;" horiz-adv-x="550" 
d="M319 721q-86 0 -130 -125l68 -18q25 70 59 70q13 0 23 -6.5t25 -24.5q23 -25 42.5 -35t44.5 -10q43 0 76 33t54 92l-66 18q-26 -67 -66 -67q-13 0 -23.5 6.5t-24.5 23.5q-22 24 -39.5 33.5t-42.5 9.5zM54 0l88 500h97l-88 -500h-97zM402 0l49 278q11 65 -19 106.5
t-88 41.5q-53 0 -92 -36.5t-51 -95.5h-44q17 88 81.5 153t143.5 65q88 0 135.5 -67.5t30.5 -168.5l-49 -276h-97z" />
    <glyph glyph-name="ograve" unicode="&#xf2;" horiz-adv-x="618" 
d="M288 729l55 56l146 -168l-52 -50zM368 429q-81 0 -137 -58t-56 -139q0 -70 47.5 -114.5t117.5 -44.5q81 0 137 58t56 139q0 70 -47.5 114.5t-117.5 44.5zM80 224q0 122 85.5 209t209.5 87q108 0 180.5 -68t72.5 -174q0 -122 -85.5 -209t-209.5 -87q-108 0 -180.5 68
t-72.5 174z" />
    <glyph glyph-name="oacute" unicode="&#xf3;" horiz-adv-x="618" 
d="M571 701l-44 66l-189 -139l40 -61zM368 429q-81 0 -137 -58t-56 -139q0 -70 47.5 -114.5t117.5 -44.5q81 0 137 58t56 139q0 70 -47.5 114.5t-117.5 44.5zM80 224q0 122 85.5 209t209.5 87q108 0 180.5 -68t72.5 -174q0 -122 -85.5 -209t-209.5 -87q-108 0 -180.5 68
t-72.5 174z" />
    <glyph glyph-name="ocircumflex" unicode="&#xf4;" horiz-adv-x="618" 
d="M427 770l-195 -146l38 -62l160 123l115 -131l55 52l-146 162zM368 429q-81 0 -137 -58t-56 -139q0 -70 47.5 -114.5t117.5 -44.5q81 0 137 58t56 139q0 70 -47.5 114.5t-117.5 44.5zM80 224q0 122 85.5 209t209.5 87q108 0 180.5 -68t72.5 -174q0 -122 -85.5 -209
t-209.5 -87q-108 0 -180.5 68t-72.5 174z" />
    <glyph glyph-name="otilde" unicode="&#xf5;" horiz-adv-x="618" 
d="M353 716q-86 0 -130 -125l68 -18q25 70 59 70q13 0 23 -6.5t25 -24.5q23 -25 42.5 -35t44.5 -10q43 0 76 33t54 92l-66 18q-26 -67 -66 -67q-13 0 -23.5 6.5t-24.5 23.5q-22 24 -39.5 33.5t-42.5 9.5zM368 429q-81 0 -137 -58t-56 -139q0 -70 47.5 -114.5t117.5 -44.5
q81 0 137 58t56 139q0 70 -47.5 114.5t-117.5 44.5zM80 224q0 122 85.5 209t209.5 87q108 0 180.5 -68t72.5 -174q0 -122 -85.5 -209t-209.5 -87q-108 0 -180.5 68t-72.5 174z" />
    <glyph glyph-name="odieresis" unicode="&#xf6;" horiz-adv-x="618" 
d="M450 628.5q0 26.5 18 44t44 17.5t44 -17.5t18 -44t-18 -44t-44 -17.5t-44 17.5t-18 44zM240 628.5q0 26.5 18 44t44 17.5t44 -17.5t18 -44t-18 -44t-44 -17.5t-44 17.5t-18 44zM368 429q-81 0 -137 -58t-56 -139q0 -70 47.5 -114.5t117.5 -44.5q81 0 137 58t56 139
q0 70 -47.5 114.5t-117.5 44.5zM80 224q0 122 85.5 209t209.5 87q108 0 180.5 -68t72.5 -174q0 -122 -85.5 -209t-209.5 -87q-108 0 -180.5 68t-72.5 174z" />
    <glyph glyph-name="divide" unicode="&#xf7;" horiz-adv-x="389" 
d="M197 434q0 32 20 52.5t50 20.5q31 0 52 -20.5t21 -52.5q0 -30 -20.5 -50.5t-51 -20.5t-51 20.5t-20.5 50.5zM136 93q0 31 20 51.5t50 20.5q32 0 52.5 -20.5t20.5 -51.5t-20.5 -51.5t-51 -20.5t-51 20.5t-20.5 51.5zM416 309l-15 -85h-334l15 85h334z" />
    <glyph glyph-name="oslash" unicode="&#xf8;" horiz-adv-x="618" 
d="M368 429q-81 0 -137 -58t-56 -139q0 -70 47.5 -114.5t117.5 -44.5q81 0 137 58t56 139q0 70 -47.5 114.5t-117.5 44.5zM80 224q0 122 85.5 209t209.5 87q108 0 180.5 -68t72.5 -174q0 -122 -85.5 -209t-209.5 -87q-108 0 -180.5 68t-72.5 174zM573 524l50 -50l-495 -494
l-50 50z" />
    <glyph glyph-name="ugrave" unicode="&#xf9;" horiz-adv-x="543" 
d="M249 729l55 56l146 -168l-52 -50zM573 500l-88 -500h-97l88 500h97zM245 500l-55 -306q-10 -57 17 -88t82 -31q50 0 86.5 28t44.5 76h45q-17 -82 -77 -136t-136 -54q-84 0 -130 54t-29 147l55 310h97z" />
    <glyph glyph-name="uacute" unicode="&#xfa;" horiz-adv-x="543" 
d="M532 701l-44 66l-189 -139l40 -61zM573 500l-88 -500h-97l88 500h97zM245 500l-55 -306q-10 -57 17 -88t82 -31q50 0 86.5 28t44.5 76h45q-17 -82 -77 -136t-136 -54q-84 0 -130 54t-29 147l55 310h97z" />
    <glyph glyph-name="ucircumflex" unicode="&#xfb;" horiz-adv-x="543" 
d="M388 770l-195 -146l38 -62l160 123l115 -131l55 52l-146 162zM573 500l-88 -500h-97l88 500h97zM245 500l-55 -306q-10 -57 17 -88t82 -31q50 0 86.5 28t44.5 76h45q-17 -82 -77 -136t-136 -54q-84 0 -130 54t-29 147l55 310h97z" />
    <glyph glyph-name="udieresis" unicode="&#xfc;" horiz-adv-x="543" 
d="M411 628.5q0 26.5 18 44t44 17.5t44 -17.5t18 -44t-18 -44t-44 -17.5t-44 17.5t-18 44zM201 628.5q0 26.5 18 44t44 17.5t44 -17.5t18 -44t-18 -44t-44 -17.5t-44 17.5t-18 44zM573 500l-88 -500h-97l88 500h97zM245 500l-55 -306q-10 -57 17 -88t82 -31q50 0 86.5 28
t44.5 76h45q-17 -82 -77 -136t-136 -54q-84 0 -130 54t-29 147l55 310h97z" />
    <glyph glyph-name="yacute" unicode="&#xfd;" horiz-adv-x="567" 
d="M538 700l-44 66l-189 -139l40 -61zM523 500l-225 -384l-82 384h-99l108 -487l-122 -213h108l417 700h-105z" />
    <glyph glyph-name="thorn" unicode="&#xfe;" horiz-adv-x="638" 
d="M17 -200l166 950h96l-167 -950h-95zM384 429q-81 0 -137 -58t-56 -138q0 -70 47 -114.5t118 -44.5q81 0 137 57.5t56 138.5q0 70 -47 114.5t-118 44.5zM149 213q0 80 35.5 150t98 112.5t136.5 42.5q96 0 161 -66t65 -169q0 -80 -36.5 -149.5t-100.5 -111.5t-140 -42
q-97 0 -158 66t-61 167z" />
    <glyph glyph-name="ydieresis" unicode="&#xff;" horiz-adv-x="567" 
d="M417 627.5q0 26.5 18 44t44 17.5t44 -17.5t18 -44t-18 -44t-44 -17.5t-44 17.5t-18 44zM207 627.5q0 26.5 18 44t44 17.5t44 -17.5t18 -44t-18 -44t-44 -17.5t-44 17.5t-18 44zM523 500l-225 -384l-82 384h-99l108 -487l-122 -213h108l417 700h-105z" />
    <glyph glyph-name="Amacron" unicode="&#x100;" horiz-adv-x="770" 
d="M693 864l-14 -77h-314l14 77h314zM145 0h-113l415 700h127l168 -700h-104l-141 593zM231 271h407l-16 -90h-406z" />
    <glyph glyph-name="amacron" unicode="&#x101;" horiz-adv-x="505" 
d="M510 654l-14 -77h-314l14 77h314zM312 511q83 0 142 -50.5t59 -121.5q0 -13 -3 -28l-53 -311h-96l38 216l-130 -12q-51 -3 -79 -21t-28 -47t25 -45.5t67 -16.5q56 0 94 30.5t46 83.5h34q-14 -87 -74 -142t-139 -55q-66 0 -107.5 38t-41.5 98q0 67 54 110t144 50l150 12
l1 12q3 14 3 21q0 39 -31 65.5t-76 26.5q-40 0 -73.5 -21t-48.5 -54l-84 39q29 56 85.5 89.5t121.5 33.5z" />
    <glyph glyph-name="Abreve" unicode="&#x102;" horiz-adv-x="770" 
d="M530 784q-64 0 -105.5 38.5t-41.5 95.5q0 14 3 27h72q-2 -8 -2 -16q0 -33 22.5 -53.5t60.5 -20.5q42 0 76.5 26.5t41.5 63.5h82q-12 -65 -74 -113t-135 -48zM145 0h-113l415 700h127l168 -700h-104l-141 593zM231 271h407l-16 -90h-406z" />
    <glyph glyph-name="abreve" unicode="&#x103;" horiz-adv-x="505" 
d="M347 574q-64 0 -105.5 38.5t-41.5 95.5q0 14 3 27h72q-2 -8 -2 -16q0 -33 22.5 -53.5t60.5 -20.5q42 0 76.5 26.5t41.5 63.5h82q-12 -65 -74 -113t-135 -48zM312 511q83 0 142 -50.5t59 -121.5q0 -13 -3 -28l-53 -311h-96l38 216l-130 -12q-51 -3 -79 -21t-28 -47
t25 -45.5t67 -16.5q56 0 94 30.5t46 83.5h34q-14 -87 -74 -142t-139 -55q-66 0 -107.5 38t-41.5 98q0 67 54 110t144 50l150 12l1 12q3 14 3 21q0 39 -31 65.5t-76 26.5q-40 0 -73.5 -21t-48.5 -54l-84 39q29 56 85.5 89.5t121.5 33.5z" />
    <glyph glyph-name="Aogonek" unicode="&#x104;" horiz-adv-x="770" 
d="M637 -256q-48 0 -78.5 27.5t-30.5 69.5q0 40 22 69t73 55l26 14l5 25h68l-9 -53l-65 -33q-47 -25 -47 -65q0 -18 11.5 -29t30.5 -11q32 0 46 34l63 -22q-17 -38 -47.5 -59.5t-67.5 -21.5zM145 0h-113l415 700h127l168 -700h-104l-141 593zM231 271h407l-16 -90h-406z" />
    <glyph glyph-name="aogonek" unicode="&#x105;" horiz-adv-x="505" 
d="M360 -256q-48 0 -78.5 27.5t-30.5 69.5q0 40 22 69t73 55l26 14l5 25h68l-9 -53l-65 -33q-47 -25 -47 -65q0 -18 11.5 -29t30.5 -11q32 0 46 34l63 -22q-17 -38 -47.5 -59.5t-67.5 -21.5zM312 511q83 0 142 -50.5t59 -121.5q0 -13 -3 -28l-53 -311h-96l38 216l-130 -12
q-51 -3 -79 -21t-28 -47t25 -45.5t67 -16.5q56 0 94 30.5t46 83.5h34q-14 -87 -74 -142t-139 -55q-66 0 -107.5 38t-41.5 98q0 67 54 110t144 50l150 12l1 12q3 14 3 21q0 39 -31 65.5t-76 26.5q-40 0 -73.5 -21t-48.5 -54l-84 39q29 56 85.5 89.5t121.5 33.5z" />
    <glyph glyph-name="Cacute" unicode="&#x106;" horiz-adv-x="778" 
d="M694 909l-44 66l-189 -139l40 -61zM97 314q0 111 52.5 204.5t143 147t199 53.5t194.5 -60t118 -172l-91 -31q-21 77 -83.5 122.5t-145.5 45.5q-121 0 -206 -89t-85 -215q0 -106 69 -175t175 -69q73 0 138.5 41.5t106.5 114.5l85 -47q-57 -96 -146 -150t-191 -54
q-143 0 -238 95t-95 238z" />
    <glyph glyph-name="cacute" unicode="&#x107;" horiz-adv-x="587" 
d="M567 700l-44 66l-189 -139l40 -61zM365 428q-78 0 -133 -58t-55 -140q0 -69 45 -113.5t115 -44.5q51 0 97 26t72 72l79 -47q-40 -67 -107.5 -104.5t-147.5 -37.5q-108 0 -178.5 68.5t-70.5 172.5q0 123 85.5 210t205.5 87q88 0 153 -43.5t89 -115.5l-91 -37
q-15 49 -57 77t-101 28z" />
    <glyph glyph-name="Ccircumflex" unicode="&#x108;" horiz-adv-x="778" 
d="M550 978l-195 -146l38 -62l160 123l115 -131l55 52l-146 162zM97 314q0 111 52.5 204.5t143 147t199 53.5t194.5 -60t118 -172l-91 -31q-21 77 -83.5 122.5t-145.5 45.5q-121 0 -206 -89t-85 -215q0 -106 69 -175t175 -69q73 0 138.5 41.5t106.5 114.5l85 -47
q-57 -96 -146 -150t-191 -54q-143 0 -238 95t-95 238z" />
    <glyph glyph-name="ccircumflex" unicode="&#x109;" horiz-adv-x="587" 
d="M423 769l-195 -146l38 -62l160 123l115 -131l55 52l-146 162zM365 428q-78 0 -133 -58t-55 -140q0 -69 45 -113.5t115 -44.5q51 0 97 26t72 72l79 -47q-40 -67 -107.5 -104.5t-147.5 -37.5q-108 0 -178.5 68.5t-70.5 172.5q0 123 85.5 210t205.5 87q88 0 153 -43.5
t89 -115.5l-91 -37q-15 49 -57 77t-101 28z" />
    <glyph glyph-name="Cdotaccent" unicode="&#x10a;" horiz-adv-x="778" 
d="M470 836.5q0 26.5 17.5 44t43.5 17.5t43.5 -17.5t17.5 -44t-17.5 -44t-43.5 -17.5t-43.5 17.5t-17.5 44zM97 314q0 111 52.5 204.5t143 147t199 53.5t194.5 -60t118 -172l-91 -31q-21 77 -83.5 122.5t-145.5 45.5q-121 0 -206 -89t-85 -215q0 -106 69 -175t175 -69
q73 0 138.5 41.5t106.5 114.5l85 -47q-57 -96 -146 -150t-191 -54q-143 0 -238 95t-95 238z" />
    <glyph glyph-name="cdotaccent" unicode="&#x10b;" horiz-adv-x="587" 
d="M343 627.5q0 26.5 17.5 44t43.5 17.5t43.5 -17.5t17.5 -44t-17.5 -44t-43.5 -17.5t-43.5 17.5t-17.5 44zM365 428q-78 0 -133 -58t-55 -140q0 -69 45 -113.5t115 -44.5q51 0 97 26t72 72l79 -47q-40 -67 -107.5 -104.5t-147.5 -37.5q-108 0 -178.5 68.5t-70.5 172.5
q0 123 85.5 210t205.5 87q88 0 153 -43.5t89 -115.5l-91 -37q-15 49 -57 77t-101 28z" />
    <glyph glyph-name="Ccaron" unicode="&#x10c;" horiz-adv-x="778" 
d="M544 769l196 146l-38 62l-160 -123l-115 131l-55 -52l145 -162zM97 314q0 111 52.5 204.5t143 147t199 53.5t194.5 -60t118 -172l-91 -31q-21 77 -83.5 122.5t-145.5 45.5q-121 0 -206 -89t-85 -215q0 -106 69 -175t175 -69q73 0 138.5 41.5t106.5 114.5l85 -47
q-57 -96 -146 -150t-191 -54q-143 0 -238 95t-95 238z" />
    <glyph glyph-name="ccaron" unicode="&#x10d;" horiz-adv-x="587" 
d="M417 560l196 146l-38 62l-160 -123l-115 131l-55 -52l145 -162zM365 428q-78 0 -133 -58t-55 -140q0 -69 45 -113.5t115 -44.5q51 0 97 26t72 72l79 -47q-40 -67 -107.5 -104.5t-147.5 -37.5q-108 0 -178.5 68.5t-70.5 172.5q0 123 85.5 210t205.5 87q88 0 153 -43.5
t89 -115.5l-91 -37q-15 49 -57 77t-101 28z" />
    <glyph glyph-name="Dcaron" unicode="&#x10e;" horiz-adv-x="701" 
d="M452 771l196 146l-38 62l-160 -123l-115 131l-55 -52l145 -162zM728 410q0 -110 -51 -203.5t-146.5 -150t-213.5 -56.5h-264l123 700h257q131 0 213 -81.5t82 -208.5zM323 92q91 0 162.5 43t109 112.5t37.5 152.5q0 94 -59 151t-159 57h-157l-92 -516h158z" />
    <glyph glyph-name="dcaron" unicode="&#x10f;" horiz-adv-x="799" 
d="M829 781l84 -24l-100 -232l-79 22zM588 0h-95l131 750h95zM344 74q81 0 137 57.5t56 138.5q0 70 -47 114.5t-118 44.5q-80 0 -136 -58t-56 -138q0 -70 47 -114.5t117 -44.5zM579 290q0 -80 -35 -150.5t-97.5 -112.5t-137.5 -42q-95 0 -160 65.5t-65 169.5
q0 80 36.5 149.5t100.5 111t139 41.5q97 0 158 -65.5t61 -166.5z" />
    <glyph glyph-name="Dcroat" unicode="&#x110;" horiz-adv-x="705" 
d="M728 407q0 -110 -51.5 -203t-146 -148.5t-213.5 -55.5h-225l123 700h218q130 0 212.5 -83t82.5 -210zM323 92q91 0 162.5 43t109 112.5t37.5 152.5q0 94 -59 151t-159 57h-118l-92 -516h119zM416 401l-14 -85h-346l15 85h345z" />
    <glyph glyph-name="dcroat" unicode="&#x111;" horiz-adv-x="668" 
d="M579 290q0 -80 -35 -150.5t-97.5 -112.5t-137.5 -42q-95 0 -160 65.5t-65 169.5q0 80 36.5 149.5t100.5 111t139 41.5q97 0 158 -65.5t61 -166.5zM344 74q81 0 137 57.5t56 138.5q0 70 -47 114.5t-118 44.5q-80 0 -136 -58t-56 -138q0 -70 47 -114.5t117 -44.5zM588 0
h-95l103 588h-202l13 80h203l14 82h95l-14 -82h81l-14 -80h-81z" />
    <glyph glyph-name="Emacron" unicode="&#x112;" horiz-adv-x="566" 
d="M593 863l-14 -77h-314l14 77h314zM221 410h357l-15 -93h-358l-39 -224h379l-16 -93h-476l124 700h474l-16 -93h-378z" />
    <glyph glyph-name="emacron" unicode="&#x113;" horiz-adv-x="595" 
d="M562 654l-14 -77h-314l14 77h314zM513 310q-5 54 -45.5 87.5t-98.5 33.5q-64 0 -116 -37.5t-69 -98.5h329q1 8 0 15zM606 283q0 -33 -10 -73h-419q3 -61 48 -100t112 -39q51 0 94.5 24t70.5 67l77 -51q-44 -64 -108 -96.5t-139 -32.5q-109 0 -181 68.5t-72 174.5
q0 121 85.5 208t206.5 87q100 0 167.5 -67t67.5 -170z" />
    <glyph glyph-name="Ebreve" unicode="&#x114;" horiz-adv-x="566" 
d="M430 783q-64 0 -105.5 38.5t-41.5 95.5q0 14 3 27h72q-2 -8 -2 -16q0 -33 22.5 -53.5t60.5 -20.5q42 0 76.5 26.5t41.5 63.5h82q-12 -65 -74 -113t-135 -48zM221 410h357l-15 -93h-358l-39 -224h379l-16 -93h-476l124 700h474l-16 -93h-378z" />
    <glyph glyph-name="ebreve" unicode="&#x115;" horiz-adv-x="595" 
d="M399 574q-64 0 -105.5 38.5t-41.5 95.5q0 14 3 27h72q-2 -8 -2 -16q0 -33 22.5 -53.5t60.5 -20.5q42 0 76.5 26.5t41.5 63.5h82q-12 -65 -74 -113t-135 -48zM513 310q-5 54 -45.5 87.5t-98.5 33.5q-64 0 -116 -37.5t-69 -98.5h329q1 8 0 15zM606 283q0 -33 -10 -73h-419
q3 -61 48 -100t112 -39q51 0 94.5 24t70.5 67l77 -51q-44 -64 -108 -96.5t-139 -32.5q-109 0 -181 68.5t-72 174.5q0 121 85.5 208t206.5 87q100 0 167.5 -67t67.5 -170z" />
    <glyph glyph-name="Edotaccent" unicode="&#x116;" horiz-adv-x="566" 
d="M364 837.5q0 26.5 17.5 44t43.5 17.5t43.5 -17.5t17.5 -44t-17.5 -44t-43.5 -17.5t-43.5 17.5t-17.5 44zM221 410h357l-15 -93h-358l-39 -224h379l-16 -93h-476l124 700h474l-16 -93h-378z" />
    <glyph glyph-name="edotaccent" unicode="&#x117;" horiz-adv-x="595" 
d="M333 628.5q0 26.5 17.5 44t43.5 17.5t43.5 -17.5t17.5 -44t-17.5 -44t-43.5 -17.5t-43.5 17.5t-17.5 44zM513 310q-5 54 -45.5 87.5t-98.5 33.5q-64 0 -116 -37.5t-69 -98.5h329q1 8 0 15zM606 283q0 -33 -10 -73h-419q3 -61 48 -100t112 -39q51 0 94.5 24t70.5 67
l77 -51q-44 -64 -108 -96.5t-139 -32.5q-109 0 -181 68.5t-72 174.5q0 121 85.5 208t206.5 87q100 0 167.5 -67t67.5 -170z" />
    <glyph glyph-name="Eogonek" unicode="&#x118;" horiz-adv-x="566" 
d="M442 -256q-48 0 -78.5 27.5t-30.5 69.5q0 40 22 69t73 55l26 14l5 25h68l-9 -53l-65 -33q-47 -25 -47 -65q0 -18 11.5 -29t30.5 -11q32 0 46 34l63 -22q-17 -38 -47.5 -59.5t-67.5 -21.5zM221 410h357l-15 -93h-358l-39 -224h379l-16 -93h-476l124 700h474l-16 -93h-378z
" />
    <glyph glyph-name="eogonek" unicode="&#x119;" horiz-adv-x="595" 
d="M247 -255q-48 0 -78.5 27.5t-30.5 69.5q0 40 22 69t73 55l26 14l5 25h68l-9 -53l-65 -33q-47 -25 -47 -65q0 -18 11.5 -29t30.5 -11q32 0 46 34l63 -22q-17 -38 -47.5 -59.5t-67.5 -21.5zM513 310q-5 54 -45.5 87.5t-98.5 33.5q-64 0 -116 -37.5t-69 -98.5h329q1 8 0 15z
M606 283q0 -33 -10 -73h-419q3 -61 48 -100t112 -39q51 0 94.5 24t70.5 67l77 -51q-44 -64 -108 -96.5t-139 -32.5q-109 0 -181 68.5t-72 174.5q0 121 85.5 208t206.5 87q100 0 167.5 -67t67.5 -170z" />
    <glyph glyph-name="Ecaron" unicode="&#x11a;" horiz-adv-x="566" 
d="M438 770l196 146l-38 62l-160 -123l-115 131l-55 -52l145 -162zM221 410h357l-15 -93h-358l-39 -224h379l-16 -93h-476l124 700h474l-16 -93h-378z" />
    <glyph glyph-name="ecaron" unicode="&#x11b;" horiz-adv-x="595" 
d="M407 561l196 146l-38 62l-160 -123l-115 131l-55 -52l145 -162zM513 310q-5 54 -45.5 87.5t-98.5 33.5q-64 0 -116 -37.5t-69 -98.5h329q1 8 0 15zM606 283q0 -33 -10 -73h-419q3 -61 48 -100t112 -39q51 0 94.5 24t70.5 67l77 -51q-44 -64 -108 -96.5t-139 -32.5
q-109 0 -181 68.5t-72 174.5q0 121 85.5 208t206.5 87q100 0 167.5 -67t67.5 -170z" />
    <glyph glyph-name="Gcircumflex" unicode="&#x11c;" 
d="M529 978l-195 -146l38 -62l160 123l115 -131l55 52l-146 162zM491 625q-124 0 -211 -88.5t-87 -213.5q0 -108 68 -177t174 -69q102 0 173.5 56t94.5 155h-287l13 84h386q-8 -173 -115 -281.5t-271 -108.5q-146 0 -239 93.5t-93 238.5q0 110 54 203.5t147 148t202 54.5
t193 -59.5t113 -157.5l-92 -35q-21 72 -81.5 114.5t-141.5 42.5z" />
    <glyph glyph-name="gcircumflex" unicode="&#x11d;" horiz-adv-x="598" 
d="M405 769l-195 -146l38 -62l160 123l115 -131l55 52l-146 162zM539 304q0 -113 -72.5 -196t-175.5 -83q-90 0 -150 61.5t-60 156.5q0 112 76 194t181 82q89 0 145 -61t56 -154zM324 114q71 0 120 49.5t49 120.5q0 60 -41.5 99.5t-105.5 39.5q-71 0 -120.5 -49.5
t-49.5 -120.5q0 -60 42 -99.5t106 -39.5zM125 -11q14 -56 56.5 -88.5t103.5 -32.5t105 32t53 82l90 518h96l-92 -526q-16 -91 -87 -147t-170 -56q-34 0 -69.5 9.5t-70.5 29t-63.5 54.5t-41.5 80z" />
    <glyph glyph-name="Gbreve" unicode="&#x11e;" 
d="M515 782q-64 0 -105.5 38.5t-41.5 95.5q0 14 3 27h72q-2 -8 -2 -16q0 -33 22.5 -53.5t60.5 -20.5q42 0 76.5 26.5t41.5 63.5h82q-12 -65 -74 -113t-135 -48zM491 625q-124 0 -211 -88.5t-87 -213.5q0 -108 68 -177t174 -69q102 0 173.5 56t94.5 155h-287l13 84h386
q-8 -173 -115 -281.5t-271 -108.5q-146 0 -239 93.5t-93 238.5q0 110 54 203.5t147 148t202 54.5t193 -59.5t113 -157.5l-92 -35q-21 72 -81.5 114.5t-141.5 42.5z" />
    <glyph glyph-name="gbreve" unicode="&#x11f;" horiz-adv-x="598" 
d="M391 573q-64 0 -105.5 38.5t-41.5 95.5q0 14 3 27h72q-2 -8 -2 -16q0 -33 22.5 -53.5t60.5 -20.5q42 0 76.5 26.5t41.5 63.5h82q-12 -65 -74 -113t-135 -48zM539 304q0 -113 -72.5 -196t-175.5 -83q-90 0 -150 61.5t-60 156.5q0 112 76 194t181 82q89 0 145 -61t56 -154z
M324 114q71 0 120 49.5t49 120.5q0 60 -41.5 99.5t-105.5 39.5q-71 0 -120.5 -49.5t-49.5 -120.5q0 -60 42 -99.5t106 -39.5zM125 -11q14 -56 56.5 -88.5t103.5 -32.5t105 32t53 82l90 518h96l-92 -526q-16 -91 -87 -147t-170 -56q-34 0 -69.5 9.5t-70.5 29t-63.5 54.5
t-41.5 80z" />
    <glyph glyph-name="Gdotaccent" unicode="&#x120;" 
d="M449 836.5q0 26.5 17.5 44t43.5 17.5t43.5 -17.5t17.5 -44t-17.5 -44t-43.5 -17.5t-43.5 17.5t-17.5 44zM491 625q-124 0 -211 -88.5t-87 -213.5q0 -108 68 -177t174 -69q102 0 173.5 56t94.5 155h-287l13 84h386q-8 -173 -115 -281.5t-271 -108.5q-146 0 -239 93.5
t-93 238.5q0 110 54 203.5t147 148t202 54.5t193 -59.5t113 -157.5l-92 -35q-21 72 -81.5 114.5t-141.5 42.5z" />
    <glyph glyph-name="gdotaccent" unicode="&#x121;" horiz-adv-x="598" 
d="M325 627.5q0 26.5 17.5 44t43.5 17.5t43.5 -17.5t17.5 -44t-17.5 -44t-43.5 -17.5t-43.5 17.5t-17.5 44zM539 304q0 -113 -72.5 -196t-175.5 -83q-90 0 -150 61.5t-60 156.5q0 112 76 194t181 82q89 0 145 -61t56 -154zM324 114q71 0 120 49.5t49 120.5q0 60 -41.5 99.5
t-105.5 39.5q-71 0 -120.5 -49.5t-49.5 -120.5q0 -60 42 -99.5t106 -39.5zM125 -11q14 -56 56.5 -88.5t103.5 -32.5t105 32t53 82l90 518h96l-92 -526q-16 -91 -87 -147t-170 -56q-34 0 -69.5 9.5t-70.5 29t-63.5 54.5t-41.5 80z" />
    <glyph glyph-name="uni0122" unicode="&#x122;" 
d="M425 -221q0 -27 -19.5 -46.5t-46 -19.5t-44.5 17t-18 43q0 29 21 50l120 125l35 -35l-79 -80q31 -18 31 -54zM491 625q-124 0 -211 -88.5t-87 -213.5q0 -108 68 -177t174 -69q102 0 173.5 56t94.5 155h-287l13 84h386q-8 -173 -115 -281.5t-271 -108.5q-146 0 -239 93.5
t-93 238.5q0 110 54 203.5t147 148t202 54.5t193 -59.5t113 -157.5l-92 -35q-21 72 -81.5 114.5t-141.5 42.5z" />
    <glyph glyph-name="uni0123" unicode="&#x123;" horiz-adv-x="598" 
d="M459 630q-4 -26 -25 -45t-48.5 -19t-43 18t-10.5 45q4 23 20 41l122 139l35 -30l-80 -89q17 -8 25 -24.5t5 -35.5zM539 304q0 -113 -72.5 -196t-175.5 -83q-90 0 -150 61.5t-60 156.5q0 112 76 194t181 82q89 0 145 -61t56 -154zM324 114q71 0 120 49.5t49 120.5
q0 60 -41.5 99.5t-105.5 39.5q-71 0 -120.5 -49.5t-49.5 -120.5q0 -60 42 -99.5t106 -39.5zM125 -11q14 -56 56.5 -88.5t103.5 -32.5t105 32t53 82l90 518h96l-92 -526q-16 -91 -87 -147t-170 -56q-34 0 -69.5 9.5t-70.5 29t-63.5 54.5t-41.5 80z" />
    <glyph glyph-name="Hcircumflex" unicode="&#x124;" horiz-adv-x="687" 
d="M498 978l-195 -146l38 -62l160 123l115 -131l55 52l-146 162zM54 0l122 700h96l-52 -296h386l52 296h95l-122 -700h-96l55 313h-385l-55 -313h-96z" />
    <glyph glyph-name="hcircumflex" unicode="&#x125;" horiz-adv-x="550" 
d="M261 1003l-195 -146l38 -62l160 123l115 -131l55 52l-146 162zM54 0l131 750h97l-131 -750h-97zM402 0l49 278q11 64 -19 106t-88 42q-53 0 -92 -36.5t-51 -95.5h-44q18 95 81 156.5t144 61.5q88 0 136 -67.5t30 -168.5l-49 -276h-97z" />
    <glyph glyph-name="Hbar" unicode="&#x126;" horiz-adv-x="687" 
d="M789 578l-14 -84h-57l-87 -494h-97l53 301h-380l-53 -301h-98l87 494h-56l15 84h56l22 122h97l-21 -122h379l22 122h98l-22 -122h56zM241 494l-18 -100h380l18 100h-380z" />
    <glyph glyph-name="hbar" unicode="&#x127;" horiz-adv-x="554" 
d="M406 0l48 278q12 64 -18 106t-88 42q-53 0 -92.5 -36.5t-50.5 -95.5h-44q18 95 81 156.5t144 61.5q88 0 135.5 -67.5t30.5 -168.5l-50 -276h-96zM57 0l106 602h-56l15 84h56l11 64h97l-12 -64h181l-15 -84h-180l-106 -602h-97z" />
    <glyph glyph-name="Itilde" unicode="&#x128;" horiz-adv-x="207" 
d="M182 924q-86 0 -130 -125l68 -18q25 70 59 70q13 0 23 -6.5t25 -24.5q23 -25 42.5 -35t44.5 -10q43 0 76 33t54 92l-66 18q-26 -67 -66 -67q-13 0 -23.5 6.5t-24.5 23.5q-22 24 -39.5 33.5t-42.5 9.5zM149 0h-96l123 700h95z" />
    <glyph glyph-name="itilde" unicode="&#x129;" horiz-adv-x="204" 
d="M145 717q-86 0 -130 -125l68 -18q25 70 59 70q13 0 23 -6.5t25 -24.5q23 -25 42.5 -35t44.5 -10q43 0 76 33t54 92l-66 18q-26 -67 -66 -67q-13 0 -23.5 6.5t-24.5 23.5q-22 24 -39.5 33.5t-42.5 9.5zM55 0l88 500h96l-88 -500h-96z" />
    <glyph glyph-name="Imacron" unicode="&#x12a;" horiz-adv-x="207" 
d="M405 862l-14 -77h-314l14 77h314zM149 0h-96l123 700h95z" />
    <glyph glyph-name="imacron" unicode="&#x12b;" horiz-adv-x="204" 
d="M368 655l-14 -77h-314l14 77h314zM55 0l88 500h96l-88 -500h-96z" />
    <glyph glyph-name="Ibreve" unicode="&#x12c;" horiz-adv-x="207" 
d="M242 782q-64 0 -105.5 38.5t-41.5 95.5q0 14 3 27h72q-2 -8 -2 -16q0 -33 22.5 -53.5t60.5 -20.5q42 0 76.5 26.5t41.5 63.5h82q-12 -65 -74 -113t-135 -48zM149 0h-96l123 700h95z" />
    <glyph glyph-name="ibreve" unicode="&#x12d;" horiz-adv-x="204" 
d="M205 575q-64 0 -105.5 38.5t-41.5 95.5q0 14 3 27h72q-2 -8 -2 -16q0 -33 22.5 -53.5t60.5 -20.5q42 0 76.5 26.5t41.5 63.5h82q-12 -65 -74 -113t-135 -48zM55 0l88 500h96l-88 -500h-96z" />
    <glyph glyph-name="Iogonek" unicode="&#x12e;" horiz-adv-x="207" 
d="M50 -256q-48 0 -78.5 27.5t-30.5 69.5q0 40 22 69t73 55l26 14l5 25h68l-9 -53l-65 -33q-47 -25 -47 -65q0 -18 11.5 -29t30.5 -11q32 0 46 34l63 -22q-17 -38 -47.5 -59.5t-67.5 -21.5zM149 0h-96l123 700h95z" />
    <glyph glyph-name="iogonek" unicode="&#x12f;" horiz-adv-x="204" 
d="M51 -256q-48 0 -78.5 27.5t-30.5 69.5q0 40 22 69t73 55l26 14l5 25h68l-9 -53l-65 -33q-47 -25 -47 -65q0 -18 11.5 -29t30.5 -11q32 0 46 34l63 -22q-17 -38 -47.5 -59.5t-67.5 -21.5zM157 638.5q0 26.5 18 44t44 17.5t43.5 -17.5t17.5 -44t-17.5 -44t-43.5 -17.5
t-44 17.5t-18 44zM55 0l88 500h96l-88 -500h-96z" />
    <glyph glyph-name="Idotaccent" unicode="&#x130;" horiz-adv-x="207" 
d="M176 836.5q0 26.5 17.5 44t43.5 17.5t43.5 -17.5t17.5 -44t-17.5 -44t-43.5 -17.5t-43.5 17.5t-17.5 44zM149 0h-96l123 700h95z" />
    <glyph glyph-name="dotlessi" unicode="&#x131;" horiz-adv-x="204" 
d="M55 0l88 500h96l-88 -500h-96z" />
    <glyph glyph-name="IJ" unicode="&#x132;" horiz-adv-x="816" 
d="M367 218q9 -64 50.5 -98.5t109.5 -34.5q70 0 118 43t61 118l80 454h95l-83 -472q-18 -105 -97 -171.5t-184 -66.5q-99 0 -165 55.5t-79 150.5zM149 0h-96l123 700h95z" />
    <glyph glyph-name="ij" unicode="&#x133;" horiz-adv-x="409" 
d="M361 638.5q0 26.5 18 44t44 17.5t43.5 -17.5t17.5 -44t-17.5 -44t-43.5 -17.5t-44 17.5t-18 44zM176 -92q32 0 53.5 23t27.5 58l90 511h96l-97 -548q-10 -58 -54.5 -98t-106.5 -40h-43l12 94h22zM157 638.5q0 26.5 18 44t44 17.5t43.5 -17.5t17.5 -44t-17.5 -44
t-43.5 -17.5t-44 17.5t-18 44zM55 0l88 500h96l-88 -500h-96z" />
    <glyph glyph-name="Jcircumflex" unicode="&#x134;" horiz-adv-x="609" 
d="M651 960l-195 -146l38 -62l160 123l115 -131l55 52l-146 162zM159 218q9 -64 50.5 -98.5t109.5 -34.5q70 0 118 43t61 118l80 454h95l-83 -472q-18 -105 -97 -171.5t-184 -66.5q-99 0 -165 55.5t-79 150.5z" />
    <glyph glyph-name="jcircumflex" unicode="&#x135;" horiz-adv-x="204" 
d="M222 771l-195 -146l38 -62l160 123l115 -131l55 52l-146 162zM-28 -92q32 0 53.5 23t27.5 58l90 511h96l-97 -548q-10 -58 -54.5 -98t-106.5 -40h-43l12 94h22z" />
    <glyph glyph-name="uni0136" unicode="&#x136;" horiz-adv-x="627" 
d="M299 -222q0 -27 -19.5 -46.5t-46 -19.5t-44.5 17t-18 43q0 29 21 50l120 125l35 -35l-79 -80q31 -18 31 -54zM53 0l124 700h95l-52 -301h28l343 301h132l-397 -351l271 -349h-121l-241 301h-32l-53 -301h-97z" />
    <glyph glyph-name="uni0137" unicode="&#x137;" horiz-adv-x="519" 
d="M261 -220q0 -27 -19.5 -46.5t-46 -19.5t-44.5 17t-18 43q0 29 21 50l120 125l35 -35l-79 -80q31 -18 31 -54zM53 0l129 731h95l-74 -425h26l226 194h135l-287 -248l193 -252h-116l-167 210h-27l-36 -210h-97z" />
    <glyph glyph-name="kgreenlandic" unicode="&#x138;" horiz-adv-x="519" 
d="M53 0l89 500h95l-34 -194h26l226 194h135l-287 -248l193 -252h-116l-167 210h-27l-36 -210h-97z" />
    <glyph glyph-name="Lacute" unicode="&#x139;" horiz-adv-x="556" 
d="M403 926l-44 66l-189 -139l40 -61zM166 93h379l-17 -93h-475l124 700h95z" />
    <glyph glyph-name="lacute" unicode="&#x13a;" horiz-adv-x="207" 
d="M406 934l-44 66l-189 -139l40 -61zM55 0l132 750h97l-132 -750h-97z" />
    <glyph glyph-name="uni013B" unicode="&#x13b;" horiz-adv-x="556" 
d="M294 -221q0 -27 -19.5 -46.5t-46 -19.5t-44.5 17t-18 43q0 29 21 50l120 125l35 -35l-79 -80q31 -18 31 -54zM166 93h379l-17 -93h-475l124 700h95z" />
    <glyph glyph-name="uni013C" unicode="&#x13c;" horiz-adv-x="207" 
d="M100 -222q0 -27 -19.5 -46.5t-46 -19.5t-44.5 17t-18 43q0 29 21 50l120 125l35 -35l-79 -80q31 -18 31 -54zM55 0l132 750h97l-132 -750h-97z" />
    <glyph glyph-name="Lcaron" unicode="&#x13d;" horiz-adv-x="556" 
d="M466 732l84 -24l-100 -232l-79 22zM166 93h379l-17 -93h-475l124 700h95z" />
    <glyph glyph-name="lcaron" unicode="&#x13e;" horiz-adv-x="372" 
d="M402 790l84 -24l-100 -232l-79 22zM55 0l132 750h97l-132 -750h-97z" />
    <glyph glyph-name="Ldot" unicode="&#x13f;" horiz-adv-x="556" 
d="M337 359q0 28 18 47t46 19t47 -19t19 -47t-18.5 -46.5t-46.5 -18.5t-46.5 18.5t-18.5 46.5zM166 93h379l-17 -93h-475l124 700h95z" />
    <glyph glyph-name="ldot" unicode="&#x140;" horiz-adv-x="418" 
d="M311 364q0 28 18 47t46 19t47 -19t19 -47t-18.5 -46.5t-46.5 -18.5t-46.5 18.5t-18.5 46.5zM55 0l132 750h97l-132 -750h-97z" />
    <glyph glyph-name="Lslash" unicode="&#x141;" horiz-adv-x="562" 
d="M391 436l2 -83l-323 -62l-1 83zM174 93h377l-16 -93h-473l124 700h95z" />
    <glyph glyph-name="lslash" unicode="&#x142;" horiz-adv-x="252" 
d="M309 446l1 -83l-230 -40l-2 84zM78 0l132 750h95l-133 -750h-94z" />
    <glyph glyph-name="Nacute" unicode="&#x143;" horiz-adv-x="687" 
d="M646 909l-44 66l-189 -139l40 -61zM53 0l123 700h121l262 -568l99 568h96l-123 -700h-121l-260 574l-100 -574h-97z" />
    <glyph glyph-name="nacute" unicode="&#x144;" horiz-adv-x="550" 
d="M537 706l-44 66l-189 -139l40 -61zM54 0l88 500h97l-88 -500h-97zM402 0l49 278q11 65 -19 106.5t-88 41.5q-53 0 -92 -36.5t-51 -95.5h-44q17 88 81.5 153t143.5 65q88 0 135.5 -67.5t30.5 -168.5l-49 -276h-97z" />
    <glyph glyph-name="uni0145" unicode="&#x145;" horiz-adv-x="687" 
d="M354 -222q0 -27 -19.5 -46.5t-46 -19.5t-44.5 17t-18 43q0 29 21 50l120 125l35 -35l-79 -80q31 -18 31 -54zM53 0l123 700h121l262 -568l99 568h96l-123 -700h-121l-260 574l-100 -574h-97z" />
    <glyph glyph-name="uni0146" unicode="&#x146;" horiz-adv-x="550" 
d="M283 -220q0 -27 -19.5 -46.5t-46 -19.5t-44.5 17t-18 43q0 29 21 50l120 125l35 -35l-79 -80q31 -18 31 -54zM54 0l88 500h97l-88 -500h-97zM402 0l49 278q11 65 -19 106.5t-88 41.5q-53 0 -92 -36.5t-51 -95.5h-44q17 88 81.5 153t143.5 65q88 0 135.5 -67.5
t30.5 -168.5l-49 -276h-97z" />
    <glyph glyph-name="Ncaron" unicode="&#x147;" horiz-adv-x="687" 
d="M496 769l196 146l-38 62l-160 -123l-115 131l-55 -52l145 -162zM53 0l123 700h121l262 -568l99 568h96l-123 -700h-121l-260 574l-100 -574h-97z" />
    <glyph glyph-name="ncaron" unicode="&#x148;" horiz-adv-x="550" 
d="M387 566l196 146l-38 62l-160 -123l-115 131l-55 -52l145 -162zM54 0l88 500h97l-88 -500h-97zM402 0l49 278q11 65 -19 106.5t-88 41.5q-53 0 -92 -36.5t-51 -95.5h-44q17 88 81.5 153t143.5 65q88 0 135.5 -67.5t30.5 -168.5l-49 -276h-97z" />
    <glyph glyph-name="napostrophe" unicode="&#x149;" horiz-adv-x="722" 
d="M226 0l88 500h97l-88 -500h-97zM574 0l49 278q11 65 -19 106.5t-88 41.5q-53 0 -92 -36.5t-51 -95.5h-44q17 88 81.5 153t143.5 65q88 0 135.5 -67.5t30.5 -168.5l-49 -276h-97zM220 762l82 -32l-99 -226l-78 30z" />
    <glyph glyph-name="Eng" unicode="&#x14a;" horiz-adv-x="655" 
d="M56 0l124 700h95l-124 -700h-95zM377 -72q56 0 91.5 35t44.5 89l68 384q15 84 -23.5 132t-112.5 48q-76 0 -140 -53t-77 -127h-45q19 111 109 193t199 82q98 0 153 -73t35 -185l-73 -415q-15 -83 -81 -142.5t-154 -59.5h-75l16 92h65z" />
    <glyph glyph-name="eng" unicode="&#x14b;" horiz-adv-x="550" 
d="M56 0l88 500h95l-88 -500h-95zM401 11l50 281q10 59 -17 93.5t-79 34.5q-54 0 -98.5 -37.5t-53.5 -90.5h-46q16 89 86.5 154t155.5 65q79 0 122.5 -55t28.5 -139l-57 -323q-12 -67 -65.5 -113.5t-123.5 -46.5h-71l16 89h57q38 0 63 24.5t32 63.5z" />
    <glyph glyph-name="Omacron" unicode="&#x14c;" 
d="M672 863l-14 -77h-314l14 77h314zM481 625q-120 0 -204 -89t-84 -215q0 -108 68.5 -176t172.5 -68q79 0 146 42t105 112.5t38 151.5q0 107 -69 174.5t-173 67.5zM98 317q0 109 51 201.5t140.5 147t194.5 54.5q143 0 238.5 -94t95.5 -238q0 -108 -51 -201.5t-140.5 -149
t-195.5 -55.5q-142 0 -237.5 95t-95.5 240z" />
    <glyph glyph-name="omacron" unicode="&#x14d;" horiz-adv-x="618" 
d="M576 654l-14 -77h-314l14 77h314zM368 429q-81 0 -137 -58t-56 -139q0 -70 47.5 -114.5t117.5 -44.5q81 0 137 58t56 139q0 70 -47.5 114.5t-117.5 44.5zM80 224q0 122 85.5 209t209.5 87q108 0 180.5 -68t72.5 -174q0 -122 -85.5 -209t-209.5 -87q-108 0 -180.5 68
t-72.5 174z" />
    <glyph glyph-name="Obreve" unicode="&#x14e;" 
d="M509 783q-64 0 -105.5 38.5t-41.5 95.5q0 14 3 27h72q-2 -8 -2 -16q0 -33 22.5 -53.5t60.5 -20.5q42 0 76.5 26.5t41.5 63.5h82q-12 -65 -74 -113t-135 -48zM481 625q-120 0 -204 -89t-84 -215q0 -108 68.5 -176t172.5 -68q79 0 146 42t105 112.5t38 151.5
q0 107 -69 174.5t-173 67.5zM98 317q0 109 51 201.5t140.5 147t194.5 54.5q143 0 238.5 -94t95.5 -238q0 -108 -51 -201.5t-140.5 -149t-195.5 -55.5q-142 0 -237.5 95t-95.5 240z" />
    <glyph glyph-name="obreve" unicode="&#x14f;" horiz-adv-x="618" 
d="M413 574q-64 0 -105.5 38.5t-41.5 95.5q0 14 3 27h72q-2 -8 -2 -16q0 -33 22.5 -53.5t60.5 -20.5q42 0 76.5 26.5t41.5 63.5h82q-12 -65 -74 -113t-135 -48zM368 429q-81 0 -137 -58t-56 -139q0 -70 47.5 -114.5t117.5 -44.5q81 0 137 58t56 139q0 70 -47.5 114.5
t-117.5 44.5zM80 224q0 122 85.5 209t209.5 87q108 0 180.5 -68t72.5 -174q0 -122 -85.5 -209t-209.5 -87q-108 0 -180.5 68t-72.5 174z" />
    <glyph glyph-name="Ohungarumlaut" unicode="&#x150;" 
d="M747 912l-40 66l-190 -147l33 -53zM549 912l-40 66l-189 -147l33 -53zM481 625q-120 0 -204 -89t-84 -215q0 -108 68.5 -176t172.5 -68q79 0 146 42t105 112.5t38 151.5q0 107 -69 174.5t-173 67.5zM98 317q0 109 51 201.5t140.5 147t194.5 54.5q143 0 238.5 -94
t95.5 -238q0 -108 -51 -201.5t-140.5 -149t-195.5 -55.5q-142 0 -237.5 95t-95.5 240z" />
    <glyph glyph-name="ohungarumlaut" unicode="&#x151;" horiz-adv-x="618" 
d="M651 703l-40 66l-190 -147l33 -53zM453 703l-40 66l-189 -147l33 -53zM368 429q-81 0 -137 -58t-56 -139q0 -70 47.5 -114.5t117.5 -44.5q81 0 137 58t56 139q0 70 -47.5 114.5t-117.5 44.5zM80 224q0 122 85.5 209t209.5 87q108 0 180.5 -68t72.5 -174
q0 -122 -85.5 -209t-209.5 -87q-108 0 -180.5 68t-72.5 174z" />
    <glyph glyph-name="OE" unicode="&#x152;" horiz-adv-x="1180" 
d="M829 410h358l-16 -93h-357l-39 -224h378l-16 -93h-475l123 700h474l-16 -93h-377zM482 625q-121 0 -205 -89t-84 -215q0 -108 68.5 -176t171.5 -68q80 0 147 42t105 112.5t38 151.5q0 106 -69 174t-172 68zM98 318q0 108 51 200.5t139 147t192 54.5q136 0 226.5 -94
t90.5 -239q0 -104 -51.5 -197.5t-139.5 -150.5t-187 -57q-137 0 -229 95.5t-92 240.5z" />
    <glyph glyph-name="oe" unicode="&#x153;" horiz-adv-x="1054" 
d="M966 312q-3 53 -44.5 86t-99.5 33q-63 0 -115.5 -37.5t-68.5 -98.5h329q0 10 -1 17zM1060 282q0 -32 -12 -72h-417q2 -61 47 -100t112 -39q51 0 95 24t71 67l77 -51q-43 -63 -107 -96t-138 -33q-106 0 -175 68.5t-69 175.5q0 120 82.5 207t200.5 87q99 0 166 -67t67 -171
zM368 429q-81 0 -137 -57.5t-56 -138.5q0 -70 47 -115t118 -45q81 0 137 57.5t56 138.5q0 70 -47 115t-118 45zM80 225q0 121 85.5 208t207.5 87q105 0 175 -68.5t70 -174.5q0 -122 -83.5 -208.5t-203.5 -86.5q-108 0 -179.5 68.5t-71.5 174.5z" />
    <glyph glyph-name="Racute" unicode="&#x154;" horiz-adv-x="635" 
d="M609 911l-44 66l-189 -139l40 -61zM409 350q70 0 122.5 46t52.5 106q0 47 -34.5 76t-90.5 29h-203l-45 -257h198zM684 513q0 -97 -71 -168.5t-172 -79.5l155 -265h-109l-152 258h-140l-46 -258h-96l124 700h309q89 0 143.5 -52.5t54.5 -134.5z" />
    <glyph glyph-name="racute" unicode="&#x155;" horiz-adv-x="350" 
d="M467 699l-44 66l-189 -139l40 -61zM53 0l87 500h96l-87 -500h-96zM369 414q-61 0 -111 -35.5t-59 -88.5h-45q15 88 81.5 153t144.5 65h33l-16 -94h-28z" />
    <glyph glyph-name="uni0156" unicode="&#x156;" horiz-adv-x="635" 
d="M308 -222q0 -27 -19.5 -46.5t-46 -19.5t-44.5 17t-18 43q0 29 21 50l120 125l35 -35l-79 -80q31 -18 31 -54zM409 350q70 0 122.5 46t52.5 106q0 47 -34.5 76t-90.5 29h-203l-45 -257h198zM684 513q0 -97 -71 -168.5t-172 -79.5l155 -265h-109l-152 258h-140l-46 -258
h-96l124 700h309q89 0 143.5 -52.5t54.5 -134.5z" />
    <glyph glyph-name="uni0157" unicode="&#x157;" horiz-adv-x="350" 
d="M99 -222q0 -27 -19.5 -46.5t-46 -19.5t-44.5 17t-18 43q0 29 21 50l120 125l35 -35l-79 -80q31 -18 31 -54zM53 0l87 500h96l-87 -500h-96zM369 414q-61 0 -111 -35.5t-59 -88.5h-45q15 88 81.5 153t144.5 65h33l-16 -94h-28z" />
    <glyph glyph-name="Rcaron" unicode="&#x158;" horiz-adv-x="635" 
d="M459 771l196 146l-38 62l-160 -123l-115 131l-55 -52l145 -162zM409 350q70 0 122.5 46t52.5 106q0 47 -34.5 76t-90.5 29h-203l-45 -257h198zM684 513q0 -97 -71 -168.5t-172 -79.5l155 -265h-109l-152 258h-140l-46 -258h-96l124 700h309q89 0 143.5 -52.5t54.5 -134.5
z" />
    <glyph glyph-name="rcaron" unicode="&#x159;" horiz-adv-x="350" 
d="M317 559l196 146l-38 62l-160 -123l-115 131l-55 -52l145 -162zM53 0l87 500h96l-87 -500h-96zM369 414q-61 0 -111 -35.5t-59 -88.5h-45q15 88 81.5 153t144.5 65h33l-16 -94h-28z" />
    <glyph glyph-name="Sacute" unicode="&#x15a;" horiz-adv-x="581" 
d="M550 911l-44 66l-189 -139l40 -61zM341 80q61 0 103 32.5t42 79.5q0 36 -34.5 63t-105.5 49q-206 61 -206 197q0 90 69 151.5t170 61.5q96 0 166.5 -54t88.5 -142l-94 -28q-14 61 -58.5 96.5t-106.5 35.5q-58 0 -97 -31.5t-39 -78.5q0 -37 33.5 -63.5t105.5 -48.5
q101 -31 153.5 -82.5t52.5 -118.5q0 -90 -71 -150.5t-175 -60.5q-99 0 -172 54.5t-92 143.5l97 35q13 -65 59 -103t111 -38z" />
    <glyph glyph-name="sacute" unicode="&#x15b;" horiz-adv-x="481" 
d="M507 700l-44 66l-189 -139l40 -61zM279 70q39 0 65 19t26 48q0 45 -100 73q-163 42 -163 141q0 67 53 115t133 48q74 0 129.5 -43t70.5 -114l-94 -21q-8 41 -36 66.5t-72 25.5q-37 0 -62.5 -19t-25.5 -46q0 -44 95 -69q169 -44 169 -148q0 -65 -55.5 -111.5t-138.5 -46.5
q-79 0 -139.5 42t-76.5 110l92 24q10 -39 45 -66.5t85 -27.5z" />
    <glyph glyph-name="Scircumflex" unicode="&#x15c;" horiz-adv-x="581" 
d="M406 980l-195 -146l38 -62l160 123l115 -131l55 52l-146 162zM341 80q61 0 103 32.5t42 79.5q0 36 -34.5 63t-105.5 49q-206 61 -206 197q0 90 69 151.5t170 61.5q96 0 166.5 -54t88.5 -142l-94 -28q-14 61 -58.5 96.5t-106.5 35.5q-58 0 -97 -31.5t-39 -78.5
q0 -37 33.5 -63.5t105.5 -48.5q101 -31 153.5 -82.5t52.5 -118.5q0 -90 -71 -150.5t-175 -60.5q-99 0 -172 54.5t-92 143.5l97 35q13 -65 59 -103t111 -38z" />
    <glyph glyph-name="scircumflex" unicode="&#x15d;" horiz-adv-x="481" 
d="M363 769l-195 -146l38 -62l160 123l115 -131l55 52l-146 162zM279 70q39 0 65 19t26 48q0 45 -100 73q-163 42 -163 141q0 67 53 115t133 48q74 0 129.5 -43t70.5 -114l-94 -21q-8 41 -36 66.5t-72 25.5q-37 0 -62.5 -19t-25.5 -46q0 -44 95 -69q169 -44 169 -148
q0 -65 -55.5 -111.5t-138.5 -46.5q-79 0 -139.5 42t-76.5 110l92 24q10 -39 45 -66.5t85 -27.5z" />
    <glyph glyph-name="Scedilla" unicode="&#x15e;" horiz-adv-x="581" 
d="M415 -145q0 15 -8 24t-21 9q-16 0 -31 -15l-68 34l21 122l73 -7l-16 -92q25 21 53 21q32 0 52.5 -25.5t20.5 -64.5q0 -56 -36.5 -93t-91.5 -37q-48 0 -80.5 26t-37.5 69l75 20q1 -19 13.5 -30t32.5 -11q21 0 35 14.5t14 35.5zM341 80q61 0 103 32.5t42 79.5
q0 36 -34.5 63t-105.5 49q-206 61 -206 197q0 90 69 151.5t170 61.5q96 0 166.5 -54t88.5 -142l-94 -28q-14 61 -58.5 96.5t-106.5 35.5q-58 0 -97 -31.5t-39 -78.5q0 -37 33.5 -63.5t105.5 -48.5q101 -31 153.5 -82.5t52.5 -118.5q0 -90 -71 -150.5t-175 -60.5
q-99 0 -172 54.5t-92 143.5l97 35q13 -65 59 -103t111 -38z" />
    <glyph glyph-name="scedilla" unicode="&#x15f;" horiz-adv-x="481" 
d="M332 -146q0 15 -8 24t-21 9q-16 0 -31 -15l-68 34l21 122l73 -7l-16 -92q25 21 53 21q32 0 52.5 -25.5t20.5 -64.5q0 -56 -36.5 -93t-91.5 -37q-48 0 -80.5 26t-37.5 69l75 20q1 -19 13.5 -30t32.5 -11q21 0 35 14.5t14 35.5zM279 70q39 0 65 19t26 48q0 45 -100 73
q-163 42 -163 141q0 67 53 115t133 48q74 0 129.5 -43t70.5 -114l-94 -21q-8 41 -36 66.5t-72 25.5q-37 0 -62.5 -19t-25.5 -46q0 -44 95 -69q169 -44 169 -148q0 -65 -55.5 -111.5t-138.5 -46.5q-79 0 -139.5 42t-76.5 110l92 24q10 -39 45 -66.5t85 -27.5z" />
    <glyph glyph-name="Scaron" unicode="&#x160;" horiz-adv-x="581" 
d="M400 771l196 146l-38 62l-160 -123l-115 131l-55 -52l145 -162zM341 80q61 0 103 32.5t42 79.5q0 36 -34.5 63t-105.5 49q-206 61 -206 197q0 90 69 151.5t170 61.5q96 0 166.5 -54t88.5 -142l-94 -28q-14 61 -58.5 96.5t-106.5 35.5q-58 0 -97 -31.5t-39 -78.5
q0 -37 33.5 -63.5t105.5 -48.5q101 -31 153.5 -82.5t52.5 -118.5q0 -90 -71 -150.5t-175 -60.5q-99 0 -172 54.5t-92 143.5l97 35q13 -65 59 -103t111 -38z" />
    <glyph glyph-name="scaron" unicode="&#x161;" horiz-adv-x="481" 
d="M357 560l196 146l-38 62l-160 -123l-115 131l-55 -52l145 -162zM279 70q39 0 65 19t26 48q0 45 -100 73q-163 42 -163 141q0 67 53 115t133 48q74 0 129.5 -43t70.5 -114l-94 -21q-8 41 -36 66.5t-72 25.5q-37 0 -62.5 -19t-25.5 -46q0 -44 95 -69q169 -44 169 -148
q0 -65 -55.5 -111.5t-138.5 -46.5q-79 0 -139.5 42t-76.5 110l92 24q10 -39 45 -66.5t85 -27.5z" />
    <glyph glyph-name="uni0162" unicode="&#x162;" horiz-adv-x="599" 
d="M378 -145q0 15 -8 24t-21 9q-16 0 -31 -15l-68 34l21 122l73 -7l-16 -92q25 21 53 21q32 0 52.5 -25.5t20.5 -64.5q0 -56 -36.5 -93t-91.5 -37q-48 0 -80.5 26t-37.5 69l75 20q1 -19 13.5 -30t32.5 -11q21 0 35 14.5t14 35.5zM695 700l-16 -93h-225l-107 -607h-95
l107 607h-227l16 93h547z" />
    <glyph glyph-name="uni0163" unicode="&#x163;" horiz-adv-x="392" 
d="M342 -143q0 15 -8 24t-21 9q-16 0 -31 -15l-68 34l21 122l73 -7l-16 -92q25 21 53 21q32 0 52.5 -25.5t20.5 -64.5q0 -56 -36.5 -93t-91.5 -37q-48 0 -80.5 26t-37.5 69l75 20q1 -19 13.5 -30t32.5 -11q21 0 35 14.5t14 35.5zM314 88h68l-15 -88h-83q-64 0 -102 34
t-38 88q0 14 3 29l46 261h-92l15 88h92l26 150l98 11l-28 -161h150l-16 -88h-150l-44 -248q-1 -12 -1 -19q0 -57 71 -57z" />
    <glyph glyph-name="Tcaron" unicode="&#x164;" horiz-adv-x="599" 
d="M451 780l196 146l-38 62l-160 -123l-115 131l-55 -52l145 -162zM695 700l-16 -93h-225l-107 -607h-95l107 607h-227l16 93h547z" />
    <glyph glyph-name="tcaron" unicode="&#x165;" horiz-adv-x="392" 
d="M483 801l84 -24l-100 -232l-79 22zM314 88h68l-15 -88h-83q-64 0 -102 34t-38 88q0 14 3 29l46 261h-92l15 88h92l26 150l98 11l-28 -161h150l-16 -88h-150l-44 -248q-1 -12 -1 -19q0 -57 71 -57z" />
    <glyph glyph-name="Tbar" unicode="&#x166;" horiz-adv-x="599" 
d="M548 380l-16 -92h-369l17 92h368zM696 700l-17 -93h-225l-107 -607h-95l107 607h-225l17 93h545z" />
    <glyph glyph-name="tbar" unicode="&#x167;" horiz-adv-x="392" 
d="M314 88h68l-15 -88h-83q-64 0 -102 34t-38 88q0 14 3 29l46 261h-92l15 88h92l26 150l98 11l-28 -161h150l-16 -88h-150l-44 -248q-1 -12 -1 -19q0 -57 71 -57zM415 306l-14 -77h-331l14 77h331z" />
    <glyph glyph-name="Utilde" unicode="&#x168;" horiz-adv-x="690" 
d="M424 924q-86 0 -130 -125l68 -18q25 70 59 70q13 0 23 -6.5t25 -24.5q23 -25 42.5 -35t44.5 -10q43 0 76 33t54 92l-66 18q-26 -67 -66 -67q-13 0 -23.5 6.5t-24.5 23.5q-22 24 -39.5 33.5t-42.5 9.5zM370 -11q-116 0 -192.5 72.5t-76.5 184.5q0 26 5 54l70 400h96
l-70 -398q-4 -24 -4 -47q0 -69 47 -120t135 -51q79 0 134.5 49t70.5 135l75 432h96l-79 -450q-20 -115 -106.5 -188t-200.5 -73z" />
    <glyph glyph-name="utilde" unicode="&#x169;" horiz-adv-x="543" 
d="M314 716q-86 0 -130 -125l68 -18q25 70 59 70q13 0 23 -6.5t25 -24.5q23 -25 42.5 -35t44.5 -10q43 0 76 33t54 92l-66 18q-26 -67 -66 -67q-13 0 -23.5 6.5t-24.5 23.5q-22 24 -39.5 33.5t-42.5 9.5zM573 500l-88 -500h-97l88 500h97zM245 500l-55 -306q-10 -57 17 -88
t82 -31q50 0 86.5 28t44.5 76h45q-17 -82 -77 -136t-136 -54q-84 0 -130 54t-29 147l55 310h97z" />
    <glyph glyph-name="Umacron" unicode="&#x16a;" horiz-adv-x="690" 
d="M647 862l-14 -77h-314l14 77h314zM370 -11q-116 0 -192.5 72.5t-76.5 184.5q0 26 5 54l70 400h96l-70 -398q-4 -24 -4 -47q0 -69 47 -120t135 -51q79 0 134.5 49t70.5 135l75 432h96l-79 -450q-20 -115 -106.5 -188t-200.5 -73z" />
    <glyph glyph-name="umacron" unicode="&#x16b;" horiz-adv-x="543" 
d="M537 654l-14 -77h-314l14 77h314zM573 500l-88 -500h-97l88 500h97zM245 500l-55 -306q-10 -57 17 -88t82 -31q50 0 86.5 28t44.5 76h45q-17 -82 -77 -136t-136 -54q-84 0 -130 54t-29 147l55 310h97z" />
    <glyph glyph-name="Ubreve" unicode="&#x16c;" horiz-adv-x="690" 
d="M484 782q-64 0 -105.5 38.5t-41.5 95.5q0 14 3 27h72q-2 -8 -2 -16q0 -33 22.5 -53.5t60.5 -20.5q42 0 76.5 26.5t41.5 63.5h82q-12 -65 -74 -113t-135 -48zM370 -11q-116 0 -192.5 72.5t-76.5 184.5q0 26 5 54l70 400h96l-70 -398q-4 -24 -4 -47q0 -69 47 -120t135 -51
q79 0 134.5 49t70.5 135l75 432h96l-79 -450q-20 -115 -106.5 -188t-200.5 -73z" />
    <glyph glyph-name="ubreve" unicode="&#x16d;" horiz-adv-x="543" 
d="M374 574q-64 0 -105.5 38.5t-41.5 95.5q0 14 3 27h72q-2 -8 -2 -16q0 -33 22.5 -53.5t60.5 -20.5q42 0 76.5 26.5t41.5 63.5h82q-12 -65 -74 -113t-135 -48zM573 500l-88 -500h-97l88 500h97zM245 500l-55 -306q-10 -57 17 -88t82 -31q50 0 86.5 28t44.5 76h45
q-17 -82 -77 -136t-136 -54q-84 0 -130 54t-29 147l55 310h97z" />
    <glyph glyph-name="Uring" unicode="&#x16e;" horiz-adv-x="690" 
d="M492 946q-23 0 -39 -17t-16 -40q0 -20 13.5 -33t33.5 -13q23 0 39.5 16.5t16.5 40.5q0 20 -14 33t-34 13zM368 882q0 54 38 93t92 39q47 0 78.5 -30.5t31.5 -76.5q0 -54 -38 -93t-92 -39q-47 0 -78.5 30t-31.5 77zM370 -11q-116 0 -192.5 72.5t-76.5 184.5q0 26 5 54
l70 400h96l-70 -398q-4 -24 -4 -47q0 -69 47 -120t135 -51q79 0 134.5 49t70.5 135l75 432h96l-79 -450q-20 -115 -106.5 -188t-200.5 -73z" />
    <glyph glyph-name="uring" unicode="&#x16f;" horiz-adv-x="543" 
d="M382 738q-23 0 -39 -17t-16 -40q0 -20 13.5 -33t33.5 -13q23 0 39.5 16.5t16.5 40.5q0 20 -14 33t-34 13zM258 674q0 54 38 93t92 39q47 0 78.5 -30.5t31.5 -76.5q0 -54 -38 -93t-92 -39q-47 0 -78.5 30t-31.5 77zM573 500l-88 -500h-97l88 500h97zM245 500l-55 -306
q-10 -57 17 -88t82 -31q50 0 86.5 28t44.5 76h45q-17 -82 -77 -136t-136 -54q-84 0 -130 54t-29 147l55 310h97z" />
    <glyph glyph-name="Uhungarumlaut" unicode="&#x170;" horiz-adv-x="690" 
d="M722 911l-40 66l-190 -147l33 -53zM524 911l-40 66l-189 -147l33 -53zM370 -11q-116 0 -192.5 72.5t-76.5 184.5q0 26 5 54l70 400h96l-70 -398q-4 -24 -4 -47q0 -69 47 -120t135 -51q79 0 134.5 49t70.5 135l75 432h96l-79 -450q-20 -115 -106.5 -188t-200.5 -73z" />
    <glyph glyph-name="uhungarumlaut" unicode="&#x171;" horiz-adv-x="543" 
d="M612 703l-40 66l-190 -147l33 -53zM414 703l-40 66l-189 -147l33 -53zM573 500l-88 -500h-97l88 500h97zM245 500l-55 -306q-10 -57 17 -88t82 -31q50 0 86.5 28t44.5 76h45q-17 -82 -77 -136t-136 -54q-84 0 -130 54t-29 147l55 310h97z" />
    <glyph glyph-name="Uogonek" unicode="&#x172;" horiz-adv-x="690" 
d="M320 -255q-48 0 -78.5 27.5t-30.5 69.5q0 40 22 69t73 55l26 14l5 25h68l-9 -53l-65 -33q-47 -25 -47 -65q0 -18 11.5 -29t30.5 -11q32 0 46 34l63 -22q-17 -38 -47.5 -59.5t-67.5 -21.5zM370 -11q-116 0 -192.5 72.5t-76.5 184.5q0 26 5 54l70 400h96l-70 -398
q-4 -24 -4 -47q0 -69 47 -120t135 -51q79 0 134.5 49t70.5 135l75 432h96l-79 -450q-20 -115 -106.5 -188t-200.5 -73z" />
    <glyph glyph-name="uogonek" unicode="&#x173;" horiz-adv-x="543" 
d="M385 -256q-48 0 -78.5 27.5t-30.5 69.5q0 40 22 69t73 55l26 14l5 25h68l-9 -53l-65 -33q-47 -25 -47 -65q0 -18 11.5 -29t30.5 -11q32 0 46 34l63 -22q-17 -38 -47.5 -59.5t-67.5 -21.5zM573 500l-88 -500h-97l88 500h97zM245 500l-55 -306q-10 -57 17 -88t82 -31
q50 0 86.5 28t44.5 76h45q-17 -82 -77 -136t-136 -54q-84 0 -130 54t-29 147l55 310h97z" />
    <glyph glyph-name="Wcircumflex" unicode="&#x174;" horiz-adv-x="1040" 
d="M668 980l-195 -146l38 -62l160 123l115 -131l55 52l-146 162zM1018 700h107l-317 -700h-132l-65 549l-246 -549h-135l-78 700h101l63 -577l267 577h105l71 -577z" />
    <glyph glyph-name="wcircumflex" unicode="&#x175;" horiz-adv-x="842" 
d="M529 770l-195 -146l38 -62l160 123l115 -131l55 52l-146 162zM799 500h105l-245 -500h-134l-48 364l-179 -364h-116l-65 500h99l43 -397l192 397h95l58 -402z" />
    <glyph glyph-name="Ycircumflex" unicode="&#x176;" horiz-adv-x="671" 
d="M498 980l-195 -146l38 -62l160 123l115 -131l55 52l-146 162zM297 0h95l41 232l332 468h-116l-248 -353l-142 353h-108l187 -468z" />
    <glyph glyph-name="ycircumflex" unicode="&#x177;" horiz-adv-x="567" 
d="M394 769l-195 -146l38 -62l160 123l115 -131l55 52l-146 162zM523 500l-225 -384l-82 384h-99l108 -487l-122 -213h108l417 700h-105z" />
    <glyph glyph-name="Ydieresis" unicode="&#x178;" horiz-adv-x="671" 
d="M521 838.5q0 26.5 18 44t44 17.5t44 -17.5t18 -44t-18 -44t-44 -17.5t-44 17.5t-18 44zM311 838.5q0 26.5 18 44t44 17.5t44 -17.5t18 -44t-18 -44t-44 -17.5t-44 17.5t-18 44zM297 0h95l41 232l332 468h-116l-248 -353l-142 353h-108l187 -468z" />
    <glyph glyph-name="Zacute" unicode="&#x179;" horiz-adv-x="628" 
d="M618 911l-44 66l-189 -139l40 -61zM591 0l17 92h-430l517 498l20 110h-548l-17 -92h429l-516 -492l-20 -116h548z" />
    <glyph glyph-name="zacute" unicode="&#x17a;" horiz-adv-x="485" 
d="M512 700l-44 66l-189 -139l40 -61zM451 0l15 84h-311l365 313l18 103h-414l-15 -84h300l-354 -313l-18 -103h414z" />
    <glyph glyph-name="Zdotaccent" unicode="&#x17b;" horiz-adv-x="628" 
d="M394 838.5q0 26.5 17.5 44t43.5 17.5t43.5 -17.5t17.5 -44t-17.5 -44t-43.5 -17.5t-43.5 17.5t-17.5 44zM591 0l17 92h-430l517 498l20 110h-548l-17 -92h429l-516 -492l-20 -116h548z" />
    <glyph glyph-name="zdotaccent" unicode="&#x17c;" horiz-adv-x="485" 
d="M288 627.5q0 26.5 17.5 44t43.5 17.5t43.5 -17.5t17.5 -44t-17.5 -44t-43.5 -17.5t-43.5 17.5t-17.5 44zM451 0l15 84h-311l365 313l18 103h-414l-15 -84h300l-354 -313l-18 -103h414z" />
    <glyph glyph-name="Zcaron" unicode="&#x17d;" horiz-adv-x="628" 
d="M468 771l196 146l-38 62l-160 -123l-115 131l-55 -52l145 -162zM591 0l17 92h-430l517 498l20 110h-548l-17 -92h429l-516 -492l-20 -116h548z" />
    <glyph glyph-name="zcaron" unicode="&#x17e;" horiz-adv-x="485" 
d="M361 560l196 146l-38 62l-160 -123l-115 131l-55 -52l145 -162zM451 0l15 84h-311l365 313l18 103h-414l-15 -84h300l-354 -313l-18 -103h414z" />
    <glyph glyph-name="Ohorn" unicode="&#x1a0;" 
d="M863 712q0 -57 -36 -92t-95 -35h-77l12 65h60q27 0 44.5 16t17.5 41q0 21 -17 36l56 46q15 -10 25 -32.5t10 -44.5zM481 625q-120 0 -204 -89t-84 -215q0 -108 68.5 -176t172.5 -68q79 0 146 42t105 112.5t38 151.5q0 107 -69 174.5t-173 67.5zM98 317q0 109 51 201.5
t140.5 147t194.5 54.5q143 0 238.5 -94t95.5 -238q0 -108 -51 -201.5t-140.5 -149t-195.5 -55.5q-142 0 -237.5 95t-95.5 240z" />
    <glyph glyph-name="ohorn" unicode="&#x1a1;" horiz-adv-x="657" 
d="M743 499q0 -57 -36 -92t-95 -35h-77l12 65h60q27 0 44.5 16t17.5 41q0 21 -17 36l56 46q15 -10 25 -32.5t10 -44.5zM368 429q-81 0 -137 -58t-56 -139q0 -70 47.5 -114.5t117.5 -44.5q81 0 137 58t56 139q0 70 -47.5 114.5t-117.5 44.5zM80 224q0 122 85.5 209t209.5 87
q108 0 180.5 -68t72.5 -174q0 -122 -85.5 -209t-209.5 -87q-108 0 -180.5 68t-72.5 174z" />
    <glyph glyph-name="Uhorn" unicode="&#x1af;" horiz-adv-x="801" 
d="M900 699q0 -57 -36 -92t-95 -35h-77l12 65h60q27 0 44.5 16t17.5 41q0 21 -17 36l56 46q15 -10 25 -32.5t10 -44.5zM370 -11q-116 0 -192.5 72.5t-76.5 184.5q0 26 5 54l70 400h96l-70 -398q-4 -24 -4 -47q0 -69 47 -120t135 -51q79 0 134.5 49t70.5 135l75 432h96
l-79 -450q-20 -115 -106.5 -188t-200.5 -73z" />
    <glyph glyph-name="uhorn" unicode="&#x1b0;" horiz-adv-x="652" 
d="M717 500q0 -57 -36 -92t-95 -35h-77l12 65h60q27 0 44.5 16t17.5 41q0 21 -17 36l56 46q15 -10 25 -32.5t10 -44.5zM573 500l-88 -500h-97l88 500h97zM245 500l-55 -306q-10 -57 17 -88t82 -31q50 0 86.5 28t44.5 76h45q-17 -82 -77 -136t-136 -54q-84 0 -130 54t-29 147
l55 310h97z" />
    <glyph glyph-name="uni0237" unicode="&#x237;" horiz-adv-x="204" 
d="M-28 -92q32 0 53.5 23t27.5 58l90 511h96l-97 -548q-10 -58 -54.5 -98t-106.5 -40h-43l12 94h22z" />
    <glyph glyph-name="uni02BC" unicode="&#x2bc;" horiz-adv-x="202" 
d="M220 762l82 -32l-99 -226l-78 30z" />
    <glyph glyph-name="gravecomb" unicode="&#x300;" horiz-adv-x="264" 
d="M39 662l55 56l146 -168l-52 -50z" />
    <glyph glyph-name="acutecomb" unicode="&#x301;" horiz-adv-x="264" 
d="M268 634l-44 66l-189 -139l40 -61z" />
    <glyph glyph-name="uni0302" unicode="&#x302;" horiz-adv-x="388" 
d="M213 703l-195 -146l38 -62l160 123l115 -131l55 52l-146 162z" />
    <glyph glyph-name="tildecomb" unicode="&#x303;" horiz-adv-x="404" 
d="M147 649q-86 0 -130 -125l68 -18q25 70 59 70q13 0 23 -6.5t25 -24.5q23 -25 42.5 -35t44.5 -10q43 0 76 33t54 92l-66 18q-26 -67 -66 -67q-13 0 -23.5 6.5t-24.5 23.5q-22 24 -39.5 33.5t-42.5 9.5z" />
    <glyph glyph-name="uni0304" unicode="&#x304;" horiz-adv-x="352" 
d="M340 587l-14 -77h-314l14 77h314z" />
    <glyph glyph-name="uni0306" unicode="&#x306;" horiz-adv-x="338" 
d="M171 507q-64 0 -105.5 38.5t-41.5 95.5q0 14 3 27h72q-2 -8 -2 -16q0 -33 22.5 -53.5t60.5 -20.5q42 0 76.5 26.5t41.5 63.5h82q-12 -65 -74 -113t-135 -48z" />
    <glyph glyph-name="uni0307" unicode="&#x307;" horiz-adv-x="170" 
d="M24 561.5q0 26.5 17.5 44t43.5 17.5t43.5 -17.5t17.5 -44t-17.5 -44t-43.5 -17.5t-43.5 17.5t-17.5 44z" />
    <glyph glyph-name="uni0308" unicode="&#x308;" horiz-adv-x="390" 
d="M238 561.5q0 26.5 18 44t44 17.5t44 -17.5t18 -44t-18 -44t-44 -17.5t-44 17.5t-18 44zM28 561.5q0 26.5 18 44t44 17.5t44 -17.5t18 -44t-18 -44t-44 -17.5t-44 17.5t-18 44z" />
    <glyph glyph-name="hookabovecomb" unicode="&#x309;" horiz-adv-x="260" 
d="M148 741q47 0 77 -28t30 -74q0 -45 -24 -74t-73 -57l-34 -18l-31 60l48 25q43 20 43 56q0 19 -12.5 29.5t-31.5 10.5q-33 0 -46 -32l-61 24q17 37 47 57.5t68 20.5z" />
    <glyph glyph-name="uni030A" unicode="&#x30a;" horiz-adv-x="298" 
d="M162 671q-23 0 -39 -17t-16 -40q0 -20 13.5 -33t33.5 -13q23 0 39.5 16.5t16.5 40.5q0 20 -14 33t-34 13zM38 607q0 54 38 93t92 39q47 0 78.5 -30.5t31.5 -76.5q0 -54 -38 -93t-92 -39q-47 0 -78.5 30t-31.5 77z" />
    <glyph glyph-name="uni030B" unicode="&#x30b;" horiz-adv-x="424" 
d="M448 636l-40 66l-190 -147l33 -53zM250 636l-40 66l-189 -147l33 -53z" />
    <glyph glyph-name="uni030C" unicode="&#x30c;" horiz-adv-x="388" 
d="M207 494l196 146l-38 62l-160 -123l-115 131l-55 -52l145 -162z" />
    <glyph glyph-name="uni0312" unicode="&#x312;" horiz-adv-x="170" 
d="M250 564q-4 -26 -25 -45t-48.5 -19t-43 18t-10.5 45q4 23 20 41l122 139l35 -30l-80 -89q17 -8 25 -24.5t5 -35.5z" />
    <glyph glyph-name="uni0313" unicode="&#x313;" horiz-adv-x="170" 
d="M166 680q5 25 26 44t48 19t43 -18t11 -44q-4 -24 -20 -42l-122 -139l-35 30l79 90q-17 7 -25 23.5t-5 36.5z" />
    <glyph glyph-name="uni0315" unicode="&#x315;" horiz-adv-x="170" 
d="M248 734l84 -24l-100 -232l-79 22z" />
    <glyph glyph-name="uni031B" unicode="&#x31b;" horiz-adv-x="247" 
d="M335 587q0 -57 -36 -92t-95 -35h-77l12 65h60q27 0 44.5 16t17.5 41q0 21 -17 36l56 46q15 -10 25 -32.5t10 -44.5z" />
    <glyph glyph-name="dotbelowcomb" unicode="&#x323;" horiz-adv-x="170" 
d="M2 -141q0 26 18 43.5t44 17.5t43.5 -17.5t17.5 -43.5t-17.5 -44t-43.5 -18t-44 18t-18 44z" />
    <glyph glyph-name="uni0326" unicode="&#x326;" horiz-adv-x="170" 
d="M73 -222q0 -27 -19.5 -46.5t-46 -19.5t-44.5 17t-18 43q0 29 21 50l120 125l35 -35l-79 -80q31 -18 31 -54z" />
    <glyph glyph-name="uni0327" unicode="&#x327;" horiz-adv-x="303" 
d="M170 -145q0 15 -8 24t-21 9q-16 0 -31 -15l-68 34l21 122l73 -7l-16 -92q25 21 53 21q32 0 52.5 -25.5t20.5 -64.5q0 -56 -36.5 -93t-91.5 -37q-48 0 -80.5 26t-37.5 69l75 20q1 -19 13.5 -30t32.5 -11q21 0 35 14.5t14 35.5z" />
    <glyph glyph-name="uni0328" unicode="&#x328;" horiz-adv-x="247" 
d="M89 -256q-48 0 -78.5 27.5t-30.5 69.5q0 40 22 69t73 55l26 14l5 25h68l-9 -53l-65 -33q-47 -25 -47 -65q0 -18 11.5 -29t30.5 -11q32 0 46 34l63 -22q-17 -38 -47.5 -59.5t-67.5 -21.5z" />
    <glyph glyph-name="uni0400" unicode="&#x400;" horiz-adv-x="566" 
d="M305 938l55 56l146 -168l-52 -50zM221 410h357l-15 -93h-358l-39 -224h379l-16 -93h-476l124 700h474l-16 -93h-378z" />
    <glyph glyph-name="uni0401" unicode="&#x401;" horiz-adv-x="566" 
d="M467 837.5q0 26.5 18 44t44 17.5t44 -17.5t18 -44t-18 -44t-44 -17.5t-44 17.5t-18 44zM257 837.5q0 26.5 18 44t44 17.5t44 -17.5t18 -44t-18 -44t-44 -17.5t-44 17.5t-18 44zM221 410h357l-15 -93h-358l-39 -224h379l-16 -93h-476l124 700h474l-16 -93h-378z" />
    <glyph glyph-name="uni0402" unicode="&#x402;" horiz-adv-x="740" 
d="M500 93q59 0 100.5 37.5t41.5 87.5q0 41 -28.5 66.5t-74.5 25.5h-200l-55 -310h-95l107 608h-161l16 92h564l-16 -92h-308l-37 -205h201q80 0 132 -49t52 -124q0 -90 -68.5 -160t-165.5 -70h-87l17 93h65z" />
    <glyph glyph-name="uni0403" unicode="&#x403;" horiz-adv-x="568" 
d="M596 911l-44 66l-189 -139l40 -61zM56 0h95l108 611h388l15 89h-482z" />
    <glyph glyph-name="uni0404" unicode="&#x404;" horiz-adv-x="778" 
d="M97 314q0 111 52.5 204.5t143 147t199 53.5t194.5 -60t118 -172l-91 -31q-21 77 -83.5 122.5t-145.5 45.5q-121 0 -206 -89t-85 -215q0 -106 69 -175t175 -69q73 0 138.5 41.5t106.5 114.5l85 -47q-57 -96 -146 -150t-191 -54q-143 0 -238 95t-95 238zM598 398l-7 -92
h-437v92h444z" />
    <glyph glyph-name="uni0405" unicode="&#x405;" horiz-adv-x="581" 
d="M341 80q61 0 103 32.5t42 79.5q0 36 -34.5 63t-105.5 49q-206 61 -206 197q0 90 69 151.5t170 61.5q96 0 166.5 -54t88.5 -142l-94 -28q-14 61 -58.5 96.5t-106.5 35.5q-58 0 -97 -31.5t-39 -78.5q0 -37 33.5 -63.5t105.5 -48.5q101 -31 153.5 -82.5t52.5 -118.5
q0 -90 -71 -150.5t-175 -60.5q-99 0 -172 54.5t-92 143.5l97 35q13 -65 59 -103t111 -38z" />
    <glyph glyph-name="uni0406" unicode="&#x406;" horiz-adv-x="207" 
d="M149 0h-96l123 700h95z" />
    <glyph glyph-name="uni0407" unicode="&#x407;" horiz-adv-x="207" 
d="M279 836.5q0 26.5 18 44t44 17.5t44 -17.5t18 -44t-18 -44t-44 -17.5t-44 17.5t-18 44zM69 836.5q0 26.5 18 44t44 17.5t44 -17.5t18 -44t-18 -44t-44 -17.5t-44 17.5t-18 44zM149 0h-96l123 700h95z" />
    <glyph glyph-name="uni0408" unicode="&#x408;" horiz-adv-x="609" 
d="M159 218q9 -64 50.5 -98.5t109.5 -34.5q70 0 118 43t61 118l80 454h95l-83 -472q-18 -105 -97 -171.5t-184 -66.5q-99 0 -165 55.5t-79 150.5z" />
    <glyph glyph-name="uni0409" unicode="&#x409;" horiz-adv-x="1157" 
d="M902 0q68 0 126.5 35.5t91 91.5t32.5 117q0 75 -52.5 124.5t-134.5 49.5h-254l50 282h-438l-80 -458q-12 -66 -57 -109.5t-115 -43.5h-22l-16 -89h37q99 0 173.5 65.5t90.5 155.5l69 390h247l-107 -611h359zM1056 229q0 -54 -43.5 -95t-104.5 -41h-254l41 232h254
q47 0 77 -27t30 -69z" />
    <glyph glyph-name="uni040A" unicode="&#x40a;" horiz-adv-x="1025" 
d="M779 0q102 0 174 71.5t72 160.5q0 77 -51.5 127.5t-132.5 50.5h-235l51 290h-95l-123 -700h340zM928 225q0 -52 -41.5 -92t-101.5 -40h-235l40 225h235q46 0 74.5 -26t28.5 -67zM520 408h-297l51 292h-95l-123 -700h95l56 315h298z" />
    <glyph glyph-name="uni040B" unicode="&#x40b;" horiz-adv-x="695" 
d="M683 192l-34 -192h-95l34 192q2 7 2 21q0 43 -29.5 70t-76.5 27h-145l-55 -310h-95l107 608h-161l16 92h508l-16 -92h-252l-37 -205h146q81 0 134 -49.5t53 -125.5q0 -19 -4 -36z" />
    <glyph glyph-name="uni040C" unicode="&#x40c;" horiz-adv-x="627" 
d="M605 909l-44 66l-189 -139l40 -61zM53 0l124 700h95l-52 -301h28l343 301h132l-397 -351l271 -349h-121l-241 301h-32l-53 -301h-97z" />
    <glyph glyph-name="uni040D" unicode="&#x40d;" horiz-adv-x="687" 
d="M366 939l55 56l146 -168l-52 -50zM631 0h-95l99 558l-461 -558h-118l124 700h95l-98 -552l458 552h120z" />
    <glyph glyph-name="uni040E" unicode="&#x40e;" horiz-adv-x="639" 
d="M469 784q-64 0 -105.5 38.5t-41.5 95.5q0 14 3 27h72q-2 -8 -2 -16q0 -33 22.5 -53.5t60.5 -20.5q42 0 76.5 26.5t41.5 63.5h82q-12 -65 -74 -113t-135 -48zM164 0h111l457 700h-117l-222 -350l-131 350h-107l174 -440z" />
    <glyph glyph-name="uni040F" unicode="&#x40f;" horiz-adv-x="702" 
d="M646 0l124 700h-95l-108 -611h-400l108 611h-95l-124 -700h248l-31 -175h103l30 175h240z" />
    <glyph glyph-name="uni0410" unicode="&#x410;" horiz-adv-x="770" 
d="M145 0h-113l415 700h127l168 -700h-104l-141 593zM231 271h407l-16 -90h-406z" />
    <glyph glyph-name="uni0411" unicode="&#x411;" horiz-adv-x="659" 
d="M659 232q0 -92 -72.5 -162t-174.5 -70h-356l123 700h465l-16 -92h-370l-35 -201h250q80 0 133 -50.5t53 -124.5zM418 93q60 0 102 38t42 90q0 41 -29 67t-76 26h-250l-39 -221h250z" />
    <glyph glyph-name="uni0412" unicode="&#x412;" horiz-adv-x="651" 
d="M465 396q47 0 85 36.5t38 81.5q0 41 -25.5 67t-66.5 26h-240l-37 -211h246zM416 93q54 0 92.5 35.5t38.5 84.5q0 42 -27 67.5t-71 25.5h-246l-37 -213h250zM642 217q0 -88 -68.5 -152.5t-163.5 -64.5h-357l124 700h346q73 0 118 -44.5t45 -115.5q0 -56 -34 -109t-89 -79
q38 -21 58.5 -56t20.5 -79z" />
    <glyph glyph-name="uni0413" unicode="&#x413;" horiz-adv-x="568" 
d="M56 0h95l108 611h388l15 89h-482z" />
    <glyph glyph-name="uni0414" unicode="&#x414;" horiz-adv-x="770" 
d="M44 89l-36 -205h95l20 116h524l-20 -116h95l36 205h-714zM78 89h-34l3 -67h29q103 0 179 63.5t92 150.5l65 371h263l-107 -606h95l123 699h-453l-79 -450q-12 -70 -58.5 -115.5t-117.5 -45.5z" />
    <glyph glyph-name="uni0415" unicode="&#x415;" horiz-adv-x="566" 
d="M221 410h357l-15 -93h-358l-39 -224h379l-16 -93h-476l124 700h474l-16 -93h-378z" />
    <glyph glyph-name="uni0416" unicode="&#x416;" horiz-adv-x="951" 
d="M551 700h95l-52 -300h62l270 300h118l-313 -348l190 -352h-103l-165 302h-77l-53 -302h-95l53 302h-62l-275 -302h-114l314 349l-191 351h99l170 -300h77z" />
    <glyph glyph-name="uni0417" unicode="&#x417;" horiz-adv-x="551" 
d="M494 520q0 46 -33 76t-83 30q-41 0 -77 -22t-60 -61l-79 46q39 60 98 94t126 34q88 0 147 -52t59 -130q0 -58 -33 -107.5t-88 -73.5q39 -25 60 -65t21 -88q0 -92 -70.5 -155.5t-173.5 -63.5q-89 0 -154 47t-86 127l95 38q12 -55 52.5 -88t96.5 -33q62 0 104.5 38.5
t42.5 94.5q0 46 -30 77t-75 31h-91l11 90h96q53 0 88.5 33t35.5 83z" />
    <glyph glyph-name="uni0418" unicode="&#x418;" horiz-adv-x="687" 
d="M631 0h-95l99 558l-461 -558h-118l124 700h95l-98 -552l458 552h120z" />
    <glyph glyph-name="uni0419" unicode="&#x419;" horiz-adv-x="687" 
d="M491 784q-64 0 -105.5 38.5t-41.5 95.5q0 14 3 27h72q-2 -8 -2 -16q0 -33 22.5 -53.5t60.5 -20.5q42 0 76.5 26.5t41.5 63.5h82q-12 -65 -74 -113t-135 -48zM631 0h-95l99 558l-461 -558h-118l124 700h95l-98 -552l458 552h120z" />
    <glyph glyph-name="uni041A" unicode="&#x41a;" horiz-adv-x="627" 
d="M53 0l124 700h95l-52 -301h28l343 301h132l-397 -351l271 -349h-121l-241 301h-32l-53 -301h-97z" />
    <glyph glyph-name="uni041B" unicode="&#x41b;" horiz-adv-x="693" 
d="M72 89h-23l-16 -89h37q99 0 173.5 65.5t90.5 155.5l69 390h247l-107 -611h95l123 700h-438l-80 -458q-12 -66 -57 -109.5t-114 -43.5z" />
    <glyph glyph-name="uni041C" unicode="&#x41c;" horiz-adv-x="836" 
d="M53 0l123 700h112l169 -457l333 457h119l-123 -700h-96l96 540l-310 -428h-70l-160 435l-96 -547h-97z" />
    <glyph glyph-name="uni041D" unicode="&#x41d;" horiz-adv-x="687" 
d="M54 0l122 700h96l-52 -296h386l52 296h95l-122 -700h-96l55 313h-385l-55 -313h-96z" />
    <glyph glyph-name="uni041E" unicode="&#x41e;" 
d="M481 625q-120 0 -204 -89t-84 -215q0 -108 68.5 -176t172.5 -68q79 0 146 42t105 112.5t38 151.5q0 107 -69 174.5t-173 67.5zM98 317q0 109 51 201.5t140.5 147t194.5 54.5q143 0 238.5 -94t95.5 -238q0 -108 -51 -201.5t-140.5 -149t-195.5 -55.5q-142 0 -237.5 95
t-95.5 240z" />
    <glyph glyph-name="uni041F" unicode="&#x41f;" horiz-adv-x="695" 
d="M56 0l122 700h584l-123 -700h-95l108 611h-394l-107 -611h-95z" />
    <glyph glyph-name="uni0420" unicode="&#x420;" horiz-adv-x="629" 
d="M395 322q83 0 137 46t54 122q0 52 -36.5 84.5t-97.5 32.5h-195l-50 -285h188zM683 502q0 -123 -85.5 -197.5t-210.5 -74.5h-197l-40 -230h-97l123 700h290q93 0 155 -56.5t62 -141.5z" />
    <glyph glyph-name="uni0421" unicode="&#x421;" horiz-adv-x="778" 
d="M97 314q0 111 52.5 204.5t143 147t199 53.5t194.5 -60t118 -172l-91 -31q-21 77 -83.5 122.5t-145.5 45.5q-121 0 -206 -89t-85 -215q0 -106 69 -175t175 -69q73 0 138.5 41.5t106.5 114.5l85 -47q-57 -96 -146 -150t-191 -54q-143 0 -238 95t-95 238z" />
    <glyph glyph-name="uni0422" unicode="&#x422;" horiz-adv-x="599" 
d="M695 700l-16 -93h-225l-107 -607h-95l107 607h-227l16 93h547z" />
    <glyph glyph-name="uni0423" unicode="&#x423;" horiz-adv-x="639" 
d="M164 0h111l457 700h-117l-222 -350l-131 350h-107l174 -440z" />
    <glyph glyph-name="uni0424" unicode="&#x424;" horiz-adv-x="795" 
d="M350 0l132 750h95l-132 -750h-95zM730 390q0 80 -77 129.5t-201 49.5q-114 0 -184 -52.5t-70 -138.5q0 -81 76 -131t200 -50q113 0 184.5 53.5t71.5 139.5zM102 370q0 128 100 209.5t258 81.5q162 0 263.5 -73t101.5 -189q0 -129 -101 -211.5t-257 -82.5
q-163 0 -264 73.5t-101 191.5z" />
    <glyph glyph-name="uni0425" unicode="&#x425;" horiz-adv-x="706" 
d="M675 0h-112l-157 288l-258 -288h-122l310 346l-186 354h113l155 -296l259 296h121l-310 -354z" />
    <glyph glyph-name="uni0426" unicode="&#x426;" horiz-adv-x="726" 
d="M619 93l107 607h-95l-107 -607h-356l107 607h-95l-124 -700h545l-22 -124h95l39 217h-94z" />
    <glyph glyph-name="uni0427" unicode="&#x427;" horiz-adv-x="643" 
d="M710 700l-123 -700h-95l123 700h95zM274 700l-40 -229q-3 -18 -3 -41q0 -62 36.5 -98t100.5 -36q73 0 132.5 45.5t71.5 109.5h45q-18 -103 -101 -174.5t-185 -71.5q-89 0 -144.5 52.5t-55.5 140.5q0 21 5 52l43 250h95z" />
    <glyph glyph-name="uni0428" unicode="&#x428;" horiz-adv-x="955" 
d="M899 0l123 700h-95l-107 -607h-276l106 607h-95l-106 -607h-281l107 607h-95l-124 -700h843z" />
    <glyph glyph-name="uni0429" unicode="&#x429;" horiz-adv-x="1018" 
d="M915 93l107 607h-95l-107 -607h-276l106 607h-95l-106 -607h-281l107 607h-95l-124 -700h838l-22 -124h95l38 217h-90z" />
    <glyph glyph-name="uni042A" unicode="&#x42a;" horiz-adv-x="786" 
d="M538 93q63 0 107.5 39.5t44.5 94.5q0 43 -30.5 70.5t-79.5 27.5h-217l-41 -232h216zM786 243q0 -96 -74.5 -169.5t-179.5 -73.5h-321l107 608h-181l16 92h276l-50 -282h217q84 0 137 -50t53 -125z" />
    <glyph glyph-name="uni042B" unicode="&#x42b;" horiz-adv-x="805" 
d="M750 0h-96l124 700h94zM608 244q0 -61 -32.5 -117t-91 -91.5t-126.5 -35.5h-302l123 700h95l-49 -282h196q82 0 134.5 -49.5t52.5 -124.5zM364 93q62 0 105 41t43 95q0 42 -29.5 69t-77.5 27h-196l-41 -232h196z" />
    <glyph glyph-name="uni042C" unicode="&#x42c;" horiz-adv-x="663" 
d="M666 244q0 -61 -32.5 -117t-91 -91.5t-127.5 -35.5h-359l123 700h95l-49 -282h254q82 0 134.5 -49.5t52.5 -124.5zM422 93q61 0 104 41t43 95q0 42 -29.5 69t-76.5 27h-254l-41 -232h254z" />
    <glyph glyph-name="uni042D" unicode="&#x42d;" horiz-adv-x="778" 
d="M802 386q0 -111 -52 -204t-143 -147t-199 -54t-194.5 60.5t-118.5 172.5l92 30q21 -76 83.5 -122t145.5 -46q120 0 205.5 89.5t85.5 214.5q0 106 -69 175t-175 69q-74 0 -139.5 -41.5t-106.5 -113.5l-84 46q56 97 145 150.5t192 53.5q143 0 237.5 -94.5t94.5 -238.5z
M301 302l8 92h437v-92h-445z" />
    <glyph glyph-name="uni042E" unicode="&#x42e;" horiz-adv-x="1085" 
d="M483 320q0 126 83.5 215.5t204.5 89.5q104 0 172.5 -67.5t68.5 -173.5q0 -81 -37.5 -151.5t-104.5 -113t-147 -42.5q-103 0 -171.5 68t-68.5 175zM778 720q-107 0 -197 -55t-142 -149t-52 -205q0 -144 93.5 -236.5t234.5 -92.5q108 0 198.5 56.5t142 151t51.5 204.5
q0 142 -93.5 234t-235.5 92zM435 398h-216l53 302h-95l-123 -700h95l53 304h217z" />
    <glyph glyph-name="uni042F" unicode="&#x42f;" horiz-adv-x="635" 
d="M386 607q-70 0 -119.5 -44t-49.5 -104q0 -48 35 -78.5t89 -30.5h204l45 257h-204zM116 453q0 104 79.5 175.5t193.5 71.5h313l-124 -700h-95l45 258h-181l-196 -258h-116l215 270q-60 17 -97 67.5t-37 115.5z" />
    <glyph glyph-name="uni0430" unicode="&#x430;" horiz-adv-x="505" 
d="M312 511q83 0 142 -50.5t59 -121.5q0 -13 -3 -28l-53 -311h-96l38 216l-130 -12q-51 -3 -79 -21t-28 -47t25 -45.5t67 -16.5q56 0 94 30.5t46 83.5h34q-14 -87 -74 -142t-139 -55q-66 0 -107.5 38t-41.5 98q0 67 54 110t144 50l150 12l1 12q3 14 3 21q0 39 -31 65.5
t-76 26.5q-40 0 -73.5 -21t-48.5 -54l-84 39q29 56 85.5 89.5t121.5 33.5z" />
    <glyph glyph-name="uni0431" unicode="&#x431;" horiz-adv-x="610" 
d="M336 -15q-115 0 -182 69t-67 187q0 199 102.5 330.5t265.5 142.5q71 5 104.5 14.5t66.5 33.5l38 -72q-40 -30 -86 -43t-124 -17q-93 -5 -160.5 -71.5t-95.5 -179.5q34 45 89 72t115 27q93 0 152.5 -61t59.5 -155q0 -116 -80.5 -196.5t-197.5 -80.5zM360 388
q-74 0 -124.5 -46t-50.5 -113q0 -63 46.5 -106t114.5 -43q72 0 122 49t50 119q0 62 -44 101t-114 39z" />
    <glyph glyph-name="uni0432" unicode="&#x432;" horiz-adv-x="564" 
d="M404 290q33 0 57 20t24 49q0 25 -18.5 40t-49.5 15h-193l-22 -124h202zM369 86q37 0 64 21.5t27 51.5q0 24 -19 39.5t-49 15.5h-203l-23 -128h203zM554 158q0 -66 -55.5 -112t-134.5 -46h-308l88 500h298q63 0 102.5 -33.5t39.5 -84.5q0 -39 -23 -72t-63 -50
q27 -15 41.5 -42.5t14.5 -59.5z" />
    <glyph glyph-name="uni0433" unicode="&#x433;" horiz-adv-x="438" 
d="M56 0h95l73 411h251l16 89h-347z" />
    <glyph glyph-name="uni0434" unicode="&#x434;" horiz-adv-x="615" 
d="M44 89l-36 -205h95l20 116h370l-21 -116h95l36 205h-559zM68 89h-19l-12 -67h29q81 0 140.5 47.5t70.5 112.5l40 225h178l-72 -407h95l88 500h-368l-53 -304q-8 -46 -39 -76.5t-78 -30.5z" />
    <glyph glyph-name="uni0435" unicode="&#x435;" horiz-adv-x="595" 
d="M513 310q-5 54 -45.5 87.5t-98.5 33.5q-64 0 -116 -37.5t-69 -98.5h329q1 8 0 15zM606 283q0 -33 -10 -73h-419q3 -61 48 -100t112 -39q51 0 94.5 24t70.5 67l77 -51q-44 -64 -108 -96.5t-139 -32.5q-109 0 -181 68.5t-72 174.5q0 121 85.5 208t206.5 87q100 0 167.5 -67
t67.5 -170z" />
    <glyph glyph-name="uni0436" unicode="&#x436;" horiz-adv-x="791" 
d="M436 500h95l-36 -204h38l202 204h113l-246 -250l158 -250h-106l-130 201h-45l-36 -201h-95l36 204h-38l-201 -204h-114l247 250l-159 250h106l130 -201h46z" />
    <glyph glyph-name="uni0437" unicode="&#x437;" horiz-adv-x="480" 
d="M399 352q0 30 -26 51t-65 21q-63 0 -100 -55l-81 48q32 47 81.5 73.5t107.5 26.5q77 0 129 -42.5t52 -105.5q0 -42 -23.5 -77t-63.5 -52q55 -38 55 -106q0 -65 -55.5 -109t-139.5 -44q-78 0 -136 38t-78 103l95 34q10 -38 43.5 -60.5t79.5 -22.5q43 0 71 20.5t28 51.5
q0 28 -21 47.5t-52 19.5h-74l7 74h80q39 0 62.5 18t23.5 48z" />
    <glyph glyph-name="uni0438" unicode="&#x438;" horiz-adv-x="577" 
d="M521 0h-95l68 373l-324 -373h-114l88 500h95l-64 -363l320 363h114z" />
    <glyph glyph-name="uni0439" unicode="&#x439;" horiz-adv-x="577" 
d="M397 575q-64 0 -105.5 38.5t-41.5 95.5q0 14 3 27h72q-2 -8 -2 -16q0 -33 22.5 -53.5t60.5 -20.5q42 0 76.5 26.5t41.5 63.5h82q-12 -65 -74 -113t-135 -48zM521 0h-95l68 373l-324 -373h-114l88 500h95l-64 -363l320 363h114z" />
    <glyph glyph-name="uni043A" unicode="&#x43a;" horiz-adv-x="519" 
d="M53 0l89 500h95l-34 -194h26l226 194h135l-287 -248l193 -252h-116l-167 210h-27l-36 -210h-97z" />
    <glyph glyph-name="uni043B" unicode="&#x43b;" horiz-adv-x="562" 
d="M72 93h-23l-16 -93h33q74 0 129.5 49.5t67.5 117.5l42 240h178l-72 -407h95l88 500h-367l-56 -319q-7 -38 -33 -63t-66 -25z" />
    <glyph glyph-name="uni043C" unicode="&#x43c;" horiz-adv-x="706" 
d="M56 0l88 500h105l132 -312l241 312h116l-88 -500h-95l64 366l-222 -292h-60l-121 292l-65 -366h-95z" />
    <glyph glyph-name="uni043D" unicode="&#x43d;" horiz-adv-x="591" 
d="M56 0l88 500h95l-36 -204h289l36 204h95l-88 -500h-95l37 206h-289l-37 -206h-95z" />
    <glyph glyph-name="uni043E" unicode="&#x43e;" horiz-adv-x="618" 
d="M368 429q-81 0 -137 -58t-56 -139q0 -70 47.5 -114.5t117.5 -44.5q81 0 137 58t56 139q0 70 -47.5 114.5t-117.5 44.5zM80 224q0 122 85.5 209t209.5 87q108 0 180.5 -68t72.5 -174q0 -122 -85.5 -209t-209.5 -87q-108 0 -180.5 68t-72.5 174z" />
    <glyph glyph-name="uni043F" unicode="&#x43f;" horiz-adv-x="552" 
d="M584 500l-88 -500h-95l73 411h-250l-73 -411h-95l88 500h440z" />
    <glyph glyph-name="uni0440" unicode="&#x440;" horiz-adv-x="638" 
d="M137 500h95l-122 -700h-95zM381 427q-81 0 -137 -58t-56 -138q0 -70 47.5 -114.5t117.5 -44.5q81 0 137 57.5t56 138.5q0 70 -47 114.5t-118 44.5zM146 211q0 80 35.5 150t98 112.5t136.5 42.5q96 0 161 -66t65 -170q0 -79 -36.5 -148.5t-100.5 -111.5t-140 -42
q-96 0 -157.5 66t-61.5 167z" />
    <glyph glyph-name="uni0441" unicode="&#x441;" horiz-adv-x="587" 
d="M365 428q-78 0 -133 -58t-55 -140q0 -69 45 -113.5t115 -44.5q51 0 97 26t72 72l79 -47q-40 -67 -107.5 -104.5t-147.5 -37.5q-108 0 -178.5 68.5t-70.5 172.5q0 123 85.5 210t205.5 87q88 0 153 -43.5t89 -115.5l-91 -37q-15 49 -57 77t-101 28z" />
    <glyph glyph-name="uni0442" unicode="&#x442;" horiz-adv-x="485" 
d="M543 500l-16 -89h-165l-72 -411h-95l72 411h-165l16 89h425z" />
    <glyph glyph-name="uni0443" unicode="&#x443;" horiz-adv-x="567" 
d="M523 500l-225 -384l-82 384h-99l108 -487l-122 -213h108l417 700h-105z" />
    <glyph glyph-name="uni0444" unicode="&#x444;" horiz-adv-x="648" 
d="M245 -190l154 870h92l-154 -870h-92zM380 429q-86 0 -145 -56.5t-59 -136.5q0 -70 52 -116.5t131 -46.5q85 0 144.5 56.5t59.5 136.5q0 70 -52 116.5t-131 46.5zM81 227q0 122 89.5 207.5t216.5 85.5q117 0 194 -69.5t77 -175.5q0 -122 -89.5 -207.5t-217.5 -85.5
q-117 0 -193.5 69.5t-76.5 175.5z" />
    <glyph glyph-name="uni0445" unicode="&#x445;" horiz-adv-x="558" 
d="M532 0h-107l-112 192l-165 -192h-122l229 256l-138 244h108l108 -192l170 192h120l-232 -256z" />
    <glyph glyph-name="uni0446" unicode="&#x446;" horiz-adv-x="610" 
d="M56 0l88 500h95l-72 -411h273l72 411h95l-72 -411h62l-37 -205h-95l21 116h-430z" />
    <glyph glyph-name="uni0447" unicode="&#x447;" horiz-adv-x="530" 
d="M562 500l-88 -500h-95l88 500h95zM239 500l-28 -162q-3 -14 -3 -26q0 -40 24.5 -63t66.5 -23q50 0 91 32t48 76h46q-14 -83 -79.5 -141t-145.5 -58q-67 0 -108.5 39t-41.5 105q0 19 3 38l32 183h95z" />
    <glyph glyph-name="uni0448" unicode="&#x448;" horiz-adv-x="845" 
d="M789 0l88 500h-95l-72 -411h-224l72 411h-95l-72 -411h-224l72 411h-95l-88 -500h733z" />
    <glyph glyph-name="uni0449" unicode="&#x449;" horiz-adv-x="898" 
d="M805 89l72 411h-95l-72 -411h-224l72 411h-95l-72 -411h-224l72 411h-95l-88 -500h710l-21 -116h95l37 205h-72z" />
    <glyph glyph-name="uni044A" unicode="&#x44a;" horiz-adv-x="652" 
d="M646 184q0 -75 -57.5 -129.5t-135.5 -54.5h-271l72 408h-146l16 92h241l-33 -186h177q61 0 99 -36.5t38 -93.5zM460 93q36 0 62.5 20.5t26.5 52.5q0 24 -18.5 40t-48.5 16h-166l-23 -129h167z" />
    <glyph glyph-name="uni044B" unicode="&#x44b;" horiz-adv-x="746" 
d="M596 0l88 500h94l-88 -500h-94zM359 93q37 0 64 21t27 52q0 24 -19 40t-49 16h-196l-23 -129h196zM546 182q0 -73 -57.5 -127.5t-135.5 -54.5h-301l88 500h96l-34 -189h206q62 0 100 -36.5t38 -92.5z" />
    <glyph glyph-name="uni044C" unicode="&#x44c;" horiz-adv-x="568" 
d="M374 93q37 0 64 21t27 52q0 24 -19 40t-49 16h-207l-23 -129h207zM561 182q0 -73 -57.5 -127.5t-135.5 -54.5h-312l88 500h95l-33 -189h217q62 0 100 -36.5t38 -92.5z" />
    <glyph glyph-name="uni044D" unicode="&#x44d;" horiz-adv-x="587" 
d="M308 69q80 0 136 59t56 142q0 71 -46 116.5t-117 45.5q-53 0 -100 -27t-73 -75l-76 47q40 67 107.5 104.5t148.5 37.5q107 0 177.5 -68t70.5 -173q0 -123 -85.5 -210t-205.5 -87q-88 0 -153 43.5t-89 115.5l87 37q16 -51 59 -79.5t103 -28.5zM241 209l7 77h315v-77h-322z
" />
    <glyph glyph-name="uni044E" unicode="&#x44e;" horiz-adv-x="868" 
d="M425 232q0 82 56 139.5t136 57.5q70 0 116 -45t46 -114q0 -82 -56 -139.5t-135 -57.5q-71 0 -117 45t-46 114zM623 520q-121 0 -207 -87t-86 -209q0 -105 71 -173.5t180 -68.5q122 0 207.5 87t85.5 209q0 105 -71 173.5t-180 68.5zM360 298h-159l35 202h-95l-87 -500h95
l36 204h158z" />
    <glyph glyph-name="uni044F" unicode="&#x44f;" horiz-adv-x="545" 
d="M293 407q-41 0 -71 -24t-30 -58q0 -27 20.5 -44t54.5 -17h171l26 143h-171zM91 320q0 74 59 127t147 53h278l-88 -500h-95l31 178h-157l-123 -178h-109l138 193q-36 16 -58.5 50.5t-22.5 76.5z" />
    <glyph glyph-name="uni0450" unicode="&#x450;" horiz-adv-x="595" 
d="M274 729l55 56l146 -168l-52 -50zM513 310q-5 54 -45.5 87.5t-98.5 33.5q-64 0 -116 -37.5t-69 -98.5h329q1 8 0 15zM606 283q0 -33 -10 -73h-419q3 -61 48 -100t112 -39q51 0 94.5 24t70.5 67l77 -51q-44 -64 -108 -96.5t-139 -32.5q-109 0 -181 68.5t-72 174.5
q0 121 85.5 208t206.5 87q100 0 167.5 -67t67.5 -170z" />
    <glyph glyph-name="uni0451" unicode="&#x451;" horiz-adv-x="595" 
d="M436 628.5q0 26.5 18 44t44 17.5t44 -17.5t18 -44t-18 -44t-44 -17.5t-44 17.5t-18 44zM226 628.5q0 26.5 18 44t44 17.5t44 -17.5t18 -44t-18 -44t-44 -17.5t-44 17.5t-18 44zM513 310q-5 54 -45.5 87.5t-98.5 33.5q-64 0 -116 -37.5t-69 -98.5h329q1 8 0 15zM606 283
q0 -33 -10 -73h-419q3 -61 48 -100t112 -39q51 0 94.5 24t70.5 67l77 -51q-44 -64 -108 -96.5t-139 -32.5q-109 0 -181 68.5t-72 174.5q0 121 85.5 208t206.5 87q100 0 167.5 -67t67.5 -170z" />
    <glyph glyph-name="uni0452" unicode="&#x452;" horiz-adv-x="554" 
d="M60 0l104 590h-60l15 84h60l13 76h95l-13 -76h217l-15 -84h-217l-104 -590h-95zM407 24l47 268q11 60 -16 94t-79 34q-54 0 -98.5 -37.5t-54.5 -90.5h-45q16 91 83 155t153 64q79 0 125 -56t31 -142l-53 -302q-14 -77 -68 -125t-131 -49l-65 1l10 92h58q42 0 69 26.5
t34 67.5z" />
    <glyph glyph-name="uni0453" unicode="&#x453;" horiz-adv-x="438" 
d="M497 702l-44 66l-189 -139l40 -61zM56 0h95l73 411h251l16 89h-347z" />
    <glyph glyph-name="uni0454" unicode="&#x454;" horiz-adv-x="587" 
d="M365 432q-80 0 -136 -59t-56 -143q0 -71 46 -116t118 -45q53 0 99.5 27t73.5 74l75 -47q-40 -67 -107.5 -104.5t-147.5 -37.5q-108 0 -178.5 68.5t-70.5 172.5q0 123 85.5 210t205.5 87q88 0 153 -43.5t89 -115.5l-87 -37q-16 51 -59 80t-103 29zM432 291l-7 -77h-315v77
h322z" />
    <glyph glyph-name="uni0455" unicode="&#x455;" horiz-adv-x="481" 
d="M279 70q39 0 65 19t26 48q0 45 -100 73q-163 42 -163 141q0 67 53 115t133 48q74 0 129.5 -43t70.5 -114l-94 -21q-8 41 -36 66.5t-72 25.5q-37 0 -62.5 -19t-25.5 -46q0 -44 95 -69q169 -44 169 -148q0 -65 -55.5 -111.5t-138.5 -46.5q-79 0 -139.5 42t-76.5 110l92 24
q10 -39 45 -66.5t85 -27.5z" />
    <glyph glyph-name="uni0456" unicode="&#x456;" horiz-adv-x="204" 
d="M157 638.5q0 26.5 18 44t44 17.5t43.5 -17.5t17.5 -44t-17.5 -44t-43.5 -17.5t-44 17.5t-18 44zM55 0l88 500h96l-88 -500h-96z" />
    <glyph glyph-name="uni0457" unicode="&#x457;" horiz-adv-x="204" 
d="M242 629.5q0 26.5 18 44t44 17.5t44 -17.5t18 -44t-18 -44t-44 -17.5t-44 17.5t-18 44zM32 629.5q0 26.5 18 44t44 17.5t44 -17.5t18 -44t-18 -44t-44 -17.5t-44 17.5t-18 44zM55 0l88 500h96l-88 -500h-96z" />
    <glyph glyph-name="uni0458" unicode="&#x458;" horiz-adv-x="204" 
d="M157 638.5q0 26.5 18 44t44 17.5t43.5 -17.5t17.5 -44t-17.5 -44t-43.5 -17.5t-44 17.5t-18 44zM-28 -92q32 0 53.5 23t27.5 58l90 511h96l-97 -548q-10 -58 -54.5 -98t-106.5 -40h-43l12 94h22z" />
    <glyph glyph-name="uni0459" unicode="&#x459;" horiz-adv-x="929" 
d="M734 0q74 0 128 52.5t54 121.5q0 60 -40.5 98.5t-105.5 38.5h-209l33 189h-368l-56 -319q-6 -38 -32 -63t-66 -25h-23l-16 -93h40q71 0 125 49.5t65 117.5l43 240h177l-72 -407h323zM820 166q0 -31 -27 -52t-65 -21h-206l23 129h206q31 0 50 -16t19 -40z" />
    <glyph glyph-name="uni045A" unicode="&#x45a;" horiz-adv-x="835" 
d="M726 163q0 -30 -26 -50t-63 -20h-172l22 125h173q29 0 47.5 -15t18.5 -40zM632 0q77 0 134 53.5t57 126.5q0 56 -38 91.5t-99 35.5h-183l34 193h-95l-88 -500h278zM424 299h-220l35 201h-95l-88 -500h95l36 206h220z" />
    <glyph glyph-name="uni045B" unicode="&#x45b;" horiz-adv-x="554" 
d="M406 0l48 278q12 64 -18 106t-88 42q-53 0 -92.5 -36.5t-50.5 -95.5h-44q18 95 81 156.5t144 61.5q88 0 135.5 -67.5t30.5 -168.5l-50 -276h-96zM57 0l106 602h-56l15 84h56l11 64h97l-12 -64h181l-15 -84h-180l-106 -602h-97z" />
    <glyph glyph-name="uni045C" unicode="&#x45c;" horiz-adv-x="519" 
d="M521 702l-44 66l-189 -139l40 -61zM53 0l89 500h95l-34 -194h26l226 194h135l-287 -248l193 -252h-116l-167 210h-27l-36 -210h-97z" />
    <glyph glyph-name="uni045D" unicode="&#x45d;" horiz-adv-x="577" 
d="M272 730l55 56l146 -168l-52 -50zM521 0h-95l68 373l-324 -373h-114l88 500h95l-64 -363l320 363h114z" />
    <glyph glyph-name="uni045E" unicode="&#x45e;" horiz-adv-x="567" 
d="M380 573q-64 0 -105.5 38.5t-41.5 95.5q0 14 3 27h72q-2 -8 -2 -16q0 -33 22.5 -53.5t60.5 -20.5q42 0 76.5 26.5t41.5 63.5h82q-12 -65 -74 -113t-135 -48zM523 500l-225 -384l-82 384h-99l108 -487l-122 -213h108l417 700h-105z" />
    <glyph glyph-name="uni045F" unicode="&#x45f;" horiz-adv-x="567" 
d="M56 0l88 500h95l-72 -411h265l72 411h95l-88 -500h-175l-29 -165h-95l29 165h-185z" />
    <glyph glyph-name="uni1EA0" unicode="&#x1ea0;" horiz-adv-x="770" 
d="M314 -141q0 26 18 43.5t44 17.5t43.5 -17.5t17.5 -43.5t-17.5 -44t-43.5 -18t-44 18t-18 44zM145 0h-113l415 700h127l168 -700h-104l-141 593zM231 271h407l-16 -90h-406z" />
    <glyph glyph-name="uni1EA1" unicode="&#x1ea1;" horiz-adv-x="505" 
d="M175 -141q0 26 18 43.5t44 17.5t43.5 -17.5t17.5 -43.5t-17.5 -44t-43.5 -18t-44 18t-18 44zM312 511q83 0 142 -50.5t59 -121.5q0 -13 -3 -28l-53 -311h-96l38 216l-130 -12q-51 -3 -79 -21t-28 -47t25 -45.5t67 -16.5q56 0 94 30.5t46 83.5h34q-14 -87 -74 -142
t-139 -55q-66 0 -107.5 38t-41.5 98q0 67 54 110t144 50l150 12l1 12q3 14 3 21q0 39 -31 65.5t-76 26.5q-40 0 -73.5 -21t-48.5 -54l-84 39q29 56 85.5 89.5t121.5 33.5z" />
    <glyph glyph-name="uni1EA2" unicode="&#x1ea2;" horiz-adv-x="770" 
d="M546 1018q47 0 77 -28t30 -74q0 -45 -24 -74t-73 -57l-34 -18l-31 60l48 25q43 20 43 56q0 19 -12.5 29.5t-31.5 10.5q-33 0 -46 -32l-61 24q17 37 47 57.5t68 20.5zM145 0h-113l415 700h127l168 -700h-104l-141 593zM231 271h407l-16 -90h-406z" />
    <glyph glyph-name="uni1EA3" unicode="&#x1ea3;" horiz-adv-x="505" 
d="M363 808q47 0 77 -28t30 -74q0 -45 -24 -74t-73 -57l-34 -18l-31 60l48 25q43 20 43 56q0 19 -12.5 29.5t-31.5 10.5q-33 0 -46 -32l-61 24q17 37 47 57.5t68 20.5zM312 511q83 0 142 -50.5t59 -121.5q0 -13 -3 -28l-53 -311h-96l38 216l-130 -12q-51 -3 -79 -21t-28 -47
t25 -45.5t67 -16.5q56 0 94 30.5t46 83.5h34q-14 -87 -74 -142t-139 -55q-66 0 -107.5 38t-41.5 98q0 67 54 110t144 50l150 12l1 12q3 14 3 21q0 39 -31 65.5t-76 26.5q-40 0 -73.5 -21t-48.5 -54l-84 39q29 56 85.5 89.5t121.5 33.5z" />
    <glyph glyph-name="uni1EA4" unicode="&#x1ea4;" horiz-adv-x="770" 
d="M900 1093l-44 66l-189 -139l40 -61zM544 980l-195 -146l38 -62l160 123l115 -131l55 52l-146 162zM145 0h-113l415 700h127l168 -700h-104l-141 593zM231 271h407l-16 -90h-406z" />
    <glyph glyph-name="uni1EA5" unicode="&#x1ea5;" horiz-adv-x="505" 
d="M707 872l-44 66l-189 -139l40 -61zM361 770l-195 -146l38 -62l160 123l115 -131l55 52l-146 162zM312 511q83 0 142 -50.5t59 -121.5q0 -13 -3 -28l-53 -311h-96l38 216l-130 -12q-51 -3 -79 -21t-28 -47t25 -45.5t67 -16.5q56 0 94 30.5t46 83.5h34q-14 -87 -74 -142
t-139 -55q-66 0 -107.5 38t-41.5 98q0 67 54 110t144 50l150 12l1 12q3 14 3 21q0 39 -31 65.5t-76 26.5q-40 0 -73.5 -21t-48.5 -54l-84 39q29 56 85.5 89.5t121.5 33.5z" />
    <glyph glyph-name="uni1EA6" unicode="&#x1ea6;" horiz-adv-x="770" 
d="M617 1121l55 56l146 -168l-52 -50zM544 980l-195 -146l38 -62l160 123l115 -131l55 52l-146 162zM145 0h-113l415 700h127l168 -700h-104l-141 593zM231 271h407l-16 -90h-406z" />
    <glyph glyph-name="uni1EA7" unicode="&#x1ea7;" horiz-adv-x="505" 
d="M424 900l55 56l146 -168l-52 -50zM361 770l-195 -146l38 -62l160 123l115 -131l55 52l-146 162zM312 511q83 0 142 -50.5t59 -121.5q0 -13 -3 -28l-53 -311h-96l38 216l-130 -12q-51 -3 -79 -21t-28 -47t25 -45.5t67 -16.5q56 0 94 30.5t46 83.5h34q-14 -87 -74 -142
t-139 -55q-66 0 -107.5 38t-41.5 98q0 67 54 110t144 50l150 12l1 12q3 14 3 21q0 39 -31 65.5t-76 26.5q-40 0 -73.5 -21t-48.5 -54l-84 39q29 56 85.5 89.5t121.5 33.5z" />
    <glyph glyph-name="uni1EA8" unicode="&#x1ea8;" horiz-adv-x="770" 
d="M758 1200q47 0 77 -28t30 -74q0 -45 -24 -74t-73 -57l-34 -18l-31 60l48 25q43 20 43 56q0 19 -12.5 29.5t-31.5 10.5q-33 0 -46 -32l-61 24q17 37 47 57.5t68 20.5zM544 980l-195 -146l38 -62l160 123l115 -131l55 52l-146 162zM145 0h-113l415 700h127l168 -700h-104
l-141 593zM231 271h407l-16 -90h-406z" />
    <glyph glyph-name="uni1EA9" unicode="&#x1ea9;" horiz-adv-x="505" 
d="M565 979q47 0 77 -28t30 -74q0 -45 -24 -74t-73 -57l-34 -18l-31 60l48 25q43 20 43 56q0 19 -12.5 29.5t-31.5 10.5q-33 0 -46 -32l-61 24q17 37 47 57.5t68 20.5zM361 770l-195 -146l38 -62l160 123l115 -131l55 52l-146 162zM312 511q83 0 142 -50.5t59 -121.5
q0 -13 -3 -28l-53 -311h-96l38 216l-130 -12q-51 -3 -79 -21t-28 -47t25 -45.5t67 -16.5q56 0 94 30.5t46 83.5h34q-14 -87 -74 -142t-139 -55q-66 0 -107.5 38t-41.5 98q0 67 54 110t144 50l150 12l1 12q3 14 3 21q0 39 -31 65.5t-76 26.5q-40 0 -73.5 -21t-48.5 -54
l-84 39q29 56 85.5 89.5t121.5 33.5z" />
    <glyph glyph-name="uni1EAA" unicode="&#x1eaa;" horiz-adv-x="770" 
d="M505 1147q-86 0 -130 -125l68 -18q25 70 59 70q13 0 23 -6.5t25 -24.5q23 -25 42.5 -35t44.5 -10q43 0 76 33t54 92l-66 18q-26 -67 -66 -67q-13 0 -23.5 6.5t-24.5 23.5q-22 24 -39.5 33.5t-42.5 9.5zM544 980l-195 -146l38 -62l160 123l115 -131l55 52l-146 162zM145 0
h-113l415 700h127l168 -700h-104l-141 593zM231 271h407l-16 -90h-406z" />
    <glyph glyph-name="uni1EAB" unicode="&#x1eab;" horiz-adv-x="505" 
d="M342 950q-86 0 -130 -125l68 -18q25 70 59 70q13 0 23 -6.5t25 -24.5q23 -25 42.5 -35t44.5 -10q43 0 76 33t54 92l-66 18q-26 -67 -66 -67q-13 0 -23.5 6.5t-24.5 23.5q-22 24 -39.5 33.5t-42.5 9.5zM361 770l-195 -146l38 -62l160 123l115 -131l55 52l-146 162z
M312 511q83 0 142 -50.5t59 -121.5q0 -13 -3 -28l-53 -311h-96l38 216l-130 -12q-51 -3 -79 -21t-28 -47t25 -45.5t67 -16.5q56 0 94 30.5t46 83.5h34q-14 -87 -74 -142t-139 -55q-66 0 -107.5 38t-41.5 98q0 67 54 110t144 50l150 12l1 12q3 14 3 21q0 39 -31 65.5
t-76 26.5q-40 0 -73.5 -21t-48.5 -54l-84 39q29 56 85.5 89.5t121.5 33.5z" />
    <glyph glyph-name="uni1EAC" unicode="&#x1eac;" horiz-adv-x="770" 
d="M548 989l-195 -146l38 -62l160 123l115 -131l55 52l-146 162zM314 -141q0 26 18 43.5t44 17.5t43.5 -17.5t17.5 -43.5t-17.5 -44t-43.5 -18t-44 18t-18 44zM145 0h-113l415 700h127l168 -700h-104l-141 593zM231 271h407l-16 -90h-406z" />
    <glyph glyph-name="uni1EAD" unicode="&#x1ead;" horiz-adv-x="505" 
d="M356 786l-195 -146l38 -62l160 123l115 -131l55 52l-146 162zM175 -141q0 26 18 43.5t44 17.5t43.5 -17.5t17.5 -43.5t-17.5 -44t-43.5 -18t-44 18t-18 44zM312 511q83 0 142 -50.5t59 -121.5q0 -13 -3 -28l-53 -311h-96l38 216l-130 -12q-51 -3 -79 -21t-28 -47
t25 -45.5t67 -16.5q56 0 94 30.5t46 83.5h34q-14 -87 -74 -142t-139 -55q-66 0 -107.5 38t-41.5 98q0 67 54 110t144 50l150 12l1 12q3 14 3 21q0 39 -31 65.5t-76 26.5q-40 0 -73.5 -21t-48.5 -54l-84 39q29 56 85.5 89.5t121.5 33.5z" />
    <glyph glyph-name="uni1EAE" unicode="&#x1eae;" horiz-adv-x="770" 
d="M726 1133l-44 66l-189 -139l40 -61zM530 784q-64 0 -105.5 38.5t-41.5 95.5q0 14 3 27h72q-2 -8 -2 -16q0 -33 22.5 -53.5t60.5 -20.5q42 0 76.5 26.5t41.5 63.5h82q-12 -65 -74 -113t-135 -48zM145 0h-113l415 700h127l168 -700h-104l-141 593zM231 271h407l-16 -90
h-406z" />
    <glyph glyph-name="uni1EAF" unicode="&#x1eaf;" horiz-adv-x="505" 
d="M533 907l-44 66l-189 -139l40 -61zM347 574q-64 0 -105.5 38.5t-41.5 95.5q0 14 3 27h72q-2 -8 -2 -16q0 -33 22.5 -53.5t60.5 -20.5q42 0 76.5 26.5t41.5 63.5h82q-12 -65 -74 -113t-135 -48zM312 511q83 0 142 -50.5t59 -121.5q0 -13 -3 -28l-53 -311h-96l38 216
l-130 -12q-51 -3 -79 -21t-28 -47t25 -45.5t67 -16.5q56 0 94 30.5t46 83.5h34q-14 -87 -74 -142t-139 -55q-66 0 -107.5 38t-41.5 98q0 67 54 110t144 50l150 12l1 12q3 14 3 21q0 39 -31 65.5t-76 26.5q-40 0 -73.5 -21t-48.5 -54l-84 39q29 56 85.5 89.5t121.5 33.5z" />
    <glyph glyph-name="uni1EB0" unicode="&#x1eb0;" horiz-adv-x="770" 
d="M443 1161l55 56l146 -168l-52 -50zM530 784q-64 0 -105.5 38.5t-41.5 95.5q0 14 3 27h72q-2 -8 -2 -16q0 -33 22.5 -53.5t60.5 -20.5q42 0 76.5 26.5t41.5 63.5h82q-12 -65 -74 -113t-135 -48zM145 0h-113l415 700h127l168 -700h-104l-141 593zM231 271h407l-16 -90h-406
z" />
    <glyph glyph-name="uni1EB1" unicode="&#x1eb1;" horiz-adv-x="505" 
d="M250 935l55 56l146 -168l-52 -50zM347 574q-64 0 -105.5 38.5t-41.5 95.5q0 14 3 27h72q-2 -8 -2 -16q0 -33 22.5 -53.5t60.5 -20.5q42 0 76.5 26.5t41.5 63.5h82q-12 -65 -74 -113t-135 -48zM312 511q83 0 142 -50.5t59 -121.5q0 -13 -3 -28l-53 -311h-96l38 216
l-130 -12q-51 -3 -79 -21t-28 -47t25 -45.5t67 -16.5q56 0 94 30.5t46 83.5h34q-14 -87 -74 -142t-139 -55q-66 0 -107.5 38t-41.5 98q0 67 54 110t144 50l150 12l1 12q3 14 3 21q0 39 -31 65.5t-76 26.5q-40 0 -73.5 -21t-48.5 -54l-84 39q29 56 85.5 89.5t121.5 33.5z" />
    <glyph glyph-name="uni1EB2" unicode="&#x1eb2;" horiz-adv-x="770" 
d="M584 1240q47 0 77 -28t30 -74q0 -45 -24 -74t-73 -57l-34 -18l-31 60l48 25q43 20 43 56q0 19 -12.5 29.5t-31.5 10.5q-33 0 -46 -32l-61 24q17 37 47 57.5t68 20.5zM530 784q-64 0 -105.5 38.5t-41.5 95.5q0 14 3 27h72q-2 -8 -2 -16q0 -33 22.5 -53.5t60.5 -20.5
q42 0 76.5 26.5t41.5 63.5h82q-12 -65 -74 -113t-135 -48zM145 0h-113l415 700h127l168 -700h-104l-141 593zM231 271h407l-16 -90h-406z" />
    <glyph glyph-name="uni1EB3" unicode="&#x1eb3;" horiz-adv-x="505" 
d="M391 1014q47 0 77 -28t30 -74q0 -45 -24 -74t-73 -57l-34 -18l-31 60l48 25q43 20 43 56q0 19 -12.5 29.5t-31.5 10.5q-33 0 -46 -32l-61 24q17 37 47 57.5t68 20.5zM347 574q-64 0 -105.5 38.5t-41.5 95.5q0 14 3 27h72q-2 -8 -2 -16q0 -33 22.5 -53.5t60.5 -20.5
q42 0 76.5 26.5t41.5 63.5h82q-12 -65 -74 -113t-135 -48zM312 511q83 0 142 -50.5t59 -121.5q0 -13 -3 -28l-53 -311h-96l38 216l-130 -12q-51 -3 -79 -21t-28 -47t25 -45.5t67 -16.5q56 0 94 30.5t46 83.5h34q-14 -87 -74 -142t-139 -55q-66 0 -107.5 38t-41.5 98
q0 67 54 110t144 50l150 12l1 12q3 14 3 21q0 39 -31 65.5t-76 26.5q-40 0 -73.5 -21t-48.5 -54l-84 39q29 56 85.5 89.5t121.5 33.5z" />
    <glyph glyph-name="uni1EB4" unicode="&#x1eb4;" horiz-adv-x="770" 
d="M507 1148q-86 0 -130 -125l68 -18q25 70 59 70q13 0 23 -6.5t25 -24.5q23 -25 42.5 -35t44.5 -10q43 0 76 33t54 92l-66 18q-26 -67 -66 -67q-13 0 -23.5 6.5t-24.5 23.5q-22 24 -39.5 33.5t-42.5 9.5zM530 784q-64 0 -105.5 38.5t-41.5 95.5q0 14 3 27h72q-2 -8 -2 -16
q0 -33 22.5 -53.5t60.5 -20.5q42 0 76.5 26.5t41.5 63.5h82q-12 -65 -74 -113t-135 -48zM145 0h-113l415 700h127l168 -700h-104l-141 593zM231 271h407l-16 -90h-406z" />
    <glyph glyph-name="uni1EB5" unicode="&#x1eb5;" horiz-adv-x="505" 
d="M315 922q-86 0 -130 -125l68 -18q25 70 59 70q13 0 23 -6.5t25 -24.5q23 -25 42.5 -35t44.5 -10q43 0 76 33t54 92l-66 18q-26 -67 -66 -67q-13 0 -23.5 6.5t-24.5 23.5q-22 24 -39.5 33.5t-42.5 9.5zM347 574q-64 0 -105.5 38.5t-41.5 95.5q0 14 3 27h72q-2 -8 -2 -16
q0 -33 22.5 -53.5t60.5 -20.5q42 0 76.5 26.5t41.5 63.5h82q-12 -65 -74 -113t-135 -48zM312 511q83 0 142 -50.5t59 -121.5q0 -13 -3 -28l-53 -311h-96l38 216l-130 -12q-51 -3 -79 -21t-28 -47t25 -45.5t67 -16.5q56 0 94 30.5t46 83.5h34q-14 -87 -74 -142t-139 -55
q-66 0 -107.5 38t-41.5 98q0 67 54 110t144 50l150 12l1 12q3 14 3 21q0 39 -31 65.5t-76 26.5q-40 0 -73.5 -21t-48.5 -54l-84 39q29 56 85.5 89.5t121.5 33.5z" />
    <glyph glyph-name="uni1EB6" unicode="&#x1eb6;" horiz-adv-x="770" 
d="M522 779q-64 0 -105.5 38.5t-41.5 95.5q0 14 3 27h72q-2 -8 -2 -16q0 -33 22.5 -53.5t60.5 -20.5q42 0 76.5 26.5t41.5 63.5h82q-12 -65 -74 -113t-135 -48zM314 -141q0 26 18 43.5t44 17.5t43.5 -17.5t17.5 -43.5t-17.5 -44t-43.5 -18t-44 18t-18 44zM145 0h-113
l415 700h127l168 -700h-104l-141 593zM231 271h407l-16 -90h-406z" />
    <glyph glyph-name="uni1EB7" unicode="&#x1eb7;" horiz-adv-x="505" 
d="M331 576q-64 0 -105.5 38.5t-41.5 95.5q0 14 3 27h72q-2 -8 -2 -16q0 -33 22.5 -53.5t60.5 -20.5q42 0 76.5 26.5t41.5 63.5h82q-12 -65 -74 -113t-135 -48zM175 -141q0 26 18 43.5t44 17.5t43.5 -17.5t17.5 -43.5t-17.5 -44t-43.5 -18t-44 18t-18 44zM312 511
q83 0 142 -50.5t59 -121.5q0 -13 -3 -28l-53 -311h-96l38 216l-130 -12q-51 -3 -79 -21t-28 -47t25 -45.5t67 -16.5q56 0 94 30.5t46 83.5h34q-14 -87 -74 -142t-139 -55q-66 0 -107.5 38t-41.5 98q0 67 54 110t144 50l150 12l1 12q3 14 3 21q0 39 -31 65.5t-76 26.5
q-40 0 -73.5 -21t-48.5 -54l-84 39q29 56 85.5 89.5t121.5 33.5z" />
    <glyph glyph-name="uni1EB8" unicode="&#x1eb8;" horiz-adv-x="566" 
d="M214 -140q0 26 18 43.5t44 17.5t43.5 -17.5t17.5 -43.5t-17.5 -44t-43.5 -18t-44 18t-18 44zM221 410h357l-15 -93h-358l-39 -224h379l-16 -93h-476l124 700h474l-16 -93h-378z" />
    <glyph glyph-name="uni1EB9" unicode="&#x1eb9;" horiz-adv-x="595" 
d="M234 -140q0 26 18 43.5t44 17.5t43.5 -17.5t17.5 -43.5t-17.5 -44t-43.5 -18t-44 18t-18 44zM513 310q-5 54 -45.5 87.5t-98.5 33.5q-64 0 -116 -37.5t-69 -98.5h329q1 8 0 15zM606 283q0 -33 -10 -73h-419q3 -61 48 -100t112 -39q51 0 94.5 24t70.5 67l77 -51
q-44 -64 -108 -96.5t-139 -32.5q-109 0 -181 68.5t-72 174.5q0 121 85.5 208t206.5 87q100 0 167.5 -67t67.5 -170z" />
    <glyph glyph-name="uni1EBA" unicode="&#x1eba;" horiz-adv-x="566" 
d="M446 1017q47 0 77 -28t30 -74q0 -45 -24 -74t-73 -57l-34 -18l-31 60l48 25q43 20 43 56q0 19 -12.5 29.5t-31.5 10.5q-33 0 -46 -32l-61 24q17 37 47 57.5t68 20.5zM221 410h357l-15 -93h-358l-39 -224h379l-16 -93h-476l124 700h474l-16 -93h-378z" />
    <glyph glyph-name="uni1EBB" unicode="&#x1ebb;" horiz-adv-x="595" 
d="M415 808q47 0 77 -28t30 -74q0 -45 -24 -74t-73 -57l-34 -18l-31 60l48 25q43 20 43 56q0 19 -12.5 29.5t-31.5 10.5q-33 0 -46 -32l-61 24q17 37 47 57.5t68 20.5zM513 310q-5 54 -45.5 87.5t-98.5 33.5q-64 0 -116 -37.5t-69 -98.5h329q1 8 0 15zM606 283
q0 -33 -10 -73h-419q3 -61 48 -100t112 -39q51 0 94.5 24t70.5 67l77 -51q-44 -64 -108 -96.5t-139 -32.5q-109 0 -181 68.5t-72 174.5q0 121 85.5 208t206.5 87q100 0 167.5 -67t67.5 -170z" />
    <glyph glyph-name="uni1EBC" unicode="&#x1ebc;" horiz-adv-x="566" 
d="M370 925q-86 0 -130 -125l68 -18q25 70 59 70q13 0 23 -6.5t25 -24.5q23 -25 42.5 -35t44.5 -10q43 0 76 33t54 92l-66 18q-26 -67 -66 -67q-13 0 -23.5 6.5t-24.5 23.5q-22 24 -39.5 33.5t-42.5 9.5zM221 410h357l-15 -93h-358l-39 -224h379l-16 -93h-476l124 700h474
l-16 -93h-378z" />
    <glyph glyph-name="uni1EBD" unicode="&#x1ebd;" horiz-adv-x="595" 
d="M339 716q-86 0 -130 -125l68 -18q25 70 59 70q13 0 23 -6.5t25 -24.5q23 -25 42.5 -35t44.5 -10q43 0 76 33t54 92l-66 18q-26 -67 -66 -67q-13 0 -23.5 6.5t-24.5 23.5q-22 24 -39.5 33.5t-42.5 9.5zM513 310q-5 54 -45.5 87.5t-98.5 33.5q-64 0 -116 -37.5t-69 -98.5
h329q1 8 0 15zM606 283q0 -33 -10 -73h-419q3 -61 48 -100t112 -39q51 0 94.5 24t70.5 67l77 -51q-44 -64 -108 -96.5t-139 -32.5q-109 0 -181 68.5t-72 174.5q0 121 85.5 208t206.5 87q100 0 167.5 -67t67.5 -170z" />
    <glyph glyph-name="uni1EBE" unicode="&#x1ebe;" horiz-adv-x="566" 
d="M807 1069l-44 66l-189 -139l40 -61zM444 979l-195 -146l38 -62l160 123l115 -131l55 52l-146 162zM221 410h357l-15 -93h-358l-39 -224h379l-16 -93h-476l124 700h474l-16 -93h-378z" />
    <glyph glyph-name="uni1EBF" unicode="&#x1ebf;" horiz-adv-x="595" 
d="M784 866l-44 66l-189 -139l40 -61zM413 770l-195 -146l38 -62l160 123l115 -131l55 52l-146 162zM513 310q-5 54 -45.5 87.5t-98.5 33.5q-64 0 -116 -37.5t-69 -98.5h329q1 8 0 15zM606 283q0 -33 -10 -73h-419q3 -61 48 -100t112 -39q51 0 94.5 24t70.5 67l77 -51
q-44 -64 -108 -96.5t-139 -32.5q-109 0 -181 68.5t-72 174.5q0 121 85.5 208t206.5 87q100 0 167.5 -67t67.5 -170z" />
    <glyph glyph-name="uni1EC0" unicode="&#x1ec0;" horiz-adv-x="566" 
d="M524 1097l55 56l146 -168l-52 -50zM444 979l-195 -146l38 -62l160 123l115 -131l55 52l-146 162zM221 410h357l-15 -93h-358l-39 -224h379l-16 -93h-476l124 700h474l-16 -93h-378z" />
    <glyph glyph-name="uni1EC1" unicode="&#x1ec1;" horiz-adv-x="595" 
d="M501 894l55 56l146 -168l-52 -50zM413 770l-195 -146l38 -62l160 123l115 -131l55 52l-146 162zM513 310q-5 54 -45.5 87.5t-98.5 33.5q-64 0 -116 -37.5t-69 -98.5h329q1 8 0 15zM606 283q0 -33 -10 -73h-419q3 -61 48 -100t112 -39q51 0 94.5 24t70.5 67l77 -51
q-44 -64 -108 -96.5t-139 -32.5q-109 0 -181 68.5t-72 174.5q0 121 85.5 208t206.5 87q100 0 167.5 -67t67.5 -170z" />
    <glyph glyph-name="uni1EC2" unicode="&#x1ec2;" horiz-adv-x="566" 
d="M665 1176q47 0 77 -28t30 -74q0 -45 -24 -74t-73 -57l-34 -18l-31 60l48 25q43 20 43 56q0 19 -12.5 29.5t-31.5 10.5q-33 0 -46 -32l-61 24q17 37 47 57.5t68 20.5zM444 979l-195 -146l38 -62l160 123l115 -131l55 52l-146 162zM221 410h357l-15 -93h-358l-39 -224h379
l-16 -93h-476l124 700h474l-16 -93h-378z" />
    <glyph glyph-name="uni1EC3" unicode="&#x1ec3;" horiz-adv-x="595" 
d="M642 973q47 0 77 -28t30 -74q0 -45 -24 -74t-73 -57l-34 -18l-31 60l48 25q43 20 43 56q0 19 -12.5 29.5t-31.5 10.5q-33 0 -46 -32l-61 24q17 37 47 57.5t68 20.5zM413 770l-195 -146l38 -62l160 123l115 -131l55 52l-146 162zM513 310q-5 54 -45.5 87.5t-98.5 33.5
q-64 0 -116 -37.5t-69 -98.5h329q1 8 0 15zM606 283q0 -33 -10 -73h-419q3 -61 48 -100t112 -39q51 0 94.5 24t70.5 67l77 -51q-44 -64 -108 -96.5t-139 -32.5q-109 0 -181 68.5t-72 174.5q0 121 85.5 208t206.5 87q100 0 167.5 -67t67.5 -170z" />
    <glyph glyph-name="uni1EC4" unicode="&#x1ec4;" horiz-adv-x="566" 
d="M410 1159q-86 0 -130 -125l68 -18q25 70 59 70q13 0 23 -6.5t25 -24.5q23 -25 42.5 -35t44.5 -10q43 0 76 33t54 92l-66 18q-26 -67 -66 -67q-13 0 -23.5 6.5t-24.5 23.5q-22 24 -39.5 33.5t-42.5 9.5zM444 979l-195 -146l38 -62l160 123l115 -131l55 52l-146 162z
M221 410h357l-15 -93h-358l-39 -224h379l-16 -93h-476l124 700h474l-16 -93h-378z" />
    <glyph glyph-name="uni1EC5" unicode="&#x1ec5;" horiz-adv-x="595" 
d="M389 952q-86 0 -130 -125l68 -18q25 70 59 70q13 0 23 -6.5t25 -24.5q23 -25 42.5 -35t44.5 -10q43 0 76 33t54 92l-66 18q-26 -67 -66 -67q-13 0 -23.5 6.5t-24.5 23.5q-22 24 -39.5 33.5t-42.5 9.5zM413 770l-195 -146l38 -62l160 123l115 -131l55 52l-146 162z
M513 310q-5 54 -45.5 87.5t-98.5 33.5q-64 0 -116 -37.5t-69 -98.5h329q1 8 0 15zM606 283q0 -33 -10 -73h-419q3 -61 48 -100t112 -39q51 0 94.5 24t70.5 67l77 -51q-44 -64 -108 -96.5t-139 -32.5q-109 0 -181 68.5t-72 174.5q0 121 85.5 208t206.5 87q100 0 167.5 -67
t67.5 -170z" />
    <glyph glyph-name="uni1EC6" unicode="&#x1ec6;" horiz-adv-x="566" 
d="M450 989l-195 -146l38 -62l160 123l115 -131l55 52l-146 162zM214 -140q0 26 18 43.5t44 17.5t43.5 -17.5t17.5 -43.5t-17.5 -44t-43.5 -18t-44 18t-18 44zM221 410h357l-15 -93h-358l-39 -224h379l-16 -93h-476l124 700h474l-16 -93h-378z" />
    <glyph glyph-name="uni1EC7" unicode="&#x1ec7;" horiz-adv-x="595" 
d="M415 786l-195 -146l38 -62l160 123l115 -131l55 52l-146 162zM234 -140q0 26 18 43.5t44 17.5t43.5 -17.5t17.5 -43.5t-17.5 -44t-43.5 -18t-44 18t-18 44zM513 310q-5 54 -45.5 87.5t-98.5 33.5q-64 0 -116 -37.5t-69 -98.5h329q1 8 0 15zM606 283q0 -33 -10 -73h-419
q3 -61 48 -100t112 -39q51 0 94.5 24t70.5 67l77 -51q-44 -64 -108 -96.5t-139 -32.5q-109 0 -181 68.5t-72 174.5q0 121 85.5 208t206.5 87q100 0 167.5 -67t67.5 -170z" />
    <glyph glyph-name="uni1EC8" unicode="&#x1ec8;" horiz-adv-x="207" 
d="M258 1016q47 0 77 -28t30 -74q0 -45 -24 -74t-73 -57l-34 -18l-31 60l48 25q43 20 43 56q0 19 -12.5 29.5t-31.5 10.5q-33 0 -46 -32l-61 24q17 37 47 57.5t68 20.5zM149 0h-96l123 700h95z" />
    <glyph glyph-name="uni1EC9" unicode="&#x1ec9;" horiz-adv-x="204" 
d="M221 809q47 0 77 -28t30 -74q0 -45 -24 -74t-73 -57l-34 -18l-31 60l48 25q43 20 43 56q0 19 -12.5 29.5t-31.5 10.5q-33 0 -46 -32l-61 24q17 37 47 57.5t68 20.5zM55 0l88 500h96l-88 -500h-96z" />
    <glyph glyph-name="uni1ECA" unicode="&#x1eca;" horiz-adv-x="207" 
d="M17 -141q0 26 18 43.5t44 17.5t43.5 -17.5t17.5 -43.5t-17.5 -44t-43.5 -18t-44 18t-18 44zM149 0h-96l123 700h95z" />
    <glyph glyph-name="uni1ECB" unicode="&#x1ecb;" horiz-adv-x="204" 
d="M18 -141q0 26 18 43.5t44 17.5t43.5 -17.5t17.5 -43.5t-17.5 -44t-43.5 -18t-44 18t-18 44zM157 638.5q0 26.5 18 44t44 17.5t43.5 -17.5t17.5 -44t-17.5 -44t-43.5 -17.5t-44 17.5t-18 44zM55 0l88 500h96l-88 -500h-96z" />
    <glyph glyph-name="uni1ECC" unicode="&#x1ecc;" 
d="M329 -140q0 26 18 43.5t44 17.5t43.5 -17.5t17.5 -43.5t-17.5 -44t-43.5 -18t-44 18t-18 44zM481 625q-120 0 -204 -89t-84 -215q0 -108 68.5 -176t172.5 -68q79 0 146 42t105 112.5t38 151.5q0 107 -69 174.5t-173 67.5zM98 317q0 109 51 201.5t140.5 147t194.5 54.5
q143 0 238.5 -94t95.5 -238q0 -108 -51 -201.5t-140.5 -149t-195.5 -55.5q-142 0 -237.5 95t-95.5 240z" />
    <glyph glyph-name="uni1ECD" unicode="&#x1ecd;" horiz-adv-x="618" 
d="M237 -140q0 26 18 43.5t44 17.5t43.5 -17.5t17.5 -43.5t-17.5 -44t-43.5 -18t-44 18t-18 44zM368 429q-81 0 -137 -58t-56 -139q0 -70 47.5 -114.5t117.5 -44.5q81 0 137 58t56 139q0 70 -47.5 114.5t-117.5 44.5zM80 224q0 122 85.5 209t209.5 87q108 0 180.5 -68
t72.5 -174q0 -122 -85.5 -209t-209.5 -87q-108 0 -180.5 68t-72.5 174z" />
    <glyph glyph-name="uni1ECE" unicode="&#x1ece;" 
d="M540 1017q47 0 77 -28t30 -74q0 -45 -24 -74t-73 -57l-34 -18l-31 60l48 25q43 20 43 56q0 19 -12.5 29.5t-31.5 10.5q-33 0 -46 -32l-61 24q17 37 47 57.5t68 20.5zM481 625q-120 0 -204 -89t-84 -215q0 -108 68.5 -176t172.5 -68q79 0 146 42t105 112.5t38 151.5
q0 107 -69 174.5t-173 67.5zM98 317q0 109 51 201.5t140.5 147t194.5 54.5q143 0 238.5 -94t95.5 -238q0 -108 -51 -201.5t-140.5 -149t-195.5 -55.5q-142 0 -237.5 95t-95.5 240z" />
    <glyph glyph-name="uni1ECF" unicode="&#x1ecf;" horiz-adv-x="618" 
d="M429 808q47 0 77 -28t30 -74q0 -45 -24 -74t-73 -57l-34 -18l-31 60l48 25q43 20 43 56q0 19 -12.5 29.5t-31.5 10.5q-33 0 -46 -32l-61 24q17 37 47 57.5t68 20.5zM368 429q-81 0 -137 -58t-56 -139q0 -70 47.5 -114.5t117.5 -44.5q81 0 137 58t56 139q0 70 -47.5 114.5
t-117.5 44.5zM80 224q0 122 85.5 209t209.5 87q108 0 180.5 -68t72.5 -174q0 -122 -85.5 -209t-209.5 -87q-108 0 -180.5 68t-72.5 174z" />
    <glyph glyph-name="uni1ED0" unicode="&#x1ed0;" 
d="M928 1066l-44 66l-189 -139l40 -61zM538 979l-195 -146l38 -62l160 123l115 -131l55 52l-146 162zM481 625q-120 0 -204 -89t-84 -215q0 -108 68.5 -176t172.5 -68q79 0 146 42t105 112.5t38 151.5q0 107 -69 174.5t-173 67.5zM98 317q0 109 51 201.5t140.5 147
t194.5 54.5q143 0 238.5 -94t95.5 -238q0 -108 -51 -201.5t-140.5 -149t-195.5 -55.5q-142 0 -237.5 95t-95.5 240z" />
    <glyph glyph-name="uni1ED1" unicode="&#x1ed1;" horiz-adv-x="618" 
d="M800 862l-44 66l-189 -139l40 -61zM427 770l-195 -146l38 -62l160 123l115 -131l55 52l-146 162zM368 429q-81 0 -137 -58t-56 -139q0 -70 47.5 -114.5t117.5 -44.5q81 0 137 58t56 139q0 70 -47.5 114.5t-117.5 44.5zM80 224q0 122 85.5 209t209.5 87q108 0 180.5 -68
t72.5 -174q0 -122 -85.5 -209t-209.5 -87q-108 0 -180.5 68t-72.5 174z" />
    <glyph glyph-name="uni1ED2" unicode="&#x1ed2;" 
d="M645 1094l55 56l146 -168l-52 -50zM538 979l-195 -146l38 -62l160 123l115 -131l55 52l-146 162zM481 625q-120 0 -204 -89t-84 -215q0 -108 68.5 -176t172.5 -68q79 0 146 42t105 112.5t38 151.5q0 107 -69 174.5t-173 67.5zM98 317q0 109 51 201.5t140.5 147
t194.5 54.5q143 0 238.5 -94t95.5 -238q0 -108 -51 -201.5t-140.5 -149t-195.5 -55.5q-142 0 -237.5 95t-95.5 240z" />
    <glyph glyph-name="uni1ED3" unicode="&#x1ed3;" horiz-adv-x="618" 
d="M517 890l55 56l146 -168l-52 -50zM427 770l-195 -146l38 -62l160 123l115 -131l55 52l-146 162zM368 429q-81 0 -137 -58t-56 -139q0 -70 47.5 -114.5t117.5 -44.5q81 0 137 58t56 139q0 70 -47.5 114.5t-117.5 44.5zM80 224q0 122 85.5 209t209.5 87q108 0 180.5 -68
t72.5 -174q0 -122 -85.5 -209t-209.5 -87q-108 0 -180.5 68t-72.5 174z" />
    <glyph glyph-name="uni1ED4" unicode="&#x1ed4;" 
d="M786 1173q47 0 77 -28t30 -74q0 -45 -24 -74t-73 -57l-34 -18l-31 60l48 25q43 20 43 56q0 19 -12.5 29.5t-31.5 10.5q-33 0 -46 -32l-61 24q17 37 47 57.5t68 20.5zM538 979l-195 -146l38 -62l160 123l115 -131l55 52l-146 162zM481 625q-120 0 -204 -89t-84 -215
q0 -108 68.5 -176t172.5 -68q79 0 146 42t105 112.5t38 151.5q0 107 -69 174.5t-173 67.5zM98 317q0 109 51 201.5t140.5 147t194.5 54.5q143 0 238.5 -94t95.5 -238q0 -108 -51 -201.5t-140.5 -149t-195.5 -55.5q-142 0 -237.5 95t-95.5 240z" />
    <glyph glyph-name="uni1ED5" unicode="&#x1ed5;" horiz-adv-x="618" 
d="M658 969q47 0 77 -28t30 -74q0 -45 -24 -74t-73 -57l-34 -18l-31 60l48 25q43 20 43 56q0 19 -12.5 29.5t-31.5 10.5q-33 0 -46 -32l-61 24q17 37 47 57.5t68 20.5zM427 770l-195 -146l38 -62l160 123l115 -131l55 52l-146 162zM368 429q-81 0 -137 -58t-56 -139
q0 -70 47.5 -114.5t117.5 -44.5q81 0 137 58t56 139q0 70 -47.5 114.5t-117.5 44.5zM80 224q0 122 85.5 209t209.5 87q108 0 180.5 -68t72.5 -174q0 -122 -85.5 -209t-209.5 -87q-108 0 -180.5 68t-72.5 174z" />
    <glyph glyph-name="uni1ED6" unicode="&#x1ed6;" 
d="M497 1166q-86 0 -130 -125l68 -18q25 70 59 70q13 0 23 -6.5t25 -24.5q23 -25 42.5 -35t44.5 -10q43 0 76 33t54 92l-66 18q-26 -67 -66 -67q-13 0 -23.5 6.5t-24.5 23.5q-22 24 -39.5 33.5t-42.5 9.5zM538 979l-195 -146l38 -62l160 123l115 -131l55 52l-146 162z
M481 625q-120 0 -204 -89t-84 -215q0 -108 68.5 -176t172.5 -68q79 0 146 42t105 112.5t38 151.5q0 107 -69 174.5t-173 67.5zM98 317q0 109 51 201.5t140.5 147t194.5 54.5q143 0 238.5 -94t95.5 -238q0 -108 -51 -201.5t-140.5 -149t-195.5 -55.5q-142 0 -237.5 95
t-95.5 240z" />
    <glyph glyph-name="uni1ED7" unicode="&#x1ed7;" horiz-adv-x="618" 
d="M404 955q-86 0 -130 -125l68 -18q25 70 59 70q13 0 23 -6.5t25 -24.5q23 -25 42.5 -35t44.5 -10q43 0 76 33t54 92l-66 18q-26 -67 -66 -67q-13 0 -23.5 6.5t-24.5 23.5q-22 24 -39.5 33.5t-42.5 9.5zM427 770l-195 -146l38 -62l160 123l115 -131l55 52l-146 162z
M368 429q-81 0 -137 -58t-56 -139q0 -70 47.5 -114.5t117.5 -44.5q81 0 137 58t56 139q0 70 -47.5 114.5t-117.5 44.5zM80 224q0 122 85.5 209t209.5 87q108 0 180.5 -68t72.5 -174q0 -122 -85.5 -209t-209.5 -87q-108 0 -180.5 68t-72.5 174z" />
    <glyph glyph-name="uni1ED8" unicode="&#x1ed8;" 
d="M530 989l-195 -146l38 -62l160 123l115 -131l55 52l-146 162zM329 -140q0 26 18 43.5t44 17.5t43.5 -17.5t17.5 -43.5t-17.5 -44t-43.5 -18t-44 18t-18 44zM481 625q-120 0 -204 -89t-84 -215q0 -108 68.5 -176t172.5 -68q79 0 146 42t105 112.5t38 151.5
q0 107 -69 174.5t-173 67.5zM98 317q0 109 51 201.5t140.5 147t194.5 54.5q143 0 238.5 -94t95.5 -238q0 -108 -51 -201.5t-140.5 -149t-195.5 -55.5q-142 0 -237.5 95t-95.5 240z" />
    <glyph glyph-name="uni1ED9" unicode="&#x1ed9;" horiz-adv-x="618" 
d="M414 786l-195 -146l38 -62l160 123l115 -131l55 52l-146 162zM237 -140q0 26 18 43.5t44 17.5t43.5 -17.5t17.5 -43.5t-17.5 -44t-43.5 -18t-44 18t-18 44zM368 429q-81 0 -137 -58t-56 -139q0 -70 47.5 -114.5t117.5 -44.5q81 0 137 58t56 139q0 70 -47.5 114.5
t-117.5 44.5zM80 224q0 122 85.5 209t209.5 87q108 0 180.5 -68t72.5 -174q0 -122 -85.5 -209t-209.5 -87q-108 0 -180.5 68t-72.5 174z" />
    <glyph glyph-name="uni1EDA" unicode="&#x1eda;" 
d="M656 911l-44 66l-189 -139l40 -61zM863 712q0 -57 -36 -92t-95 -35h-77l12 65h60q27 0 44.5 16t17.5 41q0 21 -17 36l56 46q15 -10 25 -32.5t10 -44.5zM481 625q-120 0 -204 -89t-84 -215q0 -108 68.5 -176t172.5 -68q79 0 146 42t105 112.5t38 151.5q0 107 -69 174.5
t-173 67.5zM98 317q0 109 51 201.5t140.5 147t194.5 54.5q143 0 238.5 -94t95.5 -238q0 -108 -51 -201.5t-140.5 -149t-195.5 -55.5q-142 0 -237.5 95t-95.5 240z" />
    <glyph glyph-name="uni1EDB" unicode="&#x1edb;" horiz-adv-x="657" 
d="M565 702l-44 66l-189 -139l40 -61zM743 499q0 -57 -36 -92t-95 -35h-77l12 65h60q27 0 44.5 16t17.5 41q0 21 -17 36l56 46q15 -10 25 -32.5t10 -44.5zM368 429q-81 0 -137 -58t-56 -139q0 -70 47.5 -114.5t117.5 -44.5q81 0 137 58t56 139q0 70 -47.5 114.5t-117.5 44.5
zM80 224q0 122 85.5 209t209.5 87q108 0 180.5 -68t72.5 -174q0 -122 -85.5 -209t-209.5 -87q-108 0 -180.5 68t-72.5 174z" />
    <glyph glyph-name="uni1EDC" unicode="&#x1edc;" 
d="M373 939l55 56l146 -168l-52 -50zM863 712q0 -57 -36 -92t-95 -35h-77l12 65h60q27 0 44.5 16t17.5 41q0 21 -17 36l56 46q15 -10 25 -32.5t10 -44.5zM481 625q-120 0 -204 -89t-84 -215q0 -108 68.5 -176t172.5 -68q79 0 146 42t105 112.5t38 151.5q0 107 -69 174.5
t-173 67.5zM98 317q0 109 51 201.5t140.5 147t194.5 54.5q143 0 238.5 -94t95.5 -238q0 -108 -51 -201.5t-140.5 -149t-195.5 -55.5q-142 0 -237.5 95t-95.5 240z" />
    <glyph glyph-name="uni1EDD" unicode="&#x1edd;" horiz-adv-x="657" 
d="M282 730l55 56l146 -168l-52 -50zM743 499q0 -57 -36 -92t-95 -35h-77l12 65h60q27 0 44.5 16t17.5 41q0 21 -17 36l56 46q15 -10 25 -32.5t10 -44.5zM368 429q-81 0 -137 -58t-56 -139q0 -70 47.5 -114.5t117.5 -44.5q81 0 137 58t56 139q0 70 -47.5 114.5t-117.5 44.5z
M80 224q0 122 85.5 209t209.5 87q108 0 180.5 -68t72.5 -174q0 -122 -85.5 -209t-209.5 -87q-108 0 -180.5 68t-72.5 174z" />
    <glyph glyph-name="uni1EDE" unicode="&#x1ede;" 
d="M514 1018q47 0 77 -28t30 -74q0 -45 -24 -74t-73 -57l-34 -18l-31 60l48 25q43 20 43 56q0 19 -12.5 29.5t-31.5 10.5q-33 0 -46 -32l-61 24q17 37 47 57.5t68 20.5zM863 712q0 -57 -36 -92t-95 -35h-77l12 65h60q27 0 44.5 16t17.5 41q0 21 -17 36l56 46
q15 -10 25 -32.5t10 -44.5zM481 625q-120 0 -204 -89t-84 -215q0 -108 68.5 -176t172.5 -68q79 0 146 42t105 112.5t38 151.5q0 107 -69 174.5t-173 67.5zM98 317q0 109 51 201.5t140.5 147t194.5 54.5q143 0 238.5 -94t95.5 -238q0 -108 -51 -201.5t-140.5 -149
t-195.5 -55.5q-142 0 -237.5 95t-95.5 240z" />
    <glyph glyph-name="uni1EDF" unicode="&#x1edf;" horiz-adv-x="657" 
d="M423 809q47 0 77 -28t30 -74q0 -45 -24 -74t-73 -57l-34 -18l-31 60l48 25q43 20 43 56q0 19 -12.5 29.5t-31.5 10.5q-33 0 -46 -32l-61 24q17 37 47 57.5t68 20.5zM743 499q0 -57 -36 -92t-95 -35h-77l12 65h60q27 0 44.5 16t17.5 41q0 21 -17 36l56 46q15 -10 25 -32.5
t10 -44.5zM368 429q-81 0 -137 -58t-56 -139q0 -70 47.5 -114.5t117.5 -44.5q81 0 137 58t56 139q0 70 -47.5 114.5t-117.5 44.5zM80 224q0 122 85.5 209t209.5 87q108 0 180.5 -68t72.5 -174q0 -122 -85.5 -209t-209.5 -87q-108 0 -180.5 68t-72.5 174z" />
    <glyph glyph-name="uni1EE0" unicode="&#x1ee0;" 
d="M438 926q-86 0 -130 -125l68 -18q25 70 59 70q13 0 23 -6.5t25 -24.5q23 -25 42.5 -35t44.5 -10q43 0 76 33t54 92l-66 18q-26 -67 -66 -67q-13 0 -23.5 6.5t-24.5 23.5q-22 24 -39.5 33.5t-42.5 9.5zM863 712q0 -57 -36 -92t-95 -35h-77l12 65h60q27 0 44.5 16t17.5 41
q0 21 -17 36l56 46q15 -10 25 -32.5t10 -44.5zM481 625q-120 0 -204 -89t-84 -215q0 -108 68.5 -176t172.5 -68q79 0 146 42t105 112.5t38 151.5q0 107 -69 174.5t-173 67.5zM98 317q0 109 51 201.5t140.5 147t194.5 54.5q143 0 238.5 -94t95.5 -238q0 -108 -51 -201.5
t-140.5 -149t-195.5 -55.5q-142 0 -237.5 95t-95.5 240z" />
    <glyph glyph-name="uni1EE1" unicode="&#x1ee1;" horiz-adv-x="657" 
d="M347 717q-86 0 -130 -125l68 -18q25 70 59 70q13 0 23 -6.5t25 -24.5q23 -25 42.5 -35t44.5 -10q43 0 76 33t54 92l-66 18q-26 -67 -66 -67q-13 0 -23.5 6.5t-24.5 23.5q-22 24 -39.5 33.5t-42.5 9.5zM743 499q0 -57 -36 -92t-95 -35h-77l12 65h60q27 0 44.5 16t17.5 41
q0 21 -17 36l56 46q15 -10 25 -32.5t10 -44.5zM368 429q-81 0 -137 -58t-56 -139q0 -70 47.5 -114.5t117.5 -44.5q81 0 137 58t56 139q0 70 -47.5 114.5t-117.5 44.5zM80 224q0 122 85.5 209t209.5 87q108 0 180.5 -68t72.5 -174q0 -122 -85.5 -209t-209.5 -87
q-108 0 -180.5 68t-72.5 174z" />
    <glyph glyph-name="uni1EE2" unicode="&#x1ee2;" 
d="M326 -141q0 26 18 43.5t44 17.5t43.5 -17.5t17.5 -43.5t-17.5 -44t-43.5 -18t-44 18t-18 44zM863 712q0 -57 -36 -92t-95 -35h-77l12 65h60q27 0 44.5 16t17.5 41q0 21 -17 36l56 46q15 -10 25 -32.5t10 -44.5zM481 625q-120 0 -204 -89t-84 -215q0 -108 68.5 -176
t172.5 -68q79 0 146 42t105 112.5t38 151.5q0 107 -69 174.5t-173 67.5zM98 317q0 109 51 201.5t140.5 147t194.5 54.5q143 0 238.5 -94t95.5 -238q0 -108 -51 -201.5t-140.5 -149t-195.5 -55.5q-142 0 -237.5 95t-95.5 240z" />
    <glyph glyph-name="uni1EE3" unicode="&#x1ee3;" horiz-adv-x="657" 
d="M239 -141q0 26 18 43.5t44 17.5t43.5 -17.5t17.5 -43.5t-17.5 -44t-43.5 -18t-44 18t-18 44zM743 499q0 -57 -36 -92t-95 -35h-77l12 65h60q27 0 44.5 16t17.5 41q0 21 -17 36l56 46q15 -10 25 -32.5t10 -44.5zM368 429q-81 0 -137 -58t-56 -139q0 -70 47.5 -114.5
t117.5 -44.5q81 0 137 58t56 139q0 70 -47.5 114.5t-117.5 44.5zM80 224q0 122 85.5 209t209.5 87q108 0 180.5 -68t72.5 -174q0 -122 -85.5 -209t-209.5 -87q-108 0 -180.5 68t-72.5 174z" />
    <glyph glyph-name="uni1EE4" unicode="&#x1ee4;" horiz-adv-x="690" 
d="M287 -140q0 26 18 43.5t44 17.5t43.5 -17.5t17.5 -43.5t-17.5 -44t-43.5 -18t-44 18t-18 44zM370 -11q-116 0 -192.5 72.5t-76.5 184.5q0 26 5 54l70 400h96l-70 -398q-4 -24 -4 -47q0 -69 47 -120t135 -51q79 0 134.5 49t70.5 135l75 432h96l-79 -450
q-20 -115 -106.5 -188t-200.5 -73z" />
    <glyph glyph-name="uni1EE5" unicode="&#x1ee5;" horiz-adv-x="543" 
d="M187 -139q0 26 18 43.5t44 17.5t43.5 -17.5t17.5 -43.5t-17.5 -44t-43.5 -18t-44 18t-18 44zM573 500l-88 -500h-97l88 500h97zM245 500l-55 -306q-10 -57 17 -88t82 -31q50 0 86.5 28t44.5 76h45q-17 -82 -77 -136t-136 -54q-84 0 -130 54t-29 147l55 310h97z" />
    <glyph glyph-name="uni1EE6" unicode="&#x1ee6;" horiz-adv-x="690" 
d="M500 1016q47 0 77 -28t30 -74q0 -45 -24 -74t-73 -57l-34 -18l-31 60l48 25q43 20 43 56q0 19 -12.5 29.5t-31.5 10.5q-33 0 -46 -32l-61 24q17 37 47 57.5t68 20.5zM370 -11q-116 0 -192.5 72.5t-76.5 184.5q0 26 5 54l70 400h96l-70 -398q-4 -24 -4 -47q0 -69 47 -120
t135 -51q79 0 134.5 49t70.5 135l75 432h96l-79 -450q-20 -115 -106.5 -188t-200.5 -73z" />
    <glyph glyph-name="uni1EE7" unicode="&#x1ee7;" horiz-adv-x="543" 
d="M390 808q47 0 77 -28t30 -74q0 -45 -24 -74t-73 -57l-34 -18l-31 60l48 25q43 20 43 56q0 19 -12.5 29.5t-31.5 10.5q-33 0 -46 -32l-61 24q17 37 47 57.5t68 20.5zM573 500l-88 -500h-97l88 500h97zM245 500l-55 -306q-10 -57 17 -88t82 -31q50 0 86.5 28t44.5 76h45
q-17 -82 -77 -136t-136 -54q-84 0 -130 54t-29 147l55 310h97z" />
    <glyph glyph-name="uni1EE8" unicode="&#x1ee8;" horiz-adv-x="801" 
d="M638 911l-44 66l-189 -139l40 -61zM900 699q0 -57 -36 -92t-95 -35h-77l12 65h60q27 0 44.5 16t17.5 41q0 21 -17 36l56 46q15 -10 25 -32.5t10 -44.5zM370 -11q-116 0 -192.5 72.5t-76.5 184.5q0 26 5 54l70 400h96l-70 -398q-4 -24 -4 -47q0 -69 47 -120t135 -51
q79 0 134.5 49t70.5 135l75 432h96l-79 -450q-20 -115 -106.5 -188t-200.5 -73z" />
    <glyph glyph-name="uni1EE9" unicode="&#x1ee9;" horiz-adv-x="652" 
d="M533 702l-44 66l-189 -139l40 -61zM717 500q0 -57 -36 -92t-95 -35h-77l12 65h60q27 0 44.5 16t17.5 41q0 21 -17 36l56 46q15 -10 25 -32.5t10 -44.5zM573 500l-88 -500h-97l88 500h97zM245 500l-55 -306q-10 -57 17 -88t82 -31q50 0 86.5 28t44.5 76h45
q-17 -82 -77 -136t-136 -54q-84 0 -130 54t-29 147l55 310h97z" />
    <glyph glyph-name="uni1EEA" unicode="&#x1eea;" horiz-adv-x="801" 
d="M355 939l55 56l146 -168l-52 -50zM900 699q0 -57 -36 -92t-95 -35h-77l12 65h60q27 0 44.5 16t17.5 41q0 21 -17 36l56 46q15 -10 25 -32.5t10 -44.5zM370 -11q-116 0 -192.5 72.5t-76.5 184.5q0 26 5 54l70 400h96l-70 -398q-4 -24 -4 -47q0 -69 47 -120t135 -51
q79 0 134.5 49t70.5 135l75 432h96l-79 -450q-20 -115 -106.5 -188t-200.5 -73z" />
    <glyph glyph-name="uni1EEB" unicode="&#x1eeb;" horiz-adv-x="652" 
d="M250 730l55 56l146 -168l-52 -50zM717 500q0 -57 -36 -92t-95 -35h-77l12 65h60q27 0 44.5 16t17.5 41q0 21 -17 36l56 46q15 -10 25 -32.5t10 -44.5zM573 500l-88 -500h-97l88 500h97zM245 500l-55 -306q-10 -57 17 -88t82 -31q50 0 86.5 28t44.5 76h45
q-17 -82 -77 -136t-136 -54q-84 0 -130 54t-29 147l55 310h97z" />
    <glyph glyph-name="uni1EEC" unicode="&#x1eec;" horiz-adv-x="801" 
d="M496 1018q47 0 77 -28t30 -74q0 -45 -24 -74t-73 -57l-34 -18l-31 60l48 25q43 20 43 56q0 19 -12.5 29.5t-31.5 10.5q-33 0 -46 -32l-61 24q17 37 47 57.5t68 20.5zM900 699q0 -57 -36 -92t-95 -35h-77l12 65h60q27 0 44.5 16t17.5 41q0 21 -17 36l56 46
q15 -10 25 -32.5t10 -44.5zM370 -11q-116 0 -192.5 72.5t-76.5 184.5q0 26 5 54l70 400h96l-70 -398q-4 -24 -4 -47q0 -69 47 -120t135 -51q79 0 134.5 49t70.5 135l75 432h96l-79 -450q-20 -115 -106.5 -188t-200.5 -73z" />
    <glyph glyph-name="uni1EED" unicode="&#x1eed;" horiz-adv-x="652" 
d="M391 809q47 0 77 -28t30 -74q0 -45 -24 -74t-73 -57l-34 -18l-31 60l48 25q43 20 43 56q0 19 -12.5 29.5t-31.5 10.5q-33 0 -46 -32l-61 24q17 37 47 57.5t68 20.5zM717 500q0 -57 -36 -92t-95 -35h-77l12 65h60q27 0 44.5 16t17.5 41q0 21 -17 36l56 46q15 -10 25 -32.5
t10 -44.5zM573 500l-88 -500h-97l88 500h97zM245 500l-55 -306q-10 -57 17 -88t82 -31q50 0 86.5 28t44.5 76h45q-17 -82 -77 -136t-136 -54q-84 0 -130 54t-29 147l55 310h97z" />
    <glyph glyph-name="uni1EEE" unicode="&#x1eee;" horiz-adv-x="801" 
d="M420 926q-86 0 -130 -125l68 -18q25 70 59 70q13 0 23 -6.5t25 -24.5q23 -25 42.5 -35t44.5 -10q43 0 76 33t54 92l-66 18q-26 -67 -66 -67q-13 0 -23.5 6.5t-24.5 23.5q-22 24 -39.5 33.5t-42.5 9.5zM900 699q0 -57 -36 -92t-95 -35h-77l12 65h60q27 0 44.5 16t17.5 41
q0 21 -17 36l56 46q15 -10 25 -32.5t10 -44.5zM370 -11q-116 0 -192.5 72.5t-76.5 184.5q0 26 5 54l70 400h96l-70 -398q-4 -24 -4 -47q0 -69 47 -120t135 -51q79 0 134.5 49t70.5 135l75 432h96l-79 -450q-20 -115 -106.5 -188t-200.5 -73z" />
    <glyph glyph-name="uni1EEF" unicode="&#x1eef;" horiz-adv-x="652" 
d="M315 717q-86 0 -130 -125l68 -18q25 70 59 70q13 0 23 -6.5t25 -24.5q23 -25 42.5 -35t44.5 -10q43 0 76 33t54 92l-66 18q-26 -67 -66 -67q-13 0 -23.5 6.5t-24.5 23.5q-22 24 -39.5 33.5t-42.5 9.5zM717 500q0 -57 -36 -92t-95 -35h-77l12 65h60q27 0 44.5 16t17.5 41
q0 21 -17 36l56 46q15 -10 25 -32.5t10 -44.5zM573 500l-88 -500h-97l88 500h97zM245 500l-55 -306q-10 -57 17 -88t82 -31q50 0 86.5 28t44.5 76h45q-17 -82 -77 -136t-136 -54q-84 0 -130 54t-29 147l55 310h97z" />
    <glyph glyph-name="uni1EF0" unicode="&#x1ef0;" horiz-adv-x="801" 
d="M271 -141q0 26 18 43.5t44 17.5t43.5 -17.5t17.5 -43.5t-17.5 -44t-43.5 -18t-44 18t-18 44zM900 699q0 -57 -36 -92t-95 -35h-77l12 65h60q27 0 44.5 16t17.5 41q0 21 -17 36l56 46q15 -10 25 -32.5t10 -44.5zM370 -11q-116 0 -192.5 72.5t-76.5 184.5q0 26 5 54l70 400
h96l-70 -398q-4 -24 -4 -47q0 -69 47 -120t135 -51q79 0 134.5 49t70.5 135l75 432h96l-79 -450q-20 -115 -106.5 -188t-200.5 -73z" />
    <glyph glyph-name="uni1EF1" unicode="&#x1ef1;" horiz-adv-x="652" 
d="M185 -141q0 26 18 43.5t44 17.5t43.5 -17.5t17.5 -43.5t-17.5 -44t-43.5 -18t-44 18t-18 44zM717 500q0 -57 -36 -92t-95 -35h-77l12 65h60q27 0 44.5 16t17.5 41q0 21 -17 36l56 46q15 -10 25 -32.5t10 -44.5zM573 500l-88 -500h-97l88 500h97zM245 500l-55 -306
q-10 -57 17 -88t82 -31q50 0 86.5 28t44.5 76h45q-17 -82 -77 -136t-136 -54q-84 0 -130 54t-29 147l55 310h97z" />
    <glyph glyph-name="Ygrave" unicode="&#x1ef2;" horiz-adv-x="671" 
d="M359 939l55 56l146 -168l-52 -50zM297 0h95l41 232l332 468h-116l-248 -353l-142 353h-108l187 -468z" />
    <glyph glyph-name="ygrave" unicode="&#x1ef3;" horiz-adv-x="567" 
d="M255 728l55 56l146 -168l-52 -50zM523 500l-225 -384l-82 384h-99l108 -487l-122 -213h108l417 700h-105z" />
    <glyph glyph-name="uni1EF4" unicode="&#x1ef4;" horiz-adv-x="671" 
d="M263 -141q0 26 18 43.5t44 17.5t43.5 -17.5t17.5 -43.5t-17.5 -44t-43.5 -18t-44 18t-18 44zM297 0h95l41 232l332 468h-116l-248 -353l-142 353h-108l187 -468z" />
    <glyph glyph-name="uni1EF5" unicode="&#x1ef5;" horiz-adv-x="567" 
d="M354 -141q0 26 18 43.5t44 17.5t43.5 -17.5t17.5 -43.5t-17.5 -44t-43.5 -18t-44 18t-18 44zM523 500l-225 -384l-82 384h-99l108 -487l-122 -213h108l417 700h-105z" />
    <glyph glyph-name="uni1EF6" unicode="&#x1ef6;" horiz-adv-x="671" 
d="M500 1018q47 0 77 -28t30 -74q0 -45 -24 -74t-73 -57l-34 -18l-31 60l48 25q43 20 43 56q0 19 -12.5 29.5t-31.5 10.5q-33 0 -46 -32l-61 24q17 37 47 57.5t68 20.5zM297 0h95l41 232l332 468h-116l-248 -353l-142 353h-108l187 -468z" />
    <glyph glyph-name="uni1EF7" unicode="&#x1ef7;" horiz-adv-x="567" 
d="M396 807q47 0 77 -28t30 -74q0 -45 -24 -74t-73 -57l-34 -18l-31 60l48 25q43 20 43 56q0 19 -12.5 29.5t-31.5 10.5q-33 0 -46 -32l-61 24q17 37 47 57.5t68 20.5zM523 500l-225 -384l-82 384h-99l108 -487l-122 -213h108l417 700h-105z" />
    <glyph glyph-name="uni1EF8" unicode="&#x1ef8;" horiz-adv-x="671" 
d="M424 926q-86 0 -130 -125l68 -18q25 70 59 70q13 0 23 -6.5t25 -24.5q23 -25 42.5 -35t44.5 -10q43 0 76 33t54 92l-66 18q-26 -67 -66 -67q-13 0 -23.5 6.5t-24.5 23.5q-22 24 -39.5 33.5t-42.5 9.5zM297 0h95l41 232l332 468h-116l-248 -353l-142 353h-108l187 -468z
" />
    <glyph glyph-name="uni1EF9" unicode="&#x1ef9;" horiz-adv-x="567" 
d="M320 715q-86 0 -130 -125l68 -18q25 70 59 70q13 0 23 -6.5t25 -24.5q23 -25 42.5 -35t44.5 -10q43 0 76 33t54 92l-66 18q-26 -67 -66 -67q-13 0 -23.5 6.5t-24.5 23.5q-22 24 -39.5 33.5t-42.5 9.5zM523 500l-225 -384l-82 384h-99l108 -487l-122 -213h108l417 700
h-105z" />
    <glyph glyph-name="uni2010" unicode="&#x2010;" horiz-adv-x="335" 
d="M362 309l-15 -85h-279l15 85h279z" />
    <glyph glyph-name="endash" unicode="&#x2013;" horiz-adv-x="528" 
d="M555 309l-15 -85h-472l15 85h472z" />
    <glyph glyph-name="emdash" unicode="&#x2014;" horiz-adv-x="842" 
d="M869 309l-15 -85h-786l15 85h786z" />
    <glyph glyph-name="quoteleft" unicode="&#x2018;" horiz-adv-x="231" 
d="M217 473q-38 0 -60.5 26.5t-22.5 70.5q0 67 50.5 128.5t116.5 75.5l18 -57q-46 -6 -80.5 -36.5t-41.5 -71.5q13 12 36 12q30 0 49 -19t19 -49q0 -34 -24.5 -57t-59.5 -23z" />
    <glyph glyph-name="quoteright" unicode="&#x2019;" horiz-adv-x="231" 
d="M238 779q38 0 60.5 -26.5t22.5 -70.5q0 -68 -50.5 -129.5t-116.5 -74.5l-18 57q46 6 80.5 36.5t41.5 71.5q-13 -12 -36 -12q-30 0 -49 19t-19 48q0 34 24 57.5t60 23.5z" />
    <glyph glyph-name="quotesinglbase" unicode="&#x201a;" horiz-adv-x="231" 
d="M126 145q38 0 60.5 -26.5t22.5 -70.5q0 -67 -50.5 -129t-116.5 -75l-18 58q46 5 80.5 35.5t41.5 72.5q-14 -13 -36 -13q-30 0 -49 19t-19 48q0 35 24 58t60 23z" />
    <glyph glyph-name="quotereversed" unicode="&#x201b;" horiz-adv-x="231" 
d="M246 628q-33 0 -44 20q-2 -10 -2 -19q0 -36 22.5 -65.5t59.5 -41.5l-36 -52q-44 18 -73.5 66t-29.5 101q0 58 31.5 99.5t75.5 41.5q33 0 54.5 -19t21.5 -48q0 -34 -24 -58.5t-56 -24.5z" />
    <glyph glyph-name="quotedblleft" unicode="&#x201c;" horiz-adv-x="436" 
d="M423 473q-40 0 -61.5 28.5t-21.5 68.5q0 70 52.5 130.5t114.5 73.5l18 -57q-46 -6 -80.5 -36.5t-41.5 -71.5q13 12 36 12q30 0 49 -19.5t19 -48.5q0 -34 -24.5 -57t-59.5 -23zM218 473q-38 0 -60.5 26.5t-22.5 70.5q0 67 50.5 128.5t116.5 75.5l18 -57
q-46 -6 -80.5 -36.5t-41.5 -71.5q13 12 36 12q30 0 49 -19t19 -49q0 -34 -24 -57t-60 -23z" />
    <glyph glyph-name="quotedblright" unicode="&#x201d;" horiz-adv-x="436" 
d="M237 777q37 0 60 -26.5t23 -70.5q0 -67 -51 -129t-117 -75l-17 57q46 6 80 36.5t41 71.5q-12 -12 -35 -12q-30 0 -49 19t-19 49q0 34 24 57t60 23zM442 777q37 0 59.5 -26.5t22.5 -70.5q0 -67 -50.5 -129t-116.5 -75l-17 57q46 6 80 36.5t42 71.5q-13 -12 -36 -12
q-30 0 -49 19t-19 49q0 34 24 57t60 23z" />
    <glyph glyph-name="quotedblbase" unicode="&#x201e;" horiz-adv-x="436" 
d="M127 145q37 0 60 -27t23 -70q0 -67 -51 -129t-117 -75l-17 58q46 5 80 35.5t42 72.5q-13 -14 -36 -14q-29 0 -48.5 20t-19.5 49q0 34 24.5 57t59.5 23zM332 145q37 0 60 -27t23 -70q0 -67 -51 -129t-117 -75l-17 58q46 5 80 35.5t42 72.5q-13 -14 -36 -14q-29 0 -48.5 20
t-19.5 49q0 34 24.5 57t59.5 23z" />
    <glyph glyph-name="uni201F" unicode="&#x201f;" horiz-adv-x="436" 
d="M451 628q-34 0 -45 20q-2 -10 -2 -19q0 -36 22.5 -65.5t59.5 -41.5l-36 -52q-44 18 -73.5 66t-29.5 101q0 58 32 99.5t76 41.5q33 0 54 -19t21 -48q0 -34 -23.5 -58.5t-55.5 -24.5zM246 628q-34 0 -45 20q-2 -10 -2 -19q0 -36 22.5 -65.5t59.5 -41.5l-36 -52
q-44 18 -73.5 66t-29.5 101q0 58 32 99.5t76 41.5q33 0 54.5 -19t21.5 -48q0 -34 -24 -58.5t-56 -24.5z" />
    <glyph glyph-name="dagger" unicode="&#x2020;" horiz-adv-x="374" 
d="M239 633h122l-37 -133h109l-16 -89h-109l-72 -411h-95l72 411h-110l15 89h111z" />
    <glyph glyph-name="daggerdbl" unicode="&#x2021;" horiz-adv-x="374" 
d="M237 633h123l-37 -133h108l-15 -89h-109l-33 -189h110l-16 -89h-110l-10 -133h-123l37 133h-109l16 89h109l33 189h-110l16 89h110z" />
    <glyph glyph-name="bullet" unicode="&#x2022;" horiz-adv-x="210" 
d="M84 285q0 31 20 52t50 21q32 0 53 -21t21 -52q0 -30 -20.5 -50.5t-51.5 -20.5t-51.5 20.5t-20.5 50.5z" />
    <glyph glyph-name="uni2023" unicode="&#x2023;" horiz-adv-x="210" 
d="M107 383l121 -93l-153 -90z" />
    <glyph glyph-name="ellipsis" unicode="&#x2026;" horiz-adv-x="631" 
d="M466 58q0 31 20 51.5t50 20.5q31 0 52 -20.5t21 -51.5t-20.5 -51.5t-51 -20.5t-51 20.5t-20.5 51.5zM255 58q0 31 20 51.5t50 20.5q31 0 52 -20.5t21 -51.5t-20.5 -51.5t-51 -20.5t-51 20.5t-20.5 51.5zM44 58q0 31 20 51.5t50 20.5q31 0 52 -20.5t21 -51.5t-20.5 -51.5
t-51 -20.5t-51 20.5t-20.5 51.5z" />
    <glyph glyph-name="perthousand" unicode="&#x2030;" horiz-adv-x="1330" 
d="M1156 267q-45 0 -76.5 -32.5t-31.5 -78.5q0 -40 26.5 -65t66.5 -25q45 0 76.5 32.5t31.5 78.5q0 40 -26.5 65t-66.5 25zM960 147q0 85 59.5 146t144.5 61q74 0 123.5 -47.5t49.5 -120.5q0 -85 -59.5 -146t-144.5 -61q-75 0 -124 47.5t-49 120.5zM740 267
q-46 0 -77.5 -32.5t-31.5 -78.5q0 -40 27 -65t66 -25q46 0 77.5 32.5t31.5 78.5q0 40 -26.5 65t-66.5 25zM543 147q0 85 60 146t144 61q75 0 124.5 -47.5t49.5 -120.5q0 -85 -59.5 -146t-144.5 -61q-75 0 -124.5 47.5t-49.5 120.5zM310 631q-46 0 -77.5 -32.5t-31.5 -78.5
q0 -39 26.5 -64t66.5 -25q46 0 77.5 32.5t31.5 78.5q0 39 -27 64t-66 25zM113 512q0 85 59.5 146t144.5 61q75 0 124.5 -47.5t49.5 -121.5q0 -85 -60 -146t-144 -61q-75 0 -124.5 47.5t-49.5 121.5zM368 0h-109l411 700h108z" />
    <glyph glyph-name="minute" unicode="&#x2032;" horiz-adv-x="202" 
d="M219 761l83 -24l-100 -232l-79 22z" />
    <glyph glyph-name="second" unicode="&#x2033;" horiz-adv-x="359" 
d="M376 761l83 -24l-100 -232l-78 22zM219 761l83 -24l-100 -232l-79 22z" />
    <glyph glyph-name="uni2034" unicode="&#x2034;" horiz-adv-x="517" 
d="M534 761l83 -24l-100 -232l-79 22zM376 761l83 -24l-100 -232l-78 22zM219 761l83 -24l-100 -232l-79 22z" />
    <glyph glyph-name="uni2035" unicode="&#x2035;" horiz-adv-x="202" 
d="M252 761l13 -234l-87 -22l-18 232z" />
    <glyph glyph-name="uni2036" unicode="&#x2036;" horiz-adv-x="359" 
d="M252 761l13 -234l-87 -22l-18 232zM410 761l12 -234l-86 -22l-18 232z" />
    <glyph glyph-name="uni2037" unicode="&#x2037;" horiz-adv-x="517" 
d="M252 761l13 -234l-87 -22l-18 232zM410 761l12 -234l-86 -22l-18 232zM567 761l13 -234l-87 -22l-18 232z" />
    <glyph glyph-name="fractionslash" unicode="&#x2044;" horiz-adv-x="96" 
d="M-25 0h-113l391 700h114z" />
    <glyph glyph-name="uni2070" unicode="&#x2070;" horiz-adv-x="314" 
d="M220 642q-4 -23 8.5 -38.5t33.5 -15.5q20 0 37 15.5t22 38.5l13 76q4 24 -7.5 39.5t-31.5 15.5q-22 0 -39.5 -15.5t-21.5 -39.5zM139 638l15 84q10 57 55 94t100 37q54 0 85 -37t21 -94l-15 -84q-10 -56 -54 -93t-98 -37q-55 0 -86.5 37t-22.5 93z" />
    <glyph glyph-name="uni2074" unicode="&#x2074;" horiz-adv-x="317" 
d="M218 651h68l18 97zM401 845l-35 -194h40l-13 -69h-39l-11 -66h-80l11 66h-145l15 80l165 183h92z" />
    <glyph glyph-name="uni2075" unicode="&#x2075;" horiz-adv-x="314" 
d="M233 716l10 57h168l13 73h-248l-29 -165l75 -26q31 28 60 28q20 0 30.5 -14.5t6.5 -36.5q-4 -21 -20 -34t-39 -13q-20 0 -32 10.5t-13 29.5l-82 -21q6 -44 37 -69.5t79 -25.5q56 0 98 34.5t52 88.5q8 48 -15 81.5t-65 33.5q-46 0 -86 -31z" />
    <glyph glyph-name="uni2076" unicode="&#x2076;" horiz-adv-x="315" 
d="M365 749q-14 32 -53 32q-30 0 -53.5 -25t-33.5 -67q14 20 37 31.5t48 11.5q43 0 67 -32t16 -77q-9 -49 -50 -82t-95 -33q-61 0 -88 46q-27 45 -15 118q15 81 64 131t114 50q39 0 66.5 -18t37.5 -50zM225 624q-4 -18 7.5 -30.5t31.5 -12.5t34.5 11t17.5 29t-8 30t-31 12
t-34.5 -11t-17.5 -28z" />
    <glyph glyph-name="uni2077" unicode="&#x2077;" horiz-adv-x="298" 
d="M264 516l142 245l15 84h-245l-13 -73h168l-154 -256h87z" />
    <glyph glyph-name="uni2078" unicode="&#x2078;" horiz-adv-x="311" 
d="M215.5 615.5q-2.5 -14.5 9.5 -24.5t33.5 -10t37 10t18 24.5t-9.5 24.5t-33.5 10t-37 -10t-18 -24.5zM172 759q7 39 46 66.5t88.5 27.5t78.5 -27.5t22 -66.5q-9 -52 -68 -75q30 -10 44 -30.5t9 -47.5q-7 -41 -49.5 -69.5t-97 -28.5t-87 28.5t-24.5 69.5q4 27 25 47.5
t55 30.5q-51 23 -42 75zM282.5 716q15.5 0 28 10t15.5 24q2 13 -7 22t-25.5 9t-28.5 -9t-14 -22q-3 -14 6.5 -24t25 -10z" />
    <glyph glyph-name="uni2079" unicode="&#x2079;" horiz-adv-x="315" 
d="M190 612q14 -32 53 -32q30 0 53.5 25t34.5 68q-14 -20 -37.5 -32t-48.5 -12q-42 0 -66 32t-16 78q9 49 50 81.5t94 32.5q62 0 89 -46q27 -45 14 -118q-14 -81 -63.5 -131t-114.5 -50q-39 0 -66.5 18t-36.5 51zM331 737q3 19 -8.5 31.5t-31.5 12.5q-19 0 -33.5 -11.5
t-18.5 -29.5q-3 -18 8.5 -30t31.5 -12q19 0 34 11t18 28z" />
    <glyph glyph-name="uni2080" unicode="&#x2080;" horiz-adv-x="314" 
d="M102 -26q-4 -23 8.5 -38.5t33.5 -15.5t38 15.5t21 38.5l13 76q4 24 -7.5 39.5t-31.5 15.5q-22 0 -39.5 -15.5t-21.5 -39.5zM22 -30l14 84q10 57 55 94t100 37q54 0 85 -37t21 -94l-15 -84q-10 -56 -54 -93t-98 -37q-55 0 -86.5 37t-21.5 93z" />
    <glyph glyph-name="uni2081" unicode="&#x2081;" horiz-adv-x="235" 
d="M240 178l-58 -329h-80l42 235l-63 -43l-37 59l114 78h82z" />
    <glyph glyph-name="uni2082" unicode="&#x2082;" horiz-adv-x="304" 
d="M288 65q9 51 -21 84t-81 33q-50 0 -86.5 -27.5t-57.5 -70.5l70 -26q20 44 57 44q18 0 28 -12t7 -31q-5 -28 -81 -64l-105 -53l-17 -94h250l14 77h-149l56 28q105 47 116 112z" />
    <glyph glyph-name="uni2083" unicode="&#x2083;" horiz-adv-x="312" 
d="M207 38l87 51l16 90h-238l-13 -73h160l-84 -56l15 -54q24 0 36 -10t9 -28q-3 -15 -17 -25t-33 -10t-30.5 12t-11.5 34l-85 -17q4 -50 35 -79.5t81 -29.5q54 0 94.5 30t48.5 77q6 37 -13 61.5t-57 26.5z" />
    <glyph glyph-name="uni2084" unicode="&#x2084;" horiz-adv-x="317" 
d="M100 -17h69l17 97zM283 178l-34 -195h39l-12 -69h-39l-12 -65h-80l12 65h-145l14 81l166 183h91z" />
    <glyph glyph-name="uni2085" unicode="&#x2085;" horiz-adv-x="314" 
d="M115 48l10 57h168l13 73h-248l-29 -165l75 -27q31 29 60 29q20 0 30.5 -14.5t6.5 -36.5q-4 -21 -20 -34t-39 -13q-20 0 -32 10.5t-13 29.5l-81 -21q5 -44 36 -69.5t79 -25.5q56 0 98.5 34.5t51.5 88.5q9 48 -14.5 81.5t-65.5 33.5q-46 0 -86 -31z" />
    <glyph glyph-name="uni2086" unicode="&#x2086;" horiz-adv-x="315" 
d="M248 81q-15 32 -53 32q-30 0 -54 -25t-34 -67q14 19 37.5 31t48.5 12q42 0 66 -32t16 -77q-9 -49 -50 -82t-94 -33q-62 0 -89 46q-27 45 -14 118q14 81 63 131t115 50q38 0 65.5 -18t37.5 -50zM107 -44q-3 -18 8.5 -30.5t30.5 -12.5q20 0 34.5 11t17.5 29t-8 30t-31 12
t-34.5 -11t-17.5 -28z" />
    <glyph glyph-name="uni2087" unicode="&#x2087;" horiz-adv-x="298" 
d="M147 -151l141 244l15 85h-245l-13 -73h169l-154 -256h87z" />
    <glyph glyph-name="uni2088" unicode="&#x2088;" horiz-adv-x="311" 
d="M97.5 -53q-2.5 -15 9.5 -24.5t33.5 -9.5t37 9.5t18 24.5t-9.5 25t-33 10t-37 -10t-18.5 -25zM54 91q7 39 46 66.5t88.5 27.5t79 -27.5t22.5 -66.5q-10 -52 -68 -75q29 -10 43 -30.5t9 -47.5q-7 -41 -49.5 -69.5t-97 -28.5t-86.5 28.5t-25 69.5q5 27 26 47.5t54 30.5
q-51 23 -42 75zM164.5 48q15.5 0 28 10t15.5 24q2 13 -7 22t-25.5 9t-28.5 -9t-14 -22q-3 -14 6.5 -24t25 -10z" />
    <glyph glyph-name="uni2089" unicode="&#x2089;" horiz-adv-x="315" 
d="M72 -56q15 -32 53 -32q30 0 54 25t34 68q-14 -20 -37.5 -32t-48.5 -12q-42 0 -66 32t-16 78q9 49 50 81.5t94 32.5q62 0 89 -46q27 -45 14 -118q-14 -81 -63.5 -131t-114.5 -50q-39 0 -66.5 18t-36.5 51zM213 69q3 19 -8.5 31.5t-31.5 12.5q-19 0 -33.5 -11.5
t-17.5 -29.5q-4 -18 7.5 -30t31.5 -12t34.5 11t17.5 28z" />
    <glyph glyph-name="dong" unicode="&#x20ab;" horiz-adv-x="668" 
d="M630 -75l-13 -77h-615l13 77h615zM577 308q0 -85 -40.5 -160.5t-108.5 -120.5t-145 -45q-92 0 -149.5 59.5t-57.5 154.5q0 85 41.5 160t111.5 119.5t149 44.5q88 0 143.5 -58.5t55.5 -153.5zM322 73q86 0 149 63t63 149q0 64 -41.5 104t-108.5 40q-85 0 -148.5 -63
t-63.5 -149q0 -64 42 -104t108 -40zM582 0h-95l105 594h-220l15 84h219l13 72h95l-13 -72h87l-15 -84h-86z" />
    <glyph glyph-name="Euro" unicode="&#x20ac;" horiz-adv-x="845" 
d="M601 308l-11 -62h-515l11 62h515zM630 471l-12 -66h-515l12 66h515zM172 279q0 87 34.5 168t92.5 141t137 96t163 36q105 0 181.5 -53t104.5 -145l-89 -46q-21 69 -78.5 109t-136.5 40q-82 0 -154.5 -45t-115.5 -121t-43 -163q0 -97 60.5 -158t156.5 -61q81 0 153.5 42.5
t118.5 115.5l74 -45q-59 -96 -157 -152t-205 -56q-132 0 -214.5 83t-82.5 214z" />
    <glyph glyph-name="uni20B4" unicode="&#x20b4;" horiz-adv-x="581" 
d="M80 144q0 62 43 110h-50l11 62h520l-10 -62h-363q-49 -34 -49 -88q0 -39 30.5 -62t80.5 -23q59 0 111.5 33.5t86.5 92.5l83 -44q-47 -79 -128.5 -126.5t-171.5 -47.5q-87 0 -140.5 43t-53.5 112zM617 560q0 -59 -37 -106h49l-11 -62h-520l10 62h364q44 34 44 86
q0 37 -28 59t-75 22q-56 0 -107 -31t-83 -85l-83 35q45 79 124.5 126t166.5 47q83 0 134.5 -42t51.5 -111z" />
    <glyph glyph-name="uni20B8" unicode="&#x20b8;" horiz-adv-x="599" 
d="M135 611l15 89h545l-15 -89h-545zM667 536l-17 -93h-224l-79 -443h-95l78 443h-224l16 93h545z" />
    <glyph glyph-name="uni20BD" unicode="&#x20bd;" horiz-adv-x="629" 
d="M691 540q0 -93 -73.5 -161.5t-173.5 -68.5h-175l-14 -80h147l-14 -77h-148l-26 -153h-95l27 153h-91l14 77h91l14 80h-91l15 85h90l54 305h280q75 0 122 -44.5t47 -115.5zM459 395q54 0 94.5 37.5t40.5 88.5q0 38 -27 62t-71 24h-175l-38 -212h176z" />
    <glyph glyph-name="uni2103" unicode="&#x2103;" horiz-adv-x="1184" 
d="M504 314q0 111 52.5 204.5t143 147t199 53.5t194.5 -60t118 -172l-91 -31q-21 77 -83.5 122.5t-145.5 45.5q-121 0 -206 -89t-85 -215q0 -106 69 -175t175 -69q73 0 138.5 41.5t106.5 114.5l85 -47q-57 -96 -146 -150t-191 -54q-143 0 -238 95t-95 238zM306 623
q-40 0 -67.5 -28.5t-27.5 -69.5q0 -34 23 -56t58 -22q40 0 67.5 28.5t27.5 68.5q0 34 -23 56.5t-58 22.5zM123 517q0 79 55.5 136t134.5 57q70 0 116 -44t46 -113q0 -80 -55.5 -137t-134.5 -57q-70 0 -116 44.5t-46 113.5z" />
    <glyph glyph-name="uni2109" unicode="&#x2109;" horiz-adv-x="972" 
d="M628 410h357l-15 -93h-358l-55 -317h-97l124 700h474l-16 -93h-378zM306 623q-40 0 -67.5 -28.5t-27.5 -69.5q0 -34 23 -56t58 -22q40 0 67.5 28.5t27.5 68.5q0 34 -23 56.5t-58 22.5zM123 517q0 79 55.5 136t134.5 57q70 0 116 -44t46 -113q0 -80 -55.5 -137t-134.5 -57
q-70 0 -116 44.5t-46 113.5z" />
    <glyph glyph-name="trademark" unicode="&#x2122;" horiz-adv-x="485" 
d="M323 700l-8 -44h-60l-31 -174h-47l31 174h-58l8 44h165zM312 482l38 218h58l31 -117l73 117h63l-39 -218h-47l25 140l-65 -105h-37l-29 105l-24 -140h-47z" />
    <glyph glyph-name="estimated" unicode="&#x212e;" horiz-adv-x="598" 
d="M260 515l-24 -136h260l24 138q-44 45 -122 45q-77 0 -138 -47zM630 409q0 -35 -13 -85h-390l-24 -134q44 -50 125 -50q62 0 118 30.5t91 83.5l50 -24q-45 -69 -116 -108.5t-149 -39.5q-100 0 -164.5 61t-64.5 157q0 84 42.5 158t114.5 118t154 44q98 0 162 -59t64 -152z
" />
    <glyph glyph-name="arrowleft" unicode="&#x2190;" horiz-adv-x="759" 
d="M402 648l55 -60l-193 -177h517l-7 -85h-517l161 -176l-65 -60l-251 279z" />
    <glyph glyph-name="arrowup" unicode="&#x2191;" horiz-adv-x="641" 
d="M664 431l-64 -60l-162 178l-45 -517h-85l45 516l-191 -177l-54 60l302 275z" />
    <glyph glyph-name="arrowright" unicode="&#x2192;" horiz-adv-x="759" 
d="M478 80l-55 59l193 178h-517l7 84h516l-161 177l66 59l250 -279z" />
    <glyph glyph-name="arrowdown" unicode="&#x2193;" horiz-adv-x="641" 
d="M97 296l65 60l161 -178l46 518h84l-45 -516l191 176l54 -60l-302 -274z" />
    <glyph glyph-name="arrowboth" unicode="&#x2194;" horiz-adv-x="908" 
d="M627 80l-55 59l192 177h-506l160 -176l-65 -59l-250 279l299 278l55 -59l-193 -177h507l-161 176l66 59l250 -279z" />
    <glyph glyph-name="arrowupdn" unicode="&#x2195;" horiz-adv-x="643" 
d="M91 222l64 60l162 -177l44 507l-191 -176l-54 60l302 275l255 -275l-65 -60l-161 177l-45 -507l192 176l54 -60l-303 -275z" />
    <glyph glyph-name="uni2196" unicode="&#x2196;" horiz-adv-x="593" 
d="M519 610l-7 -84h-252l334 -366l-65 -60l-333 365l-21 -249h-85l37 391z" />
    <glyph glyph-name="uni2197" unicode="&#x2197;" horiz-adv-x="593" 
d="M599 216h-83l22 250l-399 -365l-54 59l397 365h-250l8 85l391 -3z" />
    <glyph glyph-name="uni2198" unicode="&#x2198;" horiz-adv-x="593" 
d="M195 117l7 85h251l-333 365l64 60l333 -365l22 249h84l-36 -391z" />
    <glyph glyph-name="uni2199" unicode="&#x2199;" horiz-adv-x="593" 
d="M115 512h83l-22 -252l399 367l53 -61l-396 -364h250l-8 -84l-391 3z" />
    <glyph glyph-name="approxequal" unicode="&#x2248;" horiz-adv-x="471" 
d="M207 262q-44 0 -78.5 -33t-55.5 -92l63 -18q25 69 61 69q12 0 22 -6t25 -24q23 -25 42.5 -35t44.5 -10q44 0 78.5 33t55.5 92l-64 18q-25 -67 -64 -67q-14 0 -24.5 6t-24.5 23q-21 25 -39 34.5t-42 9.5zM237 437q-43 0 -77.5 -33t-55.5 -92l63 -18q25 69 61 69
q12 0 22 -6t25 -24q23 -25 42.5 -35t44.5 -10q44 0 78.5 33t55.5 92l-64 18q-25 -67 -64 -67q-14 0 -24.5 6t-24.5 23q-21 25 -39 34.5t-43 9.5z" />
    <glyph glyph-name="notequal" unicode="&#x2260;" horiz-adv-x="389" 
d="M148 6h-98l289 521h98zM400 220l-15 -84h-333l15 84h333zM433 409l-14 -85h-334l15 85h333z" />
    <glyph glyph-name="lessequal" unicode="&#x2264;" horiz-adv-x="503" 
d="M470 14l-14 -77h-439l14 77h439zM495 157l-18 -101l-402 162l22 124l459 162l-18 -102l-366 -121z" />
    <glyph glyph-name="greaterequal" unicode="&#x2265;" horiz-adv-x="503" 
d="M470 14l-14 -77h-439l14 77h439zM107 402l18 102l403 -162l-22 -124l-460 -162l18 101l366 122z" />
    <glyph glyph-name="filledbox" unicode="&#x25a0;" horiz-adv-x="820" 
d="M170 700h700l-100 -700h-700z" />
    <glyph glyph-name="H22073" unicode="&#x25a1;" horiz-adv-x="820" 
d="M254 605l-78 -510h510l78 510h-510zM170 700h700l-100 -700h-700z" />
    <glyph glyph-name="H18543" unicode="&#x25aa;" horiz-adv-x="520" 
d="M148 570h400l-56 -400h-400z" />
    <glyph glyph-name="H18551" unicode="&#x25ab;" horiz-adv-x="520" 
d="M226 482l-37 -224h225l37 224h-225zM145 574h408l-58 -408h-408z" />
    <glyph glyph-name="triagup" unicode="&#x25b2;" horiz-adv-x="820" 
d="M520 700l250 -700h-700z" />
    <glyph glyph-name="uni25B3" unicode="&#x25b3;" horiz-adv-x="820" 
d="M520 700l250 -700h-700zM498 523l-286 -443h436z" />
    <glyph glyph-name="uni25B6" unicode="&#x25b6;" horiz-adv-x="820" 
d="M820 350l-750 -350l100 700z" />
    <glyph glyph-name="uni25B7" unicode="&#x25b7;" horiz-adv-x="820" 
d="M820 350l-750 -350l100 700zM643 350l-410 218l-66 -436z" />
    <glyph glyph-name="triagdn" unicode="&#x25bc;" horiz-adv-x="820" 
d="M420 0l-250 700h700z" />
    <glyph glyph-name="uni25BD" unicode="&#x25bd;" horiz-adv-x="820" 
d="M420 0l-250 700h700zM442 177l286 443h-436z" />
    <glyph glyph-name="uni25C0" unicode="&#x25c0;" horiz-adv-x="820" 
d="M120 350l750 350l-100 -700z" />
    <glyph glyph-name="uni25C1" unicode="&#x25c1;" horiz-adv-x="820" 
d="M120 350l750 350l-100 -700zM297 350l410 -218l66 436z" />
    <glyph glyph-name="uni25C6" unicode="&#x25c6;" horiz-adv-x="820" 
d="M113 350l408 357l306 -357l-408 -357z" />
    <glyph glyph-name="uni25C7" unicode="&#x25c7;" horiz-adv-x="820" 
d="M238 350l197 -232l267 232l-197 232zM113 350l408 357l306 -357l-408 -357z" />
    <glyph glyph-name="lozenge" unicode="&#x25ca;" horiz-adv-x="620" 
d="M220 350l113 -238l187 238l-113 238zM113 350l275 357h65l174 -357l-275 -357h-65z" />
    <glyph glyph-name="circle" unicode="&#x25cb;" horiz-adv-x="820" 
d="M433 108q73 0 138.5 39t104.5 103.5t39 136.5q0 88 -59 146.5t-149 58.5q-73 0 -138.5 -39t-104.5 -103.5t-39 -136.5q0 -88 59 -146.5t149 -58.5zM109 300q0 79 34 154t90 130.5t132 89t156 33.5q133 0 221.5 -87.5t88.5 -219.5q0 -79 -34 -154t-90 -130.5t-132 -89
t-156 -33.5q-133 0 -221.5 87.5t-88.5 219.5z" />
    <glyph glyph-name="H18533" unicode="&#x25cf;" horiz-adv-x="820" 
d="M109 300q0 79 34 154t90 130.5t132 89t156 33.5q133 0 221.5 -87.5t88.5 -219.5q0 -79 -34 -154t-90 -130.5t-132 -89t-156 -33.5q-133 0 -221.5 87.5t-88.5 219.5z" />
    <glyph glyph-name="zero.dnom" horiz-adv-x="314" 
d="M129 124q-4 -23 8 -38.5t34 -15.5q20 0 37 15.5t21 38.5l14 76q4 24 -7.5 39.5t-32.5 15.5t-39 -15.5t-22 -39.5zM48 120l15 84q10 57 54.5 94t99.5 37t85.5 -37t20.5 -94l-14 -84q-10 -56 -54 -93t-98 -37q-55 0 -87 37t-22 93z" />
    <glyph glyph-name="one.dnom" horiz-adv-x="235" 
d="M267 328l-58 -329h-80l41 235l-63 -43l-36 59l113 78h83z" />
    <glyph glyph-name="two.dnom" horiz-adv-x="304" 
d="M315 215q9 51 -21 84t-82 33q-49 0 -86 -27.5t-58 -70.5l71 -26q20 44 56 44q18 0 28.5 -12t6.5 -31q-5 -28 -81 -64l-105 -53l-16 -94h250l13 77h-148l56 28q105 47 116 112z" />
    <glyph glyph-name="three.dnom" horiz-adv-x="312" 
d="M233 188l88 51l16 90h-238l-13 -73h159l-83 -56l14 -54q25 0 36.5 -10t8.5 -28q-3 -15 -17 -25t-32 -10q-20 0 -31 12t-12 34l-84 -17q4 -50 34.5 -79.5t80.5 -29.5q54 0 94.5 30t48.5 77q7 37 -12.5 61.5t-57.5 26.5z" />
    <glyph glyph-name="four.dnom" horiz-adv-x="317" 
d="M127 133h68l17 97zM310 328l-35 -195h39l-12 -69h-39l-11 -65h-80l11 65h-145l14 81l166 183h92z" />
    <glyph glyph-name="five.dnom" horiz-adv-x="314" 
d="M142 198l10 57h168l12 73h-247l-29 -165l75 -27q30 29 59 29q21 0 31 -14.5t6 -36.5q-3 -21 -19 -34t-39 -13q-20 0 -32 10.5t-14 29.5l-81 -21q6 -44 37 -69.5t79 -25.5q56 0 98 34.5t51 88.5q9 48 -14 81.5t-66 33.5q-46 0 -85 -31z" />
    <glyph glyph-name="six.dnom" horiz-adv-x="315" 
d="M274 231q-14 32 -53 32q-30 0 -53.5 -25t-34.5 -67q14 19 37.5 31t48.5 12q42 0 66 -32t16 -77q-8 -49 -49 -82t-95 -33q-62 0 -89 46q-27 45 -14 118q14 81 63.5 131t114.5 50q39 0 66.5 -18t37.5 -50zM133 106q-3 -18 8.5 -30.5t31.5 -12.5q19 0 34 11t18 29t-8.5 30
t-31.5 12q-19 0 -34 -11t-18 -28z" />
    <glyph glyph-name="seven.dnom" horiz-adv-x="298" 
d="M173 -1l142 244l15 85h-245l-13 -73h168l-154 -256h87z" />
    <glyph glyph-name="eight.dnom" horiz-adv-x="311" 
d="M124 97q-3 -15 9.5 -24.5t33.5 -9.5t37 9.5t18.5 24.5t-10 25t-33.5 10t-36.5 -10t-18.5 -25zM81 241q7 39 46 66.5t88 27.5t78.5 -27.5t22.5 -66.5q-9 -52 -68 -75q30 -10 43.5 -30.5t9.5 -47.5q-8 -41 -50 -69.5t-96.5 -28.5t-87 28.5t-25.5 69.5q5 27 26 47.5t55 30.5
q-51 23 -42 75zM190.5 198q15.5 0 28.5 10t15 24q3 13 -6 22t-25.5 9t-28.5 -9t-15 -22q-2 -14 7 -24t24.5 -10z" />
    <glyph glyph-name="nine.dnom" horiz-adv-x="315" 
d="M99 94q14 -32 53 -32q30 0 53.5 25t34.5 68q-15 -20 -38 -32t-48 -12q-43 0 -67 32t-15 78q8 49 49 81.5t95 32.5q61 0 89 -46q27 -45 14 -118q-15 -81 -64 -131t-114 -50q-39 0 -66.5 18t-37.5 51zM239 219q4 19 -7.5 31.5t-31.5 12.5t-34.5 -11.5t-17.5 -29.5t8 -30
t32 -12q19 0 33.5 11t17.5 28z" />
    <glyph glyph-name="zero.numr" horiz-adv-x="314" 
d="M194 492q-4 -23 8 -38.5t34 -15.5q20 0 37 15.5t21 38.5l14 76q4 24 -7.5 39.5t-32.5 15.5t-39 -15.5t-22 -39.5zM113 488l15 84q10 57 54.5 94t99.5 37q54 0 85 -37t21 -94l-15 -84q-9 -56 -53 -93t-99 -37t-86.5 37t-21.5 93z" />
    <glyph glyph-name="one.numr" horiz-adv-x="235" 
d="M332 695l-58 -329h-80l41 235l-63 -43l-36 59l113 78h83z" />
    <glyph glyph-name="two.numr" horiz-adv-x="304" 
d="M380 582q9 51 -21 84.5t-82 33.5q-49 0 -86 -27.5t-58 -70.5l70 -27q21 45 57 45q18 0 28 -12t7 -31q-5 -28 -81 -64l-105 -53l-16 -94h250l13 77h-149l56 27q105 48 117 112z" />
    <glyph glyph-name="three.numr" horiz-adv-x="312" 
d="M298 555l88 51l15 90h-238l-12 -73h159l-84 -56l15 -54q25 0 36.5 -10t8.5 -28q-3 -15 -17 -25t-33 -10t-30.5 12t-11.5 34l-84 -17q3 -50 34 -79.5t81 -29.5q54 0 94.5 30t48.5 77q7 37 -12.5 61t-57.5 27z" />
    <glyph glyph-name="four.numr" horiz-adv-x="317" 
d="M192 501h68l17 97zM374 695l-34 -194h39l-12 -69h-39l-12 -66h-80l12 66h-145l14 80l166 183h91z" />
    <glyph glyph-name="five.numr" horiz-adv-x="314" 
d="M207 566l10 57h168l12 73h-247l-29 -165l75 -26q30 28 59 28q20 0 30.5 -14.5t6.5 -36.5q-3 -21 -19.5 -34t-38.5 -13q-20 0 -32.5 10.5t-13.5 29.5l-81 -21q6 -44 37 -69.5t79 -25.5q56 0 98 34.5t51 88.5q9 48 -14 81.5t-66 33.5q-46 0 -85 -31z" />
    <glyph glyph-name="six.numr" horiz-adv-x="315" 
d="M339 599q-14 32 -53 32q-30 0 -53.5 -25t-34.5 -67q14 20 37.5 31.5t48.5 11.5q42 0 66 -32t16 -77q-9 -49 -50 -82t-94 -33q-62 0 -89 46q-27 45 -14 118q14 81 63.5 131t114.5 50q39 0 66.5 -18t36.5 -50zM198 474q-3 -18 8.5 -30.5t31.5 -12.5q19 0 33.5 11t18.5 29
q3 18 -8.5 30t-31.5 12q-19 0 -34 -11t-18 -28z" />
    <glyph glyph-name="seven.numr" horiz-adv-x="298" 
d="M238 366l142 245l14 84h-245l-12 -73h168l-154 -256h87z" />
    <glyph glyph-name="eight.numr" horiz-adv-x="311" 
d="M189 465.5q-3 -14.5 9.5 -24.5t33.5 -10t37 10t18.5 24.5t-10 24.5t-33.5 10t-36.5 -10t-18.5 -24.5zM146 609q7 39 46 66.5t88 27.5t78.5 -27.5t22.5 -66.5q-9 -52 -68 -75q30 -10 43.5 -30.5t8.5 -47.5q-7 -41 -49 -69.5t-96.5 -28.5t-87 28.5t-25.5 69.5q5 27 26 47.5
t54 30.5q-50 23 -41 75zM255.5 566q15.5 0 28.5 10t15 24q3 13 -6 22t-25.5 9t-28.5 -9t-15 -22q-2 -14 7 -24t24.5 -10z" />
    <glyph glyph-name="nine.numr" horiz-adv-x="315" 
d="M164 462q14 -32 53 -32q30 0 53.5 25t33.5 68q-14 -20 -37 -32t-48 -12q-43 0 -67 32t-16 78q9 49 50 81.5t95 32.5q61 0 88 -46q27 -45 15 -118q-15 -81 -64 -131t-114 -50q-39 0 -66.5 18t-37.5 51zM304 587q4 19 -7.5 31.5t-31.5 12.5t-34.5 -11.5t-17.5 -29.5t8 -30
t31 -12t34.5 11t17.5 28z" />
    <glyph glyph-name="zero.tabl" horiz-adv-x="610" 
d="M541 422q0 89 -41 144.5t-104 55.5q-69 0 -124.5 -63t-70.5 -163l-11 -60q-5 -28 -5 -59q0 -89 40.5 -144.5t104.5 -55.5q68 0 123.5 63t71.5 163l11 60q5 31 5 59zM321 -18q-100 0 -166 80.5t-66 205.5q0 41 7 77l11 60q23 137 107 224.5t190 87.5q101 0 166.5 -80.5
t65.5 -205.5q0 -43 -8 -80l-10 -57q-22 -137 -106.5 -224.5t-190.5 -87.5z" />
    <glyph glyph-name="one.tabl" horiz-adv-x="610" 
d="M582 92l-16 -92h-522l16 92h222l88 498l-198 -136l-43 74l255 172h100l-107 -608h205z" />
    <glyph glyph-name="two.tabl" horiz-adv-x="610" 
d="M444 238q114 71 162 133.5t48 138.5q0 88 -63.5 144.5t-163.5 56.5q-94 0 -171 -54.5t-125 -154.5l87 -32q70 146 199 146q62 0 101 -34.5t39 -89.5q0 -51 -41 -93t-151 -109l-295 -179l-19 -111h517l16 92h-375z" />
    <glyph glyph-name="three.tabl" horiz-adv-x="610" 
d="M316 -11q128 0 210.5 75t82.5 187q0 72 -46 118.5t-127 56.5l235 163l14 111h-517l-10 -92h409l-248 -180l14 -66q85 0 132 -32.5t47 -90.5q0 -68 -54 -111.5t-139 -43.5q-67 0 -106.5 32t-44.5 90l-95 -30q11 -87 76.5 -137t166.5 -50z" />
    <glyph glyph-name="four.tabl" horiz-adv-x="610" 
d="M193 292h228l50 278zM588 700l-72 -408h102l-16 -92h-102l-36 -200h-95l36 200h-333l19 106l388 394h109z" />
    <glyph glyph-name="five.tabl" horiz-adv-x="610" 
d="M309 -11q125 0 210 86.5t85 211.5q0 88 -51 143.5t-131 55.5q-47 0 -99 -19t-96 -54l34 195h390l10 92h-479l-62 -352l90 -28q40 37 86.5 57t88.5 20q56 0 89.5 -34t33.5 -90q0 -80 -55 -134.5t-137 -54.5q-61 0 -98 31.5t-41 86.5l-98 -30q11 -85 72.5 -134t157.5 -49z
" />
    <glyph glyph-name="six.tabl" horiz-adv-x="610" 
d="M88 239q0 129 48 238t131 172.5t181 63.5q76 0 136 -33.5t86 -90.5l-71 -62q-21 42 -65.5 66.5t-99.5 24.5q-82 0 -145 -64t-90 -175q33 46 86.5 72.5t112.5 26.5q95 0 157 -62.5t62 -158.5q0 -115 -81 -195.5t-197 -80.5t-183.5 69.5t-67.5 188.5zM361 385
q-74 0 -125.5 -46t-51.5 -113q0 -63 48 -106.5t117 -43.5q72 0 122.5 49.5t50.5 119.5q0 62 -45 101t-116 39z" />
    <glyph glyph-name="seven.tabl" horiz-adv-x="610" 
d="M346 0l338 598l14 102h-544l-11 -94h434l-348 -606h117z" />
    <glyph glyph-name="eight.tabl" horiz-adv-x="610" 
d="M338 316q-71 0 -119 -35.5t-48 -88.5q0 -49 48.5 -82t120.5 -33q71 0 118 34t47 86q0 51 -48 85t-119 34zM153 515q0 85 72 144t176 59q101 0 169 -53.5t68 -132.5q0 -61 -38.5 -110t-104.5 -72q49 -27 76 -68.5t27 -90.5q0 -89 -76 -149t-189 -60q-111 0 -185 56
t-74 139q0 66 45 119t120 76q-41 25 -63.5 62.5t-22.5 80.5zM246 510q0 -45 42 -75.5t105 -30.5t105.5 31.5t42.5 79.5q0 46 -42.5 77t-104.5 31q-63 0 -105.5 -32.5t-42.5 -80.5z" />
    <glyph glyph-name="nine.tabl" horiz-adv-x="610" 
d="M650 460q0 -129 -48.5 -238t-131.5 -172.5t-180 -63.5q-77 0 -137 33.5t-86 90.5l71 62q21 -42 65.5 -66.5t100.5 -24.5q81 0 144.5 64t89.5 175q-33 -46 -86.5 -72.5t-112.5 -26.5q-95 0 -157 62.5t-62 158.5q0 115 81 195.5t197 80.5t184 -69.5t68 -188.5zM376 314
q74 0 125.5 46t51.5 113q0 63 -48 106.5t-117 43.5q-72 0 -122 -49.5t-50 -119.5q0 -62 44.5 -101t115.5 -39z" />
    <glyph glyph-name="zero.slsh" horiz-adv-x="648" 
d="M586 418q0 91 -47 147.5t-120 56.5q-77 0 -139.5 -64t-79.5 -165l-9 -53q-6 -29 -6 -59q0 -91 47.5 -147.5t120.5 -56.5q76 0 138.5 64t80.5 165l9 53q5 32 5 59zM344 -18q-110 0 -182 81.5t-72 208.5q0 40 7 76l9 53q24 139 115.5 227.5t205.5 88.5q111 0 183 -81.5
t72 -208.5q0 -40 -8 -76l-8 -53q-25 -139 -116.5 -227.5t-205.5 -88.5zM135 158l444 444l53 -78l-438 -439z" />
    <glyph glyph-name="a.ss01" horiz-adv-x="638" 
d="M588 0h-95l87 500h95zM344 74q81 0 137 57.5t56 138.5q0 70 -47 114.5t-118 44.5q-80 0 -136 -58t-56 -138q0 -70 47 -114.5t117 -44.5zM579 290q0 -80 -35 -150.5t-97.5 -112.5t-137.5 -42q-95 0 -160 65.5t-65 169.5q0 80 36.5 149.5t100.5 111t139 41.5
q97 0 158 -65.5t61 -166.5z" />
    <glyph glyph-name="agrave.ss01" horiz-adv-x="638" 
d="M283 730l55 56l146 -168l-52 -50zM588 0h-95l87 500h95zM344 74q81 0 137 57.5t56 138.5q0 70 -47 114.5t-118 44.5q-80 0 -136 -58t-56 -138q0 -70 47 -114.5t117 -44.5zM579 290q0 -80 -35 -150.5t-97.5 -112.5t-137.5 -42q-95 0 -160 65.5t-65 169.5q0 80 36.5 149.5
t100.5 111t139 41.5q97 0 158 -65.5t61 -166.5z" />
    <glyph glyph-name="aacute.ss01" horiz-adv-x="638" 
d="M566 702l-44 66l-189 -139l40 -61zM588 0h-95l87 500h95zM344 74q81 0 137 57.5t56 138.5q0 70 -47 114.5t-118 44.5q-80 0 -136 -58t-56 -138q0 -70 47 -114.5t117 -44.5zM579 290q0 -80 -35 -150.5t-97.5 -112.5t-137.5 -42q-95 0 -160 65.5t-65 169.5q0 80 36.5 149.5
t100.5 111t139 41.5q97 0 158 -65.5t61 -166.5z" />
    <glyph glyph-name="acircumflex.ss01" horiz-adv-x="638" 
d="M422 771l-195 -146l38 -62l160 123l115 -131l55 52l-146 162zM588 0h-95l87 500h95zM344 74q81 0 137 57.5t56 138.5q0 70 -47 114.5t-118 44.5q-80 0 -136 -58t-56 -138q0 -70 47 -114.5t117 -44.5zM579 290q0 -80 -35 -150.5t-97.5 -112.5t-137.5 -42q-95 0 -160 65.5
t-65 169.5q0 80 36.5 149.5t100.5 111t139 41.5q97 0 158 -65.5t61 -166.5z" />
    <glyph glyph-name="atilde.ss01" horiz-adv-x="638" 
d="M348 717q-86 0 -130 -125l68 -18q25 70 59 70q13 0 23 -6.5t25 -24.5q23 -25 42.5 -35t44.5 -10q43 0 76 33t54 92l-66 18q-26 -67 -66 -67q-13 0 -23.5 6.5t-24.5 23.5q-22 24 -39.5 33.5t-42.5 9.5zM588 0h-95l87 500h95zM344 74q81 0 137 57.5t56 138.5
q0 70 -47 114.5t-118 44.5q-80 0 -136 -58t-56 -138q0 -70 47 -114.5t117 -44.5zM579 290q0 -80 -35 -150.5t-97.5 -112.5t-137.5 -42q-95 0 -160 65.5t-65 169.5q0 80 36.5 149.5t100.5 111t139 41.5q97 0 158 -65.5t61 -166.5z" />
    <glyph glyph-name="adieresis.ss01" horiz-adv-x="638" 
d="M445 629.5q0 26.5 18 44t44 17.5t44 -17.5t18 -44t-18 -44t-44 -17.5t-44 17.5t-18 44zM235 629.5q0 26.5 18 44t44 17.5t44 -17.5t18 -44t-18 -44t-44 -17.5t-44 17.5t-18 44zM588 0h-95l87 500h95zM344 74q81 0 137 57.5t56 138.5q0 70 -47 114.5t-118 44.5
q-80 0 -136 -58t-56 -138q0 -70 47 -114.5t117 -44.5zM579 290q0 -80 -35 -150.5t-97.5 -112.5t-137.5 -42q-95 0 -160 65.5t-65 169.5q0 80 36.5 149.5t100.5 111t139 41.5q97 0 158 -65.5t61 -166.5z" />
    <glyph glyph-name="aring.ss01" horiz-adv-x="638" 
d="M416 739q-23 0 -39 -17t-16 -40q0 -20 13.5 -33t33.5 -13q23 0 39.5 16.5t16.5 40.5q0 20 -14 33t-34 13zM292 675q0 54 38 93t92 39q47 0 78.5 -30.5t31.5 -76.5q0 -54 -38 -93t-92 -39q-47 0 -78.5 30t-31.5 77zM588 0h-95l87 500h95zM344 74q81 0 137 57.5t56 138.5
q0 70 -47 114.5t-118 44.5q-80 0 -136 -58t-56 -138q0 -70 47 -114.5t117 -44.5zM579 290q0 -80 -35 -150.5t-97.5 -112.5t-137.5 -42q-95 0 -160 65.5t-65 169.5q0 80 36.5 149.5t100.5 111t139 41.5q97 0 158 -65.5t61 -166.5z" />
    <glyph glyph-name="ae.ss01" horiz-adv-x="1068" 
d="M977 308q-4 55 -45 89t-100 34q-63 0 -115.5 -38.5t-68.5 -101.5h329q1 9 0 17zM1070 283q0 -31 -10 -68h-419q3 -64 47.5 -104t111.5 -40q51 0 95 24t71 67l77 -51q-41 -63 -101 -96t-132 -33q-103 0 -169.5 68.5t-66.5 175.5q0 120 80 207t195 87q94 0 157.5 -67
t63.5 -170zM580 0h-87l87 500h87zM344 74q81 0 137 57.5t56 138.5q0 70 -47 114.5t-117 44.5q-81 0 -137 -57.5t-56 -138.5q0 -70 47 -114.5t117 -44.5zM579 288q0 -81 -36 -150.5t-98.5 -111t-135.5 -41.5q-96 0 -160.5 66t-64.5 171q0 80 37 149t101 110t139 41
q96 0 157 -65.5t61 -168.5z" />
    <glyph glyph-name="amacron.ss01" horiz-adv-x="638" 
d="M571 655l-14 -77h-314l14 77h314zM588 0h-95l87 500h95zM344 74q81 0 137 57.5t56 138.5q0 70 -47 114.5t-118 44.5q-80 0 -136 -58t-56 -138q0 -70 47 -114.5t117 -44.5zM579 290q0 -80 -35 -150.5t-97.5 -112.5t-137.5 -42q-95 0 -160 65.5t-65 169.5q0 80 36.5 149.5
t100.5 111t139 41.5q97 0 158 -65.5t61 -166.5z" />
    <glyph glyph-name="abreve.ss01" horiz-adv-x="638" 
d="M408 575q-64 0 -105.5 38.5t-41.5 95.5q0 14 3 27h72q-2 -8 -2 -16q0 -33 22.5 -53.5t60.5 -20.5q42 0 76.5 26.5t41.5 63.5h82q-12 -65 -74 -113t-135 -48zM588 0h-95l87 500h95zM344 74q81 0 137 57.5t56 138.5q0 70 -47 114.5t-118 44.5q-80 0 -136 -58t-56 -138
q0 -70 47 -114.5t117 -44.5zM579 290q0 -80 -35 -150.5t-97.5 -112.5t-137.5 -42q-95 0 -160 65.5t-65 169.5q0 80 36.5 149.5t100.5 111t139 41.5q97 0 158 -65.5t61 -166.5z" />
    <glyph glyph-name="aogonek.ss01" horiz-adv-x="638" 
d="M485 -256q-48 0 -78.5 27.5t-30.5 69.5q0 40 22 69t73 55l26 14l5 25h68l-9 -53l-65 -33q-47 -25 -47 -65q0 -18 11.5 -29t30.5 -11q32 0 46 34l63 -22q-17 -38 -47.5 -59.5t-67.5 -21.5zM588 0h-95l87 500h95zM344 74q81 0 137 57.5t56 138.5q0 70 -47 114.5t-118 44.5
q-80 0 -136 -58t-56 -138q0 -70 47 -114.5t117 -44.5zM579 290q0 -80 -35 -150.5t-97.5 -112.5t-137.5 -42q-95 0 -160 65.5t-65 169.5q0 80 36.5 149.5t100.5 111t139 41.5q97 0 158 -65.5t61 -166.5z" />
    <glyph glyph-name="uni1EA1.ss01" horiz-adv-x="638" 
d="M244 -141q0 26 18 43.5t44 17.5t43.5 -17.5t17.5 -43.5t-17.5 -44t-43.5 -18t-44 18t-18 44zM588 0h-95l87 500h95zM344 74q81 0 137 57.5t56 138.5q0 70 -47 114.5t-118 44.5q-80 0 -136 -58t-56 -138q0 -70 47 -114.5t117 -44.5zM579 290q0 -80 -35 -150.5
t-97.5 -112.5t-137.5 -42q-95 0 -160 65.5t-65 169.5q0 80 36.5 149.5t100.5 111t139 41.5q97 0 158 -65.5t61 -166.5z" />
    <glyph glyph-name="uni1EA3.ss01" horiz-adv-x="638" 
d="M424 809q47 0 77 -28t30 -74q0 -45 -24 -74t-73 -57l-34 -18l-31 60l48 25q43 20 43 56q0 19 -12.5 29.5t-31.5 10.5q-33 0 -46 -32l-61 24q17 37 47 57.5t68 20.5zM588 0h-95l87 500h95zM344 74q81 0 137 57.5t56 138.5q0 70 -47 114.5t-118 44.5q-80 0 -136 -58
t-56 -138q0 -70 47 -114.5t117 -44.5zM579 290q0 -80 -35 -150.5t-97.5 -112.5t-137.5 -42q-95 0 -160 65.5t-65 169.5q0 80 36.5 149.5t100.5 111t139 41.5q97 0 158 -65.5t61 -166.5z" />
    <glyph glyph-name="uni1EA5.ss01" horiz-adv-x="638" 
d="M783 850l-44 66l-189 -139l40 -61zM422 771l-195 -146l38 -62l160 123l115 -131l55 52l-146 162zM588 0h-95l87 500h95zM344 74q81 0 137 57.5t56 138.5q0 70 -47 114.5t-118 44.5q-80 0 -136 -58t-56 -138q0 -70 47 -114.5t117 -44.5zM579 290q0 -80 -35 -150.5
t-97.5 -112.5t-137.5 -42q-95 0 -160 65.5t-65 169.5q0 80 36.5 149.5t100.5 111t139 41.5q97 0 158 -65.5t61 -166.5z" />
    <glyph glyph-name="uni1EA7.ss01" horiz-adv-x="638" 
d="M500 878l55 56l146 -168l-52 -50zM422 771l-195 -146l38 -62l160 123l115 -131l55 52l-146 162zM588 0h-95l87 500h95zM344 74q81 0 137 57.5t56 138.5q0 70 -47 114.5t-118 44.5q-80 0 -136 -58t-56 -138q0 -70 47 -114.5t117 -44.5zM579 290q0 -80 -35 -150.5
t-97.5 -112.5t-137.5 -42q-95 0 -160 65.5t-65 169.5q0 80 36.5 149.5t100.5 111t139 41.5q97 0 158 -65.5t61 -166.5z" />
    <glyph glyph-name="uni1EA9.ss01" horiz-adv-x="638" 
d="M641 957q47 0 77 -28t30 -74q0 -45 -24 -74t-73 -57l-34 -18l-31 60l48 25q43 20 43 56q0 19 -12.5 29.5t-31.5 10.5q-33 0 -46 -32l-61 24q17 37 47 57.5t68 20.5zM422 771l-195 -146l38 -62l160 123l115 -131l55 52l-146 162zM588 0h-95l87 500h95zM344 74
q81 0 137 57.5t56 138.5q0 70 -47 114.5t-118 44.5q-80 0 -136 -58t-56 -138q0 -70 47 -114.5t117 -44.5zM579 290q0 -80 -35 -150.5t-97.5 -112.5t-137.5 -42q-95 0 -160 65.5t-65 169.5q0 80 36.5 149.5t100.5 111t139 41.5q97 0 158 -65.5t61 -166.5z" />
    <glyph glyph-name="uni1EAB.ss01" horiz-adv-x="638" 
d="M384 947q-86 0 -130 -125l68 -18q25 70 59 70q13 0 23 -6.5t25 -24.5q23 -25 42.5 -35t44.5 -10q43 0 76 33t54 92l-66 18q-26 -67 -66 -67q-13 0 -23.5 6.5t-24.5 23.5q-22 24 -39.5 33.5t-42.5 9.5zM422 771l-195 -146l38 -62l160 123l115 -131l55 52l-146 162zM588 0
h-95l87 500h95zM344 74q81 0 137 57.5t56 138.5q0 70 -47 114.5t-118 44.5q-80 0 -136 -58t-56 -138q0 -70 47 -114.5t117 -44.5zM579 290q0 -80 -35 -150.5t-97.5 -112.5t-137.5 -42q-95 0 -160 65.5t-65 169.5q0 80 36.5 149.5t100.5 111t139 41.5q97 0 158 -65.5
t61 -166.5z" />
    <glyph glyph-name="uni1EAD.ss01" horiz-adv-x="638" 
d="M428 771l-195 -146l38 -62l160 123l115 -131l55 52l-146 162zM244 -141q0 26 18 43.5t44 17.5t43.5 -17.5t17.5 -43.5t-17.5 -44t-43.5 -18t-44 18t-18 44zM588 0h-95l87 500h95zM344 74q81 0 137 57.5t56 138.5q0 70 -47 114.5t-118 44.5q-80 0 -136 -58t-56 -138
q0 -70 47 -114.5t117 -44.5zM579 290q0 -80 -35 -150.5t-97.5 -112.5t-137.5 -42q-95 0 -160 65.5t-65 169.5q0 80 36.5 149.5t100.5 111t139 41.5q97 0 158 -65.5t61 -166.5z" />
    <glyph glyph-name="uni1EAF.ss01" horiz-adv-x="638" 
d="M597 907l-44 66l-189 -139l40 -61zM408 575q-64 0 -105.5 38.5t-41.5 95.5q0 14 3 27h72q-2 -8 -2 -16q0 -33 22.5 -53.5t60.5 -20.5q42 0 76.5 26.5t41.5 63.5h82q-12 -65 -74 -113t-135 -48zM588 0h-95l87 500h95zM344 74q81 0 137 57.5t56 138.5q0 70 -47 114.5
t-118 44.5q-80 0 -136 -58t-56 -138q0 -70 47 -114.5t117 -44.5zM579 290q0 -80 -35 -150.5t-97.5 -112.5t-137.5 -42q-95 0 -160 65.5t-65 169.5q0 80 36.5 149.5t100.5 111t139 41.5q97 0 158 -65.5t61 -166.5z" />
    <glyph glyph-name="uni1EB1.ss01" horiz-adv-x="638" 
d="M314 935l55 56l146 -168l-52 -50zM408 575q-64 0 -105.5 38.5t-41.5 95.5q0 14 3 27h72q-2 -8 -2 -16q0 -33 22.5 -53.5t60.5 -20.5q42 0 76.5 26.5t41.5 63.5h82q-12 -65 -74 -113t-135 -48zM588 0h-95l87 500h95zM344 74q81 0 137 57.5t56 138.5q0 70 -47 114.5
t-118 44.5q-80 0 -136 -58t-56 -138q0 -70 47 -114.5t117 -44.5zM579 290q0 -80 -35 -150.5t-97.5 -112.5t-137.5 -42q-95 0 -160 65.5t-65 169.5q0 80 36.5 149.5t100.5 111t139 41.5q97 0 158 -65.5t61 -166.5z" />
    <glyph glyph-name="uni1EB3.ss01" horiz-adv-x="638" 
d="M455 1014q47 0 77 -28t30 -74q0 -45 -24 -74t-73 -57l-34 -18l-31 60l48 25q43 20 43 56q0 19 -12.5 29.5t-31.5 10.5q-33 0 -46 -32l-61 24q17 37 47 57.5t68 20.5zM408 575q-64 0 -105.5 38.5t-41.5 95.5q0 14 3 27h72q-2 -8 -2 -16q0 -33 22.5 -53.5t60.5 -20.5
q42 0 76.5 26.5t41.5 63.5h82q-12 -65 -74 -113t-135 -48zM588 0h-95l87 500h95zM344 74q81 0 137 57.5t56 138.5q0 70 -47 114.5t-118 44.5q-80 0 -136 -58t-56 -138q0 -70 47 -114.5t117 -44.5zM579 290q0 -80 -35 -150.5t-97.5 -112.5t-137.5 -42q-95 0 -160 65.5
t-65 169.5q0 80 36.5 149.5t100.5 111t139 41.5q97 0 158 -65.5t61 -166.5z" />
    <glyph glyph-name="uni1EB5.ss01" horiz-adv-x="638" 
d="M379 922q-86 0 -130 -125l68 -18q25 70 59 70q13 0 23 -6.5t25 -24.5q23 -25 42.5 -35t44.5 -10q43 0 76 33t54 92l-66 18q-26 -67 -66 -67q-13 0 -23.5 6.5t-24.5 23.5q-22 24 -39.5 33.5t-42.5 9.5zM408 575q-64 0 -105.5 38.5t-41.5 95.5q0 14 3 27h72q-2 -8 -2 -16
q0 -33 22.5 -53.5t60.5 -20.5q42 0 76.5 26.5t41.5 63.5h82q-12 -65 -74 -113t-135 -48zM588 0h-95l87 500h95zM344 74q81 0 137 57.5t56 138.5q0 70 -47 114.5t-118 44.5q-80 0 -136 -58t-56 -138q0 -70 47 -114.5t117 -44.5zM579 290q0 -80 -35 -150.5t-97.5 -112.5
t-137.5 -42q-95 0 -160 65.5t-65 169.5q0 80 36.5 149.5t100.5 111t139 41.5q97 0 158 -65.5t61 -166.5z" />
    <glyph glyph-name="uni1EB7.ss01" horiz-adv-x="638" 
d="M414 575q-64 0 -105.5 38.5t-41.5 95.5q0 14 3 27h72q-2 -8 -2 -16q0 -33 22.5 -53.5t60.5 -20.5q42 0 76.5 26.5t41.5 63.5h82q-12 -65 -74 -113t-135 -48zM244 -141q0 26 18 43.5t44 17.5t43.5 -17.5t17.5 -43.5t-17.5 -44t-43.5 -18t-44 18t-18 44zM588 0h-95l87 500
h95zM344 74q81 0 137 57.5t56 138.5q0 70 -47 114.5t-118 44.5q-80 0 -136 -58t-56 -138q0 -70 47 -114.5t117 -44.5zM579 290q0 -80 -35 -150.5t-97.5 -112.5t-137.5 -42q-95 0 -160 65.5t-65 169.5q0 80 36.5 149.5t100.5 111t139 41.5q97 0 158 -65.5t61 -166.5z" />
    </font>
</defs>
</svg>
