<?xml version="1.0" standalone="no"?>
<!DOCTYPE svg PUBLIC "-//W3C//DTD SVG 1.1//EN" "http://www.w3.org/Graphics/SVG/1.1/DTD/svg11.dtd" >
<svg xmlns="http://www.w3.org/2000/svg" xmlns:xlink="http://www.w3.org/1999/xlink" version="1.1">
<metadata>
Created by FontForge 20201107 at Wed Jan 18 09:31:46 2023
 By 
Copyright (c) 2022, RandomMaerks (Bao Nguyen) || For more information, send an email to rmforbusuness@gmail.com
</metadata>
<defs>
<font id="Cygre-ExtraBoldIt" horiz-adv-x="788" >
  <font-face 
    font-family="Cygre ExtraBold"
    font-weight="800"
    font-style="italic"
    font-stretch="normal"
    units-per-em="1000"
    panose-1="2 0 8 3 0 0 0 0 0 0"
    ascent="800"
    descent="-200"
    x-height="500"
    cap-height="700"
    bbox="-112 -358 1515 1302"
    underline-thickness="50"
    underline-position="-100"
    unicode-range="U+0020-25CF"
  />
<missing-glyph horiz-adv-x="364" 
d="M33 0v666h265v-666h-265zM66 33h199v600h-199v-600z" />
    <glyph glyph-name="f_i" unicode="fi" horiz-adv-x="685" 
d="M444 608q-32 0 -53 -21t-27 -55l-6 -32h217l-24 -138h-217l-64 -362h-150l63 362h-92l24 138h92l14 80q12 72 71.5 121t139.5 49h102l-24 -142h-66zM590 647.5q0 37.5 25.5 63.5t63.5 26t63.5 -26t25.5 -63.5t-25.5 -63t-63.5 -25.5t-63.5 25.5t-25.5 63zM486 0l89 500
h152l-89 -500h-152z" />
    <glyph glyph-name="f_l" unicode="fl" horiz-adv-x="697" 
d="M444 608q-32 0 -53 -21t-27 -55l-6 -32h151l-25 -138h-150l-64 -362h-150l63 362h-92l24 138h92l14 80q12 72 71.5 121t139.5 49h195l-23 -142h-160zM495 0l132 750h153l-133 -750h-152z" />
    <glyph glyph-name="f_f_i" unicode="ffi" horiz-adv-x="1077" 
d="M444 608q-32 0 -53 -21t-27 -55l-6 -32h151l-24 -138h-151l-64 -362h-150l63 362h-92l24 138h92l14 80q12 72 71.5 121t139.5 49h102l-24 -142h-66zM834 608q-32 0 -52.5 -21t-27.5 -55l-6 -32h219l-24 -138h-219l-63 -362h-151l63 362h-88l24 138h88l14 80
q13 72 72.5 121t139.5 49h102l-24 -142h-67zM982 647.5q0 37.5 26 63.5t63.5 26t63 -26t25.5 -63.5t-25.5 -63t-63 -25.5t-63.5 25.5t-26 63zM878 0l89 500h152l-88 -500h-153z" />
    <glyph glyph-name="f_f_l" unicode="ffl" horiz-adv-x="1084" 
d="M444 608q-32 0 -53 -21t-27 -55l-6 -32h151l-24 -138h-151l-64 -362h-150l63 362h-92l24 138h92l14 80q12 72 71.5 121t139.5 49h102l-24 -142h-66zM831 608q-32 0 -53 -21t-27 -55l-6 -32h151l-25 -138h-150l-63 -362h-151l63 362h-85l24 138h85l14 80q13 72 72 121
t140 49h194l-24 -142h-159zM882 0l132 750h153l-133 -750h-152z" />
    <glyph glyph-name="f_f" unicode="ff" horiz-adv-x="832" 
d="M444 608q-33 0 -53.5 -21.5t-26.5 -54.5l-6 -32h151l-24 -138h-151l-64 -362h-150l63 362h-92l24 138h92l14 80q13 72 72 121t139 49h102l-24 -142h-66zM832 608q-32 0 -52.5 -21.5t-27.5 -54.5l-6 -32h152l-25 -138h-150l-64 -362h-151l63 362h-86l24 138h86l14 80
q13 72 72.5 121t139.5 49h102l-24 -142h-67z" />
    <glyph glyph-name=".notdef" horiz-adv-x="364" 
d="M33 0v666h265v-666h-265zM66 33h199v600h-199v-600z" />
    <glyph glyph-name=".null" horiz-adv-x="0" 
 />
    <glyph glyph-name="nonmarkingreturn" horiz-adv-x="333" 
 />
    <glyph glyph-name="space" unicode=" " horiz-adv-x="270" 
 />
    <glyph glyph-name="exclam" unicode="!" horiz-adv-x="251" 
d="M50 81q0 43 27 72t68 29q44 0 73.5 -29t29.5 -72t-28.5 -71t-71 -28t-70.5 28t-28 71zM238 238h-134l65 462h167z" />
    <glyph glyph-name="quotedbl" unicode="&#x22;" horiz-adv-x="443" 
d="M422 778l125 -50l-101 -240l-121 48zM220 778l125 -50l-101 -240l-121 48z" />
    <glyph glyph-name="numbersign" unicode="#" horiz-adv-x="739" 
d="M812 557l-26 -147h-688l26 147h688zM769 313l-26 -147h-688l26 147h688zM451 0h-165l385 700h166zM191 0h-165l385 700h166z" />
    <glyph glyph-name="dollar" unicode="$" horiz-adv-x="484" 
d="M302 208q22 0 35.5 10t13.5 26q0 24 -65 40q-169 37 -169 150q0 72 56 125.5t144 53.5q76 0 136.5 -41.5t77.5 -110.5l-151 -29q-4 17 -20 34.5t-46 17.5q-20 0 -32.5 -9.5t-12.5 -24.5q0 -27 68 -41q81 -17 124 -56t43 -94q0 -71 -56.5 -121.5t-147.5 -50.5
q-82 0 -145.5 42t-81.5 111l151 31q5 -21 24.5 -42t53.5 -21zM273 571l27 129h133l-27 -129h-133zM205 151h134l-29 -151h-134z" />
    <glyph glyph-name="percent" unicode="%" horiz-adv-x="1052" 
d="M861 268q-35 0 -59 -25t-24 -61q0 -30 20 -49.5t51 -19.5q35 0 59 25t24 60q0 31 -20 50.5t-51 19.5zM643 168q0 96 67.5 164.5t161.5 68.5q84 0 139.5 -53.5t55.5 -135.5q0 -95 -67.5 -163.5t-161.5 -68.5q-85 0 -140 53.5t-55 134.5zM325 586q-35 0 -59 -25t-24 -60
q0 -30 20 -49.5t51 -19.5q35 0 59 24.5t24 60.5q0 30 -20 49.5t-51 19.5zM107 487q0 96 67.5 164.5t161.5 68.5q84 0 139.5 -53.5t55.5 -135.5q0 -96 -67.5 -164.5t-161.5 -68.5q-85 0 -140 53.5t-55 135.5zM465 0h-166l411 700h166z" />
    <glyph glyph-name="ampersand" unicode="&#x26;" horiz-adv-x="696" 
d="M367 605q20 0 33.5 -11.5t13.5 -28.5t-13.5 -35.5t-35.5 -33.5l-33 -21l-10 18q-19 30 -19 50q0 25 19 43.5t45 18.5zM551 585q0 65 -48.5 106.5t-125.5 41.5q-88 0 -149.5 -56t-61.5 -136q0 -63 47 -130l16 -23l-47 -30q-51 -30 -81.5 -81t-30.5 -106q0 -81 64.5 -134
t163.5 -53q87 0 146 50l33 30l71 -105l114 82l-68 99l101 72l-83 113l-99 -72l-94 135l29 18q45 26 74 77t29 102zM303 133q-31 0 -51 19.5t-20 48.5q0 39 39 67l35 25l86 -119l-29 -23q-23 -18 -60 -18z" />
    <glyph glyph-name="quotesingle" unicode="'" horiz-adv-x="241" 
d="M220 778l125 -50l-101 -240l-121 48z" />
    <glyph glyph-name="parenleft" unicode="(" horiz-adv-x="343" 
d="M82 273l38 212q19 108 94.5 184t181.5 95l24 -151q-58 -9 -101 -52.5t-54 -106.5l-31 -179q-3 -18 -3 -36q0 -54 29 -93.5t79 -53.5l-73 -141q-87 29 -138 99t-51 162q0 28 5 61z" />
    <glyph glyph-name="parenright" unicode=")" horiz-adv-x="343" 
d="M388 438l-37 -213q-19 -107 -94.5 -183t-182.5 -95l-23 150q59 10 101.5 53t53.5 106l31 178q3 19 3 37q0 54 -29 93.5t-78 53.5l72 142q87 -29 138 -99.5t51 -162.5q0 -30 -6 -60z" />
    <glyph glyph-name="asterisk" unicode="*" horiz-adv-x="517" 
d="M331 809l134 -24l-34 -136l139 27l19 -136l-141 -10l71 -123l-124 -59l-53 130l-95 -104l-96 98l108 90l-128 59l64 122l119 -75z" />
    <glyph glyph-name="plus" unicode="+" horiz-adv-x="435" 
d="M233 458h131l-22 -126h126l-23 -131h-126l-22 -127h-131l22 127h-127l23 131h127z" />
    <glyph glyph-name="comma" unicode="," horiz-adv-x="260" 
d="M101 168l147 -39l-114 -290l-116 30z" />
    <glyph glyph-name="hyphen" unicode="-" horiz-adv-x="435" 
d="M468 332l-23 -131h-384l23 131h384z" />
    <glyph glyph-name="period" unicode="." horiz-adv-x="260" 
d="M50 81q0 43 27 72t68 29q44 0 73.5 -29t29.5 -72t-28.5 -71t-71 -28t-70.5 28t-28 71z" />
    <glyph glyph-name="slash" unicode="/" horiz-adv-x="480" 
d="M202 0h-175l376 700h175z" />
    <glyph glyph-name="zero" unicode="0" horiz-adv-x="648" 
d="M536 411q0 70 -34 113t-88 43q-57 0 -103.5 -50.5t-59.5 -128.5l-9 -53q-5 -20 -5 -47q0 -70 34 -113t88 -43q57 0 103.5 50.5t60.5 128.5l9 53q4 25 4 47zM346 -18q-113 0 -186.5 82t-73.5 210q0 41 7 75l9 53q24 137 116 226t209 89q114 0 187 -82t73 -210
q0 -41 -7 -75l-9 -53q-24 -137 -116 -226t-209 -89z" />
    <glyph glyph-name="one" unicode="1" horiz-adv-x="467" 
d="M538 700l-124 -700h-150l93 531l-176 -108l-61 122l257 155h161z" />
    <glyph glyph-name="two" unicode="2" horiz-adv-x="571" 
d="M373 560q42 0 69 -24t27 -61q0 -12 -3 -23t-11 -21.5t-15.5 -18t-23.5 -19t-27 -18.5t-34 -21.5t-38 -23.5l-250 -151l-21 -179h500l17 150h-293l161 92q40 22 70.5 45t59 53t43.5 68.5t15 81.5q0 95 -66 158t-169 63q-88 0 -155.5 -49.5t-107.5 -129.5l139 -55
q41 83 113 83z" />
    <glyph glyph-name="three" unicode="3" horiz-adv-x="571" 
d="M310 -11q114 0 189 72.5t75 183.5q0 63 -31 107.5t-86 59.5l171 118l21 170h-492l-17 -150h313l-175 -106l6 -106q66 -5 102.5 -32.5t36.5 -71.5q0 -42 -29 -68.5t-76 -26.5q-49 0 -78.5 27t-32.5 73l-146 -36q10 -99 77 -156.5t172 -57.5z" />
    <glyph glyph-name="four" unicode="4" horiz-adv-x="623" 
d="M243 320h162l35 195zM623 700l-67 -380h100l-26 -147h-100l-31 -173h-150l30 173h-313l21 182l350 345h186z" />
    <glyph glyph-name="five" unicode="5" horiz-adv-x="571" 
d="M584 261q0 94 -50.5 155t-127.5 61q-72 0 -138 -42l21 115h329l17 150h-471l-61 -350l142 -49q46 41 99 41q39 0 63.5 -25t24.5 -64q0 -49 -32 -81.5t-80 -32.5q-44 0 -70.5 24.5t-28.5 66.5l-155 -35q10 -94 77 -150t168 -56q116 0 194.5 78.5t78.5 193.5z" />
    <glyph glyph-name="six" unicode="6" horiz-adv-x="610" 
d="M84 240q0 102 28.5 191t77.5 150.5t116 96.5t142 35q77 0 139 -33.5t89 -91.5l-104 -101q-18 35 -57.5 56t-86.5 21q-62 0 -109 -46t-66 -125q28 39 72 61t94 22q88 0 146 -61.5t58 -155.5q0 -116 -82 -197t-200.5 -81t-187.5 70t-69 189zM356 330q-51 0 -85.5 -28.5
t-34.5 -70.5q0 -41 34.5 -70.5t84 -29.5t83 31.5t33.5 75.5q0 41 -32 66.5t-83 25.5z" />
    <glyph glyph-name="seven" unicode="7" horiz-adv-x="549" 
d="M319 0l303 543l19 157h-490l-17 -148h311l-313 -552h187z" />
    <glyph glyph-name="eight" unicode="8" horiz-adv-x="598" 
d="M334 289q-49 0 -82 -23.5t-33 -56.5t35 -55t87 -22q48 0 80 21.5t32 55.5t-34.5 57t-84.5 23zM144 513q0 86 72.5 145.5t178.5 59.5q104 0 173.5 -53.5t69.5 -134.5q0 -57 -39.5 -103.5t-104.5 -68.5q50 -27 77.5 -70.5t27.5 -94.5q0 -90 -77 -150.5t-191 -60.5t-190 56
t-76 141q0 61 45.5 112t120.5 73q-41 26 -64 64.5t-23 84.5zM290 498q0 -29 28.5 -48t70.5 -19q40 0 67.5 19.5t27.5 49.5q0 29 -28.5 48.5t-69.5 19.5t-68.5 -20t-27.5 -50z" />
    <glyph glyph-name="nine" unicode="9" horiz-adv-x="610" 
d="M649 454q0 -102 -28.5 -191t-77.5 -150.5t-115.5 -96.5t-141.5 -35q-78 0 -140 33.5t-88 91.5l103 101q18 -35 57.5 -56t87.5 -21q61 0 108 46t66 125q-28 -39 -72 -61t-94 -22q-88 0 -146 61.5t-58 155.5q0 116 82 197t200.5 81t187.5 -70t69 -189zM377 364
q51 0 85.5 28.5t34.5 70.5q0 41 -34.5 70.5t-84 29.5t-83 -31.5t-33.5 -75.5q0 -41 32 -66.5t83 -25.5z" />
    <glyph glyph-name="colon" unicode=":" horiz-adv-x="260" 
d="M110 412q0 44 27 73t68 29q44 0 73.5 -29t29.5 -73q0 -42 -28.5 -70.5t-71 -28.5t-70.5 28.5t-28 70.5zM50 81q0 43 27 72t68 29q44 0 73.5 -29t29.5 -72t-28.5 -71t-71 -28t-70.5 28t-28 71z" />
    <glyph glyph-name="semicolon" unicode=";" horiz-adv-x="260" 
d="M101 168l147 -39l-114 -290l-116 30zM107 412q0 44 27 73t68 29q44 0 73.5 -29t29.5 -73q0 -42 -28.5 -70.5t-71 -28.5t-70.5 28.5t-28 70.5z" />
    <glyph glyph-name="less" unicode="&#x3c;" horiz-adv-x="508" 
d="M508 169l-28 -149l-419 148l35 197l471 148l-27 -163l-332 -88z" />
    <glyph glyph-name="equal" unicode="=" horiz-adv-x="435" 
d="M451 235l-23 -131h-384l23 131h384zM488 446l-23 -130h-383l23 130h383z" />
    <glyph glyph-name="greater" unicode="&#x3e;" horiz-adv-x="508" 
d="M97 366l25 147l419 -148l-35 -197l-471 -148l30 165l332 88z" />
    <glyph glyph-name="question" unicode="?" horiz-adv-x="551" 
d="M179 82q0 43 27.5 71.5t69.5 28.5q43 0 72 -29t29 -72t-28.5 -71t-71 -28t-70.5 28.5t-28 71.5zM363 561q36 0 58 -20t22 -51q0 -34 -19.5 -57.5t-64.5 -40.5l-94 -32l26 -130l106 36q196 65 196 239q0 91 -61 148.5t-157 57.5q-76 0 -139.5 -44.5t-104.5 -126.5l129 -63
q38 84 103 84z" />
    <glyph glyph-name="at" unicode="@" horiz-adv-x="793" 
d="M447 282q27 0 46 19.5t19 46.5q0 24 -15.5 39.5t-39.5 15.5q-28 0 -47 -19.5t-19 -47.5q0 -24 15.5 -39t40.5 -15zM549 375q0 -81 -46 -139.5t-109 -58.5q-52 0 -86.5 40.5t-34.5 102.5q0 78 47.5 136t111.5 58q52 0 84.5 -39t32.5 -100zM849 400q0 -107 -54 -175
t-139 -68q-62 0 -109 30.5t-47 70.5q0 4 1 10l40 232h118l-34 -190q-1 -6 -1 -12q0 -17 10 -26.5t28 -9.5q31 0 49.5 33.5t18.5 88.5q0 98 -70.5 162.5t-176.5 64.5q-119 0 -203.5 -84.5t-84.5 -204.5q0 -106 72.5 -173.5t185.5 -67.5q80 0 155 35l34 -99q-94 -44 -199 -44
q-160 0 -262.5 95.5t-102.5 244.5q0 113 55.5 208.5t150.5 151t207 55.5q152 0 255 -94t103 -234z" />
    <glyph glyph-name="A" unicode="A" horiz-adv-x="795" 
d="M213 0h-180l390 700h206l144 -700h-167l-102 529zM263 290h383l-25 -140h-383z" />
    <glyph glyph-name="B" unicode="B" horiz-adv-x="656" 
d="M467 423q30 0 54 22.5t24 51.5q0 24 -15.5 39.5t-40.5 15.5h-192l-24 -129h194zM428 148q32 0 55.5 22.5t23.5 52.5q0 26 -18 41t-47 15h-193l-23 -131h202zM655 224q0 -91 -71 -157.5t-171 -66.5h-366l124 700h356q78 0 126.5 -44t48.5 -113q0 -56 -32.5 -109t-84.5 -81
q34 -19 52 -53t18 -76z" />
    <glyph glyph-name="C" unicode="C" horiz-adv-x="778" 
d="M90 321q0 111 52.5 202.5t143.5 144t201 52.5q50 0 97.5 -14t92 -42t79.5 -77.5t54 -115.5l-146 -48q-16 67 -67.5 107t-122.5 40q-95 0 -163.5 -71.5t-68.5 -171.5q0 -84 55 -139.5t139 -55.5q62 0 116.5 34t87.5 92l135 -75q-58 -97 -149 -149.5t-200 -52.5
q-143 0 -239.5 97t-96.5 243z" />
    <glyph glyph-name="D" unicode="D" horiz-adv-x="706" 
d="M737 402q0 -111 -51.5 -203t-145.5 -145.5t-211 -53.5h-283l124 700h266q127 0 214 -86.5t87 -211.5zM344 146q109 0 174.5 71t65.5 173q0 74 -46 119t-121 45h-120l-72 -408h119z" />
    <glyph glyph-name="E" unicode="E" horiz-adv-x="587" 
d="M276 433h327l-25 -147h-327l-25 -139h351l-25 -147h-505l124 700h503l-26 -147h-351z" />
    <glyph glyph-name="F" unicode="F" horiz-adv-x="587" 
d="M276 433h327l-25 -147h-327l-50 -286h-154l124 700h503l-26 -147h-351z" />
    <glyph glyph-name="G" unicode="G" 
d="M484 570q-101 0 -172 -71t-71 -170q0 -87 56 -142t145 -55q72 0 126 36t72 99h-242l23 134h398q-2 -190 -107.5 -304.5t-279.5 -114.5q-150 0 -246 93.5t-96 239.5q0 110 55 203t148.5 147.5t203.5 54.5q113 0 199.5 -58.5t116.5 -154.5l-145 -58q-17 55 -67.5 88
t-116.5 33z" />
    <glyph glyph-name="H" unicode="H" horiz-adv-x="696" 
d="M47 0l123 700h151l-46 -269h293l47 269h151l-122 -700h-152l52 287h-294l-51 -287h-152z" />
    <glyph glyph-name="I" unicode="I" horiz-adv-x="253" 
d="M199 0h-152l123 700h151z" />
    <glyph glyph-name="J" unicode="J" horiz-adv-x="649" 
d="M211 258q13 -118 131 -118q56 0 95.5 36.5t50.5 99.5l74 424h151l-78 -447q-21 -116 -107 -190t-200 -74q-110 0 -182 63.5t-85 171.5z" />
    <glyph glyph-name="K" unicode="K" horiz-adv-x="679" 
d="M47 0l124 700h152l-49 -275h19l279 275h202l-358 -350l233 -350h-184l-191 272h-27l-48 -272h-152z" />
    <glyph glyph-name="L" unicode="L" horiz-adv-x="577" 
d="M226 147h351l-26 -147h-504l125 700h152z" />
    <glyph glyph-name="M" unicode="M" horiz-adv-x="836" 
d="M46 0l123 700h166l132 -375l270 375h182l-123 -700h-152l76 434l-231 -328h-96l-117 330l-77 -436h-153z" />
    <glyph glyph-name="N" unicode="N" horiz-adv-x="696" 
d="M47 0l123 700h178l184 -472l83 472h151l-122 -700h-178l-184 474l-83 -474h-152z" />
    <glyph glyph-name="O" unicode="O" 
d="M474 570q-96 0 -164 -70.5t-68 -170.5q0 -86 55 -141.5t140 -55.5q96 0 164.5 72t68.5 171q0 85 -55.5 140t-140.5 55zM91 326q0 106 51.5 197t140 144t192.5 53q147 0 246.5 -97.5t99.5 -243.5q0 -106 -52 -197.5t-140.5 -145.5t-192.5 -54q-147 0 -246 98.5t-99 245.5z
" />
    <glyph glyph-name="P" unicode="P" horiz-adv-x="643" 
d="M405 350q64 0 99.5 33.5t35.5 85.5q0 37 -27 60t-71 23h-145l-36 -202h144zM693 482q0 -121 -85.5 -200.5t-212.5 -79.5h-160l-36 -202h-152l124 700h289q96 0 164.5 -64t68.5 -154z" />
    <glyph glyph-name="Q" unicode="Q" 
d="M474 570q-96 0 -164 -70.5t-68 -170.5q0 -86 55 -141.5t140 -55.5q96 0 164.5 72t68.5 171q0 85 -55.5 140t-140.5 55zM91 326q0 106 51.5 197t140 144t192.5 53q147 0 246.5 -97.5t99.5 -243.5q0 -106 -52 -197.5t-140.5 -145.5t-192.5 -54q-147 0 -246 98.5t-99 245.5z
M698 -35l-318 336l110 102l318 -336z" />
    <glyph glyph-name="R" unicode="R" horiz-adv-x="644" 
d="M414 387q48 0 84.5 29t36.5 68q0 30 -25.5 49t-65.5 19h-148l-28 -165h146zM695 496q0 -91 -59 -156.5t-152 -82.5l125 -257h-168l-117 240h-82l-43 -240h-152l124 700h309q97 0 156 -58t59 -146z" />
    <glyph glyph-name="S" unicode="S" horiz-adv-x="590" 
d="M345 131q41 0 68 20t27 51q0 48 -107 75q-98 26 -151 80t-53 128q0 98 72 163.5t179 65.5q100 0 173.5 -54.5t93.5 -142.5l-153 -40q-10 43 -42.5 68.5t-75.5 25.5q-38 0 -63.5 -20.5t-25.5 -50.5q0 -24 24 -41.5t77 -32.5q100 -27 154.5 -83t54.5 -131q0 -96 -73 -160
t-183 -64q-102 0 -178 52t-98 136l157 57q10 -47 43.5 -74.5t79.5 -27.5z" />
    <glyph glyph-name="T" unicode="T" horiz-adv-x="611" 
d="M712 700l-26 -148h-205l-99 -552h-150l98 552h-210l26 148h566z" />
    <glyph glyph-name="U" unicode="U" horiz-adv-x="690" 
d="M369 -11q-118 0 -195 74t-77 190q0 28 5 56l68 391h151l-69 -394q-3 -19 -3 -37q0 -12 2.5 -26t11 -33.5t22.5 -34.5t39 -25.5t58 -10.5q58 0 99.5 37.5t53.5 104.5l73 419h151l-77 -442q-21 -119 -109.5 -194t-203.5 -75z" />
    <glyph glyph-name="V" unicode="V" horiz-adv-x="795" 
d="M711 700h180l-390 -700h-206l-144 700h167l102 -529z" />
    <glyph glyph-name="W" unicode="W" horiz-adv-x="1064" 
d="M982 700h165l-280 -700h-222l-33 474l-178 -474h-230l-49 700h160l34 -510l209 510h180l43 -510z" />
    <glyph glyph-name="X" unicode="X" horiz-adv-x="719" 
d="M693 0h-175l-105 268l-201 -268h-188l270 349l-146 351h175l106 -270l200 270h188l-269 -351z" />
    <glyph glyph-name="Y" unicode="Y" horiz-adv-x="691" 
d="M279 0h150l39 223l320 477h-182l-187 -293l-102 293h-171l172 -477z" />
    <glyph glyph-name="Z" unicode="Z" horiz-adv-x="628" 
d="M592 0l26 147h-353l420 379l30 174h-548l-26 -147h353l-418 -373l-32 -180h548z" />
    <glyph glyph-name="bracketleft" unicode="[" horiz-adv-x="363" 
d="M222 92h126l-25 -140h-280l142 806h281l-27 -148h-126z" />
    <glyph glyph-name="backslash" unicode="\" horiz-adv-x="480" 
d="M297 0l-147 700h157l147 -700h-157z" />
    <glyph glyph-name="bracketright" unicode="]" horiz-adv-x="363" 
d="M267 618h-126l24 140h281l-143 -806h-280l26 148h127z" />
    <glyph glyph-name="asciicircum" unicode="^" horiz-adv-x="488" 
d="M362 751l-215 -131l44 -94l173 110l136 -116l70 83l-171 145z" />
    <glyph glyph-name="underscore" unicode="_" horiz-adv-x="485" 
d="M477 97l-20 -114h-434l20 114h434z" />
    <glyph glyph-name="grave" unicode="`" horiz-adv-x="307" 
d="M147 654l77 82l157 -157l-72 -78z" />
    <glyph glyph-name="a" unicode="a" horiz-adv-x="528" 
d="M319 512q90 0 154 -53t64 -128q0 -13 -3 -26l-52 -305h-151l33 194l-95 -6q-57 -4 -57 -37q0 -34 55 -34q39 0 65 18.5t31 50.5h34q-14 -86 -69 -140.5t-129 -54.5q-62 0 -101 39t-39 101q0 72 53.5 117.5t141.5 50.5l131 9v5q1 5 1 8q0 24 -21 40.5t-50 16.5
q-26 0 -48.5 -13.5t-31.5 -35.5l-137 61q30 55 90.5 88.5t130.5 33.5z" />
    <glyph glyph-name="b" unicode="b" horiz-adv-x="638" 
d="M49 0l131 750h151l-131 -750h-151zM381 379q-57 0 -97 -41.5t-40 -99.5q0 -49 33.5 -81.5t83.5 -32.5q58 0 98 41.5t40 98.5q0 50 -33.5 82.5t-84.5 32.5zM191 206q0 80 33 151t92.5 115t129.5 44q89 0 147 -64.5t58 -165.5q0 -80 -34.5 -150.5t-95.5 -113.5t-132 -43
q-88 0 -143 63.5t-55 163.5z" />
    <glyph glyph-name="c" unicode="c" horiz-adv-x="592" 
d="M361 377q-56 0 -95 -41.5t-39 -100.5q0 -49 32 -80.5t82 -31.5q36 0 67.5 17t50.5 48l125 -76q-42 -62 -109 -96.5t-144 -34.5q-110 0 -182.5 68.5t-72.5 174.5q0 122 86.5 208.5t208.5 86.5q91 0 160 -47t93 -124l-147 -54q-10 38 -41.5 60.5t-74.5 22.5z" />
    <glyph glyph-name="d" unicode="d" horiz-adv-x="638" 
d="M593 0h-151l132 750h150zM349 124q58 0 98 41.5t40 98.5q0 50 -33.5 82.5t-84.5 32.5q-58 0 -98 -41.5t-40 -99.5q0 -49 33.5 -81.5t84.5 -32.5zM539 297q0 -80 -33 -151t-92.5 -115t-129.5 -44q-88 0 -146.5 64.5t-58.5 165.5q0 80 35 150.5t95.5 113.5t131.5 43
q88 0 143 -63.5t55 -163.5z" />
    <glyph glyph-name="e" unicode="e" horiz-adv-x="592" 
d="M458 325q-9 26 -35.5 41.5t-61.5 15.5q-40 0 -72 -18t-47 -50h219q-2 8 -3 11zM607 276q0 -35 -10 -78h-367q6 -35 37.5 -56.5t77.5 -21.5q35 0 64.5 15.5t46.5 42.5l122 -80q-89 -116 -239 -116q-115 0 -189.5 70t-74.5 178q0 120 83.5 205t202.5 85q105 0 175.5 -69.5
t70.5 -174.5z" />
    <glyph glyph-name="f" unicode="f" horiz-adv-x="443" 
d="M444 608q-33 0 -53.5 -21.5t-26.5 -54.5l-6 -32h151l-25 -138h-150l-64 -362h-150l63 362h-92l24 138h92l14 80q13 72 72 121t139 49h102l-24 -142h-66z" />
    <glyph glyph-name="g" unicode="g" horiz-adv-x="598" 
d="M505 311q0 -72 -30.5 -136.5t-85 -103.5t-117.5 -39q-83 0 -138.5 59.5t-55.5 151.5q0 111 73 194.5t172 83.5q82 0 132 -60t50 -150zM330 170q48 0 81 31t33 76q0 39 -29 64.5t-73 25.5q-48 0 -80.5 -31t-32.5 -76q0 -39 28.5 -64.5t72.5 -25.5zM165 12q13 -40 44.5 -63
t76.5 -23q43 0 74.5 22t37.5 57l86 495h151l-89 -509q-18 -101 -89.5 -160.5t-174.5 -59.5q-18 0 -40 2.5t-56 13t-63 27t-57 48t-41 73.5z" />
    <glyph glyph-name="h" unicode="h" horiz-adv-x="578" 
d="M48 0l132 750h153l-131 -750h-154zM379 0l46 276q8 46 -12.5 75.5t-60.5 29.5q-38 0 -65.5 -25.5t-35.5 -67.5h-53q18 98 82 161.5t146 63.5q86 0 129 -67t24 -174l-48 -272h-152z" />
    <glyph glyph-name="i" unicode="i" horiz-adv-x="246" 
d="M151 647.5q0 37.5 25.5 63.5t63.5 26t63.5 -26t25.5 -63.5t-25.5 -63t-63.5 -25.5t-63.5 25.5t-25.5 63zM47 0l89 500h152l-89 -500h-152z" />
    <glyph glyph-name="j" unicode="j" horiz-adv-x="246" 
d="M151 647.5q0 37.5 25.5 63.5t63.5 26t63.5 -26t25.5 -63.5t-25.5 -63t-63.5 -25.5t-63.5 25.5t-25.5 63zM-26 -62q30 0 50.5 22.5t26.5 58.5l85 481h152l-96 -541q-13 -72 -70 -121.5t-135 -49.5h-47l17 150h17z" />
    <glyph glyph-name="k" unicode="k" horiz-adv-x="587" 
d="M47 0l125 708h151l-65 -375h23l167 167h209l-259 -254l166 -246h-181l-126 180h-26l-32 -180h-152z" />
    <glyph glyph-name="l" unicode="l" horiz-adv-x="253" 
d="M51 0l132 750h153l-133 -750h-152z" />
    <glyph glyph-name="m" unicode="m" horiz-adv-x="840" 
d="M638 0l52 297q6 36 -11 60.5t-48 24.5t-54.5 -24t-28.5 -64h-47q15 104 71.5 161.5t131.5 57.5q72 0 113 -64t25 -156l-52 -293h-152zM51 0l88 500h152l-88 -500h-152zM345 0l51 292q6 37 -11 63.5t-48 26.5t-54.5 -24.5t-28.5 -66.5h-47q16 92 74 157t129 65
q72 0 113 -64t25 -156l-52 -293h-151z" />
    <glyph glyph-name="n" unicode="n" horiz-adv-x="578" 
d="M48 0l89 500h153l-88 -500h-154zM379 0l46 276q8 46 -12.5 75.5t-60.5 29.5q-38 0 -65.5 -25.5t-35.5 -67.5h-53q10 52 42.5 103.5t83 86.5t102.5 35q86 0 129 -67t24 -174l-48 -272h-152z" />
    <glyph glyph-name="o" unicode="o" horiz-adv-x="618" 
d="M364 378q-58 0 -98 -41.5t-40 -99.5q0 -50 34 -81.5t84 -31.5q58 0 98 41.5t40 99.5q0 50 -34 81.5t-84 31.5zM75 225q0 122 87 208.5t212 86.5q110 0 184.5 -68.5t74.5 -174.5q0 -122 -87 -208.5t-212 -86.5q-110 0 -184.5 68.5t-74.5 174.5z" />
    <glyph glyph-name="p" unicode="p" horiz-adv-x="638" 
d="M133 500h151l-123 -700h-151zM378 378q-58 0 -98 -42t-40 -99q0 -50 33.5 -82t84.5 -32q57 0 97.5 41.5t40.5 98.5q0 50 -33.5 82.5t-84.5 32.5zM187 204q0 81 33.5 152t92.5 115t130 44q88 0 146 -64.5t58 -166.5q0 -79 -34.5 -150t-95 -114t-131.5 -43q-89 0 -144 64
t-55 163z" />
    <glyph glyph-name="q" unicode="q" horiz-adv-x="638" 
d="M676 500l-123 -700h-150l122 700h151zM344 123q57 0 97 41.5t40 98.5q0 50 -33 82.5t-84 32.5q-58 0 -98 -42t-40 -99q0 -50 33.5 -82t84.5 -32zM534 296q0 -80 -33 -151t-92.5 -115t-129.5 -44q-89 0 -147 64.5t-58 165.5q0 80 34.5 150.5t95.5 113.5t132 43
q88 0 143 -63.5t55 -163.5z" />
    <glyph glyph-name="r" unicode="r" horiz-adv-x="386" 
d="M46 0l88 500h150l-86 -500h-152zM387 361q-51 0 -95 -32.5t-50 -73.5h-54q19 107 84 181t140 74h39l-25 -149h-39z" />
    <glyph glyph-name="s" unicode="s" horiz-adv-x="490" 
d="M281 109q22 0 35.5 10t13.5 25q0 25 -65 40q-169 38 -169 150q0 73 56 126.5t144 53.5q76 0 136.5 -42t77.5 -111l-152 -29q-3 18 -19.5 35.5t-45.5 17.5q-20 0 -32.5 -9.5t-12.5 -24.5q0 -28 68 -41q80 -18 123 -56.5t43 -94.5q0 -70 -56.5 -120.5t-146.5 -50.5
q-82 0 -145.5 41.5t-81.5 111.5l151 30q4 -20 23.5 -41t54.5 -21z" />
    <glyph glyph-name="t" unicode="t" horiz-adv-x="428" 
d="M351 137h80l-24 -137h-102q-77 0 -121 39t-44 103q0 18 3 34l33 186h-87l24 138h87l25 145l155 18l-29 -163h142l-25 -138h-141l-29 -164q-1 -7 -1 -13q0 -23 14.5 -35.5t39.5 -12.5z" />
    <glyph glyph-name="u" unicode="u" horiz-adv-x="561" 
d="M599 500l-88 -500h-152l88 500h152zM290 500l-53 -296q-6 -37 12 -60t54 -23q35 0 59.5 18.5t29.5 52.5h54q-15 -83 -77 -142.5t-138 -59.5q-79 0 -122 54.5t-26 150.5l54 305h153z" />
    <glyph glyph-name="v" unicode="v" horiz-adv-x="609" 
d="M510 500h161l-272 -500h-198l-86 500h152l51 -369z" />
    <glyph glyph-name="w" unicode="w" horiz-adv-x="912" 
d="M815 500h161l-226 -500h-215l-33 307l-137 -307h-197l-53 500h153l24 -355l164 355h155l45 -360z" />
    <glyph glyph-name="x" unicode="x" horiz-adv-x="587" 
d="M564 0h-163l-78 170l-115 -170h-186l206 260l-113 240h165l71 -170l122 170h183l-210 -260z" />
    <glyph glyph-name="y" unicode="y" horiz-adv-x="609" 
d="M507 500l-180 -330l-59 330h-153l100 -483l-121 -217h166l411 700h-164z" />
    <glyph glyph-name="z" unicode="z" horiz-adv-x="490" 
d="M461 0l23 130h-263l300 217l27 153h-429l-23 -130h236l-274 -217l-27 -153h430z" />
    <glyph glyph-name="braceleft" unicode="{" horiz-adv-x="391" 
d="M136 172q0 16 2.5 37t2.5 34q0 67 -64 67l25 146q39 0 63 21.5t30 57.5q16 91 88 153t172 77l23 -150q-58 -9 -100.5 -50t-52.5 -101q-16 -84 -77 -95q46 -18 46 -68q0 -13 -3 -32.5t-3 -32.5q0 -52 29.5 -90.5t78.5 -51.5l-73 -142q-85 24 -136 83t-51 137z" />
    <glyph glyph-name="bar" unicode="|" horiz-adv-x="253" 
d="M14 -200l176 1000h154l-177 -1000h-153z" />
    <glyph glyph-name="braceright" unicode="}" horiz-adv-x="391" 
d="M385 545q0 -14 -3 -34t-3 -34q0 -33 17 -51t47 -18l-25 -147q-37 0 -62 -21t-31 -58q-16 -89 -87 -151.5t-173 -77.5l-22 150q58 9 100 50t52 100q15 84 77 96q-25 9 -35.5 25t-10.5 42q0 13 3 33t3 33q0 51 -29 89.5t-79 52.5l73 142q86 -25 137 -84.5t51 -136.5z" />
    <glyph glyph-name="asciitilde" unicode="~" horiz-adv-x="480" 
d="M225 371q-107 0 -150 -143l95 -18q21 62 54 62q17 0 39 -22q51 -46 96 -46q105 0 148 143l-95 18q-21 -58 -57 -58q-22 0 -42 20q-24 25 -43.5 34.5t-44.5 9.5z" />
    <glyph glyph-name="exclamdown" unicode="&#xa1;" horiz-adv-x="251" 
d="M313 508q0 -43 -27.5 -72.5t-68.5 -29.5q-44 0 -73 29.5t-29 72.5t28 71t70.5 28t71 -28t28.5 -71zM125 350h133l-64 -461h-168z" />
    <glyph glyph-name="cent" unicode="&#xa2;" horiz-adv-x="592" 
d="M376 486q-55 0 -94.5 -41.5t-39.5 -100.5q0 -50 32 -81.5t82 -31.5q36 0 67.5 17.5t51.5 48.5l125 -77q-43 -61 -110 -95.5t-143 -34.5q-111 0 -183 68.5t-72 173.5q0 122 86 209t209 87q90 0 159 -47t93 -125l-147 -54q-10 38 -41.5 61t-74.5 23zM342 596l18 104h133
l-18 -104h-133zM257 118h134l-21 -118h-134z" />
    <glyph glyph-name="sterling" unicode="&#xa3;" horiz-adv-x="617" 
d="M617 147l-26 -147h-565l26 147h101l22 123h-82l26 147h82l14 78q18 102 91 165t167 63q173 0 218 -160l-154 -50q-12 60 -73 60q-37 0 -65 -22.5t-36 -65.5l-12 -68h197l-26 -147h-197l-21 -123h313z" />
    <glyph glyph-name="currency" unicode="&#xa4;" horiz-adv-x="401" 
d="M89 278q0 62 42 102l-33 44l65 46l30 -46q25 13 59 13q58 0 98 -41l45 33l47 -67l-46 -31q13 -26 13 -56q0 -61 -42 -101l33 -44l-64 -46l-31 46q-29 -13 -60 -13q-59 0 -97 40l-45 -31l-47 66l47 31q-14 27 -14 55zM248 338q-25 0 -42.5 -18t-17.5 -44t18 -43t44 -17
t43.5 18t17.5 44t-18 43t-45 17z" />
    <glyph glyph-name="yen" unicode="&#xa5;" horiz-adv-x="669" 
d="M563 161h-384l-17 -97h384zM587 297h-384l-17 -97h384zM268 0h151l57 326l292 374h-183l-165 -225l-103 225h-169l178 -374z" />
    <glyph glyph-name="brokenbar" unicode="&#xa6;" horiz-adv-x="253" 
d="M271 393h-150l72 407h150zM242 227l-75 -427h-151l76 427h150z" />
    <glyph glyph-name="section" unicode="&#xa7;" horiz-adv-x="484" 
d="M365 345q0 -25 -47 -34q-37 9 -54 19.5t-17 25.5q0 14 12.5 23t33.5 11q38 -9 55 -19.5t17 -25.5zM329 713q-85 0 -142 -49t-57 -122q0 -70 67 -114q-50 -14 -79 -44t-29 -69q0 -88 166 -126q41 -10 58 -20t17 -24q0 -16 -14 -26t-35 -10q-27 0 -46.5 16.5t-24.5 45.5
l-152 -30q17 -68 79.5 -110.5t144.5 -42.5q86 0 142.5 49t56.5 122q0 69 -65 113q49 12 77 42t28 69q0 87 -166 130q-40 10 -56.5 20.5t-16.5 23.5q0 15 14 25t34 10q27 0 46.5 -16.5t25.5 -45.5l151 30q-17 68 -79.5 110.5t-144.5 42.5z" />
    <glyph glyph-name="dieresis" unicode="&#xa8;" horiz-adv-x="488" 
d="M392 621q0 38 26 63.5t63.5 25.5t63 -25.5t25.5 -63.5t-25.5 -63.5t-63 -25.5t-63.5 25.5t-26 63.5zM139 621q0 38 25.5 63.5t63.5 25.5t63.5 -25.5t25.5 -63.5t-25.5 -63.5t-63.5 -25.5t-63.5 25.5t-25.5 63.5z" />
    <glyph glyph-name="copyright" unicode="&#xa9;" 
d="M461 427q-33 0 -57 -25t-24 -60q0 -29 19.5 -48t48.5 -19q43 0 69 42l79 -40q-27 -44 -69 -69.5t-88 -25.5q-64 0 -106.5 42.5t-42.5 107.5q0 77 53 132.5t127 55.5q56 0 96.5 -32t53.5 -85l-91 -28q-6 23 -24.5 37.5t-43.5 14.5zM479 620q-117 0 -199 -88t-82 -212
q0 -104 66 -171t167 -67q117 0 199.5 89t82.5 213q0 103 -66 169.5t-168 66.5zM99 310q0 112 52 206t141.5 149t194.5 55q141 0 233 -92t92 -233q0 -112 -52 -207t-142 -150.5t-195 -55.5q-140 0 -232 93t-92 235z" />
    <glyph glyph-name="ordfeminine" unicode="&#xaa;" horiz-adv-x="358" 
d="M351 700h91l-48 -277h-92zM393 367l-17 -96h-298l17 96h298zM280 618q-24 0 -41.5 -19t-17.5 -45q0 -22 14 -36t35 -14q24 0 40 19.5t16 45.5q0 21 -12.5 35t-33.5 14zM128 539q0 68 40.5 121t94.5 53q43 0 73 -33t30 -90q0 -69 -39 -122t-98 -53q-47 0 -74 36.5
t-27 87.5z" />
    <glyph glyph-name="guillemotleft" unicode="&#xab;" horiz-adv-x="616" 
d="M619 183l-29 -156l-235 133l35 205l285 142l-30 -174l-154 -73zM326 183l-30 -156l-235 141l35 197l285 142l-29 -174l-154 -73z" />
    <glyph glyph-name="logicalnot" unicode="&#xac;" horiz-adv-x="495" 
d="M536 373l-41 -228h-142l18 98h-302l23 130h444z" />
    <glyph glyph-name="uni00AD" unicode="&#xad;" horiz-adv-x="377" 
d="M410 332l-23 -131h-326l23 131h326z" />
    <glyph glyph-name="registered" unicode="&#xae;" 
d="M479 620q-117 0 -199 -88t-82 -212q0 -104 66 -171t167 -67q117 0 199.5 89t82.5 213q0 103 -66 169.5t-168 66.5zM99 310q0 112 52 206t141.5 149t194.5 55q141 0 233 -92t92 -233q0 -112 -52 -207t-142 -150.5t-195 -55.5q-140 0 -232 93t-92 235zM516 432h-100
l-12 -71h100q20 0 33.5 11.5t13.5 28.5q0 13 -10 22t-25 9zM520 294l78 -106h-106l-74 98h-28l-17 -98h-83l57 325h202q37 0 61.5 -30t24.5 -75q0 -40 -33 -73t-82 -41z" />
    <glyph glyph-name="macron" unicode="&#xaf;" horiz-adv-x="393" 
d="M491 700l-20 -114h-342l20 114h342z" />
    <glyph glyph-name="degree" unicode="&#xb0;" horiz-adv-x="466" 
d="M329 577q-33 0 -56.5 -24t-23.5 -58q0 -29 19.5 -47.5t48.5 -18.5q34 0 57.5 23.5t23.5 57.5q0 29 -19.5 48t-49.5 19zM115 481q0 95 66 162t159 67q83 0 137.5 -52.5t54.5 -133.5q0 -95 -66 -162t-159 -67q-83 0 -137.5 53t-54.5 133z" />
    <glyph glyph-name="plusminus" unicode="&#xb1;" horiz-adv-x="435" 
d="M419 52l-23 -131h-384l23 131h384zM239 492h131l-22 -127h126l-23 -130h-126l-23 -127h-131l23 127h-127l23 130h127z" />
    <glyph glyph-name="uni00B2" unicode="&#xb2;" horiz-adv-x="357" 
d="M452 708q11 59 -25 97.5t-98 38.5q-59 0 -102.5 -31.5t-68.5 -81.5l102 -38q15 34 42 34q12 0 18.5 -8.5t4.5 -22.5q-2 -11 -17.5 -23t-30 -19.5t-40.5 -18.5l-102 -45l-24 -133h298l20 113h-148l38 17q121 52 133 121z" />
    <glyph glyph-name="uni00B3" unicode="&#xb3;" horiz-adv-x="373" 
d="M356 669l108 47l22 124h-293l-18 -104h181l-81 -41l11 -74q21 0 31 -7.5t8 -19.5t-12.5 -19t-24.5 -7q-30 0 -31 31l-126 -20q5 -59 43.5 -93.5t101.5 -34.5q64 0 112.5 33t57.5 84q7 44 -18 72t-72 29z" />
    <glyph glyph-name="acute" unicode="&#xb4;" horiz-adv-x="299" 
d="M389 650l-59 95l-194 -126l57 -90z" />
    <glyph glyph-name="mu" unicode="&#xb5;" horiz-adv-x="613" 
d="M650 500l-88 -500h-151l88 500h151zM140 500h150l-123 -700h-151zM503 247q-19 -110 -75.5 -184t-121.5 -74q-66 0 -100 76t-15 182h54q-8 -49 18 -82.5t72 -33.5q45 0 78 32t42 84h48z" />
    <glyph glyph-name="paragraph" unicode="&#xb6;" horiz-adv-x="640" 
d="M589 0h-92l123 700h92zM140 484q0 87 70.5 151.5t168.5 64.5h177l-123 -700h-150l56 322h-17q-80 0 -131 45.5t-51 116.5z" />
    <glyph glyph-name="periodcentered" unicode="&#xb7;" horiz-adv-x="260" 
d="M98 368q0 42 27 71t67 29q43 0 72 -29t29 -71t-28 -70t-69.5 -28t-69.5 28t-28 70z" />
    <glyph glyph-name="cedilla" unicode="&#xb8;" horiz-adv-x="378" 
d="M205 -170q0 15 -7.5 23.5t-20.5 8.5q-14 0 -28 -12l-108 46l24 137l114 -10l-17 -100q33 30 71 30q39 0 64.5 -32.5t25.5 -81.5q0 -72 -48 -120.5t-120 -48.5q-66 0 -110.5 36t-51.5 94l118 30q1 -20 14.5 -32t34.5 -12q20 0 32.5 12.5t12.5 31.5z" />
    <glyph glyph-name="uni00B9" unicode="&#xb9;" horiz-adv-x="289" 
d="M408 839l-67 -381h-117l44 248l-59 -41l-48 84l128 90h119z" />
    <glyph glyph-name="ordmasculine" unicode="&#xba;" horiz-adv-x="358" 
d="M393 367l-17 -96h-298l17 96h298zM284 618q-26 0 -44 -18.5t-18 -44.5q0 -22 15 -36.5t38 -14.5q26 0 44 18.5t18 44.5q0 22 -15 36.5t-38 14.5zM130 545q0 69 47 117t115 48q59 0 98.5 -38t39.5 -95q0 -69 -47.5 -117t-114.5 -48q-60 0 -99 38t-39 95z" />
    <glyph glyph-name="guillemotright" unicode="&#xbb;" horiz-adv-x="616" 
d="M92 351l29 156l235 -142l-35 -197l-285 -141l29 175l155 72zM385 351l30 156l235 -142l-35 -197l-285 -141l29 175l154 72z" />
    <glyph glyph-name="onequarter" unicode="&#xbc;" horiz-adv-x="863" 
d="M613 157h55l13 77zM822 371l-37 -214h45l-17 -96h-45l-13 -72h-117l13 72h-168l19 109l190 201h130zM371 0h-175l376 700h175zM408 689l-67 -381h-117l44 248l-59 -41l-48 84l128 90h119z" />
    <glyph glyph-name="onehalf" unicode="&#xbd;" horiz-adv-x="831" 
d="M813 239q10 60 -26 98.5t-98 38.5q-58 0 -102 -32t-69 -82l102 -38q15 35 42 35q12 0 19 -9t4 -22q-2 -12 -17 -24t-30 -19t-40 -18l-103 -46l-24 -132h299l20 112h-149l38 18q121 51 134 120zM371 0h-175l376 700h175zM408 689l-67 -381h-117l44 248l-59 -41l-48 84
l128 90h119z" />
    <glyph glyph-name="threequarters" unicode="&#xbe;" horiz-adv-x="936" 
d="M686 157h55l13 77zM895 371l-37 -214h45l-17 -96h-45l-13 -72h-117l13 72h-168l19 109l190 201h130zM443 0h-175l376 700h175zM356 519l108 47l22 124h-293l-18 -104h181l-81 -41l11 -74q21 0 31 -7.5t8 -19.5t-12.5 -19t-24.5 -7q-30 0 -31 31l-126 -20
q5 -59 43.5 -93.5t101.5 -34.5q64 0 112.5 33t57.5 84q7 44 -18 72t-72 29z" />
    <glyph glyph-name="questiondown" unicode="&#xbf;" horiz-adv-x="551" 
d="M477 507q0 -43 -28 -71.5t-70 -28.5q-43 0 -72 29t-29 72t28.5 71t71 28t71 -28.5t28.5 -71.5zM292 28q-35 0 -57.5 20t-22.5 51q0 34 19.5 57.5t64.5 40.5l94 32l-26 130l-106 -36q-196 -65 -196 -239q0 -91 61 -148.5t157 -57.5q76 0 140 44.5t104 126.5l-129 63
q-38 -84 -103 -84z" />
    <glyph glyph-name="Agrave" unicode="&#xc0;" horiz-adv-x="795" 
d="M394 929l76 83l158 -157l-72 -78zM213 0h-180l390 700h206l144 -700h-167l-102 529zM263 290h383l-25 -140h-383z" />
    <glyph glyph-name="Aacute" unicode="&#xc1;" horiz-adv-x="795" 
d="M719 898l-59 95l-194 -127l57 -89zM213 0h-180l390 700h206l144 -700h-167l-102 529zM263 290h383l-25 -140h-383z" />
    <glyph glyph-name="Acircumflex" unicode="&#xc2;" horiz-adv-x="795" 
d="M562 993l-215 -131l44 -94l172 110l137 -117l69 84l-171 145zM213 0h-180l390 700h206l144 -700h-167l-102 529zM263 290h383l-25 -140h-383z" />
    <glyph glyph-name="Atilde" unicode="&#xc3;" horiz-adv-x="795" 
d="M484 944q-106 0 -149 -143l95 -18q20 62 53 62q17 0 40 -22q50 -46 96 -46q104 0 147 143l-94 18q-21 -58 -58 -58q-21 0 -41 20q-25 25 -44.5 34.5t-44.5 9.5zM213 0h-180l390 700h206l144 -700h-167l-102 529zM263 290h383l-25 -140h-383z" />
    <glyph glyph-name="Adieresis" unicode="&#xc4;" horiz-adv-x="795" 
d="M573 866q0 38 26 63.5t63.5 25.5t63.5 -25.5t26 -63.5t-26 -63.5t-63.5 -25.5t-63.5 25.5t-26 63.5zM326 866q0 38 26 63.5t63.5 25.5t63.5 -25.5t26 -63.5t-26 -63.5t-63.5 -25.5t-63.5 25.5t-26 63.5zM213 0h-180l390 700h206l144 -700h-167l-102 529zM263 290h383
l-25 -140h-383z" />
    <glyph glyph-name="Aring" unicode="&#xc5;" horiz-adv-x="795" 
d="M554 970q-22 0 -37.5 -15.5t-15.5 -38.5q0 -19 13 -31.5t33 -12.5q22 0 37.5 16t15.5 39q0 19 -13 31t-33 12zM405 907q0 65 46 112t111 47q57 0 95.5 -36.5t38.5 -93.5q0 -65 -46 -112t-111 -47q-57 0 -95.5 36.5t-38.5 93.5zM213 0h-180l390 700h206l144 -700h-167
l-102 529zM263 290h383l-25 -140h-383z" />
    <glyph glyph-name="AE" unicode="&#xc6;" horiz-adv-x="1032" 
d="M726 425h326l-26 -148h-326l-22 -129h349l-26 -148h-500l123 700h500l-26 -148h-349zM303 312h278l-26 -148h-278zM195 0h-171l484 700h126l-27 -154h-28z" />
    <glyph glyph-name="Ccedilla" unicode="&#xc7;" horiz-adv-x="778" 
d="M513 -170q0 15 -7.5 23.5t-20.5 8.5q-14 0 -28 -12l-108 46l24 137l114 -10l-17 -100q33 30 71 30q39 0 64.5 -32.5t25.5 -81.5q0 -72 -48 -120.5t-120 -48.5q-66 0 -110.5 36t-51.5 94l118 30q1 -20 14.5 -32t34.5 -12q20 0 32.5 12.5t12.5 31.5zM90 321
q0 111 52.5 202.5t143.5 144t201 52.5q50 0 97.5 -14t92 -42t79.5 -77.5t54 -115.5l-146 -48q-16 67 -67.5 107t-122.5 40q-95 0 -163.5 -71.5t-68.5 -171.5q0 -84 55 -139.5t139 -55.5q62 0 116.5 34t87.5 92l135 -75q-58 -97 -149 -149.5t-200 -52.5q-143 0 -239.5 97
t-96.5 243z" />
    <glyph glyph-name="Egrave" unicode="&#xc8;" horiz-adv-x="587" 
d="M286 929l76 83l158 -157l-72 -78zM276 433h327l-25 -147h-327l-25 -139h351l-25 -147h-505l124 700h503l-26 -147h-351z" />
    <glyph glyph-name="Eacute" unicode="&#xc9;" horiz-adv-x="587" 
d="M611 898l-59 95l-194 -127l57 -89zM276 433h327l-25 -147h-327l-25 -139h351l-25 -147h-505l124 700h503l-26 -147h-351z" />
    <glyph glyph-name="Ecircumflex" unicode="&#xca;" horiz-adv-x="587" 
d="M454 993l-215 -131l44 -94l172 110l137 -117l69 84l-171 145zM276 433h327l-25 -147h-327l-25 -139h351l-25 -147h-505l124 700h503l-26 -147h-351z" />
    <glyph glyph-name="Edieresis" unicode="&#xcb;" horiz-adv-x="587" 
d="M465 866q0 38 26 63.5t63.5 25.5t63.5 -25.5t26 -63.5t-26 -63.5t-63.5 -25.5t-63.5 25.5t-26 63.5zM218 866q0 38 26 63.5t63.5 25.5t63.5 -25.5t26 -63.5t-26 -63.5t-63.5 -25.5t-63.5 25.5t-26 63.5zM276 433h327l-25 -147h-327l-25 -139h351l-25 -147h-505l124 700
h503l-26 -147h-351z" />
    <glyph glyph-name="Igrave" unicode="&#xcc;" horiz-adv-x="253" 
d="M112 927l76 83l158 -157l-72 -78zM199 0h-152l123 700h151z" />
    <glyph glyph-name="Iacute" unicode="&#xcd;" horiz-adv-x="253" 
d="M437 896l-59 95l-194 -127l57 -89zM199 0h-152l123 700h151z" />
    <glyph glyph-name="Icircumflex" unicode="&#xce;" horiz-adv-x="253" 
d="M280 991l-215 -131l44 -94l172 110l137 -117l69 84l-171 145zM199 0h-152l123 700h151z" />
    <glyph glyph-name="Idieresis" unicode="&#xcf;" horiz-adv-x="253" 
d="M291 864q0 38 26 63.5t63.5 25.5t63.5 -25.5t26 -63.5t-26 -63.5t-63.5 -25.5t-63.5 25.5t-26 63.5zM44 864q0 38 26 63.5t63.5 25.5t63.5 -25.5t26 -63.5t-26 -63.5t-63.5 -25.5t-63.5 25.5t-26 63.5zM199 0h-152l123 700h151z" />
    <glyph glyph-name="Eth" unicode="&#xd0;" horiz-adv-x="714" 
d="M737 401q0 -111 -51.5 -202.5t-145.5 -145t-211 -53.5h-258l124 700h241q127 0 214 -87t87 -212zM344 146q109 0 174.5 71t65.5 173q0 74 -46 119t-121 45h-95l-72 -408h94zM425 424l-23 -131h-350l23 131h350z" />
    <glyph glyph-name="Ntilde" unicode="&#xd1;" horiz-adv-x="696" 
d="M430 942q-106 0 -149 -143l95 -18q20 62 53 62q17 0 40 -22q50 -46 96 -46q104 0 147 143l-94 18q-21 -58 -58 -58q-21 0 -41 20q-25 25 -44.5 34.5t-44.5 9.5zM47 0l123 700h178l184 -472l83 472h151l-122 -700h-178l-184 474l-83 -474h-152z" />
    <glyph glyph-name="Ograve" unicode="&#xd2;" 
d="M355 929l76 83l158 -157l-72 -78zM474 570q-96 0 -164 -70.5t-68 -170.5q0 -86 55 -141.5t140 -55.5q96 0 164.5 72t68.5 171q0 85 -55.5 140t-140.5 55zM91 326q0 106 51.5 197t140 144t192.5 53q147 0 246.5 -97.5t99.5 -243.5q0 -106 -52 -197.5t-140.5 -145.5
t-192.5 -54q-147 0 -246 98.5t-99 245.5z" />
    <glyph glyph-name="Oacute" unicode="&#xd3;" 
d="M680 898l-59 95l-194 -127l57 -89zM474 570q-96 0 -164 -70.5t-68 -170.5q0 -86 55 -141.5t140 -55.5q96 0 164.5 72t68.5 171q0 85 -55.5 140t-140.5 55zM91 326q0 106 51.5 197t140 144t192.5 53q147 0 246.5 -97.5t99.5 -243.5q0 -106 -52 -197.5t-140.5 -145.5
t-192.5 -54q-147 0 -246 98.5t-99 245.5z" />
    <glyph glyph-name="Ocircumflex" unicode="&#xd4;" 
d="M523 993l-215 -131l44 -94l172 110l137 -117l69 84l-171 145zM474 570q-96 0 -164 -70.5t-68 -170.5q0 -86 55 -141.5t140 -55.5q96 0 164.5 72t68.5 171q0 85 -55.5 140t-140.5 55zM91 326q0 106 51.5 197t140 144t192.5 53q147 0 246.5 -97.5t99.5 -243.5
q0 -106 -52 -197.5t-140.5 -145.5t-192.5 -54q-147 0 -246 98.5t-99 245.5z" />
    <glyph glyph-name="Otilde" unicode="&#xd5;" 
d="M445 944q-106 0 -149 -143l95 -18q20 62 53 62q17 0 40 -22q50 -46 96 -46q104 0 147 143l-94 18q-21 -58 -58 -58q-21 0 -41 20q-25 25 -44.5 34.5t-44.5 9.5zM474 570q-96 0 -164 -70.5t-68 -170.5q0 -86 55 -141.5t140 -55.5q96 0 164.5 72t68.5 171q0 85 -55.5 140
t-140.5 55zM91 326q0 106 51.5 197t140 144t192.5 53q147 0 246.5 -97.5t99.5 -243.5q0 -106 -52 -197.5t-140.5 -145.5t-192.5 -54q-147 0 -246 98.5t-99 245.5z" />
    <glyph glyph-name="Odieresis" unicode="&#xd6;" 
d="M534 866q0 38 26 63.5t63.5 25.5t63.5 -25.5t26 -63.5t-26 -63.5t-63.5 -25.5t-63.5 25.5t-26 63.5zM287 866q0 38 26 63.5t63.5 25.5t63.5 -25.5t26 -63.5t-26 -63.5t-63.5 -25.5t-63.5 25.5t-26 63.5zM474 570q-96 0 -164 -70.5t-68 -170.5q0 -86 55 -141.5t140 -55.5
q96 0 164.5 72t68.5 171q0 85 -55.5 140t-140.5 55zM91 326q0 106 51.5 197t140 144t192.5 53q147 0 246.5 -97.5t99.5 -243.5q0 -106 -52 -197.5t-140.5 -145.5t-192.5 -54q-147 0 -246 98.5t-99 245.5z" />
    <glyph glyph-name="multiply" unicode="&#xd7;" horiz-adv-x="435" 
d="M98 357l105 93l74 -93l106 93l81 -93l-108 -91l76 -90l-104 -93l-74 93l-107 -93l-81 93l108 90z" />
    <glyph glyph-name="Oslash" unicode="&#xd8;" 
d="M474 570q-96 0 -164 -70.5t-68 -170.5q0 -86 55 -141.5t140 -55.5q96 0 164.5 72t68.5 171q0 85 -55.5 140t-140.5 55zM91 326q0 106 51.5 197t140 144t192.5 53q147 0 246.5 -97.5t99.5 -243.5q0 -106 -52 -197.5t-140.5 -145.5t-192.5 -54q-147 0 -246 98.5t-99 245.5z
M828 609l-637 -637l-119 119l637 637z" />
    <glyph glyph-name="Ugrave" unicode="&#xd9;" horiz-adv-x="690" 
d="M332 927l76 83l158 -157l-72 -78zM369 -11q-118 0 -195 74t-77 190q0 28 5 56l68 391h151l-69 -394q-3 -19 -3 -37q0 -12 2.5 -26t11 -33.5t22.5 -34.5t39 -25.5t58 -10.5q58 0 99.5 37.5t53.5 104.5l73 419h151l-77 -442q-21 -119 -109.5 -194t-203.5 -75z" />
    <glyph glyph-name="Uacute" unicode="&#xda;" horiz-adv-x="690" 
d="M657 896l-59 95l-194 -127l57 -89zM369 -11q-118 0 -195 74t-77 190q0 28 5 56l68 391h151l-69 -394q-3 -19 -3 -37q0 -12 2.5 -26t11 -33.5t22.5 -34.5t39 -25.5t58 -10.5q58 0 99.5 37.5t53.5 104.5l73 419h151l-77 -442q-21 -119 -109.5 -194t-203.5 -75z" />
    <glyph glyph-name="Ucircumflex" unicode="&#xdb;" horiz-adv-x="690" 
d="M500 991l-215 -131l44 -94l172 110l137 -117l69 84l-171 145zM369 -11q-118 0 -195 74t-77 190q0 28 5 56l68 391h151l-69 -394q-3 -19 -3 -37q0 -12 2.5 -26t11 -33.5t22.5 -34.5t39 -25.5t58 -10.5q58 0 99.5 37.5t53.5 104.5l73 419h151l-77 -442
q-21 -119 -109.5 -194t-203.5 -75z" />
    <glyph glyph-name="Udieresis" unicode="&#xdc;" horiz-adv-x="690" 
d="M511 864q0 38 26 63.5t63.5 25.5t63.5 -25.5t26 -63.5t-26 -63.5t-63.5 -25.5t-63.5 25.5t-26 63.5zM264 864q0 38 26 63.5t63.5 25.5t63.5 -25.5t26 -63.5t-26 -63.5t-63.5 -25.5t-63.5 25.5t-26 63.5zM369 -11q-118 0 -195 74t-77 190q0 28 5 56l68 391h151l-69 -394
q-3 -19 -3 -37q0 -12 2.5 -26t11 -33.5t22.5 -34.5t39 -25.5t58 -10.5q58 0 99.5 37.5t53.5 104.5l73 419h151l-77 -442q-21 -119 -109.5 -194t-203.5 -75z" />
    <glyph glyph-name="Yacute" unicode="&#xdd;" horiz-adv-x="691" 
d="M667 898l-59 95l-194 -127l57 -89zM279 0h150l39 223l320 477h-182l-187 -293l-102 293h-171l172 -477z" />
    <glyph glyph-name="Thorn" unicode="&#xde;" horiz-adv-x="644" 
d="M218 107l-19 -107h-152l125 700h151l-17 -95h137q97 0 165 -64t68 -154q0 -121 -85.5 -200.5t-212.5 -79.5h-160zM280 457l-35 -202h143q65 0 100.5 33.5t35.5 85.5q0 37 -27.5 60t-71.5 23h-145z" />
    <glyph glyph-name="germandbls" unicode="&#xdf;" horiz-adv-x="686" 
d="M705 569q0 -70 -35 -118.5t-99 -69.5q50 -16 81 -65t31 -112q0 -94 -65 -156.5t-162 -62.5q-82 0 -135 45.5t-61 121.5l146 36q2 -24 17.5 -38.5t39.5 -14.5q31 0 53 27t22 66q0 38 -27.5 63.5t-69.5 25.5h-72l25 145h73q37 0 61 22.5t24 57.5q0 33 -28.5 52t-76.5 19
q-65 0 -110.5 -43.5t-58.5 -120.5l-79 -449h-152l84 471q23 130 115.5 210t219.5 80q107 0 173 -53t66 -139z" />
    <glyph glyph-name="agrave" unicode="&#xe0;" horiz-adv-x="528" 
d="M205 719l76 83l158 -157l-72 -78zM319 512q90 0 154 -53t64 -128q0 -13 -3 -26l-52 -305h-151l33 194l-95 -6q-57 -4 -57 -37q0 -34 55 -34q39 0 65 18.5t31 50.5h34q-14 -86 -69 -140.5t-129 -54.5q-62 0 -101 39t-39 101q0 72 53.5 117.5t141.5 50.5l131 9v5q1 5 1 8
q0 24 -21 40.5t-50 16.5q-26 0 -48.5 -13.5t-31.5 -35.5l-137 61q30 55 90.5 88.5t130.5 33.5z" />
    <glyph glyph-name="aacute" unicode="&#xe1;" horiz-adv-x="528" 
d="M530 688l-59 95l-194 -127l57 -89zM319 512q90 0 154 -53t64 -128q0 -13 -3 -26l-52 -305h-151l33 194l-95 -6q-57 -4 -57 -37q0 -34 55 -34q39 0 65 18.5t31 50.5h34q-14 -86 -69 -140.5t-129 -54.5q-62 0 -101 39t-39 101q0 72 53.5 117.5t141.5 50.5l131 9v5q1 5 1 8
q0 24 -21 40.5t-50 16.5q-26 0 -48.5 -13.5t-31.5 -35.5l-137 61q30 55 90.5 88.5t130.5 33.5z" />
    <glyph glyph-name="acircumflex" unicode="&#xe2;" horiz-adv-x="528" 
d="M373 783l-215 -131l44 -94l172 110l137 -117l69 84l-171 145zM319 512q90 0 154 -53t64 -128q0 -13 -3 -26l-52 -305h-151l33 194l-95 -6q-57 -4 -57 -37q0 -34 55 -34q39 0 65 18.5t31 50.5h34q-14 -86 -69 -140.5t-129 -54.5q-62 0 -101 39t-39 101q0 72 53.5 117.5
t141.5 50.5l131 9v5q1 5 1 8q0 24 -21 40.5t-50 16.5q-26 0 -48.5 -13.5t-31.5 -35.5l-137 61q30 55 90.5 88.5t130.5 33.5z" />
    <glyph glyph-name="atilde" unicode="&#xe3;" horiz-adv-x="528" 
d="M295 734q-106 0 -149 -143l95 -18q20 62 53 62q17 0 40 -22q50 -46 96 -46q104 0 147 143l-94 18q-21 -58 -58 -58q-21 0 -41 20q-25 25 -44.5 34.5t-44.5 9.5zM319 512q90 0 154 -53t64 -128q0 -13 -3 -26l-52 -305h-151l33 194l-95 -6q-57 -4 -57 -37q0 -34 55 -34
q39 0 65 18.5t31 50.5h34q-14 -86 -69 -140.5t-129 -54.5q-62 0 -101 39t-39 101q0 72 53.5 117.5t141.5 50.5l131 9v5q1 5 1 8q0 24 -21 40.5t-50 16.5q-26 0 -48.5 -13.5t-31.5 -35.5l-137 61q30 55 90.5 88.5t130.5 33.5z" />
    <glyph glyph-name="adieresis" unicode="&#xe4;" horiz-adv-x="528" 
d="M384 656q0 38 26 63.5t63.5 25.5t63.5 -25.5t26 -63.5t-26 -63.5t-63.5 -25.5t-63.5 25.5t-26 63.5zM137 656q0 38 26 63.5t63.5 25.5t63.5 -25.5t26 -63.5t-26 -63.5t-63.5 -25.5t-63.5 25.5t-26 63.5zM319 512q90 0 154 -53t64 -128q0 -13 -3 -26l-52 -305h-151l33 194
l-95 -6q-57 -4 -57 -37q0 -34 55 -34q39 0 65 18.5t31 50.5h34q-14 -86 -69 -140.5t-129 -54.5q-62 0 -101 39t-39 101q0 72 53.5 117.5t141.5 50.5l131 9v5q1 5 1 8q0 24 -21 40.5t-50 16.5q-26 0 -48.5 -13.5t-31.5 -35.5l-137 61q30 55 90.5 88.5t130.5 33.5z" />
    <glyph glyph-name="aring" unicode="&#xe5;" horiz-adv-x="528" 
d="M365 760q-22 0 -37.5 -15.5t-15.5 -38.5q0 -19 13 -31.5t33 -12.5q22 0 37.5 16t15.5 39q0 19 -13 31t-33 12zM216 697q0 65 46 112t111 47q57 0 95.5 -36.5t38.5 -93.5q0 -65 -46 -112t-111 -47q-57 0 -95.5 36.5t-38.5 93.5zM319 512q90 0 154 -53t64 -128
q0 -13 -3 -26l-52 -305h-151l33 194l-95 -6q-57 -4 -57 -37q0 -34 55 -34q39 0 65 18.5t31 50.5h34q-14 -86 -69 -140.5t-129 -54.5q-62 0 -101 39t-39 101q0 72 53.5 117.5t141.5 50.5l131 9v5q1 5 1 8q0 24 -21 40.5t-50 16.5q-26 0 -48.5 -13.5t-31.5 -35.5l-137 61
q30 55 90.5 88.5t130.5 33.5z" />
    <glyph glyph-name="ae" unicode="&#xe6;" horiz-adv-x="896" 
d="M906 276q0 -35 -10 -78h-367q6 -35 37.5 -56.5t77.5 -21.5q35 0 64.5 15.5t46.5 42.5l122 -80q-89 -116 -239 -116q-107 0 -177 70t-70 178q0 120 78.5 205t190.5 85q105 0 175.5 -69.5t70.5 -174.5zM757 326q-8 26 -35 41t-62 15q-40 0 -72 -18t-48 -50h220zM310 512
q83 0 137.5 -51.5t54.5 -129.5q0 -4 -3 -26l-11 -119q-12 -93 -74 -144t-165 -51q-84 0 -137 39t-53 101q0 72 53.5 117.5t141.5 50.5l131 9v5q1 5 1 8q0 24 -21 40.5t-50 16.5q-26 0 -48.5 -13.5t-31.5 -35.5l-137 61q29 55 87 88.5t125 33.5zM368 177l1 18l-100 -7
q-57 -3 -57 -36q0 -35 64 -35q36 0 62.5 18t29.5 42z" />
    <glyph glyph-name="ccedilla" unicode="&#xe7;" horiz-adv-x="592" 
d="M393 -170q0 15 -7.5 23.5t-20.5 8.5q-14 0 -28 -12l-108 46l24 137l114 -10l-17 -100q33 30 71 30q39 0 64.5 -32.5t25.5 -81.5q0 -72 -48 -120.5t-120 -48.5q-66 0 -110.5 36t-51.5 94l118 30q1 -20 14.5 -32t34.5 -12q20 0 32.5 12.5t12.5 31.5zM361 377
q-56 0 -95 -41.5t-39 -100.5q0 -49 32 -80.5t82 -31.5q36 0 67.5 17t50.5 48l125 -76q-42 -62 -109 -96.5t-144 -34.5q-110 0 -182.5 68.5t-72.5 174.5q0 122 86.5 208.5t208.5 86.5q91 0 160 -47t93 -124l-147 -54q-10 38 -41.5 60.5t-74.5 22.5z" />
    <glyph glyph-name="egrave" unicode="&#xe8;" horiz-adv-x="592" 
d="M239 720l76 83l158 -157l-72 -78zM458 325q-9 26 -35.5 41.5t-61.5 15.5q-40 0 -72 -18t-47 -50h219q-2 8 -3 11zM607 276q0 -35 -10 -78h-367q6 -35 37.5 -56.5t77.5 -21.5q35 0 64.5 15.5t46.5 42.5l122 -80q-89 -116 -239 -116q-115 0 -189.5 70t-74.5 178
q0 120 83.5 205t202.5 85q105 0 175.5 -69.5t70.5 -174.5z" />
    <glyph glyph-name="eacute" unicode="&#xe9;" horiz-adv-x="592" 
d="M564 689l-59 95l-194 -127l57 -89zM458 325q-9 26 -35.5 41.5t-61.5 15.5q-40 0 -72 -18t-47 -50h219q-2 8 -3 11zM607 276q0 -35 -10 -78h-367q6 -35 37.5 -56.5t77.5 -21.5q35 0 64.5 15.5t46.5 42.5l122 -80q-89 -116 -239 -116q-115 0 -189.5 70t-74.5 178
q0 120 83.5 205t202.5 85q105 0 175.5 -69.5t70.5 -174.5z" />
    <glyph glyph-name="ecircumflex" unicode="&#xea;" horiz-adv-x="592" 
d="M407 784l-215 -131l44 -94l172 110l137 -117l69 84l-171 145zM458 325q-9 26 -35.5 41.5t-61.5 15.5q-40 0 -72 -18t-47 -50h219q-2 8 -3 11zM607 276q0 -35 -10 -78h-367q6 -35 37.5 -56.5t77.5 -21.5q35 0 64.5 15.5t46.5 42.5l122 -80q-89 -116 -239 -116
q-115 0 -189.5 70t-74.5 178q0 120 83.5 205t202.5 85q105 0 175.5 -69.5t70.5 -174.5z" />
    <glyph glyph-name="edieresis" unicode="&#xeb;" horiz-adv-x="592" 
d="M418 657q0 38 26 63.5t63.5 25.5t63.5 -25.5t26 -63.5t-26 -63.5t-63.5 -25.5t-63.5 25.5t-26 63.5zM171 657q0 38 26 63.5t63.5 25.5t63.5 -25.5t26 -63.5t-26 -63.5t-63.5 -25.5t-63.5 25.5t-26 63.5zM458 325q-9 26 -35.5 41.5t-61.5 15.5q-40 0 -72 -18t-47 -50h219
q-2 8 -3 11zM607 276q0 -35 -10 -78h-367q6 -35 37.5 -56.5t77.5 -21.5q35 0 64.5 15.5t46.5 42.5l122 -80q-89 -116 -239 -116q-115 0 -189.5 70t-74.5 178q0 120 83.5 205t202.5 85q105 0 175.5 -69.5t70.5 -174.5z" />
    <glyph glyph-name="igrave" unicode="&#xec;" horiz-adv-x="246" 
d="M72 720l76 83l158 -157l-72 -78zM47 0l89 500h152l-89 -500h-152z" />
    <glyph glyph-name="iacute" unicode="&#xed;" horiz-adv-x="246" 
d="M397 689l-59 95l-194 -127l57 -89zM47 0l89 500h152l-89 -500h-152z" />
    <glyph glyph-name="icircumflex" unicode="&#xee;" horiz-adv-x="246" 
d="M240 784l-215 -131l44 -94l172 110l137 -117l69 84l-171 145zM47 0l89 500h152l-89 -500h-152z" />
    <glyph glyph-name="idieresis" unicode="&#xef;" horiz-adv-x="246" 
d="M251 657q0 38 26 63.5t63.5 25.5t63.5 -25.5t26 -63.5t-26 -63.5t-63.5 -25.5t-63.5 25.5t-26 63.5zM4 657q0 38 26 63.5t63.5 25.5t63.5 -25.5t26 -63.5t-26 -63.5t-63.5 -25.5t-63.5 25.5t-26 63.5zM47 0l89 500h152l-89 -500h-152z" />
    <glyph glyph-name="eth" unicode="&#xf0;" horiz-adv-x="610" 
d="M625 746l-298 -192l52 -80l296 187zM454 231q0 -40 -37.5 -69t-89.5 -29q-48 0 -79 24.5t-31 62.5q0 41 33 67.5t84 26.5t85.5 -24t34.5 -59zM65 201q0 -94 71.5 -156t181.5 -62q172 0 252 128q67 108 67 301q0 146 -67.5 239.5t-190.5 117.5l-69 -137q89 -23 135 -80
t46 -144q0 -17 -2 -36q-19 34 -69 56.5t-107 22.5q-101 0 -174.5 -74t-73.5 -176z" />
    <glyph glyph-name="ntilde" unicode="&#xf1;" horiz-adv-x="578" 
d="M332 735q-106 0 -149 -143l95 -18q20 62 53 62q17 0 40 -22q50 -46 96 -46q104 0 147 143l-94 18q-21 -58 -58 -58q-21 0 -41 20q-25 25 -44.5 34.5t-44.5 9.5zM48 0l89 500h153l-88 -500h-154zM379 0l46 276q8 46 -12.5 75.5t-60.5 29.5q-38 0 -65.5 -25.5t-35.5 -67.5
h-53q10 52 42.5 103.5t83 86.5t102.5 35q86 0 129 -67t24 -174l-48 -272h-152z" />
    <glyph glyph-name="ograve" unicode="&#xf2;" horiz-adv-x="618" 
d="M262 719l76 83l158 -157l-72 -78zM364 378q-58 0 -98 -41.5t-40 -99.5q0 -50 34 -81.5t84 -31.5q58 0 98 41.5t40 99.5q0 50 -34 81.5t-84 31.5zM75 225q0 122 87 208.5t212 86.5q110 0 184.5 -68.5t74.5 -174.5q0 -122 -87 -208.5t-212 -86.5q-110 0 -184.5 68.5
t-74.5 174.5z" />
    <glyph glyph-name="oacute" unicode="&#xf3;" horiz-adv-x="618" 
d="M587 688l-59 95l-194 -127l57 -89zM364 378q-58 0 -98 -41.5t-40 -99.5q0 -50 34 -81.5t84 -31.5q58 0 98 41.5t40 99.5q0 50 -34 81.5t-84 31.5zM75 225q0 122 87 208.5t212 86.5q110 0 184.5 -68.5t74.5 -174.5q0 -122 -87 -208.5t-212 -86.5q-110 0 -184.5 68.5
t-74.5 174.5z" />
    <glyph glyph-name="ocircumflex" unicode="&#xf4;" horiz-adv-x="618" 
d="M430 783l-215 -131l44 -94l172 110l137 -117l69 84l-171 145zM364 378q-58 0 -98 -41.5t-40 -99.5q0 -50 34 -81.5t84 -31.5q58 0 98 41.5t40 99.5q0 50 -34 81.5t-84 31.5zM75 225q0 122 87 208.5t212 86.5q110 0 184.5 -68.5t74.5 -174.5q0 -122 -87 -208.5t-212 -86.5
q-110 0 -184.5 68.5t-74.5 174.5z" />
    <glyph glyph-name="otilde" unicode="&#xf5;" horiz-adv-x="618" 
d="M352 734q-106 0 -149 -143l95 -18q20 62 53 62q17 0 40 -22q50 -46 96 -46q104 0 147 143l-94 18q-21 -58 -58 -58q-21 0 -41 20q-25 25 -44.5 34.5t-44.5 9.5zM364 378q-58 0 -98 -41.5t-40 -99.5q0 -50 34 -81.5t84 -31.5q58 0 98 41.5t40 99.5q0 50 -34 81.5t-84 31.5
zM75 225q0 122 87 208.5t212 86.5q110 0 184.5 -68.5t74.5 -174.5q0 -122 -87 -208.5t-212 -86.5q-110 0 -184.5 68.5t-74.5 174.5z" />
    <glyph glyph-name="odieresis" unicode="&#xf6;" horiz-adv-x="618" 
d="M441 656q0 38 26 63.5t63.5 25.5t63.5 -25.5t26 -63.5t-26 -63.5t-63.5 -25.5t-63.5 25.5t-26 63.5zM194 656q0 38 26 63.5t63.5 25.5t63.5 -25.5t26 -63.5t-26 -63.5t-63.5 -25.5t-63.5 25.5t-26 63.5zM364 378q-58 0 -98 -41.5t-40 -99.5q0 -50 34 -81.5t84 -31.5
q58 0 98 41.5t40 99.5q0 50 -34 81.5t-84 31.5zM75 225q0 122 87 208.5t212 86.5q110 0 184.5 -68.5t74.5 -174.5q0 -122 -87 -208.5t-212 -86.5q-110 0 -184.5 68.5t-74.5 174.5z" />
    <glyph glyph-name="divide" unicode="&#xf7;" horiz-adv-x="435" 
d="M199 466q0 43 27.5 72t68.5 29q44 0 73 -29t29 -72t-28 -71t-70.5 -28t-71 28t-28.5 71zM124 61q0 43 27.5 72t68.5 29q44 0 73 -29t29 -72t-28 -71.5t-70.5 -28.5t-71 28.5t-28.5 71.5zM469 332l-23 -131h-384l23 131h384z" />
    <glyph glyph-name="oslash" unicode="&#xf8;" horiz-adv-x="618" 
d="M364 378q-58 0 -98 -41.5t-40 -99.5q0 -50 34 -81.5t84 -31.5q58 0 98 41.5t40 99.5q0 50 -34 81.5t-84 31.5zM75 225q0 122 87 208.5t212 86.5q110 0 184.5 -68.5t74.5 -174.5q0 -122 -87 -208.5t-212 -86.5q-110 0 -184.5 68.5t-74.5 174.5zM566 534l68 -69l-495 -495
l-68 69z" />
    <glyph glyph-name="ugrave" unicode="&#xf9;" horiz-adv-x="561" 
d="M227 717l76 83l158 -157l-72 -78zM599 500l-88 -500h-152l88 500h152zM290 500l-53 -296q-6 -37 12 -60t54 -23q35 0 59.5 18.5t29.5 52.5h54q-15 -83 -77 -142.5t-138 -59.5q-79 0 -122 54.5t-26 150.5l54 305h153z" />
    <glyph glyph-name="uacute" unicode="&#xfa;" horiz-adv-x="561" 
d="M552 686l-59 95l-194 -127l57 -89zM599 500l-88 -500h-152l88 500h152zM290 500l-53 -296q-6 -37 12 -60t54 -23q35 0 59.5 18.5t29.5 52.5h54q-15 -83 -77 -142.5t-138 -59.5q-79 0 -122 54.5t-26 150.5l54 305h153z" />
    <glyph glyph-name="ucircumflex" unicode="&#xfb;" horiz-adv-x="561" 
d="M395 781l-215 -131l44 -94l172 110l137 -117l69 84l-171 145zM599 500l-88 -500h-152l88 500h152zM290 500l-53 -296q-6 -37 12 -60t54 -23q35 0 59.5 18.5t29.5 52.5h54q-15 -83 -77 -142.5t-138 -59.5q-79 0 -122 54.5t-26 150.5l54 305h153z" />
    <glyph glyph-name="udieresis" unicode="&#xfc;" horiz-adv-x="561" 
d="M406 654q0 38 26 63.5t63.5 25.5t63.5 -25.5t26 -63.5t-26 -63.5t-63.5 -25.5t-63.5 25.5t-26 63.5zM159 654q0 38 26 63.5t63.5 25.5t63.5 -25.5t26 -63.5t-26 -63.5t-63.5 -25.5t-63.5 25.5t-26 63.5zM599 500l-88 -500h-152l88 500h152zM290 500l-53 -296
q-6 -37 12 -60t54 -23q35 0 59.5 18.5t29.5 52.5h54q-15 -83 -77 -142.5t-138 -59.5q-79 0 -122 54.5t-26 150.5l54 305h153z" />
    <glyph glyph-name="yacute" unicode="&#xfd;" horiz-adv-x="609" 
d="M574 687l-59 95l-194 -127l57 -89zM507 500l-180 -330l-59 330h-153l100 -483l-121 -217h166l411 700h-164z" />
    <glyph glyph-name="thorn" unicode="&#xfe;" horiz-adv-x="638" 
d="M13 -200l167 950h151l-167 -950h-151zM381 379q-57 0 -97 -41.5t-40 -99.5q0 -49 33.5 -81.5t83.5 -32.5q58 0 98 41.5t40 98.5q0 50 -33.5 82.5t-84.5 32.5zM191 206q0 80 33 151t92.5 115t129.5 44q89 0 147 -64.5t58 -165.5q0 -80 -34.5 -150.5t-95.5 -113.5t-132 -43
q-88 0 -143 63.5t-55 163.5z" />
    <glyph glyph-name="ydieresis" unicode="&#xff;" horiz-adv-x="609" 
d="M428 655q0 38 26 63.5t63.5 25.5t63.5 -25.5t26 -63.5t-26 -63.5t-63.5 -25.5t-63.5 25.5t-26 63.5zM181 655q0 38 26 63.5t63.5 25.5t63.5 -25.5t26 -63.5t-26 -63.5t-63.5 -25.5t-63.5 25.5t-26 63.5zM507 500l-180 -330l-59 330h-153l100 -483l-121 -217h166l411 700
h-164z" />
    <glyph glyph-name="Amacron" unicode="&#x100;" horiz-adv-x="795" 
d="M725 901l-20 -114h-342l20 114h342zM213 0h-180l390 700h206l144 -700h-167l-102 529zM263 290h383l-25 -140h-383z" />
    <glyph glyph-name="amacron" unicode="&#x101;" horiz-adv-x="528" 
d="M536 691l-20 -114h-342l20 114h342zM319 512q90 0 154 -53t64 -128q0 -13 -3 -26l-52 -305h-151l33 194l-95 -6q-57 -4 -57 -37q0 -34 55 -34q39 0 65 18.5t31 50.5h34q-14 -86 -69 -140.5t-129 -54.5q-62 0 -101 39t-39 101q0 72 53.5 117.5t141.5 50.5l131 9v5q1 5 1 8
q0 24 -21 40.5t-50 16.5q-26 0 -48.5 -13.5t-31.5 -35.5l-137 61q30 55 90.5 88.5t130.5 33.5z" />
    <glyph glyph-name="Abreve" unicode="&#x102;" horiz-adv-x="795" 
d="M543 780q-75 0 -123 43.5t-48 109.5q0 15 3 30h107q-2 -7 -2 -14q0 -29 20.5 -47.5t54.5 -18.5q39 0 70 23.5t37 56.5h121q-13 -73 -84.5 -128t-155.5 -55zM213 0h-180l390 700h206l144 -700h-167l-102 529zM263 290h383l-25 -140h-383z" />
    <glyph glyph-name="abreve" unicode="&#x103;" horiz-adv-x="528" 
d="M354 570q-75 0 -123 43.5t-48 109.5q0 15 3 30h107q-2 -7 -2 -14q0 -29 20.5 -47.5t54.5 -18.5q39 0 70 23.5t37 56.5h121q-13 -73 -84.5 -128t-155.5 -55zM319 512q90 0 154 -53t64 -128q0 -13 -3 -26l-52 -305h-151l33 194l-95 -6q-57 -4 -57 -37q0 -34 55 -34
q39 0 65 18.5t31 50.5h34q-14 -86 -69 -140.5t-129 -54.5q-62 0 -101 39t-39 101q0 72 53.5 117.5t141.5 50.5l131 9v5q1 5 1 8q0 24 -21 40.5t-50 16.5q-26 0 -48.5 -13.5t-31.5 -35.5l-137 61q30 55 90.5 88.5t130.5 33.5z" />
    <glyph glyph-name="Aogonek" unicode="&#x104;" horiz-adv-x="795" 
d="M626 -301q-59 0 -97 33t-38 83q0 48 24.5 81t82.5 64l29 15l6 33h105l-12 -67l-73 -40q-53 -26 -53 -65q0 -15 9 -23.5t24 -8.5q29 0 41 29l97 -28q-22 -50 -60.5 -78t-84.5 -28zM213 0h-180l390 700h206l144 -700h-167l-102 529zM263 290h383l-25 -140h-383z" />
    <glyph glyph-name="aogonek" unicode="&#x105;" horiz-adv-x="528" 
d="M350 -301q-59 0 -97 33t-38 83q0 48 24.5 81t82.5 64l29 15l6 33h105l-12 -67l-73 -40q-53 -26 -53 -65q0 -15 9 -23.5t24 -8.5q29 0 41 29l97 -28q-22 -50 -60.5 -78t-84.5 -28zM319 512q90 0 154 -53t64 -128q0 -13 -3 -26l-52 -305h-151l33 194l-95 -6q-57 -4 -57 -37
q0 -34 55 -34q39 0 65 18.5t31 50.5h34q-14 -86 -69 -140.5t-129 -54.5q-62 0 -101 39t-39 101q0 72 53.5 117.5t141.5 50.5l131 9v5q1 5 1 8q0 24 -21 40.5t-50 16.5q-26 0 -48.5 -13.5t-31.5 -35.5l-137 61q30 55 90.5 88.5t130.5 33.5z" />
    <glyph glyph-name="Cacute" unicode="&#x106;" horiz-adv-x="778" 
d="M708 896l-59 95l-194 -127l57 -89zM90 321q0 111 52.5 202.5t143.5 144t201 52.5q50 0 97.5 -14t92 -42t79.5 -77.5t54 -115.5l-146 -48q-16 67 -67.5 107t-122.5 40q-95 0 -163.5 -71.5t-68.5 -171.5q0 -84 55 -139.5t139 -55.5q62 0 116.5 34t87.5 92l135 -75
q-58 -97 -149 -149.5t-200 -52.5q-143 0 -239.5 97t-96.5 243z" />
    <glyph glyph-name="cacute" unicode="&#x107;" horiz-adv-x="592" 
d="M585 687l-59 95l-194 -127l57 -89zM361 377q-56 0 -95 -41.5t-39 -100.5q0 -49 32 -80.5t82 -31.5q36 0 67.5 17t50.5 48l125 -76q-42 -62 -109 -96.5t-144 -34.5q-110 0 -182.5 68.5t-72.5 174.5q0 122 86.5 208.5t208.5 86.5q91 0 160 -47t93 -124l-147 -54
q-10 38 -41.5 60.5t-74.5 22.5z" />
    <glyph glyph-name="Ccircumflex" unicode="&#x108;" horiz-adv-x="778" 
d="M551 991l-215 -131l44 -94l172 110l137 -117l69 84l-171 145zM90 321q0 111 52.5 202.5t143.5 144t201 52.5q50 0 97.5 -14t92 -42t79.5 -77.5t54 -115.5l-146 -48q-16 67 -67.5 107t-122.5 40q-95 0 -163.5 -71.5t-68.5 -171.5q0 -84 55 -139.5t139 -55.5q62 0 116.5 34
t87.5 92l135 -75q-58 -97 -149 -149.5t-200 -52.5q-143 0 -239.5 97t-96.5 243z" />
    <glyph glyph-name="ccircumflex" unicode="&#x109;" horiz-adv-x="592" 
d="M428 782l-215 -131l44 -94l172 110l137 -117l69 84l-171 145zM361 377q-56 0 -95 -41.5t-39 -100.5q0 -49 32 -80.5t82 -31.5q36 0 67.5 17t50.5 48l125 -76q-42 -62 -109 -96.5t-144 -34.5q-110 0 -182.5 68.5t-72.5 174.5q0 122 86.5 208.5t208.5 86.5q91 0 160 -47
t93 -124l-147 -54q-10 38 -41.5 60.5t-74.5 22.5z" />
    <glyph glyph-name="Cdotaccent" unicode="&#x10a;" horiz-adv-x="778" 
d="M440 864q0 38 25.5 63.5t63.5 25.5t63.5 -25.5t25.5 -63.5t-25.5 -63.5t-63.5 -25.5t-63.5 25.5t-25.5 63.5zM90 321q0 111 52.5 202.5t143.5 144t201 52.5q50 0 97.5 -14t92 -42t79.5 -77.5t54 -115.5l-146 -48q-16 67 -67.5 107t-122.5 40q-95 0 -163.5 -71.5
t-68.5 -171.5q0 -84 55 -139.5t139 -55.5q62 0 116.5 34t87.5 92l135 -75q-58 -97 -149 -149.5t-200 -52.5q-143 0 -239.5 97t-96.5 243z" />
    <glyph glyph-name="cdotaccent" unicode="&#x10b;" horiz-adv-x="592" 
d="M317 655q0 38 25.5 63.5t63.5 25.5t63.5 -25.5t25.5 -63.5t-25.5 -63.5t-63.5 -25.5t-63.5 25.5t-25.5 63.5zM361 377q-56 0 -95 -41.5t-39 -100.5q0 -49 32 -80.5t82 -31.5q36 0 67.5 17t50.5 48l125 -76q-42 -62 -109 -96.5t-144 -34.5q-110 0 -182.5 68.5t-72.5 174.5
q0 122 86.5 208.5t208.5 86.5q91 0 160 -47t93 -124l-147 -54q-10 38 -41.5 60.5t-74.5 22.5z" />
    <glyph glyph-name="Ccaron" unicode="&#x10c;" horiz-adv-x="778" 
d="M547 763l215 132l-44 93l-172 -109l-137 116l-69 -83l171 -145zM90 321q0 111 52.5 202.5t143.5 144t201 52.5q50 0 97.5 -14t92 -42t79.5 -77.5t54 -115.5l-146 -48q-16 67 -67.5 107t-122.5 40q-95 0 -163.5 -71.5t-68.5 -171.5q0 -84 55 -139.5t139 -55.5
q62 0 116.5 34t87.5 92l135 -75q-58 -97 -149 -149.5t-200 -52.5q-143 0 -239.5 97t-96.5 243z" />
    <glyph glyph-name="ccaron" unicode="&#x10d;" horiz-adv-x="592" 
d="M424 554l215 132l-44 93l-172 -109l-137 116l-69 -83l171 -145zM361 377q-56 0 -95 -41.5t-39 -100.5q0 -49 32 -80.5t82 -31.5q36 0 67.5 17t50.5 48l125 -76q-42 -62 -109 -96.5t-144 -34.5q-110 0 -182.5 68.5t-72.5 174.5q0 122 86.5 208.5t208.5 86.5q91 0 160 -47
t93 -124l-147 -54q-10 38 -41.5 60.5t-74.5 22.5z" />
    <glyph glyph-name="Dcaron" unicode="&#x10e;" horiz-adv-x="706" 
d="M421 765l215 132l-44 93l-172 -109l-137 116l-69 -83l171 -145zM737 402q0 -111 -51.5 -203t-145.5 -145.5t-211 -53.5h-283l124 700h266q127 0 214 -86.5t87 -211.5zM344 146q109 0 174.5 71t65.5 173q0 74 -46 119t-121 45h-120l-72 -408h119z" />
    <glyph glyph-name="dcaron" unicode="&#x10f;" horiz-adv-x="856" 
d="M837 795l127 -38l-103 -246l-122 36zM593 0h-151l132 750h150zM349 124q58 0 98 41.5t40 98.5q0 50 -33.5 82.5t-84.5 32.5q-58 0 -98 -41.5t-40 -99.5q0 -49 33.5 -81.5t84.5 -32.5zM539 297q0 -80 -33 -151t-92.5 -115t-129.5 -44q-88 0 -146.5 64.5t-58.5 165.5
q0 80 35 150.5t95.5 113.5t131.5 43q88 0 143 -63.5t55 -163.5z" />
    <glyph glyph-name="Dcroat" unicode="&#x110;" horiz-adv-x="714" 
d="M737 401q0 -111 -51.5 -202.5t-145.5 -145t-211 -53.5h-258l124 700h241q127 0 214 -87t87 -212zM344 146q109 0 174.5 71t65.5 173q0 74 -46 119t-121 45h-95l-72 -408h94zM425 424l-23 -131h-350l23 131h350z" />
    <glyph glyph-name="dcroat" unicode="&#x111;" horiz-adv-x="668" 
d="M539 297q0 -80 -33 -151t-92.5 -115t-129.5 -44q-88 0 -146.5 64.5t-58.5 165.5q0 80 35 150.5t95.5 113.5t131.5 43q88 0 143 -63.5t55 -163.5zM349 124q58 0 98 41.5t40 98.5q0 50 -33.5 82.5t-84.5 32.5q-58 0 -98 -41.5t-40 -99.5q0 -49 33.5 -81.5t84.5 -32.5z
M593 0h-151l100 572h-183l20 119h184l11 59h150l-10 -59h76l-21 -119h-76z" />
    <glyph glyph-name="Emacron" unicode="&#x112;" horiz-adv-x="587" 
d="M617 901l-20 -114h-342l20 114h342zM276 433h327l-25 -147h-327l-25 -139h351l-25 -147h-505l124 700h503l-26 -147h-351z" />
    <glyph glyph-name="emacron" unicode="&#x113;" horiz-adv-x="592" 
d="M570 692l-20 -114h-342l20 114h342zM458 325q-9 26 -35.5 41.5t-61.5 15.5q-40 0 -72 -18t-47 -50h219q-2 8 -3 11zM607 276q0 -35 -10 -78h-367q6 -35 37.5 -56.5t77.5 -21.5q35 0 64.5 15.5t46.5 42.5l122 -80q-89 -116 -239 -116q-115 0 -189.5 70t-74.5 178
q0 120 83.5 205t202.5 85q105 0 175.5 -69.5t70.5 -174.5z" />
    <glyph glyph-name="Ebreve" unicode="&#x114;" horiz-adv-x="587" 
d="M435 780q-75 0 -123 43.5t-48 109.5q0 15 3 30h107q-2 -7 -2 -14q0 -29 20.5 -47.5t54.5 -18.5q39 0 70 23.5t37 56.5h121q-13 -73 -84.5 -128t-155.5 -55zM276 433h327l-25 -147h-327l-25 -139h351l-25 -147h-505l124 700h503l-26 -147h-351z" />
    <glyph glyph-name="ebreve" unicode="&#x115;" horiz-adv-x="592" 
d="M388 571q-75 0 -123 43.5t-48 109.5q0 15 3 30h107q-2 -7 -2 -14q0 -29 20.5 -47.5t54.5 -18.5q39 0 70 23.5t37 56.5h121q-13 -73 -84.5 -128t-155.5 -55zM458 325q-9 26 -35.5 41.5t-61.5 15.5q-40 0 -72 -18t-47 -50h219q-2 8 -3 11zM607 276q0 -35 -10 -78h-367
q6 -35 37.5 -56.5t77.5 -21.5q35 0 64.5 15.5t46.5 42.5l122 -80q-89 -116 -239 -116q-115 0 -189.5 70t-74.5 178q0 120 83.5 205t202.5 85q105 0 175.5 -69.5t70.5 -174.5z" />
    <glyph glyph-name="Edotaccent" unicode="&#x116;" horiz-adv-x="587" 
d="M343 866q0 38 25.5 63.5t63.5 25.5t63.5 -25.5t25.5 -63.5t-25.5 -63.5t-63.5 -25.5t-63.5 25.5t-25.5 63.5zM276 433h327l-25 -147h-327l-25 -139h351l-25 -147h-505l124 700h503l-26 -147h-351z" />
    <glyph glyph-name="edotaccent" unicode="&#x117;" horiz-adv-x="592" 
d="M296 657q0 38 25.5 63.5t63.5 25.5t63.5 -25.5t25.5 -63.5t-25.5 -63.5t-63.5 -25.5t-63.5 25.5t-25.5 63.5zM458 325q-9 26 -35.5 41.5t-61.5 15.5q-40 0 -72 -18t-47 -50h219q-2 8 -3 11zM607 276q0 -35 -10 -78h-367q6 -35 37.5 -56.5t77.5 -21.5q35 0 64.5 15.5
t46.5 42.5l122 -80q-89 -116 -239 -116q-115 0 -189.5 70t-74.5 178q0 120 83.5 205t202.5 85q105 0 175.5 -69.5t70.5 -174.5z" />
    <glyph glyph-name="Eogonek" unicode="&#x118;" horiz-adv-x="587" 
d="M454 -301q-59 0 -97 33t-38 83q0 48 24.5 81t82.5 64l29 15l6 33h105l-12 -67l-73 -40q-53 -26 -53 -65q0 -15 9 -23.5t24 -8.5q29 0 41 29l97 -28q-22 -50 -60.5 -78t-84.5 -28zM276 433h327l-25 -147h-327l-25 -139h351l-25 -147h-505l124 700h503l-26 -147h-351z" />
    <glyph glyph-name="eogonek" unicode="&#x119;" horiz-adv-x="592" 
d="M230 -299q-59 0 -97 33t-38 83q0 48 24.5 81t82.5 64l29 15l6 33h105l-12 -67l-73 -40q-53 -26 -53 -65q0 -15 9 -23.5t24 -8.5q29 0 41 29l97 -28q-22 -50 -60.5 -78t-84.5 -28zM458 325q-9 26 -35.5 41.5t-61.5 15.5q-40 0 -72 -18t-47 -50h219q-2 8 -3 11zM607 276
q0 -35 -10 -78h-367q6 -35 37.5 -56.5t77.5 -21.5q35 0 64.5 15.5t46.5 42.5l122 -80q-89 -116 -239 -116q-115 0 -189.5 70t-74.5 178q0 120 83.5 205t202.5 85q105 0 175.5 -69.5t70.5 -174.5z" />
    <glyph glyph-name="Ecaron" unicode="&#x11a;" horiz-adv-x="587" 
d="M450 765l215 132l-44 93l-172 -109l-137 116l-69 -83l171 -145zM276 433h327l-25 -147h-327l-25 -139h351l-25 -147h-505l124 700h503l-26 -147h-351z" />
    <glyph glyph-name="ecaron" unicode="&#x11b;" horiz-adv-x="592" 
d="M403 556l215 132l-44 93l-172 -109l-137 116l-69 -83l171 -145zM458 325q-9 26 -35.5 41.5t-61.5 15.5q-40 0 -72 -18t-47 -50h219q-2 8 -3 11zM607 276q0 -35 -10 -78h-367q6 -35 37.5 -56.5t77.5 -21.5q35 0 64.5 15.5t46.5 42.5l122 -80q-89 -116 -239 -116
q-115 0 -189.5 70t-74.5 178q0 120 83.5 205t202.5 85q105 0 175.5 -69.5t70.5 -174.5z" />
    <glyph glyph-name="Gcircumflex" unicode="&#x11c;" 
d="M527 991l-215 -131l44 -94l172 110l137 -117l69 84l-171 145zM484 570q-101 0 -172 -71t-71 -170q0 -87 56 -142t145 -55q72 0 126 36t72 99h-242l23 134h398q-2 -190 -107.5 -304.5t-279.5 -114.5q-150 0 -246 93.5t-96 239.5q0 110 55 203t148.5 147.5t203.5 54.5
q113 0 199.5 -58.5t116.5 -154.5l-145 -58q-17 55 -67.5 88t-116.5 33z" />
    <glyph glyph-name="gcircumflex" unicode="&#x11d;" horiz-adv-x="598" 
d="M409 782l-215 -131l44 -94l172 110l137 -117l69 84l-171 145zM505 311q0 -72 -30.5 -136.5t-85 -103.5t-117.5 -39q-83 0 -138.5 59.5t-55.5 151.5q0 111 73 194.5t172 83.5q82 0 132 -60t50 -150zM330 170q48 0 81 31t33 76q0 39 -29 64.5t-73 25.5q-48 0 -80.5 -31
t-32.5 -76q0 -39 28.5 -64.5t72.5 -25.5zM165 12q13 -40 44.5 -63t76.5 -23q43 0 74.5 22t37.5 57l86 495h151l-89 -509q-18 -101 -89.5 -160.5t-174.5 -59.5q-18 0 -40 2.5t-56 13t-63 27t-57 48t-41 73.5z" />
    <glyph glyph-name="Gbreve" unicode="&#x11e;" 
d="M508 778q-75 0 -123 43.5t-48 109.5q0 15 3 30h107q-2 -7 -2 -14q0 -29 20.5 -47.5t54.5 -18.5q39 0 70 23.5t37 56.5h121q-13 -73 -84.5 -128t-155.5 -55zM484 570q-101 0 -172 -71t-71 -170q0 -87 56 -142t145 -55q72 0 126 36t72 99h-242l23 134h398
q-2 -190 -107.5 -304.5t-279.5 -114.5q-150 0 -246 93.5t-96 239.5q0 110 55 203t148.5 147.5t203.5 54.5q113 0 199.5 -58.5t116.5 -154.5l-145 -58q-17 55 -67.5 88t-116.5 33z" />
    <glyph glyph-name="gbreve" unicode="&#x11f;" horiz-adv-x="598" 
d="M390 569q-75 0 -123 43.5t-48 109.5q0 15 3 30h107q-2 -7 -2 -14q0 -29 20.5 -47.5t54.5 -18.5q39 0 70 23.5t37 56.5h121q-13 -73 -84.5 -128t-155.5 -55zM505 311q0 -72 -30.5 -136.5t-85 -103.5t-117.5 -39q-83 0 -138.5 59.5t-55.5 151.5q0 111 73 194.5t172 83.5
q82 0 132 -60t50 -150zM330 170q48 0 81 31t33 76q0 39 -29 64.5t-73 25.5q-48 0 -80.5 -31t-32.5 -76q0 -39 28.5 -64.5t72.5 -25.5zM165 12q13 -40 44.5 -63t76.5 -23q43 0 74.5 22t37.5 57l86 495h151l-89 -509q-18 -101 -89.5 -160.5t-174.5 -59.5q-18 0 -40 2.5t-56 13
t-63 27t-57 48t-41 73.5z" />
    <glyph glyph-name="Gdotaccent" unicode="&#x120;" 
d="M416 864q0 38 25.5 63.5t63.5 25.5t63.5 -25.5t25.5 -63.5t-25.5 -63.5t-63.5 -25.5t-63.5 25.5t-25.5 63.5zM484 570q-101 0 -172 -71t-71 -170q0 -87 56 -142t145 -55q72 0 126 36t72 99h-242l23 134h398q-2 -190 -107.5 -304.5t-279.5 -114.5q-150 0 -246 93.5
t-96 239.5q0 110 55 203t148.5 147.5t203.5 54.5q113 0 199.5 -58.5t116.5 -154.5l-145 -58q-17 55 -67.5 88t-116.5 33z" />
    <glyph glyph-name="gdotaccent" unicode="&#x121;" horiz-adv-x="598" 
d="M298 655q0 38 25.5 63.5t63.5 25.5t63.5 -25.5t25.5 -63.5t-25.5 -63.5t-63.5 -25.5t-63.5 25.5t-25.5 63.5zM505 311q0 -72 -30.5 -136.5t-85 -103.5t-117.5 -39q-83 0 -138.5 59.5t-55.5 151.5q0 111 73 194.5t172 83.5q82 0 132 -60t50 -150zM330 170q48 0 81 31
t33 76q0 39 -29 64.5t-73 25.5q-48 0 -80.5 -31t-32.5 -76q0 -39 28.5 -64.5t72.5 -25.5zM165 12q13 -40 44.5 -63t76.5 -23q43 0 74.5 22t37.5 57l86 495h151l-89 -509q-18 -101 -89.5 -160.5t-174.5 -59.5q-18 0 -40 2.5t-56 13t-63 27t-57 48t-41 73.5z" />
    <glyph glyph-name="uni0122" unicode="&#x122;" 
d="M419 -269q0 -36 -25.5 -62.5t-60.5 -26.5q-33 0 -55.5 21.5t-22.5 53.5q0 36 27 65l155 166l44 -44l-101 -106q39 -22 39 -67zM484 570q-101 0 -172 -71t-71 -170q0 -87 56 -142t145 -55q72 0 126 36t72 99h-242l23 134h398q-2 -190 -107.5 -304.5t-279.5 -114.5
q-150 0 -246 93.5t-96 239.5q0 110 55 203t148.5 147.5t203.5 54.5q113 0 199.5 -58.5t116.5 -154.5l-145 -58q-17 55 -67.5 88t-116.5 33z" />
    <glyph glyph-name="uni0123" unicode="&#x123;" horiz-adv-x="598" 
d="M481 648q-6 -33 -32.5 -57.5t-61.5 -24.5t-55 23.5t-14 57.5q5 29 26 52l156 179l45 -39l-102 -115q22 -9 32.5 -30t5.5 -46zM505 311q0 -72 -30.5 -136.5t-85 -103.5t-117.5 -39q-83 0 -138.5 59.5t-55.5 151.5q0 111 73 194.5t172 83.5q82 0 132 -60t50 -150zM330 170
q48 0 81 31t33 76q0 39 -29 64.5t-73 25.5q-48 0 -80.5 -31t-32.5 -76q0 -39 28.5 -64.5t72.5 -25.5zM165 12q13 -40 44.5 -63t76.5 -23q43 0 74.5 22t37.5 57l86 495h151l-89 -509q-18 -101 -89.5 -160.5t-174.5 -59.5q-18 0 -40 2.5t-56 13t-63 27t-57 48t-41 73.5z" />
    <glyph glyph-name="Hcircumflex" unicode="&#x124;" horiz-adv-x="696" 
d="M504 991l-215 -131l44 -94l172 110l137 -117l69 84l-171 145zM47 0l123 700h151l-46 -269h293l47 269h151l-122 -700h-152l52 287h-294l-51 -287h-152z" />
    <glyph glyph-name="hcircumflex" unicode="&#x125;" horiz-adv-x="578" 
d="M288 1016l-215 -131l44 -94l172 110l137 -117l69 84l-171 145zM48 0l132 750h153l-131 -750h-154zM379 0l46 276q8 46 -12.5 75.5t-60.5 29.5q-38 0 -65.5 -25.5t-35.5 -67.5h-53q18 98 82 161.5t146 63.5q86 0 129 -67t24 -174l-48 -272h-152z" />
    <glyph glyph-name="Hbar" unicode="&#x126;" horiz-adv-x="696" 
d="M805 616l-23 -130h-51l-86 -486h-154l48 269h-286l-47 -269h-154l85 486h-51l23 130h51l15 84h154l-15 -84h286l15 84h153l-14 -84h51zM291 486l-12 -69h286l12 69h-286z" />
    <glyph glyph-name="hbar" unicode="&#x127;" horiz-adv-x="586" 
d="M388 0l46 276q7 46 -13.5 75.5t-60.5 29.5q-37 0 -64.5 -25.5t-36.5 -67.5h-52q17 98 81.5 161.5t145.5 63.5q86 0 129 -67t24 -174l-47 -272h-152zM56 0l100 566h-56l23 130h56l9 54h153l-9 -54h175l-23 -130h-175l-99 -566h-154z" />
    <glyph glyph-name="Itilde" unicode="&#x128;" horiz-adv-x="253" 
d="M202 942q-106 0 -149 -143l95 -18q20 62 53 62q17 0 40 -22q50 -46 96 -46q104 0 147 143l-94 18q-21 -58 -58 -58q-21 0 -41 20q-25 25 -44.5 34.5t-44.5 9.5zM199 0h-152l123 700h151z" />
    <glyph glyph-name="itilde" unicode="&#x129;" horiz-adv-x="246" 
d="M162 735q-106 0 -149 -143l95 -18q20 62 53 62q17 0 40 -22q50 -46 96 -46q104 0 147 143l-94 18q-21 -58 -58 -58q-21 0 -41 20q-25 25 -44.5 34.5t-44.5 9.5zM47 0l89 500h152l-89 -500h-152z" />
    <glyph glyph-name="Imacron" unicode="&#x12a;" horiz-adv-x="253" 
d="M443 899l-20 -114h-342l20 114h342zM199 0h-152l123 700h151z" />
    <glyph glyph-name="imacron" unicode="&#x12b;" horiz-adv-x="246" 
d="M403 692l-20 -114h-342l20 114h342zM47 0l89 500h152l-89 -500h-152z" />
    <glyph glyph-name="Ibreve" unicode="&#x12c;" horiz-adv-x="253" 
d="M261 778q-75 0 -123 43.5t-48 109.5q0 15 3 30h107q-2 -7 -2 -14q0 -29 20.5 -47.5t54.5 -18.5q39 0 70 23.5t37 56.5h121q-13 -73 -84.5 -128t-155.5 -55zM199 0h-152l123 700h151z" />
    <glyph glyph-name="ibreve" unicode="&#x12d;" horiz-adv-x="246" 
d="M221 571q-75 0 -123 43.5t-48 109.5q0 15 3 30h107q-2 -7 -2 -14q0 -29 20.5 -47.5t54.5 -18.5q39 0 70 23.5t37 56.5h121q-13 -73 -84.5 -128t-155.5 -55zM47 0l89 500h152l-89 -500h-152z" />
    <glyph glyph-name="Iogonek" unicode="&#x12e;" horiz-adv-x="253" 
d="M65 -301q-59 0 -97 33t-38 83q0 48 24.5 81t82.5 64l29 15l6 33h105l-12 -67l-73 -40q-53 -26 -53 -65q0 -15 9 -23.5t24 -8.5q29 0 41 29l97 -28q-22 -50 -60.5 -78t-84.5 -28zM199 0h-152l123 700h151z" />
    <glyph glyph-name="iogonek" unicode="&#x12f;" horiz-adv-x="246" 
d="M65 -301q-59 0 -97 33t-38 83q0 48 24.5 81t82.5 64l29 15l6 33h105l-12 -67l-73 -40q-53 -26 -53 -65q0 -15 9 -23.5t24 -8.5q29 0 41 29l97 -28q-22 -50 -60.5 -78t-84.5 -28zM151 647.5q0 37.5 25.5 63.5t63.5 26t63.5 -26t25.5 -63.5t-25.5 -63t-63.5 -25.5
t-63.5 25.5t-25.5 63zM47 0l89 500h152l-89 -500h-152z" />
    <glyph glyph-name="Idotaccent" unicode="&#x130;" horiz-adv-x="253" 
d="M169 864q0 38 25.5 63.5t63.5 25.5t63.5 -25.5t25.5 -63.5t-25.5 -63.5t-63.5 -25.5t-63.5 25.5t-25.5 63.5zM199 0h-152l123 700h151z" />
    <glyph glyph-name="dotlessi" unicode="&#x131;" horiz-adv-x="246" 
d="M47 0l89 500h152l-89 -500h-152z" />
    <glyph glyph-name="IJ" unicode="&#x132;" horiz-adv-x="902" 
d="M465 258q13 -118 131 -118q56 0 95.5 36.5t50.5 99.5l74 424h151l-78 -447q-21 -116 -107 -190t-200 -74q-110 0 -182 63.5t-85 171.5zM199 0h-152l123 700h151z" />
    <glyph glyph-name="ij" unicode="&#x133;" horiz-adv-x="493" 
d="M398 647.5q0 37.5 25.5 63.5t63.5 26t63.5 -26t25.5 -63.5t-25.5 -63t-63.5 -25.5t-63.5 25.5t-25.5 63zM221 -62q30 0 50.5 22.5t26.5 58.5l85 481h152l-96 -541q-13 -72 -70 -121.5t-135 -49.5h-47l17 150h17zM151 647.5q0 37.5 25.5 63.5t63.5 26t63.5 -26t25.5 -63.5
t-25.5 -63t-63.5 -25.5t-63.5 25.5t-25.5 63zM47 0l89 500h152l-89 -500h-152z" />
    <glyph glyph-name="Jcircumflex" unicode="&#x134;" horiz-adv-x="649" 
d="M667 973l-215 -131l44 -94l172 110l137 -117l69 84l-171 145zM211 258q13 -118 131 -118q56 0 95.5 36.5t50.5 99.5l74 424h151l-78 -447q-21 -116 -107 -190t-200 -74q-110 0 -182 63.5t-85 171.5z" />
    <glyph glyph-name="jcircumflex" unicode="&#x135;" horiz-adv-x="246" 
d="M246 783l-215 -131l44 -94l172 110l137 -117l69 84l-171 145zM-26 -62q30 0 50.5 22.5t26.5 58.5l85 481h152l-96 -541q-13 -72 -70 -121.5t-135 -49.5h-47l17 150h17z" />
    <glyph glyph-name="uni0136" unicode="&#x136;" horiz-adv-x="679" 
d="M292 -269q0 -36 -25.5 -62.5t-60.5 -26.5q-33 0 -55.5 21.5t-22.5 53.5q0 36 27 65l155 166l44 -44l-101 -106q39 -22 39 -67zM47 0l124 700h152l-49 -275h19l279 275h202l-358 -350l233 -350h-184l-191 272h-27l-48 -272h-152z" />
    <glyph glyph-name="uni0137" unicode="&#x137;" horiz-adv-x="587" 
d="M279 -266q0 -36 -25.5 -62.5t-60.5 -26.5q-33 0 -55.5 21.5t-22.5 53.5q0 36 27 65l155 166l44 -44l-101 -106q39 -22 39 -67zM47 0l125 708h151l-65 -375h23l167 167h209l-259 -254l166 -246h-181l-126 180h-26l-32 -180h-152z" />
    <glyph glyph-name="kgreenlandic" unicode="&#x138;" horiz-adv-x="587" 
d="M47 0l89 500h151l-29 -167h23l167 167h209l-259 -254l166 -246h-181l-126 180h-26l-32 -180h-152z" />
    <glyph glyph-name="Lacute" unicode="&#x139;" horiz-adv-x="577" 
d="M442 911l-59 95l-194 -127l57 -89zM226 147h351l-26 -147h-504l125 700h152z" />
    <glyph glyph-name="lacute" unicode="&#x13a;" horiz-adv-x="253" 
d="M445 922l-59 95l-194 -127l57 -89zM51 0l132 750h153l-133 -750h-152z" />
    <glyph glyph-name="uni013B" unicode="&#x13b;" horiz-adv-x="577" 
d="M293 -268q0 -36 -25.5 -62.5t-60.5 -26.5q-33 0 -55.5 21.5t-22.5 53.5q0 36 27 65l155 166l44 -44l-101 -106q39 -22 39 -67zM226 147h351l-26 -147h-504l125 700h152z" />
    <glyph glyph-name="uni013C" unicode="&#x13c;" horiz-adv-x="253" 
d="M119 -268q0 -36 -25.5 -62.5t-60.5 -26.5q-33 0 -55.5 21.5t-22.5 53.5q0 36 27 65l155 166l44 -44l-101 -106q39 -22 39 -67zM51 0l132 750h153l-133 -750h-152z" />
    <glyph glyph-name="Lcaron" unicode="&#x13d;" horiz-adv-x="577" 
d="M515 743l127 -38l-103 -246l-122 36zM226 147h351l-26 -147h-504l125 700h152z" />
    <glyph glyph-name="lcaron" unicode="&#x13e;" horiz-adv-x="478" 
d="M455 799l127 -38l-103 -246l-122 36zM51 0l132 750h153l-133 -750h-152z" />
    <glyph glyph-name="Ldot" unicode="&#x13f;" horiz-adv-x="577" 
d="M350 359q0 42 27 71t67 29q43 0 72 -29t29 -71t-28 -70t-69.5 -28t-69.5 28t-28 70zM226 147h351l-26 -147h-504l125 700h152z" />
    <glyph glyph-name="ldot" unicode="&#x140;" horiz-adv-x="513" 
d="M352 368q0 42 27 71t67 29q43 0 72 -29t29 -71t-28 -70t-69.5 -28t-69.5 28t-28 70zM51 0l132 750h153l-133 -750h-152z" />
    <glyph glyph-name="Lslash" unicode="&#x141;" horiz-adv-x="579" 
d="M419 471l3 -128l-355 -70l-1 128zM230 148h350l-27 -148h-500l124 700h150z" />
    <glyph glyph-name="lslash" unicode="&#x142;" horiz-adv-x="329" 
d="M386 475l2 -130l-308 -48l-2 129zM87 0l132 750h150l-132 -750h-150z" />
    <glyph glyph-name="Nacute" unicode="&#x143;" horiz-adv-x="696" 
d="M665 896l-59 95l-194 -127l57 -89zM47 0l123 700h178l184 -472l83 472h151l-122 -700h-178l-184 474l-83 -474h-152z" />
    <glyph glyph-name="nacute" unicode="&#x144;" horiz-adv-x="578" 
d="M567 689l-59 95l-194 -127l57 -89zM48 0l89 500h153l-88 -500h-154zM379 0l46 276q8 46 -12.5 75.5t-60.5 29.5q-38 0 -65.5 -25.5t-35.5 -67.5h-53q10 52 42.5 103.5t83 86.5t102.5 35q86 0 129 -67t24 -174l-48 -272h-152z" />
    <glyph glyph-name="uni0145" unicode="&#x145;" horiz-adv-x="696" 
d="M352 -269q0 -36 -25.5 -62.5t-60.5 -26.5q-33 0 -55.5 21.5t-22.5 53.5q0 36 27 65l155 166l44 -44l-101 -106q39 -22 39 -67zM47 0l123 700h178l184 -472l83 472h151l-122 -700h-178l-184 474l-83 -474h-152z" />
    <glyph glyph-name="uni0146" unicode="&#x146;" horiz-adv-x="578" 
d="M292 -267q0 -36 -25.5 -62.5t-60.5 -26.5q-33 0 -55.5 21.5t-22.5 53.5q0 36 27 65l155 166l44 -44l-101 -106q39 -22 39 -67zM48 0l89 500h153l-88 -500h-154zM379 0l46 276q8 46 -12.5 75.5t-60.5 29.5q-38 0 -65.5 -25.5t-35.5 -67.5h-53q10 52 42.5 103.5t83 86.5
t102.5 35q86 0 129 -67t24 -174l-48 -272h-152z" />
    <glyph glyph-name="Ncaron" unicode="&#x147;" horiz-adv-x="696" 
d="M504 763l215 132l-44 93l-172 -109l-137 116l-69 -83l171 -145zM47 0l123 700h178l184 -472l83 472h151l-122 -700h-178l-184 474l-83 -474h-152z" />
    <glyph glyph-name="ncaron" unicode="&#x148;" horiz-adv-x="578" 
d="M406 556l215 132l-44 93l-172 -109l-137 116l-69 -83l171 -145zM48 0l89 500h153l-88 -500h-154zM379 0l46 276q8 46 -12.5 75.5t-60.5 29.5q-38 0 -65.5 -25.5t-35.5 -67.5h-53q10 52 42.5 103.5t83 86.5t102.5 35q86 0 129 -67t24 -174l-48 -272h-152z" />
    <glyph glyph-name="napostrophe" unicode="&#x149;" horiz-adv-x="792" 
d="M263 0l89 500h153l-88 -500h-154zM594 0l46 276q8 46 -12.5 75.5t-60.5 29.5q-38 0 -65.5 -25.5t-35.5 -67.5h-53q10 52 42.5 103.5t83 86.5t102.5 35q86 0 129 -67t24 -174l-48 -272h-152zM220 778l125 -50l-101 -240l-121 48z" />
    <glyph glyph-name="Eng" unicode="&#x14a;" horiz-adv-x="664" 
d="M52 0l123 700h150l-123 -700h-150zM386 -25q35 0 57.5 22.5t29.5 58.5l65 370q11 63 -16.5 99t-81.5 36q-57 0 -105 -39.5t-58 -95.5h-55q21 115 107 200t189 85q93 0 144 -73t31 -185l-72 -411q-16 -88 -86.5 -152t-165.5 -64h-70l26 149h61z" />
    <glyph glyph-name="eng" unicode="&#x14b;" horiz-adv-x="578" 
d="M52 0l88 500h150l-88 -500h-150zM381 25l44 253q8 42 -11.5 66.5t-58.5 24.5q-37 0 -67 -26.5t-37 -64.5h-55q17 96 86 164.5t150 68.5q79 0 122 -54t29 -136l-56 -318q-14 -78 -77 -130.5t-143 -52.5h-63l25 140h44q26 0 44 17.5t24 47.5z" />
    <glyph glyph-name="Omacron" unicode="&#x14c;" 
d="M653 901l-20 -114h-342l20 114h342zM474 570q-96 0 -164 -70.5t-68 -170.5q0 -86 55 -141.5t140 -55.5q96 0 164.5 72t68.5 171q0 85 -55.5 140t-140.5 55zM91 326q0 106 51.5 197t140 144t192.5 53q147 0 246.5 -97.5t99.5 -243.5q0 -106 -52 -197.5t-140.5 -145.5
t-192.5 -54q-147 0 -246 98.5t-99 245.5z" />
    <glyph glyph-name="omacron" unicode="&#x14d;" horiz-adv-x="618" 
d="M593 691l-20 -114h-342l20 114h342zM364 378q-58 0 -98 -41.5t-40 -99.5q0 -50 34 -81.5t84 -31.5q58 0 98 41.5t40 99.5q0 50 -34 81.5t-84 31.5zM75 225q0 122 87 208.5t212 86.5q110 0 184.5 -68.5t74.5 -174.5q0 -122 -87 -208.5t-212 -86.5q-110 0 -184.5 68.5
t-74.5 174.5z" />
    <glyph glyph-name="Obreve" unicode="&#x14e;" 
d="M471 780q-75 0 -123 43.5t-48 109.5q0 15 3 30h107q-2 -7 -2 -14q0 -29 20.5 -47.5t54.5 -18.5q39 0 70 23.5t37 56.5h121q-13 -73 -84.5 -128t-155.5 -55zM474 570q-96 0 -164 -70.5t-68 -170.5q0 -86 55 -141.5t140 -55.5q96 0 164.5 72t68.5 171q0 85 -55.5 140
t-140.5 55zM91 326q0 106 51.5 197t140 144t192.5 53q147 0 246.5 -97.5t99.5 -243.5q0 -106 -52 -197.5t-140.5 -145.5t-192.5 -54q-147 0 -246 98.5t-99 245.5z" />
    <glyph glyph-name="obreve" unicode="&#x14f;" horiz-adv-x="618" 
d="M411 570q-75 0 -123 43.5t-48 109.5q0 15 3 30h107q-2 -7 -2 -14q0 -29 20.5 -47.5t54.5 -18.5q39 0 70 23.5t37 56.5h121q-13 -73 -84.5 -128t-155.5 -55zM364 378q-58 0 -98 -41.5t-40 -99.5q0 -50 34 -81.5t84 -31.5q58 0 98 41.5t40 99.5q0 50 -34 81.5t-84 31.5z
M75 225q0 122 87 208.5t212 86.5q110 0 184.5 -68.5t74.5 -174.5q0 -122 -87 -208.5t-212 -86.5q-110 0 -184.5 68.5t-74.5 174.5z" />
    <glyph glyph-name="Ohungarumlaut" unicode="&#x150;" 
d="M752 903l-51 95l-194 -145l40 -71zM508 903l-51 95l-194 -145l40 -71zM474 570q-96 0 -164 -70.5t-68 -170.5q0 -86 55 -141.5t140 -55.5q96 0 164.5 72t68.5 171q0 85 -55.5 140t-140.5 55zM91 326q0 106 51.5 197t140 144t192.5 53q147 0 246.5 -97.5t99.5 -243.5
q0 -106 -52 -197.5t-140.5 -145.5t-192.5 -54q-147 0 -246 98.5t-99 245.5z" />
    <glyph glyph-name="ohungarumlaut" unicode="&#x151;" horiz-adv-x="618" 
d="M692 693l-51 95l-194 -145l40 -71zM448 693l-51 95l-194 -145l40 -71zM364 378q-58 0 -98 -41.5t-40 -99.5q0 -50 34 -81.5t84 -31.5q58 0 98 41.5t40 99.5q0 50 -34 81.5t-84 31.5zM75 225q0 122 87 208.5t212 86.5q110 0 184.5 -68.5t74.5 -174.5q0 -122 -87 -208.5
t-212 -86.5q-110 0 -184.5 68.5t-74.5 174.5z" />
    <glyph glyph-name="OE" unicode="&#x152;" horiz-adv-x="1171" 
d="M837 433h327l-25 -147h-327l-25 -139h351l-25 -147h-505l124 700h503l-26 -147h-351zM475 570q-97 0 -165 -70.5t-68 -169.5q0 -87 55 -142.5t139 -55.5q96 0 165 71.5t69 170.5q0 86 -55 141t-140 55zM91 328q0 105 51 195.5t137.5 143.5t187.5 53q137 0 228 -97.5
t91 -245.5q0 -73 -32.5 -146t-84.5 -127t-121 -88t-140 -34q-133 0 -225 99.5t-92 246.5z" />
    <glyph glyph-name="oe" unicode="&#x153;" horiz-adv-x="1015" 
d="M866 327q-7 25 -34 40t-63 15q-39 0 -71 -18t-47 -50h219q-2 8 -4 13zM1016 275q0 -34 -11 -77h-366q6 -35 37 -56.5t75 -21.5q37 0 67 15t48 43l121 -80q-89 -116 -233 -116q-111 0 -182 70t-71 180q0 119 80 203.5t193 84.5q103 0 172.5 -70t69.5 -175zM364 378
q-57 0 -97.5 -41t-40.5 -98q0 -51 33.5 -83t84.5 -32q57 0 97.5 41t40.5 98q0 51 -33.5 83t-84.5 32zM75 228q0 120 86.5 206t207.5 86q107 0 176.5 -69t69.5 -177q0 -121 -83 -206.5t-203 -85.5q-109 0 -181.5 70t-72.5 176z" />
    <glyph glyph-name="Racute" unicode="&#x154;" horiz-adv-x="644" 
d="M633 898l-59 95l-194 -127l57 -89zM414 387q48 0 84.5 29t36.5 68q0 30 -25.5 49t-65.5 19h-148l-28 -165h146zM695 496q0 -91 -59 -156.5t-152 -82.5l125 -257h-168l-117 240h-82l-43 -240h-152l124 700h309q97 0 156 -58t59 -146z" />
    <glyph glyph-name="racute" unicode="&#x155;" horiz-adv-x="386" 
d="M500 686l-59 95l-194 -127l57 -89zM46 0l88 500h150l-86 -500h-152zM387 361q-51 0 -95 -32.5t-50 -73.5h-54q19 107 84 181t140 74h39l-25 -149h-39z" />
    <glyph glyph-name="uni0156" unicode="&#x156;" horiz-adv-x="644" 
d="M301 -269q0 -36 -25.5 -62.5t-60.5 -26.5q-33 0 -55.5 21.5t-22.5 53.5q0 36 27 65l155 166l44 -44l-101 -106q39 -22 39 -67zM414 387q48 0 84.5 29t36.5 68q0 30 -25.5 49t-65.5 19h-148l-28 -165h146zM695 496q0 -91 -59 -156.5t-152 -82.5l125 -257h-168l-117 240
h-82l-43 -240h-152l124 700h309q97 0 156 -58t59 -146z" />
    <glyph glyph-name="uni0157" unicode="&#x157;" horiz-adv-x="386" 
d="M116 -269q0 -36 -25.5 -62.5t-60.5 -26.5q-33 0 -55.5 21.5t-22.5 53.5q0 36 27 65l155 166l44 -44l-101 -106q39 -22 39 -67zM46 0l88 500h150l-86 -500h-152zM387 361q-51 0 -95 -32.5t-50 -73.5h-54q19 107 84 181t140 74h39l-25 -149h-39z" />
    <glyph glyph-name="Rcaron" unicode="&#x158;" horiz-adv-x="644" 
d="M472 765l215 132l-44 93l-172 -109l-137 116l-69 -83l171 -145zM414 387q48 0 84.5 29t36.5 68q0 30 -25.5 49t-65.5 19h-148l-28 -165h146zM695 496q0 -91 -59 -156.5t-152 -82.5l125 -257h-168l-117 240h-82l-43 -240h-152l124 700h309q97 0 156 -58t59 -146z" />
    <glyph glyph-name="rcaron" unicode="&#x159;" horiz-adv-x="386" 
d="M339 553l215 132l-44 93l-172 -109l-137 116l-69 -83l171 -145zM46 0l88 500h150l-86 -500h-152zM387 361q-51 0 -95 -32.5t-50 -73.5h-54q19 107 84 181t140 74h39l-25 -149h-39z" />
    <glyph glyph-name="Sacute" unicode="&#x15a;" horiz-adv-x="590" 
d="M564 898l-59 95l-194 -127l57 -89zM345 131q41 0 68 20t27 51q0 48 -107 75q-98 26 -151 80t-53 128q0 98 72 163.5t179 65.5q100 0 173.5 -54.5t93.5 -142.5l-153 -40q-10 43 -42.5 68.5t-75.5 25.5q-38 0 -63.5 -20.5t-25.5 -50.5q0 -24 24 -41.5t77 -32.5
q100 -27 154.5 -83t54.5 -131q0 -96 -73 -160t-183 -64q-102 0 -178 52t-98 136l157 57q10 -47 43.5 -74.5t79.5 -27.5z" />
    <glyph glyph-name="sacute" unicode="&#x15b;" horiz-adv-x="490" 
d="M527 687l-59 95l-194 -127l57 -89zM281 109q22 0 35.5 10t13.5 25q0 25 -65 40q-169 38 -169 150q0 73 56 126.5t144 53.5q76 0 136.5 -42t77.5 -111l-152 -29q-3 18 -19.5 35.5t-45.5 17.5q-20 0 -32.5 -9.5t-12.5 -24.5q0 -28 68 -41q80 -18 123 -56.5t43 -94.5
q0 -70 -56.5 -120.5t-146.5 -50.5q-82 0 -145.5 41.5t-81.5 111.5l151 30q4 -20 23.5 -41t54.5 -21z" />
    <glyph glyph-name="Scircumflex" unicode="&#x15c;" horiz-adv-x="590" 
d="M407 993l-215 -131l44 -94l172 110l137 -117l69 84l-171 145zM345 131q41 0 68 20t27 51q0 48 -107 75q-98 26 -151 80t-53 128q0 98 72 163.5t179 65.5q100 0 173.5 -54.5t93.5 -142.5l-153 -40q-10 43 -42.5 68.5t-75.5 25.5q-38 0 -63.5 -20.5t-25.5 -50.5
q0 -24 24 -41.5t77 -32.5q100 -27 154.5 -83t54.5 -131q0 -96 -73 -160t-183 -64q-102 0 -178 52t-98 136l157 57q10 -47 43.5 -74.5t79.5 -27.5z" />
    <glyph glyph-name="scircumflex" unicode="&#x15d;" horiz-adv-x="490" 
d="M370 782l-215 -131l44 -94l172 110l137 -117l69 84l-171 145zM281 109q22 0 35.5 10t13.5 25q0 25 -65 40q-169 38 -169 150q0 73 56 126.5t144 53.5q76 0 136.5 -42t77.5 -111l-152 -29q-3 18 -19.5 35.5t-45.5 17.5q-20 0 -32.5 -9.5t-12.5 -24.5q0 -28 68 -41
q80 -18 123 -56.5t43 -94.5q0 -70 -56.5 -120.5t-146.5 -50.5q-82 0 -145.5 41.5t-81.5 111.5l151 30q4 -20 23.5 -41t54.5 -21z" />
    <glyph glyph-name="Scedilla" unicode="&#x15e;" horiz-adv-x="590" 
d="M429 -170q0 15 -7.5 23.5t-20.5 8.5q-14 0 -28 -12l-108 46l24 137l114 -10l-17 -100q33 30 71 30q39 0 64.5 -32.5t25.5 -81.5q0 -72 -48 -120.5t-120 -48.5q-66 0 -110.5 36t-51.5 94l118 30q1 -20 14.5 -32t34.5 -12q20 0 32.5 12.5t12.5 31.5zM345 131q41 0 68 20
t27 51q0 48 -107 75q-98 26 -151 80t-53 128q0 98 72 163.5t179 65.5q100 0 173.5 -54.5t93.5 -142.5l-153 -40q-10 43 -42.5 68.5t-75.5 25.5q-38 0 -63.5 -20.5t-25.5 -50.5q0 -24 24 -41.5t77 -32.5q100 -27 154.5 -83t54.5 -131q0 -96 -73 -160t-183 -64q-102 0 -178 52
t-98 136l157 57q10 -47 43.5 -74.5t79.5 -27.5z" />
    <glyph glyph-name="scedilla" unicode="&#x15f;" horiz-adv-x="490" 
d="M349 -171q0 15 -7.5 23.5t-20.5 8.5q-14 0 -28 -12l-108 46l24 137l114 -10l-17 -100q33 30 71 30q39 0 64.5 -32.5t25.5 -81.5q0 -72 -48 -120.5t-120 -48.5q-66 0 -110.5 36t-51.5 94l118 30q1 -20 14.5 -32t34.5 -12q20 0 32.5 12.5t12.5 31.5zM281 109q22 0 35.5 10
t13.5 25q0 25 -65 40q-169 38 -169 150q0 73 56 126.5t144 53.5q76 0 136.5 -42t77.5 -111l-152 -29q-3 18 -19.5 35.5t-45.5 17.5q-20 0 -32.5 -9.5t-12.5 -24.5q0 -28 68 -41q80 -18 123 -56.5t43 -94.5q0 -70 -56.5 -120.5t-146.5 -50.5q-82 0 -145.5 41.5t-81.5 111.5
l151 30q4 -20 23.5 -41t54.5 -21z" />
    <glyph glyph-name="Scaron" unicode="&#x160;" horiz-adv-x="590" 
d="M403 765l215 132l-44 93l-172 -109l-137 116l-69 -83l171 -145zM345 131q41 0 68 20t27 51q0 48 -107 75q-98 26 -151 80t-53 128q0 98 72 163.5t179 65.5q100 0 173.5 -54.5t93.5 -142.5l-153 -40q-10 43 -42.5 68.5t-75.5 25.5q-38 0 -63.5 -20.5t-25.5 -50.5
q0 -24 24 -41.5t77 -32.5q100 -27 154.5 -83t54.5 -131q0 -96 -73 -160t-183 -64q-102 0 -178 52t-98 136l157 57q10 -47 43.5 -74.5t79.5 -27.5z" />
    <glyph glyph-name="scaron" unicode="&#x161;" horiz-adv-x="490" 
d="M366 554l215 132l-44 93l-172 -109l-137 116l-69 -83l171 -145zM281 109q22 0 35.5 10t13.5 25q0 25 -65 40q-169 38 -169 150q0 73 56 126.5t144 53.5q76 0 136.5 -42t77.5 -111l-152 -29q-3 18 -19.5 35.5t-45.5 17.5q-20 0 -32.5 -9.5t-12.5 -24.5q0 -28 68 -41
q80 -18 123 -56.5t43 -94.5q0 -70 -56.5 -120.5t-146.5 -50.5q-82 0 -145.5 41.5t-81.5 111.5l151 30q4 -20 23.5 -41t54.5 -21z" />
    <glyph glyph-name="uni0162" unicode="&#x162;" horiz-adv-x="611" 
d="M399 -170q0 15 -7.5 23.5t-20.5 8.5q-14 0 -28 -12l-108 46l24 137l114 -10l-17 -100q33 30 71 30q39 0 64.5 -32.5t25.5 -81.5q0 -72 -48 -120.5t-120 -48.5q-66 0 -110.5 36t-51.5 94l118 30q1 -20 14.5 -32t34.5 -12q20 0 32.5 12.5t12.5 31.5zM712 700l-26 -148h-205
l-99 -552h-150l98 552h-210l26 148h566z" />
    <glyph glyph-name="uni0163" unicode="&#x163;" horiz-adv-x="428" 
d="M393 -170q0 15 -7.5 23.5t-20.5 8.5q-14 0 -28 -12l-108 46l24 137l114 -10l-17 -100q33 30 71 30q39 0 64.5 -32.5t25.5 -81.5q0 -72 -48 -120.5t-120 -48.5q-66 0 -110.5 36t-51.5 94l118 30q1 -20 14.5 -32t34.5 -12q20 0 32.5 12.5t12.5 31.5zM351 137h80l-24 -137
h-102q-77 0 -121 39t-44 103q0 18 3 34l33 186h-87l24 138h87l25 145l155 18l-29 -163h142l-25 -138h-141l-29 -164q-1 -7 -1 -13q0 -23 14.5 -35.5t39.5 -12.5z" />
    <glyph glyph-name="Tcaron" unicode="&#x164;" horiz-adv-x="611" 
d="M464 780l215 132l-44 93l-172 -109l-137 116l-69 -83l171 -145zM712 700l-26 -148h-205l-99 -552h-150l98 552h-210l26 148h566z" />
    <glyph glyph-name="tcaron" unicode="&#x165;" horiz-adv-x="428" 
d="M534 812l127 -38l-103 -246l-122 36zM351 137h80l-24 -137h-102q-77 0 -121 39t-44 103q0 18 3 34l33 186h-87l24 138h87l25 145l155 18l-29 -163h142l-25 -138h-141l-29 -164q-1 -7 -1 -13q0 -23 14.5 -35.5t39.5 -12.5z" />
    <glyph glyph-name="Tbar" unicode="&#x166;" horiz-adv-x="611" 
d="M571 380l-26 -147h-401l26 147h401zM711 700l-26 -148h-207l-97 -552h-150l97 552h-207l27 148h563z" />
    <glyph glyph-name="tbar" unicode="&#x167;" horiz-adv-x="428" 
d="M351 137h80l-24 -137h-102q-77 0 -121 39t-44 103q0 18 3 34l33 186h-87l24 138h87l25 145l155 18l-29 -163h142l-25 -138h-141l-29 -164q-1 -7 -1 -13q0 -23 14.5 -35.5t39.5 -12.5zM456 313l-20 -113h-372l20 113h372z" />
    <glyph glyph-name="Utilde" unicode="&#x168;" horiz-adv-x="690" 
d="M422 942q-106 0 -149 -143l95 -18q20 62 53 62q17 0 40 -22q50 -46 96 -46q104 0 147 143l-94 18q-21 -58 -58 -58q-21 0 -41 20q-25 25 -44.5 34.5t-44.5 9.5zM369 -11q-118 0 -195 74t-77 190q0 28 5 56l68 391h151l-69 -394q-3 -19 -3 -37q0 -12 2.5 -26t11 -33.5
t22.5 -34.5t39 -25.5t58 -10.5q58 0 99.5 37.5t53.5 104.5l73 419h151l-77 -442q-21 -119 -109.5 -194t-203.5 -75z" />
    <glyph glyph-name="utilde" unicode="&#x169;" horiz-adv-x="561" 
d="M317 732q-106 0 -149 -143l95 -18q20 62 53 62q17 0 40 -22q50 -46 96 -46q104 0 147 143l-94 18q-21 -58 -58 -58q-21 0 -41 20q-25 25 -44.5 34.5t-44.5 9.5zM599 500l-88 -500h-152l88 500h152zM290 500l-53 -296q-6 -37 12 -60t54 -23q35 0 59.5 18.5t29.5 52.5h54
q-15 -83 -77 -142.5t-138 -59.5q-79 0 -122 54.5t-26 150.5l54 305h153z" />
    <glyph glyph-name="Umacron" unicode="&#x16a;" horiz-adv-x="690" 
d="M663 899l-20 -114h-342l20 114h342zM369 -11q-118 0 -195 74t-77 190q0 28 5 56l68 391h151l-69 -394q-3 -19 -3 -37q0 -12 2.5 -26t11 -33.5t22.5 -34.5t39 -25.5t58 -10.5q58 0 99.5 37.5t53.5 104.5l73 419h151l-77 -442q-21 -119 -109.5 -194t-203.5 -75z" />
    <glyph glyph-name="umacron" unicode="&#x16b;" horiz-adv-x="561" 
d="M558 689l-20 -114h-342l20 114h342zM599 500l-88 -500h-152l88 500h152zM290 500l-53 -296q-6 -37 12 -60t54 -23q35 0 59.5 18.5t29.5 52.5h54q-15 -83 -77 -142.5t-138 -59.5q-79 0 -122 54.5t-26 150.5l54 305h153z" />
    <glyph glyph-name="Ubreve" unicode="&#x16c;" horiz-adv-x="690" 
d="M481 778q-75 0 -123 43.5t-48 109.5q0 15 3 30h107q-2 -7 -2 -14q0 -29 20.5 -47.5t54.5 -18.5q39 0 70 23.5t37 56.5h121q-13 -73 -84.5 -128t-155.5 -55zM369 -11q-118 0 -195 74t-77 190q0 28 5 56l68 391h151l-69 -394q-3 -19 -3 -37q0 -12 2.5 -26t11 -33.5
t22.5 -34.5t39 -25.5t58 -10.5q58 0 99.5 37.5t53.5 104.5l73 419h151l-77 -442q-21 -119 -109.5 -194t-203.5 -75z" />
    <glyph glyph-name="ubreve" unicode="&#x16d;" horiz-adv-x="561" 
d="M376 568q-75 0 -123 43.5t-48 109.5q0 15 3 30h107q-2 -7 -2 -14q0 -29 20.5 -47.5t54.5 -18.5q39 0 70 23.5t37 56.5h121q-13 -73 -84.5 -128t-155.5 -55zM599 500l-88 -500h-152l88 500h152zM290 500l-53 -296q-6 -37 12 -60t54 -23q35 0 59.5 18.5t29.5 52.5h54
q-15 -83 -77 -142.5t-138 -59.5q-79 0 -122 54.5t-26 150.5l54 305h153z" />
    <glyph glyph-name="Uring" unicode="&#x16e;" horiz-adv-x="690" 
d="M492 968q-22 0 -37.5 -15.5t-15.5 -38.5q0 -19 13 -31.5t33 -12.5q22 0 37.5 16t15.5 39q0 19 -13 31t-33 12zM343 905q0 65 46 112t111 47q57 0 95.5 -36.5t38.5 -93.5q0 -65 -46 -112t-111 -47q-57 0 -95.5 36.5t-38.5 93.5zM369 -11q-118 0 -195 74t-77 190q0 28 5 56
l68 391h151l-69 -394q-3 -19 -3 -37q0 -12 2.5 -26t11 -33.5t22.5 -34.5t39 -25.5t58 -10.5q58 0 99.5 37.5t53.5 104.5l73 419h151l-77 -442q-21 -119 -109.5 -194t-203.5 -75z" />
    <glyph glyph-name="uring" unicode="&#x16f;" horiz-adv-x="561" 
d="M387 758q-22 0 -37.5 -15.5t-15.5 -38.5q0 -19 13 -31.5t33 -12.5q22 0 37.5 16t15.5 39q0 19 -13 31t-33 12zM238 695q0 65 46 112t111 47q57 0 95.5 -36.5t38.5 -93.5q0 -65 -46 -112t-111 -47q-57 0 -95.5 36.5t-38.5 93.5zM599 500l-88 -500h-152l88 500h152z
M290 500l-53 -296q-6 -37 12 -60t54 -23q35 0 59.5 18.5t29.5 52.5h54q-15 -83 -77 -142.5t-138 -59.5q-79 0 -122 54.5t-26 150.5l54 305h153z" />
    <glyph glyph-name="Uhungarumlaut" unicode="&#x170;" horiz-adv-x="690" 
d="M762 901l-51 95l-194 -145l40 -71zM518 901l-51 95l-194 -145l40 -71zM369 -11q-118 0 -195 74t-77 190q0 28 5 56l68 391h151l-69 -394q-3 -19 -3 -37q0 -12 2.5 -26t11 -33.5t22.5 -34.5t39 -25.5t58 -10.5q58 0 99.5 37.5t53.5 104.5l73 419h151l-77 -442
q-21 -119 -109.5 -194t-203.5 -75z" />
    <glyph glyph-name="uhungarumlaut" unicode="&#x171;" horiz-adv-x="561" 
d="M657 691l-51 95l-194 -145l40 -71zM413 691l-51 95l-194 -145l40 -71zM599 500l-88 -500h-152l88 500h152zM290 500l-53 -296q-6 -37 12 -60t54 -23q35 0 59.5 18.5t29.5 52.5h54q-15 -83 -77 -142.5t-138 -59.5q-79 0 -122 54.5t-26 150.5l54 305h153z" />
    <glyph glyph-name="Uogonek" unicode="&#x172;" horiz-adv-x="690" 
d="M311 -300q-59 0 -97 33t-38 83q0 48 24.5 81t82.5 64l29 15l6 33h105l-12 -67l-73 -40q-53 -26 -53 -65q0 -15 9 -23.5t24 -8.5q29 0 41 29l97 -28q-22 -50 -60.5 -78t-84.5 -28zM369 -11q-118 0 -195 74t-77 190q0 28 5 56l68 391h151l-69 -394q-3 -19 -3 -37
q0 -12 2.5 -26t11 -33.5t22.5 -34.5t39 -25.5t58 -10.5q58 0 99.5 37.5t53.5 104.5l73 419h151l-77 -442q-21 -119 -109.5 -194t-203.5 -75z" />
    <glyph glyph-name="uogonek" unicode="&#x173;" horiz-adv-x="561" 
d="M378 -301q-59 0 -97 33t-38 83q0 48 24.5 81t82.5 64l29 15l6 33h105l-12 -67l-73 -40q-53 -26 -53 -65q0 -15 9 -23.5t24 -8.5q29 0 41 29l97 -28q-22 -50 -60.5 -78t-84.5 -28zM599 500l-88 -500h-152l88 500h152zM290 500l-53 -296q-6 -37 12 -60t54 -23
q35 0 59.5 18.5t29.5 52.5h54q-15 -83 -77 -142.5t-138 -59.5q-79 0 -122 54.5t-26 150.5l54 305h153z" />
    <glyph glyph-name="Wcircumflex" unicode="&#x174;" horiz-adv-x="1064" 
d="M683 993l-215 -131l44 -94l172 110l137 -117l69 84l-171 145zM982 700h165l-280 -700h-222l-33 474l-178 -474h-230l-49 700h160l34 -510l209 510h180l43 -510z" />
    <glyph glyph-name="wcircumflex" unicode="&#x175;" horiz-adv-x="912" 
d="M566 783l-215 -131l44 -94l172 110l137 -117l69 84l-171 145zM815 500h161l-226 -500h-215l-33 307l-137 -307h-197l-53 500h153l24 -355l164 355h155l45 -360z" />
    <glyph glyph-name="Ycircumflex" unicode="&#x176;" horiz-adv-x="691" 
d="M510 993l-215 -131l44 -94l172 110l137 -117l69 84l-171 145zM279 0h150l39 223l320 477h-182l-187 -293l-102 293h-171l172 -477z" />
    <glyph glyph-name="ycircumflex" unicode="&#x177;" horiz-adv-x="609" 
d="M417 782l-215 -131l44 -94l172 110l137 -117l69 84l-171 145zM507 500l-180 -330l-59 330h-153l100 -483l-121 -217h166l411 700h-164z" />
    <glyph glyph-name="Ydieresis" unicode="&#x178;" horiz-adv-x="691" 
d="M521 866q0 38 26 63.5t63.5 25.5t63.5 -25.5t26 -63.5t-26 -63.5t-63.5 -25.5t-63.5 25.5t-26 63.5zM274 866q0 38 26 63.5t63.5 25.5t63.5 -25.5t26 -63.5t-26 -63.5t-63.5 -25.5t-63.5 25.5t-26 63.5zM279 0h150l39 223l320 477h-182l-187 -293l-102 293h-171l172 -477
z" />
    <glyph glyph-name="Zacute" unicode="&#x179;" horiz-adv-x="628" 
d="M635 898l-59 95l-194 -127l57 -89zM592 0l26 147h-353l420 379l30 174h-548l-26 -147h353l-418 -373l-32 -180h548z" />
    <glyph glyph-name="zacute" unicode="&#x17a;" horiz-adv-x="490" 
d="M529 687l-59 95l-194 -127l57 -89zM461 0l23 130h-263l300 217l27 153h-429l-23 -130h236l-274 -217l-27 -153h430z" />
    <glyph glyph-name="Zdotaccent" unicode="&#x17b;" horiz-adv-x="628" 
d="M367 866q0 38 25.5 63.5t63.5 25.5t63.5 -25.5t25.5 -63.5t-25.5 -63.5t-63.5 -25.5t-63.5 25.5t-25.5 63.5zM592 0l26 147h-353l420 379l30 174h-548l-26 -147h353l-418 -373l-32 -180h548z" />
    <glyph glyph-name="zdotaccent" unicode="&#x17c;" horiz-adv-x="490" 
d="M261 655q0 38 25.5 63.5t63.5 25.5t63.5 -25.5t25.5 -63.5t-25.5 -63.5t-63.5 -25.5t-63.5 25.5t-25.5 63.5zM461 0l23 130h-263l300 217l27 153h-429l-23 -130h236l-274 -217l-27 -153h430z" />
    <glyph glyph-name="Zcaron" unicode="&#x17d;" horiz-adv-x="628" 
d="M474 765l215 132l-44 93l-172 -109l-137 116l-69 -83l171 -145zM592 0l26 147h-353l420 379l30 174h-548l-26 -147h353l-418 -373l-32 -180h548z" />
    <glyph glyph-name="zcaron" unicode="&#x17e;" horiz-adv-x="490" 
d="M368 554l215 132l-44 93l-172 -109l-137 116l-69 -83l171 -145zM461 0l23 130h-263l300 217l27 153h-429l-23 -130h236l-274 -217l-27 -153h430z" />
    <glyph glyph-name="Ohorn" unicode="&#x1a0;" 
d="M867 708q0 -65 -40 -104t-110 -39h-91l17 93h60q25 0 39.5 13t14.5 36q0 21 -19 38l83 66q17 -12 31.5 -44t14.5 -59zM474 570q-96 0 -164 -70.5t-68 -170.5q0 -86 55 -141.5t140 -55.5q96 0 164.5 72t68.5 171q0 85 -55.5 140t-140.5 55zM91 326q0 106 51.5 197t140 144
t192.5 53q147 0 246.5 -97.5t99.5 -243.5q0 -106 -52 -197.5t-140.5 -145.5t-192.5 -54q-147 0 -246 98.5t-99 245.5z" />
    <glyph glyph-name="ohorn" unicode="&#x1a1;" horiz-adv-x="668" 
d="M771 487q0 -65 -40 -104t-110 -39h-91l17 93h60q25 0 39.5 13t14.5 36q0 21 -19 38l83 66q17 -12 31.5 -44t14.5 -59zM364 378q-58 0 -98 -41.5t-40 -99.5q0 -50 34 -81.5t84 -31.5q58 0 98 41.5t40 99.5q0 50 -34 81.5t-84 31.5zM75 225q0 122 87 208.5t212 86.5
q110 0 184.5 -68.5t74.5 -174.5q0 -122 -87 -208.5t-212 -86.5q-110 0 -184.5 68.5t-74.5 174.5z" />
    <glyph glyph-name="Uhorn" unicode="&#x1af;" horiz-adv-x="843" 
d="M931 686q0 -65 -40 -104t-110 -39h-91l17 93h60q25 0 39.5 13t14.5 36q0 21 -19 38l83 66q17 -12 31.5 -44t14.5 -59zM369 -11q-118 0 -195 74t-77 190q0 28 5 56l68 391h151l-69 -394q-3 -19 -3 -37q0 -12 2.5 -26t11 -33.5t22.5 -34.5t39 -25.5t58 -10.5
q58 0 99.5 37.5t53.5 104.5l73 419h151l-77 -442q-21 -119 -109.5 -194t-203.5 -75z" />
    <glyph glyph-name="uhorn" unicode="&#x1b0;" horiz-adv-x="709" 
d="M762 470q0 -65 -40 -104t-110 -39h-91l17 93h60q25 0 39.5 13t14.5 36q0 21 -19 38l83 66q17 -12 31.5 -44t14.5 -59zM599 500l-88 -500h-152l88 500h152zM290 500l-53 -296q-6 -37 12 -60t54 -23q35 0 59.5 18.5t29.5 52.5h54q-15 -83 -77 -142.5t-138 -59.5
q-79 0 -122 54.5t-26 150.5l54 305h153z" />
    <glyph glyph-name="uni0237" unicode="&#x237;" horiz-adv-x="246" 
d="M-26 -62q30 0 50.5 22.5t26.5 58.5l85 481h152l-96 -541q-13 -72 -70 -121.5t-135 -49.5h-47l17 150h17z" />
    <glyph glyph-name="uni02BC" unicode="&#x2bc;" horiz-adv-x="241" 
d="M220 778l125 -50l-101 -240l-121 48z" />
    <glyph glyph-name="gravecomb" unicode="&#x300;" horiz-adv-x="264" 
d="M13 652l76 83l158 -157l-72 -78z" />
    <glyph glyph-name="acutecomb" unicode="&#x301;" horiz-adv-x="264" 
d="M284 621l-59 95l-194 -127l57 -89z" />
    <glyph glyph-name="uni0302" unicode="&#x302;" horiz-adv-x="388" 
d="M216 716l-215 -131l44 -94l172 110l137 -117l69 84l-171 145z" />
    <glyph glyph-name="tildecomb" unicode="&#x303;" horiz-adv-x="404" 
d="M146 667q-106 0 -149 -143l95 -18q20 62 53 62q17 0 40 -22q50 -46 96 -46q104 0 147 143l-94 18q-21 -58 -58 -58q-21 0 -41 20q-25 25 -44.5 34.5t-44.5 9.5z" />
    <glyph glyph-name="uni0304" unicode="&#x304;" horiz-adv-x="352" 
d="M357 624l-20 -114h-342l20 114h342z" />
    <glyph glyph-name="uni0306" unicode="&#x306;" horiz-adv-x="338" 
d="M169 503q-75 0 -123 43.5t-48 109.5q0 15 3 30h107q-2 -7 -2 -14q0 -29 20.5 -47.5t54.5 -18.5q39 0 70 23.5t37 56.5h121q-13 -73 -84.5 -128t-155.5 -55z" />
    <glyph glyph-name="uni0307" unicode="&#x307;" horiz-adv-x="170" 
d="M-4 589q0 38 25.5 63.5t63.5 25.5t63.5 -25.5t25.5 -63.5t-25.5 -63.5t-63.5 -25.5t-63.5 25.5t-25.5 63.5z" />
    <glyph glyph-name="uni0308" unicode="&#x308;" horiz-adv-x="390" 
d="M229 589q0 38 26 63.5t63.5 25.5t63.5 -25.5t26 -63.5t-26 -63.5t-63.5 -25.5t-63.5 25.5t-26 63.5zM-18 589q0 38 26 63.5t63.5 25.5t63.5 -25.5t26 -63.5t-26 -63.5t-63.5 -25.5t-63.5 25.5t-26 63.5z" />
    <glyph glyph-name="hookabovecomb" unicode="&#x309;" horiz-adv-x="260" 
d="M151 800q59 0 96 -35t37 -91q0 -51 -26 -86.5t-87 -72.5l-47 -25l-44 86l62 31q42 20 42 56q0 18 -12 29t-31 11q-33 0 -46 -32l-88 31q21 46 59 72t85 26z" />
    <glyph glyph-name="uni030A" unicode="&#x30a;" horiz-adv-x="298" 
d="M163 693q-22 0 -37.5 -15.5t-15.5 -38.5q0 -19 13 -31.5t33 -12.5q22 0 37.5 16t15.5 39q0 19 -13 31t-33 12zM14 630q0 65 46 112t111 47q57 0 95.5 -36.5t38.5 -93.5q0 -65 -46 -112t-111 -47q-57 0 -95.5 36.5t-38.5 93.5z" />
    <glyph glyph-name="uni030B" unicode="&#x30b;" horiz-adv-x="424" 
d="M489 626l-51 95l-194 -145l40 -71zM245 626l-51 95l-194 -145l40 -71z" />
    <glyph glyph-name="uni030C" unicode="&#x30c;" horiz-adv-x="388" 
d="M212 488l215 132l-44 93l-172 -109l-137 116l-69 -83l171 -145z" />
    <glyph glyph-name="uni0312" unicode="&#x312;" horiz-adv-x="170" 
d="M271 582q-6 -33 -32.5 -57.5t-61.5 -24.5t-55 23.5t-14 57.5q5 29 26 52l156 179l45 -39l-102 -115q22 -9 32.5 -30t5.5 -46z" />
    <glyph glyph-name="uni0313" unicode="&#x313;" horiz-adv-x="170" 
d="M164 731q6 32 32.5 56.5t61.5 24.5t55 -23t14 -57q-5 -30 -26 -53l-156 -179l-45 39l102 115q-22 10 -32 31t-6 46z" />
    <glyph glyph-name="uni0315" unicode="&#x315;" horiz-adv-x="170" 
d="M251 748l127 -38l-103 -246l-122 36z" />
    <glyph glyph-name="uni031B" unicode="&#x31b;" horiz-adv-x="247" 
d="M363 575q0 -65 -40 -104t-110 -39h-91l17 93h60q25 0 39.5 13t14.5 36q0 21 -19 38l83 66q17 -12 31.5 -44t14.5 -59z" />
    <glyph glyph-name="dotbelowcomb" unicode="&#x323;" horiz-adv-x="170" 
d="M-26 -155q0 38 25.5 63.5t63.5 25.5t63.5 -25.5t25.5 -63.5t-25.5 -63.5t-63.5 -25.5t-63.5 25.5t-25.5 63.5z" />
    <glyph glyph-name="uni0326" unicode="&#x326;" horiz-adv-x="170" 
d="M68 -269q0 -36 -25.5 -62.5t-60.5 -26.5q-33 0 -55.5 21.5t-22.5 53.5q0 36 27 65l155 166l44 -44l-101 -106q39 -22 39 -67z" />
    <glyph glyph-name="uni0327" unicode="&#x327;" horiz-adv-x="378" 
d="M205 -170q0 15 -7.5 23.5t-20.5 8.5q-14 0 -28 -12l-108 46l24 137l114 -10l-17 -100q33 30 71 30q39 0 64.5 -32.5t25.5 -81.5q0 -72 -48 -120.5t-120 -48.5q-66 0 -110.5 36t-51.5 94l118 30q1 -20 14.5 -32t34.5 -12q20 0 32.5 12.5t12.5 31.5z" />
    <glyph glyph-name="uni0328" unicode="&#x328;" horiz-adv-x="247" 
d="M81 -301q-59 0 -97 33t-38 83q0 48 24.5 81t82.5 64l29 15l6 33h105l-12 -67l-73 -40q-53 -26 -53 -65q0 -15 9 -23.5t24 -8.5q29 0 41 29l97 -28q-22 -50 -60.5 -78t-84.5 -28z" />
    <glyph glyph-name="uni0400" unicode="&#x400;" horiz-adv-x="587" 
d="M286 929l76 83l158 -157l-72 -78zM276 433h327l-25 -147h-327l-25 -139h351l-25 -147h-505l124 700h503l-26 -147h-351z" />
    <glyph glyph-name="uni0401" unicode="&#x401;" horiz-adv-x="587" 
d="M465 866q0 38 26 63.5t63.5 25.5t63.5 -25.5t26 -63.5t-26 -63.5t-63.5 -25.5t-63.5 25.5t-26 63.5zM218 866q0 38 26 63.5t63.5 25.5t63.5 -25.5t26 -63.5t-26 -63.5t-63.5 -25.5t-63.5 25.5t-26 63.5zM276 433h327l-25 -147h-327l-25 -139h351l-25 -147h-505l124 700
h503l-26 -147h-351z" />
    <glyph glyph-name="uni0402" unicode="&#x402;" horiz-adv-x="765" 
d="M527 148q37 0 61.5 21.5t24.5 49.5q0 24 -18 39t-46 15h-178l-48 -273h-150l97 553h-147l26 147h564l-26 -147h-267l-23 -132h177q84 0 138 -52t54 -132q0 -58 -28.5 -112t-83 -89.5t-119.5 -35.5h-105l26 148h71z" />
    <glyph glyph-name="uni0403" unicode="&#x403;" horiz-adv-x="591" 
d="M626 898l-59 95l-194 -127l57 -89zM52 0h150l99 560h360l24 140h-510z" />
    <glyph glyph-name="uni0404" unicode="&#x404;" horiz-adv-x="778" 
d="M90 321q0 111 52.5 202.5t143.5 144t201 52.5q50 0 97.5 -14t92 -42t79.5 -77.5t54 -115.5l-146 -48q-16 67 -67.5 107t-122.5 40q-95 0 -163.5 -71.5t-68.5 -171.5q0 -84 55 -139.5t139 -55.5q62 0 116.5 34t87.5 92l135 -75q-58 -97 -149 -149.5t-200 -52.5
q-143 0 -239.5 97t-96.5 243zM594 426l-17 -147h-382v147h399z" />
    <glyph glyph-name="uni0405" unicode="&#x405;" horiz-adv-x="590" 
d="M345 131q41 0 68 20t27 51q0 48 -107 75q-98 26 -151 80t-53 128q0 98 72 163.5t179 65.5q100 0 173.5 -54.5t93.5 -142.5l-153 -40q-10 43 -42.5 68.5t-75.5 25.5q-38 0 -63.5 -20.5t-25.5 -50.5q0 -24 24 -41.5t77 -32.5q100 -27 154.5 -83t54.5 -131q0 -96 -73 -160
t-183 -64q-102 0 -178 52t-98 136l157 57q10 -47 43.5 -74.5t79.5 -27.5z" />
    <glyph glyph-name="uni0406" unicode="&#x406;" horiz-adv-x="253" 
d="M199 0h-152l123 700h151z" />
    <glyph glyph-name="uni0407" unicode="&#x407;" horiz-adv-x="253" 
d="M291 864q0 38 26 63.5t63.5 25.5t63.5 -25.5t26 -63.5t-26 -63.5t-63.5 -25.5t-63.5 25.5t-26 63.5zM44 864q0 38 26 63.5t63.5 25.5t63.5 -25.5t26 -63.5t-26 -63.5t-63.5 -25.5t-63.5 25.5t-26 63.5zM199 0h-152l123 700h151z" />
    <glyph glyph-name="uni0408" unicode="&#x408;" horiz-adv-x="649" 
d="M211 258q13 -118 131 -118q56 0 95.5 36.5t50.5 99.5l74 424h151l-78 -447q-21 -116 -107 -190t-200 -74q-110 0 -182 63.5t-85 171.5z" />
    <glyph glyph-name="uni0409" unicode="&#x409;" horiz-adv-x="1192" 
d="M927 0q73 0 135.5 38.5t97.5 100.5t35 129q0 81 -55.5 134t-142.5 53h-235l42 245h-483l-72 -412q-11 -64 -55 -106t-111 -42h-27l-25 -140h46q120 0 209 76.5t108 181.5l53 302h183l-99 -560h396zM1043 243q0 -36 -28.5 -65.5t-71.5 -29.5h-235l27 159h236q32 0 52 -18
t20 -46z" />
    <glyph glyph-name="uni040A" unicode="&#x40a;" horiz-adv-x="1034" 
d="M779 0q54 0 102.5 21t82 55t53.5 77.5t20 88.5q0 85 -53.5 140.5t-137.5 55.5h-194l46 262h-150l-123 -700h354zM885 233q0 -31 -25.5 -58t-64.5 -27h-193l24 142h194q29 0 47 -16t18 -41zM511 435h-233l47 265h-150l-123 -700h150l51 287h233z" />
    <glyph glyph-name="uni040B" unicode="&#x40b;" horiz-adv-x="702" 
d="M695 192l-34 -192h-150l34 192q1 5 1 15q0 29 -19.5 47.5t-51.5 18.5h-104l-48 -273h-150l97 553h-147l26 147h549l-26 -147h-252l-23 -132h104q86 0 142 -53.5t56 -134.5q0 -23 -4 -41z" />
    <glyph glyph-name="uni040C" unicode="&#x40c;" horiz-adv-x="679" 
d="M647 896l-59 95l-194 -127l57 -89zM47 0l124 700h152l-49 -275h19l279 275h202l-358 -350l233 -350h-184l-191 272h-27l-48 -272h-152z" />
    <glyph glyph-name="uni040D" unicode="&#x40d;" horiz-adv-x="696" 
d="M344 929l76 83l158 -157l-72 -78zM645 0h-150l81 462l-344 -462h-180l123 700h150l-81 -460l343 460h181z" />
    <glyph glyph-name="uni040E" unicode="&#x40e;" horiz-adv-x="692" 
d="M493 780q-75 0 -123 43.5t-48 109.5q0 15 3 30h107q-2 -7 -2 -14q0 -29 20.5 -47.5t54.5 -18.5q39 0 70 23.5t37 56.5h121q-13 -73 -84.5 -128t-155.5 -55zM168 0h170l448 700h-185l-182 -313l-97 313h-169l165 -449z" />
    <glyph glyph-name="uni040F" unicode="&#x40f;" horiz-adv-x="730" 
d="M678 0l124 700h-151l-98 -560h-326l98 560h-150l-123 -700h234l-31 -175h167l30 175h226z" />
    <glyph glyph-name="uni0410" unicode="&#x410;" horiz-adv-x="795" 
d="M213 0h-180l390 700h206l144 -700h-167l-102 529zM263 290h383l-25 -140h-383z" />
    <glyph glyph-name="uni0411" unicode="&#x411;" horiz-adv-x="698" 
d="M700 248q0 -59 -32 -115.5t-93.5 -94.5t-135.5 -38h-387l123 700h492l-26 -147h-342l-22 -123h228q85 0 140 -52t55 -130zM455 148q40 0 66 23t26 53q0 25 -19 41.5t-49 16.5h-227l-24 -134h227z" />
    <glyph glyph-name="uni0412" unicode="&#x412;" horiz-adv-x="656" 
d="M467 423q30 0 54 22.5t24 51.5q0 24 -15.5 39.5t-40.5 15.5h-192l-24 -129h194zM428 148q32 0 55.5 22.5t23.5 52.5q0 26 -18 41t-47 15h-193l-23 -131h202zM655 224q0 -91 -71 -157.5t-171 -66.5h-366l124 700h356q78 0 126.5 -44t48.5 -113q0 -56 -32.5 -109t-84.5 -81
q34 -19 52 -53t18 -76z" />
    <glyph glyph-name="uni0413" unicode="&#x413;" horiz-adv-x="591" 
d="M52 0h150l99 560h360l24 140h-510z" />
    <glyph glyph-name="uni0414" unicode="&#x414;" horiz-adv-x="806" 
d="M51 140l-45 -256h150l20 116h455l-20 -116h150l45 256h-755zM85 140h-34l-4 -104h29q128 0 221.5 75.5t112.5 179.5l45 261h180l-97 -551h150l123 699h-480l-70 -395q-12 -72 -58.5 -118.5t-117.5 -46.5z" />
    <glyph glyph-name="uni0415" unicode="&#x415;" horiz-adv-x="587" 
d="M276 433h327l-25 -147h-327l-25 -139h351l-25 -147h-505l124 700h503l-26 -147h-351z" />
    <glyph glyph-name="uni0416" unicode="&#x416;" horiz-adv-x="1038" 
d="M567 700h150l-47 -273h51l237 273h176l-304 -348l181 -352h-157l-141 274h-70l-49 -274h-150l49 274h-51l-244 -274h-170l305 349l-182 351h152l147 -273h69z" />
    <glyph glyph-name="uni0417" unicode="&#x417;" horiz-adv-x="569" 
d="M455 504q0 31 -22 51t-57 20q-29 0 -55.5 -15.5t-42.5 -43.5l-125 75q40 59 102.5 92.5t133.5 33.5q94 0 157.5 -53t63.5 -132q0 -57 -33 -104.5t-87 -70.5q39 -25 60 -66t21 -88q0 -94 -73.5 -157.5t-181.5 -63.5q-95 0 -164.5 47.5t-93.5 127.5l156 60q8 -42 37 -67.5
t71 -25.5q43 0 72.5 27t29.5 67q0 31 -19.5 51t-49.5 20h-105l16 139h113q33 0 54.5 21.5t21.5 54.5z" />
    <glyph glyph-name="uni0418" unicode="&#x418;" horiz-adv-x="696" 
d="M645 0h-150l81 462l-344 -462h-180l123 700h150l-81 -460l343 460h181z" />
    <glyph glyph-name="uni0419" unicode="&#x419;" horiz-adv-x="696" 
d="M493 780q-75 0 -123 43.5t-48 109.5q0 15 3 30h107q-2 -7 -2 -14q0 -29 20.5 -47.5t54.5 -18.5q39 0 70 23.5t37 56.5h121q-13 -73 -84.5 -128t-155.5 -55zM645 0h-150l81 462l-344 -462h-180l123 700h150l-81 -460l343 460h181z" />
    <glyph glyph-name="uni041A" unicode="&#x41a;" horiz-adv-x="679" 
d="M47 0l124 700h152l-49 -275h19l279 275h202l-358 -350l233 -350h-184l-191 272h-27l-48 -272h-152z" />
    <glyph glyph-name="uni041B" unicode="&#x41b;" horiz-adv-x="732" 
d="M83 140h-27l-25 -140h46q120 0 209 76.5t108 181.5l53 302h183l-99 -560h150l123 700h-483l-72 -412q-11 -64 -55 -106t-111 -42z" />
    <glyph glyph-name="uni041C" unicode="&#x41c;" horiz-adv-x="836" 
d="M46 0l123 700h166l132 -375l270 375h182l-123 -700h-152l76 434l-231 -328h-96l-117 330l-77 -436h-153z" />
    <glyph glyph-name="uni041D" unicode="&#x41d;" horiz-adv-x="696" 
d="M47 0l123 700h151l-46 -269h293l47 269h151l-122 -700h-152l52 287h-294l-51 -287h-152z" />
    <glyph glyph-name="uni041E" unicode="&#x41e;" 
d="M474 570q-96 0 -164 -70.5t-68 -170.5q0 -86 55 -141.5t140 -55.5q96 0 164.5 72t68.5 171q0 85 -55.5 140t-140.5 55zM91 326q0 106 51.5 197t140 144t192.5 53q147 0 246.5 -97.5t99.5 -243.5q0 -106 -52 -197.5t-140.5 -145.5t-192.5 -54q-147 0 -246 98.5t-99 245.5z
" />
    <glyph glyph-name="uni041F" unicode="&#x41f;" horiz-adv-x="713" 
d="M51 0l123 700h611l-123 -700h-150l99 560h-310l-99 -560h-151z" />
    <glyph glyph-name="uni0420" unicode="&#x420;" horiz-adv-x="643" 
d="M405 350q64 0 99.5 33.5t35.5 85.5q0 37 -27 60t-71 23h-145l-36 -202h144zM693 482q0 -121 -85.5 -200.5t-212.5 -79.5h-160l-36 -202h-152l124 700h289q96 0 164.5 -64t68.5 -154z" />
    <glyph glyph-name="uni0421" unicode="&#x421;" horiz-adv-x="778" 
d="M90 321q0 111 52.5 202.5t143.5 144t201 52.5q50 0 97.5 -14t92 -42t79.5 -77.5t54 -115.5l-146 -48q-16 67 -67.5 107t-122.5 40q-95 0 -163.5 -71.5t-68.5 -171.5q0 -84 55 -139.5t139 -55.5q62 0 116.5 34t87.5 92l135 -75q-58 -97 -149 -149.5t-200 -52.5
q-143 0 -239.5 97t-96.5 243z" />
    <glyph glyph-name="uni0422" unicode="&#x422;" horiz-adv-x="611" 
d="M712 700l-26 -148h-205l-99 -552h-150l98 552h-210l26 148h566z" />
    <glyph glyph-name="uni0423" unicode="&#x423;" horiz-adv-x="692" 
d="M168 0h170l448 700h-185l-182 -313l-97 313h-169l165 -449z" />
    <glyph glyph-name="uni0424" unicode="&#x424;" horiz-adv-x="804" 
d="M328 0l132 750h150l-132 -750h-150zM690 386q0 63 -65 102.5t-168 39.5q-93 0 -150 -40t-57 -106q0 -64 64.5 -104t167.5 -40q93 0 150.5 41t57.5 107zM99 369q0 132 103 216.5t265 84.5q166 0 270 -75t104 -195q0 -133 -104 -218.5t-265 -85.5q-166 0 -269.5 75.5
t-103.5 197.5z" />
    <glyph glyph-name="uni0425" unicode="&#x425;" horiz-adv-x="719" 
d="M693 0h-175l-105 268l-201 -268h-188l270 349l-146 351h175l106 -270l200 270h188l-269 -351z" />
    <glyph glyph-name="uni0426" unicode="&#x426;" horiz-adv-x="758" 
d="M657 148l96 552h-150l-97 -552h-278l97 552h-150l-123 -700h526l-23 -133h150l50 281h-98z" />
    <glyph glyph-name="uni0427" unicode="&#x427;" horiz-adv-x="661" 
d="M733 700l-123 -700h-150l123 700h150zM325 700l-39 -225q-3 -12 -3 -30q0 -48 28.5 -75.5t77.5 -27.5q54 0 98.5 33.5t52.5 79.5h55q-18 -109 -94 -181.5t-171 -72.5q-92 0 -149 49t-57 136q0 22 5 54l46 260h150z" />
    <glyph glyph-name="uni0428" unicode="&#x428;" horiz-adv-x="973" 
d="M922 0l123 700h-150l-97 -552h-208l97 552h-150l-97 -552h-212l97 552h-150l-123 -700h870z" />
    <glyph glyph-name="uni0429" unicode="&#x429;" horiz-adv-x="1041" 
d="M948 148l97 552h-150l-97 -552h-208l97 552h-150l-97 -552h-212l97 552h-150l-123 -700h810l-24 -133h150l50 281h-90z" />
    <glyph glyph-name="uni042A" unicode="&#x42a;" horiz-adv-x="818" 
d="M562 148q44 0 75.5 26.5t31.5 64.5q0 29 -22 48.5t-57 19.5h-189l-27 -159h188zM821 264q0 -106 -81 -185t-194 -79h-349l97 553h-167l26 147h317l-42 -245h189q90 0 147 -54t57 -137z" />
    <glyph glyph-name="uni042B" unicode="&#x42b;" horiz-adv-x="883" 
d="M832 0h-150l123 700h150zM648 268q0 -67 -35 -129t-97 -100.5t-135 -38.5h-329l123 700h150l-43 -245h169q87 0 142 -53t55 -134zM397 148q42 0 70.5 29.5t28.5 65.5q0 28 -19.5 46t-51.5 18h-169l-28 -159h169z" />
    <glyph glyph-name="uni042C" unicode="&#x42c;" horiz-adv-x="707" 
d="M715 268q0 -67 -35 -129t-97.5 -100.5t-135.5 -38.5h-395l123 700h150l-43 -245h236q87 0 142 -53t55 -134zM464 148q42 0 70.5 29.5t28.5 65.5q0 28 -20 46t-51 18h-236l-28 -159h236z" />
    <glyph glyph-name="uni042D" unicode="&#x42d;" horiz-adv-x="778" 
d="M805 380q0 -111 -52 -202.5t-143 -144t-202 -52.5q-50 0 -97 14t-91.5 42t-80 77.5t-54.5 114.5l146 49q17 -67 68.5 -107t121.5 -40q96 0 164.5 71.5t68.5 170.5q0 85 -55.5 140.5t-139.5 55.5q-61 0 -115.5 -34t-88.5 -93l-135 76q58 97 149.5 149.5t199.5 52.5
q144 0 240 -97.5t96 -242.5zM302 275l17 147h381v-147h-398z" />
    <glyph glyph-name="uni042E" unicode="&#x42e;" horiz-adv-x="1094" 
d="M537 327q0 102 67.5 172.5t164.5 70.5q85 0 140.5 -54t55.5 -139q0 -100 -68.5 -172.5t-164.5 -72.5q-84 0 -139.5 55t-55.5 140zM781 720q-108 0 -198.5 -54.5t-143.5 -148.5t-53 -205q0 -143 94.5 -236.5t238.5 -93.5q108 0 199.5 55.5t144 150t52.5 204.5
q0 143 -94.5 235.5t-239.5 92.5zM448 425h-175l49 275h-150l-124 -700h150l49 277h175z" />
    <glyph glyph-name="uni042F" unicode="&#x42f;" horiz-adv-x="644" 
d="M391 552q-49 0 -84 -27.5t-35 -66.5q0 -31 25.5 -51t64.5 -20h149l29 165h-149zM110 444q0 113 81.5 184.5t207.5 71.5h317l-123 -700h-150l42 240h-91l-182 -240h-181l214 258q-58 15 -96.5 68.5t-38.5 117.5z" />
    <glyph glyph-name="uni0430" unicode="&#x430;" horiz-adv-x="528" 
d="M319 512q90 0 154 -53t64 -128q0 -13 -3 -26l-52 -305h-151l33 194l-95 -6q-57 -4 -57 -37q0 -34 55 -34q39 0 65 18.5t31 50.5h34q-14 -86 -69 -140.5t-129 -54.5q-62 0 -101 39t-39 101q0 72 53.5 117.5t141.5 50.5l131 9v5q1 5 1 8q0 24 -21 40.5t-50 16.5
q-26 0 -48.5 -13.5t-31.5 -35.5l-137 61q30 55 90.5 88.5t130.5 33.5z" />
    <glyph glyph-name="uni0431" unicode="&#x431;" horiz-adv-x="610" 
d="M335 -17q-116 0 -183 68.5t-67 186.5q0 131 46.5 237.5t129 168t186.5 65.5q47 2 81 13.5t79 41.5l52 -116q-52 -36 -100 -52t-112 -19q-69 -4 -121.5 -55.5t-72.5 -135.5q29 38 76.5 61t98.5 23q82 0 135.5 -58t53.5 -149q0 -118 -81.5 -199t-200.5 -81zM353 331
q-49 0 -82.5 -28.5t-33.5 -71.5q0 -41 32.5 -69.5t79.5 -28.5q48 0 82 31t34 75q0 40 -31.5 66t-80.5 26z" />
    <glyph glyph-name="uni0432" unicode="&#x432;" horiz-adv-x="596" 
d="M423 305q17 0 29.5 10.5t12.5 25.5q0 12 -10.5 19.5t-27.5 7.5h-160l-11 -63h167zM396 132q19 0 33.5 10.5t14.5 26.5q0 11 -10.5 19t-26.5 8h-171l-11 -64h171zM592 162q0 -68 -61 -115t-149 -47h-330l88 500h320q72 0 117 -32t45 -82q0 -37 -24 -71t-63 -51
q27 -15 42 -42t15 -60z" />
    <glyph glyph-name="uni0433" unicode="&#x433;" horiz-adv-x="461" 
d="M52 0h150l63 360h228l25 140h-378z" />
    <glyph glyph-name="uni0434" unicode="&#x434;" horiz-adv-x="657" 
d="M51 140l-45 -256h150l20 116h305l-20 -116h150l45 256h-605zM75 140h-19l-16 -90h29q105 0 180.5 54.5t89.5 128.5l21 119h114l-63 -351h150l88 499h-413l-44 -253q-8 -47 -39 -77t-78 -30z" />
    <glyph glyph-name="uni0435" unicode="&#x435;" horiz-adv-x="592" 
d="M458 325q-9 26 -35.5 41.5t-61.5 15.5q-40 0 -72 -18t-47 -50h219q-2 8 -3 11zM607 276q0 -35 -10 -78h-367q6 -35 37.5 -56.5t77.5 -21.5q35 0 64.5 15.5t46.5 42.5l122 -80q-89 -116 -239 -116q-115 0 -189.5 70t-74.5 178q0 120 83.5 205t202.5 85q105 0 175.5 -69.5
t70.5 -174.5z" />
    <glyph glyph-name="uni0436" unicode="&#x436;" horiz-adv-x="874" 
d="M450 500h150l-31 -179h32l169 179h166l-238 -250l150 -250h-164l-107 176h-34l-31 -176h-150l32 179h-32l-170 -179h-165l237 250l-149 250h163l107 -176h34z" />
    <glyph glyph-name="uni0437" unicode="&#x437;" horiz-adv-x="497" 
d="M363 333q0 16 -15 26.5t-38 10.5q-35 0 -56 -27l-132 75q34 46 86.5 72.5t113.5 26.5q84 0 140 -43.5t56 -107.5q0 -40 -22 -75t-59 -53q24 -17 37.5 -44.5t13.5 -58.5q0 -67 -58.5 -110.5t-146.5 -43.5q-84 0 -147 38.5t-84 104.5l154 51q7 -22 28.5 -36t49.5 -14
q25 0 42.5 11t17.5 27q0 13 -12 22.5t-29 9.5h-65l8 106h76q18 0 29.5 9t11.5 23z" />
    <glyph glyph-name="uni0438" unicode="&#x438;" horiz-adv-x="623" 
d="M572 0h-150l55 295l-253 -295h-172l88 500h150l-50 -285l248 285h172z" />
    <glyph glyph-name="uni0439" unicode="&#x439;" horiz-adv-x="623" 
d="M418 571q-75 0 -123 43.5t-48 109.5q0 15 3 30h107q-2 -7 -2 -14q0 -29 20.5 -47.5t54.5 -18.5q39 0 70 23.5t37 56.5h121q-13 -73 -84.5 -128t-155.5 -55zM572 0h-150l55 295l-253 -295h-172l88 500h150l-50 -285l248 285h172z" />
    <glyph glyph-name="uni043A" unicode="&#x43a;" horiz-adv-x="587" 
d="M47 0l89 500h151l-29 -167h23l167 167h209l-259 -254l166 -246h-181l-126 180h-26l-32 -180h-152z" />
    <glyph glyph-name="uni043B" unicode="&#x43b;" horiz-adv-x="587" 
d="M84 148h-28l-26 -148h37q91 0 158.5 59t81.5 140l28 153h113l-63 -352h150l88 500h-413l-50 -287q-6 -28 -25.5 -46.5t-50.5 -18.5z" />
    <glyph glyph-name="uni043C" unicode="&#x43c;" horiz-adv-x="742" 
d="M52 0l88 500h159l111 -248l198 248h171l-88 -500h-150l52 297l-169 -223h-78l-92 223l-52 -297h-150z" />
    <glyph glyph-name="uni043D" unicode="&#x43d;" horiz-adv-x="605" 
d="M52 0l88 500h150l-32 -179h202l32 179h150l-88 -500h-150l32 181h-202l-32 -181h-150z" />
    <glyph glyph-name="uni043E" unicode="&#x43e;" horiz-adv-x="618" 
d="M364 378q-58 0 -98 -41.5t-40 -99.5q0 -50 34 -81.5t84 -31.5q58 0 98 41.5t40 99.5q0 50 -34 81.5t-84 31.5zM75 225q0 122 87 208.5t212 86.5q110 0 184.5 -68.5t74.5 -174.5q0 -122 -87 -208.5t-212 -86.5q-110 0 -184.5 68.5t-74.5 174.5z" />
    <glyph glyph-name="uni043F" unicode="&#x43f;" horiz-adv-x="580" 
d="M616 500l-88 -500h-150l64 360h-177l-63 -360h-150l88 500h476z" />
    <glyph glyph-name="uni0440" unicode="&#x440;" horiz-adv-x="638" 
d="M133 500h151l-123 -700h-151zM378 378q-58 0 -98 -42t-40 -99q0 -50 33.5 -82t84.5 -32q57 0 97.5 41.5t40.5 98.5q0 50 -33.5 82.5t-84.5 32.5zM187 204q0 81 33.5 152t92.5 115t130 44q88 0 146 -64.5t58 -166.5q0 -79 -34.5 -150t-95 -114t-131.5 -43q-89 0 -144 64
t-55 163z" />
    <glyph glyph-name="uni0441" unicode="&#x441;" horiz-adv-x="592" 
d="M361 377q-56 0 -95 -41.5t-39 -100.5q0 -49 32 -80.5t82 -31.5q36 0 67.5 17t50.5 48l125 -76q-42 -62 -109 -96.5t-144 -34.5q-110 0 -182.5 68.5t-72.5 174.5q0 122 86.5 208.5t208.5 86.5q91 0 160 -47t93 -124l-147 -54q-10 38 -41.5 60.5t-74.5 22.5z" />
    <glyph glyph-name="uni0442" unicode="&#x442;" horiz-adv-x="503" 
d="M561 500l-24 -140h-147l-63 -360h-150l63 360h-147l25 140h443z" />
    <glyph glyph-name="uni0443" unicode="&#x443;" horiz-adv-x="609" 
d="M507 500l-180 -330l-59 330h-153l100 -483l-121 -217h166l411 700h-164z" />
    <glyph glyph-name="uni0444" unicode="&#x444;" horiz-adv-x="684" 
d="M239 -190l153 870h142l-153 -870h-142zM391 379q-70 0 -116.5 -38.5t-46.5 -95.5q0 -52 45 -87t113 -35q69 0 116 38.5t47 95.5q0 52 -45.5 87t-112.5 35zM77 233q0 121 94 204t230 83q128 0 213 -71.5t85 -179.5q0 -121 -94 -204t-230 -83q-128 0 -213 71.5t-85 179.5z
" />
    <glyph glyph-name="uni0445" unicode="&#x445;" horiz-adv-x="587" 
d="M564 0h-163l-78 170l-115 -170h-186l206 260l-113 240h165l71 -170l122 170h183l-210 -260z" />
    <glyph glyph-name="uni0446" unicode="&#x446;" horiz-adv-x="633" 
d="M52 0l88 500h150l-63 -360h189l64 360h150l-63 -360h62l-45 -256h-151l21 116h-402z" />
    <glyph glyph-name="uni0447" unicode="&#x447;" horiz-adv-x="558" 
d="M594 500l-88 -500h-150l88 500h150zM290 500l-26 -148q-2 -13 -2 -19q0 -28 17 -44.5t46 -16.5q33 0 59.5 21t32.5 51h54q-15 -92 -76 -152.5t-137 -60.5q-69 0 -111.5 38t-42.5 105q0 22 4 43l32 183h150z" />
    <glyph glyph-name="uni0448" unicode="&#x448;" horiz-adv-x="863" 
d="M812 0l88 500h-150l-64 -360h-154l63 360h-150l-64 -360h-154l63 360h-150l-88 -500h760z" />
    <glyph glyph-name="uni0449" unicode="&#x449;" horiz-adv-x="930" 
d="M837 140l63 360h-150l-64 -360h-154l63 360h-150l-64 -360h-154l63 360h-150l-88 -500h682l-21 -116h151l45 256h-72z" />
    <glyph glyph-name="uni044A" unicode="&#x44a;" horiz-adv-x="643" 
d="M646 212q0 -87 -64 -149.5t-150 -62.5h-287l63 353h-114l26 147h263l-24 -140h136q67 0 109 -41.5t42 -106.5zM448 148q17 0 31 9.5t14 26.5q0 12 -9.5 20t-24.5 8h-126l-11 -64h126z" />
    <glyph glyph-name="uni044B" unicode="&#x44b;" horiz-adv-x="806" 
d="M605 0l88 500h150l-88 -500h-150zM373 147q20 0 34 10.5t14 26.5q0 12 -10 20t-26 8h-154l-12 -65h154zM573 208q0 -83 -64 -145.5t-152 -62.5h-314l88 500h151l-26 -148h164q68 0 110.5 -40.5t42.5 -103.5z" />
    <glyph glyph-name="uni044C" unicode="&#x44c;" horiz-adv-x="604" 
d="M406 147q21 0 35 10.5t14 26.5q0 12 -10.5 20t-26.5 8h-179l-12 -65h179zM607 208q0 -83 -64 -145.5t-152 -62.5h-339l88 500h150l-26 -148h189q69 0 111.5 -40.5t42.5 -103.5z" />
    <glyph glyph-name="uni044D" unicode="&#x44d;" horiz-adv-x="592" 
d="M314 115q59 0 100.5 44t41.5 106q0 53 -34 87t-88 34q-38 0 -72 -19.5t-55 -54.5l-116 77q42 61 109 95.5t144 34.5q111 0 183 -68.5t72 -173.5q0 -122 -86.5 -209t-208.5 -87q-91 0 -160 47t-93 125l139 54q11 -42 44.5 -67t79.5 -25zM252 191l16 114h306v-114h-322z
" />
    <glyph glyph-name="uni044E" unicode="&#x44e;" horiz-adv-x="868" 
d="M480 236q0 59 39 100.5t95 41.5q50 0 81.5 -31.5t31.5 -80.5q0 -59 -39 -100.5t-95 -41.5q-50 0 -81.5 31.5t-31.5 80.5zM624 520q-122 0 -208.5 -86.5t-86.5 -209.5q0 -105 72 -173.5t182 -68.5q122 0 208.5 86.5t86.5 209.5q0 105 -72 173.5t-182 68.5zM363 325h-108
l31 175h-150l-88 -500h150l31 177h109z" />
    <glyph glyph-name="uni044F" unicode="&#x44f;" horiz-adv-x="554" 
d="M296 352q-19 0 -33.5 -10t-14.5 -25q0 -11 10.5 -18.5t26.5 -7.5h118l11 61h-118zM86 313q0 78 61.5 132.5t160.5 54.5h283l-89 -500h-150l28 160h-69l-112 -160h-168l136 178q-38 16 -59.5 52t-21.5 83z" />
    <glyph glyph-name="uni0450" unicode="&#x450;" horiz-adv-x="592" 
d="M239 720l76 83l158 -157l-72 -78zM458 325q-9 26 -35.5 41.5t-61.5 15.5q-40 0 -72 -18t-47 -50h219q-2 8 -3 11zM607 276q0 -35 -10 -78h-367q6 -35 37.5 -56.5t77.5 -21.5q35 0 64.5 15.5t46.5 42.5l122 -80q-89 -116 -239 -116q-115 0 -189.5 70t-74.5 178
q0 120 83.5 205t202.5 85q105 0 175.5 -69.5t70.5 -174.5z" />
    <glyph glyph-name="uni0451" unicode="&#x451;" horiz-adv-x="592" 
d="M418 657q0 38 26 63.5t63.5 25.5t63.5 -25.5t26 -63.5t-26 -63.5t-63.5 -25.5t-63.5 25.5t-26 63.5zM171 657q0 38 26 63.5t63.5 25.5t63.5 -25.5t26 -63.5t-26 -63.5t-63.5 -25.5t-63.5 25.5t-26 63.5zM458 325q-9 26 -35.5 41.5t-61.5 15.5q-40 0 -72 -18t-47 -50h219
q-2 8 -3 11zM607 276q0 -35 -10 -78h-367q6 -35 37.5 -56.5t77.5 -21.5q35 0 64.5 15.5t46.5 42.5l122 -80q-89 -116 -239 -116q-115 0 -189.5 70t-74.5 178q0 120 83.5 205t202.5 85q105 0 175.5 -69.5t70.5 -174.5z" />
    <glyph glyph-name="uni0452" unicode="&#x452;" horiz-adv-x="586" 
d="M60 0l98 558h-60l23 130h60l11 62h150l-10 -62h198l-23 -130h-198l-99 -558h-150zM394 53l40 225q7 43 -12.5 67t-56.5 24t-68 -26.5t-38 -64.5h-54q17 100 83.5 166.5t149.5 66.5q80 0 124 -53t28 -145l-48 -271q-17 -100 -82 -156t-160 -58h-54l18 149h44q35 0 57.5 21
t28.5 55z" />
    <glyph glyph-name="uni0453" unicode="&#x453;" horiz-adv-x="461" 
d="M527 689l-59 95l-194 -127l57 -89zM52 0h150l63 360h228l25 140h-378z" />
    <glyph glyph-name="uni0454" unicode="&#x454;" horiz-adv-x="592" 
d="M361 386q-59 0 -100.5 -44t-41.5 -107q0 -53 34 -86.5t88 -33.5q38 0 72 19t55 54l116 -76q-42 -62 -109 -96.5t-144 -34.5q-110 0 -182.5 68.5t-72.5 174.5q0 122 86.5 208.5t208.5 86.5q91 0 160 -47t93 -124l-139 -54q-11 42 -44.5 67t-79.5 25zM423 309l-16 -113
h-306v113h322z" />
    <glyph glyph-name="uni0455" unicode="&#x455;" horiz-adv-x="490" 
d="M281 109q22 0 35.5 10t13.5 25q0 25 -65 40q-169 38 -169 150q0 73 56 126.5t144 53.5q76 0 136.5 -42t77.5 -111l-152 -29q-3 18 -19.5 35.5t-45.5 17.5q-20 0 -32.5 -9.5t-12.5 -24.5q0 -28 68 -41q80 -18 123 -56.5t43 -94.5q0 -70 -56.5 -120.5t-146.5 -50.5
q-82 0 -145.5 41.5t-81.5 111.5l151 30q4 -20 23.5 -41t54.5 -21z" />
    <glyph glyph-name="uni0456" unicode="&#x456;" horiz-adv-x="246" 
d="M151 647.5q0 37.5 25.5 63.5t63.5 26t63.5 -26t25.5 -63.5t-25.5 -63t-63.5 -25.5t-63.5 25.5t-25.5 63zM47 0l89 500h152l-89 -500h-152z" />
    <glyph glyph-name="uni0457" unicode="&#x457;" horiz-adv-x="246" 
d="M251 657q0 38 26 63.5t63.5 25.5t63.5 -25.5t26 -63.5t-26 -63.5t-63.5 -25.5t-63.5 25.5t-26 63.5zM4 657q0 38 26 63.5t63.5 25.5t63.5 -25.5t26 -63.5t-26 -63.5t-63.5 -25.5t-63.5 25.5t-26 63.5zM47 0l89 500h152l-89 -500h-152z" />
    <glyph glyph-name="uni0458" unicode="&#x458;" horiz-adv-x="246" 
d="M151 647.5q0 37.5 25.5 63.5t63.5 26t63.5 -26t25.5 -63.5t-25.5 -63t-63.5 -25.5t-63.5 25.5t-25.5 63zM-26 -62q30 0 50.5 22.5t26.5 58.5l85 481h152l-96 -541q-13 -72 -70 -121.5t-135 -49.5h-47l17 150h17z" />
    <glyph glyph-name="uni0459" unicode="&#x459;" horiz-adv-x="940" 
d="M749 0q78 0 134.5 57.5t56.5 133.5q0 71 -47 116t-123 45h-172l25 148h-413l-50 -287q-6 -28 -25.5 -46.5t-50.5 -18.5h-28l-26 -148h54q84 0 147 59t76 140l28 153h113l-63 -352h364zM788 184q0 -16 -14 -26.5t-34 -10.5h-179l12 65h179q16 0 26 -8t10 -20z" />
    <glyph glyph-name="uni045A" unicode="&#x45a;" horiz-adv-x="870" 
d="M718 179q0 -14 -12.5 -23t-30.5 -9h-141l10 57h141q15 0 24 -7t9 -18zM659 0q85 0 148 60.5t63 142.5q0 62 -42 101.5t-108 39.5h-151l28 156h-151l-88 -500h301zM442 325h-183l31 175h-150l-88 -500h150l31 177h183z" />
    <glyph glyph-name="uni045B" unicode="&#x45b;" horiz-adv-x="586" 
d="M388 0l46 276q7 46 -13.5 75.5t-60.5 29.5q-37 0 -64.5 -25.5t-36.5 -67.5h-52q17 98 81.5 161.5t145.5 63.5q86 0 129 -67t24 -174l-47 -272h-152zM56 0l100 566h-56l23 130h56l9 54h153l-9 -54h175l-23 -130h-175l-99 -566h-154z" />
    <glyph glyph-name="uni045C" unicode="&#x45c;" horiz-adv-x="587" 
d="M555 689l-59 95l-194 -127l57 -89zM47 0l89 500h151l-29 -167h23l167 167h209l-259 -254l166 -246h-181l-126 180h-26l-32 -180h-152z" />
    <glyph glyph-name="uni045D" unicode="&#x45d;" horiz-adv-x="623" 
d="M269 720l76 83l158 -157l-72 -78zM572 0h-150l55 295l-253 -295h-172l88 500h150l-50 -285l248 285h172z" />
    <glyph glyph-name="uni045E" unicode="&#x45e;" horiz-adv-x="609" 
d="M398 569q-75 0 -123 43.5t-48 109.5q0 15 3 30h107q-2 -7 -2 -14q0 -29 20.5 -47.5t54.5 -18.5q39 0 70 23.5t37 56.5h121q-13 -73 -84.5 -128t-155.5 -55zM507 500l-180 -330l-59 330h-153l100 -483l-121 -217h166l411 700h-164z" />
    <glyph glyph-name="uni045F" unicode="&#x45f;" horiz-adv-x="613" 
d="M52 0l88 500h150l-63 -360h209l64 360h150l-88 -500h-175l-29 -165h-150l29 165h-185z" />
    <glyph glyph-name="uni1EA0" unicode="&#x1ea0;" horiz-adv-x="795" 
d="M301 -155q0 38 25.5 63.5t63.5 25.5t63.5 -25.5t25.5 -63.5t-25.5 -63.5t-63.5 -25.5t-63.5 25.5t-25.5 63.5zM213 0h-180l390 700h206l144 -700h-167l-102 529zM263 290h383l-25 -140h-383z" />
    <glyph glyph-name="uni1EA1" unicode="&#x1ea1;" horiz-adv-x="528" 
d="M160 -155q0 38 25.5 63.5t63.5 25.5t63.5 -25.5t25.5 -63.5t-25.5 -63.5t-63.5 -25.5t-63.5 25.5t-25.5 63.5zM319 512q90 0 154 -53t64 -128q0 -13 -3 -26l-52 -305h-151l33 194l-95 -6q-57 -4 -57 -37q0 -34 55 -34q39 0 65 18.5t31 50.5h34q-14 -86 -69 -140.5
t-129 -54.5q-62 0 -101 39t-39 101q0 72 53.5 117.5t141.5 50.5l131 9v5q1 5 1 8q0 24 -21 40.5t-50 16.5q-26 0 -48.5 -13.5t-31.5 -35.5l-137 61q30 55 90.5 88.5t130.5 33.5z" />
    <glyph glyph-name="uni1EA2" unicode="&#x1ea2;" horiz-adv-x="795" 
d="M564 1077q59 0 96 -35t37 -91q0 -51 -26 -86.5t-87 -72.5l-47 -25l-44 86l62 31q42 20 42 56q0 18 -12 29t-31 11q-33 0 -46 -32l-88 31q21 46 59 72t85 26zM213 0h-180l390 700h206l144 -700h-167l-102 529zM263 290h383l-25 -140h-383z" />
    <glyph glyph-name="uni1EA3" unicode="&#x1ea3;" horiz-adv-x="528" 
d="M375 867q59 0 96 -35t37 -91q0 -51 -26 -86.5t-87 -72.5l-47 -25l-44 86l62 31q42 20 42 56q0 18 -12 29t-31 11q-33 0 -46 -32l-88 31q21 46 59 72t85 26zM319 512q90 0 154 -53t64 -128q0 -13 -3 -26l-52 -305h-151l33 194l-95 -6q-57 -4 -57 -37q0 -34 55 -34
q39 0 65 18.5t31 50.5h34q-14 -86 -69 -140.5t-129 -54.5q-62 0 -101 39t-39 101q0 72 53.5 117.5t141.5 50.5l131 9v5q1 5 1 8q0 24 -21 40.5t-50 16.5q-26 0 -48.5 -13.5t-31.5 -35.5l-137 61q30 55 90.5 88.5t130.5 33.5z" />
    <glyph glyph-name="uni1EA4" unicode="&#x1ea4;" horiz-adv-x="795" 
d="M952 1090l-59 95l-194 -127l57 -89zM562 993l-215 -131l44 -94l172 110l137 -117l69 84l-171 145zM213 0h-180l390 700h206l144 -700h-167l-102 529zM263 290h383l-25 -140h-383z" />
    <glyph glyph-name="uni1EA5" unicode="&#x1ea5;" horiz-adv-x="528" 
d="M757 898l-59 95l-194 -127l57 -89zM373 783l-215 -131l44 -94l172 110l137 -117l69 84l-171 145zM319 512q90 0 154 -53t64 -128q0 -13 -3 -26l-52 -305h-151l33 194l-95 -6q-57 -4 -57 -37q0 -34 55 -34q39 0 65 18.5t31 50.5h34q-14 -86 -69 -140.5t-129 -54.5
q-62 0 -101 39t-39 101q0 72 53.5 117.5t141.5 50.5l131 9v5q1 5 1 8q0 24 -21 40.5t-50 16.5q-26 0 -48.5 -13.5t-31.5 -35.5l-137 61q30 55 90.5 88.5t130.5 33.5z" />
    <glyph glyph-name="uni1EA6" unicode="&#x1ea6;" horiz-adv-x="795" 
d="M627 1121l76 83l158 -157l-72 -78zM562 993l-215 -131l44 -94l172 110l137 -117l69 84l-171 145zM213 0h-180l390 700h206l144 -700h-167l-102 529zM263 290h383l-25 -140h-383z" />
    <glyph glyph-name="uni1EA7" unicode="&#x1ea7;" horiz-adv-x="528" 
d="M432 929l76 83l158 -157l-72 -78zM373 783l-215 -131l44 -94l172 110l137 -117l69 84l-171 145zM319 512q90 0 154 -53t64 -128q0 -13 -3 -26l-52 -305h-151l33 194l-95 -6q-57 -4 -57 -37q0 -34 55 -34q39 0 65 18.5t31 50.5h34q-14 -86 -69 -140.5t-129 -54.5
q-62 0 -101 39t-39 101q0 72 53.5 117.5t141.5 50.5l131 9v5q1 5 1 8q0 24 -21 40.5t-50 16.5q-26 0 -48.5 -13.5t-31.5 -35.5l-137 61q30 55 90.5 88.5t130.5 33.5z" />
    <glyph glyph-name="uni1EA8" unicode="&#x1ea8;" horiz-adv-x="795" 
d="M797 1269q59 0 96 -35t37 -91q0 -51 -26 -86.5t-87 -72.5l-47 -25l-44 86l62 31q42 20 42 56q0 18 -12 29t-31 11q-33 0 -46 -32l-88 31q21 46 59 72t85 26zM562 993l-215 -131l44 -94l172 110l137 -117l69 84l-171 145zM213 0h-180l390 700h206l144 -700h-167l-102 529z
M263 290h383l-25 -140h-383z" />
    <glyph glyph-name="uni1EA9" unicode="&#x1ea9;" horiz-adv-x="528" 
d="M602 1077q59 0 96 -35t37 -91q0 -51 -26 -86.5t-87 -72.5l-47 -25l-44 86l62 31q42 20 42 56q0 18 -12 29t-31 11q-33 0 -46 -32l-88 31q21 46 59 72t85 26zM373 783l-215 -131l44 -94l172 110l137 -117l69 84l-171 145zM319 512q90 0 154 -53t64 -128q0 -13 -3 -26
l-52 -305h-151l33 194l-95 -6q-57 -4 -57 -37q0 -34 55 -34q39 0 65 18.5t31 50.5h34q-14 -86 -69 -140.5t-129 -54.5q-62 0 -101 39t-39 101q0 72 53.5 117.5t141.5 50.5l131 9v5q1 5 1 8q0 24 -21 40.5t-50 16.5q-26 0 -48.5 -13.5t-31.5 -35.5l-137 61q30 55 90.5 88.5
t130.5 33.5z" />
    <glyph glyph-name="uni1EAA" unicode="&#x1eaa;" horiz-adv-x="795" 
d="M520 1173q-106 0 -149 -143l95 -18q20 62 53 62q17 0 40 -22q50 -46 96 -46q104 0 147 143l-94 18q-21 -58 -58 -58q-21 0 -41 20q-25 25 -44.5 34.5t-44.5 9.5zM562 993l-215 -131l44 -94l172 110l137 -117l69 84l-171 145zM213 0h-180l390 700h206l144 -700h-167
l-102 529zM263 290h383l-25 -140h-383z" />
    <glyph glyph-name="uni1EAB" unicode="&#x1eab;" horiz-adv-x="528" 
d="M355 974q-106 0 -149 -143l95 -18q20 62 53 62q17 0 40 -22q50 -46 96 -46q104 0 147 143l-94 18q-21 -58 -58 -58q-21 0 -41 20q-25 25 -44.5 34.5t-44.5 9.5zM373 783l-215 -131l44 -94l172 110l137 -117l69 84l-171 145zM319 512q90 0 154 -53t64 -128q0 -13 -3 -26
l-52 -305h-151l33 194l-95 -6q-57 -4 -57 -37q0 -34 55 -34q39 0 65 18.5t31 50.5h34q-14 -86 -69 -140.5t-129 -54.5q-62 0 -101 39t-39 101q0 72 53.5 117.5t141.5 50.5l131 9v5q1 5 1 8q0 24 -21 40.5t-50 16.5q-26 0 -48.5 -13.5t-31.5 -35.5l-137 61q30 55 90.5 88.5
t130.5 33.5z" />
    <glyph glyph-name="uni1EAC" unicode="&#x1eac;" horiz-adv-x="795" 
d="M561 995l-215 -131l44 -94l172 110l137 -117l69 84l-171 145zM301 -155q0 38 25.5 63.5t63.5 25.5t63.5 -25.5t25.5 -63.5t-25.5 -63.5t-63.5 -25.5t-63.5 25.5t-25.5 63.5zM213 0h-180l390 700h206l144 -700h-167l-102 529zM263 290h383l-25 -140h-383z" />
    <glyph glyph-name="uni1EAD" unicode="&#x1ead;" horiz-adv-x="528" 
d="M371 788l-215 -131l44 -94l172 110l137 -117l69 84l-171 145zM160 -155q0 38 25.5 63.5t63.5 25.5t63.5 -25.5t25.5 -63.5t-25.5 -63.5t-63.5 -25.5t-63.5 25.5t-25.5 63.5zM319 512q90 0 154 -53t64 -128q0 -13 -3 -26l-52 -305h-151l33 194l-95 -6q-57 -4 -57 -37
q0 -34 55 -34q39 0 65 18.5t31 50.5h34q-14 -86 -69 -140.5t-129 -54.5q-62 0 -101 39t-39 101q0 72 53.5 117.5t141.5 50.5l131 9v5q1 5 1 8q0 24 -21 40.5t-50 16.5q-26 0 -48.5 -13.5t-31.5 -35.5l-137 61q30 55 90.5 88.5t130.5 33.5z" />
    <glyph glyph-name="uni1EAE" unicode="&#x1eae;" horiz-adv-x="795" 
d="M751 1123l-59 95l-194 -127l57 -89zM543 780q-75 0 -123 43.5t-48 109.5q0 15 3 30h107q-2 -7 -2 -14q0 -29 20.5 -47.5t54.5 -18.5q39 0 70 23.5t37 56.5h121q-13 -73 -84.5 -128t-155.5 -55zM213 0h-180l390 700h206l144 -700h-167l-102 529zM263 290h383l-25 -140
h-383z" />
    <glyph glyph-name="uni1EAF" unicode="&#x1eaf;" horiz-adv-x="528" 
d="M558 900l-59 95l-194 -127l57 -89zM354 570q-75 0 -123 43.5t-48 109.5q0 15 3 30h107q-2 -7 -2 -14q0 -29 20.5 -47.5t54.5 -18.5q39 0 70 23.5t37 56.5h121q-13 -73 -84.5 -128t-155.5 -55zM319 512q90 0 154 -53t64 -128q0 -13 -3 -26l-52 -305h-151l33 194l-95 -6
q-57 -4 -57 -37q0 -34 55 -34q39 0 65 18.5t31 50.5h34q-14 -86 -69 -140.5t-129 -54.5q-62 0 -101 39t-39 101q0 72 53.5 117.5t141.5 50.5l131 9v5q1 5 1 8q0 24 -21 40.5t-50 16.5q-26 0 -48.5 -13.5t-31.5 -35.5l-137 61q30 55 90.5 88.5t130.5 33.5z" />
    <glyph glyph-name="uni1EB0" unicode="&#x1eb0;" horiz-adv-x="795" 
d="M426 1154l76 83l158 -157l-72 -78zM543 780q-75 0 -123 43.5t-48 109.5q0 15 3 30h107q-2 -7 -2 -14q0 -29 20.5 -47.5t54.5 -18.5q39 0 70 23.5t37 56.5h121q-13 -73 -84.5 -128t-155.5 -55zM213 0h-180l390 700h206l144 -700h-167l-102 529zM263 290h383l-25 -140h-383
z" />
    <glyph glyph-name="uni1EB1" unicode="&#x1eb1;" horiz-adv-x="528" 
d="M233 931l76 83l158 -157l-72 -78zM354 570q-75 0 -123 43.5t-48 109.5q0 15 3 30h107q-2 -7 -2 -14q0 -29 20.5 -47.5t54.5 -18.5q39 0 70 23.5t37 56.5h121q-13 -73 -84.5 -128t-155.5 -55zM319 512q90 0 154 -53t64 -128q0 -13 -3 -26l-52 -305h-151l33 194l-95 -6
q-57 -4 -57 -37q0 -34 55 -34q39 0 65 18.5t31 50.5h34q-14 -86 -69 -140.5t-129 -54.5q-62 0 -101 39t-39 101q0 72 53.5 117.5t141.5 50.5l131 9v5q1 5 1 8q0 24 -21 40.5t-50 16.5q-26 0 -48.5 -13.5t-31.5 -35.5l-137 61q30 55 90.5 88.5t130.5 33.5z" />
    <glyph glyph-name="uni1EB2" unicode="&#x1eb2;" horiz-adv-x="795" 
d="M596 1302q59 0 96 -35t37 -91q0 -51 -26 -86.5t-87 -72.5l-47 -25l-44 86l62 31q42 20 42 56q0 18 -12 29t-31 11q-33 0 -46 -32l-88 31q21 46 59 72t85 26zM543 780q-75 0 -123 43.5t-48 109.5q0 15 3 30h107q-2 -7 -2 -14q0 -29 20.5 -47.5t54.5 -18.5q39 0 70 23.5
t37 56.5h121q-13 -73 -84.5 -128t-155.5 -55zM213 0h-180l390 700h206l144 -700h-167l-102 529zM263 290h383l-25 -140h-383z" />
    <glyph glyph-name="uni1EB3" unicode="&#x1eb3;" horiz-adv-x="528" 
d="M403 1079q59 0 96 -35t37 -91q0 -51 -26 -86.5t-87 -72.5l-47 -25l-44 86l62 31q42 20 42 56q0 18 -12 29t-31 11q-33 0 -46 -32l-88 31q21 46 59 72t85 26zM354 570q-75 0 -123 43.5t-48 109.5q0 15 3 30h107q-2 -7 -2 -14q0 -29 20.5 -47.5t54.5 -18.5q39 0 70 23.5
t37 56.5h121q-13 -73 -84.5 -128t-155.5 -55zM319 512q90 0 154 -53t64 -128q0 -13 -3 -26l-52 -305h-151l33 194l-95 -6q-57 -4 -57 -37q0 -34 55 -34q39 0 65 18.5t31 50.5h34q-14 -86 -69 -140.5t-129 -54.5q-62 0 -101 39t-39 101q0 72 53.5 117.5t141.5 50.5l131 9v5
q1 5 1 8q0 24 -21 40.5t-50 16.5q-26 0 -48.5 -13.5t-31.5 -35.5l-137 61q30 55 90.5 88.5t130.5 33.5z" />
    <glyph glyph-name="uni1EB4" unicode="&#x1eb4;" horiz-adv-x="795" 
d="M516 1169q-106 0 -149 -143l95 -18q20 62 53 62q17 0 40 -22q50 -46 96 -46q104 0 147 143l-94 18q-21 -58 -58 -58q-21 0 -41 20q-25 25 -44.5 34.5t-44.5 9.5zM543 780q-75 0 -123 43.5t-48 109.5q0 15 3 30h107q-2 -7 -2 -14q0 -29 20.5 -47.5t54.5 -18.5
q39 0 70 23.5t37 56.5h121q-13 -73 -84.5 -128t-155.5 -55zM213 0h-180l390 700h206l144 -700h-167l-102 529zM263 290h383l-25 -140h-383z" />
    <glyph glyph-name="uni1EB5" unicode="&#x1eb5;" horiz-adv-x="528" 
d="M323 946q-106 0 -149 -143l95 -18q20 62 53 62q17 0 40 -22q50 -46 96 -46q104 0 147 143l-94 18q-21 -58 -58 -58q-21 0 -41 20q-25 25 -44.5 34.5t-44.5 9.5zM354 570q-75 0 -123 43.5t-48 109.5q0 15 3 30h107q-2 -7 -2 -14q0 -29 20.5 -47.5t54.5 -18.5q39 0 70 23.5
t37 56.5h121q-13 -73 -84.5 -128t-155.5 -55zM319 512q90 0 154 -53t64 -128q0 -13 -3 -26l-52 -305h-151l33 194l-95 -6q-57 -4 -57 -37q0 -34 55 -34q39 0 65 18.5t31 50.5h34q-14 -86 -69 -140.5t-129 -54.5q-62 0 -101 39t-39 101q0 72 53.5 117.5t141.5 50.5l131 9v5
q1 5 1 8q0 24 -21 40.5t-50 16.5q-26 0 -48.5 -13.5t-31.5 -35.5l-137 61q30 55 90.5 88.5t130.5 33.5z" />
    <glyph glyph-name="uni1EB6" unicode="&#x1eb6;" horiz-adv-x="795" 
d="M539 779q-75 0 -123 43.5t-48 109.5q0 15 3 30h107q-2 -7 -2 -14q0 -29 20.5 -47.5t54.5 -18.5q39 0 70 23.5t37 56.5h121q-13 -73 -84.5 -128t-155.5 -55zM301 -155q0 38 25.5 63.5t63.5 25.5t63.5 -25.5t25.5 -63.5t-25.5 -63.5t-63.5 -25.5t-63.5 25.5t-25.5 63.5z
M213 0h-180l390 700h206l144 -700h-167l-102 529zM263 290h383l-25 -140h-383z" />
    <glyph glyph-name="uni1EB7" unicode="&#x1eb7;" horiz-adv-x="528" 
d="M349 571q-75 0 -123 43.5t-48 109.5q0 15 3 30h107q-2 -7 -2 -14q0 -29 20.5 -47.5t54.5 -18.5q39 0 70 23.5t37 56.5h121q-13 -73 -84.5 -128t-155.5 -55zM160 -155q0 38 25.5 63.5t63.5 25.5t63.5 -25.5t25.5 -63.5t-25.5 -63.5t-63.5 -25.5t-63.5 25.5t-25.5 63.5z
M319 512q90 0 154 -53t64 -128q0 -13 -3 -26l-52 -305h-151l33 194l-95 -6q-57 -4 -57 -37q0 -34 55 -34q39 0 65 18.5t31 50.5h34q-14 -86 -69 -140.5t-129 -54.5q-62 0 -101 39t-39 101q0 72 53.5 117.5t141.5 50.5l131 9v5q1 5 1 8q0 24 -21 40.5t-50 16.5
q-26 0 -48.5 -13.5t-31.5 -35.5l-137 61q30 55 90.5 88.5t130.5 33.5z" />
    <glyph glyph-name="uni1EB8" unicode="&#x1eb8;" horiz-adv-x="587" 
d="M191 -155q0 38 25.5 63.5t63.5 25.5t63.5 -25.5t25.5 -63.5t-25.5 -63.5t-63.5 -25.5t-63.5 25.5t-25.5 63.5zM276 433h327l-25 -147h-327l-25 -139h351l-25 -147h-505l124 700h503l-26 -147h-351z" />
    <glyph glyph-name="uni1EB9" unicode="&#x1eb9;" horiz-adv-x="592" 
d="M220 -153q0 38 25.5 63.5t63.5 25.5t63.5 -25.5t25.5 -63.5t-25.5 -63.5t-63.5 -25.5t-63.5 25.5t-25.5 63.5zM458 325q-9 26 -35.5 41.5t-61.5 15.5q-40 0 -72 -18t-47 -50h219q-2 8 -3 11zM607 276q0 -35 -10 -78h-367q6 -35 37.5 -56.5t77.5 -21.5q35 0 64.5 15.5
t46.5 42.5l122 -80q-89 -116 -239 -116q-115 0 -189.5 70t-74.5 178q0 120 83.5 205t202.5 85q105 0 175.5 -69.5t70.5 -174.5z" />
    <glyph glyph-name="uni1EBA" unicode="&#x1eba;" horiz-adv-x="587" 
d="M456 1077q59 0 96 -35t37 -91q0 -51 -26 -86.5t-87 -72.5l-47 -25l-44 86l62 31q42 20 42 56q0 18 -12 29t-31 11q-33 0 -46 -32l-88 31q21 46 59 72t85 26zM276 433h327l-25 -147h-327l-25 -139h351l-25 -147h-505l124 700h503l-26 -147h-351z" />
    <glyph glyph-name="uni1EBB" unicode="&#x1ebb;" horiz-adv-x="592" 
d="M409 868q59 0 96 -35t37 -91q0 -51 -26 -86.5t-87 -72.5l-47 -25l-44 86l62 31q42 20 42 56q0 18 -12 29t-31 11q-33 0 -46 -32l-88 31q21 46 59 72t85 26zM458 325q-9 26 -35.5 41.5t-61.5 15.5q-40 0 -72 -18t-47 -50h219q-2 8 -3 11zM607 276q0 -35 -10 -78h-367
q6 -35 37.5 -56.5t77.5 -21.5q35 0 64.5 15.5t46.5 42.5l122 -80q-89 -116 -239 -116q-115 0 -189.5 70t-74.5 178q0 120 83.5 205t202.5 85q105 0 175.5 -69.5t70.5 -174.5z" />
    <glyph glyph-name="uni1EBC" unicode="&#x1ebc;" horiz-adv-x="587" 
d="M376 944q-106 0 -149 -143l95 -18q20 62 53 62q17 0 40 -22q50 -46 96 -46q104 0 147 143l-94 18q-21 -58 -58 -58q-21 0 -41 20q-25 25 -44.5 34.5t-44.5 9.5zM276 433h327l-25 -147h-327l-25 -139h351l-25 -147h-505l124 700h503l-26 -147h-351z" />
    <glyph glyph-name="uni1EBD" unicode="&#x1ebd;" horiz-adv-x="592" 
d="M329 735q-106 0 -149 -143l95 -18q20 62 53 62q17 0 40 -22q50 -46 96 -46q104 0 147 143l-94 18q-21 -58 -58 -58q-21 0 -41 20q-25 25 -44.5 34.5t-44.5 9.5zM458 325q-9 26 -35.5 41.5t-61.5 15.5q-40 0 -72 -18t-47 -50h219q-2 8 -3 11zM607 276q0 -35 -10 -78h-367
q6 -35 37.5 -56.5t77.5 -21.5q35 0 64.5 15.5t46.5 42.5l122 -80q-89 -116 -239 -116q-115 0 -189.5 70t-74.5 178q0 120 83.5 205t202.5 85q105 0 175.5 -69.5t70.5 -174.5z" />
    <glyph glyph-name="uni1EBE" unicode="&#x1ebe;" horiz-adv-x="587" 
d="M860 1069l-59 95l-194 -127l57 -89zM454 993l-215 -131l44 -94l172 110l137 -117l69 84l-171 145zM276 433h327l-25 -147h-327l-25 -139h351l-25 -147h-505l124 700h503l-26 -147h-351z" />
    <glyph glyph-name="uni1EBF" unicode="&#x1ebf;" horiz-adv-x="592" 
d="M807 896l-59 95l-194 -127l57 -89zM407 784l-215 -131l44 -94l172 110l137 -117l69 84l-171 145zM458 325q-9 26 -35.5 41.5t-61.5 15.5q-40 0 -72 -18t-47 -50h219q-2 8 -3 11zM607 276q0 -35 -10 -78h-367q6 -35 37.5 -56.5t77.5 -21.5q35 0 64.5 15.5t46.5 42.5
l122 -80q-89 -116 -239 -116q-115 0 -189.5 70t-74.5 178q0 120 83.5 205t202.5 85q105 0 175.5 -69.5t70.5 -174.5z" />
    <glyph glyph-name="uni1EC0" unicode="&#x1ec0;" horiz-adv-x="587" 
d="M535 1100l76 83l158 -157l-72 -78zM454 993l-215 -131l44 -94l172 110l137 -117l69 84l-171 145zM276 433h327l-25 -147h-327l-25 -139h351l-25 -147h-505l124 700h503l-26 -147h-351z" />
    <glyph glyph-name="uni1EC1" unicode="&#x1ec1;" horiz-adv-x="592" 
d="M482 927l76 83l158 -157l-72 -78zM407 784l-215 -131l44 -94l172 110l137 -117l69 84l-171 145zM458 325q-9 26 -35.5 41.5t-61.5 15.5q-40 0 -72 -18t-47 -50h219q-2 8 -3 11zM607 276q0 -35 -10 -78h-367q6 -35 37.5 -56.5t77.5 -21.5q35 0 64.5 15.5t46.5 42.5
l122 -80q-89 -116 -239 -116q-115 0 -189.5 70t-74.5 178q0 120 83.5 205t202.5 85q105 0 175.5 -69.5t70.5 -174.5z" />
    <glyph glyph-name="uni1EC2" unicode="&#x1ec2;" horiz-adv-x="587" 
d="M705 1248q59 0 96 -35t37 -91q0 -51 -26 -86.5t-87 -72.5l-47 -25l-44 86l62 31q42 20 42 56q0 18 -12 29t-31 11q-33 0 -46 -32l-88 31q21 46 59 72t85 26zM454 993l-215 -131l44 -94l172 110l137 -117l69 84l-171 145zM276 433h327l-25 -147h-327l-25 -139h351
l-25 -147h-505l124 700h503l-26 -147h-351z" />
    <glyph glyph-name="uni1EC3" unicode="&#x1ec3;" horiz-adv-x="592" 
d="M652 1075q59 0 96 -35t37 -91q0 -51 -26 -86.5t-87 -72.5l-47 -25l-44 86l62 31q42 20 42 56q0 18 -12 29t-31 11q-33 0 -46 -32l-88 31q21 46 59 72t85 26zM407 784l-215 -131l44 -94l172 110l137 -117l69 84l-171 145zM458 325q-9 26 -35.5 41.5t-61.5 15.5
q-40 0 -72 -18t-47 -50h219q-2 8 -3 11zM607 276q0 -35 -10 -78h-367q6 -35 37.5 -56.5t77.5 -21.5q35 0 64.5 15.5t46.5 42.5l122 -80q-89 -116 -239 -116q-115 0 -189.5 70t-74.5 178q0 120 83.5 205t202.5 85q105 0 175.5 -69.5t70.5 -174.5z" />
    <glyph glyph-name="uni1EC4" unicode="&#x1ec4;" horiz-adv-x="587" 
d="M418 1185q-106 0 -149 -143l95 -18q20 62 53 62q17 0 40 -22q50 -46 96 -46q104 0 147 143l-94 18q-21 -58 -58 -58q-21 0 -41 20q-25 25 -44.5 34.5t-44.5 9.5zM454 993l-215 -131l44 -94l172 110l137 -117l69 84l-171 145zM276 433h327l-25 -147h-327l-25 -139h351
l-25 -147h-505l124 700h503l-26 -147h-351z" />
    <glyph glyph-name="uni1EC5" unicode="&#x1ec5;" horiz-adv-x="592" 
d="M384 975q-106 0 -149 -143l95 -18q20 62 53 62q17 0 40 -22q50 -46 96 -46q104 0 147 143l-94 18q-21 -58 -58 -58q-21 0 -41 20q-25 25 -44.5 34.5t-44.5 9.5zM407 784l-215 -131l44 -94l172 110l137 -117l69 84l-171 145zM458 325q-9 26 -35.5 41.5t-61.5 15.5
q-40 0 -72 -18t-47 -50h219q-2 8 -3 11zM607 276q0 -35 -10 -78h-367q6 -35 37.5 -56.5t77.5 -21.5q35 0 64.5 15.5t46.5 42.5l122 -80q-89 -116 -239 -116q-115 0 -189.5 70t-74.5 178q0 120 83.5 205t202.5 85q105 0 175.5 -69.5t70.5 -174.5z" />
    <glyph glyph-name="uni1EC6" unicode="&#x1ec6;" horiz-adv-x="587" 
d="M456 995l-215 -131l44 -94l172 110l137 -117l69 84l-171 145zM191 -155q0 38 25.5 63.5t63.5 25.5t63.5 -25.5t25.5 -63.5t-25.5 -63.5t-63.5 -25.5t-63.5 25.5t-25.5 63.5zM276 433h327l-25 -147h-327l-25 -139h351l-25 -147h-505l124 700h503l-26 -147h-351z" />
    <glyph glyph-name="uni1EC7" unicode="&#x1ec7;" horiz-adv-x="592" 
d="M414 788l-215 -131l44 -94l172 110l137 -117l69 84l-171 145zM220 -153q0 38 25.5 63.5t63.5 25.5t63.5 -25.5t25.5 -63.5t-25.5 -63.5t-63.5 -25.5t-63.5 25.5t-25.5 63.5zM458 325q-9 26 -35.5 41.5t-61.5 15.5q-40 0 -72 -18t-47 -50h219q-2 8 -3 11zM607 276
q0 -35 -10 -78h-367q6 -35 37.5 -56.5t77.5 -21.5q35 0 64.5 15.5t46.5 42.5l122 -80q-89 -116 -239 -116q-115 0 -189.5 70t-74.5 178q0 120 83.5 205t202.5 85q105 0 175.5 -69.5t70.5 -174.5z" />
    <glyph glyph-name="uni1EC8" unicode="&#x1ec8;" horiz-adv-x="253" 
d="M282 1075q59 0 96 -35t37 -91q0 -51 -26 -86.5t-87 -72.5l-47 -25l-44 86l62 31q42 20 42 56q0 18 -12 29t-31 11q-33 0 -46 -32l-88 31q21 46 59 72t85 26zM199 0h-152l123 700h151z" />
    <glyph glyph-name="uni1EC9" unicode="&#x1ec9;" horiz-adv-x="246" 
d="M242 868q59 0 96 -35t37 -91q0 -51 -26 -86.5t-87 -72.5l-47 -25l-44 86l62 31q42 20 42 56q0 18 -12 29t-31 11q-33 0 -46 -32l-88 31q21 46 59 72t85 26zM47 0l89 500h152l-89 -500h-152z" />
    <glyph glyph-name="uni1ECA" unicode="&#x1eca;" horiz-adv-x="253" 
d="M12 -155q0 38 25.5 63.5t63.5 25.5t63.5 -25.5t25.5 -63.5t-25.5 -63.5t-63.5 -25.5t-63.5 25.5t-25.5 63.5zM199 0h-152l123 700h151z" />
    <glyph glyph-name="uni1ECB" unicode="&#x1ecb;" horiz-adv-x="246" 
d="M12 -155q0 38 25.5 63.5t63.5 25.5t63.5 -25.5t25.5 -63.5t-25.5 -63.5t-63.5 -25.5t-63.5 25.5t-25.5 63.5zM151 647.5q0 37.5 25.5 63.5t63.5 26t63.5 -26t25.5 -63.5t-25.5 -63t-63.5 -25.5t-63.5 25.5t-25.5 63zM47 0l89 500h152l-89 -500h-152z" />
    <glyph glyph-name="uni1ECC" unicode="&#x1ecc;" 
d="M318 -155q0 38 25.5 63.5t63.5 25.5t63.5 -25.5t25.5 -63.5t-25.5 -63.5t-63.5 -25.5t-63.5 25.5t-25.5 63.5zM474 570q-96 0 -164 -70.5t-68 -170.5q0 -86 55 -141.5t140 -55.5q96 0 164.5 72t68.5 171q0 85 -55.5 140t-140.5 55zM91 326q0 106 51.5 197t140 144
t192.5 53q147 0 246.5 -97.5t99.5 -243.5q0 -106 -52 -197.5t-140.5 -145.5t-192.5 -54q-147 0 -246 98.5t-99 245.5z" />
    <glyph glyph-name="uni1ECD" unicode="&#x1ecd;" horiz-adv-x="618" 
d="M222 -154q0 38 25.5 63.5t63.5 25.5t63.5 -25.5t25.5 -63.5t-25.5 -63.5t-63.5 -25.5t-63.5 25.5t-25.5 63.5zM364 378q-58 0 -98 -41.5t-40 -99.5q0 -50 34 -81.5t84 -31.5q58 0 98 41.5t40 99.5q0 50 -34 81.5t-84 31.5zM75 225q0 122 87 208.5t212 86.5
q110 0 184.5 -68.5t74.5 -174.5q0 -122 -87 -208.5t-212 -86.5q-110 0 -184.5 68.5t-74.5 174.5z" />
    <glyph glyph-name="uni1ECE" unicode="&#x1ece;" 
d="M525 1077q59 0 96 -35t37 -91q0 -51 -26 -86.5t-87 -72.5l-47 -25l-44 86l62 31q42 20 42 56q0 18 -12 29t-31 11q-33 0 -46 -32l-88 31q21 46 59 72t85 26zM474 570q-96 0 -164 -70.5t-68 -170.5q0 -86 55 -141.5t140 -55.5q96 0 164.5 72t68.5 171q0 85 -55.5 140
t-140.5 55zM91 326q0 106 51.5 197t140 144t192.5 53q147 0 246.5 -97.5t99.5 -243.5q0 -106 -52 -197.5t-140.5 -145.5t-192.5 -54q-147 0 -246 98.5t-99 245.5z" />
    <glyph glyph-name="uni1ECF" unicode="&#x1ecf;" horiz-adv-x="618" 
d="M432 867q59 0 96 -35t37 -91q0 -51 -26 -86.5t-87 -72.5l-47 -25l-44 86l62 31q42 20 42 56q0 18 -12 29t-31 11q-33 0 -46 -32l-88 31q21 46 59 72t85 26zM364 378q-58 0 -98 -41.5t-40 -99.5q0 -50 34 -81.5t84 -31.5q58 0 98 41.5t40 99.5q0 50 -34 81.5t-84 31.5z
M75 225q0 122 87 208.5t212 86.5q110 0 184.5 -68.5t74.5 -174.5q0 -122 -87 -208.5t-212 -86.5q-110 0 -184.5 68.5t-74.5 174.5z" />
    <glyph glyph-name="uni1ED0" unicode="&#x1ed0;" 
d="M936 1081l-59 95l-194 -127l57 -89zM523 993l-215 -131l44 -94l172 110l137 -117l69 84l-171 145zM474 570q-96 0 -164 -70.5t-68 -170.5q0 -86 55 -141.5t140 -55.5q96 0 164.5 72t68.5 171q0 85 -55.5 140t-140.5 55zM91 326q0 106 51.5 197t140 144t192.5 53
q147 0 246.5 -97.5t99.5 -243.5q0 -106 -52 -197.5t-140.5 -145.5t-192.5 -54q-147 0 -246 98.5t-99 245.5z" />
    <glyph glyph-name="uni1ED1" unicode="&#x1ed1;" horiz-adv-x="618" 
d="M818 895l-59 95l-194 -127l57 -89zM430 783l-215 -131l44 -94l172 110l137 -117l69 84l-171 145zM364 378q-58 0 -98 -41.5t-40 -99.5q0 -50 34 -81.5t84 -31.5q58 0 98 41.5t40 99.5q0 50 -34 81.5t-84 31.5zM75 225q0 122 87 208.5t212 86.5q110 0 184.5 -68.5
t74.5 -174.5q0 -122 -87 -208.5t-212 -86.5q-110 0 -184.5 68.5t-74.5 174.5z" />
    <glyph glyph-name="uni1ED2" unicode="&#x1ed2;" 
d="M611 1112l76 83l158 -157l-72 -78zM523 993l-215 -131l44 -94l172 110l137 -117l69 84l-171 145zM474 570q-96 0 -164 -70.5t-68 -170.5q0 -86 55 -141.5t140 -55.5q96 0 164.5 72t68.5 171q0 85 -55.5 140t-140.5 55zM91 326q0 106 51.5 197t140 144t192.5 53
q147 0 246.5 -97.5t99.5 -243.5q0 -106 -52 -197.5t-140.5 -145.5t-192.5 -54q-147 0 -246 98.5t-99 245.5z" />
    <glyph glyph-name="uni1ED3" unicode="&#x1ed3;" horiz-adv-x="618" 
d="M493 926l76 83l158 -157l-72 -78zM430 783l-215 -131l44 -94l172 110l137 -117l69 84l-171 145zM364 378q-58 0 -98 -41.5t-40 -99.5q0 -50 34 -81.5t84 -31.5q58 0 98 41.5t40 99.5q0 50 -34 81.5t-84 31.5zM75 225q0 122 87 208.5t212 86.5q110 0 184.5 -68.5
t74.5 -174.5q0 -122 -87 -208.5t-212 -86.5q-110 0 -184.5 68.5t-74.5 174.5z" />
    <glyph glyph-name="uni1ED4" unicode="&#x1ed4;" 
d="M781 1260q59 0 96 -35t37 -91q0 -51 -26 -86.5t-87 -72.5l-47 -25l-44 86l62 31q42 20 42 56q0 18 -12 29t-31 11q-33 0 -46 -32l-88 31q21 46 59 72t85 26zM523 993l-215 -131l44 -94l172 110l137 -117l69 84l-171 145zM474 570q-96 0 -164 -70.5t-68 -170.5
q0 -86 55 -141.5t140 -55.5q96 0 164.5 72t68.5 171q0 85 -55.5 140t-140.5 55zM91 326q0 106 51.5 197t140 144t192.5 53q147 0 246.5 -97.5t99.5 -243.5q0 -106 -52 -197.5t-140.5 -145.5t-192.5 -54q-147 0 -246 98.5t-99 245.5z" />
    <glyph glyph-name="uni1ED5" unicode="&#x1ed5;" horiz-adv-x="618" 
d="M663 1074q59 0 96 -35t37 -91q0 -51 -26 -86.5t-87 -72.5l-47 -25l-44 86l62 31q42 20 42 56q0 18 -12 29t-31 11q-33 0 -46 -32l-88 31q21 46 59 72t85 26zM430 783l-215 -131l44 -94l172 110l137 -117l69 84l-171 145zM364 378q-58 0 -98 -41.5t-40 -99.5
q0 -50 34 -81.5t84 -31.5q58 0 98 41.5t40 99.5q0 50 -34 81.5t-84 31.5zM75 225q0 122 87 208.5t212 86.5q110 0 184.5 -68.5t74.5 -174.5q0 -122 -87 -208.5t-212 -86.5q-110 0 -184.5 68.5t-74.5 174.5z" />
    <glyph glyph-name="uni1ED6" unicode="&#x1ed6;" 
d="M491 1191q-106 0 -149 -143l95 -18q20 62 53 62q17 0 40 -22q50 -46 96 -46q104 0 147 143l-94 18q-21 -58 -58 -58q-21 0 -41 20q-25 25 -44.5 34.5t-44.5 9.5zM523 993l-215 -131l44 -94l172 110l137 -117l69 84l-171 145zM474 570q-96 0 -164 -70.5t-68 -170.5
q0 -86 55 -141.5t140 -55.5q96 0 164.5 72t68.5 171q0 85 -55.5 140t-140.5 55zM91 326q0 106 51.5 197t140 144t192.5 53q147 0 246.5 -97.5t99.5 -243.5q0 -106 -52 -197.5t-140.5 -145.5t-192.5 -54q-147 0 -246 98.5t-99 245.5z" />
    <glyph glyph-name="uni1ED7" unicode="&#x1ed7;" horiz-adv-x="618" 
d="M405 977q-106 0 -149 -143l95 -18q20 62 53 62q17 0 40 -22q50 -46 96 -46q104 0 147 143l-94 18q-21 -58 -58 -58q-21 0 -41 20q-25 25 -44.5 34.5t-44.5 9.5zM430 783l-215 -131l44 -94l172 110l137 -117l69 84l-171 145zM364 378q-58 0 -98 -41.5t-40 -99.5
q0 -50 34 -81.5t84 -31.5q58 0 98 41.5t40 99.5q0 50 -34 81.5t-84 31.5zM75 225q0 122 87 208.5t212 86.5q110 0 184.5 -68.5t74.5 -174.5q0 -122 -87 -208.5t-212 -86.5q-110 0 -184.5 68.5t-74.5 174.5z" />
    <glyph glyph-name="uni1ED8" unicode="&#x1ed8;" 
d="M535 995l-215 -131l44 -94l172 110l137 -117l69 84l-171 145zM318 -155q0 38 25.5 63.5t63.5 25.5t63.5 -25.5t25.5 -63.5t-25.5 -63.5t-63.5 -25.5t-63.5 25.5t-25.5 63.5zM474 570q-96 0 -164 -70.5t-68 -170.5q0 -86 55 -141.5t140 -55.5q96 0 164.5 72t68.5 171
q0 85 -55.5 140t-140.5 55zM91 326q0 106 51.5 197t140 144t192.5 53q147 0 246.5 -97.5t99.5 -243.5q0 -106 -52 -197.5t-140.5 -145.5t-192.5 -54q-147 0 -246 98.5t-99 245.5z" />
    <glyph glyph-name="uni1ED9" unicode="&#x1ed9;" horiz-adv-x="618" 
d="M419 788l-215 -131l44 -94l172 110l137 -117l69 84l-171 145zM222 -154q0 38 25.5 63.5t63.5 25.5t63.5 -25.5t25.5 -63.5t-25.5 -63.5t-63.5 -25.5t-63.5 25.5t-25.5 63.5zM364 378q-58 0 -98 -41.5t-40 -99.5q0 -50 34 -81.5t84 -31.5q58 0 98 41.5t40 99.5
q0 50 -34 81.5t-84 31.5zM75 225q0 122 87 208.5t212 86.5q110 0 184.5 -68.5t74.5 -174.5q0 -122 -87 -208.5t-212 -86.5q-110 0 -184.5 68.5t-74.5 174.5z" />
    <glyph glyph-name="uni1EDA" unicode="&#x1eda;" 
d="M658 898l-59 95l-194 -127l57 -89zM867 708q0 -65 -40 -104t-110 -39h-91l17 93h60q25 0 39.5 13t14.5 36q0 21 -19 38l83 66q17 -12 31.5 -44t14.5 -59zM474 570q-96 0 -164 -70.5t-68 -170.5q0 -86 55 -141.5t140 -55.5q96 0 164.5 72t68.5 171q0 85 -55.5 140
t-140.5 55zM91 326q0 106 51.5 197t140 144t192.5 53q147 0 246.5 -97.5t99.5 -243.5q0 -106 -52 -197.5t-140.5 -145.5t-192.5 -54q-147 0 -246 98.5t-99 245.5z" />
    <glyph glyph-name="uni1EDB" unicode="&#x1edb;" horiz-adv-x="668" 
d="M585 689l-59 95l-194 -127l57 -89zM771 487q0 -65 -40 -104t-110 -39h-91l17 93h60q25 0 39.5 13t14.5 36q0 21 -19 38l83 66q17 -12 31.5 -44t14.5 -59zM364 378q-58 0 -98 -41.5t-40 -99.5q0 -50 34 -81.5t84 -31.5q58 0 98 41.5t40 99.5q0 50 -34 81.5t-84 31.5z
M75 225q0 122 87 208.5t212 86.5q110 0 184.5 -68.5t74.5 -174.5q0 -122 -87 -208.5t-212 -86.5q-110 0 -184.5 68.5t-74.5 174.5z" />
    <glyph glyph-name="uni1EDC" unicode="&#x1edc;" 
d="M333 929l76 83l158 -157l-72 -78zM867 708q0 -65 -40 -104t-110 -39h-91l17 93h60q25 0 39.5 13t14.5 36q0 21 -19 38l83 66q17 -12 31.5 -44t14.5 -59zM474 570q-96 0 -164 -70.5t-68 -170.5q0 -86 55 -141.5t140 -55.5q96 0 164.5 72t68.5 171q0 85 -55.5 140
t-140.5 55zM91 326q0 106 51.5 197t140 144t192.5 53q147 0 246.5 -97.5t99.5 -243.5q0 -106 -52 -197.5t-140.5 -145.5t-192.5 -54q-147 0 -246 98.5t-99 245.5z" />
    <glyph glyph-name="uni1EDD" unicode="&#x1edd;" horiz-adv-x="668" 
d="M260 720l76 83l158 -157l-72 -78zM771 487q0 -65 -40 -104t-110 -39h-91l17 93h60q25 0 39.5 13t14.5 36q0 21 -19 38l83 66q17 -12 31.5 -44t14.5 -59zM364 378q-58 0 -98 -41.5t-40 -99.5q0 -50 34 -81.5t84 -31.5q58 0 98 41.5t40 99.5q0 50 -34 81.5t-84 31.5z
M75 225q0 122 87 208.5t212 86.5q110 0 184.5 -68.5t74.5 -174.5q0 -122 -87 -208.5t-212 -86.5q-110 0 -184.5 68.5t-74.5 174.5z" />
    <glyph glyph-name="uni1EDE" unicode="&#x1ede;" 
d="M503 1077q59 0 96 -35t37 -91q0 -51 -26 -86.5t-87 -72.5l-47 -25l-44 86l62 31q42 20 42 56q0 18 -12 29t-31 11q-33 0 -46 -32l-88 31q21 46 59 72t85 26zM867 708q0 -65 -40 -104t-110 -39h-91l17 93h60q25 0 39.5 13t14.5 36q0 21 -19 38l83 66q17 -12 31.5 -44
t14.5 -59zM474 570q-96 0 -164 -70.5t-68 -170.5q0 -86 55 -141.5t140 -55.5q96 0 164.5 72t68.5 171q0 85 -55.5 140t-140.5 55zM91 326q0 106 51.5 197t140 144t192.5 53q147 0 246.5 -97.5t99.5 -243.5q0 -106 -52 -197.5t-140.5 -145.5t-192.5 -54q-147 0 -246 98.5
t-99 245.5z" />
    <glyph glyph-name="uni1EDF" unicode="&#x1edf;" horiz-adv-x="668" 
d="M430 868q59 0 96 -35t37 -91q0 -51 -26 -86.5t-87 -72.5l-47 -25l-44 86l62 31q42 20 42 56q0 18 -12 29t-31 11q-33 0 -46 -32l-88 31q21 46 59 72t85 26zM771 487q0 -65 -40 -104t-110 -39h-91l17 93h60q25 0 39.5 13t14.5 36q0 21 -19 38l83 66q17 -12 31.5 -44
t14.5 -59zM364 378q-58 0 -98 -41.5t-40 -99.5q0 -50 34 -81.5t84 -31.5q58 0 98 41.5t40 99.5q0 50 -34 81.5t-84 31.5zM75 225q0 122 87 208.5t212 86.5q110 0 184.5 -68.5t74.5 -174.5q0 -122 -87 -208.5t-212 -86.5q-110 0 -184.5 68.5t-74.5 174.5z" />
    <glyph glyph-name="uni1EE0" unicode="&#x1ee0;" 
d="M423 944q-106 0 -149 -143l95 -18q20 62 53 62q17 0 40 -22q50 -46 96 -46q104 0 147 143l-94 18q-21 -58 -58 -58q-21 0 -41 20q-25 25 -44.5 34.5t-44.5 9.5zM867 708q0 -65 -40 -104t-110 -39h-91l17 93h60q25 0 39.5 13t14.5 36q0 21 -19 38l83 66q17 -12 31.5 -44
t14.5 -59zM474 570q-96 0 -164 -70.5t-68 -170.5q0 -86 55 -141.5t140 -55.5q96 0 164.5 72t68.5 171q0 85 -55.5 140t-140.5 55zM91 326q0 106 51.5 197t140 144t192.5 53q147 0 246.5 -97.5t99.5 -243.5q0 -106 -52 -197.5t-140.5 -145.5t-192.5 -54q-147 0 -246 98.5
t-99 245.5z" />
    <glyph glyph-name="uni1EE1" unicode="&#x1ee1;" horiz-adv-x="668" 
d="M350 735q-106 0 -149 -143l95 -18q20 62 53 62q17 0 40 -22q50 -46 96 -46q104 0 147 143l-94 18q-21 -58 -58 -58q-21 0 -41 20q-25 25 -44.5 34.5t-44.5 9.5zM771 487q0 -65 -40 -104t-110 -39h-91l17 93h60q25 0 39.5 13t14.5 36q0 21 -19 38l83 66q17 -12 31.5 -44
t14.5 -59zM364 378q-58 0 -98 -41.5t-40 -99.5q0 -50 34 -81.5t84 -31.5q58 0 98 41.5t40 99.5q0 50 -34 81.5t-84 31.5zM75 225q0 122 87 208.5t212 86.5q110 0 184.5 -68.5t74.5 -174.5q0 -122 -87 -208.5t-212 -86.5q-110 0 -184.5 68.5t-74.5 174.5z" />
    <glyph glyph-name="uni1EE2" unicode="&#x1ee2;" 
d="M316 -155q0 38 25.5 63.5t63.5 25.5t63.5 -25.5t25.5 -63.5t-25.5 -63.5t-63.5 -25.5t-63.5 25.5t-25.5 63.5zM867 708q0 -65 -40 -104t-110 -39h-91l17 93h60q25 0 39.5 13t14.5 36q0 21 -19 38l83 66q17 -12 31.5 -44t14.5 -59zM474 570q-96 0 -164 -70.5t-68 -170.5
q0 -86 55 -141.5t140 -55.5q96 0 164.5 72t68.5 171q0 85 -55.5 140t-140.5 55zM91 326q0 106 51.5 197t140 144t192.5 53q147 0 246.5 -97.5t99.5 -243.5q0 -106 -52 -197.5t-140.5 -145.5t-192.5 -54q-147 0 -246 98.5t-99 245.5z" />
    <glyph glyph-name="uni1EE3" unicode="&#x1ee3;" horiz-adv-x="668" 
d="M229 -155q0 38 25.5 63.5t63.5 25.5t63.5 -25.5t25.5 -63.5t-25.5 -63.5t-63.5 -25.5t-63.5 25.5t-25.5 63.5zM771 487q0 -65 -40 -104t-110 -39h-91l17 93h60q25 0 39.5 13t14.5 36q0 21 -19 38l83 66q17 -12 31.5 -44t14.5 -59zM364 378q-58 0 -98 -41.5t-40 -99.5
q0 -50 34 -81.5t84 -31.5q58 0 98 41.5t40 99.5q0 50 -34 81.5t-84 31.5zM75 225q0 122 87 208.5t212 86.5q110 0 184.5 -68.5t74.5 -174.5q0 -122 -87 -208.5t-212 -86.5q-110 0 -184.5 68.5t-74.5 174.5z" />
    <glyph glyph-name="uni1EE4" unicode="&#x1ee4;" horiz-adv-x="690" 
d="M258 -154q0 38 25.5 63.5t63.5 25.5t63.5 -25.5t25.5 -63.5t-25.5 -63.5t-63.5 -25.5t-63.5 25.5t-25.5 63.5zM369 -11q-118 0 -195 74t-77 190q0 28 5 56l68 391h151l-69 -394q-3 -19 -3 -37q0 -12 2.5 -26t11 -33.5t22.5 -34.5t39 -25.5t58 -10.5q58 0 99.5 37.5
t53.5 104.5l73 419h151l-77 -442q-21 -119 -109.5 -194t-203.5 -75z" />
    <glyph glyph-name="uni1EE5" unicode="&#x1ee5;" horiz-adv-x="561" 
d="M154 -150q0 38 25.5 63.5t63.5 25.5t63.5 -25.5t25.5 -63.5t-25.5 -63.5t-63.5 -25.5t-63.5 25.5t-25.5 63.5zM599 500l-88 -500h-152l88 500h152zM290 500l-53 -296q-6 -37 12 -60t54 -23q35 0 59.5 18.5t29.5 52.5h54q-15 -83 -77 -142.5t-138 -59.5q-79 0 -122 54.5
t-26 150.5l54 305h153z" />
    <glyph glyph-name="uni1EE6" unicode="&#x1ee6;" horiz-adv-x="690" 
d="M502 1075q59 0 96 -35t37 -91q0 -51 -26 -86.5t-87 -72.5l-47 -25l-44 86l62 31q42 20 42 56q0 18 -12 29t-31 11q-33 0 -46 -32l-88 31q21 46 59 72t85 26zM369 -11q-118 0 -195 74t-77 190q0 28 5 56l68 391h151l-69 -394q-3 -19 -3 -37q0 -12 2.5 -26t11 -33.5
t22.5 -34.5t39 -25.5t58 -10.5q58 0 99.5 37.5t53.5 104.5l73 419h151l-77 -442q-21 -119 -109.5 -194t-203.5 -75z" />
    <glyph glyph-name="uni1EE7" unicode="&#x1ee7;" horiz-adv-x="561" 
d="M397 865q59 0 96 -35t37 -91q0 -51 -26 -86.5t-87 -72.5l-47 -25l-44 86l62 31q42 20 42 56q0 18 -12 29t-31 11q-33 0 -46 -32l-88 31q21 46 59 72t85 26zM599 500l-88 -500h-152l88 500h152zM290 500l-53 -296q-6 -37 12 -60t54 -23q35 0 59.5 18.5t29.5 52.5h54
q-15 -83 -77 -142.5t-138 -59.5q-79 0 -122 54.5t-26 150.5l54 305h153z" />
    <glyph glyph-name="uni1EE8" unicode="&#x1ee8;" horiz-adv-x="843" 
d="M641 898l-59 95l-194 -127l57 -89zM931 686q0 -65 -40 -104t-110 -39h-91l17 93h60q25 0 39.5 13t14.5 36q0 21 -19 38l83 66q17 -12 31.5 -44t14.5 -59zM369 -11q-118 0 -195 74t-77 190q0 28 5 56l68 391h151l-69 -394q-3 -19 -3 -37q0 -12 2.5 -26t11 -33.5
t22.5 -34.5t39 -25.5t58 -10.5q58 0 99.5 37.5t53.5 104.5l73 419h151l-77 -442q-21 -119 -109.5 -194t-203.5 -75z" />
    <glyph glyph-name="uni1EE9" unicode="&#x1ee9;" horiz-adv-x="709" 
d="M553 689l-59 95l-194 -127l57 -89zM762 470q0 -65 -40 -104t-110 -39h-91l17 93h60q25 0 39.5 13t14.5 36q0 21 -19 38l83 66q17 -12 31.5 -44t14.5 -59zM599 500l-88 -500h-152l88 500h152zM290 500l-53 -296q-6 -37 12 -60t54 -23q35 0 59.5 18.5t29.5 52.5h54
q-15 -83 -77 -142.5t-138 -59.5q-79 0 -122 54.5t-26 150.5l54 305h153z" />
    <glyph glyph-name="uni1EEA" unicode="&#x1eea;" horiz-adv-x="843" 
d="M316 929l76 83l158 -157l-72 -78zM931 686q0 -65 -40 -104t-110 -39h-91l17 93h60q25 0 39.5 13t14.5 36q0 21 -19 38l83 66q17 -12 31.5 -44t14.5 -59zM369 -11q-118 0 -195 74t-77 190q0 28 5 56l68 391h151l-69 -394q-3 -19 -3 -37q0 -12 2.5 -26t11 -33.5t22.5 -34.5
t39 -25.5t58 -10.5q58 0 99.5 37.5t53.5 104.5l73 419h151l-77 -442q-21 -119 -109.5 -194t-203.5 -75z" />
    <glyph glyph-name="uni1EEB" unicode="&#x1eeb;" horiz-adv-x="709" 
d="M228 720l76 83l158 -157l-72 -78zM762 470q0 -65 -40 -104t-110 -39h-91l17 93h60q25 0 39.5 13t14.5 36q0 21 -19 38l83 66q17 -12 31.5 -44t14.5 -59zM599 500l-88 -500h-152l88 500h152zM290 500l-53 -296q-6 -37 12 -60t54 -23q35 0 59.5 18.5t29.5 52.5h54
q-15 -83 -77 -142.5t-138 -59.5q-79 0 -122 54.5t-26 150.5l54 305h153z" />
    <glyph glyph-name="uni1EEC" unicode="&#x1eec;" horiz-adv-x="843" 
d="M486 1077q59 0 96 -35t37 -91q0 -51 -26 -86.5t-87 -72.5l-47 -25l-44 86l62 31q42 20 42 56q0 18 -12 29t-31 11q-33 0 -46 -32l-88 31q21 46 59 72t85 26zM931 686q0 -65 -40 -104t-110 -39h-91l17 93h60q25 0 39.5 13t14.5 36q0 21 -19 38l83 66q17 -12 31.5 -44
t14.5 -59zM369 -11q-118 0 -195 74t-77 190q0 28 5 56l68 391h151l-69 -394q-3 -19 -3 -37q0 -12 2.5 -26t11 -33.5t22.5 -34.5t39 -25.5t58 -10.5q58 0 99.5 37.5t53.5 104.5l73 419h151l-77 -442q-21 -119 -109.5 -194t-203.5 -75z" />
    <glyph glyph-name="uni1EED" unicode="&#x1eed;" horiz-adv-x="709" 
d="M398 868q59 0 96 -35t37 -91q0 -51 -26 -86.5t-87 -72.5l-47 -25l-44 86l62 31q42 20 42 56q0 18 -12 29t-31 11q-33 0 -46 -32l-88 31q21 46 59 72t85 26zM762 470q0 -65 -40 -104t-110 -39h-91l17 93h60q25 0 39.5 13t14.5 36q0 21 -19 38l83 66q17 -12 31.5 -44
t14.5 -59zM599 500l-88 -500h-152l88 500h152zM290 500l-53 -296q-6 -37 12 -60t54 -23q35 0 59.5 18.5t29.5 52.5h54q-15 -83 -77 -142.5t-138 -59.5q-79 0 -122 54.5t-26 150.5l54 305h153z" />
    <glyph glyph-name="uni1EEE" unicode="&#x1eee;" horiz-adv-x="843" 
d="M406 944q-106 0 -149 -143l95 -18q20 62 53 62q17 0 40 -22q50 -46 96 -46q104 0 147 143l-94 18q-21 -58 -58 -58q-21 0 -41 20q-25 25 -44.5 34.5t-44.5 9.5zM931 686q0 -65 -40 -104t-110 -39h-91l17 93h60q25 0 39.5 13t14.5 36q0 21 -19 38l83 66q17 -12 31.5 -44
t14.5 -59zM369 -11q-118 0 -195 74t-77 190q0 28 5 56l68 391h151l-69 -394q-3 -19 -3 -37q0 -12 2.5 -26t11 -33.5t22.5 -34.5t39 -25.5t58 -10.5q58 0 99.5 37.5t53.5 104.5l73 419h151l-77 -442q-21 -119 -109.5 -194t-203.5 -75z" />
    <glyph glyph-name="uni1EEF" unicode="&#x1eef;" horiz-adv-x="709" 
d="M318 735q-106 0 -149 -143l95 -18q20 62 53 62q17 0 40 -22q50 -46 96 -46q104 0 147 143l-94 18q-21 -58 -58 -58q-21 0 -41 20q-25 25 -44.5 34.5t-44.5 9.5zM762 470q0 -65 -40 -104t-110 -39h-91l17 93h60q25 0 39.5 13t14.5 36q0 21 -19 38l83 66q17 -12 31.5 -44
t14.5 -59zM599 500l-88 -500h-152l88 500h152zM290 500l-53 -296q-6 -37 12 -60t54 -23q35 0 59.5 18.5t29.5 52.5h54q-15 -83 -77 -142.5t-138 -59.5q-79 0 -122 54.5t-26 150.5l54 305h153z" />
    <glyph glyph-name="uni1EF0" unicode="&#x1ef0;" horiz-adv-x="843" 
d="M255 -155q0 38 25.5 63.5t63.5 25.5t63.5 -25.5t25.5 -63.5t-25.5 -63.5t-63.5 -25.5t-63.5 25.5t-25.5 63.5zM931 686q0 -65 -40 -104t-110 -39h-91l17 93h60q25 0 39.5 13t14.5 36q0 21 -19 38l83 66q17 -12 31.5 -44t14.5 -59zM369 -11q-118 0 -195 74t-77 190
q0 28 5 56l68 391h151l-69 -394q-3 -19 -3 -37q0 -12 2.5 -26t11 -33.5t22.5 -34.5t39 -25.5t58 -10.5q58 0 99.5 37.5t53.5 104.5l73 419h151l-77 -442q-21 -119 -109.5 -194t-203.5 -75z" />
    <glyph glyph-name="uni1EF1" unicode="&#x1ef1;" horiz-adv-x="709" 
d="M161 -155q0 38 25.5 63.5t63.5 25.5t63.5 -25.5t25.5 -63.5t-25.5 -63.5t-63.5 -25.5t-63.5 25.5t-25.5 63.5zM762 470q0 -65 -40 -104t-110 -39h-91l17 93h60q25 0 39.5 13t14.5 36q0 21 -19 38l83 66q17 -12 31.5 -44t14.5 -59zM599 500l-88 -500h-152l88 500h152z
M290 500l-53 -296q-6 -37 12 -60t54 -23q35 0 59.5 18.5t29.5 52.5h54q-15 -83 -77 -142.5t-138 -59.5q-79 0 -122 54.5t-26 150.5l54 305h153z" />
    <glyph glyph-name="Ygrave" unicode="&#x1ef2;" horiz-adv-x="691" 
d="M342 929l76 83l158 -157l-72 -78zM279 0h150l39 223l320 477h-182l-187 -293l-102 293h-171l172 -477z" />
    <glyph glyph-name="ygrave" unicode="&#x1ef3;" horiz-adv-x="609" 
d="M249 718l76 83l158 -157l-72 -78zM507 500l-180 -330l-59 330h-153l100 -483l-121 -217h166l411 700h-164z" />
    <glyph glyph-name="uni1EF4" unicode="&#x1ef4;" horiz-adv-x="691" 
d="M244 -155q0 38 25.5 63.5t63.5 25.5t63.5 -25.5t25.5 -63.5t-25.5 -63.5t-63.5 -25.5t-63.5 25.5t-25.5 63.5zM279 0h150l39 223l320 477h-182l-187 -293l-102 293h-171l172 -477z" />
    <glyph glyph-name="uni1EF5" unicode="&#x1ef5;" horiz-adv-x="609" 
d="M386 -155q0 38 25.5 63.5t63.5 25.5t63.5 -25.5t25.5 -63.5t-25.5 -63.5t-63.5 -25.5t-63.5 25.5t-25.5 63.5zM507 500l-180 -330l-59 330h-153l100 -483l-121 -217h166l411 700h-164z" />
    <glyph glyph-name="uni1EF6" unicode="&#x1ef6;" horiz-adv-x="691" 
d="M512 1077q59 0 96 -35t37 -91q0 -51 -26 -86.5t-87 -72.5l-47 -25l-44 86l62 31q42 20 42 56q0 18 -12 29t-31 11q-33 0 -46 -32l-88 31q21 46 59 72t85 26zM279 0h150l39 223l320 477h-182l-187 -293l-102 293h-171l172 -477z" />
    <glyph glyph-name="uni1EF7" unicode="&#x1ef7;" horiz-adv-x="609" 
d="M419 866q59 0 96 -35t37 -91q0 -51 -26 -86.5t-87 -72.5l-47 -25l-44 86l62 31q42 20 42 56q0 18 -12 29t-31 11q-33 0 -46 -32l-88 31q21 46 59 72t85 26zM507 500l-180 -330l-59 330h-153l100 -483l-121 -217h166l411 700h-164z" />
    <glyph glyph-name="uni1EF8" unicode="&#x1ef8;" horiz-adv-x="691" 
d="M432 944q-106 0 -149 -143l95 -18q20 62 53 62q17 0 40 -22q50 -46 96 -46q104 0 147 143l-94 18q-21 -58 -58 -58q-21 0 -41 20q-25 25 -44.5 34.5t-44.5 9.5zM279 0h150l39 223l320 477h-182l-187 -293l-102 293h-171l172 -477z" />
    <glyph glyph-name="uni1EF9" unicode="&#x1ef9;" horiz-adv-x="609" 
d="M339 733q-106 0 -149 -143l95 -18q20 62 53 62q17 0 40 -22q50 -46 96 -46q104 0 147 143l-94 18q-21 -58 -58 -58q-21 0 -41 20q-25 25 -44.5 34.5t-44.5 9.5zM507 500l-180 -330l-59 330h-153l100 -483l-121 -217h166l411 700h-164z" />
    <glyph glyph-name="uni2010" unicode="&#x2010;" horiz-adv-x="377" 
d="M410 332l-23 -131h-326l23 131h326z" />
    <glyph glyph-name="endash" unicode="&#x2013;" horiz-adv-x="560" 
d="M593 332l-23 -131h-509l23 131h509z" />
    <glyph glyph-name="emdash" unicode="&#x2014;" horiz-adv-x="892" 
d="M926 332l-23 -131h-842l23 131h842z" />
    <glyph glyph-name="quoteleft" unicode="&#x2018;" horiz-adv-x="250" 
d="M222 432q-42 0 -67.5 29.5t-25.5 78.5q0 76 56.5 148.5t129.5 88.5l27 -79q-47 -6 -82.5 -35t-41.5 -69q8 4 22 4q33 0 54.5 -21.5t21.5 -55.5q0 -38 -27 -63.5t-67 -25.5z" />
    <glyph glyph-name="quoteright" unicode="&#x2019;" horiz-adv-x="250" 
d="M245 782q42 0 67.5 -29.5t25.5 -78.5q0 -77 -56.5 -149t-129.5 -88l-28 79q48 5 83 34.5t42 69.5q-8 -5 -22 -5q-34 0 -55.5 21.5t-21.5 55.5q0 38 27 64t68 26z" />
    <glyph glyph-name="quotesinglbase" unicode="&#x201a;" horiz-adv-x="250" 
d="M136 158q42 0 68 -29.5t26 -78.5q0 -77 -57 -149t-130 -88l-27 79q47 6 82.5 35.5t42.5 69.5q-12 -5 -22 -5q-34 0 -55.5 21.5t-21.5 55.5q0 38 27 63.5t67 25.5z" />
    <glyph glyph-name="quotereversed" unicode="&#x201b;" horiz-adv-x="250" 
d="M255 613q-26 0 -37 10q-1 -6 -1 -17q0 -35 23.5 -64.5t62.5 -41.5l-53 -72q-48 21 -80 75.5t-32 116.5q0 67 35.5 114t86.5 47q36 0 60 -21.5t24 -53.5q0 -38 -26.5 -65.5t-62.5 -27.5z" />
    <glyph glyph-name="quotedblleft" unicode="&#x201c;" horiz-adv-x="473" 
d="M441 432q-43 0 -68.5 30t-25.5 78q0 77 57.5 149t129.5 88l27 -79q-47 -6 -82.5 -35t-42.5 -69q9 4 22 4q34 0 55.5 -21.5t21.5 -55.5q0 -38 -27 -63.5t-67 -25.5zM217 432q-42 0 -67.5 29.5t-25.5 78.5q0 76 56.5 148.5t129.5 88.5l28 -79q-48 -6 -83 -35t-42 -69
q8 4 22 4q34 0 55.5 -21.5t21.5 -55.5q0 -38 -27 -63.5t-68 -25.5z" />
    <glyph glyph-name="quotedblright" unicode="&#x201d;" horiz-adv-x="473" 
d="M247 778q42 0 67.5 -29.5t25.5 -78.5q0 -77 -57 -149t-129 -88l-28 79q48 5 83 34.5t42 69.5q-9 -5 -22 -5q-34 0 -55.5 21.5t-21.5 55.5q0 38 27 64t68 26zM470 778q42 0 67.5 -29.5t25.5 -78.5q0 -77 -56.5 -149t-129.5 -88l-27 79q47 5 82.5 34.5t41.5 69.5
q-8 -5 -22 -5q-33 0 -54.5 21.5t-21.5 55.5q0 38 27 64t67 26z" />
    <glyph glyph-name="quotedblbase" unicode="&#x201e;" horiz-adv-x="473" 
d="M139 159q41 0 66.5 -30.5t25.5 -79.5q0 -75 -57 -147.5t-129 -88.5l-27 79q47 6 82.5 35.5t41.5 69.5q-9 -6 -21 -6q-32 0 -54.5 22.5t-22.5 54.5q0 38 27.5 64.5t67.5 26.5zM362 159q41 0 67 -30.5t26 -79.5q0 -75 -57.5 -147.5t-129.5 -88.5l-27 79q47 6 82.5 35.5
t42.5 69.5q-9 -6 -22 -6q-32 0 -54.5 22.5t-22.5 54.5q0 38 27.5 64.5t67.5 26.5z" />
    <glyph glyph-name="uni201F" unicode="&#x201f;" horiz-adv-x="473" 
d="M480 613q-27 0 -37 10q-1 -6 -1 -17q0 -35 23.5 -64.5t62.5 -41.5l-53 -72q-48 21 -80 75.5t-32 116.5q0 67 35.5 114t85.5 47q37 0 61 -21.5t24 -53.5q0 -38 -26.5 -65.5t-62.5 -27.5zM256 613q-26 0 -37 10q-1 -6 -1 -17q0 -35 24 -64.5t63 -41.5l-53 -72
q-48 21 -80 75.5t-32 116.5q0 67 35.5 114t85.5 47q37 0 61 -21.5t24 -53.5q0 -38 -27 -65.5t-63 -27.5z" />
    <glyph glyph-name="dagger" unicode="&#x2020;" horiz-adv-x="402" 
d="M224 656h187l-44 -147h95l-25 -139h-95l-65 -370h-150l65 370h-97l25 139h97z" />
    <glyph glyph-name="daggerdbl" unicode="&#x2021;" horiz-adv-x="402" 
d="M224 656h187l-44 -147h94l-24 -139h-95l-15 -84h96l-25 -139h-95l-9 -147h-187l44 147h-95l24 139h95l15 84h-95l24 139h96z" />
    <glyph glyph-name="bullet" unicode="&#x2022;" horiz-adv-x="260" 
d="M83 281q0 43 27 72t68 29q44 0 73.5 -29t29.5 -72t-28.5 -71t-71 -28t-70.5 28t-28 71z" />
    <glyph glyph-name="uni2023" unicode="&#x2023;" horiz-adv-x="260" 
d="M107 410l170 -127l-212 -113z" />
    <glyph glyph-name="ellipsis" unicode="&#x2026;" horiz-adv-x="780" 
d="M567 81q0 43 27 72t68 29q44 0 73.5 -29t29.5 -72t-28.5 -71t-71 -28t-70.5 28t-28 71zM307 81q0 43 27 72t68 29q44 0 73.5 -29t29.5 -72t-28.5 -71t-71 -28t-70.5 28t-28 71zM47 81q0 43 27 72t68 29q44 0 73.5 -29t29.5 -72t-28.5 -71t-71 -28t-70.5 28t-28 71z" />
    <glyph glyph-name="perthousand" unicode="&#x2030;" horiz-adv-x="1500" 
d="M1309 268q-35 0 -59 -25t-24 -61q0 -30 20.5 -49.5t51.5 -19.5q35 0 59 25t24 60q0 31 -20.5 50.5t-51.5 19.5zM1092 168q0 96 67 164.5t162 68.5q84 0 139 -53.5t55 -135.5q0 -95 -67 -163.5t-162 -68.5q-84 0 -139 53.5t-55 134.5zM861 268q-35 0 -59 -25t-24 -61
q0 -30 20 -49.5t51 -19.5q35 0 59 25t24 60q0 31 -20 50.5t-51 19.5zM643 168q0 96 67.5 164.5t161.5 68.5q84 0 139.5 -53.5t55.5 -135.5q0 -95 -67.5 -163.5t-161.5 -68.5q-85 0 -140 53.5t-55 134.5zM325 586q-35 0 -59 -25t-24 -60q0 -30 20 -49.5t51 -19.5
q35 0 59 24.5t24 60.5q0 30 -20 49.5t-51 19.5zM107 487q0 96 67.5 164.5t161.5 68.5q84 0 139.5 -53.5t55.5 -135.5q0 -96 -67.5 -164.5t-161.5 -68.5q-85 0 -140 53.5t-55 135.5zM465 0h-166l411 700h166z" />
    <glyph glyph-name="minute" unicode="&#x2032;" horiz-adv-x="241" 
d="M218 775l127 -38l-103 -246l-122 36z" />
    <glyph glyph-name="second" unicode="&#x2033;" horiz-adv-x="445" 
d="M421 775l127 -38l-102 -246l-122 36zM218 775l127 -38l-103 -246l-122 36z" />
    <glyph glyph-name="uni2034" unicode="&#x2034;" horiz-adv-x="648" 
d="M625 775l127 -38l-103 -246l-122 36zM421 775l127 -38l-102 -246l-122 36zM218 775l127 -38l-103 -246l-122 36z" />
    <glyph glyph-name="uni2035" unicode="&#x2035;" horiz-adv-x="241" 
d="M297 775l11 -248l-135 -36l-16 246z" />
    <glyph glyph-name="uni2036" unicode="&#x2036;" horiz-adv-x="445" 
d="M297 775l11 -248l-135 -36l-16 246zM501 775l10 -248l-135 -36l-15 246z" />
    <glyph glyph-name="uni2037" unicode="&#x2037;" horiz-adv-x="648" 
d="M297 775l11 -248l-135 -36l-16 246zM501 775l10 -248l-135 -36l-15 246zM704 775l11 -248l-135 -36l-16 246z" />
    <glyph glyph-name="fractionslash" unicode="&#x2044;" horiz-adv-x="160" 
d="M63 0h-175l376 700h175z" />
    <glyph glyph-name="uni2070" unicode="&#x2070;" horiz-adv-x="368" 
d="M253 608q-3 -19 6.5 -31t25.5 -12t28.5 12t16.5 31l14 80q3 19 -5.5 31.5t-23.5 12.5q-17 0 -30.5 -12.5t-17.5 -31.5zM135 599l17 98q12 66 65 109t118 43t102 -43t25 -109l-17 -98q-11 -65 -63.5 -108t-116.5 -43q-66 0 -104 43t-26 108z" />
    <glyph glyph-name="uni2074" unicode="&#x2074;" horiz-adv-x="388" 
d="M252 626h56l13 77zM462 839l-38 -213h46l-17 -97h-46l-12 -71h-117l13 71h-168l19 110l190 200h130z" />
    <glyph glyph-name="uni2075" unicode="&#x2075;" horiz-adv-x="368" 
d="M268 690l8 46h178l19 104h-296l-33 -190l110 -35q22 18 43 18q16 0 24.5 -11.5t5.5 -29.5q-3 -15 -15 -24.5t-29 -9.5q-34 0 -36 31l-119 -29q7 -51 44 -80.5t94 -29.5q67 0 117 40t61 102q9 53 -16 89.5t-71 36.5q-48 0 -89 -28z" />
    <glyph glyph-name="uni2076" unicode="&#x2076;" horiz-adv-x="370" 
d="M394 723q-15 26 -52 26q-30 0 -54 -24.5t-34 -66.5q15 21 40.5 33.5t52.5 12.5q47 0 73 -35.5t17 -86.5q-11 -58 -59.5 -96t-112.5 -38q-75 0 -107 55q-31 51 -16 136q16 93 74.5 151.5t136.5 58.5q49 0 81.5 -22.5t42.5 -62.5zM254 582q-3 -14 6.5 -23.5t25.5 -9.5
t27.5 8.5t14.5 21.5q2 15 -7 24t-26 9q-16 0 -27.5 -8t-13.5 -22z" />
    <glyph glyph-name="uni2077" unicode="&#x2077;" horiz-adv-x="342" 
d="M284 458l157 264l20 117h-284l-18 -104h171l-171 -277h125z" />
    <glyph glyph-name="uni2078" unicode="&#x2078;" horiz-adv-x="365" 
d="M248 577q-2 -12 7 -20t25 -8t27.5 8t14 20t-6.5 20t-25 8t-28 -8t-14 -20zM173 738q8 47 54.5 79t105.5 32t94 -32t27 -79q-5 -28 -25 -50.5t-50 -34.5q32 -12 47 -36t10 -54q-9 -49 -59 -82t-115 -33t-103.5 33t-30.5 82q6 30 29.5 54t59.5 36q-26 12 -37.5 34.5
t-6.5 50.5zM306 697q10 0 18 8t10 19t-3.5 18t-15.5 7t-18 -7t-10 -18t3.5 -19t15.5 -8z" />
    <glyph glyph-name="uni2079" unicode="&#x2079;" horiz-adv-x="370" 
d="M205 574q16 -26 53 -26q30 0 54 24.5t34 66.5q-15 -21 -41 -33.5t-53 -12.5q-46 0 -72 35.5t-17 86.5q10 58 59 96t113 38q75 0 107 -54q31 -52 16 -137q-17 -93 -75.5 -151.5t-135.5 -58.5q-49 0 -81.5 22.5t-42.5 63.5zM346 715q3 14 -6.5 24t-26.5 10q-15 0 -27 -9
t-14 -22q-2 -15 7 -24t26 -9q15 0 27 8.5t14 21.5z" />
    <glyph glyph-name="uni2080" unicode="&#x2080;" horiz-adv-x="368" 
d="M145 -3q-3 -18 6.5 -30t26.5 -12q15 0 28 12t16 30l14 81q4 19 -5 31t-24 12q-16 0 -30 -12t-17 -31zM27 -11l17 97q12 66 65 109t119 43q64 0 101 -43t26 -109l-18 -97q-11 -66 -63.5 -108.5t-116.5 -42.5q-65 0 -103 42.5t-27 108.5z" />
    <glyph glyph-name="uni2081" unicode="&#x2081;" horiz-adv-x="289" 
d="M301 229l-67 -382h-117l44 249l-60 -42l-47 84l127 91h120z" />
    <glyph glyph-name="uni2082" unicode="&#x2082;" horiz-adv-x="357" 
d="M345 97q10 60 -26 98.5t-98 38.5q-58 0 -102 -32t-69 -82l102 -38q15 35 42 35q12 0 19 -9t4 -22q-2 -12 -17 -24t-30 -19t-40 -18l-103 -46l-24 -132h299l20 112h-149l38 18q121 51 134 120z" />
    <glyph glyph-name="uni2083" unicode="&#x2083;" horiz-adv-x="373" 
d="M248 59l108 47l22 124h-292l-19 -104h181l-80 -41l10 -74q21 0 31.5 -7.5t7.5 -20.5q-2 -11 -12 -18.5t-24 -7.5q-30 0 -31 32l-126 -20q5 -60 43.5 -94.5t100.5 -34.5q65 0 113 33.5t57 84.5q8 44 -17.5 72t-72.5 29z" />
    <glyph glyph-name="uni2084" unicode="&#x2084;" horiz-adv-x="388" 
d="M145 15h55l13 77zM354 229l-37 -214h45l-17 -96h-45l-13 -72h-117l13 72h-168l19 109l190 201h130z" />
    <glyph glyph-name="uni2085" unicode="&#x2085;" horiz-adv-x="368" 
d="M160 79l8 46h179l18 105h-295l-34 -191l111 -35q21 19 42 19q17 0 25 -11.5t5 -29.5q-2 -16 -14.5 -25.5t-29.5 -9.5q-34 0 -36 31l-119 -28q7 -51 44.5 -81t94.5 -30q66 0 116 40.5t61 102.5q9 53 -15.5 89.5t-70.5 36.5q-49 0 -90 -29z" />
    <glyph glyph-name="uni2086" unicode="&#x2086;" horiz-adv-x="370" 
d="M287 113q-16 26 -53 26q-30 0 -54 -25t-34 -67q15 21 41 34t53 13q46 0 72 -36t17 -87q-10 -57 -59 -95t-113 -38q-75 0 -107 54q-31 52 -16 136q17 94 75.5 152t135.5 58q49 0 81.5 -22.5t42.5 -62.5zM146 -28q-3 -14 7 -24t26 -10q15 0 27 8.5t14 22.5q3 14 -6.5 23.5
t-25.5 9.5t-28 -8.5t-14 -21.5z" />
    <glyph glyph-name="uni2087" unicode="&#x2087;" horiz-adv-x="342" 
d="M176 -153l157 264l21 118h-284l-19 -105h171l-171 -277h125z" />
    <glyph glyph-name="uni2088" unicode="&#x2088;" horiz-adv-x="365" 
d="M140 -34q-2 -12 7 -20t25 -8t28 8t14 20t-7 20.5t-25 8.5t-28 -8.5t-14 -20.5zM65 128q8 46 54.5 78t105.5 32t94 -32t27 -78q-5 -28 -24.5 -50.5t-50.5 -35.5q33 -12 48 -35.5t9 -54.5q-8 -48 -58.5 -81t-115.5 -33t-103.5 33t-29.5 81q5 31 28.5 54.5t60.5 35.5
q-26 13 -38 35.5t-7 50.5zM198 87q10 0 18.5 7.5t9.5 18.5q2 11 -3 18t-15.5 7t-18.5 -7t-10 -18t3.5 -18.5t15.5 -7.5z" />
    <glyph glyph-name="uni2089" unicode="&#x2089;" horiz-adv-x="370" 
d="M98 -37q15 -26 52 -26q30 0 54 24.5t34 67.5q-15 -21 -40.5 -34t-52.5 -13q-47 0 -73 36t-17 87q11 57 59.5 95t112.5 38q75 0 108 -54q30 -52 15 -136q-16 -94 -74.5 -152t-136.5 -58q-48 0 -81 22.5t-42 62.5zM238 104q3 14 -6.5 24t-25.5 10t-27.5 -8.5t-14.5 -22.5
q-2 -14 7 -23.5t26 -9.5q16 0 27.5 8.5t13.5 21.5z" />
    <glyph glyph-name="dong" unicode="&#x20ab;" horiz-adv-x="668" 
d="M636 -57l-20 -113h-620l20 113h620zM536 313q0 -87 -38.5 -163.5t-102.5 -122t-136 -45.5q-83 0 -135.5 59t-52.5 152q0 85 39 160.5t105 121t139 45.5q82 0 132 -57t50 -150zM331 124q61 0 106 44.5t45 106.5q0 45 -29.5 74t-77.5 29q-61 0 -106 -44.5t-45 -106.5
q0 -45 30 -74t77 -29zM586 0h-150l100 566h-192l23 130h192l9 54h150l-9 -54h82l-23 -130h-82z" />
    <glyph glyph-name="Euro" unicode="&#x20ac;" horiz-adv-x="854" 
d="M596 321l-14 -81h-505l14 81h505zM623 474l-15 -89h-506l16 89h505zM167 281q0 86 35.5 167t94.5 140.5t139 95.5t166 36q104 0 180.5 -48t105.5 -132l-139 -78q-18 50 -64.5 79t-110.5 29q-102 0 -178 -78.5t-76 -182.5q0 -79 49 -128t128 -49q66 0 124 31t94 86
l113 -77q-58 -88 -153.5 -139t-202.5 -51q-135 0 -220 83.5t-85 215.5z" />
    <glyph glyph-name="uni20B4" unicode="&#x20b4;" horiz-adv-x="590" 
d="M73 154q0 53 27 92h-31l14 80h544l-14 -80h-350q-27 -19 -27 -57q0 -26 20 -41.5t53 -15.5q42 0 80.5 24t62.5 66l134 -69q-47 -75 -130 -119.5t-175 -44.5q-94 0 -151 45.5t-57 119.5zM635 548q0 -48 -23 -86h39l-14 -80h-544l14 80h341q25 18 25 53q0 25 -18.5 40
t-49.5 15q-39 0 -75.5 -22.5t-59.5 -60.5l-137 53q47 79 129.5 126t173.5 47q89 0 144 -45.5t55 -119.5z" />
    <glyph glyph-name="uni20B8" unicode="&#x20b8;" horiz-adv-x="611" 
d="M123 560l24 140h564l-24 -140h-564zM675 495l-26 -148h-207l-61 -347h-150l61 347h-207l27 148h563z" />
    <glyph glyph-name="uni20BD" unicode="&#x20bd;" horiz-adv-x="643" 
d="M702 526q0 -100 -78 -172t-185 -72h-134l-9 -52h155l-21 -114h-155l-20 -116h-150l20 116h-79l21 114h79l9 53h-79l23 130h79l50 287h294q80 0 130 -48.5t50 -125.5zM462 413q35 0 61 25t26 59q0 24 -17 39.5t-46 15.5h-133l-25 -139h134z" />
    <glyph glyph-name="uni2103" unicode="&#x2103;" horiz-adv-x="1244" 
d="M557 321q0 111 52.5 202.5t143.5 144t201 52.5q50 0 97.5 -14t92 -42t79.5 -77.5t54 -115.5l-146 -48q-16 67 -67.5 107t-122.5 40q-95 0 -163.5 -71.5t-68.5 -171.5q0 -84 55 -139.5t139 -55.5q62 0 116.5 34t87.5 92l135 -75q-58 -97 -149 -149.5t-200 -52.5
q-143 0 -239.5 97t-96.5 243zM329 577q-33 0 -56.5 -24t-23.5 -58q0 -29 19.5 -47.5t48.5 -18.5q34 0 57.5 23.5t23.5 57.5q0 29 -19.5 48t-49.5 19zM115 481q0 95 66 162t159 67q83 0 137.5 -52.5t54.5 -133.5q0 -95 -66 -162t-159 -67q-83 0 -137.5 53t-54.5 133z" />
    <glyph glyph-name="uni2109" unicode="&#x2109;" horiz-adv-x="1051" 
d="M743 433h327l-25 -147h-327l-50 -286h-154l124 700h503l-26 -147h-351zM329 577q-33 0 -56.5 -24t-23.5 -58q0 -29 19.5 -47.5t48.5 -18.5q34 0 57.5 23.5t23.5 57.5q0 29 -19.5 48t-49.5 19zM115 481q0 95 66 162t159 67q83 0 137.5 -52.5t54.5 -133.5q0 -95 -66 -162
t-159 -67q-83 0 -137.5 53t-54.5 133z" />
    <glyph glyph-name="trademark" unicode="&#x2122;" horiz-adv-x="552" 
d="M348 700l-10 -60h-68l-36 -201h-64l36 201h-66l11 60h197zM335 439l46 261h72l35 -128l82 128h79l-46 -261h-64l26 148l-67 -105h-44l-29 105l-27 -148h-63z" />
    <glyph glyph-name="estimated" unicode="&#x212e;" horiz-adv-x="598" 
d="M284 522l-24 -139h214l25 141q-39 29 -102 29q-65 0 -113 -31zM634 408q0 -34 -13 -88h-372l-24 -137q38 -34 105 -34q61 0 115 29.5t88 81.5l58 -30q-46 -69 -115.5 -108.5t-149.5 -39.5q-102 0 -169.5 61.5t-67.5 157.5q0 84 41.5 157.5t113.5 117.5t156 44
q100 0 167 -59.5t67 -152.5z" />
    <glyph glyph-name="arrowleft" unicode="&#x2190;" horiz-adv-x="801" 
d="M418 675l84 -91l-163 -150h495l-12 -131h-493l136 -149l-101 -91l-271 306z" />
    <glyph glyph-name="arrowup" unicode="&#x2191;" horiz-adv-x="678" 
d="M711 438l-99 -92l-137 150l-43 -494h-131l44 493l-162 -149l-84 92l333 298z" />
    <glyph glyph-name="arrowright" unicode="&#x2192;" horiz-adv-x="801" 
d="M503 60l-84 92l163 149h-494l11 131h493l-136 149l101 91l271 -306z" />
    <glyph glyph-name="arrowdown" unicode="&#x2193;" horiz-adv-x="678" 
d="M87 297l100 92l137 -150l43 494h130l-43 -493l162 149l83 -92l-332 -298z" />
    <glyph glyph-name="arrowboth" unicode="&#x2194;" horiz-adv-x="972" 
d="M675 60l-84 92l162 149h-424l136 -149l-101 -92l-271 307l325 306l84 -92l-162 -149h424l-136 149l101 91l271 -306z" />
    <glyph glyph-name="arrowupdn" unicode="&#x2195;" horiz-adv-x="679" 
d="M80 211l99 92l136 -149l37 424l-161 -149l-84 93l332 298l280 -298l-99 -93l-136 149l-37 -423l162 148l83 -92l-332 -298z" />
    <glyph glyph-name="uni2196" unicode="&#x2196;" horiz-adv-x="637" 
d="M551 635l-11 -130h-212l319 -350l-100 -92l-318 349l-19 -211l-130 1l44 427z" />
    <glyph glyph-name="uni2197" unicode="&#x2197;" horiz-adv-x="637" 
d="M652 202l-130 -1l19 212l-381 -349l-84 92l380 348h-211l12 131l426 -6z" />
    <glyph glyph-name="uni2198" unicode="&#x2198;" horiz-adv-x="637" 
d="M206 101l11 130h212l-319 349l101 92l318 -348l18 210h130l-43 -427z" />
    <glyph glyph-name="uni2199" unicode="&#x2199;" horiz-adv-x="637" 
d="M106 534h130l-19 -212l381 350l84 -93l-380 -348h211l-12 -130l-426 6z" />
    <glyph glyph-name="approxequal" unicode="&#x2248;" horiz-adv-x="480" 
d="M210 266q-55 0 -94 -37.5t-59 -105.5l91 -18q20 62 53 62q17 0 40 -22q50 -46 96 -46q54 0 92.5 38t58.5 105l-90 18q-21 -58 -58 -58q-21 0 -41 20q-25 25 -44.5 34.5t-44.5 9.5zM244 460q-55 0 -94 -37.5t-59 -106.5l91 -18q20 62 53 62q18 0 40 -22q50 -46 96 -46
q54 0 92.5 38t59.5 106l-91 18q-21 -59 -57 -59q-22 0 -42 21q-25 24 -44.5 34t-44.5 10z" />
    <glyph glyph-name="notequal" unicode="&#x2260;" horiz-adv-x="435" 
d="M196 2h-149l285 546h149zM451 235l-23 -131h-384l23 131h384zM488 446l-23 -130h-383l23 130h383z" />
    <glyph glyph-name="lessequal" unicode="&#x2264;" horiz-adv-x="508" 
d="M480 18l-20 -113h-451l20 113h451zM512 201l-27 -156l-419 148l35 198l471 147l-28 -156l-332 -88z" />
    <glyph glyph-name="greaterequal" unicode="&#x2265;" horiz-adv-x="508" 
d="M480 18l-20 -113h-451l20 113h451zM99 382l28 156l419 -147l-35 -198l-471 -148l27 156l332 88z" />
    <glyph glyph-name="filledbox" unicode="&#x25a0;" horiz-adv-x="820" 
d="M156 700h700l-72 -700h-700z" />
    <glyph glyph-name="H22073" unicode="&#x25a1;" horiz-adv-x="820" 
d="M292 550l-44 -400h400l44 400h-400zM156 700h700l-72 -700h-700z" />
    <glyph glyph-name="H18543" unicode="&#x25aa;" horiz-adv-x="520" 
d="M140 570h400l-40 -400h-400z" />
    <glyph glyph-name="H18551" unicode="&#x25ab;" horiz-adv-x="520" 
d="M261 436l-15 -132h133l15 132h-133zM133 578h416l-42 -416h-416z" />
    <glyph glyph-name="triagup" unicode="&#x25b2;" horiz-adv-x="820" 
d="M506 700l278 -700h-700z" />
    <glyph glyph-name="uni25B3" unicode="&#x25b3;" horiz-adv-x="820" 
d="M506 700l278 -700h-700zM482 449l-200 -332h326z" />
    <glyph glyph-name="uni25B6" unicode="&#x25b6;" horiz-adv-x="820" 
d="M820 350l-736 -350l72 700z" />
    <glyph glyph-name="uni25B7" unicode="&#x25b7;" horiz-adv-x="820" 
d="M820 350l-736 -350l72 700zM569 350l-314 163l-36 -326z" />
    <glyph glyph-name="triagdn" unicode="&#x25bc;" horiz-adv-x="820" 
d="M434 0l-278 700h700z" />
    <glyph glyph-name="uni25BD" unicode="&#x25bd;" horiz-adv-x="820" 
d="M434 0l-278 700h700zM458 251l200 332h-326z" />
    <glyph glyph-name="uni25C0" unicode="&#x25c0;" horiz-adv-x="820" 
d="M120 350l736 350l-72 -700z" />
    <glyph glyph-name="uni25C1" unicode="&#x25c1;" horiz-adv-x="820" 
d="M120 350l736 350l-72 -700zM371 350l314 -163l36 326z" />
    <glyph glyph-name="uni25C6" unicode="&#x25c6;" horiz-adv-x="820" 
d="M113 350l393 357l321 -357l-393 -357z" />
    <glyph glyph-name="uni25C7" unicode="&#x25c7;" horiz-adv-x="820" 
d="M293 350l158 -177l196 177l-158 177zM113 350l393 357l321 -357l-393 -357z" />
    <glyph glyph-name="lozenge" unicode="&#x25ca;" horiz-adv-x="620" 
d="M266 350l84 -178l124 178l-84 178zM113 350l252 357h83l179 -357l-252 -357h-83z" />
    <glyph glyph-name="circle" unicode="&#x25cb;" horiz-adv-x="820" 
d="M449 163q84 0 146.5 62.5t62.5 145.5q0 71 -48 118.5t-119 47.5q-84 0 -146.5 -62.5t-62.5 -145.5q0 -71 48 -118.5t119 -47.5zM111 314q0 103 54.5 194t146 145t194.5 54q137 0 230 -92.5t93 -228.5q0 -103 -54.5 -194t-146 -145t-194.5 -54q-137 0 -230 92.5t-93 228.5
z" />
    <glyph glyph-name="H18533" unicode="&#x25cf;" horiz-adv-x="820" 
d="M111 314q0 103 54.5 194t146 145t194.5 54q137 0 230 -92.5t93 -228.5q0 -103 -54.5 -194t-146 -145t-194.5 -54q-137 0 -230 92.5t-93 228.5z" />
    <glyph glyph-name="zero.dnom" horiz-adv-x="368" 
d="M172 147q-3 -18 6.5 -30t25.5 -12q15 0 28 12t16 30l15 81q3 19 -5.5 31t-24.5 12t-30 -12t-17 -31zM54 139l17 97q11 66 64 109t119 43q65 0 102 -43t25 -109l-17 -97q-12 -66 -64 -108.5t-117 -42.5t-103 42.5t-26 108.5z" />
    <glyph glyph-name="one.dnom" horiz-adv-x="289" 
d="M327 379l-67 -382h-117l44 249l-59 -42l-48 84l128 91h119z" />
    <glyph glyph-name="two.dnom" horiz-adv-x="357" 
d="M371 247q10 60 -26 98.5t-97 38.5q-59 0 -102.5 -32t-68.5 -82l101 -38q16 35 43 35q12 0 18.5 -9t4.5 -22q-2 -12 -17.5 -24t-30 -19t-40.5 -18l-103 -46l-23 -132h298l20 112h-149l39 18q121 51 133 120z" />
    <glyph glyph-name="three.dnom" horiz-adv-x="373" 
d="M275 209l107 47l22 124h-292l-18 -104h181l-81 -41l11 -74q21 0 31 -7.5t8 -20.5q-2 -11 -12.5 -18.5t-24.5 -7.5q-30 0 -31 32l-126 -20q5 -60 43.5 -94.5t101.5 -34.5q64 0 112 33.5t57 84.5q8 44 -17 72t-72 29z" />
    <glyph glyph-name="four.dnom" horiz-adv-x="388" 
d="M171 165h55l14 77zM381 379l-38 -214h46l-17 -96h-46l-12 -72h-117l12 72h-168l20 109l190 201h130z" />
    <glyph glyph-name="five.dnom" horiz-adv-x="368" 
d="M186 229l9 46h178l19 105h-296l-33 -191l110 -35q22 19 43 19q16 0 24.5 -11.5t5.5 -29.5q-3 -16 -15 -25.5t-30 -9.5q-33 0 -35 31l-119 -28q7 -51 44 -81t94 -30q67 0 117 40.5t61 102.5q9 53 -16 89.5t-71 36.5q-48 0 -90 -29z" />
    <glyph glyph-name="six.dnom" horiz-adv-x="370" 
d="M313 263q-15 26 -52 26q-30 0 -54 -25t-35 -67q16 21 41.5 34t52.5 13q46 0 72 -36t17 -87q-10 -57 -58.5 -95t-113.5 -38q-75 0 -107 54q-30 52 -15 136q16 94 74.5 152t136.5 58q48 0 80.5 -22.5t42.5 -62.5zM172 122q-2 -14 7.5 -24t25.5 -10t27.5 8.5t14.5 22.5
q2 14 -7.5 23.5t-25.5 9.5t-27.5 -8.5t-14.5 -21.5z" />
    <glyph glyph-name="seven.dnom" horiz-adv-x="342" 
d="M202 -3l157 264l21 118h-284l-18 -105h171l-171 -277h124z" />
    <glyph glyph-name="eight.dnom" horiz-adv-x="365" 
d="M166.5 116q-2.5 -12 6.5 -20t25 -8t28 8t14.5 20t-7 20.5t-25.5 8.5t-27.5 -8.5t-14 -20.5zM91 278q9 46 55 78t105 32t94 -32t27 -78q-5 -28 -24.5 -50.5t-49.5 -35.5q32 -12 47 -35.5t10 -54.5q-9 -48 -59 -81t-115 -33t-103.5 33t-30.5 81q6 31 29 54.5t60 35.5
q-26 13 -37.5 35.5t-7.5 50.5zM225 237q10 0 18 7.5t10 18.5t-3.5 18t-16 7t-18 -7t-9.5 -18t3.5 -18.5t15.5 -7.5z" />
    <glyph glyph-name="nine.dnom" horiz-adv-x="370" 
d="M124 113q15 -26 53 -26q30 0 53.5 24.5t34.5 67.5q-16 -21 -41.5 -34t-52.5 -13q-46 0 -72 36t-17 87q10 57 59 95t113 38q75 0 107 -54q31 -52 16 -136q-17 -94 -75.5 -152t-136.5 -58q-48 0 -80.5 22.5t-42.5 62.5zM265 254q2 14 -7.5 24t-25.5 10q-15 0 -27 -8.5
t-14 -22.5q-3 -14 6.5 -23.5t25.5 -9.5t28 8.5t14 21.5z" />
    <glyph glyph-name="zero.numr" horiz-adv-x="368" 
d="M227 458q-4 -19 5.5 -31t26.5 -12q15 0 28 12t16 31l14 80q4 19 -4.5 31.5t-24.5 12.5t-30 -12.5t-17 -31.5zM108 449l18 98q11 66 64 109t119 43q64 0 101 -43t26 -109l-17 -98q-12 -65 -64 -108t-117 -43t-103 43t-27 108z" />
    <glyph glyph-name="one.numr" horiz-adv-x="289" 
d="M382 689l-67 -381h-117l44 248l-60 -41l-47 84l127 90h120z" />
    <glyph glyph-name="two.numr" horiz-adv-x="357" 
d="M426 558q10 59 -26 97.5t-97 38.5q-59 0 -102.5 -31.5t-68.5 -81.5l101 -38q15 34 42 34q12 0 19 -8.5t5 -22.5q-3 -11 -18 -23t-29.5 -19.5t-40.5 -18.5l-103 -45l-23 -133h298l20 113h-149l38 17q122 52 134 121z" />
    <glyph glyph-name="three.numr" horiz-adv-x="373" 
d="M329 519l108 47l22 124h-292l-19 -104h182l-81 -41l10 -74q21 0 31.5 -7.5t7.5 -19.5q-2 -12 -12 -19t-24 -7q-30 0 -31 31l-126 -20q5 -59 43.5 -93.5t100.5 -34.5q65 0 113 33t57 84q8 44 -17 72t-73 29z" />
    <glyph glyph-name="four.numr" horiz-adv-x="388" 
d="M226 476h55l14 77zM436 689l-38 -213h45l-17 -97h-45l-13 -71h-116l12 71h-168l19 110l190 200h131z" />
    <glyph glyph-name="five.numr" horiz-adv-x="368" 
d="M241 540l8 46h179l18 104h-295l-34 -190l111 -35q21 18 43 18q16 0 24.5 -11.5t5.5 -29.5q-3 -15 -15.5 -24.5t-29.5 -9.5q-33 0 -35 31l-119 -29q6 -51 43.5 -80.5t94.5 -29.5q66 0 116 40t61 102q10 53 -15 89.5t-71 36.5q-49 0 -90 -28z" />
    <glyph glyph-name="six.numr" horiz-adv-x="370" 
d="M368 573q-15 26 -52 26q-31 0 -54.5 -24.5t-34.5 -66.5q16 21 41.5 33.5t52.5 12.5q46 0 72 -35.5t17 -86.5q-10 -58 -59 -96t-113 -38q-75 0 -107 55q-31 51 -16 136q17 93 75.5 151.5t136.5 58.5q48 0 80.5 -22.5t42.5 -62.5zM227 432q-2 -14 7.5 -23.5t25.5 -9.5
t27.5 8.5t13.5 21.5q3 15 -6.5 24t-25.5 9t-27.5 -8t-14.5 -22z" />
    <glyph glyph-name="seven.numr" horiz-adv-x="342" 
d="M257 308l157 264l21 117h-284l-19 -104h172l-172 -277h125z" />
    <glyph glyph-name="eight.numr" horiz-adv-x="365" 
d="M221 427q-2 -12 7 -20t25 -8t28 8t14 20t-7 20t-25 8t-28 -8t-14 -20zM146 588q8 47 54.5 79t105.5 32t94 -32t27 -79q-5 -28 -24.5 -50.5t-50.5 -34.5q33 -12 48 -36t9 -54q-8 -49 -58 -82t-115 -33t-104 33t-30 82q5 30 28.5 54t60.5 36q-26 12 -38 34.5t-7 50.5z
M279.5 547q9.5 0 18 8t10.5 19t-3.5 18t-16 7t-18.5 -7t-10 -18q-1 -11 4.5 -19t15 -8z" />
    <glyph glyph-name="nine.numr" horiz-adv-x="370" 
d="M179 424q15 -26 52 -26q31 0 54.5 24.5t34.5 66.5q-16 -21 -41.5 -33.5t-52.5 -12.5q-46 0 -72 35.5t-17 86.5q10 58 59 96t113 38q75 0 107 -54q30 -52 15 -137q-16 -93 -74.5 -151.5t-136.5 -58.5q-48 0 -80.5 22.5t-42.5 63.5zM320 565q2 14 -7.5 24t-25.5 10
t-27.5 -9t-13.5 -22q-3 -15 6.5 -24t25.5 -9t27.5 8.5t14.5 21.5z" />
    <glyph glyph-name="zero.tabl" horiz-adv-x="610" 
d="M497 420q0 65 -29 106t-74 41q-50 0 -89.5 -48t-51.5 -122l-13 -70q-4 -19 -4 -48q0 -65 28.5 -106t73.5 -41q50 0 90 48t51 122l14 70q4 24 4 48zM326 -18q-105 0 -173 79.5t-68 203.5q0 42 7 75l13 70q22 134 107.5 220.5t193.5 86.5q106 0 174 -79.5t68 -203.5
q0 -47 -10 -84l-10 -61q-23 -134 -108.5 -220.5t-193.5 -86.5z" />
    <glyph glyph-name="one.tabl" horiz-adv-x="610" 
d="M592 147l-26 -147h-522l26 147h199l68 383l-150 -99l-62 121l232 148h160l-98 -553h173z" />
    <glyph glyph-name="two.tabl" horiz-adv-x="610" 
d="M486 248q175 104 175 251q0 94 -66 153t-170 59q-96 0 -175.5 -57t-129.5 -161l139 -50q52 118 149 118q44 0 72.5 -25t28.5 -65q0 -37 -39 -69.5t-133 -84.5l-265 -146l-30 -171h536l25 147h-296z" />
    <glyph glyph-name="three.tabl" horiz-adv-x="610" 
d="M324 -11q134 0 215 76.5t81 191.5q0 66 -41 110.5t-112 54.5l204 107l22 171h-536l-17 -147h358l-195 -115l7 -104q74 0 116 -24.5t42 -67.5q0 -46 -38.5 -74.5t-100.5 -28.5q-51 0 -81.5 24t-34.5 66l-148 -49q12 -88 81.5 -139.5t177.5 -51.5z" />
    <glyph glyph-name="four.tabl" horiz-adv-x="610" 
d="M252 320h137l33 178zM607 700l-67 -380h83l-26 -147h-83l-31 -173h-150l31 173h-305l29 165l350 362h169z" />
    <glyph glyph-name="five.tabl" horiz-adv-x="610" 
d="M318 -11q128 0 212 86.5t84 213.5q0 85 -48 139t-124 54q-89 0 -172 -55l23 126h361l17 147h-503l-65 -370l144 -37q60 49 125 49q40 0 64.5 -23t24.5 -59q0 -51 -38.5 -86t-95.5 -35q-46 0 -74 21.5t-31 59.5l-157 -48q13 -85 80.5 -134t172.5 -49z" />
    <glyph glyph-name="six.tabl" horiz-adv-x="610" 
d="M86 240q0 129 48.5 238t132 172t182.5 63q78 0 140 -33.5t88 -91.5l-103 -101q-18 35 -57.5 56t-87.5 21q-61 0 -108 -46t-66 -125q28 39 72 61t94 22q88 0 146 -61.5t58 -155.5q0 -116 -82 -197t-200.5 -81t-187.5 70t-69 189zM358 330q-51 0 -85.5 -28.5t-34.5 -70.5
q0 -41 34.5 -70.5t84 -29.5t83 31.5t33.5 75.5q0 41 -32 66.5t-83 25.5z" />
    <glyph glyph-name="seven.tabl" horiz-adv-x="610" 
d="M376 0l303 543l19 157h-547l-17 -148h368l-313 -552h187z" />
    <glyph glyph-name="eight.tabl" horiz-adv-x="610" 
d="M336 289q-49 0 -81.5 -23t-32.5 -57q0 -33 34.5 -55t85.5 -22q49 0 81 22t32 55q0 34 -34.5 57t-84.5 23zM146 513q0 86 72.5 145.5t178.5 59.5q104 0 173.5 -54t69.5 -134q0 -59 -36.5 -108.5t-97.5 -73.5q45 -25 70 -66t25 -89q0 -90 -77 -150.5t-192 -60.5
q-113 0 -189 56.5t-76 140.5q0 64 43.5 117.5t113.5 77.5q-37 24 -57.5 60.5t-20.5 78.5zM292 498q0 -28 28 -47.5t70 -19.5q41 0 68.5 19.5t27.5 49.5q0 28 -28.5 48t-69.5 20t-68.5 -20.5t-27.5 -49.5z" />
    <glyph glyph-name="nine.tabl" horiz-adv-x="610" 
d="M653 459q0 -129 -48.5 -238t-132.5 -172t-183 -63q-78 0 -139.5 33.5t-88.5 91.5l103 101q19 -35 58 -56t87 -21q61 0 108 46t67 125q-29 -39 -73 -61t-93 -22q-88 0 -146.5 61.5t-58.5 155.5q0 116 82 197t200.5 81t188 -70t69.5 -189zM380 369q52 0 86.5 28.5
t34.5 70.5q0 41 -35 70.5t-84 29.5t-83 -31.5t-34 -75.5q0 -41 32.5 -66.5t82.5 -25.5z" />
    <glyph glyph-name="zero.slsh" horiz-adv-x="648" 
d="M536 411q0 70 -34 113t-88 43q-57 0 -103.5 -50.5t-59.5 -128.5l-9 -53q-5 -20 -5 -47q0 -70 34 -113t88 -43q57 0 103.5 50.5t60.5 128.5l9 53q4 25 4 47zM346 -18q-113 0 -186.5 82t-73.5 210q0 41 7 75l9 53q24 137 116 226t209 89q114 0 187 -82t73 -210
q0 -41 -7 -75l-9 -53q-24 -137 -116 -226t-209 -89zM117 181l444 444l77 -128l-434 -435z" />
    <glyph glyph-name="a.ss01" horiz-adv-x="638" 
d="M593 0h-151l86 500h151zM349 124q58 0 98 41.5t40 98.5q0 50 -33.5 82.5t-84.5 32.5q-58 0 -98 -41.5t-40 -99.5q0 -49 33.5 -81.5t84.5 -32.5zM539 297q0 -80 -33 -151t-92.5 -115t-129.5 -44q-88 0 -146.5 64.5t-58.5 165.5q0 80 35 150.5t95.5 113.5t131.5 43
q88 0 143 -63.5t55 -163.5z" />
    <glyph glyph-name="agrave.ss01" horiz-adv-x="638" 
d="M257 720l76 83l158 -157l-72 -78zM593 0h-151l86 500h151zM349 124q58 0 98 41.5t40 98.5q0 50 -33.5 82.5t-84.5 32.5q-58 0 -98 -41.5t-40 -99.5q0 -49 33.5 -81.5t84.5 -32.5zM539 297q0 -80 -33 -151t-92.5 -115t-129.5 -44q-88 0 -146.5 64.5t-58.5 165.5
q0 80 35 150.5t95.5 113.5t131.5 43q88 0 143 -63.5t55 -163.5z" />
    <glyph glyph-name="aacute.ss01" horiz-adv-x="638" 
d="M582 689l-59 95l-194 -127l57 -89zM593 0h-151l86 500h151zM349 124q58 0 98 41.5t40 98.5q0 50 -33.5 82.5t-84.5 32.5q-58 0 -98 -41.5t-40 -99.5q0 -49 33.5 -81.5t84.5 -32.5zM539 297q0 -80 -33 -151t-92.5 -115t-129.5 -44q-88 0 -146.5 64.5t-58.5 165.5
q0 80 35 150.5t95.5 113.5t131.5 43q88 0 143 -63.5t55 -163.5z" />
    <glyph glyph-name="acircumflex.ss01" horiz-adv-x="638" 
d="M425 784l-215 -131l44 -94l172 110l137 -117l69 84l-171 145zM593 0h-151l86 500h151zM349 124q58 0 98 41.5t40 98.5q0 50 -33.5 82.5t-84.5 32.5q-58 0 -98 -41.5t-40 -99.5q0 -49 33.5 -81.5t84.5 -32.5zM539 297q0 -80 -33 -151t-92.5 -115t-129.5 -44
q-88 0 -146.5 64.5t-58.5 165.5q0 80 35 150.5t95.5 113.5t131.5 43q88 0 143 -63.5t55 -163.5z" />
    <glyph glyph-name="atilde.ss01" horiz-adv-x="638" 
d="M347 735q-106 0 -149 -143l95 -18q20 62 53 62q17 0 40 -22q50 -46 96 -46q104 0 147 143l-94 18q-21 -58 -58 -58q-21 0 -41 20q-25 25 -44.5 34.5t-44.5 9.5zM593 0h-151l86 500h151zM349 124q58 0 98 41.5t40 98.5q0 50 -33.5 82.5t-84.5 32.5q-58 0 -98 -41.5
t-40 -99.5q0 -49 33.5 -81.5t84.5 -32.5zM539 297q0 -80 -33 -151t-92.5 -115t-129.5 -44q-88 0 -146.5 64.5t-58.5 165.5q0 80 35 150.5t95.5 113.5t131.5 43q88 0 143 -63.5t55 -163.5z" />
    <glyph glyph-name="adieresis.ss01" horiz-adv-x="638" 
d="M436 657q0 38 26 63.5t63.5 25.5t63.5 -25.5t26 -63.5t-26 -63.5t-63.5 -25.5t-63.5 25.5t-26 63.5zM189 657q0 38 26 63.5t63.5 25.5t63.5 -25.5t26 -63.5t-26 -63.5t-63.5 -25.5t-63.5 25.5t-26 63.5zM593 0h-151l86 500h151zM349 124q58 0 98 41.5t40 98.5
q0 50 -33.5 82.5t-84.5 32.5q-58 0 -98 -41.5t-40 -99.5q0 -49 33.5 -81.5t84.5 -32.5zM539 297q0 -80 -33 -151t-92.5 -115t-129.5 -44q-88 0 -146.5 64.5t-58.5 165.5q0 80 35 150.5t95.5 113.5t131.5 43q88 0 143 -63.5t55 -163.5z" />
    <glyph glyph-name="aring.ss01" horiz-adv-x="638" 
d="M417 761q-22 0 -37.5 -15.5t-15.5 -38.5q0 -19 13 -31.5t33 -12.5q22 0 37.5 16t15.5 39q0 19 -13 31t-33 12zM268 698q0 65 46 112t111 47q57 0 95.5 -36.5t38.5 -93.5q0 -65 -46 -112t-111 -47q-57 0 -95.5 36.5t-38.5 93.5zM593 0h-151l86 500h151zM349 124
q58 0 98 41.5t40 98.5q0 50 -33.5 82.5t-84.5 32.5q-58 0 -98 -41.5t-40 -99.5q0 -49 33.5 -81.5t84.5 -32.5zM539 297q0 -80 -33 -151t-92.5 -115t-129.5 -44q-88 0 -146.5 64.5t-58.5 165.5q0 80 35 150.5t95.5 113.5t131.5 43q88 0 143 -63.5t55 -163.5z" />
    <glyph glyph-name="ae.ss01" horiz-adv-x="1032" 
d="M882 325q-8 26 -34.5 41.5t-62.5 15.5q-39 0 -71 -18.5t-48 -51.5h219q-2 8 -3 13zM1031 276q0 -34 -10 -76h-367q6 -36 37.5 -58t75.5 -22q36 0 66 15t48 43l122 -80q-77 -116 -207 -116q-103 0 -170.5 70.5t-67.5 179.5q0 118 75.5 203t181.5 85q93 0 154.5 -69.5
t61.5 -174.5zM576 0h-134l86 500h134zM348 124q58 0 98.5 41t40.5 98q0 51 -33.5 83.5t-83.5 32.5q-58 0 -98.5 -41t-40.5 -99q0 -50 33.5 -82.5t83.5 -32.5zM539 294q0 -81 -34.5 -152t-94 -113t-128.5 -42q-87 0 -145 65t-58 168q0 80 35.5 150.5t96.5 112t131 41.5
q87 0 142 -64t55 -166z" />
    <glyph glyph-name="amacron.ss01" horiz-adv-x="638" 
d="M588 692l-20 -114h-342l20 114h342zM593 0h-151l86 500h151zM349 124q58 0 98 41.5t40 98.5q0 50 -33.5 82.5t-84.5 32.5q-58 0 -98 -41.5t-40 -99.5q0 -49 33.5 -81.5t84.5 -32.5zM539 297q0 -80 -33 -151t-92.5 -115t-129.5 -44q-88 0 -146.5 64.5t-58.5 165.5
q0 80 35 150.5t95.5 113.5t131.5 43q88 0 143 -63.5t55 -163.5z" />
    <glyph glyph-name="abreve.ss01" horiz-adv-x="638" 
d="M406 571q-75 0 -123 43.5t-48 109.5q0 15 3 30h107q-2 -7 -2 -14q0 -29 20.5 -47.5t54.5 -18.5q39 0 70 23.5t37 56.5h121q-13 -73 -84.5 -128t-155.5 -55zM593 0h-151l86 500h151zM349 124q58 0 98 41.5t40 98.5q0 50 -33.5 82.5t-84.5 32.5q-58 0 -98 -41.5t-40 -99.5
q0 -49 33.5 -81.5t84.5 -32.5zM539 297q0 -80 -33 -151t-92.5 -115t-129.5 -44q-88 0 -146.5 64.5t-58.5 165.5q0 80 35 150.5t95.5 113.5t131.5 43q88 0 143 -63.5t55 -163.5z" />
    <glyph glyph-name="aogonek.ss01" horiz-adv-x="638" 
d="M453 -301q-59 0 -97 33t-38 83q0 48 24.5 81t82.5 64l29 15l6 33h105l-12 -67l-73 -40q-53 -26 -53 -65q0 -15 9 -23.5t24 -8.5q29 0 41 29l97 -28q-22 -50 -60.5 -78t-84.5 -28zM593 0h-151l86 500h151zM349 124q58 0 98 41.5t40 98.5q0 50 -33.5 82.5t-84.5 32.5
q-58 0 -98 -41.5t-40 -99.5q0 -49 33.5 -81.5t84.5 -32.5zM539 297q0 -80 -33 -151t-92.5 -115t-129.5 -44q-88 0 -146.5 64.5t-58.5 165.5q0 80 35 150.5t95.5 113.5t131.5 43q88 0 143 -63.5t55 -163.5z" />
    <glyph glyph-name="uni1EA1.ss01" horiz-adv-x="638" 
d="M206 -155q0 38 25.5 63.5t63.5 25.5t63.5 -25.5t25.5 -63.5t-25.5 -63.5t-63.5 -25.5t-63.5 25.5t-25.5 63.5zM593 0h-151l86 500h151zM349 124q58 0 98 41.5t40 98.5q0 50 -33.5 82.5t-84.5 32.5q-58 0 -98 -41.5t-40 -99.5q0 -49 33.5 -81.5t84.5 -32.5zM539 297
q0 -80 -33 -151t-92.5 -115t-129.5 -44q-88 0 -146.5 64.5t-58.5 165.5q0 80 35 150.5t95.5 113.5t131.5 43q88 0 143 -63.5t55 -163.5z" />
    <glyph glyph-name="uni1EA3.ss01" horiz-adv-x="638" 
d="M427 868q59 0 96 -35t37 -91q0 -51 -26 -86.5t-87 -72.5l-47 -25l-44 86l62 31q42 20 42 56q0 18 -12 29t-31 11q-33 0 -46 -32l-88 31q21 46 59 72t85 26zM593 0h-151l86 500h151zM349 124q58 0 98 41.5t40 98.5q0 50 -33.5 82.5t-84.5 32.5q-58 0 -98 -41.5t-40 -99.5
q0 -49 33.5 -81.5t84.5 -32.5zM539 297q0 -80 -33 -151t-92.5 -115t-129.5 -44q-88 0 -146.5 64.5t-58.5 165.5q0 80 35 150.5t95.5 113.5t131.5 43q88 0 143 -63.5t55 -163.5z" />
    <glyph glyph-name="uni1EA5.ss01" horiz-adv-x="638" 
d="M836 855l-59 95l-194 -127l57 -89zM425 784l-215 -131l44 -94l172 110l137 -117l69 84l-171 145zM593 0h-151l86 500h151zM349 124q58 0 98 41.5t40 98.5q0 50 -33.5 82.5t-84.5 32.5q-58 0 -98 -41.5t-40 -99.5q0 -49 33.5 -81.5t84.5 -32.5zM539 297q0 -80 -33 -151
t-92.5 -115t-129.5 -44q-88 0 -146.5 64.5t-58.5 165.5q0 80 35 150.5t95.5 113.5t131.5 43q88 0 143 -63.5t55 -163.5z" />
    <glyph glyph-name="uni1EA7.ss01" horiz-adv-x="638" 
d="M511 886l76 83l158 -157l-72 -78zM425 784l-215 -131l44 -94l172 110l137 -117l69 84l-171 145zM593 0h-151l86 500h151zM349 124q58 0 98 41.5t40 98.5q0 50 -33.5 82.5t-84.5 32.5q-58 0 -98 -41.5t-40 -99.5q0 -49 33.5 -81.5t84.5 -32.5zM539 297q0 -80 -33 -151
t-92.5 -115t-129.5 -44q-88 0 -146.5 64.5t-58.5 165.5q0 80 35 150.5t95.5 113.5t131.5 43q88 0 143 -63.5t55 -163.5z" />
    <glyph glyph-name="uni1EA9.ss01" horiz-adv-x="638" 
d="M681 1034q59 0 96 -35t37 -91q0 -51 -26 -86.5t-87 -72.5l-47 -25l-44 86l62 31q42 20 42 56q0 18 -12 29t-31 11q-33 0 -46 -32l-88 31q21 46 59 72t85 26zM425 784l-215 -131l44 -94l172 110l137 -117l69 84l-171 145zM593 0h-151l86 500h151zM349 124q58 0 98 41.5
t40 98.5q0 50 -33.5 82.5t-84.5 32.5q-58 0 -98 -41.5t-40 -99.5q0 -49 33.5 -81.5t84.5 -32.5zM539 297q0 -80 -33 -151t-92.5 -115t-129.5 -44q-88 0 -146.5 64.5t-58.5 165.5q0 80 35 150.5t95.5 113.5t131.5 43q88 0 143 -63.5t55 -163.5z" />
    <glyph glyph-name="uni1EAB.ss01" horiz-adv-x="638" 
d="M397 976q-106 0 -149 -143l95 -18q20 62 53 62q17 0 40 -22q50 -46 96 -46q104 0 147 143l-94 18q-21 -58 -58 -58q-21 0 -41 20q-25 25 -44.5 34.5t-44.5 9.5zM425 784l-215 -131l44 -94l172 110l137 -117l69 84l-171 145zM593 0h-151l86 500h151zM349 124q58 0 98 41.5
t40 98.5q0 50 -33.5 82.5t-84.5 32.5q-58 0 -98 -41.5t-40 -99.5q0 -49 33.5 -81.5t84.5 -32.5zM539 297q0 -80 -33 -151t-92.5 -115t-129.5 -44q-88 0 -146.5 64.5t-58.5 165.5q0 80 35 150.5t95.5 113.5t131.5 43q88 0 143 -63.5t55 -163.5z" />
    <glyph glyph-name="uni1EAD.ss01" horiz-adv-x="638" 
d="M427 784l-215 -131l44 -94l172 110l137 -117l69 84l-171 145zM206 -155q0 38 25.5 63.5t63.5 25.5t63.5 -25.5t25.5 -63.5t-25.5 -63.5t-63.5 -25.5t-63.5 25.5t-25.5 63.5zM593 0h-151l86 500h151zM349 124q58 0 98 41.5t40 98.5q0 50 -33.5 82.5t-84.5 32.5
q-58 0 -98 -41.5t-40 -99.5q0 -49 33.5 -81.5t84.5 -32.5zM539 297q0 -80 -33 -151t-92.5 -115t-129.5 -44q-88 0 -146.5 64.5t-58.5 165.5q0 80 35 150.5t95.5 113.5t131.5 43q88 0 143 -63.5t55 -163.5z" />
    <glyph glyph-name="uni1EAF.ss01" horiz-adv-x="638" 
d="M612 900l-59 95l-194 -127l57 -89zM406 571q-75 0 -123 43.5t-48 109.5q0 15 3 30h107q-2 -7 -2 -14q0 -29 20.5 -47.5t54.5 -18.5q39 0 70 23.5t37 56.5h121q-13 -73 -84.5 -128t-155.5 -55zM593 0h-151l86 500h151zM349 124q58 0 98 41.5t40 98.5q0 50 -33.5 82.5
t-84.5 32.5q-58 0 -98 -41.5t-40 -99.5q0 -49 33.5 -81.5t84.5 -32.5zM539 297q0 -80 -33 -151t-92.5 -115t-129.5 -44q-88 0 -146.5 64.5t-58.5 165.5q0 80 35 150.5t95.5 113.5t131.5 43q88 0 143 -63.5t55 -163.5z" />
    <glyph glyph-name="uni1EB1.ss01" horiz-adv-x="638" 
d="M287 931l76 83l158 -157l-72 -78zM406 571q-75 0 -123 43.5t-48 109.5q0 15 3 30h107q-2 -7 -2 -14q0 -29 20.5 -47.5t54.5 -18.5q39 0 70 23.5t37 56.5h121q-13 -73 -84.5 -128t-155.5 -55zM593 0h-151l86 500h151zM349 124q58 0 98 41.5t40 98.5q0 50 -33.5 82.5
t-84.5 32.5q-58 0 -98 -41.5t-40 -99.5q0 -49 33.5 -81.5t84.5 -32.5zM539 297q0 -80 -33 -151t-92.5 -115t-129.5 -44q-88 0 -146.5 64.5t-58.5 165.5q0 80 35 150.5t95.5 113.5t131.5 43q88 0 143 -63.5t55 -163.5z" />
    </font>
</defs>
</svg>
