<?xml version="1.0" standalone="no"?>
<!DOCTYPE svg PUBLIC "-//W3C//DTD SVG 1.1//EN" "http://www.w3.org/Graphics/SVG/1.1/DTD/svg11.dtd" >
<svg xmlns="http://www.w3.org/2000/svg" xmlns:xlink="http://www.w3.org/1999/xlink" version="1.1">
<metadata>
Created by FontForge 20201107 at Wed Jan 18 09:20:16 2023
 By 
Copyright (c) 2022, RandomMaerks (Bao Nguyen) || For more information, send an email to rmforbusuness@gmail.com
</metadata>
<defs>
<font id="Cygre-RegularIt" horiz-adv-x="788" >
  <font-face 
    font-family="Cygre"
    font-weight="400"
    font-style="italic"
    font-stretch="normal"
    units-per-em="1000"
    panose-1="2 0 5 3 0 0 0 0 0 0"
    ascent="800"
    descent="-200"
    x-height="500"
    cap-height="700"
    bbox="-146 -270 1289 1222"
    underline-thickness="50"
    underline-position="-100"
    unicode-range="U+0020-25CF"
  />
<missing-glyph horiz-adv-x="364" 
d="M33 0v666h265v-666h-265zM66 33h199v600h-199v-600z" />
    <glyph glyph-name="f_i" unicode="fi" horiz-adv-x="585" 
d="M424 673q-37 0 -63 -27.5t-34 -70.5l-13 -75h224l-13 -74h-224l-75 -426h-80l74 426h-115l13 74h115l18 100q10 60 60 105t111 45h77l-13 -77h-62zM552 636q0 23 15.5 38.5t38 15.5t38.5 -15.5t16 -38.5t-16 -38.5t-38.5 -15.5t-38 15.5t-15.5 38.5zM449 0l89 500h81
l-89 -500h-81z" />
    <glyph glyph-name="f_l" unicode="fl" horiz-adv-x="609" 
d="M424 673q-37 0 -63 -27.5t-34 -70.5l-13 -75h162l-13 -74h-162l-75 -426h-80l74 426h-115l13 74h115l18 100q10 60 60 105t111 45h181l-13 -77h-166zM471 0l132 750h81l-132 -750h-81z" />
    <glyph glyph-name="f_f_i" unicode="ffi" horiz-adv-x="935" 
d="M424 673q-37 0 -63 -27.5t-34 -70.5l-13 -75h162l-12 -74h-163l-75 -426h-80l74 426h-115l13 74h115l18 100q10 60 60 105t111 45h77l-13 -77h-62zM768 673q-38 0 -64 -27.5t-34 -70.5l-13 -75h231l-13 -74h-231l-74 -426h-81l75 426h-100l12 74h101l17 100q11 60 61 105
t111 45h76l-13 -77h-61zM902 636q0 23 15.5 38.5t38 15.5t38.5 -15.5t16 -38.5t-16 -38.5t-38.5 -15.5t-38 15.5t-15.5 38.5zM799 0l89 500h81l-89 -500h-81z" />
    <glyph glyph-name="f_f_l" unicode="ffl" horiz-adv-x="937" 
d="M424 673q-37 0 -63 -27.5t-34 -70.5l-13 -75h162l-12 -74h-163l-75 -426h-80l74 426h-115l13 74h115l18 100q10 60 60 105t111 45h77l-13 -77h-62zM752 673q-37 0 -63 -27.5t-34 -70.5l-13 -75h163l-13 -74h-163l-74 -426h-81l75 426h-85l12 74h86l17 100q11 60 61 105
t110 45h181l-13 -77h-166zM799 0l132 750h81l-132 -750h-81z" />
    <glyph glyph-name="f_f" unicode="ff" horiz-adv-x="749" 
d="M424 673q-37 0 -63 -27.5t-34 -70.5l-13 -75h162l-12 -74h-163l-75 -426h-80l74 426h-115l13 74h115l18 100q10 60 60 105t111 45h77l-13 -77h-62zM759 673q-37 0 -63 -27.5t-34 -70.5l-13 -75h162l-13 -74h-162l-75 -426h-80l74 426h-91l12 74h92l18 100q10 60 60 105
t111 45h77l-13 -77h-62z" />
    <glyph glyph-name=".notdef" horiz-adv-x="364" 
d="M33 0v666h265v-666h-265zM66 33h199v600h-199v-600z" />
    <glyph glyph-name=".null" horiz-adv-x="0" 
 />
    <glyph glyph-name="nonmarkingreturn" horiz-adv-x="333" 
 />
    <glyph glyph-name="space" unicode=" " horiz-adv-x="270" 
 />
    <glyph glyph-name="exclam" unicode="!" horiz-adv-x="194" 
d="M45 52q0 27 18 45.5t45 18.5q28 0 46.5 -18.5t18.5 -45.5q0 -28 -18.5 -46t-45.5 -18t-45.5 18t-18.5 46zM170 198h-76l83 502h87z" />
    <glyph glyph-name="quotedbl" unicode="&#x22;" horiz-adv-x="329" 
d="M357 758l71 -27l-99 -223l-65 25zM220 758l70 -27l-98 -223l-66 25z" />
    <glyph glyph-name="numbersign" unicode="#" horiz-adv-x="686" 
d="M748 510l-14 -77h-629l14 77h629zM709 290l-14 -77h-629l14 77h629zM378 0h-89l403 700h89zM118 0h-89l403 700h89z" />
    <glyph glyph-name="dollar" unicode="$" horiz-adv-x="449" 
d="M286 163q45 0 74.5 22t29.5 54q0 51 -111 82q-160 43 -160 139q0 65 52 111.5t129 46.5q74 0 128.5 -43.5t68.5 -114.5l-79 -18q-9 46 -40 74.5t-79 28.5q-41 0 -70.5 -22t-29.5 -53q0 -25 24.5 -43t78.5 -33q169 -46 169 -147q0 -64 -55 -109.5t-136 -45.5
q-78 0 -137.5 42t-75.5 110l76 22q11 -44 50 -73.5t93 -29.5zM290 588l21 112h75l-21 -112h-75zM211 128h75l-24 -128h-75z" />
    <glyph glyph-name="percent" unicode="%" horiz-adv-x="877" 
d="M707 267q-48 0 -81.5 -35t-33.5 -83q0 -42 28 -69t70 -27q49 0 82.5 35t33.5 83q0 42 -28.5 69t-70.5 27zM516 141q0 83 58 142t139 59q72 0 120 -46t48 -117q0 -83 -57.5 -142t-139.5 -59q-72 0 -120 46t-48 117zM306 644q-49 0 -82.5 -35t-33.5 -83q0 -42 28.5 -69
t70.5 -27q48 0 81.5 35t33.5 83q0 42 -28 69t-70 27zM115 518q0 83 57.5 142t139.5 59q72 0 120 -46t48 -117q0 -83 -58 -142t-139 -59q-72 0 -120 46t-48 117zM341 0h-93l411 700h93z" />
    <glyph glyph-name="ampersand" unicode="&#x26;" horiz-adv-x="655" 
d="M358 653q35 0 56.5 -19t21.5 -50q0 -60 -74 -112l-61 -42l-20 34q-31 53 -31 82q0 43 32 75t76 32zM513 594q0 58 -41.5 95.5t-106.5 37.5q-78 0 -134.5 -54.5t-56.5 -128.5q0 -62 45 -125l23 -34l-76 -57q-43 -30 -66.5 -72.5t-23.5 -89.5q0 -76 56 -126t141 -50
q75 0 131 46l64 52l86 -122l62 46l-85 122l117 90l-45 60l-115 -89l-142 182l63 43q47 31 75.5 78.5t28.5 95.5zM275 70q-49 0 -82 30t-33 76q0 59 58 103l66 51l140 -181l-58 -47q-41 -32 -91 -32z" />
    <glyph glyph-name="quotesingle" unicode="'" horiz-adv-x="191" 
d="M220 758l70 -27l-98 -223l-66 25z" />
    <glyph glyph-name="parenleft" unicode="(" horiz-adv-x="282" 
d="M88 270l37 212q18 107 80 182t143 95l19 -80q-59 -14 -104.5 -71t-59.5 -140l-35 -202q-6 -32 -6 -60q0 -66 27 -113.5t73 -62.5l-42 -72q-64 25 -101.5 88.5t-37.5 149.5q0 37 7 74z" />
    <glyph glyph-name="parenright" unicode=")" horiz-adv-x="282" 
d="M323 446l-37 -212q-19 -107 -80.5 -182t-143.5 -95l-18 80q59 13 104 70t60 140l35 203q5 31 5 59q0 67 -27 114t-73 63l43 72q64 -25 101 -88.5t37 -149.5q0 -38 -6 -74z" />
    <glyph glyph-name="asterisk" unicode="*" horiz-adv-x="487" 
d="M349 803l75 -13l-32 -162l164 26l10 -76l-164 -20l75 -147l-68 -34l-70 150l-117 -117l-53 55l121 113l-147 75l35 68l144 -81z" />
    <glyph glyph-name="plus" unicode="+" horiz-adv-x="377" 
d="M227 426h74l-21 -124h122l-13 -72h-122l-22 -124h-74l22 124h-124l13 72h123z" />
    <glyph glyph-name="comma" unicode="," horiz-adv-x="197" 
d="M94 107l77 -24l-102 -238l-64 20z" />
    <glyph glyph-name="hyphen" unicode="-" horiz-adv-x="377" 
d="M402 302l-13 -72h-320l13 72h320z" />
    <glyph glyph-name="period" unicode="." horiz-adv-x="197" 
d="M45 52q0 27 18 45.5t45 18.5q28 0 46.5 -18.5t18.5 -45.5q0 -28 -18.5 -46t-45.5 -18t-45.5 18t-18.5 46z" />
    <glyph glyph-name="slash" unicode="/" horiz-adv-x="427" 
d="M126 0h-97l396 700h96z" />
    <glyph glyph-name="zero" unicode="0" horiz-adv-x="648" 
d="M600 420q0 96 -51 156.5t-129 60.5q-82 0 -148.5 -67.5t-85.5 -175.5l-9 -53q-6 -31 -6 -62q0 -96 51 -156.5t129 -60.5q82 0 148.5 67.5t85.5 175.5l9 53q6 33 6 62zM344 -18q-110 0 -181.5 81t-71.5 209q0 40 7 76l9 53q24 140 115.5 228t204.5 88q110 0 181.5 -81
t71.5 -209q0 -39 -7 -76l-9 -53q-24 -140 -115.5 -228t-204.5 -88z" />
    <glyph glyph-name="one" unicode="1" horiz-adv-x="371" 
d="M434 700l-123 -700h-80l107 608l-177 -111l-37 65l223 138h87z" />
    <glyph glyph-name="two" unicode="2" horiz-adv-x="571" 
d="M381 631q68 0 112 -40.5t44 -102.5q0 -54 -36 -92.5t-148 -111.5l-291 -187l-14 -97h491l8 80h-377l236 149q113 67 162 127t49 140q0 92 -65 153t-164 61q-83 0 -150 -47.5t-108 -131.5l72 -31q64 131 179 131z" />
    <glyph glyph-name="three" unicode="3" horiz-adv-x="571" 
d="M310 -11q113 0 186.5 69t73.5 174q0 73 -42.5 123t-118.5 67l229 181l14 97h-487l-10 -80h397l-250 -189l15 -59q82 -7 127 -45.5t45 -101.5q0 -69 -48 -112.5t-125 -43.5q-73 0 -118.5 39.5t-49.5 106.5l-78 -18q9 -96 74 -152t166 -56z" />
    <glyph glyph-name="four" unicode="4" horiz-adv-x="594" 
d="M167 285h259l58 312zM579 700l-73 -415h112l-14 -77h-112l-36 -208h-80l36 208h-342l13 94l399 398h97z" />
    <glyph glyph-name="five" unicode="5" horiz-adv-x="571" 
d="M577 263q0 97 -56.5 160t-142.5 63q-93 0 -176 -63l36 197h388l9 80h-465l-57 -327l75 -31q80 69 166 69q64 0 103.5 -41t39.5 -107q0 -83 -52 -138t-131 -55q-70 0 -113.5 38.5t-47.5 103.5l-81 -18q10 -93 74.5 -149t162.5 -56q113 0 190.5 79t77.5 195z" />
    <glyph glyph-name="six" unicode="6" horiz-adv-x="610" 
d="M87 239q0 131 48 240t130.5 171.5t180.5 62.5q76 0 135.5 -33.5t85.5 -90.5l-62 -51q-22 44 -68 69.5t-103 25.5q-88 0 -155.5 -69t-96.5 -188q35 47 91 74.5t118 27.5q97 0 160 -62.5t63 -159.5q0 -115 -80.5 -195t-196.5 -80t-183 69.5t-67 188.5zM361 400
q-81 0 -136.5 -50.5t-55.5 -124.5q0 -69 51 -116.5t126 -47.5q78 0 133 54.5t55 131.5q0 68 -48.5 110.5t-124.5 42.5z" />
    <glyph glyph-name="seven" unicode="7" horiz-adv-x="520" 
d="M257 0l347 613l13 87h-462l-10 -79h371l-358 -621h99z" />
    <glyph glyph-name="eight" unicode="8" horiz-adv-x="598" 
d="M333 324q-78 0 -130 -40t-52 -96q0 -54 53.5 -90t130.5 -36q75 0 126.5 36.5t51.5 95.5q0 56 -52.5 93t-127.5 37zM150 516q0 83 70.5 142.5t175.5 59.5q100 0 168 -53t68 -133q0 -60 -42.5 -107t-112.5 -68q53 -27 84 -71t31 -96q0 -88 -76.5 -148t-187.5 -60
q-109 0 -183.5 55t-74.5 139q0 64 47.5 115.5t130.5 73.5q-46 26 -72 65t-26 86zM228 513q0 -51 46.5 -84t114.5 -33q69 0 115 35t46 89q0 51 -46.5 84.5t-113.5 33.5q-69 0 -115.5 -36.5t-46.5 -88.5z" />
    <glyph glyph-name="nine" unicode="9" horiz-adv-x="610" 
d="M644 455q0 -131 -48.5 -240t-131 -171.5t-180.5 -62.5q-75 0 -135 33.5t-85 90.5l61 51q22 -44 68 -69.5t104 -25.5q87 0 154.5 69t96.5 188q-35 -47 -91 -74.5t-118 -27.5q-97 0 -160 62.5t-63 159.5q0 115 81 195t196.5 80t183 -69.5t67.5 -188.5zM369 294
q81 0 137 50.5t56 124.5q0 69 -51.5 116.5t-126.5 47.5q-78 0 -132.5 -54.5t-54.5 -131.5q0 -68 48 -110.5t124 -42.5z" />
    <glyph glyph-name="colon" unicode=":" horiz-adv-x="197" 
d="M105 396q0 28 18 46.5t45 18.5q28 0 46.5 -18.5t18.5 -46.5q0 -27 -18.5 -45.5t-45.5 -18.5t-45.5 18.5t-18.5 45.5zM44 52q0 27 18 45.5t45 18.5q28 0 46.5 -18.5t18.5 -45.5q0 -28 -18 -46t-45.5 -18t-46 18t-18.5 46z" />
    <glyph glyph-name="semicolon" unicode=";" horiz-adv-x="197" 
d="M94 107l77 -24l-102 -238l-64 20zM106 396q0 28 18 46.5t44 18.5q28 0 47 -18.5t19 -46.5q0 -27 -18.5 -45.5t-46 -18.5t-45.5 18.5t-18 45.5z" />
    <glyph glyph-name="less" unicode="&#x3c;" horiz-adv-x="502" 
d="M489 133l-15 -81l-398 165l18 104l457 165l-13 -90l-376 -130z" />
    <glyph glyph-name="equal" unicode="=" horiz-adv-x="377" 
d="M386 216l-12 -72h-320l13 72h319zM419 398l-13 -72h-320l13 72h320z" />
    <glyph glyph-name="greater" unicode="&#x3e;" horiz-adv-x="502" 
d="M109 407l14 79l399 -165l-19 -104l-456 -165l15 92l376 130z" />
    <glyph glyph-name="question" unicode="?" horiz-adv-x="551" 
d="M209 51.5q0 27.5 18 46t46 18.5q27 0 45.5 -18.5t18.5 -46t-18.5 -45.5t-45.5 -18t-45.5 18t-18.5 45.5zM369 631q63 0 104 -37t41 -95q0 -50 -26 -88.5t-99 -82.5l-111 -62l27 -68l112 64q97 54 137 112t40 133q0 89 -61.5 146.5t-156.5 57.5q-77 0 -140.5 -44.5
t-104.5 -126.5l69 -36q62 127 169 127z" />
    <glyph glyph-name="at" unicode="@" horiz-adv-x="793" 
d="M443 242q46 0 78 32.5t32 79.5q0 39 -26.5 65t-67.5 26q-46 0 -78 -33t-32 -80q0 -39 26.5 -64.5t67.5 -25.5zM582 369q0 -79 -49 -136t-117 -57q-59 0 -98.5 42t-39.5 106q0 77 51 133t121 56q58 0 95 -40t37 -104zM829 402q0 -100 -48.5 -167t-121.5 -67
q-49 0 -84 26.5t-35 63.5q0 6 1 12l40 230h70l-36 -207q-1 -10 -1 -15q0 -22 13 -34t37 -12q42 0 67.5 44t25.5 114q0 113 -76.5 187t-194.5 74q-86 0 -160.5 -45.5t-118 -122.5t-43.5 -166q0 -118 78 -194t198 -76q88 0 168 45l25 -61q-93 -52 -199 -52q-149 0 -244.5 93
t-95.5 239q0 111 52.5 206t143 150t195.5 55q147 0 245.5 -92.5t98.5 -227.5z" />
    <glyph glyph-name="A" unicode="A" horiz-adv-x="763" 
d="M127 0h-95l421 700h107l174 -700h-87l-152 610zM223 266h412l-13 -77h-412z" />
    <glyph glyph-name="B" unicode="B" horiz-adv-x="650" 
d="M465 389q51 0 93 40t42 90q0 46 -28 74.5t-74 28.5h-253l-41 -233h261zM412 78q61 0 103.5 38.5t42.5 94.5q0 45 -29.5 73.5t-77.5 28.5h-260l-42 -235h263zM638 216q0 -88 -67.5 -152t-161.5 -64h-354l124 700h344q71 0 115 -44.5t44 -115.5q0 -57 -34.5 -110t-89.5 -79
q38 -20 59 -55.5t21 -79.5z" />
    <glyph glyph-name="C" unicode="C" horiz-adv-x="778" 
d="M99 312q0 112 52.5 205.5t143 147.5t198.5 54q109 0 194 -60t116 -168l-77 -26q-22 79 -87.5 126.5t-152.5 47.5q-83 0 -153.5 -43t-111.5 -117t-41 -161q0 -112 72.5 -184.5t184.5 -72.5q77 0 145.5 43.5t111.5 119.5l70 -38q-55 -97 -143.5 -151t-189.5 -54
q-143 0 -237.5 94t-94.5 237z" />
    <glyph glyph-name="D" unicode="D" horiz-adv-x="700" 
d="M726 412q0 -82 -30.5 -157t-83.5 -131.5t-131 -90t-167 -33.5h-260l124 700h254q132 0 213 -80t81 -208zM317 77q97 0 173 45.5t115.5 119t39.5 160.5q0 100 -62.5 160.5t-168.5 60.5h-168l-97 -546h168z" />
    <glyph glyph-name="E" unicode="E" horiz-adv-x="561" 
d="M206 403h366l-14 -78h-365l-43 -247h386l-14 -78h-467l123 700h466l-13 -78h-385z" />
    <glyph glyph-name="F" unicode="F" horiz-adv-x="561" 
d="M206 403h366l-14 -78h-365l-57 -325h-81l123 700h466l-13 -78h-385z" />
    <glyph glyph-name="G" unicode="G" 
d="M493 640q-130 0 -222 -93t-92 -226q0 -113 71.5 -186t182.5 -73q110 0 186.5 61.5t100.5 170.5h-300l12 70h382q-9 -168 -117 -275t-269 -107q-144 0 -236.5 93.5t-92.5 238.5q0 110 54 203.5t146 148t202 54.5q107 0 190.5 -60t112.5 -158l-77 -28q-23 76 -86.5 121
t-147.5 45z" />
    <glyph glyph-name="H" unicode="H" horiz-adv-x="685" 
d="M56 0l122 700h81l-54 -303h412l53 303h80l-122 -700h-81l56 320h-411l-56 -320h-80z" />
    <glyph glyph-name="I" unicode="I" horiz-adv-x="195" 
d="M136 0h-81l123 700h80z" />
    <glyph glyph-name="J" unicode="J" horiz-adv-x="598" 
d="M144 207q11 -66 54.5 -101.5t114.5 -35.5q73 0 123.5 45t64.5 122l81 463h80l-84 -479q-18 -101 -95 -166t-179 -65q-97 0 -161 53.5t-76 144.5z" />
    <glyph glyph-name="K" unicode="K" horiz-adv-x="613" 
d="M55 0l123 700h80l-53 -308h30l361 308h113l-408 -351l282 -349h-104l-254 308h-35l-54 -308h-81z" />
    <glyph glyph-name="L" unicode="L" horiz-adv-x="551" 
d="M150 78h386l-14 -78h-467l123 700h80z" />
    <glyph glyph-name="M" unicode="M" horiz-adv-x="836" 
d="M54 0l124 700h97l179 -479l351 479h101l-123 -700h-81l101 568l-330 -454h-63l-173 463l-101 -577h-82z" />
    <glyph glyph-name="N" unicode="N" horiz-adv-x="685" 
d="M55 0l123 700h106l282 -594l103 594h81l-122 -700h-106l-281 602l-105 -602h-81z" />
    <glyph glyph-name="O" unicode="O" 
d="M483 640q-83 0 -153 -43.5t-110 -117t-40 -160.5q0 -114 72 -185.5t181 -71.5q84 0 154.5 44.5t110 119t39.5 160.5q0 112 -72.5 183t-181.5 71zM100 315q0 109 51 202.5t140.5 148t194.5 54.5q142 0 236.5 -93t94.5 -237q0 -108 -51 -202t-140.5 -150t-195.5 -56
q-141 0 -235.5 94t-94.5 239z" />
    <glyph glyph-name="P" unicode="P" horiz-adv-x="625" 
d="M392 315q89 0 147.5 49t58.5 132q0 56 -39 91t-105 35h-208l-54 -307h200zM680 507q0 -82 -40.5 -144.5t-107 -94t-147.5 -31.5h-207l-42 -237h-81l123 700h289q92 0 152.5 -54.5t60.5 -138.5z" />
    <glyph glyph-name="Q" unicode="Q" 
d="M483 640q-83 0 -153 -43.5t-110 -117t-40 -160.5q0 -114 72 -185.5t181 -71.5q84 0 154.5 44.5t110 119t39.5 160.5q0 112 -72.5 183t-181.5 71zM100 315q0 109 51 202.5t140.5 148t194.5 54.5q142 0 236.5 -93t94.5 -237q0 -108 -51 -202t-140.5 -150t-195.5 -56
q-141 0 -235.5 94t-94.5 239zM750 -18l-318 331l58 55l318 -330z" />
    <glyph glyph-name="R" unicode="R" horiz-adv-x="633" 
d="M408 340q75 0 132.5 50.5t57.5 116.5q0 51 -37.5 83t-96.5 32h-219l-49 -282h212zM681 518q0 -99 -74.5 -172t-177.5 -78l164 -268h-93l-162 262h-156l-47 -262h-80l124 700h309q86 0 139.5 -51t53.5 -131z" />
    <glyph glyph-name="S" unicode="S" horiz-adv-x="579" 
d="M340 66q66 0 112 35.5t46 87.5q0 39 -36 69t-113 53q-206 63 -206 194q0 89 68 149t167 60q96 0 165 -54t87 -142l-78 -24q-15 65 -62.5 103.5t-115.5 38.5q-63 0 -105.5 -34.5t-42.5 -86.5q0 -40 36 -69.5t114 -53.5q101 -31 152.5 -81t51.5 -116q0 -87 -70 -147
t-172 -60q-99 0 -171 55t-91 146l81 29q14 -70 63 -111t120 -41z" />
    <glyph glyph-name="T" unicode="T" horiz-adv-x="596" 
d="M691 700l-14 -78h-230l-109 -622h-81l110 622h-231l13 78h542z" />
    <glyph glyph-name="U" unicode="U" horiz-adv-x="690" 
d="M370 -11q-116 0 -191.5 72t-75.5 183q0 26 4 53l71 403h80l-70 -400q-4 -25 -4 -48q0 -78 51.5 -130.5t143.5 -52.5q85 0 144.5 52.5t74.5 142.5l76 436h81l-79 -453q-20 -113 -106 -185.5t-200 -72.5z" />
    <glyph glyph-name="V" unicode="V" horiz-adv-x="763" 
d="M760 700h95l-421 -700h-106l-175 700h87l152 -610z" />
    <glyph glyph-name="W" unicode="W" horiz-adv-x="1034" 
d="M1028 700h91l-327 -700h-107l-74 569l-265 -569h-109l-86 700h85l71 -595l282 595h86l77 -595z" />
    <glyph glyph-name="X" unicode="X" horiz-adv-x="703" 
d="M670 0h-95l-170 294l-274 -294h-104l320 346l-196 354h96l168 -303l276 303h103l-322 -354z" />
    <glyph glyph-name="Y" unicode="Y" horiz-adv-x="666" 
d="M302 0h80l42 235l335 465h-98l-264 -370l-154 370h-91l192 -465z" />
    <glyph glyph-name="Z" unicode="Z" horiz-adv-x="628" 
d="M591 0l14 77h-451l544 531l16 92h-548l-14 -77h451l-543 -525l-17 -98h548z" />
    <glyph glyph-name="bracketleft" unicode="[" horiz-adv-x="305" 
d="M146 33h127l-13 -75h-210l140 794h210l-14 -78h-127z" />
    <glyph glyph-name="backslash" unicode="\" horiz-adv-x="427" 
d="M312 0l-160 700h86l160 -700h-86z" />
    <glyph glyph-name="bracketright" unicode="]" horiz-adv-x="305" 
d="M284 677h-127l13 75h210l-140 -794h-210l14 78h127z" />
    <glyph glyph-name="asciicircum" unicode="^" horiz-adv-x="418" 
d="M333 751l-190 -150l36 -54l157 127l109 -135l51 44l-138 166z" />
    <glyph glyph-name="underscore" unicode="_" horiz-adv-x="427" 
d="M407 50l-12 -67h-369l12 67h369z" />
    <glyph glyph-name="grave" unicode="`" horiz-adv-x="277" 
d="M153 688l49 48l143 -170l-46 -43z" />
    <glyph glyph-name="a" unicode="a" horiz-adv-x="499" 
d="M311 511q80 0 138 -50t58 -120q0 -12 -3 -28l-54 -313h-81l40 224l-139 -12q-57 -4 -89 -24.5t-32 -55.5q0 -31 27.5 -50.5t73.5 -19.5q61 0 102 34t51 93h34q-15 -87 -76 -142.5t-142 -55.5q-67 0 -109 37.5t-42 96.5q0 67 54 109.5t144 49.5l156 13l2 14q2 15 2 24
q0 43 -33.5 72t-82.5 29q-43 0 -80 -22.5t-53 -59.5l-70 34q28 56 83.5 89.5t120.5 33.5z" />
    <glyph glyph-name="b" unicode="b" horiz-adv-x="638" 
d="M53 0l131 750h81l-132 -750h-80zM385 443q-87 0 -147.5 -62.5t-60.5 -149.5q0 -75 51 -123t127 -48q87 0 147 62.5t60 149.5q0 75 -50.5 123t-126.5 48zM138 215q0 80 36 150t99 112t139 42q97 0 164 -66.5t67 -170.5q0 -80 -37 -149t-102 -110.5t-142 -41.5
q-99 0 -161.5 66t-62.5 168z" />
    <glyph glyph-name="c" unicode="c" horiz-adv-x="586" 
d="M367 442q-85 0 -144.5 -62.5t-59.5 -151.5q0 -74 48.5 -122t123.5 -48q57 0 106.5 28.5t77.5 78.5l66 -38q-40 -69 -107.5 -107.5t-148.5 -38.5q-107 0 -176.5 68t-69.5 173q0 123 85 210t205 87q86 0 150 -42.5t89 -112.5l-76 -32q-17 51 -62 80.5t-107 29.5z" />
    <glyph glyph-name="d" unicode="d" horiz-adv-x="638" 
d="M587 0h-81l132 750h80zM343 60q87 0 147.5 62.5t60.5 149.5q0 75 -51 123t-127 48q-87 0 -147 -62.5t-60 -149.5q0 -75 50.5 -123t126.5 -48zM590 287q0 -80 -36 -149.5t-99.5 -111.5t-138.5 -42q-97 0 -164 66t-67 171q0 80 37 149t102 110.5t142 41.5q98 0 161 -66.5
t63 -168.5z" />
    <glyph glyph-name="e" unicode="e" horiz-adv-x="596" 
d="M528 305q-4 62 -48.5 100.5t-108.5 38.5q-70 0 -128 -43t-74 -113h359q1 8 0 17zM606 284q0 -30 -10 -68h-433q2 -70 50.5 -114t121.5 -44q55 0 102.5 26t77.5 73l65 -43q-44 -65 -109 -98.5t-141 -33.5q-107 0 -178.5 68t-71.5 174q0 79 39 147t107 108.5t148 40.5
q99 0 165.5 -66t66.5 -170z" />
    <glyph glyph-name="f" unicode="f" horiz-adv-x="414" 
d="M424 673q-37 0 -63 -27.5t-34 -70.5l-13 -75h162l-13 -74h-162l-75 -426h-80l74 426h-115l13 74h115l18 100q10 60 60 105t111 45h77l-13 -77h-62z" />
    <glyph glyph-name="g" unicode="g" horiz-adv-x="598" 
d="M549 302q0 -114 -74 -196.5t-178 -82.5q-93 0 -154 62.5t-61 156.5q0 114 76.5 195.5t183.5 81.5q91 0 149 -61.5t58 -155.5zM322 99q77 0 131 54.5t54 132.5q0 66 -45 109t-115 43q-77 0 -131 -54.5t-54 -132.5q0 -66 45 -109t115 -43zM114 -17q15 -61 60.5 -96
t110.5 -35q66 0 113.5 34.5t56.5 89.5l92 524h80l-93 -531q-15 -88 -86 -143t-168 -55q-51 0 -98.5 18t-87.5 59t-56 99z" />
    <glyph glyph-name="h" unicode="h" horiz-adv-x="543" 
d="M55 0l132 750h81l-131 -750h-82zM408 0l50 278q12 70 -20.5 115t-94.5 45q-58 0 -100.5 -39.5t-54.5 -103.5h-42q18 95 80.5 156t143.5 61q89 0 138 -68t31 -166l-49 -278h-82z" />
    <glyph glyph-name="i" unicode="i" horiz-adv-x="193" 
d="M159 636q0 23 15.5 38.5t38.5 15.5t38.5 -15.5t15.5 -38.5t-15.5 -38.5t-38.5 -15.5t-38.5 15.5t-15.5 38.5zM57 0l88 500h81l-88 -500h-81z" />
    <glyph glyph-name="j" unicode="j" horiz-adv-x="193" 
d="M159 636q0 23 15.5 38.5t38.5 15.5t38.5 -15.5t15.5 -38.5t-15.5 -38.5t-38.5 -15.5t-38.5 15.5t-15.5 38.5zM-28 -100q32 0 54 23t28 58l91 519h81l-97 -550q-10 -54 -51.5 -91t-98.5 -37h-42l11 78h24z" />
    <glyph glyph-name="k" unicode="k" horiz-adv-x="501" 
d="M55 0l129 738h81l-77 -439h26l242 201h116l-294 -247l200 -253h-98l-179 218h-27l-38 -218h-81z" />
    <glyph glyph-name="l" unicode="l" horiz-adv-x="195" 
d="M56 0l133 750h81l-133 -750h-81z" />
    <glyph glyph-name="m" unicode="m" horiz-adv-x="816" 
d="M676 0l53 299q10 59 -17.5 98t-79.5 39q-51 0 -88 -38t-45 -99h-41q13 94 70 152.5t133 58.5t120 -62.5t29 -148.5l-53 -299h-81zM54 0l88 500h81l-89 -500h-80zM365 0l53 298q10 59 -17.5 98.5t-79.5 39.5q-51 0 -87.5 -38t-46.5 -100h-41q15 91 72 151.5t131 60.5
q77 0 121 -62.5t29 -148.5l-53 -299h-81z" />
    <glyph glyph-name="n" unicode="n" horiz-adv-x="543" 
d="M55 0l88 500h82l-88 -500h-82zM408 0l50 278q12 70 -20.5 115t-94.5 45q-58 0 -100.5 -39.5t-54.5 -103.5h-42q17 90 80.5 153.5t143.5 63.5q89 0 138 -68t31 -166l-49 -278h-82z" />
    <glyph glyph-name="o" unicode="o" horiz-adv-x="618" 
d="M369 443q-87 0 -147.5 -62.5t-60.5 -149.5q0 -76 51 -124t127 -48q87 0 147.5 62.5t60.5 149.5q0 76 -51 124t-127 48zM81 224q0 122 85.5 209t208.5 87q108 0 180 -68t72 -174q0 -122 -85.5 -209t-208.5 -87q-108 0 -180 68t-72 174z" />
    <glyph glyph-name="p" unicode="p" horiz-adv-x="638" 
d="M138 500h80l-122 -700h-80zM382 441q-87 0 -147.5 -62.5t-60.5 -149.5q0 -75 51 -123t127 -48q87 0 147.5 62t60.5 149q0 76 -51 124t-127 48zM135 213q0 80 36 150t99.5 112t138.5 42q98 0 164.5 -66.5t66.5 -171.5q0 -79 -37 -148.5t-102 -110.5t-141 -41
q-99 0 -162 66t-63 168z" />
    <glyph glyph-name="q" unicode="q" horiz-adv-x="638" 
d="M673 500l-122 -700h-81l123 700h80zM341 58q87 0 147.5 62t60.5 149q0 76 -50.5 124t-126.5 48q-87 0 -147.5 -62.5t-60.5 -149.5q0 -75 50.5 -123t126.5 -48zM588 285q0 -80 -35.5 -149.5t-99 -111.5t-138.5 -42q-98 0 -165 66t-67 171q0 80 37 149t102 110.5t142 41.5
q99 0 161.5 -66.5t62.5 -168.5z" />
    <glyph glyph-name="r" unicode="r" horiz-adv-x="340" 
d="M55 0l87 500h80l-86 -500h-81zM364 428q-64 0 -116 -36t-61 -92h-43q15 83 82 145.5t146 62.5h31l-14 -80h-25z" />
    <glyph glyph-name="s" unicode="s" horiz-adv-x="479" 
d="M278 59q45 0 74 21.5t29 54.5q0 51 -110 82q-161 43 -161 139q0 65 52.5 111.5t129.5 46.5q73 0 127.5 -43.5t69.5 -114.5l-79 -18q-9 46 -40 74t-79 28q-42 0 -71 -21.5t-29 -52.5q0 -25 24.5 -43t77.5 -33q169 -46 169 -147q0 -64 -55 -109.5t-136 -45.5
q-78 0 -137.5 42t-75.5 110l77 22q11 -44 49.5 -73.5t93.5 -29.5z" />
    <glyph glyph-name="t" unicode="t" horiz-adv-x="382" 
d="M304 74h65l-13 -74h-77q-62 0 -98 32.5t-36 83.5q0 13 3 28l49 282h-92l12 74h93l26 151l83 9l-28 -160h152l-13 -74h-152l-48 -272q-2 -13 -2 -20q0 -60 76 -60z" />
    <glyph glyph-name="u" unicode="u" horiz-adv-x="538" 
d="M565 500l-88 -500h-81l88 500h81zM232 500l-55 -308q-11 -63 19 -96.5t90 -33.5q53 0 92.5 31t48.5 82h43q-17 -81 -76.5 -133.5t-135.5 -52.5q-85 0 -132 54t-31 146l56 311h81z" />
    <glyph glyph-name="v" unicode="v" horiz-adv-x="556" 
d="M528 500h88l-292 -500h-104l-102 500h84l83 -419z" />
    <glyph glyph-name="w" unicode="w" horiz-adv-x="823" 
d="M795 500h89l-250 -500h-112l-52 380l-190 -380h-94l-68 500h84l48 -408l200 408h78l62 -413z" />
    <glyph glyph-name="x" unicode="x" horiz-adv-x="550" 
d="M524 0h-92l-122 199l-178 -199h-105l235 255l-144 245h92l118 -199l183 199h103l-238 -255z" />
    <glyph glyph-name="y" unicode="y" horiz-adv-x="556" 
d="M527 500l-237 -398l-88 398h-84l110 -488l-123 -212h93l419 700h-90z" />
    <glyph glyph-name="z" unicode="z" horiz-adv-x="484" 
d="M449 0l12 72h-324l383 339l16 89h-411l-12 -72h317l-376 -339l-16 -89h411z" />
    <glyph glyph-name="braceleft" unicode="{" horiz-adv-x="324" 
d="M134 184q0 19 4 48t4 47q0 62 -60 62l14 77q34 0 57 21.5t29 57.5q18 101 78 172t141 90l18 -78q-59 -14 -104 -71t-59 -138q-15 -88 -78 -101q45 -19 45 -70q0 -19 -4.5 -47.5t-4.5 -47.5q0 -64 27.5 -111t74.5 -63l-44 -74q-64 24 -101 84.5t-37 141.5z" />
    <glyph glyph-name="bar" unicode="|" horiz-adv-x="195" 
d="M20 -200l176 1000h83l-177 -1000h-82z" />
    <glyph glyph-name="braceright" unicode="}" horiz-adv-x="324" 
d="M319 534q0 -17 -4.5 -45.5t-4.5 -46.5q0 -31 16 -47.5t44 -16.5l-13 -77q-73 0 -87 -80q-17 -99 -76.5 -170.5t-141.5 -91.5l-18 79q59 13 103.5 70t58.5 138q16 89 79 102q-45 19 -45 70q0 18 4 46.5t4 47.5q0 65 -27 112t-74 63l44 73q64 -24 101 -84.5t37 -141.5z" />
    <glyph glyph-name="asciitilde" unicode="~" horiz-adv-x="469" 
d="M218 348q-40 0 -72 -31.5t-53 -88.5l60 -18q26 72 61 72q14 0 24 -6.5t26 -26.5q21 -25 40.5 -35t44.5 -10q40 0 72 31.5t53 88.5l-59 18q-12 -33 -30 -51t-37 -18q-15 0 -25 6.5t-25 25.5q-21 24 -38.5 33.5t-41.5 9.5z" />
    <glyph glyph-name="exclamdown" unicode="&#xa1;" horiz-adv-x="194" 
d="M253 537q0 -28 -18 -46.5t-45 -18.5q-28 0 -46.5 18.5t-18.5 46.5q0 27 18 45.5t45.5 18.5t46 -18.5t18.5 -45.5zM128 391h76l-84 -503h-86z" />
    <glyph glyph-name="cent" unicode="&#xa2;" horiz-adv-x="586" 
d="M382 548q-85 0 -144.5 -62t-59.5 -151q0 -74 49 -122t124 -48q56 0 106 28.5t77 78.5l67 -39q-40 -68 -107.5 -106.5t-148.5 -38.5q-107 0 -177 68t-70 172q0 123 85 210.5t205 87.5q87 0 151 -42.5t88 -112.5l-75 -33q-18 52 -62.5 81t-107.5 29zM371 596l19 104h75
l-19 -104h-75zM287 118h75l-21 -118h-75z" />
    <glyph glyph-name="sterling" unicode="&#xa3;" horiz-adv-x="582" 
d="M567 77l-14 -77h-524l13 77h108l38 216h-88l14 77h87l25 137q17 98 85 156t154 58q150 0 191 -141l-79 -26q-27 87 -113 87q-59 0 -103 -36t-57 -108l-23 -127h215l-14 -77h-214l-38 -216h337z" />
    <glyph glyph-name="currency" unicode="&#xa4;" horiz-adv-x="381" 
d="M87 276q0 65 44 108l-29 41l46 32l28 -41q27 13 63 13q63 0 105 -43l42 30l34 -48l-42 -29q14 -29 14 -61q0 -65 -44 -108l29 -41l-46 -32l-28 41q-28 -13 -63 -13q-64 0 -107 43l-41 -30l-34 48l43 29q-14 30 -14 61zM238 365q-37 0 -61.5 -26t-24.5 -64q0 -36 25 -61
t63 -25q37 0 62 26t25 64q0 36 -25.5 61t-63.5 25z" />
    <glyph glyph-name="yen" unicode="&#xa5;" horiz-adv-x="568" 
d="M474 163h-320l-10 -62h319zM496 288h-319l-11 -62h319zM248 0h80l61 346l273 354h-99l-204 -269l-116 269h-90l156 -354z" />
    <glyph glyph-name="brokenbar" unicode="&#xa6;" horiz-adv-x="195" 
d="M211 416h-80l68 384h80zM173 204l-71 -404h-80l71 404h80z" />
    <glyph glyph-name="section" unicode="&#xa7;" horiz-adv-x="449" 
d="M393 348q0 -33 -30 -52t-82 -20q-53 15 -76.5 33.5t-23.5 43.5q0 32 31 51.5t81 20.5q53 -15 76.5 -33.5t23.5 -43.5zM315 713q-74 0 -125.5 -43t-51.5 -105q0 -65 76 -107q-54 -13 -85 -45.5t-31 -77.5q0 -91 151 -130q55 -15 80 -33t25 -43q0 -30 -26.5 -50t-65.5 -20
q-46 0 -78.5 26.5t-41.5 72.5l-80 -19q15 -68 69 -109.5t128 -41.5t125.5 43t51.5 105q0 64 -75 107q51 10 83 43.5t32 77.5t-34 73.5t-114 56.5q-59 22 -83.5 39.5t-24.5 39.5q0 29 26.5 49t65.5 20q46 0 78.5 -26.5t41.5 -72.5l80 19q-15 68 -69 109.5t-128 41.5z" />
    <glyph glyph-name="dieresis" unicode="&#xa8;" horiz-adv-x="419" 
d="M382 628q0 23 15.5 38.5t38.5 15.5t38.5 -15.5t15.5 -38.5t-15.5 -38.5t-38.5 -15.5t-38.5 15.5t-15.5 38.5zM152 628q0 23 15.5 38.5t38.5 15.5t38.5 -15.5t15.5 -38.5t-15.5 -38.5t-38.5 -15.5t-38.5 15.5t-15.5 38.5z" />
    <glyph glyph-name="copyright" unicode="&#xa9;" 
d="M465 457q-46 0 -78.5 -35t-32.5 -84q0 -41 26 -67.5t66 -26.5q61 0 98 61l53 -28q-27 -45 -69 -70t-87 -25q-65 0 -107.5 42.5t-42.5 107.5q0 77 53 132.5t127 55.5q55 0 96.5 -32t53.5 -85l-61 -19q-8 33 -34 53t-61 20zM483 655q-87 0 -160 -45.5t-115.5 -123.5
t-42.5 -170q0 -117 74.5 -193t190.5 -76q86 0 159.5 46t116 124.5t42.5 170.5q0 116 -75 191.5t-190 75.5zM100 310q0 111 52 205.5t141.5 149.5t194.5 55q141 0 233 -92t92 -233q0 -112 -52 -207t-142 -150.5t-195 -55.5q-140 0 -232 93t-92 235z" />
    <glyph glyph-name="ordfeminine" unicode="&#xaa;" horiz-adv-x="358" 
d="M379 700h65l-50 -278l-64 1zM387 346l-9 -62h-299l10 62h298zM282 648q-38 0 -65 -29t-27 -68q0 -33 21.5 -55t54.5 -22q37 0 62.5 29t25.5 69q0 34 -20 55t-52 21zM127 544q0 67 44.5 117.5t104.5 50.5q49 0 80.5 -35t31.5 -91q0 -71 -41.5 -122t-100.5 -51
q-53 0 -86 37.5t-33 93.5z" />
    <glyph glyph-name="guillemotleft" unicode="&#xab;" horiz-adv-x="535" 
d="M528 169l-16 -87l-201 132l18 107l249 135l-16 -96l-177 -95zM293 169l-16 -87l-201 135l18 104l249 135l-16 -96l-177 -95z" />
    <glyph glyph-name="logicalnot" unicode="&#xac;" horiz-adv-x="437" 
d="M470 350l-33 -188h-78l21 116h-302l12 72h380z" />
    <glyph glyph-name="uni00AD" unicode="&#xad;" horiz-adv-x="324" 
d="M349 302l-13 -72h-267l13 72h267z" />
    <glyph glyph-name="registered" unicode="&#xae;" 
d="M483 655q-87 0 -160 -45.5t-115.5 -123.5t-42.5 -170q0 -117 74.5 -193t190.5 -76q86 0 159.5 46t116 124.5t42.5 170.5q0 116 -75 191.5t-190 75.5zM100 310q0 111 52 205.5t141.5 149.5t194.5 55q141 0 233 -92t92 -233q0 -112 -52 -207t-142 -150.5t-195 -55.5
q-140 0 -232 93t-92 235zM520 455h-129l-18 -99h130q28 0 47.5 16t19.5 40q0 18 -14 30.5t-36 12.5zM502 302l90 -114h-77l-89 111h-63l-19 -111h-60l57 325h202q38 0 62.5 -28.5t24.5 -70.5q0 -45 -37 -77.5t-91 -34.5z" />
    <glyph glyph-name="macron" unicode="&#xaf;" horiz-adv-x="364" 
d="M459 700l-12 -67h-307l12 67h307z" />
    <glyph glyph-name="degree" unicode="&#xb0;" horiz-adv-x="390" 
d="M300 635q-42 0 -71 -29.5t-29 -71.5q0 -36 24.5 -59t60.5 -23q42 0 70.5 29.5t28.5 71.5q0 36 -24 59t-60 23zM125 526q0 76 52.5 130t128.5 54q66 0 110 -42t44 -107q0 -76 -53 -130t-128 -54q-66 0 -110 42t-44 107z" />
    <glyph glyph-name="plusminus" unicode="&#xb1;" horiz-adv-x="377" 
d="M352 22l-12 -72h-320l13 72h319zM229 436h74l-22 -124h122l-12 -72h-122l-22 -124h-74l22 124h-124l13 72h123z" />
    <glyph glyph-name="uni00B2" unicode="&#xb2;" horiz-adv-x="290" 
d="M394 739q8 49 -20.5 80.5t-76.5 31.5q-47 0 -82 -26t-55 -67l62 -24q21 47 60 47q20 0 31 -13t8 -33q-6 -29 -80 -65l-105 -55l-15 -83h237l12 67h-149l61 30q100 47 112 110z" />
    <glyph glyph-name="uni00B3" unicode="&#xb3;" horiz-adv-x="295" 
d="M316 714l82 52l14 81h-223l-12 -64h154l-84 -60l15 -48q26 0 38 -11t9 -30q-3 -17 -18 -27.5t-35 -10.5q-21 0 -33 13.5t-13 36.5l-73 -17q4 -46 32.5 -74.5t75.5 -28.5q51 0 89.5 29.5t45.5 74.5q7 36 -11 59t-53 25z" />
    <glyph glyph-name="acute" unicode="&#xb4;" horiz-adv-x="274" 
d="M371 688l-39 58l-189 -143l36 -53z" />
    <glyph glyph-name="mu" unicode="&#xb5;" horiz-adv-x="560" 
d="M591 500l-88 -500h-80l88 500h80zM146 500h80l-124 -700h-80zM503 212q-17 -95 -79 -159t-138 -64q-79 0 -124.5 65.5t-29.5 157.5h43q-11 -61 25.5 -103.5t99.5 -42.5q61 0 105 40t55 106h43z" />
    <glyph glyph-name="paragraph" unicode="&#xb6;" horiz-adv-x="535" 
d="M478 0h-63l123 700h63zM149 504q0 79 64.5 137.5t153.5 58.5h107l-123 -700h-80l63 357h-17q-74 0 -121 41.5t-47 105.5z" />
    <glyph glyph-name="periodcentered" unicode="&#xb7;" horiz-adv-x="197" 
d="M104 363q0 24 16 40.5t40 16.5t40.5 -16.5t16.5 -40.5t-16 -40.5t-40 -16.5t-40.5 16.5t-16.5 40.5z" />
    <glyph glyph-name="cedilla" unicode="&#xb8;" horiz-adv-x="283" 
d="M160 -138q0 15 -8 24t-21 9q-16 0 -31 -16l-58 31l21 117l61 -5l-15 -90q22 19 48 19q29 0 48.5 -24t19.5 -60q0 -51 -33.5 -85t-83.5 -34q-43 0 -72.5 23.5t-33.5 61.5l63 17q1 -18 13.5 -28.5t32.5 -10.5q21 0 35 14.5t14 36.5z" />
    <glyph glyph-name="uni00B9" unicode="&#xb9;" horiz-adv-x="221" 
d="M344 847l-55 -315h-70l41 232l-64 -44l-34 52l110 75h72z" />
    <glyph glyph-name="ordmasculine" unicode="&#xba;" horiz-adv-x="358" 
d="M387 346l-9 -62h-299l10 62h298zM285 648q-39 0 -66 -28t-27 -68q0 -34 22.5 -56t57.5 -22q39 0 66 28t27 68q0 34 -22.5 56t-57.5 22zM129 545q0 69 47 117t114 48q60 0 99 -38t39 -95q0 -69 -47 -117t-114 -48q-60 0 -99 38t-39 95z" />
    <glyph glyph-name="guillemotright" unicode="&#xbb;" horiz-adv-x="535" 
d="M102 370l16 86l201 -135l-18 -104l-249 -135l16 98l177 94zM337 370l16 86l201 -135l-18 -104l-249 -135l16 98l177 94z" />
    <glyph glyph-name="onequarter" unicode="&#xbc;" horiz-adv-x="709" 
d="M469 122h72l18 103zM645 312l-34 -190h38l-11 -61h-38l-11 -64h-70l11 64h-138l13 72l159 179h81zM253 0h-97l396 700h97zM344 697l-55 -315h-70l41 232l-64 -44l-34 52l110 75h72z" />
    <glyph glyph-name="onehalf" unicode="&#xbd;" horiz-adv-x="700" 
d="M654 204q9 49 -19.5 80.5t-77.5 31.5q-47 0 -81.5 -26t-55.5 -68l62 -23q22 47 61 47q19 0 30.5 -13t7.5 -33q-5 -29 -79 -65l-106 -55l-14 -83h237l12 67h-149l60 30q101 47 112 110zM253 0h-97l396 700h97zM344 697l-55 -315h-70l41 232l-64 -44l-34 52l110 75h72z" />
    <glyph glyph-name="threequarters" unicode="&#xbe;" horiz-adv-x="731" 
d="M491 122h72l18 103zM667 312l-34 -190h38l-11 -61h-38l-11 -64h-70l11 64h-138l13 72l159 179h81zM275 0h-97l396 700h97zM316 564l82 52l14 81h-223l-12 -64h154l-84 -60l15 -48q26 0 38 -11t9 -30q-3 -17 -18 -27.5t-35 -10.5q-21 0 -33 13.5t-13 36.5l-73 -17
q4 -46 32.5 -74.5t75.5 -28.5q51 0 89.5 29.5t45.5 74.5q7 36 -11 59t-53 25z" />
    <glyph glyph-name="questiondown" unicode="&#xbf;" horiz-adv-x="551" 
d="M443 536.5q0 -27.5 -18 -46t-45 -18.5q-28 0 -46.5 18.5t-18.5 46t18.5 46t46 18.5t45.5 -18.5t18 -46zM284 -43q-64 0 -105 37.5t-41 94.5q0 51 26 89t99 82l111 62l-27 68l-111 -63q-98 -55 -138 -112.5t-40 -133.5q0 -88 61.5 -146t156.5 -58q77 0 141 45t104 126
l-69 37q-62 -128 -168 -128z" />
    <glyph glyph-name="Agrave" unicode="&#xc0;" horiz-adv-x="763" 
d="M408 942l49 48l143 -170l-46 -43zM127 0h-95l421 700h107l174 -700h-87l-152 610zM223 266h412l-13 -77h-412z" />
    <glyph glyph-name="Aacute" unicode="&#xc1;" horiz-adv-x="763" 
d="M679 915l-39 57l-189 -142l37 -53zM127 0h-95l421 700h107l174 -700h-87l-152 610zM223 266h412l-13 -77h-412z" />
    <glyph glyph-name="Acircumflex" unicode="&#xc2;" horiz-adv-x="763" 
d="M539 976l-190 -149l37 -55l156 128l109 -136l51 44l-138 166zM127 0h-95l421 700h107l174 -700h-87l-152 610zM223 266h412l-13 -77h-412z" />
    <glyph glyph-name="Atilde" unicode="&#xc3;" horiz-adv-x="763" 
d="M466 921q-39 0 -71 -31.5t-54 -88.5l61 -18q26 72 61 72q13 0 23.5 -6.5t26.5 -26.5q21 -25 40 -35t44 -10q41 0 73 31.5t52 88.5l-58 18q-13 -33 -30.5 -51t-36.5 -18q-15 0 -25 6.5t-25 25.5q-21 24 -38.5 33.5t-42.5 9.5zM127 0h-95l421 700h107l174 -700h-87
l-152 610zM223 266h412l-13 -77h-412z" />
    <glyph glyph-name="Adieresis" unicode="&#xc4;" horiz-adv-x="763" 
d="M566 831q0 23 15.5 38.5t38.5 15.5t38.5 -15.5t15.5 -38.5t-15.5 -38.5t-38.5 -15.5t-38.5 15.5t-15.5 38.5zM366 831q0 23 15.5 38.5t38.5 15.5t38.5 -15.5t15.5 -38.5t-15.5 -38.5t-38.5 -15.5t-38.5 15.5t-15.5 38.5zM127 0h-95l421 700h107l174 -700h-87l-152 610z
M223 266h412l-13 -77h-412z" />
    <glyph glyph-name="Aring" unicode="&#xc5;" horiz-adv-x="763" 
d="M534 941q-23 0 -39.5 -16.5t-16.5 -40.5q0 -20 13.5 -33t34.5 -13q23 0 39.5 16.5t16.5 40.5q0 20 -14 33t-34 13zM417 878q0 51 35.5 87.5t86.5 36.5q44 0 74 -28.5t30 -72.5q0 -51 -36 -87.5t-86 -36.5q-45 0 -74.5 28.5t-29.5 72.5zM127 0h-95l421 700h107l174 -700
h-87l-152 610zM223 266h412l-13 -77h-412z" />
    <glyph glyph-name="AE" unicode="&#xc6;" horiz-adv-x="967" 
d="M614 390h361l-13 -78h-362l-41 -234h385l-14 -78h-465l123 700h465l-13 -78h-385zM248 272h290l-14 -78h-290zM122 0h-92l484 700h84l-14 -84h-32z" />
    <glyph glyph-name="Ccedilla" unicode="&#xc7;" horiz-adv-x="778" 
d="M504 -138q0 15 -8 24t-21 9q-16 0 -31 -16l-58 31l21 117l61 -5l-15 -90q22 19 48 19q29 0 48.5 -24t19.5 -60q0 -51 -33.5 -85t-83.5 -34q-43 0 -72.5 23.5t-33.5 61.5l63 17q1 -18 13.5 -28.5t32.5 -10.5q21 0 35 14.5t14 36.5zM99 312q0 112 52.5 205.5t143 147.5
t198.5 54q109 0 194 -60t116 -168l-77 -26q-22 79 -87.5 126.5t-152.5 47.5q-83 0 -153.5 -43t-111.5 -117t-41 -161q0 -112 72.5 -184.5t184.5 -72.5q77 0 145.5 43.5t111.5 119.5l70 -38q-55 -97 -143.5 -151t-189.5 -54q-143 0 -237.5 94t-94.5 237z" />
    <glyph glyph-name="Egrave" unicode="&#xc8;" horiz-adv-x="561" 
d="M310 941l49 48l143 -170l-46 -43zM206 403h366l-14 -78h-365l-43 -247h386l-14 -78h-467l123 700h466l-13 -78h-385z" />
    <glyph glyph-name="Eacute" unicode="&#xc9;" horiz-adv-x="561" 
d="M581 914l-39 57l-189 -142l37 -53zM206 403h366l-14 -78h-365l-43 -247h386l-14 -78h-467l123 700h466l-13 -78h-385z" />
    <glyph glyph-name="Ecircumflex" unicode="&#xca;" horiz-adv-x="561" 
d="M441 975l-190 -149l37 -55l156 128l109 -136l51 44l-138 166zM206 403h366l-14 -78h-365l-43 -247h386l-14 -78h-467l123 700h466l-13 -78h-385z" />
    <glyph glyph-name="Edieresis" unicode="&#xcb;" horiz-adv-x="561" 
d="M468 830q0 23 15.5 38.5t38.5 15.5t38.5 -15.5t15.5 -38.5t-15.5 -38.5t-38.5 -15.5t-38.5 15.5t-15.5 38.5zM268 830q0 23 15.5 38.5t38.5 15.5t38.5 -15.5t15.5 -38.5t-15.5 -38.5t-38.5 -15.5t-38.5 15.5t-15.5 38.5zM206 403h366l-14 -78h-365l-43 -247h386l-14 -78
h-467l123 700h466l-13 -78h-385z" />
    <glyph glyph-name="Igrave" unicode="&#xcc;" horiz-adv-x="195" 
d="M118 940l49 48l143 -170l-46 -43zM136 0h-81l123 700h80z" />
    <glyph glyph-name="Iacute" unicode="&#xcd;" horiz-adv-x="195" 
d="M389 913l-39 57l-189 -142l37 -53zM136 0h-81l123 700h80z" />
    <glyph glyph-name="Icircumflex" unicode="&#xce;" horiz-adv-x="195" 
d="M249 974l-190 -149l37 -55l156 128l109 -136l51 44l-138 166zM136 0h-81l123 700h80z" />
    <glyph glyph-name="Idieresis" unicode="&#xcf;" horiz-adv-x="195" 
d="M276 829q0 23 15.5 38.5t38.5 15.5t38.5 -15.5t15.5 -38.5t-15.5 -38.5t-38.5 -15.5t-38.5 15.5t-15.5 38.5zM76 829q0 23 15.5 38.5t38.5 15.5t38.5 -15.5t15.5 -38.5t-15.5 -38.5t-38.5 -15.5t-38.5 15.5t-15.5 38.5zM136 0h-81l123 700h80z" />
    <glyph glyph-name="Eth" unicode="&#xd0;" horiz-adv-x="703" 
d="M726 409q0 -111 -51.5 -204t-146.5 -149t-214 -56h-217l123 700h212q132 0 213 -82t81 -209zM317 77q97 0 173 45.5t115.5 119t39.5 160.5q0 100 -62.5 160.5t-168.5 60.5h-126l-96 -546h125zM414 394l-13 -72h-344l13 72h344z" />
    <glyph glyph-name="Ntilde" unicode="&#xd1;" horiz-adv-x="685" 
d="M427 919q-39 0 -71 -31.5t-54 -88.5l61 -18q26 72 61 72q13 0 23.5 -6.5t26.5 -26.5q21 -25 40 -35t44 -10q41 0 73 31.5t52 88.5l-58 18q-13 -33 -30.5 -51t-36.5 -18q-15 0 -25 6.5t-25 25.5q-21 24 -38.5 33.5t-42.5 9.5zM55 0l123 700h106l282 -594l103 594h81
l-122 -700h-106l-281 602l-105 -602h-81z" />
    <glyph glyph-name="Ograve" unicode="&#xd2;" 
d="M410 941l49 48l143 -170l-46 -43zM483 640q-83 0 -153 -43.5t-110 -117t-40 -160.5q0 -114 72 -185.5t181 -71.5q84 0 154.5 44.5t110 119t39.5 160.5q0 112 -72.5 183t-181.5 71zM100 315q0 109 51 202.5t140.5 148t194.5 54.5q142 0 236.5 -93t94.5 -237
q0 -108 -51 -202t-140.5 -150t-195.5 -56q-141 0 -235.5 94t-94.5 239z" />
    <glyph glyph-name="Oacute" unicode="&#xd3;" 
d="M681 914l-39 57l-189 -142l37 -53zM483 640q-83 0 -153 -43.5t-110 -117t-40 -160.5q0 -114 72 -185.5t181 -71.5q84 0 154.5 44.5t110 119t39.5 160.5q0 112 -72.5 183t-181.5 71zM100 315q0 109 51 202.5t140.5 148t194.5 54.5q142 0 236.5 -93t94.5 -237
q0 -108 -51 -202t-140.5 -150t-195.5 -56q-141 0 -235.5 94t-94.5 239z" />
    <glyph glyph-name="Ocircumflex" unicode="&#xd4;" 
d="M542 975l-190 -149l37 -55l156 128l109 -136l51 44l-138 166zM483 640q-83 0 -153 -43.5t-110 -117t-40 -160.5q0 -114 72 -185.5t181 -71.5q84 0 154.5 44.5t110 119t39.5 160.5q0 112 -72.5 183t-181.5 71zM100 315q0 109 51 202.5t140.5 148t194.5 54.5
q142 0 236.5 -93t94.5 -237q0 -108 -51 -202t-140.5 -150t-195.5 -56q-141 0 -235.5 94t-94.5 239z" />
    <glyph glyph-name="Otilde" unicode="&#xd5;" 
d="M469 920q-39 0 -71 -31.5t-54 -88.5l61 -18q26 72 61 72q13 0 23.5 -6.5t26.5 -26.5q21 -25 40 -35t44 -10q41 0 73 31.5t52 88.5l-58 18q-13 -33 -30.5 -51t-36.5 -18q-15 0 -25 6.5t-25 25.5q-21 24 -38.5 33.5t-42.5 9.5zM483 640q-83 0 -153 -43.5t-110 -117
t-40 -160.5q0 -114 72 -185.5t181 -71.5q84 0 154.5 44.5t110 119t39.5 160.5q0 112 -72.5 183t-181.5 71zM100 315q0 109 51 202.5t140.5 148t194.5 54.5q142 0 236.5 -93t94.5 -237q0 -108 -51 -202t-140.5 -150t-195.5 -56q-141 0 -235.5 94t-94.5 239z" />
    <glyph glyph-name="Odieresis" unicode="&#xd6;" 
d="M569 830q0 23 15.5 38.5t38.5 15.5t38.5 -15.5t15.5 -38.5t-15.5 -38.5t-38.5 -15.5t-38.5 15.5t-15.5 38.5zM369 830q0 23 15.5 38.5t38.5 15.5t38.5 -15.5t15.5 -38.5t-15.5 -38.5t-38.5 -15.5t-38.5 15.5t-15.5 38.5zM483 640q-83 0 -153 -43.5t-110 -117t-40 -160.5
q0 -114 72 -185.5t181 -71.5q84 0 154.5 44.5t110 119t39.5 160.5q0 112 -72.5 183t-181.5 71zM100 315q0 109 51 202.5t140.5 148t194.5 54.5q142 0 236.5 -93t94.5 -237q0 -108 -51 -202t-140.5 -150t-195.5 -56q-141 0 -235.5 94t-94.5 239z" />
    <glyph glyph-name="multiply" unicode="&#xd7;" horiz-adv-x="377" 
d="M109 358l57 53l75 -93l107 91l47 -51l-108 -90l77 -93l-56 -52l-76 93l-108 -93l-48 51l108 92z" />
    <glyph glyph-name="Oslash" unicode="&#xd8;" 
d="M483 640q-83 0 -153 -43.5t-110 -117t-40 -160.5q0 -114 72 -185.5t181 -71.5q84 0 154.5 44.5t110 119t39.5 160.5q0 112 -72.5 183t-181.5 71zM100 315q0 109 51 202.5t140.5 148t194.5 54.5q142 0 236.5 -93t94.5 -237q0 -108 -51 -202t-140.5 -150t-195.5 -56
q-141 0 -235.5 94t-94.5 239zM801 638l-637 -636l-60 60l637 636z" />
    <glyph glyph-name="Ugrave" unicode="&#xd9;" horiz-adv-x="690" 
d="M367 940l49 48l143 -170l-46 -43zM370 -11q-116 0 -191.5 72t-75.5 183q0 26 4 53l71 403h80l-70 -400q-4 -25 -4 -48q0 -78 51.5 -130.5t143.5 -52.5q85 0 144.5 52.5t74.5 142.5l76 436h81l-79 -453q-20 -113 -106 -185.5t-200 -72.5z" />
    <glyph glyph-name="Uacute" unicode="&#xda;" horiz-adv-x="690" 
d="M638 913l-39 57l-189 -142l37 -53zM370 -11q-116 0 -191.5 72t-75.5 183q0 26 4 53l71 403h80l-70 -400q-4 -25 -4 -48q0 -78 51.5 -130.5t143.5 -52.5q85 0 144.5 52.5t74.5 142.5l76 436h81l-79 -453q-20 -113 -106 -185.5t-200 -72.5z" />
    <glyph glyph-name="Ucircumflex" unicode="&#xdb;" horiz-adv-x="690" 
d="M498 974l-190 -149l37 -55l156 128l109 -136l51 44l-138 166zM370 -11q-116 0 -191.5 72t-75.5 183q0 26 4 53l71 403h80l-70 -400q-4 -25 -4 -48q0 -78 51.5 -130.5t143.5 -52.5q85 0 144.5 52.5t74.5 142.5l76 436h81l-79 -453q-20 -113 -106 -185.5t-200 -72.5z" />
    <glyph glyph-name="Udieresis" unicode="&#xdc;" horiz-adv-x="690" 
d="M525 829q0 23 15.5 38.5t38.5 15.5t38.5 -15.5t15.5 -38.5t-15.5 -38.5t-38.5 -15.5t-38.5 15.5t-15.5 38.5zM325 829q0 23 15.5 38.5t38.5 15.5t38.5 -15.5t15.5 -38.5t-15.5 -38.5t-38.5 -15.5t-38.5 15.5t-15.5 38.5zM370 -11q-116 0 -191.5 72t-75.5 183q0 26 4 53
l71 403h80l-70 -400q-4 -25 -4 -48q0 -78 51.5 -130.5t143.5 -52.5q85 0 144.5 52.5t74.5 142.5l76 436h81l-79 -453q-20 -113 -106 -185.5t-200 -72.5z" />
    <glyph glyph-name="Yacute" unicode="&#xdd;" horiz-adv-x="666" 
d="M634 915l-39 57l-189 -142l37 -53zM302 0h80l42 235l335 465h-98l-264 -370l-154 370h-91l192 -465z" />
    <glyph glyph-name="Thorn" unicode="&#xde;" horiz-adv-x="633" 
d="M158 124l-22 -124h-81l124 700h80l-19 -112h207q93 0 153 -55t60 -138q0 -82 -40.5 -144.5t-107 -94.5t-146.5 -32h-208zM226 510l-54 -308h201q88 0 147 49.5t59 131.5q0 57 -39 92t-105 35h-209z" />
    <glyph glyph-name="germandbls" unicode="&#xdf;" horiz-adv-x="668" 
d="M670 571q0 -72 -35.5 -120.5t-103.5 -68.5q53 -17 85 -66.5t32 -112.5q0 -93 -63.5 -156t-158.5 -63q-77 0 -127.5 42t-58.5 113l79 18q3 -42 33.5 -67.5t78.5 -25.5q61 0 100.5 42.5t39.5 107.5q0 60 -41 98t-106 38h-54l9 76h59q69 0 110.5 37t41.5 98q0 55 -43.5 88.5
t-115.5 33.5q-78 0 -136.5 -54.5t-74.5 -148.5l-84 -480h-81l87 497q21 117 105 190t198 73q101 0 163 -52t62 -137z" />
    <glyph glyph-name="agrave" unicode="&#xe0;" horiz-adv-x="499" 
d="M227 732l49 48l143 -170l-46 -43zM311 511q80 0 138 -50t58 -120q0 -12 -3 -28l-54 -313h-81l40 224l-139 -12q-57 -4 -89 -24.5t-32 -55.5q0 -31 27.5 -50.5t73.5 -19.5q61 0 102 34t51 93h34q-15 -87 -76 -142.5t-142 -55.5q-67 0 -109 37.5t-42 96.5q0 67 54 109.5
t144 49.5l156 13l2 14q2 15 2 24q0 43 -33.5 72t-82.5 29q-43 0 -80 -22.5t-53 -59.5l-70 34q28 56 83.5 89.5t120.5 33.5z" />
    <glyph glyph-name="aacute" unicode="&#xe1;" horiz-adv-x="499" 
d="M498 705l-39 57l-189 -142l37 -53zM311 511q80 0 138 -50t58 -120q0 -12 -3 -28l-54 -313h-81l40 224l-139 -12q-57 -4 -89 -24.5t-32 -55.5q0 -31 27.5 -50.5t73.5 -19.5q61 0 102 34t51 93h34q-15 -87 -76 -142.5t-142 -55.5q-67 0 -109 37.5t-42 96.5q0 67 54 109.5
t144 49.5l156 13l2 14q2 15 2 24q0 43 -33.5 72t-82.5 29q-43 0 -80 -22.5t-53 -59.5l-70 34q28 56 83.5 89.5t120.5 33.5z" />
    <glyph glyph-name="acircumflex" unicode="&#xe2;" horiz-adv-x="499" 
d="M358 766l-190 -149l37 -55l156 128l109 -136l51 44l-138 166zM311 511q80 0 138 -50t58 -120q0 -12 -3 -28l-54 -313h-81l40 224l-139 -12q-57 -4 -89 -24.5t-32 -55.5q0 -31 27.5 -50.5t73.5 -19.5q61 0 102 34t51 93h34q-15 -87 -76 -142.5t-142 -55.5q-67 0 -109 37.5
t-42 96.5q0 67 54 109.5t144 49.5l156 13l2 14q2 15 2 24q0 43 -33.5 72t-82.5 29q-43 0 -80 -22.5t-53 -59.5l-70 34q28 56 83.5 89.5t120.5 33.5z" />
    <glyph glyph-name="atilde" unicode="&#xe3;" horiz-adv-x="499" 
d="M285 711q-39 0 -71 -31.5t-54 -88.5l61 -18q26 72 61 72q13 0 23.5 -6.5t26.5 -26.5q21 -25 40 -35t44 -10q41 0 73 31.5t52 88.5l-58 18q-13 -33 -30.5 -51t-36.5 -18q-15 0 -25 6.5t-25 25.5q-21 24 -38.5 33.5t-42.5 9.5zM311 511q80 0 138 -50t58 -120q0 -12 -3 -28
l-54 -313h-81l40 224l-139 -12q-57 -4 -89 -24.5t-32 -55.5q0 -31 27.5 -50.5t73.5 -19.5q61 0 102 34t51 93h34q-15 -87 -76 -142.5t-142 -55.5q-67 0 -109 37.5t-42 96.5q0 67 54 109.5t144 49.5l156 13l2 14q2 15 2 24q0 43 -33.5 72t-82.5 29q-43 0 -80 -22.5t-53 -59.5
l-70 34q28 56 83.5 89.5t120.5 33.5z" />
    <glyph glyph-name="adieresis" unicode="&#xe4;" horiz-adv-x="499" 
d="M385 621q0 23 15.5 38.5t38.5 15.5t38.5 -15.5t15.5 -38.5t-15.5 -38.5t-38.5 -15.5t-38.5 15.5t-15.5 38.5zM185 621q0 23 15.5 38.5t38.5 15.5t38.5 -15.5t15.5 -38.5t-15.5 -38.5t-38.5 -15.5t-38.5 15.5t-15.5 38.5zM311 511q80 0 138 -50t58 -120q0 -12 -3 -28
l-54 -313h-81l40 224l-139 -12q-57 -4 -89 -24.5t-32 -55.5q0 -31 27.5 -50.5t73.5 -19.5q61 0 102 34t51 93h34q-15 -87 -76 -142.5t-142 -55.5q-67 0 -109 37.5t-42 96.5q0 67 54 109.5t144 49.5l156 13l2 14q2 15 2 24q0 43 -33.5 72t-82.5 29q-43 0 -80 -22.5t-53 -59.5
l-70 34q28 56 83.5 89.5t120.5 33.5z" />
    <glyph glyph-name="aring" unicode="&#xe5;" horiz-adv-x="499" 
d="M353 731q-23 0 -39.5 -16.5t-16.5 -40.5q0 -20 13.5 -33t34.5 -13q23 0 39.5 16.5t16.5 40.5q0 20 -14 33t-34 13zM236 668q0 51 35.5 87.5t86.5 36.5q44 0 74 -28.5t30 -72.5q0 -51 -36 -87.5t-86 -36.5q-45 0 -74.5 28.5t-29.5 72.5zM311 511q80 0 138 -50t58 -120
q0 -12 -3 -28l-54 -313h-81l40 224l-139 -12q-57 -4 -89 -24.5t-32 -55.5q0 -31 27.5 -50.5t73.5 -19.5q61 0 102 34t51 93h34q-15 -87 -76 -142.5t-142 -55.5q-67 0 -109 37.5t-42 96.5q0 67 54 109.5t144 49.5l156 13l2 14q2 15 2 24q0 43 -33.5 72t-82.5 29
q-43 0 -80 -22.5t-53 -59.5l-70 34q28 56 83.5 89.5t120.5 33.5z" />
    <glyph glyph-name="ae" unicode="&#xe6;" horiz-adv-x="923" 
d="M937 284q0 -30 -11 -68h-433q2 -70 50.5 -114t122.5 -44q54 0 101.5 26t78.5 73l64 -43q-43 -64 -108 -98t-142 -34q-104 0 -172 68t-68 174q0 79 37 147t103 108.5t145 40.5q98 0 165 -66t67 -170zM859 306q-3 62 -48 100t-110 38q-70 0 -127.5 -43t-73.5 -113h358
q1 9 1 18zM308 511q78 0 129.5 -49t51.5 -121q0 -7 -3 -28l-15 -124q-12 -91 -75 -144.5t-162 -53.5q-73 0 -119.5 37.5t-46.5 96.5q0 67 54 109t144 50l156 13l2 14q2 14 2 24q0 43 -33.5 72t-82.5 29q-43 0 -80 -22.5t-53 -59.5l-70 34q28 56 82.5 89.5t118.5 33.5z
M406 186l5 40l-140 -13q-58 -5 -90 -25.5t-32 -53.5t28.5 -52.5t75.5 -19.5q60 0 102 34t51 90z" />
    <glyph glyph-name="ccedilla" unicode="&#xe7;" horiz-adv-x="586" 
d="M375 -138q0 15 -8 24t-21 9q-16 0 -31 -16l-58 31l21 117l61 -5l-15 -90q22 19 48 19q29 0 48.5 -24t19.5 -60q0 -51 -33.5 -85t-83.5 -34q-43 0 -72.5 23.5t-33.5 61.5l63 17q1 -18 13.5 -28.5t32.5 -10.5q21 0 35 14.5t14 36.5zM367 442q-85 0 -144.5 -62.5
t-59.5 -151.5q0 -74 48.5 -122t123.5 -48q57 0 106.5 28.5t77.5 78.5l66 -38q-40 -69 -107.5 -107.5t-148.5 -38.5q-107 0 -176.5 68t-69.5 173q0 123 85 210t205 87q86 0 150 -42.5t89 -112.5l-76 -32q-17 51 -62 80.5t-107 29.5z" />
    <glyph glyph-name="egrave" unicode="&#xe8;" horiz-adv-x="596" 
d="M283 732l49 48l143 -170l-46 -43zM528 305q-4 62 -48.5 100.5t-108.5 38.5q-70 0 -128 -43t-74 -113h359q1 8 0 17zM606 284q0 -30 -10 -68h-433q2 -70 50.5 -114t121.5 -44q55 0 102.5 26t77.5 73l65 -43q-44 -65 -109 -98.5t-141 -33.5q-107 0 -178.5 68t-71.5 174
q0 79 39 147t107 108.5t148 40.5q99 0 165.5 -66t66.5 -170z" />
    <glyph glyph-name="eacute" unicode="&#xe9;" horiz-adv-x="596" 
d="M554 705l-39 57l-189 -142l37 -53zM528 305q-4 62 -48.5 100.5t-108.5 38.5q-70 0 -128 -43t-74 -113h359q1 8 0 17zM606 284q0 -30 -10 -68h-433q2 -70 50.5 -114t121.5 -44q55 0 102.5 26t77.5 73l65 -43q-44 -65 -109 -98.5t-141 -33.5q-107 0 -178.5 68t-71.5 174
q0 79 39 147t107 108.5t148 40.5q99 0 165.5 -66t66.5 -170z" />
    <glyph glyph-name="ecircumflex" unicode="&#xea;" horiz-adv-x="596" 
d="M414 766l-190 -149l37 -55l156 128l109 -136l51 44l-138 166zM528 305q-4 62 -48.5 100.5t-108.5 38.5q-70 0 -128 -43t-74 -113h359q1 8 0 17zM606 284q0 -30 -10 -68h-433q2 -70 50.5 -114t121.5 -44q55 0 102.5 26t77.5 73l65 -43q-44 -65 -109 -98.5t-141 -33.5
q-107 0 -178.5 68t-71.5 174q0 79 39 147t107 108.5t148 40.5q99 0 165.5 -66t66.5 -170z" />
    <glyph glyph-name="edieresis" unicode="&#xeb;" horiz-adv-x="596" 
d="M441 621q0 23 15.5 38.5t38.5 15.5t38.5 -15.5t15.5 -38.5t-15.5 -38.5t-38.5 -15.5t-38.5 15.5t-15.5 38.5zM241 621q0 23 15.5 38.5t38.5 15.5t38.5 -15.5t15.5 -38.5t-15.5 -38.5t-38.5 -15.5t-38.5 15.5t-15.5 38.5zM528 305q-4 62 -48.5 100.5t-108.5 38.5
q-70 0 -128 -43t-74 -113h359q1 8 0 17zM606 284q0 -30 -10 -68h-433q2 -70 50.5 -114t121.5 -44q55 0 102.5 26t77.5 73l65 -43q-44 -65 -109 -98.5t-141 -33.5q-107 0 -178.5 68t-71.5 174q0 79 39 147t107 108.5t148 40.5q99 0 165.5 -66t66.5 -170z" />
    <glyph glyph-name="igrave" unicode="&#xec;" horiz-adv-x="193" 
d="M82 733l49 48l143 -170l-46 -43zM57 0l88 500h81l-88 -500h-81z" />
    <glyph glyph-name="iacute" unicode="&#xed;" horiz-adv-x="193" 
d="M353 706l-39 57l-189 -142l37 -53zM57 0l88 500h81l-88 -500h-81z" />
    <glyph glyph-name="icircumflex" unicode="&#xee;" horiz-adv-x="193" 
d="M213 767l-190 -149l37 -55l156 128l109 -136l51 44l-138 166zM57 0l88 500h81l-88 -500h-81z" />
    <glyph glyph-name="idieresis" unicode="&#xef;" horiz-adv-x="193" 
d="M240 622q0 23 15.5 38.5t38.5 15.5t38.5 -15.5t15.5 -38.5t-15.5 -38.5t-38.5 -15.5t-38.5 15.5t-15.5 38.5zM40 622q0 23 15.5 38.5t38.5 15.5t38.5 -15.5t15.5 -38.5t-15.5 -38.5t-38.5 -15.5t-38.5 15.5t-15.5 38.5zM57 0l88 500h81l-88 -500h-81z" />
    <glyph glyph-name="eth" unicode="&#xf0;" horiz-adv-x="610" 
d="M646 737l-279 -151l28 -53l278 150zM520 247q0 -74 -60 -129t-142 -55q-72 0 -118.5 43t-46.5 109q0 77 55 129t136 52q76 0 126 -42t50 -107zM72 206q0 -97 69 -160t176 -63q73 0 133.5 30t99.5 86q38 53 59.5 136.5t21.5 174.5q0 142 -65 236.5t-182 120.5l-33 -74
q96 -21 148.5 -96.5t52.5 -193.5q0 -29 -3 -60q-22 58 -81 94t-132 36q-108 0 -186 -79t-78 -188z" />
    <glyph glyph-name="ntilde" unicode="&#xf1;" horiz-adv-x="543" 
d="M315 717q-39 0 -71 -31.5t-54 -88.5l61 -18q26 72 61 72q13 0 23.5 -6.5t26.5 -26.5q21 -25 40 -35t44 -10q41 0 73 31.5t52 88.5l-58 18q-13 -33 -30.5 -51t-36.5 -18q-15 0 -25 6.5t-25 25.5q-21 24 -38.5 33.5t-42.5 9.5zM55 0l88 500h82l-88 -500h-82zM408 0l50 278
q12 70 -20.5 115t-94.5 45q-58 0 -100.5 -39.5t-54.5 -103.5h-42q17 90 80.5 153.5t143.5 63.5q89 0 138 -68t31 -166l-49 -278h-82z" />
    <glyph glyph-name="ograve" unicode="&#xf2;" horiz-adv-x="618" 
d="M295 732l49 48l143 -170l-46 -43zM369 443q-87 0 -147.5 -62.5t-60.5 -149.5q0 -76 51 -124t127 -48q87 0 147.5 62.5t60.5 149.5q0 76 -51 124t-127 48zM81 224q0 122 85.5 209t208.5 87q108 0 180 -68t72 -174q0 -122 -85.5 -209t-208.5 -87q-108 0 -180 68t-72 174z
" />
    <glyph glyph-name="oacute" unicode="&#xf3;" horiz-adv-x="618" 
d="M566 705l-39 57l-189 -142l37 -53zM369 443q-87 0 -147.5 -62.5t-60.5 -149.5q0 -76 51 -124t127 -48q87 0 147.5 62.5t60.5 149.5q0 76 -51 124t-127 48zM81 224q0 122 85.5 209t208.5 87q108 0 180 -68t72 -174q0 -122 -85.5 -209t-208.5 -87q-108 0 -180 68t-72 174z
" />
    <glyph glyph-name="ocircumflex" unicode="&#xf4;" horiz-adv-x="618" 
d="M426 766l-190 -149l37 -55l156 128l109 -136l51 44l-138 166zM369 443q-87 0 -147.5 -62.5t-60.5 -149.5q0 -76 51 -124t127 -48q87 0 147.5 62.5t60.5 149.5q0 76 -51 124t-127 48zM81 224q0 122 85.5 209t208.5 87q108 0 180 -68t72 -174q0 -122 -85.5 -209t-208.5 -87
q-108 0 -180 68t-72 174z" />
    <glyph glyph-name="otilde" unicode="&#xf5;" horiz-adv-x="618" 
d="M353 711q-39 0 -71 -31.5t-54 -88.5l61 -18q26 72 61 72q13 0 23.5 -6.5t26.5 -26.5q21 -25 40 -35t44 -10q41 0 73 31.5t52 88.5l-58 18q-13 -33 -30.5 -51t-36.5 -18q-15 0 -25 6.5t-25 25.5q-21 24 -38.5 33.5t-42.5 9.5zM369 443q-87 0 -147.5 -62.5t-60.5 -149.5
q0 -76 51 -124t127 -48q87 0 147.5 62.5t60.5 149.5q0 76 -51 124t-127 48zM81 224q0 122 85.5 209t208.5 87q108 0 180 -68t72 -174q0 -122 -85.5 -209t-208.5 -87q-108 0 -180 68t-72 174z" />
    <glyph glyph-name="odieresis" unicode="&#xf6;" horiz-adv-x="618" 
d="M453 621q0 23 15.5 38.5t38.5 15.5t38.5 -15.5t15.5 -38.5t-15.5 -38.5t-38.5 -15.5t-38.5 15.5t-15.5 38.5zM253 621q0 23 15.5 38.5t38.5 15.5t38.5 -15.5t15.5 -38.5t-15.5 -38.5t-38.5 -15.5t-38.5 15.5t-15.5 38.5zM369 443q-87 0 -147.5 -62.5t-60.5 -149.5
q0 -76 51 -124t127 -48q87 0 147.5 62.5t60.5 149.5q0 76 -51 124t-127 48zM81 224q0 122 85.5 209t208.5 87q108 0 180 -68t72 -174q0 -122 -85.5 -209t-208.5 -87q-108 0 -180 68t-72 174z" />
    <glyph glyph-name="divide" unicode="&#xf7;" horiz-adv-x="377" 
d="M196 426q0 28 18 46.5t45 18.5q28 0 46.5 -18.5t18.5 -46.5q0 -27 -18 -45.5t-45.5 -18.5t-46 18.5t-18.5 45.5zM140 102q0 27 18 45.5t44 18.5q28 0 47 -18.5t19 -45.5q0 -28 -18.5 -46t-46 -18t-45.5 18t-18 46zM401 302l-13 -72h-319l13 72h319z" />
    <glyph glyph-name="oslash" unicode="&#xf8;" horiz-adv-x="618" 
d="M369 443q-87 0 -147.5 -62.5t-60.5 -149.5q0 -76 51 -124t127 -48q87 0 147.5 62.5t60.5 149.5q0 76 -51 124t-127 48zM81 224q0 122 85.5 209t208.5 87q108 0 180 -68t72 -174q0 -122 -85.5 -209t-208.5 -87q-108 0 -180 68t-72 174zM575 522l45 -45l-495 -495l-45 45z
" />
    <glyph glyph-name="ugrave" unicode="&#xf9;" horiz-adv-x="538" 
d="M255 732l49 48l143 -170l-46 -43zM565 500l-88 -500h-81l88 500h81zM232 500l-55 -308q-11 -63 19 -96.5t90 -33.5q53 0 92.5 31t48.5 82h43q-17 -81 -76.5 -133.5t-135.5 -52.5q-85 0 -132 54t-31 146l56 311h81z" />
    <glyph glyph-name="uacute" unicode="&#xfa;" horiz-adv-x="538" 
d="M526 705l-39 57l-189 -142l37 -53zM565 500l-88 -500h-81l88 500h81zM232 500l-55 -308q-11 -63 19 -96.5t90 -33.5q53 0 92.5 31t48.5 82h43q-17 -81 -76.5 -133.5t-135.5 -52.5q-85 0 -132 54t-31 146l56 311h81z" />
    <glyph glyph-name="ucircumflex" unicode="&#xfb;" horiz-adv-x="538" 
d="M386 766l-190 -149l37 -55l156 128l109 -136l51 44l-138 166zM565 500l-88 -500h-81l88 500h81zM232 500l-55 -308q-11 -63 19 -96.5t90 -33.5q53 0 92.5 31t48.5 82h43q-17 -81 -76.5 -133.5t-135.5 -52.5q-85 0 -132 54t-31 146l56 311h81z" />
    <glyph glyph-name="udieresis" unicode="&#xfc;" horiz-adv-x="538" 
d="M413 621q0 23 15.5 38.5t38.5 15.5t38.5 -15.5t15.5 -38.5t-15.5 -38.5t-38.5 -15.5t-38.5 15.5t-15.5 38.5zM213 621q0 23 15.5 38.5t38.5 15.5t38.5 -15.5t15.5 -38.5t-15.5 -38.5t-38.5 -15.5t-38.5 15.5t-15.5 38.5zM565 500l-88 -500h-81l88 500h81zM232 500
l-55 -308q-11 -63 19 -96.5t90 -33.5q53 0 92.5 31t48.5 82h43q-17 -81 -76.5 -133.5t-135.5 -52.5q-85 0 -132 54t-31 146l56 311h81z" />
    <glyph glyph-name="yacute" unicode="&#xfd;" horiz-adv-x="556" 
d="M528 704l-39 57l-189 -142l37 -53zM527 500l-237 -398l-88 398h-84l110 -488l-123 -212h93l419 700h-90z" />
    <glyph glyph-name="thorn" unicode="&#xfe;" horiz-adv-x="638" 
d="M18 -200l166 950h81l-167 -950h-80zM385 443q-87 0 -147.5 -62.5t-60.5 -149.5q0 -75 51 -123t127 -48q87 0 147 62.5t60 149.5q0 75 -50.5 123t-126.5 48zM138 215q0 80 36 150t99 112t139 42q97 0 164 -66.5t67 -170.5q0 -80 -37 -149t-102 -110.5t-142 -41.5
q-99 0 -161.5 66t-62.5 168z" />
    <glyph glyph-name="ydieresis" unicode="&#xff;" horiz-adv-x="556" 
d="M415 620q0 23 15.5 38.5t38.5 15.5t38.5 -15.5t15.5 -38.5t-15.5 -38.5t-38.5 -15.5t-38.5 15.5t-15.5 38.5zM215 620q0 23 15.5 38.5t38.5 15.5t38.5 -15.5t15.5 -38.5t-15.5 -38.5t-38.5 -15.5t-38.5 15.5t-15.5 38.5zM527 500l-237 -398l-88 398h-84l110 -488
l-123 -212h93l419 700h-90z" />
    <glyph glyph-name="Amacron" unicode="&#x100;" horiz-adv-x="763" 
d="M684 854l-11 -67h-307l11 67h307zM127 0h-95l421 700h107l174 -700h-87l-152 610zM223 266h412l-13 -77h-412z" />
    <glyph glyph-name="amacron" unicode="&#x101;" horiz-adv-x="499" 
d="M503 644l-11 -67h-307l11 67h307zM311 511q80 0 138 -50t58 -120q0 -12 -3 -28l-54 -313h-81l40 224l-139 -12q-57 -4 -89 -24.5t-32 -55.5q0 -31 27.5 -50.5t73.5 -19.5q61 0 102 34t51 93h34q-15 -87 -76 -142.5t-142 -55.5q-67 0 -109 37.5t-42 96.5q0 67 54 109.5
t144 49.5l156 13l2 14q2 15 2 24q0 43 -33.5 72t-82.5 29q-43 0 -80 -22.5t-53 -59.5l-70 34q28 56 83.5 89.5t120.5 33.5z" />
    <glyph glyph-name="Abreve" unicode="&#x102;" horiz-adv-x="763" 
d="M526 785q-61 0 -100.5 37t-39.5 92q0 13 3 26h62q-1 -9 -1 -17q0 -33 23 -54t61 -21q44 0 79.5 27t41.5 65h72q-11 -62 -71 -108.5t-130 -46.5zM127 0h-95l421 700h107l174 -700h-87l-152 610zM223 266h412l-13 -77h-412z" />
    <glyph glyph-name="abreve" unicode="&#x103;" horiz-adv-x="499" 
d="M345 575q-61 0 -100.5 37t-39.5 92q0 13 3 26h62q-1 -9 -1 -17q0 -33 23 -54t61 -21q44 0 79.5 27t41.5 65h72q-11 -62 -71 -108.5t-130 -46.5zM311 511q80 0 138 -50t58 -120q0 -12 -3 -28l-54 -313h-81l40 224l-139 -12q-57 -4 -89 -24.5t-32 -55.5q0 -31 27.5 -50.5
t73.5 -19.5q61 0 102 34t51 93h34q-15 -87 -76 -142.5t-142 -55.5q-67 0 -109 37.5t-42 96.5q0 67 54 109.5t144 49.5l156 13l2 14q2 15 2 24q0 43 -33.5 72t-82.5 29q-43 0 -80 -22.5t-53 -59.5l-70 34q28 56 83.5 89.5t120.5 33.5z" />
    <glyph glyph-name="Aogonek" unicode="&#x104;" horiz-adv-x="763" 
d="M640 -244q-45 0 -73 26t-28 66q0 38 21 65.5t70 53.5l25 13l5 22h58l-8 -49l-63 -31q-46 -23 -46 -64q0 -19 12.5 -30.5t32.5 -11.5q33 0 48 35l53 -21q-15 -34 -43.5 -54t-63.5 -20zM127 0h-95l421 700h107l174 -700h-87l-152 610zM223 266h412l-13 -77h-412z" />
    <glyph glyph-name="aogonek" unicode="&#x105;" horiz-adv-x="499" 
d="M362 -244q-45 0 -73 26t-28 66q0 38 21 65.5t70 53.5l25 13l5 22h58l-8 -49l-63 -31q-46 -23 -46 -64q0 -19 12.5 -30.5t32.5 -11.5q33 0 48 35l53 -21q-15 -34 -43.5 -54t-63.5 -20zM311 511q80 0 138 -50t58 -120q0 -12 -3 -28l-54 -313h-81l40 224l-139 -12
q-57 -4 -89 -24.5t-32 -55.5q0 -31 27.5 -50.5t73.5 -19.5q61 0 102 34t51 93h34q-15 -87 -76 -142.5t-142 -55.5q-67 0 -109 37.5t-42 96.5q0 67 54 109.5t144 49.5l156 13l2 14q2 15 2 24q0 43 -33.5 72t-82.5 29q-43 0 -80 -22.5t-53 -59.5l-70 34q28 56 83.5 89.5
t120.5 33.5z" />
    <glyph glyph-name="Cacute" unicode="&#x106;" horiz-adv-x="778" 
d="M690 913l-39 57l-189 -142l37 -53zM99 312q0 112 52.5 205.5t143 147.5t198.5 54q109 0 194 -60t116 -168l-77 -26q-22 79 -87.5 126.5t-152.5 47.5q-83 0 -153.5 -43t-111.5 -117t-41 -161q0 -112 72.5 -184.5t184.5 -72.5q77 0 145.5 43.5t111.5 119.5l70 -38
q-55 -97 -143.5 -151t-189.5 -54q-143 0 -237.5 94t-94.5 237z" />
    <glyph glyph-name="cacute" unicode="&#x107;" horiz-adv-x="586" 
d="M562 704l-39 57l-189 -142l37 -53zM367 442q-85 0 -144.5 -62.5t-59.5 -151.5q0 -74 48.5 -122t123.5 -48q57 0 106.5 28.5t77.5 78.5l66 -38q-40 -69 -107.5 -107.5t-148.5 -38.5q-107 0 -176.5 68t-69.5 173q0 123 85 210t205 87q86 0 150 -42.5t89 -112.5l-76 -32
q-17 51 -62 80.5t-107 29.5z" />
    <glyph glyph-name="Ccircumflex" unicode="&#x108;" horiz-adv-x="778" 
d="M550 974l-190 -149l37 -55l156 128l109 -136l51 44l-138 166zM99 312q0 112 52.5 205.5t143 147.5t198.5 54q109 0 194 -60t116 -168l-77 -26q-22 79 -87.5 126.5t-152.5 47.5q-83 0 -153.5 -43t-111.5 -117t-41 -161q0 -112 72.5 -184.5t184.5 -72.5q77 0 145.5 43.5
t111.5 119.5l70 -38q-55 -97 -143.5 -151t-189.5 -54q-143 0 -237.5 94t-94.5 237z" />
    <glyph glyph-name="ccircumflex" unicode="&#x109;" horiz-adv-x="586" 
d="M422 765l-190 -149l37 -55l156 128l109 -136l51 44l-138 166zM367 442q-85 0 -144.5 -62.5t-59.5 -151.5q0 -74 48.5 -122t123.5 -48q57 0 106.5 28.5t77.5 78.5l66 -38q-40 -69 -107.5 -107.5t-148.5 -38.5q-107 0 -176.5 68t-69.5 173q0 123 85 210t205 87
q86 0 150 -42.5t89 -112.5l-76 -32q-17 51 -62 80.5t-107 29.5z" />
    <glyph glyph-name="Cdotaccent" unicode="&#x10a;" horiz-adv-x="778" 
d="M478 829q0 23 15.5 38.5t38.5 15.5t38.5 -15.5t15.5 -38.5t-15.5 -38.5t-38.5 -15.5t-38.5 15.5t-15.5 38.5zM99 312q0 112 52.5 205.5t143 147.5t198.5 54q109 0 194 -60t116 -168l-77 -26q-22 79 -87.5 126.5t-152.5 47.5q-83 0 -153.5 -43t-111.5 -117t-41 -161
q0 -112 72.5 -184.5t184.5 -72.5q77 0 145.5 43.5t111.5 119.5l70 -38q-55 -97 -143.5 -151t-189.5 -54q-143 0 -237.5 94t-94.5 237z" />
    <glyph glyph-name="cdotaccent" unicode="&#x10b;" horiz-adv-x="586" 
d="M350 620q0 23 15.5 38.5t38.5 15.5t38.5 -15.5t15.5 -38.5t-15.5 -38.5t-38.5 -15.5t-38.5 15.5t-15.5 38.5zM367 442q-85 0 -144.5 -62.5t-59.5 -151.5q0 -74 48.5 -122t123.5 -48q57 0 106.5 28.5t77.5 78.5l66 -38q-40 -69 -107.5 -107.5t-148.5 -38.5
q-107 0 -176.5 68t-69.5 173q0 123 85 210t205 87q86 0 150 -42.5t89 -112.5l-76 -32q-17 51 -62 80.5t-107 29.5z" />
    <glyph glyph-name="Ccaron" unicode="&#x10c;" horiz-adv-x="778" 
d="M544 770l190 150l-36 54l-156 -127l-110 135l-51 -44l139 -165zM99 312q0 112 52.5 205.5t143 147.5t198.5 54q109 0 194 -60t116 -168l-77 -26q-22 79 -87.5 126.5t-152.5 47.5q-83 0 -153.5 -43t-111.5 -117t-41 -161q0 -112 72.5 -184.5t184.5 -72.5q77 0 145.5 43.5
t111.5 119.5l70 -38q-55 -97 -143.5 -151t-189.5 -54q-143 0 -237.5 94t-94.5 237z" />
    <glyph glyph-name="ccaron" unicode="&#x10d;" horiz-adv-x="586" 
d="M416 561l190 150l-36 54l-156 -127l-110 135l-51 -44l139 -165zM367 442q-85 0 -144.5 -62.5t-59.5 -151.5q0 -74 48.5 -122t123.5 -48q57 0 106.5 28.5t77.5 78.5l66 -38q-40 -69 -107.5 -107.5t-148.5 -38.5q-107 0 -176.5 68t-69.5 173q0 123 85 210t205 87
q86 0 150 -42.5t89 -112.5l-76 -32q-17 51 -62 80.5t-107 29.5z" />
    <glyph glyph-name="Dcaron" unicode="&#x10e;" horiz-adv-x="700" 
d="M461 772l190 150l-36 54l-156 -127l-110 135l-51 -44l139 -165zM726 412q0 -82 -30.5 -157t-83.5 -131.5t-131 -90t-167 -33.5h-260l124 700h254q132 0 213 -80t81 -208zM317 77q97 0 173 45.5t115.5 119t39.5 160.5q0 100 -62.5 160.5t-168.5 60.5h-168l-97 -546h168z
" />
    <glyph glyph-name="dcaron" unicode="&#x10f;" horiz-adv-x="784" 
d="M828 777l71 -20l-99 -228l-67 18zM587 0h-81l132 750h80zM343 60q87 0 147.5 62.5t60.5 149.5q0 75 -51 123t-127 48q-87 0 -147 -62.5t-60 -149.5q0 -75 50.5 -123t126.5 -48zM590 287q0 -80 -36 -149.5t-99.5 -111.5t-138.5 -42q-97 0 -164 66t-67 171q0 80 37 149
t102 110.5t142 41.5q98 0 161 -66.5t63 -168.5z" />
    <glyph glyph-name="Dcroat" unicode="&#x110;" horiz-adv-x="703" 
d="M726 409q0 -111 -51.5 -204t-146.5 -149t-214 -56h-217l123 700h212q132 0 213 -82t81 -209zM317 77q97 0 173 45.5t115.5 119t39.5 160.5q0 100 -62.5 160.5t-168.5 60.5h-126l-96 -546h125zM414 394l-13 -72h-344l13 72h344z" />
    <glyph glyph-name="dcroat" unicode="&#x111;" horiz-adv-x="668" 
d="M590 287q0 -80 -36 -149.5t-99.5 -111.5t-138.5 -42q-97 0 -164 66t-67 171q0 80 37 149t102 110.5t142 41.5q98 0 161 -66.5t63 -168.5zM343 60q87 0 147.5 62.5t60.5 149.5q0 75 -51 123t-127 48q-87 0 -147 -62.5t-60 -149.5q0 -75 50.5 -123t126.5 -48zM587 0h-81
l104 592h-207l12 69h207l16 89h80l-16 -89h82l-12 -69h-82z" />
    <glyph glyph-name="Emacron" unicode="&#x112;" horiz-adv-x="561" 
d="M586 853l-11 -67h-307l11 67h307zM206 403h366l-14 -78h-365l-43 -247h386l-14 -78h-467l123 700h466l-13 -78h-385z" />
    <glyph glyph-name="emacron" unicode="&#x113;" horiz-adv-x="596" 
d="M559 644l-11 -67h-307l11 67h307zM528 305q-4 62 -48.5 100.5t-108.5 38.5q-70 0 -128 -43t-74 -113h359q1 8 0 17zM606 284q0 -30 -10 -68h-433q2 -70 50.5 -114t121.5 -44q55 0 102.5 26t77.5 73l65 -43q-44 -65 -109 -98.5t-141 -33.5q-107 0 -178.5 68t-71.5 174
q0 79 39 147t107 108.5t148 40.5q99 0 165.5 -66t66.5 -170z" />
    <glyph glyph-name="Ebreve" unicode="&#x114;" horiz-adv-x="561" 
d="M428 784q-61 0 -100.5 37t-39.5 92q0 13 3 26h62q-1 -9 -1 -17q0 -33 23 -54t61 -21q44 0 79.5 27t41.5 65h72q-11 -62 -71 -108.5t-130 -46.5zM206 403h366l-14 -78h-365l-43 -247h386l-14 -78h-467l123 700h466l-13 -78h-385z" />
    <glyph glyph-name="ebreve" unicode="&#x115;" horiz-adv-x="596" 
d="M401 575q-61 0 -100.5 37t-39.5 92q0 13 3 26h62q-1 -9 -1 -17q0 -33 23 -54t61 -21q44 0 79.5 27t41.5 65h72q-11 -62 -71 -108.5t-130 -46.5zM528 305q-4 62 -48.5 100.5t-108.5 38.5q-70 0 -128 -43t-74 -113h359q1 8 0 17zM606 284q0 -30 -10 -68h-433
q2 -70 50.5 -114t121.5 -44q55 0 102.5 26t77.5 73l65 -43q-44 -65 -109 -98.5t-141 -33.5q-107 0 -178.5 68t-71.5 174q0 79 39 147t107 108.5t148 40.5q99 0 165.5 -66t66.5 -170z" />
    <glyph glyph-name="Edotaccent" unicode="&#x116;" horiz-adv-x="561" 
d="M369 830q0 23 15.5 38.5t38.5 15.5t38.5 -15.5t15.5 -38.5t-15.5 -38.5t-38.5 -15.5t-38.5 15.5t-15.5 38.5zM206 403h366l-14 -78h-365l-43 -247h386l-14 -78h-467l123 700h466l-13 -78h-385z" />
    <glyph glyph-name="edotaccent" unicode="&#x117;" horiz-adv-x="596" 
d="M342 621q0 23 15.5 38.5t38.5 15.5t38.5 -15.5t15.5 -38.5t-15.5 -38.5t-38.5 -15.5t-38.5 15.5t-15.5 38.5zM528 305q-4 62 -48.5 100.5t-108.5 38.5q-70 0 -128 -43t-74 -113h359q1 8 0 17zM606 284q0 -30 -10 -68h-433q2 -70 50.5 -114t121.5 -44q55 0 102.5 26
t77.5 73l65 -43q-44 -65 -109 -98.5t-141 -33.5q-107 0 -178.5 68t-71.5 174q0 79 39 147t107 108.5t148 40.5q99 0 165.5 -66t66.5 -170z" />
    <glyph glyph-name="Eogonek" unicode="&#x118;" horiz-adv-x="561" 
d="M439 -244q-45 0 -73 26t-28 66q0 38 21 65.5t70 53.5l25 13l5 22h58l-8 -49l-63 -31q-46 -23 -46 -64q0 -19 12.5 -30.5t32.5 -11.5q33 0 48 35l53 -21q-15 -34 -43.5 -54t-63.5 -20zM206 403h366l-14 -78h-365l-43 -247h386l-14 -78h-467l123 700h466l-13 -78h-385z" />
    <glyph glyph-name="eogonek" unicode="&#x119;" horiz-adv-x="596" 
d="M251 -243q-45 0 -73 26t-28 66q0 38 21 65.5t70 53.5l25 13l5 22h58l-8 -49l-63 -31q-46 -23 -46 -64q0 -19 12.5 -30.5t32.5 -11.5q33 0 48 35l53 -21q-15 -34 -43.5 -54t-63.5 -20zM528 305q-4 62 -48.5 100.5t-108.5 38.5q-70 0 -128 -43t-74 -113h359q1 8 0 17z
M606 284q0 -30 -10 -68h-433q2 -70 50.5 -114t121.5 -44q55 0 102.5 26t77.5 73l65 -43q-44 -65 -109 -98.5t-141 -33.5q-107 0 -178.5 68t-71.5 174q0 79 39 147t107 108.5t148 40.5q99 0 165.5 -66t66.5 -170z" />
    <glyph glyph-name="Ecaron" unicode="&#x11a;" horiz-adv-x="561" 
d="M435 771l190 150l-36 54l-156 -127l-110 135l-51 -44l139 -165zM206 403h366l-14 -78h-365l-43 -247h386l-14 -78h-467l123 700h466l-13 -78h-385z" />
    <glyph glyph-name="ecaron" unicode="&#x11b;" horiz-adv-x="596" 
d="M408 562l190 150l-36 54l-156 -127l-110 135l-51 -44l139 -165zM528 305q-4 62 -48.5 100.5t-108.5 38.5q-70 0 -128 -43t-74 -113h359q1 8 0 17zM606 284q0 -30 -10 -68h-433q2 -70 50.5 -114t121.5 -44q55 0 102.5 26t77.5 73l65 -43q-44 -65 -109 -98.5t-141 -33.5
q-107 0 -178.5 68t-71.5 174q0 79 39 147t107 108.5t148 40.5q99 0 165.5 -66t66.5 -170z" />
    <glyph glyph-name="Gcircumflex" unicode="&#x11c;" 
d="M529 974l-190 -149l37 -55l156 128l109 -136l51 44l-138 166zM493 640q-130 0 -222 -93t-92 -226q0 -113 71.5 -186t182.5 -73q110 0 186.5 61.5t100.5 170.5h-300l12 70h382q-9 -168 -117 -275t-269 -107q-144 0 -236.5 93.5t-92.5 238.5q0 110 54 203.5t146 148
t202 54.5q107 0 190.5 -60t112.5 -158l-77 -28q-23 76 -86.5 121t-147.5 45z" />
    <glyph glyph-name="gcircumflex" unicode="&#x11d;" horiz-adv-x="598" 
d="M404 765l-190 -149l37 -55l156 128l109 -136l51 44l-138 166zM549 302q0 -114 -74 -196.5t-178 -82.5q-93 0 -154 62.5t-61 156.5q0 114 76.5 195.5t183.5 81.5q91 0 149 -61.5t58 -155.5zM322 99q77 0 131 54.5t54 132.5q0 66 -45 109t-115 43q-77 0 -131 -54.5
t-54 -132.5q0 -66 45 -109t115 -43zM114 -17q15 -61 60.5 -96t110.5 -35q66 0 113.5 34.5t56.5 89.5l92 524h80l-93 -531q-15 -88 -86 -143t-168 -55q-51 0 -98.5 18t-87.5 59t-56 99z" />
    <glyph glyph-name="Gbreve" unicode="&#x11e;" 
d="M516 783q-61 0 -100.5 37t-39.5 92q0 13 3 26h62q-1 -9 -1 -17q0 -33 23 -54t61 -21q44 0 79.5 27t41.5 65h72q-11 -62 -71 -108.5t-130 -46.5zM493 640q-130 0 -222 -93t-92 -226q0 -113 71.5 -186t182.5 -73q110 0 186.5 61.5t100.5 170.5h-300l12 70h382
q-9 -168 -117 -275t-269 -107q-144 0 -236.5 93.5t-92.5 238.5q0 110 54 203.5t146 148t202 54.5q107 0 190.5 -60t112.5 -158l-77 -28q-23 76 -86.5 121t-147.5 45z" />
    <glyph glyph-name="gbreve" unicode="&#x11f;" horiz-adv-x="598" 
d="M391 574q-61 0 -100.5 37t-39.5 92q0 13 3 26h62q-1 -9 -1 -17q0 -33 23 -54t61 -21q44 0 79.5 27t41.5 65h72q-11 -62 -71 -108.5t-130 -46.5zM549 302q0 -114 -74 -196.5t-178 -82.5q-93 0 -154 62.5t-61 156.5q0 114 76.5 195.5t183.5 81.5q91 0 149 -61.5t58 -155.5z
M322 99q77 0 131 54.5t54 132.5q0 66 -45 109t-115 43q-77 0 -131 -54.5t-54 -132.5q0 -66 45 -109t115 -43zM114 -17q15 -61 60.5 -96t110.5 -35q66 0 113.5 34.5t56.5 89.5l92 524h80l-93 -531q-15 -88 -86 -143t-168 -55q-51 0 -98.5 18t-87.5 59t-56 99z" />
    <glyph glyph-name="Gdotaccent" unicode="&#x120;" 
d="M457 829q0 23 15.5 38.5t38.5 15.5t38.5 -15.5t15.5 -38.5t-15.5 -38.5t-38.5 -15.5t-38.5 15.5t-15.5 38.5zM493 640q-130 0 -222 -93t-92 -226q0 -113 71.5 -186t182.5 -73q110 0 186.5 61.5t100.5 170.5h-300l12 70h382q-9 -168 -117 -275t-269 -107
q-144 0 -236.5 93.5t-92.5 238.5q0 110 54 203.5t146 148t202 54.5q107 0 190.5 -60t112.5 -158l-77 -28q-23 76 -86.5 121t-147.5 45z" />
    <glyph glyph-name="gdotaccent" unicode="&#x121;" horiz-adv-x="598" 
d="M332 620q0 23 15.5 38.5t38.5 15.5t38.5 -15.5t15.5 -38.5t-15.5 -38.5t-38.5 -15.5t-38.5 15.5t-15.5 38.5zM549 302q0 -114 -74 -196.5t-178 -82.5q-93 0 -154 62.5t-61 156.5q0 114 76.5 195.5t183.5 81.5q91 0 149 -61.5t58 -155.5zM322 99q77 0 131 54.5t54 132.5
q0 66 -45 109t-115 43q-77 0 -131 -54.5t-54 -132.5q0 -66 45 -109t115 -43zM114 -17q15 -61 60.5 -96t110.5 -35q66 0 113.5 34.5t56.5 89.5l92 524h80l-93 -531q-15 -88 -86 -143t-168 -55q-51 0 -98.5 18t-87.5 59t-56 99z" />
    <glyph glyph-name="uni0122" unicode="&#x122;" 
d="M427 -208q0 -25 -17.5 -43t-41.5 -18q-25 0 -42 16.5t-17 40.5q0 27 19 46l112 114l31 -32l-72 -74q28 -17 28 -50zM493 640q-130 0 -222 -93t-92 -226q0 -113 71.5 -186t182.5 -73q110 0 186.5 61.5t100.5 170.5h-300l12 70h382q-9 -168 -117 -275t-269 -107
q-144 0 -236.5 93.5t-92.5 238.5q0 110 54 203.5t146 148t202 54.5q107 0 190.5 -60t112.5 -158l-77 -28q-23 76 -86.5 121t-147.5 45z" />
    <glyph glyph-name="uni0123" unicode="&#x123;" horiz-adv-x="598" 
d="M452 625q-4 -24 -23 -41.5t-44.5 -17.5t-40 16.5t-9.5 41.5q3 22 18 38l113 128l32 -27l-73 -83q16 -7 23 -22t4 -33zM549 302q0 -114 -74 -196.5t-178 -82.5q-93 0 -154 62.5t-61 156.5q0 114 76.5 195.5t183.5 81.5q91 0 149 -61.5t58 -155.5zM322 99q77 0 131 54.5
t54 132.5q0 66 -45 109t-115 43q-77 0 -131 -54.5t-54 -132.5q0 -66 45 -109t115 -43zM114 -17q15 -61 60.5 -96t110.5 -35q66 0 113.5 34.5t56.5 89.5l92 524h80l-93 -531q-15 -88 -86 -143t-168 -55q-51 0 -98.5 18t-87.5 59t-56 99z" />
    <glyph glyph-name="Hcircumflex" unicode="&#x124;" horiz-adv-x="685" 
d="M496 974l-190 -149l37 -55l156 128l109 -136l51 44l-138 166zM56 0l122 700h81l-54 -303h412l53 303h80l-122 -700h-81l56 320h-411l-56 -320h-80z" />
    <glyph glyph-name="hcircumflex" unicode="&#x125;" horiz-adv-x="543" 
d="M253 999l-190 -149l37 -55l156 128l109 -136l51 44l-138 166zM55 0l132 750h81l-131 -750h-82zM408 0l50 278q12 70 -20.5 115t-94.5 45q-58 0 -100.5 -39.5t-54.5 -103.5h-42q18 95 80.5 156t143.5 61q89 0 138 -68t31 -166l-49 -278h-82z" />
    <glyph glyph-name="Hbar" unicode="&#x126;" horiz-adv-x="685" 
d="M785 568l-13 -72h-57l-87 -496h-83l55 310h-405l-55 -310h-82l87 496h-58l13 72h58l23 132h82l-23 -132h405l23 132h83l-23 -132h57zM227 496l-19 -108h405l19 108h-405z" />
    <glyph glyph-name="hbar" unicode="&#x127;" horiz-adv-x="545" 
d="M411 0l49 278q13 70 -20 115t-95 45q-58 0 -100 -39.5t-55 -103.5h-42q19 95 81.5 156t142.5 61q89 0 138.5 -68t31.5 -166l-50 -278h-81zM58 0l107 612h-57l13 72h56l12 66h82l-12 -66h182l-13 -72h-182l-107 -612h-81z" />
    <glyph glyph-name="Itilde" unicode="&#x128;" horiz-adv-x="195" 
d="M176 919q-39 0 -71 -31.5t-54 -88.5l61 -18q26 72 61 72q13 0 23.5 -6.5t26.5 -26.5q21 -25 40 -35t44 -10q41 0 73 31.5t52 88.5l-58 18q-13 -33 -30.5 -51t-36.5 -18q-15 0 -25 6.5t-25 25.5q-21 24 -38.5 33.5t-42.5 9.5zM136 0h-81l123 700h80z" />
    <glyph glyph-name="itilde" unicode="&#x129;" horiz-adv-x="193" 
d="M140 712q-39 0 -71 -31.5t-54 -88.5l61 -18q26 72 61 72q13 0 23.5 -6.5t26.5 -26.5q21 -25 40 -35t44 -10q41 0 73 31.5t52 88.5l-58 18q-13 -33 -30.5 -51t-36.5 -18q-15 0 -25 6.5t-25 25.5q-21 24 -38.5 33.5t-42.5 9.5zM57 0l88 500h81l-88 -500h-81z" />
    <glyph glyph-name="Imacron" unicode="&#x12a;" horiz-adv-x="195" 
d="M394 852l-11 -67h-307l11 67h307zM136 0h-81l123 700h80z" />
    <glyph glyph-name="imacron" unicode="&#x12b;" horiz-adv-x="193" 
d="M358 645l-11 -67h-307l11 67h307zM57 0l88 500h81l-88 -500h-81z" />
    <glyph glyph-name="Ibreve" unicode="&#x12c;" horiz-adv-x="195" 
d="M236 783q-61 0 -100.5 37t-39.5 92q0 13 3 26h62q-1 -9 -1 -17q0 -33 23 -54t61 -21q44 0 79.5 27t41.5 65h72q-11 -62 -71 -108.5t-130 -46.5zM136 0h-81l123 700h80z" />
    <glyph glyph-name="ibreve" unicode="&#x12d;" horiz-adv-x="193" 
d="M200 576q-61 0 -100.5 37t-39.5 92q0 13 3 26h62q-1 -9 -1 -17q0 -33 23 -54t61 -21q44 0 79.5 27t41.5 65h72q-11 -62 -71 -108.5t-130 -46.5zM57 0l88 500h81l-88 -500h-81z" />
    <glyph glyph-name="Iogonek" unicode="&#x12e;" horiz-adv-x="195" 
d="M46 -244q-45 0 -73 26t-28 66q0 38 21 65.5t70 53.5l25 13l5 22h58l-8 -49l-63 -31q-46 -23 -46 -64q0 -19 12.5 -30.5t32.5 -11.5q33 0 48 35l53 -21q-15 -34 -43.5 -54t-63.5 -20zM136 0h-81l123 700h80z" />
    <glyph glyph-name="iogonek" unicode="&#x12f;" horiz-adv-x="193" 
d="M47 -244q-45 0 -73 26t-28 66q0 38 21 65.5t70 53.5l25 13l5 22h58l-8 -49l-63 -31q-46 -23 -46 -64q0 -19 12.5 -30.5t32.5 -11.5q33 0 48 35l53 -21q-15 -34 -43.5 -54t-63.5 -20zM159 636q0 23 15.5 38.5t38.5 15.5t38.5 -15.5t15.5 -38.5t-15.5 -38.5t-38.5 -15.5
t-38.5 15.5t-15.5 38.5zM57 0l88 500h81l-88 -500h-81z" />
    <glyph glyph-name="Idotaccent" unicode="&#x130;" horiz-adv-x="195" 
d="M177 829q0 23 15.5 38.5t38.5 15.5t38.5 -15.5t15.5 -38.5t-15.5 -38.5t-38.5 -15.5t-38.5 15.5t-15.5 38.5zM136 0h-81l123 700h80z" />
    <glyph glyph-name="dotlessi" unicode="&#x131;" horiz-adv-x="193" 
d="M57 0l88 500h81l-88 -500h-81z" />
    <glyph glyph-name="IJ" unicode="&#x132;" horiz-adv-x="793" 
d="M339 207q11 -66 54.5 -101.5t114.5 -35.5q73 0 123.5 45t64.5 122l81 463h80l-84 -479q-18 -101 -95 -166t-179 -65q-97 0 -161 53.5t-76 144.5zM136 0h-81l123 700h80z" />
    <glyph glyph-name="ij" unicode="&#x133;" horiz-adv-x="386" 
d="M352 636q0 23 15.5 38.5t38.5 15.5t38.5 -15.5t15.5 -38.5t-15.5 -38.5t-38.5 -15.5t-38.5 15.5t-15.5 38.5zM165 -100q32 0 54 23t28 58l91 519h81l-97 -550q-10 -54 -51.5 -91t-98.5 -37h-42l11 78h24zM159 636q0 23 15.5 38.5t38.5 15.5t38.5 -15.5t15.5 -38.5
t-15.5 -38.5t-38.5 -15.5t-38.5 15.5t-15.5 38.5zM57 0l88 500h81l-88 -500h-81z" />
    <glyph glyph-name="Jcircumflex" unicode="&#x134;" horiz-adv-x="598" 
d="M647 956l-190 -149l37 -55l156 128l109 -136l51 44l-138 166zM144 207q11 -66 54.5 -101.5t114.5 -35.5q73 0 123.5 45t64.5 122l81 463h80l-84 -479q-18 -101 -95 -166t-179 -65q-97 0 -161 53.5t-76 144.5z" />
    <glyph glyph-name="jcircumflex" unicode="&#x135;" horiz-adv-x="193" 
d="M215 767l-190 -149l37 -55l156 128l109 -136l51 44l-138 166zM-28 -100q32 0 54 23t28 58l91 519h81l-97 -550q-10 -54 -51.5 -91t-98.5 -37h-42l11 78h24z" />
    <glyph glyph-name="uni0136" unicode="&#x136;" horiz-adv-x="613" 
d="M301 -209q0 -25 -17.5 -43t-41.5 -18q-25 0 -42 16.5t-17 40.5q0 27 19 46l112 114l31 -32l-72 -74q28 -17 28 -50zM55 0l123 700h80l-53 -308h30l361 308h113l-408 -351l282 -349h-104l-254 308h-35l-54 -308h-81z" />
    <glyph glyph-name="uni0137" unicode="&#x137;" horiz-adv-x="501" 
d="M255 -207q0 -25 -17.5 -43t-41.5 -18q-25 0 -42 16.5t-17 40.5q0 27 19 46l112 114l31 -32l-72 -74q28 -17 28 -50zM55 0l129 738h81l-77 -439h26l242 201h116l-294 -247l200 -253h-98l-179 218h-27l-38 -218h-81z" />
    <glyph glyph-name="kgreenlandic" unicode="&#x138;" horiz-adv-x="501" 
d="M55 0l89 500h80l-36 -201h26l242 201h116l-294 -247l200 -253h-98l-179 218h-27l-38 -218h-81z" />
    <glyph glyph-name="Lacute" unicode="&#x139;" horiz-adv-x="551" 
d="M392 930l-39 57l-189 -142l37 -53zM150 78h386l-14 -78h-467l123 700h80z" />
    <glyph glyph-name="lacute" unicode="&#x13a;" horiz-adv-x="195" 
d="M395 938l-39 57l-189 -142l37 -53zM56 0l133 750h81l-133 -750h-81z" />
    <glyph glyph-name="uni013B" unicode="&#x13b;" horiz-adv-x="551" 
d="M294 -208q0 -25 -17.5 -43t-41.5 -18q-25 0 -42 16.5t-17 40.5q0 27 19 46l112 114l31 -32l-72 -74q28 -17 28 -50zM150 78h386l-14 -78h-467l123 700h80z" />
    <glyph glyph-name="uni013C" unicode="&#x13c;" horiz-adv-x="195" 
d="M94 -209q0 -25 -17.5 -43t-41.5 -18q-25 0 -42 16.5t-17 40.5q0 27 19 46l112 114l31 -32l-72 -74q28 -17 28 -50zM56 0l133 750h81l-133 -750h-81z" />
    <glyph glyph-name="Lcaron" unicode="&#x13d;" horiz-adv-x="551" 
d="M454 729l71 -20l-99 -228l-67 18zM150 78h386l-14 -78h-467l123 700h80z" />
    <glyph glyph-name="lcaron" unicode="&#x13e;" horiz-adv-x="343" 
d="M389 787l71 -20l-99 -228l-67 18zM56 0l133 750h81l-133 -750h-81z" />
    <glyph glyph-name="Ldot" unicode="&#x13f;" horiz-adv-x="551" 
d="M333 360q0 24 16 40.5t40 16.5t40.5 -16.5t16.5 -40.5t-16 -40.5t-40 -16.5t-40.5 16.5t-16.5 40.5zM150 78h386l-14 -78h-467l123 700h80z" />
    <glyph glyph-name="ldot" unicode="&#x140;" horiz-adv-x="392" 
d="M299 363q0 24 16 40.5t40 16.5t40.5 -16.5t16.5 -40.5t-16 -40.5t-40 -16.5t-40.5 16.5t-16.5 40.5zM56 0l133 750h81l-133 -750h-81z" />
    <glyph glyph-name="Lslash" unicode="&#x141;" horiz-adv-x="558" 
d="M383 427l2 -71l-314 -60l-1 70zM159 78h385l-14 -78h-465l123 700h80z" />
    <glyph glyph-name="lslash" unicode="&#x142;" horiz-adv-x="231" 
d="M288 438l1 -70l-209 -38l-1 72zM75 0l132 750h80l-132 -750h-80z" />
    <glyph glyph-name="Nacute" unicode="&#x143;" horiz-adv-x="685" 
d="M640 913l-39 57l-189 -142l37 -53zM55 0l123 700h106l282 -594l103 594h81l-122 -700h-106l-281 602l-105 -602h-81z" />
    <glyph glyph-name="nacute" unicode="&#x144;" horiz-adv-x="543" 
d="M529 711l-39 57l-189 -142l37 -53zM55 0l88 500h82l-88 -500h-82zM408 0l50 278q12 70 -20.5 115t-94.5 45q-58 0 -100.5 -39.5t-54.5 -103.5h-42q17 90 80.5 153.5t143.5 63.5q89 0 138 -68t31 -166l-49 -278h-82z" />
    <glyph glyph-name="uni0145" unicode="&#x145;" horiz-adv-x="685" 
d="M354 -209q0 -25 -17.5 -43t-41.5 -18q-25 0 -42 16.5t-17 40.5q0 27 19 46l112 114l31 -32l-72 -74q28 -17 28 -50zM55 0l123 700h106l282 -594l103 594h81l-122 -700h-106l-281 602l-105 -602h-81z" />
    <glyph glyph-name="uni0146" unicode="&#x146;" horiz-adv-x="543" 
d="M280 -207q0 -25 -17.5 -43t-41.5 -18q-25 0 -42 16.5t-17 40.5q0 27 19 46l112 114l31 -32l-72 -74q28 -17 28 -50zM55 0l88 500h82l-88 -500h-82zM408 0l50 278q12 70 -20.5 115t-94.5 45q-58 0 -100.5 -39.5t-54.5 -103.5h-42q17 90 80.5 153.5t143.5 63.5
q89 0 138 -68t31 -166l-49 -278h-82z" />
    <glyph glyph-name="Ncaron" unicode="&#x147;" horiz-adv-x="685" 
d="M494 770l190 150l-36 54l-156 -127l-110 135l-51 -44l139 -165zM55 0l123 700h106l282 -594l103 594h81l-122 -700h-106l-281 602l-105 -602h-81z" />
    <glyph glyph-name="ncaron" unicode="&#x148;" horiz-adv-x="543" 
d="M382 568l190 150l-36 54l-156 -127l-110 135l-51 -44l139 -165zM55 0l88 500h82l-88 -500h-82zM408 0l50 278q12 70 -20.5 115t-94.5 45q-58 0 -100.5 -39.5t-54.5 -103.5h-42q17 90 80.5 153.5t143.5 63.5q89 0 138 -68t31 -166l-49 -278h-82z" />
    <glyph glyph-name="napostrophe" unicode="&#x149;" horiz-adv-x="703" 
d="M215 0l88 500h82l-88 -500h-82zM568 0l50 278q12 70 -20.5 115t-94.5 45q-58 0 -100.5 -39.5t-54.5 -103.5h-42q17 90 80.5 153.5t143.5 63.5q89 0 138 -68t31 -166l-49 -278h-82zM220 758l70 -27l-98 -223l-66 25z" />
    <glyph glyph-name="Eng" unicode="&#x14a;" horiz-adv-x="653" 
d="M58 0l123 700h80l-123 -700h-80zM375 -84q61 0 100 38t49 96l69 388q16 90 -25.5 141.5t-120.5 51.5q-82 0 -150 -56.5t-82 -136.5h-43q19 110 110 191.5t201 81.5q101 0 156.5 -73t35.5 -185l-73 -417q-14 -81 -79 -139.5t-152 -58.5h-76l14 78h66z" />
    <glyph glyph-name="eng" unicode="&#x14b;" horiz-adv-x="543" 
d="M58 0l88 500h80l-88 -500h-80zM407 8l51 288q11 64 -18 101t-86 37q-58 0 -106 -40.5t-58 -97.5h-43q15 87 86 151t158 64q78 0 121.5 -55.5t28.5 -139.5l-57 -325q-11 -64 -62 -108.5t-118 -44.5h-74l13 75h62q41 0 67.5 26.5t34.5 68.5z" />
    <glyph glyph-name="Omacron" unicode="&#x14c;" 
d="M677 853l-11 -67h-307l11 67h307zM483 640q-83 0 -153 -43.5t-110 -117t-40 -160.5q0 -114 72 -185.5t181 -71.5q84 0 154.5 44.5t110 119t39.5 160.5q0 112 -72.5 183t-181.5 71zM100 315q0 109 51 202.5t140.5 148t194.5 54.5q142 0 236.5 -93t94.5 -237
q0 -108 -51 -202t-140.5 -150t-195.5 -56q-141 0 -235.5 94t-94.5 239z" />
    <glyph glyph-name="omacron" unicode="&#x14d;" horiz-adv-x="618" 
d="M571 644l-11 -67h-307l11 67h307zM369 443q-87 0 -147.5 -62.5t-60.5 -149.5q0 -76 51 -124t127 -48q87 0 147.5 62.5t60.5 149.5q0 76 -51 124t-127 48zM81 224q0 122 85.5 209t208.5 87q108 0 180 -68t72 -174q0 -122 -85.5 -209t-208.5 -87q-108 0 -180 68t-72 174z
" />
    <glyph glyph-name="Obreve" unicode="&#x14e;" 
d="M519 784q-61 0 -100.5 37t-39.5 92q0 13 3 26h62q-1 -9 -1 -17q0 -33 23 -54t61 -21q44 0 79.5 27t41.5 65h72q-11 -62 -71 -108.5t-130 -46.5zM483 640q-83 0 -153 -43.5t-110 -117t-40 -160.5q0 -114 72 -185.5t181 -71.5q84 0 154.5 44.5t110 119t39.5 160.5
q0 112 -72.5 183t-181.5 71zM100 315q0 109 51 202.5t140.5 148t194.5 54.5q142 0 236.5 -93t94.5 -237q0 -108 -51 -202t-140.5 -150t-195.5 -56q-141 0 -235.5 94t-94.5 239z" />
    <glyph glyph-name="obreve" unicode="&#x14f;" horiz-adv-x="618" 
d="M413 575q-61 0 -100.5 37t-39.5 92q0 13 3 26h62q-1 -9 -1 -17q0 -33 23 -54t61 -21q44 0 79.5 27t41.5 65h72q-11 -62 -71 -108.5t-130 -46.5zM369 443q-87 0 -147.5 -62.5t-60.5 -149.5q0 -76 51 -124t127 -48q87 0 147.5 62.5t60.5 149.5q0 76 -51 124t-127 48z
M81 224q0 122 85.5 209t208.5 87q108 0 180 -68t72 -174q0 -122 -85.5 -209t-208.5 -87q-108 0 -180 68t-72 174z" />
    <glyph glyph-name="Ohungarumlaut" unicode="&#x150;" 
d="M745 915l-37 58l-189 -148l32 -47zM560 915l-37 58l-189 -148l32 -47zM483 640q-83 0 -153 -43.5t-110 -117t-40 -160.5q0 -114 72 -185.5t181 -71.5q84 0 154.5 44.5t110 119t39.5 160.5q0 112 -72.5 183t-181.5 71zM100 315q0 109 51 202.5t140.5 148t194.5 54.5
q142 0 236.5 -93t94.5 -237q0 -108 -51 -202t-140.5 -150t-195.5 -56q-141 0 -235.5 94t-94.5 239z" />
    <glyph glyph-name="ohungarumlaut" unicode="&#x151;" horiz-adv-x="618" 
d="M640 706l-37 58l-189 -148l32 -47zM455 706l-37 58l-189 -148l32 -47zM369 443q-87 0 -147.5 -62.5t-60.5 -149.5q0 -76 51 -124t127 -48q87 0 147.5 62.5t60.5 149.5q0 76 -51 124t-127 48zM81 224q0 122 85.5 209t208.5 87q108 0 180 -68t72 -174q0 -122 -85.5 -209
t-208.5 -87q-108 0 -180 68t-72 174z" />
    <glyph glyph-name="OE" unicode="&#x152;" horiz-adv-x="1183" 
d="M827 403h366l-13 -78h-366l-42 -247h385l-13 -78h-468l123 700h467l-14 -78h-384zM483 640q-83 0 -153 -43.5t-110 -117t-40 -160.5q0 -114 72 -185.5t180 -71.5q85 0 155.5 44.5t110 119t39.5 159.5q0 112 -72.5 183.5t-181.5 71.5zM100 315q0 109 51 202t139.5 148
t193.5 55q136 0 226 -93t90 -237q0 -106 -51 -200t-138.5 -151t-189.5 -57q-137 0 -229 94.5t-92 238.5z" />
    <glyph glyph-name="oe" unicode="&#x153;" horiz-adv-x="1065" 
d="M994 306q-3 62 -48 100t-110 38q-70 0 -127.5 -43t-73.5 -113h358q1 9 1 18zM1072 284q0 -30 -12 -68h-432q2 -70 50.5 -114.5t121.5 -44.5q55 1 103 27t78 73l64 -43q-43 -64 -107.5 -98t-139.5 -34q-105 0 -174 68t-69 174q0 121 84 208.5t202 87.5q98 0 164.5 -66.5
t66.5 -169.5zM369 443q-87 0 -147.5 -62.5t-60.5 -149.5q0 -75 51 -123.5t127 -48.5q87 0 147.5 62.5t60.5 149.5q0 75 -51 123.5t-127 48.5zM81 225q0 121 85.5 208t207.5 87q105 0 174.5 -68t69.5 -174q0 -122 -83.5 -209t-202.5 -87q-108 0 -179.5 68.5t-71.5 174.5z" />
    <glyph glyph-name="Racute" unicode="&#x154;" horiz-adv-x="633" 
d="M602 915l-39 57l-189 -142l37 -53zM408 340q75 0 132.5 50.5t57.5 116.5q0 51 -37.5 83t-96.5 32h-219l-49 -282h212zM681 518q0 -99 -74.5 -172t-177.5 -78l164 -268h-93l-162 262h-156l-47 -262h-80l124 700h309q86 0 139.5 -51t53.5 -131z" />
    <glyph glyph-name="racute" unicode="&#x155;" horiz-adv-x="340" 
d="M458 703l-39 57l-189 -142l37 -53zM55 0l87 500h80l-86 -500h-81zM364 428q-64 0 -116 -36t-61 -92h-43q15 83 82 145.5t146 62.5h31l-14 -80h-25z" />
    <glyph glyph-name="uni0156" unicode="&#x156;" horiz-adv-x="633" 
d="M309 -209q0 -25 -17.5 -43t-41.5 -18q-25 0 -42 16.5t-17 40.5q0 27 19 46l112 114l31 -32l-72 -74q28 -17 28 -50zM408 340q75 0 132.5 50.5t57.5 116.5q0 51 -37.5 83t-96.5 32h-219l-49 -282h212zM681 518q0 -99 -74.5 -172t-177.5 -78l164 -268h-93l-162 262h-156
l-47 -262h-80l124 700h309q86 0 139.5 -51t53.5 -131z" />
    <glyph glyph-name="uni0157" unicode="&#x157;" horiz-adv-x="340" 
d="M95 -209q0 -25 -17.5 -43t-41.5 -18q-25 0 -42 16.5t-17 40.5q0 27 19 46l112 114l31 -32l-72 -74q28 -17 28 -50zM55 0l87 500h80l-86 -500h-81zM364 428q-64 0 -116 -36t-61 -92h-43q15 83 82 145.5t146 62.5h31l-14 -80h-25z" />
    <glyph glyph-name="Rcaron" unicode="&#x158;" horiz-adv-x="633" 
d="M456 772l190 150l-36 54l-156 -127l-110 135l-51 -44l139 -165zM408 340q75 0 132.5 50.5t57.5 116.5q0 51 -37.5 83t-96.5 32h-219l-49 -282h212zM681 518q0 -99 -74.5 -172t-177.5 -78l164 -268h-93l-162 262h-156l-47 -262h-80l124 700h309q86 0 139.5 -51t53.5 -131z
" />
    <glyph glyph-name="rcaron" unicode="&#x159;" horiz-adv-x="340" 
d="M312 560l190 150l-36 54l-156 -127l-110 135l-51 -44l139 -165zM55 0l87 500h80l-86 -500h-81zM364 428q-64 0 -116 -36t-61 -92h-43q15 83 82 145.5t146 62.5h31l-14 -80h-25z" />
    <glyph glyph-name="Sacute" unicode="&#x15a;" horiz-adv-x="579" 
d="M545 915l-39 57l-189 -142l37 -53zM340 66q66 0 112 35.5t46 87.5q0 39 -36 69t-113 53q-206 63 -206 194q0 89 68 149t167 60q96 0 165 -54t87 -142l-78 -24q-15 65 -62.5 103.5t-115.5 38.5q-63 0 -105.5 -34.5t-42.5 -86.5q0 -40 36 -69.5t114 -53.5
q101 -31 152.5 -81t51.5 -116q0 -87 -70 -147t-172 -60q-99 0 -171 55t-91 146l81 29q14 -70 63 -111t120 -41z" />
    <glyph glyph-name="sacute" unicode="&#x15b;" horiz-adv-x="479" 
d="M501 704l-39 57l-189 -142l37 -53zM278 59q45 0 74 21.5t29 54.5q0 51 -110 82q-161 43 -161 139q0 65 52.5 111.5t129.5 46.5q73 0 127.5 -43.5t69.5 -114.5l-79 -18q-9 46 -40 74t-79 28q-42 0 -71 -21.5t-29 -52.5q0 -25 24.5 -43t77.5 -33q169 -46 169 -147
q0 -64 -55 -109.5t-136 -45.5q-78 0 -137.5 42t-75.5 110l77 22q11 -44 49.5 -73.5t93.5 -29.5z" />
    <glyph glyph-name="Scircumflex" unicode="&#x15c;" horiz-adv-x="579" 
d="M405 976l-190 -149l37 -55l156 128l109 -136l51 44l-138 166zM340 66q66 0 112 35.5t46 87.5q0 39 -36 69t-113 53q-206 63 -206 194q0 89 68 149t167 60q96 0 165 -54t87 -142l-78 -24q-15 65 -62.5 103.5t-115.5 38.5q-63 0 -105.5 -34.5t-42.5 -86.5q0 -40 36 -69.5
t114 -53.5q101 -31 152.5 -81t51.5 -116q0 -87 -70 -147t-172 -60q-99 0 -171 55t-91 146l81 29q14 -70 63 -111t120 -41z" />
    <glyph glyph-name="scircumflex" unicode="&#x15d;" horiz-adv-x="479" 
d="M361 765l-190 -149l37 -55l156 128l109 -136l51 44l-138 166zM278 59q45 0 74 21.5t29 54.5q0 51 -110 82q-161 43 -161 139q0 65 52.5 111.5t129.5 46.5q73 0 127.5 -43.5t69.5 -114.5l-79 -18q-9 46 -40 74t-79 28q-42 0 -71 -21.5t-29 -52.5q0 -25 24.5 -43t77.5 -33
q169 -46 169 -147q0 -64 -55 -109.5t-136 -45.5q-78 0 -137.5 42t-75.5 110l77 22q11 -44 49.5 -73.5t93.5 -29.5z" />
    <glyph glyph-name="Scedilla" unicode="&#x15e;" horiz-adv-x="579" 
d="M410 -138q0 15 -8 24t-21 9q-16 0 -31 -16l-58 31l21 117l61 -5l-15 -90q22 19 48 19q29 0 48.5 -24t19.5 -60q0 -51 -33.5 -85t-83.5 -34q-43 0 -72.5 23.5t-33.5 61.5l63 17q1 -18 13.5 -28.5t32.5 -10.5q21 0 35 14.5t14 36.5zM340 66q66 0 112 35.5t46 87.5
q0 39 -36 69t-113 53q-206 63 -206 194q0 89 68 149t167 60q96 0 165 -54t87 -142l-78 -24q-15 65 -62.5 103.5t-115.5 38.5q-63 0 -105.5 -34.5t-42.5 -86.5q0 -40 36 -69.5t114 -53.5q101 -31 152.5 -81t51.5 -116q0 -87 -70 -147t-172 -60q-99 0 -171 55t-91 146l81 29
q14 -70 63 -111t120 -41z" />
    <glyph glyph-name="scedilla" unicode="&#x15f;" horiz-adv-x="479" 
d="M327 -139q0 15 -8 24t-21 9q-16 0 -31 -16l-58 31l21 117l61 -5l-15 -90q22 19 48 19q29 0 48.5 -24t19.5 -60q0 -51 -33.5 -85t-83.5 -34q-43 0 -72.5 23.5t-33.5 61.5l63 17q1 -18 13.5 -28.5t32.5 -10.5q21 0 35 14.5t14 36.5zM278 59q45 0 74 21.5t29 54.5
q0 51 -110 82q-161 43 -161 139q0 65 52.5 111.5t129.5 46.5q73 0 127.5 -43.5t69.5 -114.5l-79 -18q-9 46 -40 74t-79 28q-42 0 -71 -21.5t-29 -52.5q0 -25 24.5 -43t77.5 -33q169 -46 169 -147q0 -64 -55 -109.5t-136 -45.5q-78 0 -137.5 42t-75.5 110l77 22
q11 -44 49.5 -73.5t93.5 -29.5z" />
    <glyph glyph-name="Scaron" unicode="&#x160;" horiz-adv-x="579" 
d="M399 772l190 150l-36 54l-156 -127l-110 135l-51 -44l139 -165zM340 66q66 0 112 35.5t46 87.5q0 39 -36 69t-113 53q-206 63 -206 194q0 89 68 149t167 60q96 0 165 -54t87 -142l-78 -24q-15 65 -62.5 103.5t-115.5 38.5q-63 0 -105.5 -34.5t-42.5 -86.5q0 -40 36 -69.5
t114 -53.5q101 -31 152.5 -81t51.5 -116q0 -87 -70 -147t-172 -60q-99 0 -171 55t-91 146l81 29q14 -70 63 -111t120 -41z" />
    <glyph glyph-name="scaron" unicode="&#x161;" horiz-adv-x="479" 
d="M355 561l190 150l-36 54l-156 -127l-110 135l-51 -44l139 -165zM278 59q45 0 74 21.5t29 54.5q0 51 -110 82q-161 43 -161 139q0 65 52.5 111.5t129.5 46.5q73 0 127.5 -43.5t69.5 -114.5l-79 -18q-9 46 -40 74t-79 28q-42 0 -71 -21.5t-29 -52.5q0 -25 24.5 -43
t77.5 -33q169 -46 169 -147q0 -64 -55 -109.5t-136 -45.5q-78 0 -137.5 42t-75.5 110l77 22q11 -44 49.5 -73.5t93.5 -29.5z" />
    <glyph glyph-name="uni0162" unicode="&#x162;" horiz-adv-x="596" 
d="M372 -138q0 15 -8 24t-21 9q-16 0 -31 -16l-58 31l21 117l61 -5l-15 -90q22 19 48 19q29 0 48.5 -24t19.5 -60q0 -51 -33.5 -85t-83.5 -34q-43 0 -72.5 23.5t-33.5 61.5l63 17q1 -18 13.5 -28.5t32.5 -10.5q21 0 35 14.5t14 36.5zM691 700l-14 -78h-230l-109 -622h-81
l110 622h-231l13 78h542z" />
    <glyph glyph-name="uni0163" unicode="&#x163;" horiz-adv-x="382" 
d="M328 -136q0 15 -8 24t-21 9q-16 0 -31 -16l-58 31l21 117l61 -5l-15 -90q22 19 48 19q29 0 48.5 -24t19.5 -60q0 -51 -33.5 -85t-83.5 -34q-43 0 -72.5 23.5t-33.5 61.5l63 17q1 -18 13.5 -28.5t32.5 -10.5q21 0 35 14.5t14 36.5zM304 74h65l-13 -74h-77q-62 0 -98 32.5
t-36 83.5q0 13 3 28l49 282h-92l12 74h93l26 151l83 9l-28 -160h152l-13 -74h-152l-48 -272q-2 -13 -2 -20q0 -60 76 -60z" />
    <glyph glyph-name="Tcaron" unicode="&#x164;" horiz-adv-x="596" 
d="M448 780l190 150l-36 54l-156 -127l-110 135l-51 -44l139 -165zM691 700l-14 -78h-230l-109 -622h-81l110 622h-231l13 78h542z" />
    <glyph glyph-name="tcaron" unicode="&#x165;" horiz-adv-x="382" 
d="M471 798l71 -20l-99 -228l-67 18zM304 74h65l-13 -74h-77q-62 0 -98 32.5t-36 83.5q0 13 3 28l49 282h-92l12 74h93l26 151l83 9l-28 -160h152l-13 -74h-152l-48 -272q-2 -13 -2 -20q0 -60 76 -60z" />
    <glyph glyph-name="Tbar" unicode="&#x166;" horiz-adv-x="596" 
d="M542 380l-14 -77h-360l14 77h360zM692 700l-14 -78h-230l-110 -622h-80l110 622h-230l14 78h540z" />
    <glyph glyph-name="tbar" unicode="&#x167;" horiz-adv-x="382" 
d="M304 74h65l-13 -74h-77q-62 0 -98 32.5t-36 83.5q0 13 3 28l49 282h-92l12 74h93l26 151l83 9l-28 -160h152l-13 -74h-152l-48 -272q-2 -13 -2 -20q0 -60 76 -60zM404 304l-12 -67h-320l11 67h321z" />
    <glyph glyph-name="Utilde" unicode="&#x168;" horiz-adv-x="690" 
d="M425 919q-39 0 -71 -31.5t-54 -88.5l61 -18q26 72 61 72q13 0 23.5 -6.5t26.5 -26.5q21 -25 40 -35t44 -10q41 0 73 31.5t52 88.5l-58 18q-13 -33 -30.5 -51t-36.5 -18q-15 0 -25 6.5t-25 25.5q-21 24 -38.5 33.5t-42.5 9.5zM370 -11q-116 0 -191.5 72t-75.5 183
q0 26 4 53l71 403h80l-70 -400q-4 -25 -4 -48q0 -78 51.5 -130.5t143.5 -52.5q85 0 144.5 52.5t74.5 142.5l76 436h81l-79 -453q-20 -113 -106 -185.5t-200 -72.5z" />
    <glyph glyph-name="utilde" unicode="&#x169;" horiz-adv-x="538" 
d="M313 711q-39 0 -71 -31.5t-54 -88.5l61 -18q26 72 61 72q13 0 23.5 -6.5t26.5 -26.5q21 -25 40 -35t44 -10q41 0 73 31.5t52 88.5l-58 18q-13 -33 -30.5 -51t-36.5 -18q-15 0 -25 6.5t-25 25.5q-21 24 -38.5 33.5t-42.5 9.5zM565 500l-88 -500h-81l88 500h81zM232 500
l-55 -308q-11 -63 19 -96.5t90 -33.5q53 0 92.5 31t48.5 82h43q-17 -81 -76.5 -133.5t-135.5 -52.5q-85 0 -132 54t-31 146l56 311h81z" />
    <glyph glyph-name="Umacron" unicode="&#x16a;" horiz-adv-x="690" 
d="M643 852l-11 -67h-307l11 67h307zM370 -11q-116 0 -191.5 72t-75.5 183q0 26 4 53l71 403h80l-70 -400q-4 -25 -4 -48q0 -78 51.5 -130.5t143.5 -52.5q85 0 144.5 52.5t74.5 142.5l76 436h81l-79 -453q-20 -113 -106 -185.5t-200 -72.5z" />
    <glyph glyph-name="umacron" unicode="&#x16b;" horiz-adv-x="538" 
d="M531 644l-11 -67h-307l11 67h307zM565 500l-88 -500h-81l88 500h81zM232 500l-55 -308q-11 -63 19 -96.5t90 -33.5q53 0 92.5 31t48.5 82h43q-17 -81 -76.5 -133.5t-135.5 -52.5q-85 0 -132 54t-31 146l56 311h81z" />
    <glyph glyph-name="Ubreve" unicode="&#x16c;" horiz-adv-x="690" 
d="M485 783q-61 0 -100.5 37t-39.5 92q0 13 3 26h62q-1 -9 -1 -17q0 -33 23 -54t61 -21q44 0 79.5 27t41.5 65h72q-11 -62 -71 -108.5t-130 -46.5zM370 -11q-116 0 -191.5 72t-75.5 183q0 26 4 53l71 403h80l-70 -400q-4 -25 -4 -48q0 -78 51.5 -130.5t143.5 -52.5
q85 0 144.5 52.5t74.5 142.5l76 436h81l-79 -453q-20 -113 -106 -185.5t-200 -72.5z" />
    <glyph glyph-name="ubreve" unicode="&#x16d;" horiz-adv-x="538" 
d="M373 575q-61 0 -100.5 37t-39.5 92q0 13 3 26h62q-1 -9 -1 -17q0 -33 23 -54t61 -21q44 0 79.5 27t41.5 65h72q-11 -62 -71 -108.5t-130 -46.5zM565 500l-88 -500h-81l88 500h81zM232 500l-55 -308q-11 -63 19 -96.5t90 -33.5q53 0 92.5 31t48.5 82h43
q-17 -81 -76.5 -133.5t-135.5 -52.5q-85 0 -132 54t-31 146l56 311h81z" />
    <glyph glyph-name="Uring" unicode="&#x16e;" horiz-adv-x="690" 
d="M493 939q-23 0 -39.5 -16.5t-16.5 -40.5q0 -20 13.5 -33t34.5 -13q23 0 39.5 16.5t16.5 40.5q0 20 -14 33t-34 13zM376 876q0 51 35.5 87.5t86.5 36.5q44 0 74 -28.5t30 -72.5q0 -51 -36 -87.5t-86 -36.5q-45 0 -74.5 28.5t-29.5 72.5zM370 -11q-116 0 -191.5 72
t-75.5 183q0 26 4 53l71 403h80l-70 -400q-4 -25 -4 -48q0 -78 51.5 -130.5t143.5 -52.5q85 0 144.5 52.5t74.5 142.5l76 436h81l-79 -453q-20 -113 -106 -185.5t-200 -72.5z" />
    <glyph glyph-name="uring" unicode="&#x16f;" horiz-adv-x="538" 
d="M381 731q-23 0 -39.5 -16.5t-16.5 -40.5q0 -20 13.5 -33t34.5 -13q23 0 39.5 16.5t16.5 40.5q0 20 -14 33t-34 13zM264 668q0 51 35.5 87.5t86.5 36.5q44 0 74 -28.5t30 -72.5q0 -51 -36 -87.5t-86 -36.5q-45 0 -74.5 28.5t-29.5 72.5zM565 500l-88 -500h-81l88 500h81z
M232 500l-55 -308q-11 -63 19 -96.5t90 -33.5q53 0 92.5 31t48.5 82h43q-17 -81 -76.5 -133.5t-135.5 -52.5q-85 0 -132 54t-31 146l56 311h81z" />
    <glyph glyph-name="Uhungarumlaut" unicode="&#x170;" horiz-adv-x="690" 
d="M712 914l-37 58l-189 -148l32 -47zM527 914l-37 58l-189 -148l32 -47zM370 -11q-116 0 -191.5 72t-75.5 183q0 26 4 53l71 403h80l-70 -400q-4 -25 -4 -48q0 -78 51.5 -130.5t143.5 -52.5q85 0 144.5 52.5t74.5 142.5l76 436h81l-79 -453q-20 -113 -106 -185.5
t-200 -72.5z" />
    <glyph glyph-name="uhungarumlaut" unicode="&#x171;" horiz-adv-x="538" 
d="M600 706l-37 58l-189 -148l32 -47zM415 706l-37 58l-189 -148l32 -47zM565 500l-88 -500h-81l88 500h81zM232 500l-55 -308q-11 -63 19 -96.5t90 -33.5q53 0 92.5 31t48.5 82h43q-17 -81 -76.5 -133.5t-135.5 -52.5q-85 0 -132 54t-31 146l56 311h81z" />
    <glyph glyph-name="Uogonek" unicode="&#x172;" horiz-adv-x="690" 
d="M323 -243q-45 0 -73 26t-28 66q0 38 21 65.5t70 53.5l25 13l5 22h58l-8 -49l-63 -31q-46 -23 -46 -64q0 -19 12.5 -30.5t32.5 -11.5q33 0 48 35l53 -21q-15 -34 -43.5 -54t-63.5 -20zM370 -11q-116 0 -191.5 72t-75.5 183q0 26 4 53l71 403h80l-70 -400q-4 -25 -4 -48
q0 -78 51.5 -130.5t143.5 -52.5q85 0 144.5 52.5t74.5 142.5l76 436h81l-79 -453q-20 -113 -106 -185.5t-200 -72.5z" />
    <glyph glyph-name="uogonek" unicode="&#x173;" horiz-adv-x="538" 
d="M387 -244q-45 0 -73 26t-28 66q0 38 21 65.5t70 53.5l25 13l5 22h58l-8 -49l-63 -31q-46 -23 -46 -64q0 -19 12.5 -30.5t32.5 -11.5q33 0 48 35l53 -21q-15 -34 -43.5 -54t-63.5 -20zM565 500l-88 -500h-81l88 500h81zM232 500l-55 -308q-11 -63 19 -96.5t90 -33.5
q53 0 92.5 31t48.5 82h43q-17 -81 -76.5 -133.5t-135.5 -52.5q-85 0 -132 54t-31 146l56 311h81z" />
    <glyph glyph-name="Wcircumflex" unicode="&#x174;" horiz-adv-x="1034" 
d="M664 976l-190 -149l37 -55l156 128l109 -136l51 44l-138 166zM1028 700h91l-327 -700h-107l-74 569l-265 -569h-109l-86 700h85l71 -595l282 595h86l77 -595z" />
    <glyph glyph-name="wcircumflex" unicode="&#x175;" horiz-adv-x="823" 
d="M519 766l-190 -149l37 -55l156 128l109 -136l51 44l-138 166zM795 500h89l-250 -500h-112l-52 380l-190 -380h-94l-68 500h84l48 -408l200 408h78l62 -413z" />
    <glyph glyph-name="Ycircumflex" unicode="&#x176;" horiz-adv-x="666" 
d="M494 976l-190 -149l37 -55l156 128l109 -136l51 44l-138 166zM302 0h80l42 235l335 465h-98l-264 -370l-154 370h-91l192 -465z" />
    <glyph glyph-name="ycircumflex" unicode="&#x177;" horiz-adv-x="556" 
d="M388 765l-190 -149l37 -55l156 128l109 -136l51 44l-138 166zM527 500l-237 -398l-88 398h-84l110 -488l-123 -212h93l419 700h-90z" />
    <glyph glyph-name="Ydieresis" unicode="&#x178;" horiz-adv-x="666" 
d="M521 831q0 23 15.5 38.5t38.5 15.5t38.5 -15.5t15.5 -38.5t-15.5 -38.5t-38.5 -15.5t-38.5 15.5t-15.5 38.5zM321 831q0 23 15.5 38.5t38.5 15.5t38.5 -15.5t15.5 -38.5t-15.5 -38.5t-38.5 -15.5t-38.5 15.5t-15.5 38.5zM302 0h80l42 235l335 465h-98l-264 -370l-154 370
h-91l192 -465z" />
    <glyph glyph-name="Zacute" unicode="&#x179;" horiz-adv-x="628" 
d="M613 915l-39 57l-189 -142l37 -53zM591 0l14 77h-451l544 531l16 92h-548l-14 -77h451l-543 -525l-17 -98h548z" />
    <glyph glyph-name="zacute" unicode="&#x17a;" horiz-adv-x="484" 
d="M506 704l-39 57l-189 -142l37 -53zM449 0l12 72h-324l383 339l16 89h-411l-12 -72h317l-376 -339l-16 -89h411z" />
    <glyph glyph-name="Zdotaccent" unicode="&#x17b;" horiz-adv-x="628" 
d="M401 831q0 23 15.5 38.5t38.5 15.5t38.5 -15.5t15.5 -38.5t-15.5 -38.5t-38.5 -15.5t-38.5 15.5t-15.5 38.5zM591 0l14 77h-451l544 531l16 92h-548l-14 -77h451l-543 -525l-17 -98h548z" />
    <glyph glyph-name="zdotaccent" unicode="&#x17c;" horiz-adv-x="484" 
d="M294 620q0 23 15.5 38.5t38.5 15.5t38.5 -15.5t15.5 -38.5t-15.5 -38.5t-38.5 -15.5t-38.5 15.5t-15.5 38.5zM449 0l12 72h-324l383 339l16 89h-411l-12 -72h317l-376 -339l-16 -89h411z" />
    <glyph glyph-name="Zcaron" unicode="&#x17d;" horiz-adv-x="628" 
d="M467 772l190 150l-36 54l-156 -127l-110 135l-51 -44l139 -165zM591 0l14 77h-451l544 531l16 92h-548l-14 -77h451l-543 -525l-17 -98h548z" />
    <glyph glyph-name="zcaron" unicode="&#x17e;" horiz-adv-x="484" 
d="M360 561l190 150l-36 54l-156 -127l-110 135l-51 -44l139 -165zM449 0l12 72h-324l383 339l16 89h-411l-12 -72h317l-376 -339l-16 -89h411z" />
    <glyph glyph-name="Ohorn" unicode="&#x1a0;" 
d="M862 712q0 -54 -35 -88.5t-91 -34.5h-74l11 58h60q27 0 45.5 17t18.5 42q0 21 -16 35l49 41q14 -10 23 -29.5t9 -40.5zM483 640q-83 0 -153 -43.5t-110 -117t-40 -160.5q0 -114 72 -185.5t181 -71.5q84 0 154.5 44.5t110 119t39.5 160.5q0 112 -72.5 183t-181.5 71z
M100 315q0 109 51 202.5t140.5 148t194.5 54.5q142 0 236.5 -93t94.5 -237q0 -108 -51 -202t-140.5 -150t-195.5 -56q-141 0 -235.5 94t-94.5 239z" />
    <glyph glyph-name="ohorn" unicode="&#x1a1;" horiz-adv-x="654" 
d="M736 502q0 -54 -35 -88.5t-91 -34.5h-74l11 58h60q27 0 45.5 17t18.5 42q0 21 -16 35l49 41q14 -10 23 -29.5t9 -40.5zM369 443q-87 0 -147.5 -62.5t-60.5 -149.5q0 -76 51 -124t127 -48q87 0 147.5 62.5t60.5 149.5q0 76 -51 124t-127 48zM81 224q0 122 85.5 209
t208.5 87q108 0 180 -68t72 -174q0 -122 -85.5 -209t-208.5 -87q-108 0 -180 68t-72 174z" />
    <glyph glyph-name="Uhorn" unicode="&#x1af;" horiz-adv-x="790" 
d="M892 702q0 -54 -35 -88.5t-91 -34.5h-74l11 58h60q27 0 45.5 17t18.5 42q0 21 -16 35l49 41q14 -10 23 -29.5t9 -40.5zM370 -11q-116 0 -191.5 72t-75.5 183q0 26 4 53l71 403h80l-70 -400q-4 -25 -4 -48q0 -78 51.5 -130.5t143.5 -52.5q85 0 144.5 52.5t74.5 142.5
l76 436h81l-79 -453q-20 -113 -106 -185.5t-200 -72.5z" />
    <glyph glyph-name="uhorn" unicode="&#x1b0;" horiz-adv-x="637" 
d="M706 508q0 -54 -35 -88.5t-91 -34.5h-74l11 58h60q27 0 45.5 17t18.5 42q0 21 -16 35l49 41q14 -10 23 -29.5t9 -40.5zM565 500l-88 -500h-81l88 500h81zM232 500l-55 -308q-11 -63 19 -96.5t90 -33.5q53 0 92.5 31t48.5 82h43q-17 -81 -76.5 -133.5t-135.5 -52.5
q-85 0 -132 54t-31 146l56 311h81z" />
    <glyph glyph-name="uni0237" unicode="&#x237;" horiz-adv-x="193" 
d="M-28 -100q32 0 54 23t28 58l91 519h81l-97 -550q-10 -54 -51.5 -91t-98.5 -37h-42l11 78h24z" />
    <glyph glyph-name="uni02BC" unicode="&#x2bc;" horiz-adv-x="191" 
d="M220 758l70 -27l-98 -223l-66 25z" />
    <glyph glyph-name="gravecomb" unicode="&#x300;" horiz-adv-x="264" 
d="M46 665l49 48l143 -170l-46 -43z" />
    <glyph glyph-name="acutecomb" unicode="&#x301;" horiz-adv-x="264" 
d="M263 638l-39 57l-189 -142l37 -53z" />
    <glyph glyph-name="uni0302" unicode="&#x302;" horiz-adv-x="388" 
d="M212 699l-190 -149l37 -55l156 128l109 -136l51 44l-138 166z" />
    <glyph glyph-name="tildecomb" unicode="&#x303;" horiz-adv-x="404" 
d="M147 644q-39 0 -71 -31.5t-54 -88.5l61 -18q26 72 61 72q13 0 23.5 -6.5t26.5 -26.5q21 -25 40 -35t44 -10q41 0 73 31.5t52 88.5l-58 18q-13 -33 -30.5 -51t-36.5 -18q-15 0 -25 6.5t-25 25.5q-21 24 -38.5 33.5t-42.5 9.5z" />
    <glyph glyph-name="uni0304" unicode="&#x304;" horiz-adv-x="352" 
d="M335 577l-11 -67h-307l11 67h307z" />
    <glyph glyph-name="uni0306" unicode="&#x306;" horiz-adv-x="338" 
d="M171 508q-61 0 -100.5 37t-39.5 92q0 13 3 26h62q-1 -9 -1 -17q0 -33 23 -54t61 -21q44 0 79.5 27t41.5 65h72q-11 -62 -71 -108.5t-130 -46.5z" />
    <glyph glyph-name="uni0307" unicode="&#x307;" horiz-adv-x="170" 
d="M31 554q0 23 15.5 38.5t38.5 15.5t38.5 -15.5t15.5 -38.5t-15.5 -38.5t-38.5 -15.5t-38.5 15.5t-15.5 38.5z" />
    <glyph glyph-name="uni0308" unicode="&#x308;" horiz-adv-x="390" 
d="M241 554q0 23 15.5 38.5t38.5 15.5t38.5 -15.5t15.5 -38.5t-15.5 -38.5t-38.5 -15.5t-38.5 15.5t-15.5 38.5zM41 554q0 23 15.5 38.5t38.5 15.5t38.5 -15.5t15.5 -38.5t-15.5 -38.5t-38.5 -15.5t-38.5 15.5t-15.5 38.5z" />
    <glyph glyph-name="hookabovecomb" unicode="&#x309;" horiz-adv-x="260" 
d="M147 724q44 0 72.5 -25.5t28.5 -68.5q0 -44 -24 -71t-70 -52l-30 -16l-28 52l45 24q42 19 42 56q0 18 -12 29t-31 11q-33 0 -46 -33l-54 23q15 34 43.5 52.5t63.5 18.5z" />
    <glyph glyph-name="uni030A" unicode="&#x30a;" horiz-adv-x="298" 
d="M162 664q-23 0 -39.5 -16.5t-16.5 -40.5q0 -20 13.5 -33t34.5 -13q23 0 39.5 16.5t16.5 40.5q0 20 -14 33t-34 13zM45 601q0 51 35.5 87.5t86.5 36.5q44 0 74 -28.5t30 -72.5q0 -51 -36 -87.5t-86 -36.5q-45 0 -74.5 28.5t-29.5 72.5z" />
    <glyph glyph-name="uni030B" unicode="&#x30b;" horiz-adv-x="424" 
d="M437 639l-37 58l-189 -148l32 -47zM252 639l-37 58l-189 -148l32 -47z" />
    <glyph glyph-name="uni030C" unicode="&#x30c;" horiz-adv-x="388" 
d="M206 495l190 150l-36 54l-156 -127l-110 135l-51 -44l139 -165z" />
    <glyph glyph-name="uni0312" unicode="&#x312;" horiz-adv-x="170" 
d="M244 559q-4 -24 -23 -41.5t-44.5 -17.5t-40 16.5t-9.5 41.5q3 22 18 38l113 128l32 -27l-73 -83q16 -7 23 -22t4 -33z" />
    <glyph glyph-name="uni0313" unicode="&#x313;" horiz-adv-x="170" 
d="M167 666q4 23 23.5 40.5t44.5 17.5t39.5 -16.5t10.5 -40.5q-4 -22 -19 -39l-113 -128l-32 28l74 82q-16 8 -23.5 23t-4.5 33z" />
    <glyph glyph-name="uni0315" unicode="&#x315;" horiz-adv-x="170" 
d="M248 730l71 -20l-99 -228l-67 18z" />
    <glyph glyph-name="uni031B" unicode="&#x31b;" horiz-adv-x="247" 
d="M328 590q0 -54 -35 -88.5t-91 -34.5h-74l11 58h60q27 0 45.5 17t18.5 42q0 21 -16 35l49 41q14 -10 23 -29.5t9 -40.5z" />
    <glyph glyph-name="dotbelowcomb" unicode="&#x323;" horiz-adv-x="170" 
d="M10 -137.5q0 22.5 15.5 38t38.5 15.5t38.5 -15.5t15.5 -38t-15.5 -38.5t-38.5 -16t-38.5 16t-15.5 38.5z" />
    <glyph glyph-name="uni0326" unicode="&#x326;" horiz-adv-x="170" 
d="M74 -209q0 -25 -17.5 -43t-41.5 -18q-25 0 -42 16.5t-17 40.5q0 27 19 46l112 114l31 -32l-72 -74q28 -17 28 -50z" />
    <glyph glyph-name="uni0327" unicode="&#x327;" horiz-adv-x="283" 
d="M160 -138q0 15 -8 24t-21 9q-16 0 -31 -16l-58 31l21 117l61 -5l-15 -90q22 19 48 19q29 0 48.5 -24t19.5 -60q0 -51 -33.5 -85t-83.5 -34q-43 0 -72.5 23.5t-33.5 61.5l63 17q1 -18 13.5 -28.5t32.5 -10.5q21 0 35 14.5t14 36.5z" />
    <glyph glyph-name="uni0328" unicode="&#x328;" horiz-adv-x="247" 
d="M91 -244q-45 0 -73 26t-28 66q0 38 21 65.5t70 53.5l25 13l5 22h58l-8 -49l-63 -31q-46 -23 -46 -64q0 -19 12.5 -30.5t32.5 -11.5q33 0 48 35l53 -21q-15 -34 -43.5 -54t-63.5 -20z" />
    <glyph glyph-name="uni0400" unicode="&#x400;" horiz-adv-x="561" 
d="M310 941l49 48l143 -170l-46 -43zM206 403h366l-14 -78h-365l-43 -247h386l-14 -78h-467l123 700h466l-13 -78h-385z" />
    <glyph glyph-name="uni0401" unicode="&#x401;" horiz-adv-x="561" 
d="M468 830q0 23 15.5 38.5t38.5 15.5t38.5 -15.5t15.5 -38.5t-15.5 -38.5t-38.5 -15.5t-38.5 15.5t-15.5 38.5zM268 830q0 23 15.5 38.5t38.5 15.5t38.5 -15.5t15.5 -38.5t-15.5 -38.5t-38.5 -15.5t-38.5 15.5t-15.5 38.5zM206 403h366l-14 -78h-365l-43 -247h386l-14 -78
h-467l123 700h466l-13 -78h-385z" />
    <glyph glyph-name="uni0402" unicode="&#x402;" horiz-adv-x="733" 
d="M493 78q65 0 111 41.5t46 98.5q0 45 -31.5 73.5t-82.5 28.5h-206l-57 -320h-80l110 623h-165l14 77h564l-14 -77h-319l-40 -225h207q79 0 130.5 -48t51.5 -122q0 -90 -69.5 -159t-165.5 -69h-82l14 78h64z" />
    <glyph glyph-name="uni0403" unicode="&#x403;" horiz-adv-x="562" 
d="M588 915l-39 57l-189 -142l37 -53zM58 0h80l110 624h395l13 76h-475z" />
    <glyph glyph-name="uni0404" unicode="&#x404;" horiz-adv-x="778" 
d="M99 312q0 112 52.5 205.5t143 147.5t198.5 54q109 0 194 -60t116 -168l-77 -26q-22 79 -87.5 126.5t-152.5 47.5q-83 0 -153.5 -43t-111.5 -117t-41 -161q0 -112 72.5 -184.5t184.5 -72.5q77 0 145.5 43.5t111.5 119.5l70 -38q-55 -97 -143.5 -151t-189.5 -54
q-143 0 -237.5 94t-94.5 237zM600 391l-6 -77h-452v77h458z" />
    <glyph glyph-name="uni0405" unicode="&#x405;" horiz-adv-x="579" 
d="M340 66q66 0 112 35.5t46 87.5q0 39 -36 69t-113 53q-206 63 -206 194q0 89 68 149t167 60q96 0 165 -54t87 -142l-78 -24q-15 65 -62.5 103.5t-115.5 38.5q-63 0 -105.5 -34.5t-42.5 -86.5q0 -40 36 -69.5t114 -53.5q101 -31 152.5 -81t51.5 -116q0 -87 -70 -147
t-172 -60q-99 0 -171 55t-91 146l81 29q14 -70 63 -111t120 -41z" />
    <glyph glyph-name="uni0406" unicode="&#x406;" horiz-adv-x="195" 
d="M136 0h-81l123 700h80z" />
    <glyph glyph-name="uni0407" unicode="&#x407;" horiz-adv-x="195" 
d="M276 829q0 23 15.5 38.5t38.5 15.5t38.5 -15.5t15.5 -38.5t-15.5 -38.5t-38.5 -15.5t-38.5 15.5t-15.5 38.5zM76 829q0 23 15.5 38.5t38.5 15.5t38.5 -15.5t15.5 -38.5t-15.5 -38.5t-38.5 -15.5t-38.5 15.5t-15.5 38.5zM136 0h-81l123 700h80z" />
    <glyph glyph-name="uni0408" unicode="&#x408;" horiz-adv-x="598" 
d="M144 207q11 -66 54.5 -101.5t114.5 -35.5q73 0 123.5 45t64.5 122l81 463h80l-84 -479q-18 -101 -95 -166t-179 -65q-97 0 -161 53.5t-76 144.5z" />
    <glyph glyph-name="uni0409" unicode="&#x409;" horiz-adv-x="1148" 
d="M895 0q102 0 173.5 72.5t71.5 165.5q0 73 -51.5 121.5t-132.5 48.5h-258l51 292h-425l-83 -470q-11 -67 -57 -110.5t-116 -43.5h-21l-13 -76h34q94 0 164.5 62.5t85.5 148.5l73 413h265l-110 -624h349zM1059 226q0 -60 -47 -104t-114 -44h-259l45 252h259q52 0 84 -29.5
t32 -74.5z" />
    <glyph glyph-name="uni040A" unicode="&#x40a;" horiz-adv-x="1023" 
d="M779 0q101 0 172 70.5t71 159.5q0 75 -51 124t-131 49h-247l53 297h-80l-124 -700h337zM940 222q0 -57 -46 -100.5t-112 -43.5h-246l44 247h246q51 0 82.5 -28.5t31.5 -74.5zM523 401h-315l52 299h-80l-122 -700h80l57 323h315z" />
    <glyph glyph-name="uni040B" unicode="&#x40b;" horiz-adv-x="693" 
d="M680 192l-34 -192h-80l34 192q2 8 2 23q0 46 -32 75.5t-84 29.5h-156l-57 -320h-80l110 623h-165l14 77h496l-13 -77h-252l-40 -225h157q80 0 132 -48t52 -123q0 -18 -4 -35z" />
    <glyph glyph-name="uni040C" unicode="&#x40c;" horiz-adv-x="613" 
d="M592 913l-39 57l-189 -142l37 -53zM55 0l123 700h80l-53 -308h30l361 308h113l-408 -351l282 -349h-104l-254 308h-35l-54 -308h-81z" />
    <glyph glyph-name="uni040D" unicode="&#x40d;" horiz-adv-x="685" 
d="M372 942l49 48l143 -170l-46 -43zM628 0h-80l102 584l-492 -584h-100l123 700h80l-102 -577l489 577h103z" />
    <glyph glyph-name="uni040E" unicode="&#x40e;" horiz-adv-x="625" 
d="M462 785q-61 0 -100.5 37t-39.5 92q0 13 3 26h62q-1 -9 -1 -17q0 -33 23 -54t61 -21q44 0 79.5 27t41.5 65h72q-11 -62 -71 -108.5t-130 -46.5zM163 0h95l459 700h-98l-233 -360l-140 360h-91l177 -437z" />
    <glyph glyph-name="uni040F" unicode="&#x40f;" horiz-adv-x="695" 
d="M638 0l123 700h-80l-110 -624h-420l110 624h-80l-123 -700h251l-31 -175h85l31 175h244z" />
    <glyph glyph-name="uni0410" unicode="&#x410;" horiz-adv-x="763" 
d="M127 0h-95l421 700h107l174 -700h-87l-152 610zM223 266h412l-13 -77h-412z" />
    <glyph glyph-name="uni0411" unicode="&#x411;" horiz-adv-x="649" 
d="M648 227q0 -91 -72 -159t-172 -68h-346l122 700h458l-14 -77h-377l-39 -223h256q80 0 132 -49.5t52 -123.5zM408 78q65 0 111.5 42t46.5 100q0 45 -32 73.5t-83 28.5h-257l-43 -244h257z" />
    <glyph glyph-name="uni0412" unicode="&#x412;" horiz-adv-x="650" 
d="M465 389q51 0 93 40t42 90q0 46 -28 74.5t-74 28.5h-253l-41 -233h261zM412 78q61 0 103.5 38.5t42.5 94.5q0 45 -29.5 73.5t-77.5 28.5h-260l-42 -235h263zM638 216q0 -88 -67.5 -152t-161.5 -64h-354l124 700h344q71 0 115 -44.5t44 -115.5q0 -57 -34.5 -110t-89.5 -79
q38 -20 59 -55.5t21 -79.5z" />
    <glyph glyph-name="uni0413" unicode="&#x413;" horiz-adv-x="562" 
d="M58 0h80l110 624h395l13 76h-475z" />
    <glyph glyph-name="uni0414" unicode="&#x414;" horiz-adv-x="760" 
d="M42 76l-34 -192h80l21 116h542l-20 -116h80l34 192h-703zM76 76h-34l5 -58h29q96 0 167.5 60.5t86.5 142.5l70 401h285l-109 -621h80l123 699h-445l-82 -465q-12 -69 -58.5 -114t-117.5 -45z" />
    <glyph glyph-name="uni0415" unicode="&#x415;" horiz-adv-x="561" 
d="M206 403h366l-14 -78h-365l-43 -247h386l-14 -78h-467l123 700h466l-13 -78h-385z" />
    <glyph glyph-name="uni0416" unicode="&#x416;" horiz-adv-x="927" 
d="M547 700h80l-54 -308h65l279 308h103l-316 -348l193 -352h-89l-171 309h-79l-54 -309h-80l54 309h-65l-284 -309h-98l316 349l-193 351h84l176 -308h79z" />
    <glyph glyph-name="uni0417" unicode="&#x417;" horiz-adv-x="546" 
d="M505 524q0 50 -36 83t-91 33q-44 0 -82.5 -23.5t-64.5 -66.5l-66 39q38 60 96 94t125 34q86 0 143.5 -51.5t57.5 -129.5q0 -59 -33 -109t-88 -74q39 -25 60 -65t21 -87q0 -92 -70 -155.5t-171 -63.5q-88 0 -151.5 47t-84.5 127l80 31q12 -58 55.5 -92.5t104.5 -34.5
q67 0 112.5 41.5t45.5 101.5q0 50 -32.5 84t-81.5 34h-87l9 77h92q59 0 98 36t39 90z" />
    <glyph glyph-name="uni0418" unicode="&#x418;" horiz-adv-x="685" 
d="M628 0h-80l102 584l-492 -584h-100l123 700h80l-102 -577l489 577h103z" />
    <glyph glyph-name="uni0419" unicode="&#x419;" horiz-adv-x="685" 
d="M490 785q-61 0 -100.5 37t-39.5 92q0 13 3 26h62q-1 -9 -1 -17q0 -33 23 -54t61 -21q44 0 79.5 27t41.5 65h72q-11 -62 -71 -108.5t-130 -46.5zM628 0h-80l102 584l-492 -584h-100l123 700h80l-102 -577l489 577h103z" />
    <glyph glyph-name="uni041A" unicode="&#x41a;" horiz-adv-x="613" 
d="M55 0l123 700h80l-53 -308h30l361 308h113l-408 -351l282 -349h-104l-254 308h-35l-54 -308h-81z" />
    <glyph glyph-name="uni041B" unicode="&#x41b;" horiz-adv-x="683" 
d="M69 76h-22l-13 -76h34q94 0 164.5 62.5t85.5 148.5l73 413h265l-110 -624h80l123 700h-425l-83 -470q-11 -67 -57 -110.5t-115 -43.5z" />
    <glyph glyph-name="uni041C" unicode="&#x41c;" horiz-adv-x="836" 
d="M54 0l124 700h97l179 -479l351 479h101l-123 -700h-81l101 568l-330 -454h-63l-173 463l-101 -577h-82z" />
    <glyph glyph-name="uni041D" unicode="&#x41d;" horiz-adv-x="685" 
d="M56 0l122 700h81l-54 -303h412l53 303h80l-122 -700h-81l56 320h-411l-56 -320h-80z" />
    <glyph glyph-name="uni041E" unicode="&#x41e;" 
d="M483 640q-83 0 -153 -43.5t-110 -117t-40 -160.5q0 -114 72 -185.5t181 -71.5q84 0 154.5 44.5t110 119t39.5 160.5q0 112 -72.5 183t-181.5 71zM100 315q0 109 51 202.5t140.5 148t194.5 54.5q142 0 236.5 -93t94.5 -237q0 -108 -51 -202t-140.5 -150t-195.5 -56
q-141 0 -235.5 94t-94.5 239z" />
    <glyph glyph-name="uni041F" unicode="&#x41f;" horiz-adv-x="690" 
d="M57 0l122 700h577l-123 -700h-81l111 624h-416l-110 -624h-80z" />
    <glyph glyph-name="uni0420" unicode="&#x420;" horiz-adv-x="625" 
d="M392 315q89 0 147.5 49t58.5 132q0 56 -39 91t-105 35h-208l-54 -307h200zM680 507q0 -82 -40.5 -144.5t-107 -94t-147.5 -31.5h-207l-42 -237h-81l123 700h289q92 0 152.5 -54.5t60.5 -138.5z" />
    <glyph glyph-name="uni0421" unicode="&#x421;" horiz-adv-x="778" 
d="M99 312q0 112 52.5 205.5t143 147.5t198.5 54q109 0 194 -60t116 -168l-77 -26q-22 79 -87.5 126.5t-152.5 47.5q-83 0 -153.5 -43t-111.5 -117t-41 -161q0 -112 72.5 -184.5t184.5 -72.5q77 0 145.5 43.5t111.5 119.5l70 -38q-55 -97 -143.5 -151t-189.5 -54
q-143 0 -237.5 94t-94.5 237z" />
    <glyph glyph-name="uni0422" unicode="&#x422;" horiz-adv-x="596" 
d="M691 700l-14 -78h-230l-109 -622h-81l110 622h-231l13 78h542z" />
    <glyph glyph-name="uni0423" unicode="&#x423;" horiz-adv-x="625" 
d="M163 0h95l459 700h-98l-233 -360l-140 360h-91l177 -437z" />
    <glyph glyph-name="uni0424" unicode="&#x424;" horiz-adv-x="793" 
d="M356 0l132 750h80l-132 -750h-80zM740 391q0 85 -80 137.5t-209 52.5q-120 0 -194 -56.5t-74 -147.5q0 -86 80 -139t208 -53q120 0 194.5 57.5t74.5 148.5zM103 370q0 127 99 207.5t256 80.5q161 0 262 -72t101 -187q0 -128 -100 -209.5t-256 -81.5q-161 0 -261.5 73
t-100.5 189z" />
    <glyph glyph-name="uni0425" unicode="&#x425;" horiz-adv-x="703" 
d="M670 0h-95l-170 294l-274 -294h-104l320 346l-196 354h96l168 -303l276 303h103l-322 -354z" />
    <glyph glyph-name="uni0426" unicode="&#x426;" horiz-adv-x="717" 
d="M609 78l109 622h-80l-109 -622h-378l110 622h-80l-123 -700h550l-22 -121h80l35 199h-92z" />
    <glyph glyph-name="uni0427" unicode="&#x427;" horiz-adv-x="638" 
d="M704 700l-124 -700h-80l124 700h80zM260 700l-40 -230q-4 -20 -4 -44q0 -66 39.5 -104t106.5 -38q78 0 142 48.5t76 117.5h43q-17 -102 -102.5 -173t-188.5 -71q-89 0 -144.5 53.5t-55.5 141.5q0 21 6 51l42 248h80z" />
    <glyph glyph-name="uni0428" unicode="&#x428;" horiz-adv-x="950" 
d="M892 0l124 700h-80l-110 -622h-295l109 622h-80l-109 -622h-300l110 622h-80l-123 -700h834z" />
    <glyph glyph-name="uni0429" unicode="&#x429;" horiz-adv-x="1012" 
d="M906 78l110 622h-80l-110 -622h-295l109 622h-80l-109 -622h-300l110 622h-80l-123 -700h844l-21 -121h80l35 199h-90z" />
    <glyph glyph-name="uni042A" unicode="&#x42a;" horiz-adv-x="777" 
d="M532 78q67 0 115 43.5t48 102.5q0 47 -33 76.5t-85 29.5h-224l-45 -252h224zM776 237q0 -93 -72.5 -165t-175.5 -72h-314l110 623h-184l13 77h265l-52 -292h224q82 0 134 -48.5t52 -122.5z" />
    <glyph glyph-name="uni042B" unicode="&#x42b;" horiz-adv-x="784" 
d="M727 0h-80l123 700h80zM597 238q0 -93 -71.5 -165.5t-173.5 -72.5h-294l122 700h80l-51 -292h204q81 0 132.5 -48.5t51.5 -121.5zM355 78q67 0 114 44t47 104q0 45 -32 74.5t-84 29.5h-204l-45 -252h204z" />
    <glyph glyph-name="uni042C" unicode="&#x42c;" horiz-adv-x="651" 
d="M652 238q0 -93 -71.5 -165.5t-174.5 -72.5h-348l122 700h80l-51 -292h259q81 0 132.5 -48.5t51.5 -121.5zM410 78q67 0 114 44t47 104q0 45 -32 74.5t-84 29.5h-259l-45 -252h259z" />
    <glyph glyph-name="uni042D" unicode="&#x42d;" horiz-adv-x="778" 
d="M802 388q0 -111 -52.5 -205t-143 -148t-198.5 -54q-109 0 -194 60t-116 169l77 25q22 -79 87.5 -126.5t152.5 -47.5q83 0 153.5 43t111.5 117t41 161q0 112 -72.5 184.5t-184.5 72.5q-77 0 -145.5 -43.5t-111.5 -119.5l-71 38q56 97 144.5 151t189.5 54q143 0 237.5 -94
t94.5 -237zM301 309l5 77h452v-77h-457z" />
    <glyph glyph-name="uni042E" unicode="&#x42e;" horiz-adv-x="1083" 
d="M468 318q0 87 40 161t110 117.5t153 43.5q109 0 181.5 -71t72.5 -183q0 -85 -39.5 -159.5t-110 -119.5t-154.5 -45q-109 0 -181 71.5t-72 184.5zM777 720q-106 0 -196 -55t-142 -149.5t-52 -204.5q0 -144 93 -236.5t234 -92.5q107 0 197.5 56.5t142 151.5t51.5 204
q0 143 -93.5 234.5t-234.5 91.5zM432 390h-228l55 310h-80l-124 -700h80l55 312h228z" />
    <glyph glyph-name="uni042F" unicode="&#x42f;" horiz-adv-x="633" 
d="M385 622q-75 0 -129 -48t-54 -115q0 -52 37.5 -85.5t95.5 -33.5h219l50 282h-219zM118 456q0 101 79 172.5t189 71.5h312l-124 -700h-80l46 262h-206l-200 -262h-98l215 273q-60 17 -96.5 67t-36.5 116z" />
    <glyph glyph-name="uni0430" unicode="&#x430;" horiz-adv-x="499" 
d="M311 511q80 0 138 -50t58 -120q0 -12 -3 -28l-54 -313h-81l40 224l-139 -12q-57 -4 -89 -24.5t-32 -55.5q0 -31 27.5 -50.5t73.5 -19.5q61 0 102 34t51 93h34q-15 -87 -76 -142.5t-142 -55.5q-67 0 -109 37.5t-42 96.5q0 67 54 109.5t144 49.5l156 13l2 14q2 15 2 24
q0 43 -33.5 72t-82.5 29q-43 0 -80 -22.5t-53 -59.5l-70 34q28 56 83.5 89.5t120.5 33.5z" />
    <glyph glyph-name="uni0431" unicode="&#x431;" horiz-adv-x="610" 
d="M336 -14q-115 0 -181.5 68.5t-66.5 187.5q0 199 102 330t267 143q77 7 110.5 15.5t64.5 31.5l33 -61q-36 -27 -81.5 -39.5t-127.5 -17.5q-100 -5 -171.5 -75.5t-100.5 -191.5q35 47 92 75t119 28q95 0 157 -62t62 -157q0 -115 -81 -195t-197 -80zM362 404
q-81 0 -136.5 -51t-55.5 -125q0 -69 51 -116t125 -47q78 0 132.5 54.5t54.5 131.5q0 67 -48 110t-123 43z" />
    <glyph glyph-name="uni0432" unicode="&#x432;" horiz-adv-x="555" 
d="M398 286q39 0 66 22.5t27 55.5q0 28 -21 45.5t-56 17.5h-201l-25 -141h210zM362 73q42 0 72.5 24.5t30.5 59.5q0 27 -21.5 44.5t-55.5 17.5h-212l-26 -146h212zM544 157q0 -66 -54 -111.5t-131 -45.5h-301l88 500h291q60 0 98.5 -33.5t38.5 -85.5q0 -40 -23 -72.5
t-63 -50.5q26 -14 41 -41.5t15 -59.5z" />
    <glyph glyph-name="uni0433" unicode="&#x433;" horiz-adv-x="432" 
d="M58 0h80l74 424h258l13 76h-337z" />
    <glyph glyph-name="uni0434" unicode="&#x434;" horiz-adv-x="604" 
d="M42 76l-34 -192h80l21 116h387l-21 -116h80l34 192h-547zM66 76h-19l-11 -61h30q74 0 128.5 45.5t65.5 107.5l45 254h195l-74 -422h80l88 500h-355l-56 -318q-8 -46 -39 -76t-78 -30z" />
    <glyph glyph-name="uni0435" unicode="&#x435;" horiz-adv-x="596" 
d="M528 305q-4 62 -48.5 100.5t-108.5 38.5q-70 0 -128 -43t-74 -113h359q1 8 0 17zM606 284q0 -30 -10 -68h-433q2 -70 50.5 -114t121.5 -44q55 0 102.5 26t77.5 73l65 -43q-44 -65 -109 -98.5t-141 -33.5q-107 0 -178.5 68t-71.5 174q0 79 39 147t107 108.5t148 40.5
q99 0 165.5 -66t66.5 -170z" />
    <glyph glyph-name="uni0436" unicode="&#x436;" horiz-adv-x="769" 
d="M433 500h80l-38 -211h40l210 211h100l-249 -250l160 -250h-90l-137 208h-48l-37 -208h-80l38 211h-40l-210 -211h-100l250 250l-161 250h90l136 -208h49z" />
    <glyph glyph-name="uni0437" unicode="&#x437;" horiz-adv-x="475" 
d="M409 357q0 34 -29 58t-72 24q-34 0 -63.5 -16.5t-48.5 -46.5l-68 40q31 48 80.5 74.5t105.5 26.5q76 0 126.5 -42t50.5 -105q0 -43 -23.5 -78t-64.5 -52q56 -37 56 -106q0 -65 -55 -109t-138 -44q-76 0 -132.5 38t-75.5 103l78 28q12 -41 48.5 -66t86.5 -25q48 0 79 23
t31 58q0 32 -23.5 54t-57.5 22h-77l7 66h81q44 0 71 20.5t27 54.5z" />
    <glyph glyph-name="uni0438" unicode="&#x438;" horiz-adv-x="565" 
d="M508 0h-80l70 394l-342 -394h-98l88 500h80l-68 -384l339 384h99z" />
    <glyph glyph-name="uni0439" unicode="&#x439;" horiz-adv-x="565" 
d="M391 576q-61 0 -100.5 37t-39.5 92q0 13 3 26h62q-1 -9 -1 -17q0 -33 23 -54t61 -21q44 0 79.5 27t41.5 65h72q-11 -62 -71 -108.5t-130 -46.5zM508 0h-80l70 394l-342 -394h-98l88 500h80l-68 -384l339 384h99z" />
    <glyph glyph-name="uni043A" unicode="&#x43a;" horiz-adv-x="501" 
d="M55 0l89 500h80l-36 -201h26l242 201h116l-294 -247l200 -253h-98l-179 218h-27l-38 -218h-81z" />
    <glyph glyph-name="uni043B" unicode="&#x43b;" horiz-adv-x="555" 
d="M69 78h-22l-13 -78h31q70 0 122.5 47t63.5 111l47 264h195l-75 -422h80l88 500h-355l-58 -328q-7 -41 -34.5 -67.5t-69.5 -26.5z" />
    <glyph glyph-name="uni043C" unicode="&#x43c;" horiz-adv-x="696" 
d="M58 0l88 500h89l138 -330l253 330h101l-89 -500h-80l68 384l-237 -310h-55l-129 310l-67 -384h-80z" />
    <glyph glyph-name="uni043D" unicode="&#x43d;" horiz-adv-x="587" 
d="M58 0l88 500h80l-38 -211h313l37 211h80l-88 -500h-80l38 213h-313l-37 -213h-80z" />
    <glyph glyph-name="uni043E" unicode="&#x43e;" horiz-adv-x="618" 
d="M369 443q-87 0 -147.5 -62.5t-60.5 -149.5q0 -76 51 -124t127 -48q87 0 147.5 62.5t60.5 149.5q0 76 -51 124t-127 48zM81 224q0 122 85.5 209t208.5 87q108 0 180 -68t72 -174q0 -122 -85.5 -209t-208.5 -87q-108 0 -180 68t-72 174z" />
    <glyph glyph-name="uni043F" unicode="&#x43f;" horiz-adv-x="545" 
d="M576 500l-88 -500h-80l74 424h-270l-74 -424h-80l88 500h430z" />
    <glyph glyph-name="uni0440" unicode="&#x440;" horiz-adv-x="638" 
d="M138 500h80l-122 -700h-80zM382 441q-87 0 -147.5 -62.5t-60.5 -149.5q0 -75 51 -123t127 -48q87 0 147.5 62t60.5 149q0 76 -51 124t-127 48zM135 213q0 80 36 150t99.5 112t138.5 42q98 0 164.5 -66.5t66.5 -171.5q0 -79 -37 -148.5t-102 -110.5t-141 -41
q-99 0 -162 66t-63 168z" />
    <glyph glyph-name="uni0441" unicode="&#x441;" horiz-adv-x="586" 
d="M367 442q-85 0 -144.5 -62.5t-59.5 -151.5q0 -74 48.5 -122t123.5 -48q57 0 106.5 28.5t77.5 78.5l66 -38q-40 -69 -107.5 -107.5t-148.5 -38.5q-107 0 -176.5 68t-69.5 173q0 123 85 210t205 87q86 0 150 -42.5t89 -112.5l-76 -32q-17 51 -62 80.5t-107 29.5z" />
    <glyph glyph-name="uni0442" unicode="&#x442;" horiz-adv-x="480" 
d="M538 500l-13 -76h-170l-75 -424h-80l75 424h-170l13 76h420z" />
    <glyph glyph-name="uni0443" unicode="&#x443;" horiz-adv-x="556" 
d="M527 500l-237 -398l-88 398h-84l110 -488l-123 -212h93l419 700h-90z" />
    <glyph glyph-name="uni0444" unicode="&#x444;" horiz-adv-x="638" 
d="M247 -190l154 870h78l-154 -870h-78zM377 443q-90 0 -152.5 -61t-62.5 -149q0 -75 54 -124.5t136 -49.5q90 0 152 61t62 149q0 75 -53.5 124.5t-135.5 49.5zM82 226q0 122 88 208t214 86q113 0 188 -69.5t75 -174.5q0 -122 -88.5 -208t-213.5 -86q-114 0 -188.5 69.5
t-74.5 174.5z" />
    <glyph glyph-name="uni0445" unicode="&#x445;" horiz-adv-x="550" 
d="M524 0h-92l-122 199l-178 -199h-105l235 255l-144 245h92l118 -199l183 199h103l-238 -255z" />
    <glyph glyph-name="uni0446" unicode="&#x446;" horiz-adv-x="604" 
d="M58 0l88 500h80l-75 -424h295l75 424h80l-75 -424h62l-34 -192h-80l20 116h-436z" />
    <glyph glyph-name="uni0447" unicode="&#x447;" horiz-adv-x="523" 
d="M554 500l-88 -500h-80l88 500h80zM226 500l-29 -166q-3 -15 -3 -28q0 -43 26 -67.5t72 -24.5q55 0 99.5 34.5t52.5 83.5h43q-14 -82 -80 -139t-147 -57q-67 0 -108.5 39.5t-41.5 104.5q0 18 4 37l32 183h80z" />
    <glyph glyph-name="uni0448" unicode="&#x448;" horiz-adv-x="840" 
d="M782 0l89 500h-80l-75 -424h-243l75 424h-80l-75 -424h-242l75 424h-80l-88 -500h724z" />
    <glyph glyph-name="uni0449" unicode="&#x449;" horiz-adv-x="889" 
d="M796 76l75 424h-80l-75 -424h-243l75 424h-80l-75 -424h-242l75 424h-80l-88 -500h716l-20 -116h80l34 192h-72z" />
    <glyph glyph-name="uni044A" unicode="&#x44a;" horiz-adv-x="655" 
d="M646 176q0 -71 -55.5 -123.5t-131.5 -52.5h-267l75 423h-155l14 77h234l-35 -198h187q60 0 97 -35.5t37 -90.5zM463 78q41 0 71 23.5t30 59.5q0 28 -21 45.5t-55 17.5h-177l-25 -146h177z" />
    <glyph glyph-name="uni044B" unicode="&#x44b;" horiz-adv-x="730" 
d="M593 0l88 500h80l-88 -500h-80zM355 78q42 0 72.5 24t30.5 59q0 28 -21.5 45.5t-55.5 17.5h-207l-26 -146h207zM539 175q0 -70 -55.5 -122.5t-131.5 -52.5h-297l88 500h80l-35 -200h216q61 0 98 -35t37 -90z" />
    <glyph glyph-name="uni044C" unicode="&#x44c;" horiz-adv-x="558" 
d="M365 78q42 0 72.5 24t30.5 59q0 28 -21.5 45.5t-55.5 17.5h-214l-26 -146h214zM549 175q0 -70 -55.5 -122.5t-131.5 -52.5h-304l88 500h80l-36 -200h224q61 0 98 -35t37 -90z" />
    <glyph glyph-name="uni044D" unicode="&#x44d;" horiz-adv-x="586" 
d="M306 56q86 0 146 63t60 153q0 75 -49 123.5t-126 48.5q-57 0 -107.5 -29t-77.5 -80l-65 39q40 68 107.5 106.5t148.5 38.5q107 0 177 -68t70 -173q0 -123 -85 -210t-205 -87q-86 0 -150.5 42.5t-88.5 112.5l73 33q18 -53 63.5 -83t108.5 -30zM238 214l5 67h317v-67h-322z
" />
    <glyph glyph-name="uni044E" unicode="&#x44e;" horiz-adv-x="868" 
d="M410 230q0 89 60.5 151t146.5 62q77 0 126.5 -48.5t49.5 -122.5q0 -89 -60.5 -151t-146.5 -62q-76 0 -126 48.5t-50 122.5zM623 520q-121 0 -207 -87t-86 -210q0 -104 71 -172.5t179 -68.5q122 0 207.5 87t85.5 210q0 104 -71 172.5t-179 68.5zM359 290h-173l37 210h-80
l-88 -500h80l37 212h173z" />
    <glyph glyph-name="uni044F" unicode="&#x44f;" horiz-adv-x="543" 
d="M292 422q-47 0 -81 -27.5t-34 -67.5q0 -31 23.5 -51t61.5 -20h185l30 166h-185zM92 322q0 73 58.5 125.5t143.5 52.5h277l-89 -500h-80l33 183h-181l-126 -183h-94l140 197q-36 16 -59 50t-23 75z" />
    <glyph glyph-name="uni0450" unicode="&#x450;" horiz-adv-x="596" 
d="M283 732l49 48l143 -170l-46 -43zM528 305q-4 62 -48.5 100.5t-108.5 38.5q-70 0 -128 -43t-74 -113h359q1 8 0 17zM606 284q0 -30 -10 -68h-433q2 -70 50.5 -114t121.5 -44q55 0 102.5 26t77.5 73l65 -43q-44 -65 -109 -98.5t-141 -33.5q-107 0 -178.5 68t-71.5 174
q0 79 39 147t107 108.5t148 40.5q99 0 165.5 -66t66.5 -170z" />
    <glyph glyph-name="uni0451" unicode="&#x451;" horiz-adv-x="596" 
d="M441 621q0 23 15.5 38.5t38.5 15.5t38.5 -15.5t15.5 -38.5t-15.5 -38.5t-38.5 -15.5t-38.5 15.5t-15.5 38.5zM241 621q0 23 15.5 38.5t38.5 15.5t38.5 -15.5t15.5 -38.5t-15.5 -38.5t-38.5 -15.5t-38.5 15.5t-15.5 38.5zM528 305q-4 62 -48.5 100.5t-108.5 38.5
q-70 0 -128 -43t-74 -113h359q1 8 0 17zM606 284q0 -30 -10 -68h-433q2 -70 50.5 -114t121.5 -44q55 0 102.5 26t77.5 73l65 -43q-44 -65 -109 -98.5t-141 -33.5q-107 0 -178.5 68t-71.5 174q0 79 39 147t107 108.5t148 40.5q99 0 165.5 -66t66.5 -170z" />
    <glyph glyph-name="uni0452" unicode="&#x452;" horiz-adv-x="545" 
d="M60 0l106 598h-60l12 72h60l14 80h80l-14 -80h222l-12 -72h-222l-106 -598h-80zM411 16l49 280q11 64 -17.5 101t-85.5 37q-58 0 -106.5 -40.5t-58.5 -97.5h-43q16 89 83 152t154 63q78 0 125 -56.5t32 -141.5l-55 -310q-12 -71 -63.5 -116.5t-122.5 -46.5h-69l9 78h61
q44 0 72 27.5t36 70.5z" />
    <glyph glyph-name="uni0453" unicode="&#x453;" horiz-adv-x="432" 
d="M489 706l-39 57l-189 -142l37 -53zM58 0h80l74 424h258l13 76h-337z" />
    <glyph glyph-name="uni0454" unicode="&#x454;" horiz-adv-x="586" 
d="M367 444q-86 0 -146.5 -63t-60.5 -153q0 -75 49.5 -123.5t125.5 -48.5q57 0 107.5 29t78.5 80l64 -38q-40 -69 -107.5 -107.5t-148.5 -38.5q-107 0 -176.5 68t-69.5 173q0 123 85 210t205 87q86 0 150 -42.5t89 -112.5l-73 -32q-18 52 -63.5 82t-108.5 30zM435 286
l-5 -67h-317v67h322z" />
    <glyph glyph-name="uni0455" unicode="&#x455;" horiz-adv-x="479" 
d="M278 59q45 0 74 21.5t29 54.5q0 51 -110 82q-161 43 -161 139q0 65 52.5 111.5t129.5 46.5q73 0 127.5 -43.5t69.5 -114.5l-79 -18q-9 46 -40 74t-79 28q-42 0 -71 -21.5t-29 -52.5q0 -25 24.5 -43t77.5 -33q169 -46 169 -147q0 -64 -55 -109.5t-136 -45.5
q-78 0 -137.5 42t-75.5 110l77 22q11 -44 49.5 -73.5t93.5 -29.5z" />
    <glyph glyph-name="uni0456" unicode="&#x456;" horiz-adv-x="193" 
d="M159 636q0 23 15.5 38.5t38.5 15.5t38.5 -15.5t15.5 -38.5t-15.5 -38.5t-38.5 -15.5t-38.5 15.5t-15.5 38.5zM57 0l88 500h81l-88 -500h-81z" />
    <glyph glyph-name="uni0457" unicode="&#x457;" horiz-adv-x="193" 
d="M240 622q0 23 15.5 38.5t38.5 15.5t38.5 -15.5t15.5 -38.5t-15.5 -38.5t-38.5 -15.5t-38.5 15.5t-15.5 38.5zM40 622q0 23 15.5 38.5t38.5 15.5t38.5 -15.5t15.5 -38.5t-15.5 -38.5t-38.5 -15.5t-38.5 15.5t-15.5 38.5zM57 0l88 500h81l-88 -500h-81z" />
    <glyph glyph-name="uni0458" unicode="&#x458;" horiz-adv-x="193" 
d="M159 636q0 23 15.5 38.5t38.5 15.5t38.5 -15.5t15.5 -38.5t-15.5 -38.5t-38.5 -15.5t-38.5 15.5t-15.5 38.5zM-28 -100q32 0 54 23t28 58l91 519h81l-97 -550q-10 -54 -51.5 -91t-98.5 -37h-42l11 78h24z" />
    <glyph glyph-name="uni0459" unicode="&#x459;" horiz-adv-x="926" 
d="M730 0q73 0 126 51t53 119q0 57 -38.5 93.5t-100.5 36.5h-219l35 200h-355l-58 -328q-7 -40 -34.5 -67t-70.5 -27h-21l-13 -78h36q68 0 119 47t62 111l47 264h195l-75 -422h312zM828 161q0 -35 -30.5 -59t-72.5 -24h-214l26 146h214q34 0 55.5 -17.5t21.5 -45.5z" />
    <glyph glyph-name="uni045A" unicode="&#x45a;" horiz-adv-x="826" 
d="M728 159q0 -34 -29.5 -57.5t-71.5 -23.5h-181l25 144h182q33 0 54 -17.5t21 -45.5zM624 0q75 0 130.5 52t55.5 122q0 54 -37 88.5t-97 34.5h-191l35 203h-80l-88 -500h272zM419 292h-230l37 208h-80l-88 -500h80l37 214h230z" />
    <glyph glyph-name="uni045B" unicode="&#x45b;" horiz-adv-x="545" 
d="M411 0l49 278q13 70 -20 115t-95 45q-58 0 -100 -39.5t-55 -103.5h-42q19 95 81.5 156t142.5 61q89 0 138.5 -68t31.5 -166l-50 -278h-81zM58 0l107 612h-57l13 72h56l12 66h82l-12 -66h182l-13 -72h-182l-107 -612h-81z" />
    <glyph glyph-name="uni045C" unicode="&#x45c;" horiz-adv-x="501" 
d="M511 706l-39 57l-189 -142l37 -53zM55 0l89 500h80l-36 -201h26l242 201h116l-294 -247l200 -253h-98l-179 218h-27l-38 -218h-81z" />
    <glyph glyph-name="uni045D" unicode="&#x45d;" horiz-adv-x="565" 
d="M273 733l49 48l143 -170l-46 -43zM508 0h-80l70 394l-342 -394h-98l88 500h80l-68 -384l339 384h99z" />
    <glyph glyph-name="uni045E" unicode="&#x45e;" horiz-adv-x="556" 
d="M375 574q-61 0 -100.5 37t-39.5 92q0 13 3 26h62q-1 -9 -1 -17q0 -33 23 -54t61 -21q44 0 79.5 27t41.5 65h72q-11 -62 -71 -108.5t-130 -46.5zM527 500l-237 -398l-88 398h-84l110 -488l-123 -212h93l419 700h-90z" />
    <glyph glyph-name="uni045F" unicode="&#x45f;" horiz-adv-x="555" 
d="M58 0l88 500h80l-75 -424h280l75 424h80l-88 -500h-176l-29 -165h-80l29 165h-184z" />
    <glyph glyph-name="uni1EA0" unicode="&#x1ea0;" horiz-adv-x="763" 
d="M318 -137.5q0 22.5 15.5 38t38.5 15.5t38.5 -15.5t15.5 -38t-15.5 -38.5t-38.5 -16t-38.5 16t-15.5 38.5zM127 0h-95l421 700h107l174 -700h-87l-152 610zM223 266h412l-13 -77h-412z" />
    <glyph glyph-name="uni1EA1" unicode="&#x1ea1;" horiz-adv-x="499" 
d="M179 -137.5q0 22.5 15.5 38t38.5 15.5t38.5 -15.5t15.5 -38t-15.5 -38.5t-38.5 -16t-38.5 16t-15.5 38.5zM311 511q80 0 138 -50t58 -120q0 -12 -3 -28l-54 -313h-81l40 224l-139 -12q-57 -4 -89 -24.5t-32 -55.5q0 -31 27.5 -50.5t73.5 -19.5q61 0 102 34t51 93h34
q-15 -87 -76 -142.5t-142 -55.5q-67 0 -109 37.5t-42 96.5q0 67 54 109.5t144 49.5l156 13l2 14q2 15 2 24q0 43 -33.5 72t-82.5 29q-43 0 -80 -22.5t-53 -59.5l-70 34q28 56 83.5 89.5t120.5 33.5z" />
    <glyph glyph-name="uni1EA2" unicode="&#x1ea2;" horiz-adv-x="763" 
d="M541 1001q44 0 72.5 -25.5t28.5 -68.5q0 -44 -24 -71t-70 -52l-30 -16l-28 52l45 24q42 19 42 56q0 18 -12 29t-31 11q-33 0 -46 -33l-54 23q15 34 43.5 52.5t63.5 18.5zM127 0h-95l421 700h107l174 -700h-87l-152 610zM223 266h412l-13 -77h-412z" />
    <glyph glyph-name="uni1EA3" unicode="&#x1ea3;" horiz-adv-x="499" 
d="M360 791q44 0 72.5 -25.5t28.5 -68.5q0 -44 -24 -71t-70 -52l-30 -16l-28 52l45 24q42 19 42 56q0 18 -12 29t-31 11q-33 0 -46 -33l-54 23q15 34 43.5 52.5t63.5 18.5zM311 511q80 0 138 -50t58 -120q0 -12 -3 -28l-54 -313h-81l40 224l-139 -12q-57 -4 -89 -24.5
t-32 -55.5q0 -31 27.5 -50.5t73.5 -19.5q61 0 102 34t51 93h34q-15 -87 -76 -142.5t-142 -55.5q-67 0 -109 37.5t-42 96.5q0 67 54 109.5t144 49.5l156 13l2 14q2 15 2 24q0 43 -33.5 72t-82.5 29q-43 0 -80 -22.5t-53 -59.5l-70 34q28 56 83.5 89.5t120.5 33.5z" />
    <glyph glyph-name="uni1EA4" unicode="&#x1ea4;" horiz-adv-x="763" 
d="M885 1094l-39 57l-189 -142l37 -53zM539 976l-190 -149l37 -55l156 128l109 -136l51 44l-138 166zM127 0h-95l421 700h107l174 -700h-87l-152 610zM223 266h412l-13 -77h-412z" />
    <glyph glyph-name="uni1EA5" unicode="&#x1ea5;" horiz-adv-x="499" 
d="M693 865l-39 57l-189 -142l37 -53zM358 766l-190 -149l37 -55l156 128l109 -136l51 44l-138 166zM311 511q80 0 138 -50t58 -120q0 -12 -3 -28l-54 -313h-81l40 224l-139 -12q-57 -4 -89 -24.5t-32 -55.5q0 -31 27.5 -50.5t73.5 -19.5q61 0 102 34t51 93h34
q-15 -87 -76 -142.5t-142 -55.5q-67 0 -109 37.5t-42 96.5q0 67 54 109.5t144 49.5l156 13l2 14q2 15 2 24q0 43 -33.5 72t-82.5 29q-43 0 -80 -22.5t-53 -59.5l-70 34q28 56 83.5 89.5t120.5 33.5z" />
    <glyph glyph-name="uni1EA6" unicode="&#x1ea6;" horiz-adv-x="763" 
d="M614 1121l49 48l143 -170l-46 -43zM539 976l-190 -149l37 -55l156 128l109 -136l51 44l-138 166zM127 0h-95l421 700h107l174 -700h-87l-152 610zM223 266h412l-13 -77h-412z" />
    <glyph glyph-name="uni1EA7" unicode="&#x1ea7;" horiz-adv-x="499" 
d="M422 892l49 48l143 -170l-46 -43zM358 766l-190 -149l37 -55l156 128l109 -136l51 44l-138 166zM311 511q80 0 138 -50t58 -120q0 -12 -3 -28l-54 -313h-81l40 224l-139 -12q-57 -4 -89 -24.5t-32 -55.5q0 -31 27.5 -50.5t73.5 -19.5q61 0 102 34t51 93h34
q-15 -87 -76 -142.5t-142 -55.5q-67 0 -109 37.5t-42 96.5q0 67 54 109.5t144 49.5l156 13l2 14q2 15 2 24q0 43 -33.5 72t-82.5 29q-43 0 -80 -22.5t-53 -59.5l-70 34q28 56 83.5 89.5t120.5 33.5z" />
    <glyph glyph-name="uni1EA8" unicode="&#x1ea8;" horiz-adv-x="763" 
d="M747 1180q44 0 72.5 -25.5t28.5 -68.5q0 -44 -24 -71t-70 -52l-30 -16l-28 52l45 24q42 19 42 56q0 18 -12 29t-31 11q-33 0 -46 -33l-54 23q15 34 43.5 52.5t63.5 18.5zM539 976l-190 -149l37 -55l156 128l109 -136l51 44l-138 166zM127 0h-95l421 700h107l174 -700h-87
l-152 610zM223 266h412l-13 -77h-412z" />
    <glyph glyph-name="uni1EA9" unicode="&#x1ea9;" horiz-adv-x="499" 
d="M555 951q44 0 72.5 -25.5t28.5 -68.5q0 -44 -24 -71t-70 -52l-30 -16l-28 52l45 24q42 19 42 56q0 18 -12 29t-31 11q-33 0 -46 -33l-54 23q15 34 43.5 52.5t63.5 18.5zM358 766l-190 -149l37 -55l156 128l109 -136l51 44l-138 166zM311 511q80 0 138 -50t58 -120
q0 -12 -3 -28l-54 -313h-81l40 224l-139 -12q-57 -4 -89 -24.5t-32 -55.5q0 -31 27.5 -50.5t73.5 -19.5q61 0 102 34t51 93h34q-15 -87 -76 -142.5t-142 -55.5q-67 0 -109 37.5t-42 96.5q0 67 54 109.5t144 49.5l156 13l2 14q2 15 2 24q0 43 -33.5 72t-82.5 29
q-43 0 -80 -22.5t-53 -59.5l-70 34q28 56 83.5 89.5t120.5 33.5z" />
    <glyph glyph-name="uni1EAA" unicode="&#x1eaa;" horiz-adv-x="763" 
d="M500 1140q-39 0 -71 -31.5t-54 -88.5l61 -18q26 72 61 72q13 0 23.5 -6.5t26.5 -26.5q21 -25 40 -35t44 -10q41 0 73 31.5t52 88.5l-58 18q-13 -33 -30.5 -51t-36.5 -18q-15 0 -25 6.5t-25 25.5q-21 24 -38.5 33.5t-42.5 9.5zM539 976l-190 -149l37 -55l156 128l109 -136
l51 44l-138 166zM127 0h-95l421 700h107l174 -700h-87l-152 610zM223 266h412l-13 -77h-412z" />
    <glyph glyph-name="uni1EAB" unicode="&#x1eab;" horiz-adv-x="499" 
d="M338 943q-39 0 -71 -31.5t-54 -88.5l61 -18q26 72 61 72q13 0 23.5 -6.5t26.5 -26.5q21 -25 40 -35t44 -10q41 0 73 31.5t52 88.5l-58 18q-13 -33 -30.5 -51t-36.5 -18q-15 0 -25 6.5t-25 25.5q-21 24 -38.5 33.5t-42.5 9.5zM358 766l-190 -149l37 -55l156 128l109 -136
l51 44l-138 166zM311 511q80 0 138 -50t58 -120q0 -12 -3 -28l-54 -313h-81l40 224l-139 -12q-57 -4 -89 -24.5t-32 -55.5q0 -31 27.5 -50.5t73.5 -19.5q61 0 102 34t51 93h34q-15 -87 -76 -142.5t-142 -55.5q-67 0 -109 37.5t-42 96.5q0 67 54 109.5t144 49.5l156 13l2 14
q2 15 2 24q0 43 -33.5 72t-82.5 29q-43 0 -80 -22.5t-53 -59.5l-70 34q28 56 83.5 89.5t120.5 33.5z" />
    <glyph glyph-name="uni1EAC" unicode="&#x1eac;" horiz-adv-x="763" 
d="M544 987l-190 -149l37 -55l156 128l109 -136l51 44l-138 166zM318 -137.5q0 22.5 15.5 38t38.5 15.5t38.5 -15.5t15.5 -38t-15.5 -38.5t-38.5 -16t-38.5 16t-15.5 38.5zM127 0h-95l421 700h107l174 -700h-87l-152 610zM223 266h412l-13 -77h-412z" />
    <glyph glyph-name="uni1EAD" unicode="&#x1ead;" horiz-adv-x="499" 
d="M352 785l-190 -149l37 -55l156 128l109 -136l51 44l-138 166zM179 -137.5q0 22.5 15.5 38t38.5 15.5t38.5 -15.5t15.5 -38t-15.5 -38.5t-38.5 -16t-38.5 16t-15.5 38.5zM311 511q80 0 138 -50t58 -120q0 -12 -3 -28l-54 -313h-81l40 224l-139 -12q-57 -4 -89 -24.5
t-32 -55.5q0 -31 27.5 -50.5t73.5 -19.5q61 0 102 34t51 93h34q-15 -87 -76 -142.5t-142 -55.5q-67 0 -109 37.5t-42 96.5q0 67 54 109.5t144 49.5l156 13l2 14q2 15 2 24q0 43 -33.5 72t-82.5 29q-43 0 -80 -22.5t-53 -59.5l-70 34q28 56 83.5 89.5t120.5 33.5z" />
    <glyph glyph-name="uni1EAE" unicode="&#x1eae;" horiz-adv-x="763" 
d="M718 1136l-39 57l-189 -142l37 -53zM526 785q-61 0 -100.5 37t-39.5 92q0 13 3 26h62q-1 -9 -1 -17q0 -33 23 -54t61 -21q44 0 79.5 27t41.5 65h72q-11 -62 -71 -108.5t-130 -46.5zM127 0h-95l421 700h107l174 -700h-87l-152 610zM223 266h412l-13 -77h-412z" />
    <glyph glyph-name="uni1EAF" unicode="&#x1eaf;" horiz-adv-x="499" 
d="M526 909l-39 57l-189 -142l37 -53zM345 575q-61 0 -100.5 37t-39.5 92q0 13 3 26h62q-1 -9 -1 -17q0 -33 23 -54t61 -21q44 0 79.5 27t41.5 65h72q-11 -62 -71 -108.5t-130 -46.5zM311 511q80 0 138 -50t58 -120q0 -12 -3 -28l-54 -313h-81l40 224l-139 -12
q-57 -4 -89 -24.5t-32 -55.5q0 -31 27.5 -50.5t73.5 -19.5q61 0 102 34t51 93h34q-15 -87 -76 -142.5t-142 -55.5q-67 0 -109 37.5t-42 96.5q0 67 54 109.5t144 49.5l156 13l2 14q2 15 2 24q0 43 -33.5 72t-82.5 29q-43 0 -80 -22.5t-53 -59.5l-70 34q28 56 83.5 89.5
t120.5 33.5z" />
    <glyph glyph-name="uni1EB0" unicode="&#x1eb0;" horiz-adv-x="763" 
d="M447 1163l49 48l143 -170l-46 -43zM526 785q-61 0 -100.5 37t-39.5 92q0 13 3 26h62q-1 -9 -1 -17q0 -33 23 -54t61 -21q44 0 79.5 27t41.5 65h72q-11 -62 -71 -108.5t-130 -46.5zM127 0h-95l421 700h107l174 -700h-87l-152 610zM223 266h412l-13 -77h-412z" />
    <glyph glyph-name="uni1EB1" unicode="&#x1eb1;" horiz-adv-x="499" 
d="M255 936l49 48l143 -170l-46 -43zM345 575q-61 0 -100.5 37t-39.5 92q0 13 3 26h62q-1 -9 -1 -17q0 -33 23 -54t61 -21q44 0 79.5 27t41.5 65h72q-11 -62 -71 -108.5t-130 -46.5zM311 511q80 0 138 -50t58 -120q0 -12 -3 -28l-54 -313h-81l40 224l-139 -12
q-57 -4 -89 -24.5t-32 -55.5q0 -31 27.5 -50.5t73.5 -19.5q61 0 102 34t51 93h34q-15 -87 -76 -142.5t-142 -55.5q-67 0 -109 37.5t-42 96.5q0 67 54 109.5t144 49.5l156 13l2 14q2 15 2 24q0 43 -33.5 72t-82.5 29q-43 0 -80 -22.5t-53 -59.5l-70 34q28 56 83.5 89.5
t120.5 33.5z" />
    <glyph glyph-name="uni1EB2" unicode="&#x1eb2;" horiz-adv-x="763" 
d="M580 1222q44 0 72.5 -25.5t28.5 -68.5q0 -44 -24 -71t-70 -52l-30 -16l-28 52l45 24q42 19 42 56q0 18 -12 29t-31 11q-33 0 -46 -33l-54 23q15 34 43.5 52.5t63.5 18.5zM526 785q-61 0 -100.5 37t-39.5 92q0 13 3 26h62q-1 -9 -1 -17q0 -33 23 -54t61 -21q44 0 79.5 27
t41.5 65h72q-11 -62 -71 -108.5t-130 -46.5zM127 0h-95l421 700h107l174 -700h-87l-152 610zM223 266h412l-13 -77h-412z" />
    <glyph glyph-name="uni1EB3" unicode="&#x1eb3;" horiz-adv-x="499" 
d="M388 995q44 0 72.5 -25.5t28.5 -68.5q0 -44 -24 -71t-70 -52l-30 -16l-28 52l45 24q42 19 42 56q0 18 -12 29t-31 11q-33 0 -46 -33l-54 23q15 34 43.5 52.5t63.5 18.5zM345 575q-61 0 -100.5 37t-39.5 92q0 13 3 26h62q-1 -9 -1 -17q0 -33 23 -54t61 -21q44 0 79.5 27
t41.5 65h72q-11 -62 -71 -108.5t-130 -46.5zM311 511q80 0 138 -50t58 -120q0 -12 -3 -28l-54 -313h-81l40 224l-139 -12q-57 -4 -89 -24.5t-32 -55.5q0 -31 27.5 -50.5t73.5 -19.5q61 0 102 34t51 93h34q-15 -87 -76 -142.5t-142 -55.5q-67 0 -109 37.5t-42 96.5
q0 67 54 109.5t144 49.5l156 13l2 14q2 15 2 24q0 43 -33.5 72t-82.5 29q-43 0 -80 -22.5t-53 -59.5l-70 34q28 56 83.5 89.5t120.5 33.5z" />
    <glyph glyph-name="uni1EB4" unicode="&#x1eb4;" horiz-adv-x="763" 
d="M505 1142q-39 0 -71 -31.5t-54 -88.5l61 -18q26 72 61 72q13 0 23.5 -6.5t26.5 -26.5q21 -25 40 -35t44 -10q41 0 73 31.5t52 88.5l-58 18q-13 -33 -30.5 -51t-36.5 -18q-15 0 -25 6.5t-25 25.5q-21 24 -38.5 33.5t-42.5 9.5zM526 785q-61 0 -100.5 37t-39.5 92
q0 13 3 26h62q-1 -9 -1 -17q0 -33 23 -54t61 -21q44 0 79.5 27t41.5 65h72q-11 -62 -71 -108.5t-130 -46.5zM127 0h-95l421 700h107l174 -700h-87l-152 610zM223 266h412l-13 -77h-412z" />
    <glyph glyph-name="uni1EB5" unicode="&#x1eb5;" horiz-adv-x="499" 
d="M313 915q-39 0 -71 -31.5t-54 -88.5l61 -18q26 72 61 72q13 0 23.5 -6.5t26.5 -26.5q21 -25 40 -35t44 -10q41 0 73 31.5t52 88.5l-58 18q-13 -33 -30.5 -51t-36.5 -18q-15 0 -25 6.5t-25 25.5q-21 24 -38.5 33.5t-42.5 9.5zM345 575q-61 0 -100.5 37t-39.5 92q0 13 3 26
h62q-1 -9 -1 -17q0 -33 23 -54t61 -21q44 0 79.5 27t41.5 65h72q-11 -62 -71 -108.5t-130 -46.5zM311 511q80 0 138 -50t58 -120q0 -12 -3 -28l-54 -313h-81l40 224l-139 -12q-57 -4 -89 -24.5t-32 -55.5q0 -31 27.5 -50.5t73.5 -19.5q61 0 102 34t51 93h34
q-15 -87 -76 -142.5t-142 -55.5q-67 0 -109 37.5t-42 96.5q0 67 54 109.5t144 49.5l156 13l2 14q2 15 2 24q0 43 -33.5 72t-82.5 29q-43 0 -80 -22.5t-53 -59.5l-70 34q28 56 83.5 89.5t120.5 33.5z" />
    <glyph glyph-name="uni1EB6" unicode="&#x1eb6;" horiz-adv-x="763" 
d="M517 779q-61 0 -100.5 37t-39.5 92q0 13 3 26h62q-1 -9 -1 -17q0 -33 23 -54t61 -21q44 0 79.5 27t41.5 65h72q-11 -62 -71 -108.5t-130 -46.5zM318 -137.5q0 22.5 15.5 38t38.5 15.5t38.5 -15.5t15.5 -38t-15.5 -38.5t-38.5 -16t-38.5 16t-15.5 38.5zM127 0h-95l421 700
h107l174 -700h-87l-152 610zM223 266h412l-13 -77h-412z" />
    <glyph glyph-name="uni1EB7" unicode="&#x1eb7;" horiz-adv-x="499" 
d="M325 577q-61 0 -100.5 37t-39.5 92q0 13 3 26h62q-1 -9 -1 -17q0 -33 23 -54t61 -21q44 0 79.5 27t41.5 65h72q-11 -62 -71 -108.5t-130 -46.5zM179 -137.5q0 22.5 15.5 38t38.5 15.5t38.5 -15.5t15.5 -38t-15.5 -38.5t-38.5 -16t-38.5 16t-15.5 38.5zM311 511
q80 0 138 -50t58 -120q0 -12 -3 -28l-54 -313h-81l40 224l-139 -12q-57 -4 -89 -24.5t-32 -55.5q0 -31 27.5 -50.5t73.5 -19.5q61 0 102 34t51 93h34q-15 -87 -76 -142.5t-142 -55.5q-67 0 -109 37.5t-42 96.5q0 67 54 109.5t144 49.5l156 13l2 14q2 15 2 24q0 43 -33.5 72
t-82.5 29q-43 0 -80 -22.5t-53 -59.5l-70 34q28 56 83.5 89.5t120.5 33.5z" />
    <glyph glyph-name="uni1EB8" unicode="&#x1eb8;" horiz-adv-x="561" 
d="M221 -136.5q0 22.5 15.5 38t38.5 15.5t38.5 -15.5t15.5 -38t-15.5 -38.5t-38.5 -16t-38.5 16t-15.5 38.5zM206 403h366l-14 -78h-365l-43 -247h386l-14 -78h-467l123 700h466l-13 -78h-385z" />
    <glyph glyph-name="uni1EB9" unicode="&#x1eb9;" horiz-adv-x="596" 
d="M238 -136.5q0 22.5 15.5 38t38.5 15.5t38.5 -15.5t15.5 -38t-15.5 -38.5t-38.5 -16t-38.5 16t-15.5 38.5zM528 305q-4 62 -48.5 100.5t-108.5 38.5q-70 0 -128 -43t-74 -113h359q1 8 0 17zM606 284q0 -30 -10 -68h-433q2 -70 50.5 -114t121.5 -44q55 0 102.5 26t77.5 73
l65 -43q-44 -65 -109 -98.5t-141 -33.5q-107 0 -178.5 68t-71.5 174q0 79 39 147t107 108.5t148 40.5q99 0 165.5 -66t66.5 -170z" />
    <glyph glyph-name="uni1EBA" unicode="&#x1eba;" horiz-adv-x="561" 
d="M443 1000q44 0 72.5 -25.5t28.5 -68.5q0 -44 -24 -71t-70 -52l-30 -16l-28 52l45 24q42 19 42 56q0 18 -12 29t-31 11q-33 0 -46 -33l-54 23q15 34 43.5 52.5t63.5 18.5zM206 403h366l-14 -78h-365l-43 -247h386l-14 -78h-467l123 700h466l-13 -78h-385z" />
    <glyph glyph-name="uni1EBB" unicode="&#x1ebb;" horiz-adv-x="596" 
d="M416 791q44 0 72.5 -25.5t28.5 -68.5q0 -44 -24 -71t-70 -52l-30 -16l-28 52l45 24q42 19 42 56q0 18 -12 29t-31 11q-33 0 -46 -33l-54 23q15 34 43.5 52.5t63.5 18.5zM528 305q-4 62 -48.5 100.5t-108.5 38.5q-70 0 -128 -43t-74 -113h359q1 8 0 17zM606 284
q0 -30 -10 -68h-433q2 -70 50.5 -114t121.5 -44q55 0 102.5 26t77.5 73l65 -43q-44 -65 -109 -98.5t-141 -33.5q-107 0 -178.5 68t-71.5 174q0 79 39 147t107 108.5t148 40.5q99 0 165.5 -66t66.5 -170z" />
    <glyph glyph-name="uni1EBC" unicode="&#x1ebc;" horiz-adv-x="561" 
d="M368 920q-39 0 -71 -31.5t-54 -88.5l61 -18q26 72 61 72q13 0 23.5 -6.5t26.5 -26.5q21 -25 40 -35t44 -10q41 0 73 31.5t52 88.5l-58 18q-13 -33 -30.5 -51t-36.5 -18q-15 0 -25 6.5t-25 25.5q-21 24 -38.5 33.5t-42.5 9.5zM206 403h366l-14 -78h-365l-43 -247h386
l-14 -78h-467l123 700h466l-13 -78h-385z" />
    <glyph glyph-name="uni1EBD" unicode="&#x1ebd;" horiz-adv-x="596" 
d="M341 711q-39 0 -71 -31.5t-54 -88.5l61 -18q26 72 61 72q13 0 23.5 -6.5t26.5 -26.5q21 -25 40 -35t44 -10q41 0 73 31.5t52 88.5l-58 18q-13 -33 -30.5 -51t-36.5 -18q-15 0 -25 6.5t-25 25.5q-21 24 -38.5 33.5t-42.5 9.5zM528 305q-4 62 -48.5 100.5t-108.5 38.5
q-70 0 -128 -43t-74 -113h359q1 8 0 17zM606 284q0 -30 -10 -68h-433q2 -70 50.5 -114t121.5 -44q55 0 102.5 26t77.5 73l65 -43q-44 -65 -109 -98.5t-141 -33.5q-107 0 -178.5 68t-71.5 174q0 79 39 147t107 108.5t148 40.5q99 0 165.5 -66t66.5 -170z" />
    <glyph glyph-name="uni1EBE" unicode="&#x1ebe;" horiz-adv-x="561" 
d="M792 1070l-39 57l-189 -142l37 -53zM441 975l-190 -149l37 -55l156 128l109 -136l51 44l-138 166zM206 403h366l-14 -78h-365l-43 -247h386l-14 -78h-467l123 700h466l-13 -78h-385z" />
    <glyph glyph-name="uni1EBF" unicode="&#x1ebf;" horiz-adv-x="596" 
d="M777 858l-39 57l-189 -142l37 -53zM414 766l-190 -149l37 -55l156 128l109 -136l51 44l-138 166zM528 305q-4 62 -48.5 100.5t-108.5 38.5q-70 0 -128 -43t-74 -113h359q1 8 0 17zM606 284q0 -30 -10 -68h-433q2 -70 50.5 -114t121.5 -44q55 0 102.5 26t77.5 73l65 -43
q-44 -65 -109 -98.5t-141 -33.5q-107 0 -178.5 68t-71.5 174q0 79 39 147t107 108.5t148 40.5q99 0 165.5 -66t66.5 -170z" />
    <glyph glyph-name="uni1EC0" unicode="&#x1ec0;" horiz-adv-x="561" 
d="M521 1097l49 48l143 -170l-46 -43zM441 975l-190 -149l37 -55l156 128l109 -136l51 44l-138 166zM206 403h366l-14 -78h-365l-43 -247h386l-14 -78h-467l123 700h466l-13 -78h-385z" />
    <glyph glyph-name="uni1EC1" unicode="&#x1ec1;" horiz-adv-x="596" 
d="M506 885l49 48l143 -170l-46 -43zM414 766l-190 -149l37 -55l156 128l109 -136l51 44l-138 166zM528 305q-4 62 -48.5 100.5t-108.5 38.5q-70 0 -128 -43t-74 -113h359q1 8 0 17zM606 284q0 -30 -10 -68h-433q2 -70 50.5 -114t121.5 -44q55 0 102.5 26t77.5 73l65 -43
q-44 -65 -109 -98.5t-141 -33.5q-107 0 -178.5 68t-71.5 174q0 79 39 147t107 108.5t148 40.5q99 0 165.5 -66t66.5 -170z" />
    <glyph glyph-name="uni1EC2" unicode="&#x1ec2;" horiz-adv-x="561" 
d="M654 1156q44 0 72.5 -25.5t28.5 -68.5q0 -44 -24 -71t-70 -52l-30 -16l-28 52l45 24q42 19 42 56q0 18 -12 29t-31 11q-33 0 -46 -33l-54 23q15 34 43.5 52.5t63.5 18.5zM441 975l-190 -149l37 -55l156 128l109 -136l51 44l-138 166zM206 403h366l-14 -78h-365l-43 -247
h386l-14 -78h-467l123 700h466l-13 -78h-385z" />
    <glyph glyph-name="uni1EC3" unicode="&#x1ec3;" horiz-adv-x="596" 
d="M639 944q44 0 72.5 -25.5t28.5 -68.5q0 -44 -24 -71t-70 -52l-30 -16l-28 52l45 24q42 19 42 56q0 18 -12 29t-31 11q-33 0 -46 -33l-54 23q15 34 43.5 52.5t63.5 18.5zM414 766l-190 -149l37 -55l156 128l109 -136l51 44l-138 166zM528 305q-4 62 -48.5 100.5
t-108.5 38.5q-70 0 -128 -43t-74 -113h359q1 8 0 17zM606 284q0 -30 -10 -68h-433q2 -70 50.5 -114t121.5 -44q55 0 102.5 26t77.5 73l65 -43q-44 -65 -109 -98.5t-141 -33.5q-107 0 -178.5 68t-71.5 174q0 79 39 147t107 108.5t148 40.5q99 0 165.5 -66t66.5 -170z" />
    <glyph glyph-name="uni1EC4" unicode="&#x1ec4;" horiz-adv-x="561" 
d="M408 1152q-39 0 -71 -31.5t-54 -88.5l61 -18q26 72 61 72q13 0 23.5 -6.5t26.5 -26.5q21 -25 40 -35t44 -10q41 0 73 31.5t52 88.5l-58 18q-13 -33 -30.5 -51t-36.5 -18q-15 0 -25 6.5t-25 25.5q-21 24 -38.5 33.5t-42.5 9.5zM441 975l-190 -149l37 -55l156 128l109 -136
l51 44l-138 166zM206 403h366l-14 -78h-365l-43 -247h386l-14 -78h-467l123 700h466l-13 -78h-385z" />
    <glyph glyph-name="uni1EC5" unicode="&#x1ec5;" horiz-adv-x="596" 
d="M391 946q-39 0 -71 -31.5t-54 -88.5l61 -18q26 72 61 72q13 0 23.5 -6.5t26.5 -26.5q21 -25 40 -35t44 -10q41 0 73 31.5t52 88.5l-58 18q-13 -33 -30.5 -51t-36.5 -18q-15 0 -25 6.5t-25 25.5q-21 24 -38.5 33.5t-42.5 9.5zM414 766l-190 -149l37 -55l156 128l109 -136
l51 44l-138 166zM528 305q-4 62 -48.5 100.5t-108.5 38.5q-70 0 -128 -43t-74 -113h359q1 8 0 17zM606 284q0 -30 -10 -68h-433q2 -70 50.5 -114t121.5 -44q55 0 102.5 26t77.5 73l65 -43q-44 -65 -109 -98.5t-141 -33.5q-107 0 -178.5 68t-71.5 174q0 79 39 147t107 108.5
t148 40.5q99 0 165.5 -66t66.5 -170z" />
    <glyph glyph-name="uni1EC6" unicode="&#x1ec6;" horiz-adv-x="561" 
d="M448 987l-190 -149l37 -55l156 128l109 -136l51 44l-138 166zM221 -136.5q0 22.5 15.5 38t38.5 15.5t38.5 -15.5t15.5 -38t-15.5 -38.5t-38.5 -16t-38.5 16t-15.5 38.5zM206 403h366l-14 -78h-365l-43 -247h386l-14 -78h-467l123 700h466l-13 -78h-385z" />
    <glyph glyph-name="uni1EC7" unicode="&#x1ec7;" horiz-adv-x="596" 
d="M414 785l-190 -149l37 -55l156 128l109 -136l51 44l-138 166zM238 -136.5q0 22.5 15.5 38t38.5 15.5t38.5 -15.5t15.5 -38t-15.5 -38.5t-38.5 -16t-38.5 16t-15.5 38.5zM528 305q-4 62 -48.5 100.5t-108.5 38.5q-70 0 -128 -43t-74 -113h359q1 8 0 17zM606 284
q0 -30 -10 -68h-433q2 -70 50.5 -114t121.5 -44q55 0 102.5 26t77.5 73l65 -43q-44 -65 -109 -98.5t-141 -33.5q-107 0 -178.5 68t-71.5 174q0 79 39 147t107 108.5t148 40.5q99 0 165.5 -66t66.5 -170z" />
    <glyph glyph-name="uni1EC8" unicode="&#x1ec8;" horiz-adv-x="195" 
d="M251 999q44 0 72.5 -25.5t28.5 -68.5q0 -44 -24 -71t-70 -52l-30 -16l-28 52l45 24q42 19 42 56q0 18 -12 29t-31 11q-33 0 -46 -33l-54 23q15 34 43.5 52.5t63.5 18.5zM136 0h-81l123 700h80z" />
    <glyph glyph-name="uni1EC9" unicode="&#x1ec9;" horiz-adv-x="193" 
d="M215 792q44 0 72.5 -25.5t28.5 -68.5q0 -44 -24 -71t-70 -52l-30 -16l-28 52l45 24q42 19 42 56q0 18 -12 29t-31 11q-33 0 -46 -33l-54 23q15 34 43.5 52.5t63.5 18.5zM57 0l88 500h81l-88 -500h-81z" />
    <glyph glyph-name="uni1ECA" unicode="&#x1eca;" horiz-adv-x="195" 
d="M19 -137.5q0 22.5 15.5 38t38.5 15.5t38.5 -15.5t15.5 -38t-15.5 -38.5t-38.5 -16t-38.5 16t-15.5 38.5zM136 0h-81l123 700h80z" />
    <glyph glyph-name="uni1ECB" unicode="&#x1ecb;" horiz-adv-x="193" 
d="M20 -137.5q0 22.5 15.5 38t38.5 15.5t38.5 -15.5t15.5 -38t-15.5 -38.5t-38.5 -16t-38.5 16t-15.5 38.5zM159 636q0 23 15.5 38.5t38.5 15.5t38.5 -15.5t15.5 -38.5t-15.5 -38.5t-38.5 -15.5t-38.5 15.5t-15.5 38.5zM57 0l88 500h81l-88 -500h-81z" />
    <glyph glyph-name="uni1ECC" unicode="&#x1ecc;" 
d="M332 -136.5q0 22.5 15.5 38t38.5 15.5t38.5 -15.5t15.5 -38t-15.5 -38.5t-38.5 -16t-38.5 16t-15.5 38.5zM483 640q-83 0 -153 -43.5t-110 -117t-40 -160.5q0 -114 72 -185.5t181 -71.5q84 0 154.5 44.5t110 119t39.5 160.5q0 112 -72.5 183t-181.5 71zM100 315
q0 109 51 202.5t140.5 148t194.5 54.5q142 0 236.5 -93t94.5 -237q0 -108 -51 -202t-140.5 -150t-195.5 -56q-141 0 -235.5 94t-94.5 239z" />
    <glyph glyph-name="uni1ECD" unicode="&#x1ecd;" horiz-adv-x="618" 
d="M241 -136.5q0 22.5 15.5 38t38.5 15.5t38.5 -15.5t15.5 -38t-15.5 -38.5t-38.5 -16t-38.5 16t-15.5 38.5zM369 443q-87 0 -147.5 -62.5t-60.5 -149.5q0 -76 51 -124t127 -48q87 0 147.5 62.5t60.5 149.5q0 76 -51 124t-127 48zM81 224q0 122 85.5 209t208.5 87
q108 0 180 -68t72 -174q0 -122 -85.5 -209t-208.5 -87q-108 0 -180 68t-72 174z" />
    <glyph glyph-name="uni1ECE" unicode="&#x1ece;" 
d="M543 1000q44 0 72.5 -25.5t28.5 -68.5q0 -44 -24 -71t-70 -52l-30 -16l-28 52l45 24q42 19 42 56q0 18 -12 29t-31 11q-33 0 -46 -33l-54 23q15 34 43.5 52.5t63.5 18.5zM483 640q-83 0 -153 -43.5t-110 -117t-40 -160.5q0 -114 72 -185.5t181 -71.5q84 0 154.5 44.5
t110 119t39.5 160.5q0 112 -72.5 183t-181.5 71zM100 315q0 109 51 202.5t140.5 148t194.5 54.5q142 0 236.5 -93t94.5 -237q0 -108 -51 -202t-140.5 -150t-195.5 -56q-141 0 -235.5 94t-94.5 239z" />
    <glyph glyph-name="uni1ECF" unicode="&#x1ecf;" horiz-adv-x="618" 
d="M428 791q44 0 72.5 -25.5t28.5 -68.5q0 -44 -24 -71t-70 -52l-30 -16l-28 52l45 24q42 19 42 56q0 18 -12 29t-31 11q-33 0 -46 -33l-54 23q15 34 43.5 52.5t63.5 18.5zM369 443q-87 0 -147.5 -62.5t-60.5 -149.5q0 -76 51 -124t127 -48q87 0 147.5 62.5t60.5 149.5
q0 76 -51 124t-127 48zM81 224q0 122 85.5 209t208.5 87q108 0 180 -68t72 -174q0 -122 -85.5 -209t-208.5 -87q-108 0 -180 68t-72 174z" />
    <glyph glyph-name="uni1ED0" unicode="&#x1ed0;" 
d="M925 1063l-39 57l-189 -142l37 -53zM542 975l-190 -149l37 -55l156 128l109 -136l51 44l-138 166zM483 640q-83 0 -153 -43.5t-110 -117t-40 -160.5q0 -114 72 -185.5t181 -71.5q84 0 154.5 44.5t110 119t39.5 160.5q0 112 -72.5 183t-181.5 71zM100 315q0 109 51 202.5
t140.5 148t194.5 54.5q142 0 236.5 -93t94.5 -237q0 -108 -51 -202t-140.5 -150t-195.5 -56q-141 0 -235.5 94t-94.5 239z" />
    <glyph glyph-name="uni1ED1" unicode="&#x1ed1;" horiz-adv-x="618" 
d="M795 854l-39 57l-189 -142l37 -53zM426 766l-190 -149l37 -55l156 128l109 -136l51 44l-138 166zM369 443q-87 0 -147.5 -62.5t-60.5 -149.5q0 -76 51 -124t127 -48q87 0 147.5 62.5t60.5 149.5q0 76 -51 124t-127 48zM81 224q0 122 85.5 209t208.5 87q108 0 180 -68
t72 -174q0 -122 -85.5 -209t-208.5 -87q-108 0 -180 68t-72 174z" />
    <glyph glyph-name="uni1ED2" unicode="&#x1ed2;" 
d="M654 1090l49 48l143 -170l-46 -43zM542 975l-190 -149l37 -55l156 128l109 -136l51 44l-138 166zM483 640q-83 0 -153 -43.5t-110 -117t-40 -160.5q0 -114 72 -185.5t181 -71.5q84 0 154.5 44.5t110 119t39.5 160.5q0 112 -72.5 183t-181.5 71zM100 315q0 109 51 202.5
t140.5 148t194.5 54.5q142 0 236.5 -93t94.5 -237q0 -108 -51 -202t-140.5 -150t-195.5 -56q-141 0 -235.5 94t-94.5 239z" />
    <glyph glyph-name="uni1ED3" unicode="&#x1ed3;" horiz-adv-x="618" 
d="M524 881l49 48l143 -170l-46 -43zM426 766l-190 -149l37 -55l156 128l109 -136l51 44l-138 166zM369 443q-87 0 -147.5 -62.5t-60.5 -149.5q0 -76 51 -124t127 -48q87 0 147.5 62.5t60.5 149.5q0 76 -51 124t-127 48zM81 224q0 122 85.5 209t208.5 87q108 0 180 -68
t72 -174q0 -122 -85.5 -209t-208.5 -87q-108 0 -180 68t-72 174z" />
    <glyph glyph-name="uni1ED4" unicode="&#x1ed4;" 
d="M787 1149q44 0 72.5 -25.5t28.5 -68.5q0 -44 -24 -71t-70 -52l-30 -16l-28 52l45 24q42 19 42 56q0 18 -12 29t-31 11q-33 0 -46 -33l-54 23q15 34 43.5 52.5t63.5 18.5zM542 975l-190 -149l37 -55l156 128l109 -136l51 44l-138 166zM483 640q-83 0 -153 -43.5t-110 -117
t-40 -160.5q0 -114 72 -185.5t181 -71.5q84 0 154.5 44.5t110 119t39.5 160.5q0 112 -72.5 183t-181.5 71zM100 315q0 109 51 202.5t140.5 148t194.5 54.5q142 0 236.5 -93t94.5 -237q0 -108 -51 -202t-140.5 -150t-195.5 -56q-141 0 -235.5 94t-94.5 239z" />
    <glyph glyph-name="uni1ED5" unicode="&#x1ed5;" horiz-adv-x="618" 
d="M657 940q44 0 72.5 -25.5t28.5 -68.5q0 -44 -24 -71t-70 -52l-30 -16l-28 52l45 24q42 19 42 56q0 18 -12 29t-31 11q-33 0 -46 -33l-54 23q15 34 43.5 52.5t63.5 18.5zM426 766l-190 -149l37 -55l156 128l109 -136l51 44l-138 166zM369 443q-87 0 -147.5 -62.5
t-60.5 -149.5q0 -76 51 -124t127 -48q87 0 147.5 62.5t60.5 149.5q0 76 -51 124t-127 48zM81 224q0 122 85.5 209t208.5 87q108 0 180 -68t72 -174q0 -122 -85.5 -209t-208.5 -87q-108 0 -180 68t-72 174z" />
    <glyph glyph-name="uni1ED6" unicode="&#x1ed6;" 
d="M498 1160q-39 0 -71 -31.5t-54 -88.5l61 -18q26 72 61 72q13 0 23.5 -6.5t26.5 -26.5q21 -25 40 -35t44 -10q41 0 73 31.5t52 88.5l-58 18q-13 -33 -30.5 -51t-36.5 -18q-15 0 -25 6.5t-25 25.5q-21 24 -38.5 33.5t-42.5 9.5zM542 975l-190 -149l37 -55l156 128l109 -136
l51 44l-138 166zM483 640q-83 0 -153 -43.5t-110 -117t-40 -160.5q0 -114 72 -185.5t181 -71.5q84 0 154.5 44.5t110 119t39.5 160.5q0 112 -72.5 183t-181.5 71zM100 315q0 109 51 202.5t140.5 148t194.5 54.5q142 0 236.5 -93t94.5 -237q0 -108 -51 -202t-140.5 -150
t-195.5 -56q-141 0 -235.5 94t-94.5 239z" />
    <glyph glyph-name="uni1ED7" unicode="&#x1ed7;" horiz-adv-x="618" 
d="M403 949q-39 0 -71 -31.5t-54 -88.5l61 -18q26 72 61 72q13 0 23.5 -6.5t26.5 -26.5q21 -25 40 -35t44 -10q41 0 73 31.5t52 88.5l-58 18q-13 -33 -30.5 -51t-36.5 -18q-15 0 -25 6.5t-25 25.5q-21 24 -38.5 33.5t-42.5 9.5zM426 766l-190 -149l37 -55l156 128l109 -136
l51 44l-138 166zM369 443q-87 0 -147.5 -62.5t-60.5 -149.5q0 -76 51 -124t127 -48q87 0 147.5 62.5t60.5 149.5q0 76 -51 124t-127 48zM81 224q0 122 85.5 209t208.5 87q108 0 180 -68t72 -174q0 -122 -85.5 -209t-208.5 -87q-108 0 -180 68t-72 174z" />
    <glyph glyph-name="uni1ED8" unicode="&#x1ed8;" 
d="M528 987l-190 -149l37 -55l156 128l109 -136l51 44l-138 166zM332 -136.5q0 22.5 15.5 38t38.5 15.5t38.5 -15.5t15.5 -38t-15.5 -38.5t-38.5 -16t-38.5 16t-15.5 38.5zM483 640q-83 0 -153 -43.5t-110 -117t-40 -160.5q0 -114 72 -185.5t181 -71.5q84 0 154.5 44.5
t110 119t39.5 160.5q0 112 -72.5 183t-181.5 71zM100 315q0 109 51 202.5t140.5 148t194.5 54.5q142 0 236.5 -93t94.5 -237q0 -108 -51 -202t-140.5 -150t-195.5 -56q-141 0 -235.5 94t-94.5 239z" />
    <glyph glyph-name="uni1ED9" unicode="&#x1ed9;" horiz-adv-x="618" 
d="M413 785l-190 -149l37 -55l156 128l109 -136l51 44l-138 166zM241 -136.5q0 22.5 15.5 38t38.5 15.5t38.5 -15.5t15.5 -38t-15.5 -38.5t-38.5 -16t-38.5 16t-15.5 38.5zM369 443q-87 0 -147.5 -62.5t-60.5 -149.5q0 -76 51 -124t127 -48q87 0 147.5 62.5t60.5 149.5
q0 76 -51 124t-127 48zM81 224q0 122 85.5 209t208.5 87q108 0 180 -68t72 -174q0 -122 -85.5 -209t-208.5 -87q-108 0 -180 68t-72 174z" />
    <glyph glyph-name="uni1EDA" unicode="&#x1eda;" 
d="M655 915l-39 57l-189 -142l37 -53zM862 712q0 -54 -35 -88.5t-91 -34.5h-74l11 58h60q27 0 45.5 17t18.5 42q0 21 -16 35l49 41q14 -10 23 -29.5t9 -40.5zM483 640q-83 0 -153 -43.5t-110 -117t-40 -160.5q0 -114 72 -185.5t181 -71.5q84 0 154.5 44.5t110 119
t39.5 160.5q0 112 -72.5 183t-181.5 71zM100 315q0 109 51 202.5t140.5 148t194.5 54.5q142 0 236.5 -93t94.5 -237q0 -108 -51 -202t-140.5 -150t-195.5 -56q-141 0 -235.5 94t-94.5 239z" />
    <glyph glyph-name="uni1EDB" unicode="&#x1edb;" horiz-adv-x="654" 
d="M559 706l-39 57l-189 -142l37 -53zM736 502q0 -54 -35 -88.5t-91 -34.5h-74l11 58h60q27 0 45.5 17t18.5 42q0 21 -16 35l49 41q14 -10 23 -29.5t9 -40.5zM369 443q-87 0 -147.5 -62.5t-60.5 -149.5q0 -76 51 -124t127 -48q87 0 147.5 62.5t60.5 149.5q0 76 -51 124
t-127 48zM81 224q0 122 85.5 209t208.5 87q108 0 180 -68t72 -174q0 -122 -85.5 -209t-208.5 -87q-108 0 -180 68t-72 174z" />
    <glyph glyph-name="uni1EDC" unicode="&#x1edc;" 
d="M384 942l49 48l143 -170l-46 -43zM862 712q0 -54 -35 -88.5t-91 -34.5h-74l11 58h60q27 0 45.5 17t18.5 42q0 21 -16 35l49 41q14 -10 23 -29.5t9 -40.5zM483 640q-83 0 -153 -43.5t-110 -117t-40 -160.5q0 -114 72 -185.5t181 -71.5q84 0 154.5 44.5t110 119t39.5 160.5
q0 112 -72.5 183t-181.5 71zM100 315q0 109 51 202.5t140.5 148t194.5 54.5q142 0 236.5 -93t94.5 -237q0 -108 -51 -202t-140.5 -150t-195.5 -56q-141 0 -235.5 94t-94.5 239z" />
    <glyph glyph-name="uni1EDD" unicode="&#x1edd;" horiz-adv-x="654" 
d="M288 733l49 48l143 -170l-46 -43zM736 502q0 -54 -35 -88.5t-91 -34.5h-74l11 58h60q27 0 45.5 17t18.5 42q0 21 -16 35l49 41q14 -10 23 -29.5t9 -40.5zM369 443q-87 0 -147.5 -62.5t-60.5 -149.5q0 -76 51 -124t127 -48q87 0 147.5 62.5t60.5 149.5q0 76 -51 124
t-127 48zM81 224q0 122 85.5 209t208.5 87q108 0 180 -68t72 -174q0 -122 -85.5 -209t-208.5 -87q-108 0 -180 68t-72 174z" />
    <glyph glyph-name="uni1EDE" unicode="&#x1ede;" 
d="M517 1001q44 0 72.5 -25.5t28.5 -68.5q0 -44 -24 -71t-70 -52l-30 -16l-28 52l45 24q42 19 42 56q0 18 -12 29t-31 11q-33 0 -46 -33l-54 23q15 34 43.5 52.5t63.5 18.5zM862 712q0 -54 -35 -88.5t-91 -34.5h-74l11 58h60q27 0 45.5 17t18.5 42q0 21 -16 35l49 41
q14 -10 23 -29.5t9 -40.5zM483 640q-83 0 -153 -43.5t-110 -117t-40 -160.5q0 -114 72 -185.5t181 -71.5q84 0 154.5 44.5t110 119t39.5 160.5q0 112 -72.5 183t-181.5 71zM100 315q0 109 51 202.5t140.5 148t194.5 54.5q142 0 236.5 -93t94.5 -237q0 -108 -51 -202
t-140.5 -150t-195.5 -56q-141 0 -235.5 94t-94.5 239z" />
    <glyph glyph-name="uni1EDF" unicode="&#x1edf;" horiz-adv-x="654" 
d="M421 792q44 0 72.5 -25.5t28.5 -68.5q0 -44 -24 -71t-70 -52l-30 -16l-28 52l45 24q42 19 42 56q0 18 -12 29t-31 11q-33 0 -46 -33l-54 23q15 34 43.5 52.5t63.5 18.5zM736 502q0 -54 -35 -88.5t-91 -34.5h-74l11 58h60q27 0 45.5 17t18.5 42q0 21 -16 35l49 41
q14 -10 23 -29.5t9 -40.5zM369 443q-87 0 -147.5 -62.5t-60.5 -149.5q0 -76 51 -124t127 -48q87 0 147.5 62.5t60.5 149.5q0 76 -51 124t-127 48zM81 224q0 122 85.5 209t208.5 87q108 0 180 -68t72 -174q0 -122 -85.5 -209t-208.5 -87q-108 0 -180 68t-72 174z" />
    <glyph glyph-name="uni1EE0" unicode="&#x1ee0;" 
d="M441 921q-39 0 -71 -31.5t-54 -88.5l61 -18q26 72 61 72q13 0 23.5 -6.5t26.5 -26.5q21 -25 40 -35t44 -10q41 0 73 31.5t52 88.5l-58 18q-13 -33 -30.5 -51t-36.5 -18q-15 0 -25 6.5t-25 25.5q-21 24 -38.5 33.5t-42.5 9.5zM862 712q0 -54 -35 -88.5t-91 -34.5h-74
l11 58h60q27 0 45.5 17t18.5 42q0 21 -16 35l49 41q14 -10 23 -29.5t9 -40.5zM483 640q-83 0 -153 -43.5t-110 -117t-40 -160.5q0 -114 72 -185.5t181 -71.5q84 0 154.5 44.5t110 119t39.5 160.5q0 112 -72.5 183t-181.5 71zM100 315q0 109 51 202.5t140.5 148t194.5 54.5
q142 0 236.5 -93t94.5 -237q0 -108 -51 -202t-140.5 -150t-195.5 -56q-141 0 -235.5 94t-94.5 239z" />
    <glyph glyph-name="uni1EE1" unicode="&#x1ee1;" horiz-adv-x="654" 
d="M345 712q-39 0 -71 -31.5t-54 -88.5l61 -18q26 72 61 72q13 0 23.5 -6.5t26.5 -26.5q21 -25 40 -35t44 -10q41 0 73 31.5t52 88.5l-58 18q-13 -33 -30.5 -51t-36.5 -18q-15 0 -25 6.5t-25 25.5q-21 24 -38.5 33.5t-42.5 9.5zM736 502q0 -54 -35 -88.5t-91 -34.5h-74
l11 58h60q27 0 45.5 17t18.5 42q0 21 -16 35l49 41q14 -10 23 -29.5t9 -40.5zM369 443q-87 0 -147.5 -62.5t-60.5 -149.5q0 -76 51 -124t127 -48q87 0 147.5 62.5t60.5 149.5q0 76 -51 124t-127 48zM81 224q0 122 85.5 209t208.5 87q108 0 180 -68t72 -174
q0 -122 -85.5 -209t-208.5 -87q-108 0 -180 68t-72 174z" />
    <glyph glyph-name="uni1EE2" unicode="&#x1ee2;" 
d="M329 -137.5q0 22.5 15.5 38t38.5 15.5t38.5 -15.5t15.5 -38t-15.5 -38.5t-38.5 -16t-38.5 16t-15.5 38.5zM862 712q0 -54 -35 -88.5t-91 -34.5h-74l11 58h60q27 0 45.5 17t18.5 42q0 21 -16 35l49 41q14 -10 23 -29.5t9 -40.5zM483 640q-83 0 -153 -43.5t-110 -117
t-40 -160.5q0 -114 72 -185.5t181 -71.5q84 0 154.5 44.5t110 119t39.5 160.5q0 112 -72.5 183t-181.5 71zM100 315q0 109 51 202.5t140.5 148t194.5 54.5q142 0 236.5 -93t94.5 -237q0 -108 -51 -202t-140.5 -150t-195.5 -56q-141 0 -235.5 94t-94.5 239z" />
    <glyph glyph-name="uni1EE3" unicode="&#x1ee3;" horiz-adv-x="654" 
d="M242 -137.5q0 22.5 15.5 38t38.5 15.5t38.5 -15.5t15.5 -38t-15.5 -38.5t-38.5 -16t-38.5 16t-15.5 38.5zM736 502q0 -54 -35 -88.5t-91 -34.5h-74l11 58h60q27 0 45.5 17t18.5 42q0 21 -16 35l49 41q14 -10 23 -29.5t9 -40.5zM369 443q-87 0 -147.5 -62.5t-60.5 -149.5
q0 -76 51 -124t127 -48q87 0 147.5 62.5t60.5 149.5q0 76 -51 124t-127 48zM81 224q0 122 85.5 209t208.5 87q108 0 180 -68t72 -174q0 -122 -85.5 -209t-208.5 -87q-108 0 -180 68t-72 174z" />
    <glyph glyph-name="uni1EE4" unicode="&#x1ee4;" horiz-adv-x="690" 
d="M296 -136.5q0 22.5 15.5 38t38.5 15.5t38.5 -15.5t15.5 -38t-15.5 -38.5t-38.5 -16t-38.5 16t-15.5 38.5zM370 -11q-116 0 -191.5 72t-75.5 183q0 26 4 53l71 403h80l-70 -400q-4 -25 -4 -48q0 -78 51.5 -130.5t143.5 -52.5q85 0 144.5 52.5t74.5 142.5l76 436h81
l-79 -453q-20 -113 -106 -185.5t-200 -72.5z" />
    <glyph glyph-name="uni1EE5" unicode="&#x1ee5;" horiz-adv-x="538" 
d="M196 -136.5q0 22.5 15.5 38t38.5 15.5t38.5 -15.5t15.5 -38t-15.5 -38.5t-38.5 -16t-38.5 16t-15.5 38.5zM565 500l-88 -500h-81l88 500h81zM232 500l-55 -308q-11 -63 19 -96.5t90 -33.5q53 0 92.5 31t48.5 82h43q-17 -81 -76.5 -133.5t-135.5 -52.5q-85 0 -132 54
t-31 146l56 311h81z" />
    <glyph glyph-name="uni1EE6" unicode="&#x1ee6;" horiz-adv-x="690" 
d="M500 999q44 0 72.5 -25.5t28.5 -68.5q0 -44 -24 -71t-70 -52l-30 -16l-28 52l45 24q42 19 42 56q0 18 -12 29t-31 11q-33 0 -46 -33l-54 23q15 34 43.5 52.5t63.5 18.5zM370 -11q-116 0 -191.5 72t-75.5 183q0 26 4 53l71 403h80l-70 -400q-4 -25 -4 -48
q0 -78 51.5 -130.5t143.5 -52.5q85 0 144.5 52.5t74.5 142.5l76 436h81l-79 -453q-20 -113 -106 -185.5t-200 -72.5z" />
    <glyph glyph-name="uni1EE7" unicode="&#x1ee7;" horiz-adv-x="538" 
d="M388 791q44 0 72.5 -25.5t28.5 -68.5q0 -44 -24 -71t-70 -52l-30 -16l-28 52l45 24q42 19 42 56q0 18 -12 29t-31 11q-33 0 -46 -33l-54 23q15 34 43.5 52.5t63.5 18.5zM565 500l-88 -500h-81l88 500h81zM232 500l-55 -308q-11 -63 19 -96.5t90 -33.5q53 0 92.5 31
t48.5 82h43q-17 -81 -76.5 -133.5t-135.5 -52.5q-85 0 -132 54t-31 146l56 311h81z" />
    <glyph glyph-name="uni1EE8" unicode="&#x1ee8;" horiz-adv-x="790" 
d="M636 915l-39 57l-189 -142l37 -53zM892 702q0 -54 -35 -88.5t-91 -34.5h-74l11 58h60q27 0 45.5 17t18.5 42q0 21 -16 35l49 41q14 -10 23 -29.5t9 -40.5zM370 -11q-116 0 -191.5 72t-75.5 183q0 26 4 53l71 403h80l-70 -400q-4 -25 -4 -48q0 -78 51.5 -130.5
t143.5 -52.5q85 0 144.5 52.5t74.5 142.5l76 436h81l-79 -453q-20 -113 -106 -185.5t-200 -72.5z" />
    <glyph glyph-name="uni1EE9" unicode="&#x1ee9;" horiz-adv-x="637" 
d="M527 706l-39 57l-189 -142l37 -53zM706 508q0 -54 -35 -88.5t-91 -34.5h-74l11 58h60q27 0 45.5 17t18.5 42q0 21 -16 35l49 41q14 -10 23 -29.5t9 -40.5zM565 500l-88 -500h-81l88 500h81zM232 500l-55 -308q-11 -63 19 -96.5t90 -33.5q53 0 92.5 31t48.5 82h43
q-17 -81 -76.5 -133.5t-135.5 -52.5q-85 0 -132 54t-31 146l56 311h81z" />
    <glyph glyph-name="uni1EEA" unicode="&#x1eea;" horiz-adv-x="790" 
d="M365 942l49 48l143 -170l-46 -43zM892 702q0 -54 -35 -88.5t-91 -34.5h-74l11 58h60q27 0 45.5 17t18.5 42q0 21 -16 35l49 41q14 -10 23 -29.5t9 -40.5zM370 -11q-116 0 -191.5 72t-75.5 183q0 26 4 53l71 403h80l-70 -400q-4 -25 -4 -48q0 -78 51.5 -130.5t143.5 -52.5
q85 0 144.5 52.5t74.5 142.5l76 436h81l-79 -453q-20 -113 -106 -185.5t-200 -72.5z" />
    <glyph glyph-name="uni1EEB" unicode="&#x1eeb;" horiz-adv-x="637" 
d="M256 733l49 48l143 -170l-46 -43zM706 508q0 -54 -35 -88.5t-91 -34.5h-74l11 58h60q27 0 45.5 17t18.5 42q0 21 -16 35l49 41q14 -10 23 -29.5t9 -40.5zM565 500l-88 -500h-81l88 500h81zM232 500l-55 -308q-11 -63 19 -96.5t90 -33.5q53 0 92.5 31t48.5 82h43
q-17 -81 -76.5 -133.5t-135.5 -52.5q-85 0 -132 54t-31 146l56 311h81z" />
    <glyph glyph-name="uni1EEC" unicode="&#x1eec;" horiz-adv-x="790" 
d="M498 1001q44 0 72.5 -25.5t28.5 -68.5q0 -44 -24 -71t-70 -52l-30 -16l-28 52l45 24q42 19 42 56q0 18 -12 29t-31 11q-33 0 -46 -33l-54 23q15 34 43.5 52.5t63.5 18.5zM892 702q0 -54 -35 -88.5t-91 -34.5h-74l11 58h60q27 0 45.5 17t18.5 42q0 21 -16 35l49 41
q14 -10 23 -29.5t9 -40.5zM370 -11q-116 0 -191.5 72t-75.5 183q0 26 4 53l71 403h80l-70 -400q-4 -25 -4 -48q0 -78 51.5 -130.5t143.5 -52.5q85 0 144.5 52.5t74.5 142.5l76 436h81l-79 -453q-20 -113 -106 -185.5t-200 -72.5z" />
    <glyph glyph-name="uni1EED" unicode="&#x1eed;" horiz-adv-x="637" 
d="M389 792q44 0 72.5 -25.5t28.5 -68.5q0 -44 -24 -71t-70 -52l-30 -16l-28 52l45 24q42 19 42 56q0 18 -12 29t-31 11q-33 0 -46 -33l-54 23q15 34 43.5 52.5t63.5 18.5zM706 508q0 -54 -35 -88.5t-91 -34.5h-74l11 58h60q27 0 45.5 17t18.5 42q0 21 -16 35l49 41
q14 -10 23 -29.5t9 -40.5zM565 500l-88 -500h-81l88 500h81zM232 500l-55 -308q-11 -63 19 -96.5t90 -33.5q53 0 92.5 31t48.5 82h43q-17 -81 -76.5 -133.5t-135.5 -52.5q-85 0 -132 54t-31 146l56 311h81z" />
    <glyph glyph-name="uni1EEE" unicode="&#x1eee;" horiz-adv-x="790" 
d="M423 921q-39 0 -71 -31.5t-54 -88.5l61 -18q26 72 61 72q13 0 23.5 -6.5t26.5 -26.5q21 -25 40 -35t44 -10q41 0 73 31.5t52 88.5l-58 18q-13 -33 -30.5 -51t-36.5 -18q-15 0 -25 6.5t-25 25.5q-21 24 -38.5 33.5t-42.5 9.5zM892 702q0 -54 -35 -88.5t-91 -34.5h-74
l11 58h60q27 0 45.5 17t18.5 42q0 21 -16 35l49 41q14 -10 23 -29.5t9 -40.5zM370 -11q-116 0 -191.5 72t-75.5 183q0 26 4 53l71 403h80l-70 -400q-4 -25 -4 -48q0 -78 51.5 -130.5t143.5 -52.5q85 0 144.5 52.5t74.5 142.5l76 436h81l-79 -453q-20 -113 -106 -185.5
t-200 -72.5z" />
    <glyph glyph-name="uni1EEF" unicode="&#x1eef;" horiz-adv-x="637" 
d="M313 712q-39 0 -71 -31.5t-54 -88.5l61 -18q26 72 61 72q13 0 23.5 -6.5t26.5 -26.5q21 -25 40 -35t44 -10q41 0 73 31.5t52 88.5l-58 18q-13 -33 -30.5 -51t-36.5 -18q-15 0 -25 6.5t-25 25.5q-21 24 -38.5 33.5t-42.5 9.5zM706 508q0 -54 -35 -88.5t-91 -34.5h-74
l11 58h60q27 0 45.5 17t18.5 42q0 21 -16 35l49 41q14 -10 23 -29.5t9 -40.5zM565 500l-88 -500h-81l88 500h81zM232 500l-55 -308q-11 -63 19 -96.5t90 -33.5q53 0 92.5 31t48.5 82h43q-17 -81 -76.5 -133.5t-135.5 -52.5q-85 0 -132 54t-31 146l56 311h81z" />
    <glyph glyph-name="uni1EF0" unicode="&#x1ef0;" horiz-adv-x="790" 
d="M276 -137.5q0 22.5 15.5 38t38.5 15.5t38.5 -15.5t15.5 -38t-15.5 -38.5t-38.5 -16t-38.5 16t-15.5 38.5zM892 702q0 -54 -35 -88.5t-91 -34.5h-74l11 58h60q27 0 45.5 17t18.5 42q0 21 -16 35l49 41q14 -10 23 -29.5t9 -40.5zM370 -11q-116 0 -191.5 72t-75.5 183
q0 26 4 53l71 403h80l-70 -400q-4 -25 -4 -48q0 -78 51.5 -130.5t143.5 -52.5q85 0 144.5 52.5t74.5 142.5l76 436h81l-79 -453q-20 -113 -106 -185.5t-200 -72.5z" />
    <glyph glyph-name="uni1EF1" unicode="&#x1ef1;" horiz-adv-x="637" 
d="M192 -137.5q0 22.5 15.5 38t38.5 15.5t38.5 -15.5t15.5 -38t-15.5 -38.5t-38.5 -16t-38.5 16t-15.5 38.5zM706 508q0 -54 -35 -88.5t-91 -34.5h-74l11 58h60q27 0 45.5 17t18.5 42q0 21 -16 35l49 41q14 -10 23 -29.5t9 -40.5zM565 500l-88 -500h-81l88 500h81zM232 500
l-55 -308q-11 -63 19 -96.5t90 -33.5q53 0 92.5 31t48.5 82h43q-17 -81 -76.5 -133.5t-135.5 -52.5q-85 0 -132 54t-31 146l56 311h81z" />
    <glyph glyph-name="Ygrave" unicode="&#x1ef2;" horiz-adv-x="666" 
d="M363 942l49 48l143 -170l-46 -43zM302 0h80l42 235l335 465h-98l-264 -370l-154 370h-91l192 -465z" />
    <glyph glyph-name="ygrave" unicode="&#x1ef3;" horiz-adv-x="556" 
d="M257 731l49 48l143 -170l-46 -43zM527 500l-237 -398l-88 398h-84l110 -488l-123 -212h93l419 700h-90z" />
    <glyph glyph-name="uni1EF4" unicode="&#x1ef4;" horiz-adv-x="666" 
d="M268 -137.5q0 22.5 15.5 38t38.5 15.5t38.5 -15.5t15.5 -38t-15.5 -38.5t-38.5 -16t-38.5 16t-15.5 38.5zM302 0h80l42 235l335 465h-98l-264 -370l-154 370h-91l192 -465z" />
    <glyph glyph-name="uni1EF5" unicode="&#x1ef5;" horiz-adv-x="556" 
d="M345 -137.5q0 22.5 15.5 38t38.5 15.5t38.5 -15.5t15.5 -38t-15.5 -38.5t-38.5 -16t-38.5 16t-15.5 38.5zM527 500l-237 -398l-88 398h-84l110 -488l-123 -212h93l419 700h-90z" />
    <glyph glyph-name="uni1EF6" unicode="&#x1ef6;" horiz-adv-x="666" 
d="M496 1001q44 0 72.5 -25.5t28.5 -68.5q0 -44 -24 -71t-70 -52l-30 -16l-28 52l45 24q42 19 42 56q0 18 -12 29t-31 11q-33 0 -46 -33l-54 23q15 34 43.5 52.5t63.5 18.5zM302 0h80l42 235l335 465h-98l-264 -370l-154 370h-91l192 -465z" />
    <glyph glyph-name="uni1EF7" unicode="&#x1ef7;" horiz-adv-x="556" 
d="M390 790q44 0 72.5 -25.5t28.5 -68.5q0 -44 -24 -71t-70 -52l-30 -16l-28 52l45 24q42 19 42 56q0 18 -12 29t-31 11q-33 0 -46 -33l-54 23q15 34 43.5 52.5t63.5 18.5zM527 500l-237 -398l-88 398h-84l110 -488l-123 -212h93l419 700h-90z" />
    <glyph glyph-name="uni1EF8" unicode="&#x1ef8;" horiz-adv-x="666" 
d="M421 921q-39 0 -71 -31.5t-54 -88.5l61 -18q26 72 61 72q13 0 23.5 -6.5t26.5 -26.5q21 -25 40 -35t44 -10q41 0 73 31.5t52 88.5l-58 18q-13 -33 -30.5 -51t-36.5 -18q-15 0 -25 6.5t-25 25.5q-21 24 -38.5 33.5t-42.5 9.5zM302 0h80l42 235l335 465h-98l-264 -370
l-154 370h-91l192 -465z" />
    <glyph glyph-name="uni1EF9" unicode="&#x1ef9;" horiz-adv-x="556" 
d="M315 710q-39 0 -71 -31.5t-54 -88.5l61 -18q26 72 61 72q13 0 23.5 -6.5t26.5 -26.5q21 -25 40 -35t44 -10q41 0 73 31.5t52 88.5l-58 18q-13 -33 -30.5 -51t-36.5 -18q-15 0 -25 6.5t-25 25.5q-21 24 -38.5 33.5t-42.5 9.5zM527 500l-237 -398l-88 398h-84l110 -488
l-123 -212h93l419 700h-90z" />
    <glyph glyph-name="uni2010" unicode="&#x2010;" horiz-adv-x="324" 
d="M349 302l-13 -72h-267l13 72h267z" />
    <glyph glyph-name="endash" unicode="&#x2013;" horiz-adv-x="519" 
d="M544 302l-13 -72h-462l13 72h462z" />
    <glyph glyph-name="emdash" unicode="&#x2014;" horiz-adv-x="829" 
d="M854 302l-13 -72h-772l13 72h772z" />
    <glyph glyph-name="quoteleft" unicode="&#x2018;" horiz-adv-x="226" 
d="M215 484q-36 0 -58 26t-22 68q0 65 49 123.5t113 71.5l15 -51q-45 -6 -79 -37t-41 -72q13 15 39 15q29 0 47.5 -19t18.5 -47q0 -33 -23.5 -55.5t-58.5 -22.5z" />
    <glyph glyph-name="quoteright" unicode="&#x2019;" horiz-adv-x="226" 
d="M236 778q37 0 58.5 -25.5t21.5 -68.5q0 -65 -48.5 -124t-113.5 -71l-14 51q45 6 79 37t41 73q-13 -15 -39 -15q-29 0 -47.5 18t-18.5 47q0 33 23.5 55.5t57.5 22.5z" />
    <glyph glyph-name="quotesinglbase" unicode="&#x201a;" horiz-adv-x="226" 
d="M124 141q36 0 57.5 -25.5t21.5 -68.5q0 -64 -48.5 -123t-113.5 -72l-15 52q46 6 80 37t41 72q-14 -15 -39 -15q-29 0 -47.5 18.5t-18.5 46.5q0 33 23.5 55.5t58.5 22.5z" />
    <glyph glyph-name="quotereversed" unicode="&#x201b;" horiz-adv-x="226" 
d="M244 632q-16 0 -29 6.5t-18 15.5q-2 -11 -2 -18q0 -37 22 -66.5t59 -41.5l-32 -47q-42 18 -71 63.5t-29 97.5q0 55 31 95t73 40q32 0 52.5 -18.5t20.5 -46.5q0 -32 -23 -56t-54 -24z" />
    <glyph glyph-name="quotedblleft" unicode="&#x201c;" horiz-adv-x="426" 
d="M418 484q-40 0 -60 28t-20 66q0 69 51 126t111 69l15 -51q-45 -6 -79.5 -37t-41.5 -72q14 15 40 15q29 0 47 -19t18 -47q0 -33 -23.5 -55.5t-57.5 -22.5zM218 484q-36 0 -58 26t-22 68q0 65 49 123.5t113 71.5l15 -51q-45 -6 -79.5 -37t-41.5 -72q14 15 40 15
q28 0 46.5 -19t18.5 -47q0 -33 -23.5 -55.5t-57.5 -22.5z" />
    <glyph glyph-name="quotedblright" unicode="&#x201d;" horiz-adv-x="426" 
d="M234 776q36 0 58 -25.5t22 -68.5q0 -64 -49 -123t-113 -71l-15 51q45 6 79.5 37t41.5 72q-14 -14 -40 -14q-28 0 -46.5 18.5t-18.5 46.5q0 33 23.5 55t57.5 22zM434 776q36 0 58 -25.5t22 -68.5q0 -64 -49 -123t-113 -71l-15 51q45 6 79.5 37t41.5 72q-14 -14 -40 -14
q-28 0 -46.5 18.5t-18.5 46.5q0 33 23.5 55t57.5 22z" />
    <glyph glyph-name="quotedblbase" unicode="&#x201e;" horiz-adv-x="426" 
d="M124 142q36 0 58 -26.5t22 -68.5q0 -64 -49 -123t-113 -72l-15 52q45 6 79 37t42 72q-14 -15 -40 -15q-28 0 -47 19t-19 47q0 33 24 55.5t58 22.5zM324 142q36 0 58 -26.5t22 -68.5q0 -64 -49 -123t-113 -72l-15 52q45 6 79 37t42 72q-14 -15 -40 -15q-28 0 -47 19
t-19 47q0 33 24 55.5t58 22.5z" />
    <glyph glyph-name="uni201F" unicode="&#x201f;" horiz-adv-x="426" 
d="M443 632q-16 0 -29 6.5t-18 15.5q-2 -11 -2 -18q0 -37 22 -66.5t59 -41.5l-31 -47q-43 18 -72 63.5t-29 97.5q0 55 31 95t73 40q32 0 52.5 -18.5t20.5 -46.5q0 -32 -23 -56t-54 -24zM243 632q-16 0 -29 6.5t-18 15.5q-2 -11 -2 -18q0 -37 22 -66.5t59 -41.5l-31 -47
q-43 18 -72 63.5t-29 97.5q0 55 31 95t73 40q32 0 52.5 -18.5t20.5 -46.5q0 -32 -23 -56t-54 -24z" />
    <glyph glyph-name="dagger" unicode="&#x2020;" horiz-adv-x="367" 
d="M242 626h105l-35 -129h113l-14 -75h-112l-75 -422h-80l75 422h-115l14 75h114z" />
    <glyph glyph-name="daggerdbl" unicode="&#x2021;" horiz-adv-x="367" 
d="M241 626h105l-35 -129h112l-13 -75h-113l-38 -218h114l-13 -74h-114l-11 -130h-105l35 130h-112l13 74h112l39 218h-114l13 75h114z" />
    <glyph glyph-name="bullet" unicode="&#x2022;" horiz-adv-x="197" 
d="M85 286q0 28 18 46.5t45 18.5q28 0 46.5 -18.5t18.5 -46.5q0 -27 -18.5 -45.5t-45.5 -18.5t-45.5 18.5t-18.5 45.5z" />
    <glyph glyph-name="uni2023" unicode="&#x2023;" horiz-adv-x="197" 
d="M107 376l107 -85l-136 -83z" />
    <glyph glyph-name="ellipsis" unicode="&#x2026;" horiz-adv-x="591" 
d="M438 52q0 27 18 45.5t45 18.5q28 0 46.5 -18.5t18.5 -45.5q0 -28 -18.5 -46t-45.5 -18t-45.5 18t-18.5 46zM241 52q0 27 18 45.5t45 18.5q28 0 46.5 -18.5t18.5 -45.5q0 -28 -18.5 -46t-45.5 -18t-45.5 18t-18.5 46zM44 52q0 27 18 45.5t45 18.5q28 0 46.5 -18.5
t18.5 -45.5q0 -28 -18.5 -46t-45.5 -18t-45.5 18t-18.5 46z" />
    <glyph glyph-name="perthousand" unicode="&#x2030;" horiz-adv-x="1284" 
d="M1115 267q-49 0 -82.5 -35t-33.5 -83q0 -42 28.5 -69t70.5 -27q48 0 81.5 35t33.5 83q0 42 -28 69t-70 27zM924 141q0 83 57.5 142t139.5 59q72 0 120 -46t48 -117q0 -83 -58 -142t-139 -59q-72 0 -120 46t-48 117zM707 267q-48 0 -81.5 -35t-33.5 -83q0 -42 28 -69
t70 -27q49 0 82.5 35t33.5 83q0 42 -28.5 69t-70.5 27zM516 141q0 83 58 142t139 59q72 0 120 -46t48 -117q0 -83 -57.5 -142t-139.5 -59q-72 0 -120 46t-48 117zM306 644q-49 0 -82.5 -35t-33.5 -83q0 -42 28.5 -69t70.5 -27q48 0 81.5 35t33.5 83q0 42 -28 69t-70 27z
M115 518q0 83 57.5 142t139.5 59q72 0 120 -46t48 -117q0 -83 -58 -142t-139 -59q-72 0 -120 46t-48 117zM341 0h-93l411 700h93z" />
    <glyph glyph-name="minute" unicode="&#x2032;" horiz-adv-x="191" 
d="M219 758l71 -21l-99 -229l-67 19z" />
    <glyph glyph-name="second" unicode="&#x2033;" horiz-adv-x="336" 
d="M364 758l71 -21l-99 -229l-67 19zM219 758l71 -21l-99 -229l-67 19z" />
    <glyph glyph-name="uni2034" unicode="&#x2034;" horiz-adv-x="481" 
d="M509 758l71 -21l-99 -229l-67 19zM364 758l71 -21l-99 -229l-67 19zM219 758l71 -21l-99 -229l-67 19z" />
    <glyph glyph-name="uni2035" unicode="&#x2035;" horiz-adv-x="191" 
d="M240 758l13 -231l-73 -19l-19 229z" />
    <glyph glyph-name="uni2036" unicode="&#x2036;" horiz-adv-x="336" 
d="M240 758l13 -231l-73 -19l-19 229zM385 758l13 -231l-73 -19l-19 229z" />
    <glyph glyph-name="uni2037" unicode="&#x2037;" horiz-adv-x="481" 
d="M240 758l13 -231l-73 -19l-19 229zM385 758l13 -231l-73 -19l-19 229zM530 758l13 -231l-73 -19l-19 229z" />
    <glyph glyph-name="fractionslash" unicode="&#x2044;" horiz-adv-x="79" 
d="M-49 0h-97l396 700h97z" />
    <glyph glyph-name="uni2070" unicode="&#x2070;" horiz-adv-x="299" 
d="M211 651q-4 -24 9 -40.5t36 -16.5q21 0 39.5 16.5t22.5 40.5l13 76q5 25 -7.5 41t-34.5 16t-41 -16t-24 -41zM141 649l14 80q9 55 51.5 90t95.5 35q51 0 80 -35t20 -90l-14 -80q-10 -54 -51.5 -89.5t-93.5 -35.5t-82 35.5t-20 89.5z" />
    <glyph glyph-name="uni2074" unicode="&#x2074;" horiz-adv-x="298" 
d="M209 657h72l18 103zM384 847l-33 -190h37l-11 -61h-37l-11 -64h-70l11 64h-139l13 72l159 179h81z" />
    <glyph glyph-name="uni2075" unicode="&#x2075;" horiz-adv-x="299" 
d="M224 723l10 60h165l12 64h-235l-28 -157l66 -25q32 31 64 31q21 0 32 -15t7 -38t-21.5 -37t-41.5 -14q-21 0 -34 11.5t-14 31.5l-71 -19q5 -42 34.5 -66.5t74.5 -24.5q53 0 93.5 33t49.5 85q8 47 -14.5 79.5t-64.5 32.5q-45 0 -84 -32z" />
    <glyph glyph-name="uni2076" unicode="&#x2076;" horiz-adv-x="300" 
d="M358 756q-15 34 -54 34q-30 0 -53.5 -25t-33.5 -68q13 20 36 31.5t47 11.5q41 0 64.5 -31t16.5 -75q-9 -47 -47.5 -78.5t-89.5 -31.5q-58 0 -84 44t-14 114q14 77 61 124.5t108 47.5q37 0 63 -16.5t35 -47.5zM217 635q-4 -19 8 -32t33 -13t36.5 12t18.5 30
q3 20 -8.5 32.5t-33.5 12.5q-20 0 -35.5 -11.5t-18.5 -30.5z" />
    <glyph glyph-name="uni2077" unicode="&#x2077;" horiz-adv-x="286" 
d="M259 532l138 240l13 75h-234l-12 -64h168l-150 -251h77z" />
    <glyph glyph-name="uni2078" unicode="&#x2078;" horiz-adv-x="297" 
d="M206.5 626q-2.5 -16 10.5 -26t35.5 -10t39.5 10t19.5 26t-10.5 26t-35.5 10t-39.5 -10t-19.5 -26zM172 765q7 37 44 63t83.5 26t74.5 -26t21 -63q-9 -50 -66 -72q29 -10 42.5 -29.5t8.5 -45.5q-7 -40 -47 -67t-91.5 -27t-82.5 27t-24 67q5 26 25 45.5t53 29.5
q-50 22 -41 72zM276 721q17 0 31 10.5t17 25.5q2 14 -8 23.5t-28 9.5t-31.5 -9.5t-15.5 -23.5q-3 -15 7.5 -25.5t27.5 -10.5z" />
    <glyph glyph-name="uni2079" unicode="&#x2079;" horiz-adv-x="300" 
d="M186 623q14 -34 53 -34q30 0 53.5 25t34.5 68q-14 -20 -36.5 -31.5t-47.5 -11.5q-41 0 -64.5 31t-15.5 75q8 47 47 78t89 31q59 0 84.5 -43.5t13.5 -113.5q-14 -77 -60.5 -125t-108.5 -48q-36 0 -62 17t-36 47zM327 744q3 19 -9 32.5t-33 13.5q-20 0 -35.5 -12.5
t-18.5 -30.5q-4 -20 8 -32.5t33 -12.5q20 0 35.5 11.5t19.5 30.5z" />
    <glyph glyph-name="uni2080" unicode="&#x2080;" horiz-adv-x="299" 
d="M91 -32q-5 -25 8.5 -41t35.5 -16t40 16t23 41l13 75q4 25 -8.5 41.5t-33.5 16.5q-23 0 -42 -16.5t-23 -41.5zM20 -35l14 80q10 55 52.5 90.5t94.5 35.5q51 0 80.5 -35.5t19.5 -90.5l-14 -80q-9 -54 -51 -89t-93 -35q-52 0 -82 35t-21 89z" />
    <glyph glyph-name="uni2081" unicode="&#x2081;" horiz-adv-x="221" 
d="M224 164l-56 -315h-70l41 231l-64 -43l-33 52l110 75h72z" />
    <glyph glyph-name="uni2082" unicode="&#x2082;" horiz-adv-x="290" 
d="M273 56q9 49 -19.5 80.5t-77.5 31.5q-47 0 -81.5 -26t-55.5 -68l62 -23q22 47 61 47q19 0 30.5 -13t7.5 -33q-5 -29 -79 -65l-106 -55l-14 -83h237l12 67h-149l60 30q101 47 112 110z" />
    <glyph glyph-name="uni2083" unicode="&#x2083;" horiz-adv-x="295" 
d="M195 32l83 52l14 81h-223l-12 -64h154l-85 -60l16 -48q26 0 38 -11t8 -30q-3 -17 -17.5 -27.5t-34.5 -10.5q-21 0 -33 13t-13 37l-73 -17q3 -47 31.5 -75t75.5 -28q51 0 89.5 29t46.5 75q7 35 -11 58t-54 26z" />
    <glyph glyph-name="uni2084" unicode="&#x2084;" horiz-adv-x="298" 
d="M88 -26h72l18 103zM264 164l-34 -190h38l-11 -61h-38l-11 -64h-70l11 64h-138l13 72l159 179h81z" />
    <glyph glyph-name="uni2085" unicode="&#x2085;" horiz-adv-x="299" 
d="M103 39l11 60h165l11 64h-235l-28 -157l66 -24q33 30 64 30q21 0 32 -15t7 -38t-21 -36.5t-41 -13.5q-22 0 -34.5 11t-14.5 31l-71 -19q6 -42 35.5 -66.5t74.5 -24.5q53 0 93 33.5t49 84.5q8 47 -14.5 80t-64.5 33q-45 0 -84 -33z" />
    <glyph glyph-name="uni2086" unicode="&#x2086;" horiz-adv-x="300" 
d="M237 72q-14 34 -53 34q-30 0 -53.5 -25t-34.5 -68q14 20 36.5 31.5t47.5 11.5q41 0 64.5 -31t15.5 -75q-8 -47 -47 -78t-90 -31q-58 0 -83.5 43.5t-13.5 113.5q13 77 60 125t109 48q36 0 62 -17t36 -47zM96 -48q-3 -20 9 -33t33 -13q20 0 35.5 12t18.5 31q4 19 -8 32
t-33 13t-36.5 -12t-18.5 -30z" />
    <glyph glyph-name="uni2087" unicode="&#x2087;" horiz-adv-x="286" 
d="M139 -151l137 240l13 75h-234l-11 -64h167l-149 -251h77z" />
    <glyph glyph-name="uni2088" unicode="&#x2088;" horiz-adv-x="297" 
d="M86 -58q-3 -16 10 -26t36 -10t39.5 10t19.5 26t-10 26.5t-36 10.5t-39.5 -10.5t-19.5 -26.5zM52 81q6 37 43 63.5t83.5 26.5t74.5 -26.5t21 -63.5q-8 -50 -66 -72q29 -10 42.5 -29.5t8.5 -45.5q-7 -39 -47 -66t-91.5 -27t-82 27t-23.5 66q4 26 24.5 45.5t52.5 29.5
q-49 22 -40 72zM155 37q17 0 31 10.5t17 25.5q2 14 -7.5 23.5t-28 9.5t-31.5 -9.5t-16 -23.5q-2 -15 8 -25.5t27 -10.5z" />
    <glyph glyph-name="uni2089" unicode="&#x2089;" horiz-adv-x="300" 
d="M65 -61q14 -33 53 -33q30 0 54 24.5t34 67.5q-14 -19 -36.5 -31t-46.5 -12q-42 0 -65.5 31t-15.5 75q8 47 47 78.5t90 31.5q58 0 84 -43.5t13 -113.5q-13 -77 -60 -125t-108 -48q-37 0 -63 16.5t-36 47.5zM206 60q3 19 -9 32.5t-32 13.5q-21 0 -36.5 -12t-18.5 -31
q-3 -20 8.5 -32.5t32.5 -12.5t36.5 12t18.5 30z" />
    <glyph glyph-name="dong" unicode="&#x20ab;" horiz-adv-x="668" 
d="M629 -80l-11 -67h-615l11 67h615zM588 307q0 -85 -41 -160.5t-110 -120t-148 -44.5q-94 0 -153 60t-59 155q0 85 42.5 159.5t113.5 119t151 44.5q91 0 147.5 -59t56.5 -154zM320 60q92 0 160 67.5t68 160.5q0 68 -45 111t-116 43q-93 0 -161 -67.5t-68 -160.5
q0 -68 45 -111t117 -43zM580 0h-80l107 601h-227l12 72h227l13 77h80l-13 -77h88l-13 -72h-87z" />
    <glyph glyph-name="Euro" unicode="&#x20ac;" horiz-adv-x="843" 
d="M602 305l-10 -57h-517l10 57h517zM632 470l-12 -60h-516l10 60h518zM173 278q0 87 34.5 168.5t92 141.5t136 96t162.5 36q105 0 181.5 -54.5t104.5 -148.5l-76 -37q-21 74 -81.5 117t-143.5 43q-87 0 -163 -47.5t-121 -128t-45 -171.5q0 -102 63.5 -166.5t164.5 -64.5
q84 0 161 45.5t125 124.5l64 -37q-60 -98 -158 -155.5t-206 -57.5q-131 0 -213 82.5t-82 213.5z" />
    <glyph glyph-name="uni20B4" unicode="&#x20b4;" horiz-adv-x="579" 
d="M82 141q0 64 47 115h-55l10 58h514l-10 -58h-366q-55 -38 -55 -97q0 -41 33.5 -66.5t88.5 -25.5q64 0 120.5 36t92.5 99l68 -36q-46 -81 -127 -129t-171 -48q-85 0 -137.5 42t-52.5 110zM612 564q0 -63 -41 -112h52l-10 -57h-514l9 57h371q49 38 49 95q0 40 -31 64
t-82 24q-61 0 -115.5 -33.5t-89.5 -91.5l-68 30q45 79 123.5 126t164.5 47q82 0 132 -41t50 -108z" />
    <glyph glyph-name="uni20B8" unicode="&#x20b8;" horiz-adv-x="596" 
d="M138 624l13 76h540l-13 -76h-540zM665 548l-14 -78h-230l-83 -470h-80l83 470h-230l14 78h540z" />
    <glyph glyph-name="uni20BD" unicode="&#x20bd;" horiz-adv-x="625" 
d="M688 544q0 -91 -72.5 -159t-170.5 -68h-186l-15 -87h145l-12 -67h-146l-29 -163h-80l29 163h-94l13 67h94l15 88h-94l13 72h93l55 310h276q74 0 120 -43t46 -113zM458 390q60 0 104 41t44 97q0 42 -29.5 68t-77.5 26h-187l-41 -232h187z" />
    <glyph glyph-name="uni2103" unicode="&#x2103;" horiz-adv-x="1168" 
d="M489 312q0 112 52.5 205.5t143 147.5t198.5 54q109 0 194 -60t116 -168l-77 -26q-22 79 -87.5 126.5t-152.5 47.5q-83 0 -153.5 -43t-111.5 -117t-41 -161q0 -112 72.5 -184.5t184.5 -72.5q77 0 145.5 43.5t111.5 119.5l70 -38q-55 -97 -143.5 -151t-189.5 -54
q-143 0 -237.5 94t-94.5 237zM300 635q-42 0 -71 -29.5t-29 -71.5q0 -36 24.5 -59t60.5 -23q42 0 70.5 29.5t28.5 71.5q0 36 -24 59t-60 23zM125 526q0 76 52.5 130t128.5 54q66 0 110 -42t44 -107q0 -76 -53 -130t-128 -54q-66 0 -110 42t-44 107z" />
    <glyph glyph-name="uni2109" unicode="&#x2109;" horiz-adv-x="951" 
d="M596 403h366l-14 -78h-365l-57 -325h-81l123 700h466l-13 -78h-385zM300 635q-42 0 -71 -29.5t-29 -71.5q0 -36 24.5 -59t60.5 -23q42 0 70.5 29.5t28.5 71.5q0 36 -24 59t-60 23zM125 526q0 76 52.5 130t128.5 54q66 0 110 -42t44 -107q0 -76 -53 -130t-128 -54
q-66 0 -110 42t-44 107z" />
    <glyph glyph-name="trademark" unicode="&#x2122;" horiz-adv-x="467" 
d="M316 700l-7 -40h-58l-30 -167h-42l30 167h-56l7 40h156zM305 493l37 207h53l30 -114l71 114h59l-37 -207h-42l24 138l-65 -104h-35l-28 104l-24 -138h-43z" />
    <glyph glyph-name="estimated" unicode="&#x212e;" horiz-adv-x="598" 
d="M254 513l-24 -135h272l24 137q-46 50 -127 50t-145 -52zM628 410q0 -36 -12 -84h-395l-24 -134q46 -55 131 -55q62 0 118.5 31t91.5 84l48 -22q-45 -68 -116 -108t-150 -40q-98 0 -162 61t-64 157q0 84 42.5 158t114.5 118t155 44q97 0 159.5 -59t62.5 -151z" />
    <glyph glyph-name="arrowleft" unicode="&#x2190;" horiz-adv-x="748" 
d="M397 640l47 -50l-201 -186h524l-7 -72h-522l168 -184l-56 -50l-245 271z" />
    <glyph glyph-name="arrowup" unicode="&#x2191;" horiz-adv-x="631" 
d="M652 429l-55 -51l-169 185l-46 -523h-72l46 522l-200 -184l-46 51l295 269z" />
    <glyph glyph-name="arrowright" unicode="&#x2192;" horiz-adv-x="748" 
d="M471 85l-47 51l201 185h-523l6 72h523l-168 184l56 50l245 -271z" />
    <glyph glyph-name="arrowdown" unicode="&#x2193;" horiz-adv-x="631" 
d="M100 296l55 51l168 -185l46 524h72l-45 -523l199 184l46 -51l-295 -268z" />
    <glyph glyph-name="arrowboth" unicode="&#x2194;" horiz-adv-x="891" 
d="M614 85l-47 51l201 184h-529l167 -183l-56 -50l-245 271l292 271l47 -51l-201 -184h529l-167 183l56 50l245 -271z" />
    <glyph glyph-name="arrowupdn" unicode="&#x2195;" horiz-adv-x="633" 
d="M93 225l55 51l169 -184l46 529l-199 -183l-46 51l295 269l247 -269l-55 -51l-169 184l-46 -529l199 183l46 -51l-294 -269z" />
    <glyph glyph-name="uni2196" unicode="&#x2196;" horiz-adv-x="581" 
d="M510 603l-6 -72h-262l338 -370l-55 -50l-337 369l-23 -260h-72l35 382z" />
    <glyph glyph-name="uni2197" unicode="&#x2197;" horiz-adv-x="581" 
d="M585 220h-71l23 261l-404 -369l-45 50l401 369h-260l6 72l382 -1z" />
    <glyph glyph-name="uni2198" unicode="&#x2198;" horiz-adv-x="581" 
d="M192 122l6 72h262l-338 370l55 51l337 -370l23 260h72l-35 -381z" />
    <glyph glyph-name="uni2199" unicode="&#x2199;" horiz-adv-x="581" 
d="M117 506h71l-23 -262l404 370l45 -51l-402 -369h261l-6 -71l-382 1z" />
    <glyph glyph-name="approxequal" unicode="&#x2248;" horiz-adv-x="469" 
d="M206 260q-41 0 -74.5 -31.5t-54.5 -88.5l56 -18q12 34 28.5 53t34.5 19q13 0 23 -6.5t26 -25.5q22 -25 41 -35.5t44 -10.5q40 0 74 32t54 88l-56 18q-26 -68 -66 -68q-15 0 -25 6.5t-25 24.5q-21 24 -38.5 33.5t-41.5 9.5zM235 430q-40 0 -73.5 -31.5t-54.5 -88.5l56 -18
q12 34 28.5 53t34.5 19q13 0 23 -6.5t26 -25.5q22 -25 41 -35.5t44 -10.5q40 0 74 32t54 88l-56 18q-26 -68 -66 -68q-15 0 -25 6.5t-25 24.5q-21 24 -38.5 33.5t-42.5 9.5z" />
    <glyph glyph-name="notequal" unicode="&#x2260;" horiz-adv-x="377" 
d="M135 8h-85l291 514h84zM386 216l-12 -72h-320l13 72h319zM419 398l-13 -72h-320l13 72h320z" />
    <glyph glyph-name="lessequal" unicode="&#x2264;" horiz-adv-x="502" 
d="M467 12l-12 -66h-436l12 66h436zM491 145l-16 -86l-398 165l18 104l457 166l-15 -86l-376 -131z" />
    <glyph glyph-name="greaterequal" unicode="&#x2265;" horiz-adv-x="502" 
d="M467 12l-12 -66h-436l12 66h436zM109 408l16 86l398 -166l-18 -104l-457 -165l15 86l376 131z" />
    <glyph glyph-name="filledbox" unicode="&#x25a0;" horiz-adv-x="820" 
d="M174 700h700l-108 -700h-700z" />
    <glyph glyph-name="H22073" unicode="&#x25a1;" horiz-adv-x="820" 
d="M243 620l-86 -540h540l86 540h-540zM174 700h700l-108 -700h-700z" />
    <glyph glyph-name="H18543" unicode="&#x25aa;" horiz-adv-x="520" 
d="M151 570h400l-62 -400h-400z" />
    <glyph glyph-name="H18551" unicode="&#x25ab;" horiz-adv-x="520" 
d="M216 495l-42 -250h250l42 250h-250zM148 572h405l-61 -404h-405z" />
    <glyph glyph-name="triagup" unicode="&#x25b2;" horiz-adv-x="820" 
d="M524 700l242 -700h-700z" />
    <glyph glyph-name="uni25B3" unicode="&#x25b3;" horiz-adv-x="820" 
d="M524 700l242 -700h-700zM502 543l-309 -473h466z" />
    <glyph glyph-name="uni25B6" unicode="&#x25b6;" horiz-adv-x="820" 
d="M820 350l-754 -350l108 700z" />
    <glyph glyph-name="uni25B7" unicode="&#x25b7;" horiz-adv-x="820" 
d="M820 350l-754 -350l108 700zM663 350l-435 233l-76 -466z" />
    <glyph glyph-name="triagdn" unicode="&#x25bc;" horiz-adv-x="820" 
d="M416 0l-242 700h700z" />
    <glyph glyph-name="uni25BD" unicode="&#x25bd;" horiz-adv-x="820" 
d="M416 0l-242 700h700zM438 157l309 473h-466z" />
    <glyph glyph-name="uni25C0" unicode="&#x25c0;" horiz-adv-x="820" 
d="M120 350l754 350l-108 -700z" />
    <glyph glyph-name="uni25C1" unicode="&#x25c1;" horiz-adv-x="820" 
d="M120 350l754 350l-108 -700zM277 350l435 -233l76 466z" />
    <glyph glyph-name="uni25C6" unicode="&#x25c6;" horiz-adv-x="820" 
d="M113 350l412 357l302 -357l-412 -357z" />
    <glyph glyph-name="uni25C7" unicode="&#x25c7;" horiz-adv-x="820" 
d="M223 350l207 -247l287 247l-207 247zM113 350l412 357l302 -357l-412 -357z" />
    <glyph glyph-name="lozenge" unicode="&#x25ca;" horiz-adv-x="620" 
d="M208 350l121 -254l203 254l-121 254zM113 350l282 357h60l172 -357l-282 -357h-60z" />
    <glyph glyph-name="circle" unicode="&#x25cb;" horiz-adv-x="820" 
d="M429 93q77 0 147 41.5t112.5 111t42.5 145.5q0 93 -62.5 154.5t-157.5 61.5q-77 0 -147 -41.5t-112.5 -111t-42.5 -145.5q0 -93 62.5 -154.5t157.5 -61.5zM109 296q0 79 34.5 155t91 132t133 90t157.5 34q132 0 219 -86.5t87 -216.5q0 -79 -34.5 -155t-91 -132t-133 -90
t-157.5 -34q-132 0 -219 86.5t-87 216.5z" />
    <glyph glyph-name="H18533" unicode="&#x25cf;" horiz-adv-x="820" 
d="M109 296q0 79 34.5 155t91 132t133 90t157.5 34q132 0 219 -86.5t87 -216.5q0 -79 -34.5 -155t-91 -132t-133 -90t-157.5 -34q-132 0 -219 86.5t-87 216.5z" />
    <glyph glyph-name="zero.dnom" horiz-adv-x="299" 
d="M117 118q-4 -25 9 -41t36 -16q21 0 39.5 16t22.5 41l13 75q5 25 -7.5 41.5t-34.5 16.5q-23 0 -41.5 -16.5t-23.5 -41.5zM47 115l14 80q9 55 51.5 90.5t94.5 35.5t81 -35.5t20 -90.5l-14 -80q-10 -54 -52 -89t-93 -35q-52 0 -82 35t-20 89z" />
    <glyph glyph-name="one.dnom" horiz-adv-x="221" 
d="M250 314l-55 -315h-70l41 231l-64 -43l-34 52l110 75h72z" />
    <glyph glyph-name="two.dnom" horiz-adv-x="290" 
d="M300 206q8 49 -20.5 80.5t-76.5 31.5q-47 0 -82 -26t-55 -68l62 -23q21 47 60 47q20 0 31 -13t8 -33q-6 -29 -80 -65l-105 -55l-15 -83h237l12 67h-149l61 30q101 47 112 110z" />
    <glyph glyph-name="three.dnom" horiz-adv-x="295" 
d="M222 182l82 52l14 81h-223l-11 -64h153l-84 -60l15 -48q26 0 38 -11t9 -30q-3 -17 -18 -27.5t-35 -10.5q-21 0 -33 13t-12 37l-74 -17q4 -47 32.5 -75t75.5 -28q51 0 89.5 29t46.5 75q6 35 -12 58t-53 26z" />
    <glyph glyph-name="four.dnom" horiz-adv-x="298" 
d="M115 124h72l18 103zM290 314l-33 -190h37l-11 -61h-37l-11 -64h-70l11 64h-139l13 72l159 179h81z" />
    <glyph glyph-name="five.dnom" horiz-adv-x="299" 
d="M130 189l10 60h165l11 64h-234l-28 -157l65 -24q33 30 65 30q21 0 32 -15t6 -38q-4 -23 -21 -36.5t-41 -13.5q-21 0 -34 11t-14 31l-71 -19q5 -42 34.5 -66.5t74.5 -24.5q53 0 93 33.5t49 84.5q9 47 -14 80t-64 33q-45 0 -84 -33z" />
    <glyph glyph-name="six.dnom" horiz-adv-x="300" 
d="M263 222q-14 34 -53 34q-30 0 -53.5 -25t-33.5 -68q13 20 36 31.5t47 11.5q41 0 64.5 -31t15.5 -75q-8 -47 -47 -78t-89 -31q-58 0 -84 43.5t-14 113.5q14 77 61 125t108 48q36 0 62.5 -17t35.5 -47zM123 102q-4 -20 8 -33t33 -13q20 0 35.5 12t19.5 31q3 19 -8.5 32
t-33.5 13q-20 0 -35.5 -12t-18.5 -30z" />
    <glyph glyph-name="seven.dnom" horiz-adv-x="286" 
d="M165 -1l138 240l13 75h-234l-12 -64h168l-150 -251h77z" />
    <glyph glyph-name="eight.dnom" horiz-adv-x="297" 
d="M112.5 92q-2.5 -16 10.5 -26t35.5 -10t39.5 10t19.5 26t-10.5 26.5t-35.5 10.5t-39.5 -10.5t-19.5 -26.5zM78 231q7 37 44 63.5t83.5 26.5t74 -26.5t21.5 -63.5q-9 -50 -67 -72q30 -10 43 -29.5t9 -45.5q-7 -39 -47 -66t-91.5 -27t-82.5 27t-24 66q5 26 25 45.5t53 29.5
q-50 22 -41 72zM182 187q17 0 31 10.5t16 25.5q3 14 -7 23.5t-28.5 9.5t-31.5 -9.5t-15 -23.5q-3 -15 7.5 -25.5t27.5 -10.5z" />
    <glyph glyph-name="nine.dnom" horiz-adv-x="300" 
d="M92 89q14 -33 53 -33q30 0 53.5 24.5t34.5 67.5q-14 -19 -37 -31t-47 -12q-41 0 -64.5 31t-15.5 75q8 47 47 78.5t89 31.5q58 0 84 -43.5t14 -113.5q-14 -77 -60.5 -125t-108.5 -48q-36 0 -62 16.5t-36 47.5zM233 210q3 19 -9 32.5t-33 13.5q-20 0 -35.5 -12t-19.5 -31
q-3 -20 9 -32.5t33 -12.5q20 0 35.5 12t19.5 30z" />
    <glyph glyph-name="zero.numr" horiz-adv-x="299" 
d="M185 501q-5 -24 8.5 -40.5t35.5 -16.5t40 16.5t23 40.5l13 76q4 25 -8 41t-34 16q-23 0 -42 -16t-23 -41zM114 499l14 80q10 55 52.5 90t94.5 35q51 0 80.5 -35t19.5 -90l-14 -80q-9 -54 -51 -89.5t-93 -35.5q-52 0 -82 35.5t-21 89.5z" />
    <glyph glyph-name="one.numr" horiz-adv-x="221" 
d="M318 697l-56 -315h-70l41 232l-64 -44l-33 52l110 75h72z" />
    <glyph glyph-name="two.numr" horiz-adv-x="290" 
d="M367 589q9 49 -19.5 80.5t-77.5 31.5q-47 0 -81.5 -26t-55.5 -67l62 -24q22 47 61 47q19 0 30.5 -13t7.5 -33q-5 -29 -79 -65l-106 -55l-14 -83h237l12 67h-149l60 30q101 47 112 110z" />
    <glyph glyph-name="three.numr" horiz-adv-x="295" 
d="M289 564l83 52l14 81h-224l-11 -64h154l-85 -60l16 -48q26 0 38 -11t8 -30q-3 -17 -18 -27.5t-34 -10.5q-21 0 -33.5 13.5t-12.5 36.5l-73 -17q3 -46 31.5 -74.5t75.5 -28.5q51 0 89.5 29.5t46.5 74.5q6 36 -11.5 59t-53.5 25z" />
    <glyph glyph-name="four.numr" horiz-adv-x="298" 
d="M182 507h72l18 103zM358 697l-34 -190h38l-11 -61h-38l-11 -64h-70l11 64h-138l13 72l159 179h81z" />
    <glyph glyph-name="five.numr" horiz-adv-x="299" 
d="M197 573l11 60h165l11 64h-235l-28 -157l66 -25q33 31 64 31q21 0 32 -15t7 -38t-21 -37t-41 -14q-22 0 -34.5 11.5t-13.5 31.5l-72 -19q6 -42 35.5 -66.5t74.5 -24.5q53 0 93 33t49 85q8 47 -14.5 79.5t-63.5 32.5q-45 0 -85 -32z" />
    <glyph glyph-name="six.numr" horiz-adv-x="300" 
d="M331 606q-14 34 -53 34q-30 0 -53.5 -25t-34.5 -68q14 20 36.5 31.5t47.5 11.5q41 0 64.5 -31t15.5 -75q-8 -47 -47 -78.5t-89 -31.5q-59 0 -84.5 44t-13.5 114q14 77 60.5 124.5t108.5 47.5q36 0 62 -16.5t36 -47.5zM190 485q-3 -19 9 -32t33 -13q20 0 35.5 12t18.5 30
q4 20 -8 32.5t-33 12.5q-20 0 -35.5 -11.5t-19.5 -30.5z" />
    <glyph glyph-name="seven.numr" horiz-adv-x="286" 
d="M233 382l137 240l13 75h-234l-11 -64h167l-149 -251h77z" />
    <glyph glyph-name="eight.numr" horiz-adv-x="297" 
d="M180 476q-3 -16 10.5 -26t36 -10t39 10t19.5 26t-10 26t-36 10t-39.5 -10t-19.5 -26zM146 615q6 37 43 63t83.5 26t74.5 -26t21 -63q-8 -50 -66 -72q29 -10 42.5 -29.5t8.5 -45.5q-6 -40 -46.5 -67t-92 -27t-82 27t-23.5 67q4 26 24.5 45.5t53.5 29.5q-50 22 -41 72z
M249 571q17 0 31 10.5t17 25.5q3 14 -7 23.5t-28.5 9.5t-31.5 -9.5t-16 -23.5q-2 -15 8 -25.5t27 -10.5z" />
    <glyph glyph-name="nine.numr" horiz-adv-x="300" 
d="M159 473q14 -34 54 -34q30 0 53.5 25t33.5 68q-14 -20 -36.5 -31.5t-46.5 -11.5q-41 0 -64.5 31t-16.5 75q9 47 47.5 78t89.5 31q58 0 84 -43.5t14 -113.5q-14 -77 -61 -125t-108 -48q-37 0 -63 17t-35 47zM300 594q4 19 -8 32.5t-33 13.5t-36.5 -12.5t-18.5 -30.5
q-3 -20 8.5 -32.5t33.5 -12.5q20 0 35.5 11.5t18.5 30.5z" />
    <glyph glyph-name="zero.tabl" horiz-adv-x="610" 
d="M553 423q0 95 -44.5 154.5t-112.5 59.5q-73 0 -133 -67t-77 -174l-10 -58q-5 -31 -5 -62q0 -95 44 -154.5t113 -59.5q73 0 132.5 67t76.5 174l11 58q5 32 5 62zM320 -18q-99 0 -164.5 80.5t-65.5 206.5q0 40 8 77l10 58q22 138 106.5 225.5t188.5 87.5q100 0 165 -80.5
t65 -206.5q0 -42 -7 -79l-10 -56q-22 -138 -106.5 -225.5t-189.5 -87.5z" />
    <glyph glyph-name="one.tabl" horiz-adv-x="610" 
d="M580 77l-14 -77h-522l14 77h227l94 529l-211 -145l-38 61l262 178h83l-110 -623h215z" />
    <glyph glyph-name="two.tabl" horiz-adv-x="610" 
d="M433 235q120 76 169.5 139t49.5 138q0 88 -63 143.5t-162 55.5q-93 0 -169.5 -53.5t-123.5 -152.5l73 -27q74 153 213 153q66 0 108.5 -37.5t42.5 -95.5q0 -55 -42.5 -100t-156.5 -116l-302 -188l-17 -94h512l14 77h-396z" />
    <glyph glyph-name="three.tabl" horiz-adv-x="610" 
d="M314 -11q127 0 209.5 74.5t82.5 185.5q0 73 -47.5 120.5t-131.5 58.5l245 178l11 94h-512l-8 -77h422l-262 -197l16 -57q89 0 137 -34t48 -97q0 -74 -58.5 -121.5t-149.5 -47.5q-71 0 -113.5 34.5t-46.5 96.5l-80 -26q10 -85 74.5 -135t163.5 -50z" />
    <glyph glyph-name="four.tabl" horiz-adv-x="610" 
d="M177 285h253l54 305zM583 700l-73 -415h107l-14 -77h-107l-37 -208h-80l37 208h-340l16 90l398 402h93z" />
    <glyph glyph-name="five.tabl" horiz-adv-x="610" 
d="M307 -11q124 0 209 86.5t85 210.5q0 89 -51.5 145.5t-132.5 56.5q-49 0 -103 -21t-99 -57l37 213h399l8 77h-473l-61 -347l75 -25q44 40 93.5 62t95.5 22q59 0 95.5 -37.5t36.5 -98.5q0 -87 -60 -147t-147 -60q-66 0 -105.5 34t-43.5 94l-82 -25q10 -85 70 -134t154 -49z
" />
    <glyph glyph-name="six.tabl" horiz-adv-x="610" 
d="M88 239q0 129 48 238t131 172.5t180 63.5q76 0 135.5 -33.5t85.5 -90.5l-62 -51q-21 44 -67.5 69.5t-103.5 25.5q-88 0 -155.5 -69t-95.5 -188q35 47 90.5 74.5t117.5 27.5q97 0 160 -62.5t63 -159.5q0 -115 -80.5 -195t-196.5 -80t-183 69.5t-67 188.5zM362 400
q-81 0 -136.5 -50.5t-55.5 -124.5q0 -69 51 -116.5t126 -47.5q78 0 133 54.5t55 131.5q0 68 -48.5 110.5t-124.5 42.5z" />
    <glyph glyph-name="seven.tabl" horiz-adv-x="610" 
d="M338 0l348 613l12 87h-543l-10 -79h453l-358 -621h98z" />
    <glyph glyph-name="eight.tabl" horiz-adv-x="610" 
d="M338 324q-76 0 -128.5 -39.5t-52.5 -96.5q0 -53 52.5 -89.5t130.5 -36.5q77 0 128 37.5t51 94.5q0 55 -52 92.5t-129 37.5zM155 516q0 84 72 143t175 59q100 0 167.5 -53.5t67.5 -132.5q0 -61 -39 -110t-106 -72q50 -26 78 -68t28 -92q0 -88 -76.5 -148t-187.5 -60
t-184.5 56t-73.5 138q0 67 45.5 120t122.5 76q-43 25 -66 62.5t-23 81.5zM234 513q0 -50 46 -83.5t114 -33.5q69 0 115.5 35.5t46.5 88.5q0 50 -46 84t-114 34q-69 0 -115.5 -36t-46.5 -89z" />
    <glyph glyph-name="nine.tabl" horiz-adv-x="610" 
d="M649 460q0 -129 -48.5 -238t-131 -172.5t-179.5 -63.5q-76 0 -135.5 33.5t-85.5 90.5l61 51q22 -44 68.5 -69.5t103.5 -25.5q87 0 154.5 69t96.5 189q-35 -48 -91 -75.5t-118 -27.5q-96 0 -159 62.5t-63 159.5q0 115 80.5 195t196 80t183 -69.5t67.5 -188.5zM374 299
q82 0 137.5 50.5t55.5 124.5q0 69 -51.5 116.5t-125.5 47.5q-79 0 -133.5 -54.5t-54.5 -131.5q0 -68 48 -110.5t124 -42.5z" />
    <glyph glyph-name="zero.slsh" horiz-adv-x="648" 
d="M600 420q0 96 -51 156.5t-129 60.5q-82 0 -148.5 -67.5t-85.5 -175.5l-9 -53q-6 -31 -6 -62q0 -96 51 -156.5t129 -60.5q82 0 148.5 67.5t85.5 175.5l9 53q6 33 6 62zM344 -18q-110 0 -181.5 81t-71.5 209q0 40 7 76l9 53q24 140 115.5 228t204.5 88q110 0 181.5 -81
t71.5 -209q0 -39 -7 -76l-9 -53q-24 -140 -115.5 -228t-204.5 -88zM140 152l444 444l46 -65l-439 -439z" />
    <glyph glyph-name="a.ss01" horiz-adv-x="638" 
d="M587 0h-81l88 500h80zM343 60q87 0 147.5 62.5t60.5 149.5q0 75 -51 123t-127 48q-87 0 -147 -62.5t-60 -149.5q0 -75 50.5 -123t126.5 -48zM590 287q0 -80 -36 -149.5t-99.5 -111.5t-138.5 -42q-97 0 -164 66t-67 171q0 80 37 149t102 110.5t142 41.5q98 0 161 -66.5
t63 -168.5z" />
    <glyph glyph-name="agrave.ss01" horiz-adv-x="638" 
d="M290 733l49 48l143 -170l-46 -43zM587 0h-81l88 500h80zM343 60q87 0 147.5 62.5t60.5 149.5q0 75 -51 123t-127 48q-87 0 -147 -62.5t-60 -149.5q0 -75 50.5 -123t126.5 -48zM590 287q0 -80 -36 -149.5t-99.5 -111.5t-138.5 -42q-97 0 -164 66t-67 171q0 80 37 149
t102 110.5t142 41.5q98 0 161 -66.5t63 -168.5z" />
    <glyph glyph-name="aacute.ss01" horiz-adv-x="638" 
d="M561 706l-39 57l-189 -142l37 -53zM587 0h-81l88 500h80zM343 60q87 0 147.5 62.5t60.5 149.5q0 75 -51 123t-127 48q-87 0 -147 -62.5t-60 -149.5q0 -75 50.5 -123t126.5 -48zM590 287q0 -80 -36 -149.5t-99.5 -111.5t-138.5 -42q-97 0 -164 66t-67 171q0 80 37 149
t102 110.5t142 41.5q98 0 161 -66.5t63 -168.5z" />
    <glyph glyph-name="acircumflex.ss01" horiz-adv-x="638" 
d="M421 767l-190 -149l37 -55l156 128l109 -136l51 44l-138 166zM587 0h-81l88 500h80zM343 60q87 0 147.5 62.5t60.5 149.5q0 75 -51 123t-127 48q-87 0 -147 -62.5t-60 -149.5q0 -75 50.5 -123t126.5 -48zM590 287q0 -80 -36 -149.5t-99.5 -111.5t-138.5 -42
q-97 0 -164 66t-67 171q0 80 37 149t102 110.5t142 41.5q98 0 161 -66.5t63 -168.5z" />
    <glyph glyph-name="atilde.ss01" horiz-adv-x="638" 
d="M348 712q-39 0 -71 -31.5t-54 -88.5l61 -18q26 72 61 72q13 0 23.5 -6.5t26.5 -26.5q21 -25 40 -35t44 -10q41 0 73 31.5t52 88.5l-58 18q-13 -33 -30.5 -51t-36.5 -18q-15 0 -25 6.5t-25 25.5q-21 24 -38.5 33.5t-42.5 9.5zM587 0h-81l88 500h80zM343 60
q87 0 147.5 62.5t60.5 149.5q0 75 -51 123t-127 48q-87 0 -147 -62.5t-60 -149.5q0 -75 50.5 -123t126.5 -48zM590 287q0 -80 -36 -149.5t-99.5 -111.5t-138.5 -42q-97 0 -164 66t-67 171q0 80 37 149t102 110.5t142 41.5q98 0 161 -66.5t63 -168.5z" />
    <glyph glyph-name="adieresis.ss01" horiz-adv-x="638" 
d="M448 622q0 23 15.5 38.5t38.5 15.5t38.5 -15.5t15.5 -38.5t-15.5 -38.5t-38.5 -15.5t-38.5 15.5t-15.5 38.5zM248 622q0 23 15.5 38.5t38.5 15.5t38.5 -15.5t15.5 -38.5t-15.5 -38.5t-38.5 -15.5t-38.5 15.5t-15.5 38.5zM587 0h-81l88 500h80zM343 60q87 0 147.5 62.5
t60.5 149.5q0 75 -51 123t-127 48q-87 0 -147 -62.5t-60 -149.5q0 -75 50.5 -123t126.5 -48zM590 287q0 -80 -36 -149.5t-99.5 -111.5t-138.5 -42q-97 0 -164 66t-67 171q0 80 37 149t102 110.5t142 41.5q98 0 161 -66.5t63 -168.5z" />
    <glyph glyph-name="aring.ss01" horiz-adv-x="638" 
d="M416 732q-23 0 -39.5 -16.5t-16.5 -40.5q0 -20 13.5 -33t34.5 -13q23 0 39.5 16.5t16.5 40.5q0 20 -14 33t-34 13zM299 669q0 51 35.5 87.5t86.5 36.5q44 0 74 -28.5t30 -72.5q0 -51 -36 -87.5t-86 -36.5q-45 0 -74.5 28.5t-29.5 72.5zM587 0h-81l88 500h80zM343 60
q87 0 147.5 62.5t60.5 149.5q0 75 -51 123t-127 48q-87 0 -147 -62.5t-60 -149.5q0 -75 50.5 -123t126.5 -48zM590 287q0 -80 -36 -149.5t-99.5 -111.5t-138.5 -42q-97 0 -164 66t-67 171q0 80 37 149t102 110.5t142 41.5q98 0 161 -66.5t63 -168.5z" />
    <glyph glyph-name="ae.ss01" horiz-adv-x="1078" 
d="M1002 303q-2 63 -47 102t-110 39q-70 0 -127.5 -44t-73.5 -115h358q1 9 0 18zM1081 285q0 -30 -11 -66h-433q2 -71 50.5 -116t121.5 -45q55 0 102.5 26t78.5 73l64 -43q-41 -64 -103.5 -98t-136.5 -34q-103 0 -169.5 68t-66.5 174q0 79 36.5 147t101 108.5t142.5 40.5
q95 0 159 -66t64 -169zM582 0h-76l88 500h75zM343 60q87 0 147.5 62t60.5 149q0 76 -51 124t-126 48q-87 0 -147.5 -62t-60.5 -149q0 -76 50.5 -124t126.5 -48zM590 286q0 -80 -36.5 -149.5t-99.5 -111t-138 -41.5q-98 0 -164.5 66.5t-66.5 171.5q0 80 37 149t102 110
t142 41q98 0 161 -66.5t63 -169.5z" />
    <glyph glyph-name="amacron.ss01" horiz-adv-x="638" 
d="M566 645l-11 -67h-307l11 67h307zM587 0h-81l88 500h80zM343 60q87 0 147.5 62.5t60.5 149.5q0 75 -51 123t-127 48q-87 0 -147 -62.5t-60 -149.5q0 -75 50.5 -123t126.5 -48zM590 287q0 -80 -36 -149.5t-99.5 -111.5t-138.5 -42q-97 0 -164 66t-67 171q0 80 37 149
t102 110.5t142 41.5q98 0 161 -66.5t63 -168.5z" />
    <glyph glyph-name="abreve.ss01" horiz-adv-x="638" 
d="M408 576q-61 0 -100.5 37t-39.5 92q0 13 3 26h62q-1 -9 -1 -17q0 -33 23 -54t61 -21q44 0 79.5 27t41.5 65h72q-11 -62 -71 -108.5t-130 -46.5zM587 0h-81l88 500h80zM343 60q87 0 147.5 62.5t60.5 149.5q0 75 -51 123t-127 48q-87 0 -147 -62.5t-60 -149.5
q0 -75 50.5 -123t126.5 -48zM590 287q0 -80 -36 -149.5t-99.5 -111.5t-138.5 -42q-97 0 -164 66t-67 171q0 80 37 149t102 110.5t142 41.5q98 0 161 -66.5t63 -168.5z" />
    <glyph glyph-name="aogonek.ss01" horiz-adv-x="638" 
d="M493 -244q-45 0 -73 26t-28 66q0 38 21 65.5t70 53.5l25 13l5 22h58l-8 -49l-63 -31q-46 -23 -46 -64q0 -19 12.5 -30.5t32.5 -11.5q33 0 48 35l53 -21q-15 -34 -43.5 -54t-63.5 -20zM587 0h-81l88 500h80zM343 60q87 0 147.5 62.5t60.5 149.5q0 75 -51 123t-127 48
q-87 0 -147 -62.5t-60 -149.5q0 -75 50.5 -123t126.5 -48zM590 287q0 -80 -36 -149.5t-99.5 -111.5t-138.5 -42q-97 0 -164 66t-67 171q0 80 37 149t102 110.5t142 41.5q98 0 161 -66.5t63 -168.5z" />
    <glyph glyph-name="uni1EA1.ss01" horiz-adv-x="638" 
d="M254 -137.5q0 22.5 15.5 38t38.5 15.5t38.5 -15.5t15.5 -38t-15.5 -38.5t-38.5 -16t-38.5 16t-15.5 38.5zM587 0h-81l88 500h80zM343 60q87 0 147.5 62.5t60.5 149.5q0 75 -51 123t-127 48q-87 0 -147 -62.5t-60 -149.5q0 -75 50.5 -123t126.5 -48zM590 287
q0 -80 -36 -149.5t-99.5 -111.5t-138.5 -42q-97 0 -164 66t-67 171q0 80 37 149t102 110.5t142 41.5q98 0 161 -66.5t63 -168.5z" />
    <glyph glyph-name="uni1EA3.ss01" horiz-adv-x="638" 
d="M423 792q44 0 72.5 -25.5t28.5 -68.5q0 -44 -24 -71t-70 -52l-30 -16l-28 52l45 24q42 19 42 56q0 18 -12 29t-31 11q-33 0 -46 -33l-54 23q15 34 43.5 52.5t63.5 18.5zM587 0h-81l88 500h80zM343 60q87 0 147.5 62.5t60.5 149.5q0 75 -51 123t-127 48q-87 0 -147 -62.5
t-60 -149.5q0 -75 50.5 -123t126.5 -48zM590 287q0 -80 -36 -149.5t-99.5 -111.5t-138.5 -42q-97 0 -164 66t-67 171q0 80 37 149t102 110.5t142 41.5q98 0 161 -66.5t63 -168.5z" />
    <glyph glyph-name="uni1EA5.ss01" horiz-adv-x="638" 
d="M768 849l-39 57l-189 -142l37 -53zM421 767l-190 -149l37 -55l156 128l109 -136l51 44l-138 166zM587 0h-81l88 500h80zM343 60q87 0 147.5 62.5t60.5 149.5q0 75 -51 123t-127 48q-87 0 -147 -62.5t-60 -149.5q0 -75 50.5 -123t126.5 -48zM590 287q0 -80 -36 -149.5
t-99.5 -111.5t-138.5 -42q-97 0 -164 66t-67 171q0 80 37 149t102 110.5t142 41.5q98 0 161 -66.5t63 -168.5z" />
    <glyph glyph-name="uni1EA7.ss01" horiz-adv-x="638" 
d="M497 876l49 48l143 -170l-46 -43zM421 767l-190 -149l37 -55l156 128l109 -136l51 44l-138 166zM587 0h-81l88 500h80zM343 60q87 0 147.5 62.5t60.5 149.5q0 75 -51 123t-127 48q-87 0 -147 -62.5t-60 -149.5q0 -75 50.5 -123t126.5 -48zM590 287q0 -80 -36 -149.5
t-99.5 -111.5t-138.5 -42q-97 0 -164 66t-67 171q0 80 37 149t102 110.5t142 41.5q98 0 161 -66.5t63 -168.5z" />
    <glyph glyph-name="uni1EA9.ss01" horiz-adv-x="638" 
d="M630 935q44 0 72.5 -25.5t28.5 -68.5q0 -44 -24 -71t-70 -52l-30 -16l-28 52l45 24q42 19 42 56q0 18 -12 29t-31 11q-33 0 -46 -33l-54 23q15 34 43.5 52.5t63.5 18.5zM421 767l-190 -149l37 -55l156 128l109 -136l51 44l-138 166zM587 0h-81l88 500h80zM343 60
q87 0 147.5 62.5t60.5 149.5q0 75 -51 123t-127 48q-87 0 -147 -62.5t-60 -149.5q0 -75 50.5 -123t126.5 -48zM590 287q0 -80 -36 -149.5t-99.5 -111.5t-138.5 -42q-97 0 -164 66t-67 171q0 80 37 149t102 110.5t142 41.5q98 0 161 -66.5t63 -168.5z" />
    <glyph glyph-name="uni1EAB.ss01" horiz-adv-x="638" 
d="M381 939q-39 0 -71 -31.5t-54 -88.5l61 -18q26 72 61 72q13 0 23.5 -6.5t26.5 -26.5q21 -25 40 -35t44 -10q41 0 73 31.5t52 88.5l-58 18q-13 -33 -30.5 -51t-36.5 -18q-15 0 -25 6.5t-25 25.5q-21 24 -38.5 33.5t-42.5 9.5zM421 767l-190 -149l37 -55l156 128l109 -136
l51 44l-138 166zM587 0h-81l88 500h80zM343 60q87 0 147.5 62.5t60.5 149.5q0 75 -51 123t-127 48q-87 0 -147 -62.5t-60 -149.5q0 -75 50.5 -123t126.5 -48zM590 287q0 -80 -36 -149.5t-99.5 -111.5t-138.5 -42q-97 0 -164 66t-67 171q0 80 37 149t102 110.5t142 41.5
q98 0 161 -66.5t63 -168.5z" />
    </font>
</defs>
</svg>
