<?xml version="1.0" standalone="no"?>
<!DOCTYPE svg PUBLIC "-//W3C//DTD SVG 1.1//EN" "http://www.w3.org/Graphics/SVG/1.1/DTD/svg11.dtd" >
<svg xmlns="http://www.w3.org/2000/svg" xmlns:xlink="http://www.w3.org/1999/xlink" version="1.1">
<metadata>
Created by FontForge 20201107 at Sat Feb 25 09:15:39 2023
 By 
Copyright (c) 2023, RandomMaerks (Bao Nguyen) || For more information, send an email to rmforbusuness@gmail.com
</metadata>
<defs>
<font id="Cygre-Thin" horiz-adv-x="158" >
  <font-face 
    font-family="Cygre Thin"
    font-weight="100"
    font-stretch="normal"
    units-per-em="1000"
    panose-1="2 0 2 3 0 0 0 0 0 0"
    ascent="800"
    descent="-200"
    x-height="500"
    cap-height="700"
    bbox="-151 -229 1149 1184"
    underline-thickness="50"
    underline-position="-100"
    unicode-range="U+0020-25CF"
  />
<missing-glyph horiz-adv-x="364" 
d="M33 0v666h265v-666h-265zM66 33h199v600h-199v-600z" />
    <glyph glyph-name="f_i" unicode="fi" horiz-adv-x="513" 
d="M297 716q-46 0 -73.5 -30.5t-27.5 -81.5v-104h255l-11 -33h-244v-467h-35v467h-130v33h130v110q0 55 40.5 97.5t92.5 42.5h51v-34h-48zM402 628.5q0 13.5 9 22.5t22.5 9t22.5 -9t9 -22.5t-9 -22.5t-22.5 -9t-22.5 9t-9 22.5zM416 0v489l35 11v-500h-35z" />
    <glyph glyph-name="f_l" unicode="fl" horiz-adv-x="557" 
d="M297 716q-46 0 -73.5 -30.5t-27.5 -81.5v-104h169v-33h-169v-467h-35v467h-130v33h130v110q0 55 40.5 97.5t92.5 42.5h202l-12 -34h-187zM461 0v739l35 11v-750h-35z" />
    <glyph glyph-name="f_f_i" unicode="ffi" horiz-adv-x="860" 
d="M297 716q-46 0 -73.5 -30.5t-27.5 -81.5v-104h166v-33h-166v-467h-35v467h-130v33h130v110q0 55 40.5 97.5t92.5 42.5h51v-34h-48zM632 716q-47 0 -74.5 -30.5t-27.5 -81.5v-104h268l-1 -33h-267v-467h-35v467h-133v33h133v110q0 55 40.5 97.5t92.5 42.5h52v-34h-48z
M749 628.5q0 13.5 9 22.5t22.5 9t22.5 -9t9 -22.5t-9 -22.5t-22.5 -9t-22.5 9t-9 22.5zM763 0v499l35 1v-500h-35z" />
    <glyph glyph-name="f_f_l" unicode="ffl" horiz-adv-x="889" 
d="M297 716q-46 0 -73.5 -30.5t-27.5 -81.5v-104h167v-33h-167v-467h-35v467h-130v33h130v112q0 55 38 96.5t90 41.5h56v-34h-48zM629 716q-46 0 -73.5 -30.5t-27.5 -81.5v-104h169v-33h-169v-467h-35v467h-130v33h130v112q0 55 38 96.5t90 41.5h207l-1 -34h-198zM793 0v749
l35 1v-750h-35z" />
    <glyph glyph-name="f_f" unicode="ff" horiz-adv-x="729" 
d="M297 716q-46 0 -73.5 -30.5t-27.5 -81.5v-104h169v-33h-169v-467h-35v467h-130v33h130v110q0 55 40.5 97.5t92.5 42.5h51v-34h-48zM632 716q-47 0 -74.5 -30.5t-27.5 -81.5v-104h170v-33h-170v-467h-35v467h-130v33h130v110q0 55 40.5 97.5t92.5 42.5h52v-34h-48z" />
    <glyph glyph-name=".notdef" horiz-adv-x="364" 
d="M33 0v666h265v-666h-265zM66 33h199v600h-199v-600z" />
    <glyph glyph-name=".null" horiz-adv-x="0" 
 />
    <glyph glyph-name="nonmarkingreturn" horiz-adv-x="333" 
 />
    <glyph glyph-name="space" unicode=" " horiz-adv-x="270" 
 />
    <glyph glyph-name="exclam" unicode="!" 
d="M98 171h-37l2 529h33zM37 32.5q0 17.5 12 29.5t30 12t29.5 -12t11.5 -29.5t-11.5 -29.5t-29.5 -12t-30 12t-12 29.5z" />
    <glyph glyph-name="quotedbl" unicode="&#x22;" horiz-adv-x="256" 
d="M184 746l38 -9l-59 -217l-33 7zM88 746l37 -9l-59 -217l-32 7z" />
    <glyph glyph-name="numbersign" unicode="#" horiz-adv-x="653" 
d="M622 480v-32h-591v32h591zM622 275v-32h-591v32h591zM331 0h-40l290 700h41zM71 0h-40l290 700h41z" />
    <glyph glyph-name="dollar" unicode="$" horiz-adv-x="427" 
d="M206 343q-84 18 -124.5 52t-40.5 86q0 58 45.5 97.5t112.5 39.5q62 0 113 -36t73 -97l-31 -15q-20 51 -61 80.5t-93 29.5q-53 0 -88.5 -28t-35.5 -70q0 -38 32.5 -61.5t105.5 -39.5q171 -39 171 -148q0 -59 -45 -99t-113 -40q-62 0 -112.5 36t-73.5 97l31 15
q20 -50 61 -79t93 -29q53 0 88.5 28t35.5 70t-35 68.5t-109 42.5zM194 596v104h38v-104h-38zM194 118h38v-118h-38v118z" />
    <glyph glyph-name="percent" unicode="%" horiz-adv-x="765" 
d="M446 153q0 -55 36.5 -90t89 -35t88.5 35t36 90t-36 90t-88.5 35t-89 -35t-36.5 -90zM408 152.5q0 70.5 47.5 117t115.5 46.5t115.5 -46.5t47.5 -117t-47.5 -116.5t-115.5 -46t-115.5 46t-47.5 116.5zM68 547q0 -55 36.5 -90t89 -35t89 35t36.5 90t-36.5 90t-89 35
t-89 -35t-36.5 -90zM31 547.5q0 70.5 47 116.5t115.5 46t115.5 -46t47 -116.5t-47 -117t-115.5 -46.5t-115.5 46.5t-47 117zM259 0h-41l287 700h41z" />
    <glyph glyph-name="ampersand" unicode="&#x26;" horiz-adv-x="630" 
d="M228 678q45 0 73.5 -27t28.5 -70q0 -63 -68 -127l-68 -62l-34 42q-34 42 -46.5 67t-12.5 54q0 51 37 87t90 36zM227 717q-67 0 -115 -48t-48 -115q0 -74 66 -145l36 -37l-82 -82q-52 -50 -52 -120q0 -77 55.5 -130.5t136.5 -53.5q76 0 130 55l72 73l115 -122l27 26
l-118 124l108 112l-25 25l-107 -111l-208 195l73 66q77 69 77 151q0 58 -40 97.5t-101 39.5zM191 344l211 -203l-65 -68q-52 -52 -117 -51.5t-109 41t-44 101t51 106.5z" />
    <glyph glyph-name="quotesingle" unicode="'" horiz-adv-x="160" 
d="M88 746l37 -9l-59 -217l-32 7z" />
    <glyph glyph-name="parenleft" unicode="(" horiz-adv-x="243" 
d="M41 253v213q0 107 39 185t102 105l20 -31q-55 -21 -90.5 -90.5t-35.5 -166.5v-218q0 -101 38.5 -171.5t97.5 -87.5l-19 -31q-67 23 -109.5 102.5t-42.5 190.5z" />
    <glyph glyph-name="parenright" unicode=")" horiz-adv-x="243" 
d="M202 463v-213q0 -107 -39.5 -185t-101.5 -105l-20 31q55 21 90.5 90.5t35.5 166.5v218q0 101 -38.5 171.5t-97.5 87.5l19 31q66 -23 109 -102.5t43 -190.5z" />
    <glyph glyph-name="asterisk" unicode="*" horiz-adv-x="468" 
d="M215 800h37l2 -181l172 55l11 -36l-172 -56l106 -147l-30 -23l-107 146l-107 -146l-31 23l106 147l-171 56l11 36l172 -55z" />
    <glyph glyph-name="plus" unicode="+" horiz-adv-x="340" 
d="M152 405h38v-121h119v-35h-119v-122h-38v122h-121v35h121v121z" />
    <glyph glyph-name="comma" unicode="," horiz-adv-x="157" 
d="M89 69l35 -11l-59 -210l-33 10z" />
    <glyph glyph-name="hyphen" unicode="-" horiz-adv-x="340" 
d="M309 284v-35h-278v35h278z" />
    <glyph glyph-name="period" unicode="." horiz-adv-x="157" 
d="M37 32.5q0 17.5 12 29.5t30 12q17 0 29 -12t12 -29.5t-12 -29.5t-30 -12t-29.5 12t-11.5 29.5z" />
    <glyph glyph-name="slash" unicode="/" horiz-adv-x="393" 
d="M71 0h-41l291 700h41z" />
    <glyph glyph-name="zero" unicode="0" horiz-adv-x="648" 
d="M76 323q0 -134 72 -220t176 -86t176 86t72 220v53q0 134 -72 220t-176 86t-176 -86t-72 -220v-53zM41 323v53q0 148 82.5 244.5t200.5 96.5t200.5 -96.5t82.5 -244.5v-53q0 -148 -82.5 -244.5t-200.5 -96.5t-200.5 96.5t-82.5 244.5z" />
    <glyph glyph-name="one" unicode="1" horiz-adv-x="310" 
d="M248 700v-700h-35v654l-157 -128l-25 25l182 149h35z" />
    <glyph glyph-name="two" unicode="2" horiz-adv-x="571" 
d="M530 478q0 101 -70 167t-171 66q-96 0 -158.5 -56t-89.5 -145l33 -13q54 179 215 179q86 0 146 -55.5t60 -142.5q0 -21 -6.5 -42t-22 -42.5t-27 -36.5t-37 -37.5t-35.5 -31t-37 -30.5l-280 -212v-46h480v32h-438l253 194q3 3 10 8q30 24 46.5 38t44.5 42t43.5 50.5
t28 53.5t12.5 60z" />
    <glyph glyph-name="three" unicode="3" horiz-adv-x="571" 
d="M303 431l227 223v46h-480v-32h446l-252 -250l25 -26q109 0 167.5 -53t58.5 -145q0 -74 -59.5 -122t-150.5 -48q-81 0 -136.5 41.5t-72.5 115.5l-35 -10q23 -81 87 -131.5t154 -50.5q108 0 178 59.5t70 152.5q0 96 -61.5 157t-165.5 73z" />
    <glyph glyph-name="four" unicode="4" horiz-adv-x="576" 
d="M64 262h327v388zM426 700v-438h119v-32h-119v-230h-35v230h-360v41l351 429h44z" />
    <glyph glyph-name="five" unicode="5" horiz-adv-x="571" 
d="M86 398v270h424v32h-459v-332l35 -18q45 51 101.5 79t112.5 28q84 0 139.5 -61.5t55.5 -155.5q0 -97 -59.5 -156.5t-154.5 -59.5q-79 0 -134 42t-73 116l-33 -10q24 -85 89 -134t154 -49q107 0 176.5 69t69.5 175q0 108 -68.5 183t-167.5 75q-55 0 -110 -24.5t-98 -68.5z
" />
    <glyph glyph-name="six" unicode="6" horiz-adv-x="610" 
d="M527 592q-30 43 -78.5 66.5t-106.5 23.5q-114 0 -185 -92.5t-81 -245.5q34 62 99 99t141 37q108 0 180.5 -71.5t72.5 -178t-72.5 -177.5t-182.5 -71q-74 0 -136 34t-95 96q-42 80 -42 202q0 183 85 293t221 110q67 0 123.5 -28t88.5 -77zM86 238q0 -92 68 -156.5
t164 -64.5q93 0 154.5 61.5t61.5 153.5q0 93 -62.5 153t-159.5 60t-161.5 -59t-64.5 -148z" />
    <glyph glyph-name="seven" unicode="7" horiz-adv-x="502" 
d="M208 0l263 658v42h-440v-32h409l-272 -668h40z" />
    <glyph glyph-name="eight" unicode="8" horiz-adv-x="598" 
d="M76 177q0 -70 65 -115t158 -45t158 45t65 115q0 74 -64.5 121.5t-158.5 47.5t-158.5 -47.5t-64.5 -121.5zM61 524q0 85 69.5 139.5t168.5 54.5t168.5 -54.5t69.5 -139.5q0 -54 -33.5 -96.5t-90.5 -66.5q65 -25 104.5 -72t39.5 -109q0 -86 -75.5 -142t-182.5 -56
t-182.5 56t-75.5 142q0 62 39.5 109t104.5 72q-57 24 -90.5 66.5t-33.5 96.5zM299 374q85 0 144 43.5t59 110.5t-59 111t-144 44t-144 -44t-59 -111t59 -110.5t144 -43.5z" />
    <glyph glyph-name="nine" unicode="9" horiz-adv-x="610" 
d="M83 108q30 -44 78.5 -67.5t106.5 -23.5q114 0 185 92.5t81 245.5q-34 -62 -99 -99t-141 -37q-108 0 -180.5 71.5t-72.5 178t72.5 177.5t182.5 71q74 0 136 -34t95 -96q42 -80 42 -202q0 -183 -85 -293t-221 -110q-67 0 -123.5 28t-88.5 77zM524 461q0 92 -68 156.5
t-164 64.5q-93 0 -154.5 -61.5t-61.5 -153.5q0 -93 62.5 -153t159.5 -60t161.5 59t64.5 148z" />
    <glyph glyph-name="colon" unicode=":" horiz-adv-x="157" 
d="M37 385.5q0 17.5 12 29.5t30 12q17 0 29 -12t12 -29.5t-12 -29.5t-30 -12t-29.5 12t-11.5 29.5zM37 32.5q0 17.5 12 29.5t30 12q17 0 29 -12t12 -29.5t-12 -29.5t-30 -12t-29.5 12t-11.5 29.5z" />
    <glyph glyph-name="semicolon" unicode=";" horiz-adv-x="157" 
d="M37 385.5q0 17.5 12 29.5t30 12q17 0 29 -12t12 -29.5t-12 -29.5t-30 -12t-29.5 12t-11.5 29.5zM78 69l46 -11l-70 -210l-22 10z" />
    <glyph glyph-name="less" unicode="&#x3c;" horiz-adv-x="499" 
d="M458 113v-41l-417 176v44l417 177v-41l-376 -158z" />
    <glyph glyph-name="equal" unicode="=" horiz-adv-x="340" 
d="M309 204v-34h-278v34h278zM309 368v-35h-278v35h278z" />
    <glyph glyph-name="greater" unicode="&#x3e;" horiz-adv-x="499" 
d="M41 428v41l417 -177v-44l-417 -176v41l376 158z" />
    <glyph glyph-name="question" unicode="?" horiz-adv-x="551" 
d="M240 32.5q0 17.5 12 29.5t29.5 12t29.5 -12t12 -29.5t-12 -29.5t-30 -12t-29.5 12t-11.5 29.5zM511 488q0 97 -67.5 160t-164.5 63q-93 0 -153 -53.5t-86 -137.5l34 -12q53 168 205 168q83 0 140 -53t57 -135q0 -14 -3.5 -29t-7 -26.5t-14 -27.5t-15 -23.5t-19.5 -25
t-18.5 -21t-21 -22t-17.5 -19.5l-104 -91l29 -25l100 90q2 2 28 31t36 42.5t28.5 41t26 53t7.5 52.5z" />
    <glyph glyph-name="at" unicode="@" horiz-adv-x="793" 
d="M517 351q0 55 -36.5 91.5t-91.5 36.5t-91.5 -36.5t-36.5 -91.5t36.5 -91.5t91.5 -36.5t91.5 36.5t36.5 91.5zM540 351q0 -73 -44 -121t-112 -48t-115.5 49t-47.5 120t47.5 120t115.5 49t112 -48t44 -121zM749 371q0 -84 -36.5 -136t-94.5 -52q-42 0 -71.5 25.5
t-29.5 61.5v230h40v-215q0 -31 15.5 -48t44.5 -17q44 0 68 37t24 104q0 135 -89.5 226.5t-221.5 91.5q-134 0 -224 -94t-90 -233.5t90 -233.5t224 -94q110 0 195 68l25 -34q-96 -75 -221 -75q-99 0 -180 48t-127 132.5t-46 187.5t46.5 187.5t127.5 132.5t180 48
q97 0 177.5 -46t127 -126t46.5 -176z" />
    <glyph glyph-name="A" unicode="A" horiz-adv-x="744" 
d="M153 249h431v-35h-431v35zM71 0h-38l317 700h44l317 -700h-39l-301 661z" />
    <glyph glyph-name="B" unicode="B" horiz-adv-x="647" 
d="M388 667h-292v-299h303q64 0 107 47.5t43 117.5q0 58 -46 96t-115 38zM399 334h-303v-301h302q69 0 115 40t46 98q0 70 -45.5 116.5t-114.5 46.5zM408 0h-347v700h337q80 0 133 -48.5t53 -121.5q0 -57 -28 -104t-77 -72q53 -25 84 -72.5t31 -107.5q0 -73 -53.5 -123.5
t-132.5 -50.5z" />
    <glyph glyph-name="C" unicode="C" horiz-adv-x="778" 
d="M41 351q0 80 28.5 149t77 117t114 75.5t138.5 27.5q109 0 198 -56.5t135 -153.5l-29 -16q-42 89 -123.5 140t-179.5 51q-66 0 -125 -24.5t-103 -67.5t-70 -106t-26 -136t26 -136t70 -106t103 -67.5t125 -24.5q101 0 183.5 53.5t123.5 145.5l30 -14q-44 -101 -135 -160.5
t-203 -59.5q-73 0 -138.5 27.5t-114 75.5t-77 117t-28.5 149z" />
    <glyph glyph-name="D" unicode="D" horiz-adv-x="697" 
d="M305 0h-244v700h244q96 0 176 -44t127.5 -124.5t47.5 -180.5q0 -101 -47.5 -181.5t-127.5 -125t-176 -44.5zM295 667h-199v-634h199q89 0 163 39.5t118 113t44 165.5t-44 164.5t-118 112t-163 39.5z" />
    <glyph glyph-name="E" unicode="E" horiz-adv-x="545" 
d="M96 368h384v-34h-384v-301h408v-33h-443v700h443v-33h-408v-299z" />
    <glyph glyph-name="F" unicode="F" horiz-adv-x="545" 
d="M96 368h384v-34h-384v-334h-35v700h443v-33h-408v-299z" />
    <glyph glyph-name="G" unicode="G" horiz-adv-x="788" 
d="M76 351q0 -73 25.5 -135.5t68.5 -106t101 -68t123 -24.5q131 0 223.5 86t96.5 222h-334v36h366q1 -8 1 -24q0 -101 -47.5 -182.5t-128.5 -127t-177 -45.5q-72 0 -137 27.5t-112.5 75.5t-75.5 117.5t-28 148.5t28 148.5t75.5 117.5t112.5 75.5t137 27.5q103 0 188 -58
t128 -158l-32 -12q-39 89 -115 141t-169 52q-65 0 -123 -24.5t-101 -68t-68.5 -106t-25.5 -135.5z" />
    <glyph glyph-name="H" unicode="H" horiz-adv-x="678" 
d="M61 0v700h35v-332h485v332h35v-700h-35v334h-485v-334h-35z" />
    <glyph glyph-name="I" unicode="I" 
d="M96 0h-35v700h35v-700z" />
    <glyph glyph-name="J" unicode="J" horiz-adv-x="567" 
d="M41 144l31 11q23 -64 72.5 -97.5t121.5 -33.5q90 0 147 54.5t57 151.5v470h35v-480q0 -100 -69 -165.5t-170 -65.5q-82 0 -141.5 41t-83.5 114z" />
    <glyph glyph-name="K" unicode="K" horiz-adv-x="571" 
d="M61 0v700h35v-335h38l351 335h53l-370 -352l370 -348h-53l-351 327h-38v-327h-35z" />
    <glyph glyph-name="L" unicode="L" horiz-adv-x="535" 
d="M96 33h408v-33h-443v700h35v-667z" />
    <glyph glyph-name="M" unicode="M" horiz-adv-x="836" 
d="M62 0v700h49l307 -545l307 545h49v-700h-36v647l-301 -532h-37l-302 532v-647h-36z" />
    <glyph glyph-name="N" unicode="N" horiz-adv-x="678" 
d="M61 0v700h47l473 -652v652h35v-700h-46l-474 663v-663h-35z" />
    <glyph glyph-name="O" unicode="O" horiz-adv-x="788" 
d="M76 353q0 -73 25.5 -136.5t68.5 -107t101 -68t123 -24.5t123 24.5t101 68t68.5 107t25.5 136.5q0 72 -25.5 134.5t-68.5 105.5t-101 67.5t-123 24.5t-123 -24.5t-101 -67.5t-68.5 -105.5t-25.5 -134.5zM41 353q0 79 28 148t75.5 116.5t112.5 75t137 27.5t137 -27.5
t112.5 -75t75.5 -116.5t28 -148q0 -80 -28 -149.5t-75.5 -118t-112.5 -76t-137 -27.5t-137 27.5t-112.5 76t-75.5 118t-28 149.5z" />
    <glyph glyph-name="P" unicode="P" horiz-adv-x="615" 
d="M338 667h-242v-375h242q90 0 150.5 54.5t60.5 135.5q0 80 -60 132.5t-151 52.5zM338 260h-242v-260h-35v700h287q101 0 168.5 -62.5t67.5 -155.5t-71.5 -157.5t-174.5 -64.5z" />
    <glyph glyph-name="Q" unicode="Q" horiz-adv-x="788" 
d="M76 353q0 -73 25.5 -136.5t68.5 -107t101 -68t123 -24.5t123 24.5t101 68t68.5 107t25.5 136.5q0 72 -25.5 134.5t-68.5 105.5t-101 67.5t-123 24.5t-123 -24.5t-101 -67.5t-68.5 -105.5t-25.5 -134.5zM41 353q0 79 28 148t75.5 116.5t112.5 75t137 27.5t137 -27.5
t112.5 -75t75.5 -116.5t28 -148q0 -80 -28 -149.5t-75.5 -118t-112.5 -76t-137 -27.5t-137 27.5t-112.5 76t-75.5 118t-28 149.5zM720 -6l-326 326l25 24l327 -326z" />
    <glyph glyph-name="R" unicode="R" horiz-adv-x="626" 
d="M360 667h-264v-357h264q81 0 135.5 52t54.5 129q0 75 -54 125.5t-136 50.5zM346 274l238 -274h-48l-239 277h-201v-277h-35v700h309q91 0 152.5 -60t61.5 -149q0 -93 -66.5 -155t-171.5 -62z" />
    <glyph glyph-name="S" unicode="S" horiz-adv-x="572" 
d="M293 333q-125 28 -183 75.5t-58 119.5q0 80 62 132.5t157 52.5q83 0 151 -47t98 -126l-28 -16q-29 71 -87.5 112t-132.5 41q-82 0 -134 -41.5t-52 -105.5q0 -59 49.5 -97t158.5 -62q236 -54 236 -194q0 -80 -65.5 -134t-162.5 -54q-88 0 -159 50.5t-102 135.5l30 15
q30 -77 90.5 -121t137.5 -44q84 0 140.5 43.5t56.5 109.5q0 57 -49 94.5t-154 60.5z" />
    <glyph glyph-name="T" unicode="T" horiz-adv-x="587" 
d="M556 700v-33h-245v-667h-35v667h-245v33h525z" />
    <glyph glyph-name="U" unicode="U" horiz-adv-x="690" 
d="M345 -11q-121 0 -202.5 78t-81.5 197v436h35v-426q0 -117 69.5 -183.5t179.5 -66.5t179.5 66.5t69.5 183.5v426h35v-436q0 -119 -81.5 -197t-202.5 -78z" />
    <glyph glyph-name="V" unicode="V" horiz-adv-x="744" 
d="M672 700h39l-318 -700h-43l-317 700h38l301 -662z" />
    <glyph glyph-name="W" unicode="W" horiz-adv-x="1017" 
d="M945 700h39l-234 -700h-33l-209 639l-210 -639h-34l-231 700h39l208 -656l215 656h27l213 -656z" />
    <glyph glyph-name="X" unicode="X" horiz-adv-x="693" 
d="M660 0h-47l-267 310l-266 -310h-47l292 343l-292 357h47l266 -324l267 324h47l-293 -357z" />
    <glyph glyph-name="Y" unicode="Y" horiz-adv-x="651" 
d="M318 0h35v242l265 458h-42l-241 -418l-259 418h-43l285 -458v-242z" />
    <glyph glyph-name="Z" unicode="Z" horiz-adv-x="628" 
d="M588 0v32h-514l514 628v40h-548v-32h514l-514 -622v-46h548z" />
    <glyph glyph-name="bracketleft" unicode="[" horiz-adv-x="268" 
d="M96 -4h130v-35h-165v788h165v-33h-130v-720z" />
    <glyph glyph-name="backslash" unicode="\" horiz-adv-x="393" 
d="M321 0l-291 700h41l291 -700h-41z" />
    <glyph glyph-name="bracketright" unicode="]" horiz-adv-x="268" 
d="M171 714h-130v35h165v-788h-165v33h130v720z" />
    <glyph glyph-name="asciicircum" unicode="^" horiz-adv-x="373" 
d="M178 750l-148 -167l38 -21l118 136l118 -136l39 21l-148 167h-17z" />
    <glyph glyph-name="underscore" unicode="_" horiz-adv-x="390" 
d="M359 20v-37h-328v37h328z" />
    <glyph glyph-name="grave" unicode="`" horiz-adv-x="258" 
d="M33 702l32 29l159 -165l-27 -26z" />
    <glyph glyph-name="a" unicode="a" horiz-adv-x="481" 
d="M384 254l-172 -20q-67 -8 -101.5 -34t-34.5 -69q0 -47 38.5 -76t98.5 -29q79 0 125 48.5t46 130.5h36q0 -92 -60 -154t-148 -62q-74 0 -122.5 40.5t-48.5 105.5q0 56 43 91.5t121 43.5l179 20v34q0 60 -44.5 105t-110.5 45q-59 0 -102.5 -31t-56.5 -81l-33 8
q18 62 70 101.5t118 39.5q79 0 137 -52.5t58 -124.5v-334h-36v254z" />
    <glyph glyph-name="b" unicode="b" horiz-adv-x="638" 
d="M61 0v750h35v-750h-35zM96 251q0 -102 68 -167.5t165 -65.5t165 65.5t68 167.5t-68 167.5t-165 65.5t-165 -65.5t-68 -167.5zM66 251q0 117 75.5 193t185.5 76q113 0 191.5 -76t78.5 -193t-78.5 -193t-191.5 -76q-110 0 -185.5 76t-75.5 193z" />
    <glyph glyph-name="c" unicode="c" horiz-adv-x="583" 
d="M76 251q0 -102 66 -167.5t162 -65.5q67 0 121.5 33t81.5 91l33 -12q-32 -68 -95.5 -108t-140.5 -40q-110 0 -186.5 76t-76.5 193t76.5 193t186.5 76q79 0 142.5 -41t95.5 -112l-33 -12q-27 60 -82 94.5t-123 34.5q-96 0 -162 -65.5t-66 -167.5z" />
    <glyph glyph-name="d" unicode="d" horiz-adv-x="638" 
d="M577 0h-35v750h35v-750zM542 251q0 102 -68 167.5t-165 65.5t-165 -65.5t-68 -167.5t68 -167.5t165 -65.5t165 65.5t68 167.5zM572 251q0 -117 -75.5 -193t-185.5 -76q-113 0 -191.5 76t-78.5 193t78.5 193t191.5 76q110 0 185.5 -76t75.5 -193z" />
    <glyph glyph-name="e" unicode="e" horiz-adv-x="599" 
d="M523 268q-5 95 -69 155t-155 60q-88 0 -151.5 -60t-71.5 -155h447zM76 234q8 -94 73 -154.5t156 -60.5q68 0 123 34t83 93l32 -14q-32 -69 -96 -109.5t-142 -40.5q-110 0 -187 76t-77 193t75.5 193t183.5 76t183 -72.5t75 -184.5q0 -5 -0.5 -9.5t-0.5 -10v-9.5h-481z" />
    <glyph glyph-name="f" unicode="f" horiz-adv-x="396" 
d="M297 716q-46 0 -73.5 -30.5t-27.5 -81.5v-104h169v-33h-169v-467h-35v467h-130v33h130v110q0 55 40.5 97.5t92.5 42.5h51v-34h-48z" />
    <glyph glyph-name="g" unicode="g" horiz-adv-x="598" 
d="M531 268.5q0 -108.5 -70 -179t-171 -70.5q-104 0 -176.5 70.5t-72.5 179t72.5 179t176.5 70.5q101 0 171 -70.5t70 -179zM502 269q0 94 -62 154t-151 60t-151 -60t-62 -154t62 -154t151 -60t151 60t62 154zM502 -25v525h35v-525q0 -88 -71 -146t-172 -58q-78 0 -142 45
t-95 121l33 9q27 -65 82 -103t124 -38q86 0 146 48t60 122z" />
    <glyph glyph-name="h" unicode="h" horiz-adv-x="521" 
d="M61 0v750h35v-750h-35zM424 0v307q0 78 -43 123t-111 45q-72 0 -123 -49.5t-51 -118.5h-35q0 81 62 142.5t151 61.5q78 0 131.5 -56.5t53.5 -141.5v-313h-35z" />
    <glyph glyph-name="i" unicode="i" horiz-adv-x="159" 
d="M48 628.5q0 13.5 9 22.5t22.5 9t22.5 -9t9 -22.5t-9 -22.5t-22.5 -9t-22.5 9t-9 22.5zM62 0v500h35v-500h-35z" />
    <glyph glyph-name="j" unicode="j" horiz-adv-x="159" 
d="M48 628.5q0 13.5 9 22.5t22.5 9t22.5 -9t9 -22.5t-9 -22.5t-22.5 -9t-22.5 9t-9 22.5zM-18 -130q39 0 59.5 25t20.5 63v542h35v-552q0 -45 -30 -77.5t-77 -32.5h-25v32h17z" />
    <glyph glyph-name="k" unicode="k" horiz-adv-x="446" 
d="M61 0v750h35v-482h27l241 232h48l-256 -250l256 -250h-48l-241 230h-27v-230h-35z" />
    <glyph glyph-name="l" unicode="l" 
d="M61 0v750h35v-750h-35z" />
    <glyph glyph-name="m" unicode="m" horiz-adv-x="801" 
d="M705 0v328q0 69 -37.5 108t-96.5 39q-63 0 -108 -43t-45 -104h-36q0 73 56 128t137 55q69 0 117 -50.5t48 -126.5v-334h-35zM61 0v500h35v-500h-35zM383 0v328q0 69 -37.5 108t-95.5 39q-64 0 -109 -43t-45 -104h-35q0 73 56 128t137 55q69 0 116.5 -50.5t47.5 -126.5
v-334h-35z" />
    <glyph glyph-name="n" unicode="n" horiz-adv-x="521" 
d="M61 0v500h35v-500h-35zM424 0v307q0 78 -43 123t-111 45q-72 0 -123 -49.5t-51 -118.5h-35q0 81 62 142.5t151 61.5q78 0 131.5 -56.5t53.5 -141.5v-313h-35z" />
    <glyph glyph-name="o" unicode="o" horiz-adv-x="618" 
d="M76 251q0 -102 67.5 -167.5t165.5 -65.5t165.5 65.5t67.5 167.5t-67.5 167.5t-165.5 65.5t-165.5 -65.5t-67.5 -167.5zM41 251q0 117 78 193t190 76t190 -76t78 -193t-78 -193t-190 -76t-190 76t-78 193z" />
    <glyph glyph-name="p" unicode="p" horiz-adv-x="638" 
d="M61 500h35v-700h-35v700zM96 249q0 -102 68 -167.5t165 -65.5t165 65.5t68 167.5t-68 167.5t-165 65.5t-165 -65.5t-68 -167.5zM66 249q0 117 75.5 193t185.5 76q113 0 191.5 -76t78.5 -193t-78.5 -193t-191.5 -76q-110 0 -185.5 76t-75.5 193z" />
    <glyph glyph-name="q" unicode="q" horiz-adv-x="638" 
d="M577 500v-700h-35v700h35zM542 249q0 102 -68 167.5t-165 65.5t-165 -65.5t-68 -167.5t68 -167.5t165 -65.5t165 65.5t68 167.5zM572 249q0 -117 -75.5 -193t-185.5 -76q-113 0 -191.5 76t-78.5 193t78.5 193t191.5 76q110 0 185.5 -76t75.5 -193z" />
    <glyph glyph-name="r" unicode="r" horiz-adv-x="312" 
d="M61 0v500h35v-500h-35zM269 473q-71 0 -122 -44.5t-51 -106.5h-35q0 66 58.5 126t138.5 60h28v-35h-17z" />
    <glyph glyph-name="s" unicode="s" horiz-adv-x="472" 
d="M236 237q-92 18 -136 51.5t-44 86.5q0 59 47.5 98.5t117.5 39.5q65 0 118 -39.5t77 -105.5l-32 -16q-21 57 -64.5 90t-98.5 33q-56 0 -93 -28t-37 -71q0 -37 33.5 -60.5t108.5 -38.5q197 -40 197 -148q0 -59 -53 -99.5t-125 -40.5q-71 0 -128.5 36t-82.5 97l28 23
q24 -54 72 -85t109 -31q63 -1 104 28t41 72q0 78 -159 108z" />
    <glyph glyph-name="t" unicode="t" horiz-adv-x="352" 
d="M265 34h56v-34h-61q-61 0 -97 32t-36 86v349h-96v33h96v152l35 7v-159h159v-33h-159v-342q0 -47 25 -69t78 -22z" />
    <glyph glyph-name="u" unicode="u" horiz-adv-x="501" 
d="M439 500v-500h-35v500h35zM96 500v-328q0 -69 40.5 -108t103.5 -39q68 0 116 43.5t48 104.5h36q0 -74 -59 -129t-145 -55q-74 0 -124.5 50.5t-50.5 126.5v334h35z" />
    <glyph glyph-name="v" unicode="v" horiz-adv-x="523" 
d="M449 500h41l-207 -500h-44l-206 500h41l188 -452z" />
    <glyph glyph-name="w" unicode="w" horiz-adv-x="766" 
d="M692 500h41l-171 -500h-36l-144 438l-144 -438h-36l-169 500h41l145 -450l150 450h28l149 -450z" />
    <glyph glyph-name="x" unicode="x" horiz-adv-x="526" 
d="M493 0h-48l-182 217l-181 -217h-49l206 250l-206 250h49l181 -217l182 217h48l-206 -250z" />
    <glyph glyph-name="y" unicode="y" horiz-adv-x="523" 
d="M446 500l-185 -434l-184 434h-44l204 -479l-89 -221h44l298 700h-44z" />
    <glyph glyph-name="z" unicode="z" horiz-adv-x="481" 
d="M440 0v34h-363l363 418v48h-399v-34h367l-367 -418v-48h399z" />
    <glyph glyph-name="braceleft" unicode="{" horiz-adv-x="282" 
d="M79 458q0 110 39.5 190t102.5 108l20 -31q-55 -21 -90.5 -91t-35.5 -167q0 -92 -60 -111q32 -10 46 -33.5t14 -70.5q0 -102 38.5 -173t97.5 -88l-19 -31q-67 24 -110 105.5t-43 196.5q0 78 -69 78v32q34 0 51.5 24.5t17.5 61.5z" />
    <glyph glyph-name="bar" unicode="|" 
d="M61 -200v1000h35v-1000h-35z" />
    <glyph glyph-name="braceright" unicode="}" horiz-adv-x="282" 
d="M203 258q0 -110 -39.5 -190t-102.5 -108l-20 31q55 21 90.5 91t35.5 167q0 92 60 111q-32 10 -46 33.5t-14 70.5q0 102 -38.5 173t-97.5 88l19 31q67 -24 110 -105.5t43 -196.5q0 -78 69 -78v-32q-34 0 -51.5 -24.5t-17.5 -61.5z" />
    <glyph glyph-name="asciitilde" unicode="~" horiz-adv-x="462" 
d="M157 333q-30 0 -55.5 -28t-37.5 -77l36 -18q7 36 22 57t33 21q15 0 27.5 -7.5t34.5 -31.5q23 -25 42 -35t44 -10q32 0 57.5 28t37.5 77l-37 18q-8 -35 -23.5 -55t-35.5 -20q-17 0 -28.5 7t-34.5 31q-22 24 -40 33.5t-42 9.5z" />
    <glyph glyph-name="exclamdown" unicode="&#xa1;" 
d="M60 416h37l-2 -528h-33zM120 555q0 -18 -12 -29.5t-30 -11.5q-17 0 -29 11.5t-12 29.5t12 29.5t30 11.5t29.5 -11.5t11.5 -29.5z" />
    <glyph glyph-name="cent" unicode="&#xa2;" horiz-adv-x="583" 
d="M285 596v104h38v-104h-38zM285 118h38v-118h-38v118zM76 356.5q0 -101.5 66 -167t162 -65.5q67 0 121.5 33t81.5 91l33 -12q-32 -69 -95.5 -108.5t-140.5 -39.5q-110 0 -186.5 76t-76.5 192.5t76.5 193t186.5 76.5q79 0 142.5 -41.5t95.5 -112.5l-33 -12q-27 60 -82 94.5
t-123 34.5q-96 0 -162 -65.5t-66 -167z" />
    <glyph glyph-name="sterling" unicode="&#xa3;" horiz-adv-x="560" 
d="M529 32v-32h-498v32h111v276h-91v32h91v174q0 89 57.5 147.5t142.5 58.5q69 0 117.5 -34t69.5 -94l-30 -12q-38 104 -157 104q-73 0 -119 -47t-46 -133v-164h226v-32h-226v-276h352z" />
    <glyph glyph-name="currency" unicode="&#xa4;" horiz-adv-x="369" 
d="M32 401l29 29l34 -34q39 28 90 28q48 0 88 -27l35 34l30 -31l-33 -34q27 -39 27 -89t-28 -90l34 -34l-30 -29l-33 34q-39 -28 -90 -28q-49 0 -89 27l-34 -33l-31 30l34 35q-27 39 -27 88q0 50 28 90zM80 277q0 -46 30.5 -75.5t74.5 -29.5t74.5 29.5t30.5 75.5t-30.5 75.5
t-74.5 29.5t-74.5 -29.5t-30.5 -75.5z" />
    <glyph glyph-name="yen" unicode="&#xa5;" horiz-adv-x="504" 
d="M388 164h-278v-39h278v39zM388 282h-278v-40h278v40zM236 0h35v358l199 342h-41l-176 -298l-177 298h-43l203 -342v-358z" />
    <glyph glyph-name="brokenbar" unicode="&#xa6;" 
d="M96 431h-35v369h35v-369zM96 189v-389h-35v389h35z" />
    <glyph glyph-name="section" unicode="&#xa7;" horiz-adv-x="427" 
d="M213 253q-72 16 -104.5 39.5t-32.5 61.5q0 40 39.5 67t98.5 27q72 -16 104 -39.5t32 -61.5q0 -40 -39.5 -67t-97.5 -27zM141 471q-45 -13 -72.5 -44t-27.5 -69q0 -113 165 -143q144 -25 144 -99q0 -37 -35.5 -62.5t-87.5 -25.5q-53 0 -94 29.5t-61 80.5l-31 -16
q23 -61 73.5 -97t112.5 -36q68 0 113 36.5t45 91.5q0 73 -99 113q45 14 72 44.5t27 69.5q0 54 -39.5 87.5t-124.5 54.5q-76 18 -110.5 40.5t-34.5 58.5q0 37 35.5 62t88.5 25q52 0 93 -29t61 -79l31 15q-22 61 -73 97t-113 36q-67 0 -112.5 -36.5t-45.5 -91.5
q0 -73 100 -113z" />
    <glyph glyph-name="dieresis" unicode="&#xa8;" horiz-adv-x="376" 
d="M264 632.5q0 13.5 9 22.5t22 9t22.5 -9t9.5 -22.5t-9.5 -22.5t-22.5 -9t-22 9t-9 22.5zM49 632.5q0 13.5 9 22.5t22 9t22.5 -9t9.5 -22.5t-9.5 -22.5t-22.5 -9t-22 9t-9 22.5z" />
    <glyph glyph-name="copyright" unicode="&#xa9;" horiz-adv-x="788" 
d="M274 351q0 -55 34.5 -90t85.5 -35q37 0 67 21.5t46 59.5l40 -17q-21 -50 -62 -79t-91 -29q-69 0 -116.5 48t-47.5 121t47.5 121t116.5 48q51 0 93 -28t62 -75l-40 -17q-15 36 -46 56t-69 20q-51 0 -85.5 -35t-34.5 -90zM83 353q0 -144 90 -236.5t221 -92.5t221 92.5
t90 236.5q0 142 -90 233.5t-221 91.5t-221 -91.5t-90 -233.5zM40 353q0 160 102.5 263.5t251.5 103.5t251.5 -103.5t102.5 -263.5q0 -161 -102.5 -266t-251.5 -105t-251.5 105t-102.5 266z" />
    <glyph glyph-name="ordfeminine" unicode="&#xaa;" horiz-adv-x="358" 
d="M274 700h44v-278h-44v278zM328 326v-39h-298v39h298zM74 561q0 -45 29.5 -75t72.5 -30q42 0 70 30t28 75t-28 75t-70 30q-43 0 -72.5 -30t-29.5 -75zM30 561q0 62 42 105.5t102 43.5q57 0 93 -42t36 -107t-36 -107t-93 -42q-60 0 -102 43.5t-42 105.5z" />
    <glyph glyph-name="guillemotleft" unicode="&#xab;" horiz-adv-x="483" 
d="M441 162v-45l-202 131v44l202 132v-45l-172 -109zM244 162v-45l-203 131v44l203 132v-45l-172 -109z" />
    <glyph glyph-name="logicalnot" unicode="&#xac;" horiz-adv-x="400" 
d="M369 335v-161h-36v126h-302v35h338z" />
    <glyph glyph-name="uni00AD" unicode="&#xad;" horiz-adv-x="291" 
d="M260 284v-35h-229v35h229z" />
    <glyph glyph-name="registered" unicode="&#xae;" horiz-adv-x="788" 
d="M433 470h-148v-118h148q30 0 50 17t20 43q0 25 -20 41.5t-50 16.5zM429 307l119 -119h-58l-120 120h-85v-120h-45v325h202q46 0 76 -29t30 -72q0 -46 -34.5 -76t-84.5 -29zM83 353q0 -144 90 -236.5t221 -92.5t221 92.5t90 236.5q0 142 -90 233.5t-221 91.5t-221 -91.5
t-90 -233.5zM40 353q0 160 102.5 263.5t251.5 103.5t251.5 -103.5t102.5 -263.5q0 -161 -102.5 -266t-251.5 -105t-251.5 105t-102.5 266z" />
    <glyph glyph-name="macron" unicode="&#xaf;" horiz-adv-x="346" 
d="M315 700v-37h-284v37h284z" />
    <glyph glyph-name="degree" unicode="&#xb0;" horiz-adv-x="342" 
d="M68 570q0 -45 30 -74t73 -29t73 29t30 74t-30 73.5t-73 28.5t-73 -28.5t-30 -73.5zM31 570q0 61 40.5 100.5t99.5 39.5t99.5 -39.5t40.5 -100.5t-40.5 -100.5t-99.5 -39.5t-99.5 39.5t-40.5 100.5z" />
    <glyph glyph-name="plusminus" unicode="&#xb1;" horiz-adv-x="340" 
d="M309 4v-35h-278v35h278zM152 400h38v-121h119v-35h-119v-122h-38v122h-121v35h121v121z" />
    <glyph glyph-name="uni00B2" unicode="&#xb2;" horiz-adv-x="248" 
d="M222 759q0 42 -28 69.5t-69 27.5q-39 0 -64.5 -23t-36.5 -58l39 -14q16 55 63 55q24 0 41 -15.5t17 -40.5q0 -31 -62 -68l-97 -61v-51h198v37h-149l69 39q79 43 79 103z" />
    <glyph glyph-name="uni00B3" unicode="&#xb3;" horiz-adv-x="246" 
d="M159 744l56 55v52h-179v-38h136l-74 -72l24 -31q29 0 44.5 -13.5t15.5 -36.5q0 -20 -15.5 -33t-39.5 -13q-25 0 -42.5 16.5t-23.5 45.5l-37 -14q10 -39 36 -63.5t64 -24.5q42 0 69.5 27t27.5 68q0 31 -17 50.5t-45 24.5z" />
    <glyph glyph-name="acute" unicode="&#xb4;" horiz-adv-x="259" 
d="M225 721l-32 29l-159 -165l27 -25z" />
    <glyph glyph-name="mu" unicode="&#xb5;" horiz-adv-x="527" 
d="M466 500v-500h-36v500h36zM61 500h35v-700h-35v700zM469 190q0 -86 -57 -143.5t-142 -57.5q-87 0 -148 58.5t-61 142.5h35q0 -69 51.5 -117t125.5 -48q71 0 114 45t43 120h39z" />
    <glyph glyph-name="paragraph" unicode="&#xb6;" horiz-adv-x="468" 
d="M406 0h-44v700h44v-700zM246 380q-77 0 -131 47.5t-54 117.5q0 66 50.5 110.5t124.5 44.5h62v-700h-34v380h-18z" />
    <glyph glyph-name="periodcentered" unicode="&#xb7;" horiz-adv-x="157" 
d="M48 360q0 13 9 21.5t22 8.5q12 0 20.5 -8.5t8.5 -21.5t-8.5 -21.5t-21 -8.5t-21.5 8.5t-9 21.5z" />
    <glyph glyph-name="cedilla" unicode="&#xb8;" horiz-adv-x="223" 
d="M83 -64q15 14 37 14q25 0 43 -22t18 -53q0 -34 -21.5 -55.5t-55.5 -21.5q-27 0 -46.5 13t-26.5 36l27 11q7 -32 44 -32q21 0 34.5 14t13.5 36q0 18 -9.5 29.5t-23.5 11.5q-20 0 -34 -21l-28 18v106h28v-84z" />
    <glyph glyph-name="uni00B9" unicode="&#xb9;" horiz-adv-x="178" 
d="M153 852v-272h-40v220l-59 -44l-30 31l87 65h42z" />
    <glyph glyph-name="ordmasculine" unicode="&#xba;" horiz-adv-x="358" 
d="M328 326v-39h-298v39h298zM74 561q0 -46 30.5 -75.5t74.5 -29.5t74.5 29.5t30.5 75.5t-30.5 75.5t-74.5 29.5t-74.5 -29.5t-30.5 -75.5zM30 561q0 65 43 107t106 42t106 -42t43 -107t-43 -107t-106 -42t-106 42t-43 107z" />
    <glyph glyph-name="guillemotright" unicode="&#xbb;" horiz-adv-x="483" 
d="M41 379v45l203 -132v-44l-203 -131v45l172 109zM239 379v45l202 -132v-44l-202 -131v45l172 109z" />
    <glyph glyph-name="onequarter" unicode="&#xbc;" horiz-adv-x="612" 
d="M387 99h82v120zM509 273v-174h32v-39h-32v-59h-40v59h-120v49l111 164h49zM189 0h-41l287 700h41zM153 702v-272h-40v220l-59 -44l-30 31l87 65h42z" />
    <glyph glyph-name="onehalf" unicode="&#xbd;" horiz-adv-x="616" 
d="M547 180q0 42 -28 69.5t-69 27.5q-39 0 -64.5 -22.5t-36.5 -58.5l39 -14q16 55 63 55q24 0 41 -15.5t17 -39.5q0 -31 -62 -68l-97 -61v-52h198v38h-149l69 38q79 44 79 103zM189 0h-41l287 700h41zM153 702v-272h-40v220l-59 -44l-30 31l87 65h42z" />
    <glyph glyph-name="threequarters" unicode="&#xbe;" horiz-adv-x="601" 
d="M376 99h82v120zM498 273v-174h32v-39h-32v-59h-40v59h-120v49l111 164h49zM178 0h-41l287 700h41zM159 594l56 55v52h-179v-38h136l-74 -72l24 -31q29 0 44.5 -13.5t15.5 -36.5q0 -20 -15.5 -33t-39.5 -13q-25 0 -42.5 16.5t-23.5 45.5l-37 -14q10 -39 36 -63.5t64 -24.5
q42 0 69.5 27t27.5 68q0 31 -17 50.5t-45 24.5z" />
    <glyph glyph-name="questiondown" unicode="&#xbf;" horiz-adv-x="551" 
d="M311 555q0 -18 -12 -29.5t-29.5 -11.5t-29.5 11.5t-12 29.5t12 29.5t30 11.5t29.5 -11.5t11.5 -29.5zM40 100q0 -97 67.5 -160t164.5 -63q93 0 153 53.5t86 137.5l-34 12q-53 -168 -205 -168q-83 0 -140 53t-57 135q0 93 116 194l104 90l-29 26l-100 -91
q-24 -24 -40 -41.5t-39 -48t-35 -63.5t-12 -66z" />
    <glyph glyph-name="Agrave" unicode="&#xc0;" horiz-adv-x="744" 
d="M251 936l27 29l162 -163l-23 -25zM153 249h431v-35h-431v35zM71 0h-38l317 700h44l317 -700h-39l-301 661z" />
    <glyph glyph-name="Aacute" unicode="&#xc1;" horiz-adv-x="744" 
d="M492 936l-26 28l-163 -162l25 -25zM153 249h431v-35h-431v35zM71 0h-38l317 700h44l317 -700h-39l-301 661z" />
    <glyph glyph-name="Acircumflex" unicode="&#xc2;" horiz-adv-x="744" 
d="M363 967l-150 -168l39 -21l120 137l120 -137l39 21l-150 168h-18zM153 249h431v-35h-431v35zM71 0h-38l317 700h44l317 -700h-39l-301 661z" />
    <glyph glyph-name="Atilde" unicode="&#xc3;" horiz-adv-x="744" 
d="M298 906q-30 0 -55 -28t-38 -77l37 -18q7 38 21.5 60t32.5 22q15 0 27.5 -8.5t34.5 -34.5q23 -25 42 -35t44 -10q32 0 57.5 28t37.5 77l-37 18q-7 -37 -23 -58t-36 -21q-16 0 -28 8t-34 34q-23 24 -41 33.5t-42 9.5zM153 249h431v-35h-431v35zM71 0h-38l317 700h44
l317 -700h-39l-301 661z" />
    <glyph glyph-name="Adieresis" unicode="&#xc4;" horiz-adv-x="744" 
d="M424 808.5q0 13.5 9.5 22.5t22.5 9t22.5 -9t9.5 -22.5t-9.5 -22.5t-22.5 -9t-22.5 9t-9.5 22.5zM254 808.5q0 13.5 9.5 22.5t22.5 9t22.5 -9t9.5 -22.5t-9.5 -22.5t-22.5 -9t-22.5 9t-9.5 22.5zM153 249h431v-35h-431v35zM71 0h-38l317 700h44l317 -700h-39l-301 661z
" />
    <glyph glyph-name="Aring" unicode="&#xc5;" horiz-adv-x="744" 
d="M317 869q0 -23 16 -38t38 -15t38 15t16 38t-16 38.5t-38 15.5t-38 -15.5t-16 -38.5zM279 869q0 40 27 66t65 26t65 -26t27 -66t-27 -66t-65 -26t-65 26t-27 66zM153 249h431v-35h-431v35zM71 0h-38l317 700h44l317 -700h-39l-301 661z" />
    <glyph glyph-name="AE" unicode="&#xc6;" horiz-adv-x="927" 
d="M477 368h384v-34h-384v-301h408v-33h-443v700h443v-33h-408v-299zM170 245h297v-33h-297v33zM75 0h-42l361 700h48v-39h-23z" />
    <glyph glyph-name="Ccedilla" unicode="&#xc7;" horiz-adv-x="778" 
d="M415 -64q15 14 36 14q26 0 44 -22t18 -53q0 -34 -22 -55.5t-56 -21.5q-26 0 -46 13t-27 36l27 11q8 -32 44 -32q22 0 35.5 14t13.5 36q0 18 -9.5 29.5t-23.5 11.5q-20 0 -34 -21l-29 18v106h29v-84zM41 351q0 80 28.5 149t77 117t114 75.5t138.5 27.5q109 0 198 -56.5
t135 -153.5l-29 -16q-42 89 -123.5 140t-179.5 51q-66 0 -125 -24.5t-103 -67.5t-70 -106t-26 -136t26 -136t70 -106t103 -67.5t125 -24.5q101 0 183.5 53.5t123.5 145.5l30 -14q-44 -101 -135 -160.5t-203 -59.5q-73 0 -138.5 27.5t-114 75.5t-77 117t-28.5 149z" />
    <glyph glyph-name="Egrave" unicode="&#xc8;" horiz-adv-x="545" 
d="M161 936l27 29l162 -163l-23 -25zM96 368h384v-34h-384v-301h408v-33h-443v700h443v-33h-408v-299z" />
    <glyph glyph-name="Eacute" unicode="&#xc9;" horiz-adv-x="545" 
d="M402 936l-26 28l-163 -162l25 -25zM96 368h384v-34h-384v-301h408v-33h-443v700h443v-33h-408v-299z" />
    <glyph glyph-name="Ecircumflex" unicode="&#xca;" horiz-adv-x="545" 
d="M272 967l-150 -168l39 -21l120 137l120 -137l39 21l-150 168h-18zM96 368h384v-34h-384v-301h408v-33h-443v700h443v-33h-408v-299z" />
    <glyph glyph-name="Edieresis" unicode="&#xcb;" horiz-adv-x="545" 
d="M333 808.5q0 13.5 9.5 22.5t22.5 9t22.5 -9t9.5 -22.5t-9.5 -22.5t-22.5 -9t-22.5 9t-9.5 22.5zM163 808.5q0 13.5 9.5 22.5t22.5 9t22.5 -9t9.5 -22.5t-9.5 -22.5t-22.5 -9t-22.5 9t-9.5 22.5zM96 368h384v-34h-384v-301h408v-33h-443v700h443v-33h-408v-299z" />
    <glyph glyph-name="Igrave" unicode="&#xcc;" 
d="M-41 936l27 29l162 -163l-23 -25zM96 0h-35v700h35v-700z" />
    <glyph glyph-name="Iacute" unicode="&#xcd;" 
d="M200 936l-26 28l-163 -162l25 -25zM96 0h-35v700h35v-700z" />
    <glyph glyph-name="Icircumflex" unicode="&#xce;" 
d="M70 967l-150 -168l39 -21l120 137l120 -137l39 21l-150 168h-18zM96 0h-35v700h35v-700z" />
    <glyph glyph-name="Idieresis" unicode="&#xcf;" 
d="M131 808.5q0 13.5 9.5 22.5t22.5 9t22.5 -9t9.5 -22.5t-9.5 -22.5t-22.5 -9t-22.5 9t-9.5 22.5zM-39 808.5q0 13.5 9.5 22.5t22.5 9t22.5 -9t9.5 -22.5t-9.5 -22.5t-22.5 -9t-22.5 9t-9.5 22.5zM96 0h-35v700h35v-700z" />
    <glyph glyph-name="Eth" unicode="&#xd0;" horiz-adv-x="696" 
d="M341 376v-35h-341v35h341zM304 0h-222v700h222q96 0 176 -44t127 -124.5t47 -180.5q0 -101 -47 -181.5t-127 -125t-176 -44.5zM294 667h-176v-634h176q89 0 163 39.5t118 113t44 165.5t-44 164.5t-118 112t-163 39.5z" />
    <glyph glyph-name="Ntilde" unicode="&#xd1;" horiz-adv-x="678" 
d="M270 906q-30 0 -55 -28t-38 -77l37 -18q7 38 21.5 60t32.5 22q15 0 27.5 -8.5t34.5 -34.5q23 -25 42 -35t44 -10q32 0 57.5 28t37.5 77l-37 18q-7 -37 -23 -58t-36 -21q-16 0 -28 8t-34 34q-23 24 -41 33.5t-42 9.5zM61 0v700h47l473 -652v652h35v-700h-46l-474 663v-663
h-35z" />
    <glyph glyph-name="Ograve" unicode="&#xd2;" horiz-adv-x="788" 
d="M274 936l27 29l162 -163l-23 -25zM76 353q0 -73 25.5 -136.5t68.5 -107t101 -68t123 -24.5t123 24.5t101 68t68.5 107t25.5 136.5q0 72 -25.5 134.5t-68.5 105.5t-101 67.5t-123 24.5t-123 -24.5t-101 -67.5t-68.5 -105.5t-25.5 -134.5zM41 353q0 79 28 148t75.5 116.5
t112.5 75t137 27.5t137 -27.5t112.5 -75t75.5 -116.5t28 -148q0 -80 -28 -149.5t-75.5 -118t-112.5 -76t-137 -27.5t-137 27.5t-112.5 76t-75.5 118t-28 149.5z" />
    <glyph glyph-name="Oacute" unicode="&#xd3;" horiz-adv-x="788" 
d="M515 936l-26 28l-163 -162l25 -25zM76 353q0 -73 25.5 -136.5t68.5 -107t101 -68t123 -24.5t123 24.5t101 68t68.5 107t25.5 136.5q0 72 -25.5 134.5t-68.5 105.5t-101 67.5t-123 24.5t-123 -24.5t-101 -67.5t-68.5 -105.5t-25.5 -134.5zM41 353q0 79 28 148t75.5 116.5
t112.5 75t137 27.5t137 -27.5t112.5 -75t75.5 -116.5t28 -148q0 -80 -28 -149.5t-75.5 -118t-112.5 -76t-137 -27.5t-137 27.5t-112.5 76t-75.5 118t-28 149.5z" />
    <glyph glyph-name="Ocircumflex" unicode="&#xd4;" horiz-adv-x="788" 
d="M385 967l-150 -168l39 -21l120 137l120 -137l39 21l-150 168h-18zM76 353q0 -73 25.5 -136.5t68.5 -107t101 -68t123 -24.5t123 24.5t101 68t68.5 107t25.5 136.5q0 72 -25.5 134.5t-68.5 105.5t-101 67.5t-123 24.5t-123 -24.5t-101 -67.5t-68.5 -105.5t-25.5 -134.5z
M41 353q0 79 28 148t75.5 116.5t112.5 75t137 27.5t137 -27.5t112.5 -75t75.5 -116.5t28 -148q0 -80 -28 -149.5t-75.5 -118t-112.5 -76t-137 -27.5t-137 27.5t-112.5 76t-75.5 118t-28 149.5z" />
    <glyph glyph-name="Otilde" unicode="&#xd5;" horiz-adv-x="788" 
d="M320 906q-30 0 -55 -28t-38 -77l37 -18q7 38 21.5 60t32.5 22q15 0 27.5 -8.5t34.5 -34.5q23 -25 42 -35t44 -10q32 0 57.5 28t37.5 77l-37 18q-7 -37 -23 -58t-36 -21q-16 0 -28 8t-34 34q-23 24 -41 33.5t-42 9.5zM76 353q0 -73 25.5 -136.5t68.5 -107t101 -68
t123 -24.5t123 24.5t101 68t68.5 107t25.5 136.5q0 72 -25.5 134.5t-68.5 105.5t-101 67.5t-123 24.5t-123 -24.5t-101 -67.5t-68.5 -105.5t-25.5 -134.5zM41 353q0 79 28 148t75.5 116.5t112.5 75t137 27.5t137 -27.5t112.5 -75t75.5 -116.5t28 -148q0 -80 -28 -149.5
t-75.5 -118t-112.5 -76t-137 -27.5t-137 27.5t-112.5 76t-75.5 118t-28 149.5z" />
    <glyph glyph-name="Odieresis" unicode="&#xd6;" horiz-adv-x="788" 
d="M446 808.5q0 13.5 9.5 22.5t22.5 9t22.5 -9t9.5 -22.5t-9.5 -22.5t-22.5 -9t-22.5 9t-9.5 22.5zM276 808.5q0 13.5 9.5 22.5t22.5 9t22.5 -9t9.5 -22.5t-9.5 -22.5t-22.5 -9t-22.5 9t-9.5 22.5zM76 353q0 -73 25.5 -136.5t68.5 -107t101 -68t123 -24.5t123 24.5t101 68
t68.5 107t25.5 136.5q0 72 -25.5 134.5t-68.5 105.5t-101 67.5t-123 24.5t-123 -24.5t-101 -67.5t-68.5 -105.5t-25.5 -134.5zM41 353q0 79 28 148t75.5 116.5t112.5 75t137 27.5t137 -27.5t112.5 -75t75.5 -116.5t28 -148q0 -80 -28 -149.5t-75.5 -118t-112.5 -76
t-137 -27.5t-137 27.5t-112.5 76t-75.5 118t-28 149.5z" />
    <glyph glyph-name="multiply" unicode="&#xd7;" horiz-adv-x="340" 
d="M52 358l27 28l92 -93l91 90l25 -24l-91 -91l94 -93l-28 -27l-93 94l-93 -94l-24 26l92 92z" />
    <glyph glyph-name="Oslash" unicode="&#xd8;" horiz-adv-x="788" 
d="M724 657l-637 -637l-23 23l637 637zM76 353q0 -73 25.5 -136.5t68.5 -107t101 -68t123 -24.5t123 24.5t101 68t68.5 107t25.5 136.5q0 72 -25.5 134.5t-68.5 105.5t-101 67.5t-123 24.5t-123 -24.5t-101 -67.5t-68.5 -105.5t-25.5 -134.5zM41 353q0 79 28 148t75.5 116.5
t112.5 75t137 27.5t137 -27.5t112.5 -75t75.5 -116.5t28 -148q0 -80 -28 -149.5t-75.5 -118t-112.5 -76t-137 -27.5t-137 27.5t-112.5 76t-75.5 118t-28 149.5z" />
    <glyph glyph-name="Ugrave" unicode="&#xd9;" horiz-adv-x="690" 
d="M225 936l27 29l162 -163l-23 -25zM345 -11q-121 0 -202.5 78t-81.5 197v436h35v-426q0 -117 69.5 -183.5t179.5 -66.5t179.5 66.5t69.5 183.5v426h35v-436q0 -119 -81.5 -197t-202.5 -78z" />
    <glyph glyph-name="Uacute" unicode="&#xda;" horiz-adv-x="690" 
d="M466 936l-26 28l-163 -162l25 -25zM345 -11q-121 0 -202.5 78t-81.5 197v436h35v-426q0 -117 69.5 -183.5t179.5 -66.5t179.5 66.5t69.5 183.5v426h35v-436q0 -119 -81.5 -197t-202.5 -78z" />
    <glyph glyph-name="Ucircumflex" unicode="&#xdb;" horiz-adv-x="690" 
d="M336 967l-150 -168l39 -21l120 137l120 -137l39 21l-150 168h-18zM345 -11q-121 0 -202.5 78t-81.5 197v436h35v-426q0 -117 69.5 -183.5t179.5 -66.5t179.5 66.5t69.5 183.5v426h35v-436q0 -119 -81.5 -197t-202.5 -78z" />
    <glyph glyph-name="Udieresis" unicode="&#xdc;" horiz-adv-x="690" 
d="M397 808.5q0 13.5 9.5 22.5t22.5 9t22.5 -9t9.5 -22.5t-9.5 -22.5t-22.5 -9t-22.5 9t-9.5 22.5zM227 808.5q0 13.5 9.5 22.5t22.5 9t22.5 -9t9.5 -22.5t-9.5 -22.5t-22.5 -9t-22.5 9t-9.5 22.5zM345 -11q-121 0 -202.5 78t-81.5 197v436h35v-426q0 -117 69.5 -183.5
t179.5 -66.5t179.5 66.5t69.5 183.5v426h35v-436q0 -119 -81.5 -197t-202.5 -78z" />
    <glyph glyph-name="Yacute" unicode="&#xdd;" horiz-adv-x="651" 
d="M453 936l-26 28l-163 -162l25 -25zM318 0h35v242l265 458h-42l-241 -418l-259 418h-43l285 -458v-242z" />
    <glyph glyph-name="Thorn" unicode="&#xde;" horiz-adv-x="626" 
d="M96 543v-374h242q90 0 150.5 54t60.5 135q0 80 -60 132.5t-151 52.5h-242zM96 136v-136h-35v700h35v-124h252q101 0 168.5 -62t67.5 -156q0 -93 -71.5 -157.5t-174.5 -64.5h-242z" />
    <glyph glyph-name="germandbls" unicode="&#xdf;" horiz-adv-x="658" 
d="M438 392q67 -14 111.5 -72.5t44.5 -132.5q0 -86 -58 -142t-147 -56q-67 0 -116 35t-67 96l34 10q13 -50 52 -78t96 -28q77 0 123.5 45.5t46.5 120.5q0 82 -58 133t-151 51h-44v32h44q74 0 120.5 42t46.5 108q0 77 -53.5 124t-141.5 47q-105 0 -165 -65.5t-60 -180.5v-481
h-35v491q0 118 75 193.5t192 75.5q100 0 162 -57.5t62 -151.5q0 -114 -114 -159z" />
    <glyph glyph-name="agrave" unicode="&#xe0;" horiz-adv-x="481" 
d="M111 727l27 29l162 -163l-23 -25zM384 254l-172 -20q-67 -8 -101.5 -34t-34.5 -69q0 -47 38.5 -76t98.5 -29q79 0 125 48.5t46 130.5h36q0 -92 -60 -154t-148 -62q-74 0 -122.5 40.5t-48.5 105.5q0 56 43 91.5t121 43.5l179 20v34q0 60 -44.5 105t-110.5 45
q-59 0 -102.5 -31t-56.5 -81l-33 8q18 62 70 101.5t118 39.5q79 0 137 -52.5t58 -124.5v-334h-36v254z" />
    <glyph glyph-name="aacute" unicode="&#xe1;" horiz-adv-x="481" 
d="M352 727l-26 28l-163 -162l25 -25zM384 254l-172 -20q-67 -8 -101.5 -34t-34.5 -69q0 -47 38.5 -76t98.5 -29q79 0 125 48.5t46 130.5h36q0 -92 -60 -154t-148 -62q-74 0 -122.5 40.5t-48.5 105.5q0 56 43 91.5t121 43.5l179 20v34q0 60 -44.5 105t-110.5 45
q-59 0 -102.5 -31t-56.5 -81l-33 8q18 62 70 101.5t118 39.5q79 0 137 -52.5t58 -124.5v-334h-36v254z" />
    <glyph glyph-name="acircumflex" unicode="&#xe2;" horiz-adv-x="481" 
d="M221 758l-150 -168l39 -21l120 137l120 -137l39 21l-150 168h-18zM384 254l-172 -20q-67 -8 -101.5 -34t-34.5 -69q0 -47 38.5 -76t98.5 -29q79 0 125 48.5t46 130.5h36q0 -92 -60 -154t-148 -62q-74 0 -122.5 40.5t-48.5 105.5q0 56 43 91.5t121 43.5l179 20v34
q0 60 -44.5 105t-110.5 45q-59 0 -102.5 -31t-56.5 -81l-33 8q18 62 70 101.5t118 39.5q79 0 137 -52.5t58 -124.5v-334h-36v254z" />
    <glyph glyph-name="atilde" unicode="&#xe3;" horiz-adv-x="481" 
d="M156 697q-30 0 -55 -28t-38 -77l37 -18q7 38 21.5 60t32.5 22q15 0 27.5 -8.5t34.5 -34.5q23 -25 42 -35t44 -10q32 0 57.5 28t37.5 77l-37 18q-7 -37 -23 -58t-36 -21q-16 0 -28 8t-34 34q-23 24 -41 33.5t-42 9.5zM384 254l-172 -20q-67 -8 -101.5 -34t-34.5 -69
q0 -47 38.5 -76t98.5 -29q79 0 125 48.5t46 130.5h36q0 -92 -60 -154t-148 -62q-74 0 -122.5 40.5t-48.5 105.5q0 56 43 91.5t121 43.5l179 20v34q0 60 -44.5 105t-110.5 45q-59 0 -102.5 -31t-56.5 -81l-33 8q18 62 70 101.5t118 39.5q79 0 137 -52.5t58 -124.5v-334h-36
v254z" />
    <glyph glyph-name="adieresis" unicode="&#xe4;" horiz-adv-x="481" 
d="M282 599.5q0 13.5 9.5 22.5t22.5 9t22.5 -9t9.5 -22.5t-9.5 -22.5t-22.5 -9t-22.5 9t-9.5 22.5zM112 599.5q0 13.5 9.5 22.5t22.5 9t22.5 -9t9.5 -22.5t-9.5 -22.5t-22.5 -9t-22.5 9t-9.5 22.5zM384 254l-172 -20q-67 -8 -101.5 -34t-34.5 -69q0 -47 38.5 -76t98.5 -29
q79 0 125 48.5t46 130.5h36q0 -92 -60 -154t-148 -62q-74 0 -122.5 40.5t-48.5 105.5q0 56 43 91.5t121 43.5l179 20v34q0 60 -44.5 105t-110.5 45q-59 0 -102.5 -31t-56.5 -81l-33 8q18 62 70 101.5t118 39.5q79 0 137 -52.5t58 -124.5v-334h-36v254z" />
    <glyph glyph-name="aring" unicode="&#xe5;" horiz-adv-x="481" 
d="M177 660q0 -23 16 -38t38 -15t38 15t16 38t-16 38.5t-38 15.5t-38 -15.5t-16 -38.5zM139 660q0 40 27 66t65 26t65 -26t27 -66t-27 -66t-65 -26t-65 26t-27 66zM384 254l-172 -20q-67 -8 -101.5 -34t-34.5 -69q0 -47 38.5 -76t98.5 -29q79 0 125 48.5t46 130.5h36
q0 -92 -60 -154t-148 -62q-74 0 -122.5 40.5t-48.5 105.5q0 56 43 91.5t121 43.5l179 20v34q0 60 -44.5 105t-110.5 45q-59 0 -102.5 -31t-56.5 -81l-33 8q18 62 70 101.5t118 39.5q79 0 137 -52.5t58 -124.5v-334h-36v254z" />
    <glyph glyph-name="ae" unicode="&#xe6;" horiz-adv-x="941" 
d="M384 254l-172 -20q-136 -17 -136 -103q0 -47 38 -76t99 -29q79 0 125 48.5t46 130.5v49zM418 234q8 -95 73 -155t156 -60q68 0 123 34t83 93l32 -14q-32 -69 -96 -109.5t-143 -40.5q-106 0 -180 76t-74 193t72.5 193t176.5 76q108 0 183.5 -72.5t75.5 -184.5
q0 -5 -0.5 -15t-0.5 -14h-481zM865 268q-5 96 -69 155.5t-155 59.5q-88 0 -151.5 -59.5t-71.5 -155.5h447zM208 -11q-72 0 -119.5 40.5t-47.5 104.5q0 57 43 93t121 45l179 19v32q0 61 -44.5 106t-110.5 45q-59 0 -103 -31.5t-57 -80.5l-32 8q19 63 71.5 102t119.5 39
q78 0 135.5 -52.5t57.5 -124.5v-133q0 -90 -61 -151t-152 -61z" />
    <glyph glyph-name="ccedilla" unicode="&#xe7;" horiz-adv-x="583" 
d="M320 -64q15 14 36 14q26 0 44 -22t18 -53q0 -34 -22 -55.5t-56 -21.5q-26 0 -46 13t-27 36l27 11q8 -32 44 -32q22 0 35.5 14t13.5 36q0 18 -9.5 29.5t-23.5 11.5q-20 0 -34 -21l-29 18v106h29v-84zM76 251q0 -102 66 -167.5t162 -65.5q67 0 121.5 33t81.5 91l33 -12
q-32 -68 -95.5 -108t-140.5 -40q-110 0 -186.5 76t-76.5 193t76.5 193t186.5 76q79 0 142.5 -41t95.5 -112l-33 -12q-27 60 -82 94.5t-123 34.5q-96 0 -162 -65.5t-66 -167.5z" />
    <glyph glyph-name="egrave" unicode="&#xe8;" horiz-adv-x="599" 
d="M183 727l27 29l162 -163l-23 -25zM523 268q-5 95 -69 155t-155 60q-88 0 -151.5 -60t-71.5 -155h447zM76 234q8 -94 73 -154.5t156 -60.5q68 0 123 34t83 93l32 -14q-32 -69 -96 -109.5t-142 -40.5q-110 0 -187 76t-77 193t75.5 193t183.5 76t183 -72.5t75 -184.5
q0 -5 -0.5 -9.5t-0.5 -10v-9.5h-481z" />
    <glyph glyph-name="eacute" unicode="&#xe9;" horiz-adv-x="599" 
d="M424 727l-26 28l-163 -162l25 -25zM523 268q-5 95 -69 155t-155 60q-88 0 -151.5 -60t-71.5 -155h447zM76 234q8 -94 73 -154.5t156 -60.5q68 0 123 34t83 93l32 -14q-32 -69 -96 -109.5t-142 -40.5q-110 0 -187 76t-77 193t75.5 193t183.5 76t183 -72.5t75 -184.5
q0 -5 -0.5 -9.5t-0.5 -10v-9.5h-481z" />
    <glyph glyph-name="ecircumflex" unicode="&#xea;" horiz-adv-x="599" 
d="M294 758l-150 -168l39 -21l120 137l120 -137l39 21l-150 168h-18zM523 268q-5 95 -69 155t-155 60q-88 0 -151.5 -60t-71.5 -155h447zM76 234q8 -94 73 -154.5t156 -60.5q68 0 123 34t83 93l32 -14q-32 -69 -96 -109.5t-142 -40.5q-110 0 -187 76t-77 193t75.5 193
t183.5 76t183 -72.5t75 -184.5q0 -5 -0.5 -9.5t-0.5 -10v-9.5h-481z" />
    <glyph glyph-name="edieresis" unicode="&#xeb;" horiz-adv-x="599" 
d="M355 599.5q0 13.5 9.5 22.5t22.5 9t22.5 -9t9.5 -22.5t-9.5 -22.5t-22.5 -9t-22.5 9t-9.5 22.5zM185 599.5q0 13.5 9.5 22.5t22.5 9t22.5 -9t9.5 -22.5t-9.5 -22.5t-22.5 -9t-22.5 9t-9.5 22.5zM523 268q-5 95 -69 155t-155 60q-88 0 -151.5 -60t-71.5 -155h447zM76 234
q8 -94 73 -154.5t156 -60.5q68 0 123 34t83 93l32 -14q-32 -69 -96 -109.5t-142 -40.5q-110 0 -187 76t-77 193t75.5 193t183.5 76t183 -72.5t75 -184.5q0 -5 -0.5 -9.5t-0.5 -10v-9.5h-481z" />
    <glyph glyph-name="igrave" unicode="&#xec;" 
d="M-41 727l27 29l162 -163l-23 -25zM61 0v500h35v-500h-35z" />
    <glyph glyph-name="iacute" unicode="&#xed;" 
d="M200 727l-26 28l-163 -162l25 -25zM61 0v500h35v-500h-35z" />
    <glyph glyph-name="icircumflex" unicode="&#xee;" 
d="M70 758l-150 -168l39 -21l120 137l120 -137l39 21l-150 168h-18zM61 0v500h35v-500h-35z" />
    <glyph glyph-name="idieresis" unicode="&#xef;" 
d="M131 599.5q0 13.5 9.5 22.5t22.5 9t22.5 -9t9.5 -22.5t-9.5 -22.5t-22.5 -9t-22.5 9t-9.5 22.5zM-39 599.5q0 13.5 9.5 22.5t22.5 9t22.5 -9t9.5 -22.5t-9.5 -22.5t-22.5 -9t-22.5 9t-9.5 22.5zM61 0v500h35v-500h-35z" />
    <glyph glyph-name="eth" unicode="&#xf0;" horiz-adv-x="610" 
d="M535 754l-245 -149l20 -33l244 148zM524 240q0 -93 -67.5 -158t-163.5 -65q-93 0 -155 61.5t-62 155t63 154t160 60.5t161 -59.5t64 -148.5zM253 729q119 -12 194.5 -115t86.5 -270q-33 64 -98 102.5t-141 38.5q-108 0 -181 -72.5t-73 -179.5q0 -108 73 -179.5t183 -71.5
q75 0 136.5 35t94.5 96q41 76 41 203q0 183 -84.5 304.5t-226.5 142.5z" />
    <glyph glyph-name="ntilde" unicode="&#xf1;" horiz-adv-x="521" 
d="M185 697q-30 0 -55 -28t-38 -77l37 -18q7 38 21.5 60t32.5 22q15 0 27.5 -8.5t34.5 -34.5q23 -25 42 -35t44 -10q32 0 57.5 28t37.5 77l-37 18q-7 -37 -23 -58t-36 -21q-16 0 -28 8t-34 34q-23 24 -41 33.5t-42 9.5zM61 0v500h35v-500h-35zM424 0v307q0 78 -43 123
t-111 45q-72 0 -123 -49.5t-51 -118.5h-35q0 81 62 142.5t151 61.5q78 0 131.5 -56.5t53.5 -141.5v-313h-35z" />
    <glyph glyph-name="ograve" unicode="&#xf2;" horiz-adv-x="618" 
d="M188 727l27 29l162 -163l-23 -25zM76 251q0 -102 67.5 -167.5t165.5 -65.5t165.5 65.5t67.5 167.5t-67.5 167.5t-165.5 65.5t-165.5 -65.5t-67.5 -167.5zM41 251q0 117 78 193t190 76t190 -76t78 -193t-78 -193t-190 -76t-190 76t-78 193z" />
    <glyph glyph-name="oacute" unicode="&#xf3;" horiz-adv-x="618" 
d="M429 727l-26 28l-163 -162l25 -25zM76 251q0 -102 67.5 -167.5t165.5 -65.5t165.5 65.5t67.5 167.5t-67.5 167.5t-165.5 65.5t-165.5 -65.5t-67.5 -167.5zM41 251q0 117 78 193t190 76t190 -76t78 -193t-78 -193t-190 -76t-190 76t-78 193z" />
    <glyph glyph-name="ocircumflex" unicode="&#xf4;" horiz-adv-x="618" 
d="M299 758l-150 -168l39 -21l120 137l120 -137l39 21l-150 168h-18zM76 251q0 -102 67.5 -167.5t165.5 -65.5t165.5 65.5t67.5 167.5t-67.5 167.5t-165.5 65.5t-165.5 -65.5t-67.5 -167.5zM41 251q0 117 78 193t190 76t190 -76t78 -193t-78 -193t-190 -76t-190 76t-78 193z
" />
    <glyph glyph-name="otilde" unicode="&#xf5;" horiz-adv-x="618" 
d="M234 697q-30 0 -55 -28t-38 -77l37 -18q7 38 21.5 60t32.5 22q15 0 27.5 -8.5t34.5 -34.5q23 -25 42 -35t44 -10q32 0 57.5 28t37.5 77l-37 18q-7 -37 -23 -58t-36 -21q-16 0 -28 8t-34 34q-23 24 -41 33.5t-42 9.5zM76 251q0 -102 67.5 -167.5t165.5 -65.5t165.5 65.5
t67.5 167.5t-67.5 167.5t-165.5 65.5t-165.5 -65.5t-67.5 -167.5zM41 251q0 117 78 193t190 76t190 -76t78 -193t-78 -193t-190 -76t-190 76t-78 193z" />
    <glyph glyph-name="odieresis" unicode="&#xf6;" horiz-adv-x="618" 
d="M360 599.5q0 13.5 9.5 22.5t22.5 9t22.5 -9t9.5 -22.5t-9.5 -22.5t-22.5 -9t-22.5 9t-9.5 22.5zM190 599.5q0 13.5 9.5 22.5t22.5 9t22.5 -9t9.5 -22.5t-9.5 -22.5t-22.5 -9t-22.5 9t-9.5 22.5zM76 251q0 -102 67.5 -167.5t165.5 -65.5t165.5 65.5t67.5 167.5
t-67.5 167.5t-165.5 65.5t-165.5 -65.5t-67.5 -167.5zM41 251q0 117 78 193t190 76t190 -76t78 -193t-78 -193t-190 -76t-190 76t-78 193z" />
    <glyph glyph-name="divide" unicode="&#xf7;" horiz-adv-x="340" 
d="M130 401.5q0 17.5 12 29.5t30 12t29.5 -12t11.5 -29.5t-12 -29.5t-29.5 -12t-29.5 12t-12 29.5zM130 128.5q0 17.5 12 29.5t30 12t29.5 -11.5t11.5 -29.5t-12 -30t-29.5 -12t-29.5 12t-12 29.5zM309 284v-35h-278v35h278z" />
    <glyph glyph-name="oslash" unicode="&#xf8;" horiz-adv-x="618" 
d="M544 512l25 -25l-495 -495l-25 25zM78 251q0 -101 67 -166.5t164 -65t164 65.5t67 166t-67 166t-164 65t-164 -65t-67 -166zM41 251q0 117 78 193t190 76t190 -76t78 -193t-78 -193t-190 -76t-190 76t-78 193z" />
    <glyph glyph-name="ugrave" unicode="&#xf9;" horiz-adv-x="501" 
d="M133 727l27 29l162 -163l-23 -25zM439 500v-500h-35v500h35zM96 500v-328q0 -69 40.5 -108t103.5 -39q68 0 116 43.5t48 104.5h36q0 -74 -59 -129t-145 -55q-74 0 -124.5 50.5t-50.5 126.5v334h35z" />
    <glyph glyph-name="uacute" unicode="&#xfa;" horiz-adv-x="501" 
d="M374 727l-26 28l-163 -162l25 -25zM439 500v-500h-35v500h35zM96 500v-328q0 -69 40.5 -108t103.5 -39q68 0 116 43.5t48 104.5h36q0 -74 -59 -129t-145 -55q-74 0 -124.5 50.5t-50.5 126.5v334h35z" />
    <glyph glyph-name="ucircumflex" unicode="&#xfb;" horiz-adv-x="501" 
d="M245 758l-150 -168l39 -21l120 137l120 -137l39 21l-150 168h-18zM439 500v-500h-35v500h35zM96 500v-328q0 -69 40.5 -108t103.5 -39q68 0 116 43.5t48 104.5h36q0 -74 -59 -129t-145 -55q-74 0 -124.5 50.5t-50.5 126.5v334h35z" />
    <glyph glyph-name="udieresis" unicode="&#xfc;" horiz-adv-x="501" 
d="M306 599.5q0 13.5 9.5 22.5t22.5 9t22.5 -9t9.5 -22.5t-9.5 -22.5t-22.5 -9t-22.5 9t-9.5 22.5zM136 599.5q0 13.5 9.5 22.5t22.5 9t22.5 -9t9.5 -22.5t-9.5 -22.5t-22.5 -9t-22.5 9t-9.5 22.5zM439 500v-500h-35v500h35zM96 500v-328q0 -69 40.5 -108t103.5 -39
q68 0 116 43.5t48 104.5h36q0 -74 -59 -129t-145 -55q-74 0 -124.5 50.5t-50.5 126.5v334h35z" />
    <glyph glyph-name="yacute" unicode="&#xfd;" horiz-adv-x="523" 
d="M381 727l-26 28l-163 -162l25 -25zM446 500l-185 -434l-184 434h-44l204 -479l-89 -221h44l298 700h-44z" />
    <glyph glyph-name="thorn" unicode="&#xfe;" horiz-adv-x="638" 
d="M61 -200v950h35v-950h-35zM96 251q0 -102 68 -167.5t165 -65.5t165 65.5t68 167.5t-68 167.5t-165 65.5t-165 -65.5t-68 -167.5zM66 251q0 117 75.5 193t185.5 76q113 0 191.5 -76t78.5 -193t-78.5 -193t-191.5 -76q-110 0 -185.5 76t-75.5 193z" />
    <glyph glyph-name="ydieresis" unicode="&#xff;" horiz-adv-x="523" 
d="M312 599.5q0 13.5 9.5 22.5t22.5 9t22.5 -9t9.5 -22.5t-9.5 -22.5t-22.5 -9t-22.5 9t-9.5 22.5zM142 599.5q0 13.5 9.5 22.5t22.5 9t22.5 -9t9.5 -22.5t-9.5 -22.5t-22.5 -9t-22.5 9t-9.5 22.5zM446 500l-185 -434l-184 434h-44l204 -479l-89 -221h44l298 700h-44z" />
    <glyph glyph-name="Amacron" unicode="&#x100;" horiz-adv-x="744" 
d="M518 824v-37h-284v37h284zM153 249h431v-35h-431v35zM71 0h-38l317 700h44l317 -700h-39l-301 661z" />
    <glyph glyph-name="amacron" unicode="&#x101;" horiz-adv-x="481" 
d="M376 615v-37h-284v37h284zM384 254l-172 -20q-67 -8 -101.5 -34t-34.5 -69q0 -47 38.5 -76t98.5 -29q79 0 125 48.5t46 130.5h36q0 -92 -60 -154t-148 -62q-74 0 -122.5 40.5t-48.5 105.5q0 56 43 91.5t121 43.5l179 20v34q0 60 -44.5 105t-110.5 45q-59 0 -102.5 -31
t-56.5 -81l-33 8q18 62 70 101.5t118 39.5q79 0 137 -52.5t58 -124.5v-334h-36v254z" />
    <glyph glyph-name="Abreve" unicode="&#x102;" horiz-adv-x="744" 
d="M371 789q-59 0 -101 39.5t-42 96.5h38q0 -43 30 -71.5t76 -28.5q47 0 79.5 29t32.5 71h38q0 -55 -45 -95.5t-106 -40.5zM153 249h431v-35h-431v35zM71 0h-38l317 700h44l317 -700h-39l-301 661z" />
    <glyph glyph-name="abreve" unicode="&#x103;" horiz-adv-x="481" 
d="M229 580q-59 0 -101 39.5t-42 96.5h38q0 -43 30 -71.5t76 -28.5q47 0 79.5 29t32.5 71h38q0 -55 -45 -95.5t-106 -40.5zM384 254l-172 -20q-67 -8 -101.5 -34t-34.5 -69q0 -47 38.5 -76t98.5 -29q79 0 125 48.5t46 130.5h36q0 -92 -60 -154t-148 -62q-74 0 -122.5 40.5
t-48.5 105.5q0 56 43 91.5t121 43.5l179 20v34q0 60 -44.5 105t-110.5 45q-59 0 -102.5 -31t-56.5 -81l-33 8q18 62 70 101.5t118 39.5q79 0 137 -52.5t58 -124.5v-334h-36v254z" />
    <glyph glyph-name="Aogonek" unicode="&#x104;" horiz-adv-x="744" 
d="M675 -17v17h30v-36l-51 -30q-32 -21 -32 -56q0 -24 15.5 -39t40.5 -15q42 0 51 44l29 -14q-8 -28 -30 -44.5t-53 -16.5q-38 0 -61.5 24.5t-23.5 62.5q0 58 64 90zM153 249h431v-35h-431v35zM71 0h-38l317 700h44l317 -700h-39l-301 661z" />
    <glyph glyph-name="aogonek" unicode="&#x105;" horiz-adv-x="481" 
d="M387 -17v17h30v-36l-51 -30q-32 -21 -32 -56q0 -24 15.5 -39t40.5 -15q42 0 51 44l29 -14q-8 -28 -30 -44.5t-53 -16.5q-38 0 -61.5 24.5t-23.5 62.5q0 58 64 90zM384 254l-172 -20q-67 -8 -101.5 -34t-34.5 -69q0 -47 38.5 -76t98.5 -29q79 0 125 48.5t46 130.5h36
q0 -92 -60 -154t-148 -62q-74 0 -122.5 40.5t-48.5 105.5q0 56 43 91.5t121 43.5l179 20v34q0 60 -44.5 105t-110.5 45q-59 0 -102.5 -31t-56.5 -81l-33 8q18 62 70 101.5t118 39.5q79 0 137 -52.5t58 -124.5v-334h-36v254z" />
    <glyph glyph-name="Cacute" unicode="&#x106;" horiz-adv-x="778" 
d="M515 936l-26 28l-163 -162l25 -25zM41 351q0 80 28.5 149t77 117t114 75.5t138.5 27.5q109 0 198 -56.5t135 -153.5l-29 -16q-42 89 -123.5 140t-179.5 51q-66 0 -125 -24.5t-103 -67.5t-70 -106t-26 -136t26 -136t70 -106t103 -67.5t125 -24.5q101 0 183.5 53.5
t123.5 145.5l30 -14q-44 -101 -135 -160.5t-203 -59.5q-73 0 -138.5 27.5t-114 75.5t-77 117t-28.5 149z" />
    <glyph glyph-name="cacute" unicode="&#x107;" horiz-adv-x="583" 
d="M426 727l-26 28l-163 -162l25 -25zM76 251q0 -102 66 -167.5t162 -65.5q67 0 121.5 33t81.5 91l33 -12q-32 -68 -95.5 -108t-140.5 -40q-110 0 -186.5 76t-76.5 193t76.5 193t186.5 76q79 0 142.5 -41t95.5 -112l-33 -12q-27 60 -82 94.5t-123 34.5q-96 0 -162 -65.5
t-66 -167.5z" />
    <glyph glyph-name="Ccircumflex" unicode="&#x108;" horiz-adv-x="778" 
d="M385 967l-150 -168l39 -21l120 137l120 -137l39 21l-150 168h-18zM41 351q0 80 28.5 149t77 117t114 75.5t138.5 27.5q109 0 198 -56.5t135 -153.5l-29 -16q-42 89 -123.5 140t-179.5 51q-66 0 -125 -24.5t-103 -67.5t-70 -106t-26 -136t26 -136t70 -106t103 -67.5
t125 -24.5q101 0 183.5 53.5t123.5 145.5l30 -14q-44 -101 -135 -160.5t-203 -59.5q-73 0 -138.5 27.5t-114 75.5t-77 117t-28.5 149z" />
    <glyph glyph-name="ccircumflex" unicode="&#x109;" horiz-adv-x="583" 
d="M296 758l-150 -168l39 -21l120 137l120 -137l39 21l-150 168h-18zM76 251q0 -102 66 -167.5t162 -65.5q67 0 121.5 33t81.5 91l33 -12q-32 -68 -95.5 -108t-140.5 -40q-110 0 -186.5 76t-76.5 193t76.5 193t186.5 76q79 0 142.5 -41t95.5 -112l-33 -12q-27 60 -82 94.5
t-123 34.5q-96 0 -162 -65.5t-66 -167.5z" />
    <glyph glyph-name="Cdotaccent" unicode="&#x10a;" horiz-adv-x="778" 
d="M363 808.5q0 13.5 9 22.5t22 9t22 -9t9 -22.5t-9 -22.5t-22 -9t-22 9t-9 22.5zM41 351q0 80 28.5 149t77 117t114 75.5t138.5 27.5q109 0 198 -56.5t135 -153.5l-29 -16q-42 89 -123.5 140t-179.5 51q-66 0 -125 -24.5t-103 -67.5t-70 -106t-26 -136t26 -136t70 -106
t103 -67.5t125 -24.5q101 0 183.5 53.5t123.5 145.5l30 -14q-44 -101 -135 -160.5t-203 -59.5q-73 0 -138.5 27.5t-114 75.5t-77 117t-28.5 149z" />
    <glyph glyph-name="cdotaccent" unicode="&#x10b;" horiz-adv-x="583" 
d="M274 599.5q0 13.5 9 22.5t22 9t22 -9t9 -22.5t-9 -22.5t-22 -9t-22 9t-9 22.5zM76 251q0 -102 66 -167.5t162 -65.5q67 0 121.5 33t81.5 91l33 -12q-32 -68 -95.5 -108t-140.5 -40q-110 0 -186.5 76t-76.5 193t76.5 193t186.5 76q79 0 142.5 -41t95.5 -112l-33 -12
q-27 60 -82 94.5t-123 34.5q-96 0 -162 -65.5t-66 -167.5z" />
    <glyph glyph-name="Ccaron" unicode="&#x10c;" horiz-adv-x="778" 
d="M403 778l150 167l-39 22l-120 -137l-120 137l-39 -22l150 -167h18zM41 351q0 80 28.5 149t77 117t114 75.5t138.5 27.5q109 0 198 -56.5t135 -153.5l-29 -16q-42 89 -123.5 140t-179.5 51q-66 0 -125 -24.5t-103 -67.5t-70 -106t-26 -136t26 -136t70 -106t103 -67.5
t125 -24.5q101 0 183.5 53.5t123.5 145.5l30 -14q-44 -101 -135 -160.5t-203 -59.5q-73 0 -138.5 27.5t-114 75.5t-77 117t-28.5 149z" />
    <glyph glyph-name="ccaron" unicode="&#x10d;" horiz-adv-x="583" 
d="M314 569l150 167l-39 22l-120 -137l-120 137l-39 -22l150 -167h18zM76 251q0 -102 66 -167.5t162 -65.5q67 0 121.5 33t81.5 91l33 -12q-32 -68 -95.5 -108t-140.5 -40q-110 0 -186.5 76t-76.5 193t76.5 193t186.5 76q79 0 142.5 -41t95.5 -112l-33 -12q-27 60 -82 94.5
t-123 34.5q-96 0 -162 -65.5t-66 -167.5z" />
    <glyph glyph-name="Dcaron" unicode="&#x10e;" horiz-adv-x="697" 
d="M343 778l150 167l-39 22l-120 -137l-120 137l-39 -22l150 -167h18zM305 0h-244v700h244q96 0 176 -44t127.5 -124.5t47.5 -180.5q0 -101 -47.5 -181.5t-127.5 -125t-176 -44.5zM295 667h-199v-634h199q89 0 163 39.5t118 113t44 165.5t-44 164.5t-118 112t-163 39.5z" />
    <glyph glyph-name="dcaron" unicode="&#x10f;" horiz-adv-x="718" 
d="M681 795l37 -9l-58 -217l-33 7zM577 0h-35v750h35v-750zM542 251q0 102 -68 167.5t-165 65.5t-165 -65.5t-68 -167.5t68 -167.5t165 -65.5t165 65.5t68 167.5zM572 251q0 -117 -75.5 -193t-185.5 -76q-113 0 -191.5 76t-78.5 193t78.5 193t191.5 76q110 0 185.5 -76
t75.5 -193z" />
    <glyph glyph-name="Dcroat" unicode="&#x110;" horiz-adv-x="696" 
d="M341 376v-35h-341v35h341zM304 0h-222v700h222q96 0 176 -44t127 -124.5t47 -180.5q0 -101 -47 -181.5t-127 -125t-176 -44.5zM294 667h-176v-634h176q89 0 163 39.5t118 113t44 165.5t-44 164.5t-118 112t-163 39.5z" />
    <glyph glyph-name="dcroat" unicode="&#x111;" horiz-adv-x="668" 
d="M572 251q0 -117 -75.5 -193t-185.5 -76q-113 0 -191.5 76t-78.5 193t78.5 193t191.5 76q110 0 185.5 -76t75.5 -193zM542 251q0 102 -68 167.5t-165 65.5t-165 -65.5t-68 -167.5t68 -167.5t165 -65.5t165 65.5t68 167.5zM577 0h-35v624h-250v34h250v92h35v-92h91v-34h-91
v-624z" />
    <glyph glyph-name="Emacron" unicode="&#x112;" horiz-adv-x="545" 
d="M427 824v-37h-284v37h284zM96 368h384v-34h-384v-301h408v-33h-443v700h443v-33h-408v-299z" />
    <glyph glyph-name="emacron" unicode="&#x113;" horiz-adv-x="599" 
d="M449 615v-37h-284v37h284zM523 268q-5 95 -69 155t-155 60q-88 0 -151.5 -60t-71.5 -155h447zM76 234q8 -94 73 -154.5t156 -60.5q68 0 123 34t83 93l32 -14q-32 -69 -96 -109.5t-142 -40.5q-110 0 -187 76t-77 193t75.5 193t183.5 76t183 -72.5t75 -184.5
q0 -5 -0.5 -9.5t-0.5 -10v-9.5h-481z" />
    <glyph glyph-name="Ebreve" unicode="&#x114;" horiz-adv-x="545" 
d="M280 789q-59 0 -101 39.5t-42 96.5h38q0 -43 30 -71.5t76 -28.5q47 0 79.5 29t32.5 71h38q0 -55 -45 -95.5t-106 -40.5zM96 368h384v-34h-384v-301h408v-33h-443v700h443v-33h-408v-299z" />
    <glyph glyph-name="ebreve" unicode="&#x115;" horiz-adv-x="599" 
d="M302 580q-59 0 -101 39.5t-42 96.5h38q0 -43 30 -71.5t76 -28.5q47 0 79.5 29t32.5 71h38q0 -55 -45 -95.5t-106 -40.5zM523 268q-5 95 -69 155t-155 60q-88 0 -151.5 -60t-71.5 -155h447zM76 234q8 -94 73 -154.5t156 -60.5q68 0 123 34t83 93l32 -14
q-32 -69 -96 -109.5t-142 -40.5q-110 0 -187 76t-77 193t75.5 193t183.5 76t183 -72.5t75 -184.5q0 -5 -0.5 -9.5t-0.5 -10v-9.5h-481z" />
    <glyph glyph-name="Edotaccent" unicode="&#x116;" horiz-adv-x="545" 
d="M250 808.5q0 13.5 9 22.5t22 9t22 -9t9 -22.5t-9 -22.5t-22 -9t-22 9t-9 22.5zM96 368h384v-34h-384v-301h408v-33h-443v700h443v-33h-408v-299z" />
    <glyph glyph-name="edotaccent" unicode="&#x117;" horiz-adv-x="599" 
d="M272 599.5q0 13.5 9 22.5t22 9t22 -9t9 -22.5t-9 -22.5t-22 -9t-22 9t-9 22.5zM523 268q-5 95 -69 155t-155 60q-88 0 -151.5 -60t-71.5 -155h447zM76 234q8 -94 73 -154.5t156 -60.5q68 0 123 34t83 93l32 -14q-32 -69 -96 -109.5t-142 -40.5q-110 0 -187 76t-77 193
t75.5 193t183.5 76t183 -72.5t75 -184.5q0 -5 -0.5 -9.5t-0.5 -10v-9.5h-481z" />
    <glyph glyph-name="Eogonek" unicode="&#x118;" horiz-adv-x="545" 
d="M449 -17v17h30v-36l-51 -30q-32 -21 -32 -56q0 -24 15.5 -39t40.5 -15q42 0 51 44l29 -14q-8 -28 -30 -44.5t-53 -16.5q-38 0 -61.5 24.5t-23.5 62.5q0 58 64 90zM96 368h384v-34h-384v-301h408v-33h-443v700h443v-33h-408v-299z" />
    <glyph glyph-name="eogonek" unicode="&#x119;" horiz-adv-x="599" 
d="M289 -17v17h30v-36l-51 -30q-32 -21 -32 -56q0 -24 15.5 -39t40.5 -15q42 0 51 44l29 -14q-8 -28 -30 -44.5t-53 -16.5q-38 0 -61.5 24.5t-23.5 62.5q0 58 64 90zM523 268q-5 95 -69 155t-155 60q-88 0 -151.5 -60t-71.5 -155h447zM76 234q8 -94 73 -154.5t156 -60.5
q68 0 123 34t83 93l32 -14q-32 -69 -96 -109.5t-142 -40.5q-110 0 -187 76t-77 193t75.5 193t183.5 76t183 -72.5t75 -184.5q0 -5 -0.5 -9.5t-0.5 -10v-9.5h-481z" />
    <glyph glyph-name="Ecaron" unicode="&#x11a;" horiz-adv-x="545" 
d="M290 778l150 167l-39 22l-120 -137l-120 137l-39 -22l150 -167h18zM96 368h384v-34h-384v-301h408v-33h-443v700h443v-33h-408v-299z" />
    <glyph glyph-name="ecaron" unicode="&#x11b;" horiz-adv-x="599" 
d="M312 569l150 167l-39 22l-120 -137l-120 137l-39 -22l150 -167h18zM523 268q-5 95 -69 155t-155 60q-88 0 -151.5 -60t-71.5 -155h447zM76 234q8 -94 73 -154.5t156 -60.5q68 0 123 34t83 93l32 -14q-32 -69 -96 -109.5t-142 -40.5q-110 0 -187 76t-77 193t75.5 193
t183.5 76t183 -72.5t75 -184.5q0 -5 -0.5 -9.5t-0.5 -10v-9.5h-481z" />
    <glyph glyph-name="Gcircumflex" unicode="&#x11c;" horiz-adv-x="788" 
d="M385 967l-150 -168l39 -21l120 137l120 -137l39 21l-150 168h-18zM76 351q0 -73 25.5 -135.5t68.5 -106t101 -68t123 -24.5q131 0 223.5 86t96.5 222h-334v36h366q1 -8 1 -24q0 -101 -47.5 -182.5t-128.5 -127t-177 -45.5q-72 0 -137 27.5t-112.5 75.5t-75.5 117.5
t-28 148.5t28 148.5t75.5 117.5t112.5 75.5t137 27.5q103 0 188 -58t128 -158l-32 -12q-39 89 -115 141t-169 52q-65 0 -123 -24.5t-101 -68t-68.5 -106t-25.5 -135.5z" />
    <glyph glyph-name="gcircumflex" unicode="&#x11d;" horiz-adv-x="598" 
d="M279 758l-150 -168l39 -21l120 137l120 -137l39 21l-150 168h-18zM531 268.5q0 -108.5 -70 -179t-171 -70.5q-104 0 -176.5 70.5t-72.5 179t72.5 179t176.5 70.5q101 0 171 -70.5t70 -179zM502 269q0 94 -62 154t-151 60t-151 -60t-62 -154t62 -154t151 -60t151 60
t62 154zM502 -25v525h35v-525q0 -88 -71 -146t-172 -58q-78 0 -142 45t-95 121l33 9q27 -65 82 -103t124 -38q86 0 146 48t60 122z" />
    <glyph glyph-name="Gbreve" unicode="&#x11e;" horiz-adv-x="788" 
d="M393 789q-59 0 -101 39.5t-42 96.5h38q0 -43 30 -71.5t76 -28.5q47 0 79.5 29t32.5 71h38q0 -55 -45 -95.5t-106 -40.5zM76 351q0 -73 25.5 -135.5t68.5 -106t101 -68t123 -24.5q131 0 223.5 86t96.5 222h-334v36h366q1 -8 1 -24q0 -101 -47.5 -182.5t-128.5 -127
t-177 -45.5q-72 0 -137 27.5t-112.5 75.5t-75.5 117.5t-28 148.5t28 148.5t75.5 117.5t112.5 75.5t137 27.5q103 0 188 -58t128 -158l-32 -12q-39 89 -115 141t-169 52q-65 0 -123 -24.5t-101 -68t-68.5 -106t-25.5 -135.5z" />
    <glyph glyph-name="gbreve" unicode="&#x11f;" horiz-adv-x="598" 
d="M287 580q-59 0 -101 39.5t-42 96.5h38q0 -43 30 -71.5t76 -28.5q47 0 79.5 29t32.5 71h38q0 -55 -45 -95.5t-106 -40.5zM531 268.5q0 -108.5 -70 -179t-171 -70.5q-104 0 -176.5 70.5t-72.5 179t72.5 179t176.5 70.5q101 0 171 -70.5t70 -179zM502 269q0 94 -62 154
t-151 60t-151 -60t-62 -154t62 -154t151 -60t151 60t62 154zM502 -25v525h35v-525q0 -88 -71 -146t-172 -58q-78 0 -142 45t-95 121l33 9q27 -65 82 -103t124 -38q86 0 146 48t60 122z" />
    <glyph glyph-name="Gdotaccent" unicode="&#x120;" horiz-adv-x="788" 
d="M363 808.5q0 13.5 9 22.5t22 9t22 -9t9 -22.5t-9 -22.5t-22 -9t-22 9t-9 22.5zM76 351q0 -73 25.5 -135.5t68.5 -106t101 -68t123 -24.5q131 0 223.5 86t96.5 222h-334v36h366q1 -8 1 -24q0 -101 -47.5 -182.5t-128.5 -127t-177 -45.5q-72 0 -137 27.5t-112.5 75.5
t-75.5 117.5t-28 148.5t28 148.5t75.5 117.5t112.5 75.5t137 27.5q103 0 188 -58t128 -158l-32 -12q-39 89 -115 141t-169 52q-65 0 -123 -24.5t-101 -68t-68.5 -106t-25.5 -135.5z" />
    <glyph glyph-name="gdotaccent" unicode="&#x121;" horiz-adv-x="598" 
d="M257 599.5q0 13.5 9 22.5t22 9t22 -9t9 -22.5t-9 -22.5t-22 -9t-22 9t-9 22.5zM531 268.5q0 -108.5 -70 -179t-171 -70.5q-104 0 -176.5 70.5t-72.5 179t72.5 179t176.5 70.5q101 0 171 -70.5t70 -179zM502 269q0 94 -62 154t-151 60t-151 -60t-62 -154t62 -154t151 -60
t151 60t62 154zM502 -25v525h35v-525q0 -88 -71 -146t-172 -58q-78 0 -142 45t-95 121l33 9q27 -65 82 -103t124 -38q86 0 146 48t60 122z" />
    <glyph glyph-name="uni0122" unicode="&#x122;" horiz-adv-x="788" 
d="M427 -171q0 -18 -12.5 -31t-31 -13t-32 12.5t-13.5 30.5q0 17 10 29l67 96l28 -21l-44 -62q28 -12 28 -41zM76 351q0 -73 25.5 -135.5t68.5 -106t101 -68t123 -24.5q131 0 223.5 86t96.5 222h-334v36h366q1 -8 1 -24q0 -101 -47.5 -182.5t-128.5 -127t-177 -45.5
q-72 0 -137 27.5t-112.5 75.5t-75.5 117.5t-28 148.5t28 148.5t75.5 117.5t112.5 75.5t137 27.5q103 0 188 -58t128 -158l-32 -12q-39 89 -115 141t-169 52q-65 0 -123 -24.5t-101 -68t-68.5 -106t-25.5 -135.5z" />
    <glyph glyph-name="uni0123" unicode="&#x123;" horiz-adv-x="598" 
d="M330 612q0 -17 -12 -30.5t-31 -13.5t-32 12.5t-13 30.5t9 29l67 96l28 -20l-44 -62q28 -12 28 -42zM531 268.5q0 -108.5 -70 -179t-171 -70.5q-104 0 -176.5 70.5t-72.5 179t72.5 179t176.5 70.5q101 0 171 -70.5t70 -179zM502 269q0 94 -62 154t-151 60t-151 -60
t-62 -154t62 -154t151 -60t151 60t62 154zM502 -25v525h35v-525q0 -88 -71 -146t-172 -58q-78 0 -142 45t-95 121l33 9q27 -65 82 -103t124 -38q86 0 146 48t60 122z" />
    <glyph glyph-name="Hcircumflex" unicode="&#x124;" horiz-adv-x="678" 
d="M331 967l-150 -168l39 -21l120 137l120 -137l39 21l-150 168h-18zM61 0v700h35v-332h485v332h35v-700h-35v334h-485v-334h-35z" />
    <glyph glyph-name="hcircumflex" unicode="&#x125;" horiz-adv-x="521" 
d="M69 990l-150 -168l39 -21l120 137l120 -137l39 21l-150 168h-18zM61 0v750h35v-750h-35zM424 0v307q0 78 -43 123t-111 45q-72 0 -123 -49.5t-51 -118.5h-35q0 81 62 142.5t151 61.5q78 0 131.5 -56.5t53.5 -141.5v-313h-35z" />
    <glyph glyph-name="Hbar" unicode="&#x126;" horiz-adv-x="678" 
d="M678 537v-35h-62v-502h-35v336h-485v-336h-35v502h-61v35h61v163h35v-163h485v163h35v-163h62zM96 502v-133h485v133h-485z" />
    <glyph glyph-name="hbar" unicode="&#x127;" horiz-adv-x="520" 
d="M60 0v625h-60v34h60v91h35v-91h282v-34h-282v-625h-35zM423 0v307q0 78 -43 123t-111 45q-72 0 -123 -49.5t-51 -118.5h-35q0 81 62 142.5t151 61.5q78 0 131.5 -56.5t53.5 -141.5v-313h-35z" />
    <glyph glyph-name="Itilde" unicode="&#x128;" 
d="M5 906q-30 0 -55 -28t-38 -77l37 -18q7 38 21.5 60t32.5 22q15 0 27.5 -8.5t34.5 -34.5q23 -25 42 -35t44 -10q32 0 57.5 28t37.5 77l-37 18q-7 -37 -23 -58t-36 -21q-16 0 -28 8t-34 34q-23 24 -41 33.5t-42 9.5zM96 0h-35v700h35v-700z" />
    <glyph glyph-name="itilde" unicode="&#x129;" 
d="M5 697q-30 0 -55 -28t-38 -77l37 -18q7 38 21.5 60t32.5 22q15 0 27.5 -8.5t34.5 -34.5q23 -25 42 -35t44 -10q32 0 57.5 28t37.5 77l-37 18q-7 -37 -23 -58t-36 -21q-16 0 -28 8t-34 34q-23 24 -41 33.5t-42 9.5zM61 0v500h35v-500h-35z" />
    <glyph glyph-name="Imacron" unicode="&#x12a;" 
d="M225 824v-37h-284v37h284zM96 0h-35v700h35v-700z" />
    <glyph glyph-name="imacron" unicode="&#x12b;" 
d="M225 615v-37h-284v37h284zM61 0v500h35v-500h-35z" />
    <glyph glyph-name="Ibreve" unicode="&#x12c;" 
d="M78 789q-59 0 -101 39.5t-42 96.5h38q0 -43 30 -71.5t76 -28.5q47 0 79.5 29t32.5 71h38q0 -55 -45 -95.5t-106 -40.5zM96 0h-35v700h35v-700z" />
    <glyph glyph-name="ibreve" unicode="&#x12d;" 
d="M78 580q-59 0 -101 39.5t-42 96.5h38q0 -43 30 -71.5t76 -28.5q47 0 79.5 29t32.5 71h38q0 -55 -45 -95.5t-106 -40.5zM61 0v500h35v-500h-35z" />
    <glyph glyph-name="Iogonek" unicode="&#x12e;" 
d="M63 -17v17h30v-36l-51 -30q-32 -21 -32 -56q0 -24 15.5 -39t40.5 -15q42 0 51 44l29 -14q-8 -28 -30 -44.5t-53 -16.5q-38 0 -61.5 24.5t-23.5 62.5q0 58 64 90zM96 0h-35v700h35v-700z" />
    <glyph glyph-name="iogonek" unicode="&#x12f;" horiz-adv-x="159" 
d="M63 -17v17h30v-36l-51 -30q-32 -21 -32 -56q0 -24 15.5 -39t40.5 -15q42 0 51 44l29 -14q-8 -28 -30 -44.5t-53 -16.5q-38 0 -61.5 24.5t-23.5 62.5q0 58 64 90zM48 628.5q0 13.5 9 22.5t22.5 9t22.5 -9t9 -22.5t-9 -22.5t-22.5 -9t-22.5 9t-9 22.5zM62 0v500h35v-500
h-35z" />
    <glyph glyph-name="Idotaccent" unicode="&#x130;" 
d="M48 808.5q0 13.5 9 22.5t22 9t22 -9t9 -22.5t-9 -22.5t-22 -9t-22 9t-9 22.5zM96 0h-35v700h35v-700z" />
    <glyph glyph-name="dotlessi" unicode="&#x131;" 
d="M61 0v500h35v-500h-35z" />
    <glyph glyph-name="IJ" unicode="&#x132;" horiz-adv-x="724" 
d="M199 144l31 11q23 -64 72.5 -97.5t121.5 -33.5q90 0 147 54.5t57 151.5v470h35v-480q0 -100 -69 -165.5t-170 -65.5q-82 0 -141.5 41t-83.5 114zM96 0h-35v700h35v-700z" />
    <glyph glyph-name="ij" unicode="&#x133;" horiz-adv-x="317" 
d="M206 628.5q0 13.5 9 22.5t22.5 9t22.5 -9t9 -22.5t-9 -22.5t-22.5 -9t-22.5 9t-9 22.5zM140 -130q39 0 59.5 25t20.5 63v542h35v-552q0 -45 -30 -77.5t-77 -32.5h-25v32h17zM48 628.5q0 13.5 9 22.5t22.5 9t22.5 -9t9 -22.5t-9 -22.5t-22.5 -9t-22.5 9t-9 22.5zM62 0v500
h35v-500h-35z" />
    <glyph glyph-name="Jcircumflex" unicode="&#x134;" horiz-adv-x="567" 
d="M475 967l-150 -168l39 -21l120 137l120 -137l39 21l-150 168h-18zM41 144l31 11q23 -64 72.5 -97.5t121.5 -33.5q90 0 147 54.5t57 151.5v470h35v-480q0 -100 -69 -165.5t-170 -65.5q-82 0 -141.5 41t-83.5 114z" />
    <glyph glyph-name="jcircumflex" unicode="&#x135;" horiz-adv-x="159" 
d="M70 758l-150 -168l39 -21l120 137l120 -137l39 21l-150 168h-18zM-18 -130q39 0 59.5 25t20.5 63v542h35v-552q0 -45 -30 -77.5t-77 -32.5h-25v32h17z" />
    <glyph glyph-name="uni0136" unicode="&#x136;" horiz-adv-x="571" 
d="M337 -171q0 -18 -12.5 -31t-31 -13t-32 12.5t-13.5 30.5q0 17 10 29l67 96l28 -21l-44 -62q28 -12 28 -41zM61 0v700h35v-335h38l351 335h53l-370 -352l370 -348h-53l-351 327h-38v-327h-35z" />
    <glyph glyph-name="uni0137" unicode="&#x137;" horiz-adv-x="446" 
d="M270 -171q0 -18 -12.5 -31t-31 -13t-32 12.5t-13.5 30.5q0 17 10 29l67 96l28 -21l-44 -62q28 -12 28 -41zM61 0v750h35v-482h27l241 232h48l-256 -250l256 -250h-48l-241 230h-27v-230h-35z" />
    <glyph glyph-name="kgreenlandic" unicode="&#x138;" horiz-adv-x="446" 
d="M61 0v500h35v-232h27l241 232h48l-256 -250l256 -250h-48l-241 230h-27v-230h-35z" />
    <glyph glyph-name="Lacute" unicode="&#x139;" horiz-adv-x="535" 
d="M200 936l-26 28l-163 -162l25 -25zM96 33h408v-33h-443v700h35v-667z" />
    <glyph glyph-name="lacute" unicode="&#x13a;" 
d="M199 959l-26 28l-163 -162l25 -25zM61 0v750h35v-750h-35z" />
    <glyph glyph-name="uni013B" unicode="&#x13b;" horiz-adv-x="535" 
d="M326 -171q0 -18 -12.5 -31t-31 -13t-32 12.5t-13.5 30.5q0 17 10 29l67 96l28 -21l-44 -62q28 -12 28 -41zM96 33h408v-33h-443v700h35v-667z" />
    <glyph glyph-name="uni013C" unicode="&#x13c;" 
d="M112 -171q0 -18 -12.5 -31t-31 -13t-32 12.5t-13.5 30.5q0 17 10 29l67 96l28 -21l-44 -62q28 -12 28 -41zM61 0v750h35v-750h-35z" />
    <glyph glyph-name="Lcaron" unicode="&#x13d;" horiz-adv-x="535" 
d="M289 717l37 -9l-58 -217l-33 7zM96 33h408v-33h-443v700h35v-667z" />
    <glyph glyph-name="lcaron" unicode="&#x13e;" horiz-adv-x="251" 
d="M198 795l37 -9l-58 -217l-33 7zM61 0v750h35v-750h-35z" />
    <glyph glyph-name="Ldot" unicode="&#x13f;" horiz-adv-x="535" 
d="M237 360q0 13 9 21.5t22 8.5q12 0 20.5 -8.5t8.5 -21.5t-8.5 -21.5t-21 -8.5t-21.5 8.5t-9 21.5zM96 33h408v-33h-443v700h35v-667z" />
    <glyph glyph-name="ldot" unicode="&#x140;" horiz-adv-x="314" 
d="M206 360q0 13 9 21.5t22 8.5q12 0 20.5 -8.5t8.5 -21.5t-8.5 -21.5t-21 -8.5t-21.5 8.5t-9 21.5zM61 0v750h35v-750h-35z" />
    <glyph glyph-name="Lslash" unicode="&#x141;" horiz-adv-x="546" 
d="M290 399l8 -34l-279 -55l-7 34zM108 33h407v-33h-443v700h36v-667z" />
    <glyph glyph-name="lslash" unicode="&#x142;" horiz-adv-x="170" 
d="M151 415l7 -33l-140 -30l-7 34zM68 0v750h34v-750h-34z" />
    <glyph glyph-name="Nacute" unicode="&#x143;" horiz-adv-x="678" 
d="M465 936l-26 28l-163 -162l25 -25zM61 0v700h47l473 -652v652h35v-700h-46l-474 663v-663h-35z" />
    <glyph glyph-name="nacute" unicode="&#x144;" horiz-adv-x="521" 
d="M380 727l-26 28l-163 -162l25 -25zM61 0v500h35v-500h-35zM424 0v307q0 78 -43 123t-111 45q-72 0 -123 -49.5t-51 -118.5h-35q0 81 62 142.5t151 61.5q78 0 131.5 -56.5t53.5 -141.5v-313h-35z" />
    <glyph glyph-name="uni0145" unicode="&#x145;" horiz-adv-x="678" 
d="M386 -171q0 -18 -12.5 -31t-31 -13t-32 12.5t-13.5 30.5q0 17 10 29l67 96l28 -21l-44 -62q28 -12 28 -41zM61 0v700h47l473 -652v652h35v-700h-46l-474 663v-663h-35z" />
    <glyph glyph-name="uni0146" unicode="&#x146;" horiz-adv-x="521" 
d="M303 -171q0 -18 -12.5 -31t-31 -13t-32 12.5t-13.5 30.5q0 17 10 29l67 96l28 -21l-44 -62q28 -12 28 -41zM61 0v500h35v-500h-35zM424 0v307q0 78 -43 123t-111 45q-72 0 -123 -49.5t-51 -118.5h-35q0 81 62 142.5t151 61.5q78 0 131.5 -56.5t53.5 -141.5v-313h-35z" />
    <glyph glyph-name="Ncaron" unicode="&#x147;" horiz-adv-x="678" 
d="M353 778l150 167l-39 22l-120 -137l-120 137l-39 -22l150 -167h18zM61 0v700h47l473 -652v652h35v-700h-46l-474 663v-663h-35z" />
    <glyph glyph-name="ncaron" unicode="&#x148;" horiz-adv-x="521" 
d="M268 569l150 167l-39 22l-120 -137l-120 137l-39 -22l150 -167h18zM61 0v500h35v-500h-35zM424 0v307q0 78 -43 123t-111 45q-72 0 -123 -49.5t-51 -118.5h-35q0 81 62 142.5t151 61.5q78 0 131.5 -56.5t53.5 -141.5v-313h-35z" />
    <glyph glyph-name="napostrophe" unicode="&#x149;" horiz-adv-x="646" 
d="M186 0v500h35v-500h-35zM549 0v307q0 78 -43 123t-111 45q-72 0 -123 -49.5t-51 -118.5h-35q0 81 62 142.5t151 61.5q78 0 131.5 -56.5t53.5 -141.5v-313h-35zM88 746l37 -9l-59 -217l-32 7z" />
    <glyph glyph-name="Eng" unicode="&#x14a;" horiz-adv-x="646" 
d="M61 0v700h35v-700h-35zM390 -122q77 0 118 47.5t41 121.5v399q0 107 -60.5 168.5t-156.5 61.5q-98 0 -167 -67.5t-69 -162.5h-35q0 107 79.5 186t195.5 79q104 0 176 -73t72 -185v-420q0 -77 -51 -132.5t-133 -55.5l-80 1v32h70z" />
    <glyph glyph-name="eng" unicode="&#x14b;" horiz-adv-x="521" 
d="M61 0v500h35v-500h-35zM424 -4v311q0 78 -43 123t-111 45q-72 0 -123 -49.5t-51 -118.5h-35q0 82 61.5 143t151.5 61q78 0 131.5 -56.5t53.5 -142.5v-328q0 -55 -36 -95t-94 -40h-82v34h73q51 0 77.5 32t26.5 81z" />
    <glyph glyph-name="Omacron" unicode="&#x14c;" horiz-adv-x="788" 
d="M540 824v-37h-284v37h284zM76 353q0 -73 25.5 -136.5t68.5 -107t101 -68t123 -24.5t123 24.5t101 68t68.5 107t25.5 136.5q0 72 -25.5 134.5t-68.5 105.5t-101 67.5t-123 24.5t-123 -24.5t-101 -67.5t-68.5 -105.5t-25.5 -134.5zM41 353q0 79 28 148t75.5 116.5t112.5 75
t137 27.5t137 -27.5t112.5 -75t75.5 -116.5t28 -148q0 -80 -28 -149.5t-75.5 -118t-112.5 -76t-137 -27.5t-137 27.5t-112.5 76t-75.5 118t-28 149.5z" />
    <glyph glyph-name="omacron" unicode="&#x14d;" horiz-adv-x="618" 
d="M454 615v-37h-284v37h284zM76 251q0 -102 67.5 -167.5t165.5 -65.5t165.5 65.5t67.5 167.5t-67.5 167.5t-165.5 65.5t-165.5 -65.5t-67.5 -167.5zM41 251q0 117 78 193t190 76t190 -76t78 -193t-78 -193t-190 -76t-190 76t-78 193z" />
    <glyph glyph-name="Obreve" unicode="&#x14e;" horiz-adv-x="788" 
d="M393 789q-59 0 -101 39.5t-42 96.5h38q0 -43 30 -71.5t76 -28.5q47 0 79.5 29t32.5 71h38q0 -55 -45 -95.5t-106 -40.5zM76 353q0 -73 25.5 -136.5t68.5 -107t101 -68t123 -24.5t123 24.5t101 68t68.5 107t25.5 136.5q0 72 -25.5 134.5t-68.5 105.5t-101 67.5t-123 24.5
t-123 -24.5t-101 -67.5t-68.5 -105.5t-25.5 -134.5zM41 353q0 79 28 148t75.5 116.5t112.5 75t137 27.5t137 -27.5t112.5 -75t75.5 -116.5t28 -148q0 -80 -28 -149.5t-75.5 -118t-112.5 -76t-137 -27.5t-137 27.5t-112.5 76t-75.5 118t-28 149.5z" />
    <glyph glyph-name="obreve" unicode="&#x14f;" horiz-adv-x="618" 
d="M307 580q-59 0 -101 39.5t-42 96.5h38q0 -43 30 -71.5t76 -28.5q47 0 79.5 29t32.5 71h38q0 -55 -45 -95.5t-106 -40.5zM76 251q0 -102 67.5 -167.5t165.5 -65.5t165.5 65.5t67.5 167.5t-67.5 167.5t-165.5 65.5t-165.5 -65.5t-67.5 -167.5zM41 251q0 117 78 193t190 76
t190 -76t78 -193t-78 -193t-190 -76t-190 76t-78 193z" />
    <glyph glyph-name="Ohungarumlaut" unicode="&#x150;" horiz-adv-x="788" 
d="M571 938l-31 29l-161 -162l29 -28zM424 938l-32 29l-161 -162l29 -28zM76 353q0 -73 25.5 -136.5t68.5 -107t101 -68t123 -24.5t123 24.5t101 68t68.5 107t25.5 136.5q0 72 -25.5 134.5t-68.5 105.5t-101 67.5t-123 24.5t-123 -24.5t-101 -67.5t-68.5 -105.5
t-25.5 -134.5zM41 353q0 79 28 148t75.5 116.5t112.5 75t137 27.5t137 -27.5t112.5 -75t75.5 -116.5t28 -148q0 -80 -28 -149.5t-75.5 -118t-112.5 -76t-137 -27.5t-137 27.5t-112.5 76t-75.5 118t-28 149.5z" />
    <glyph glyph-name="ohungarumlaut" unicode="&#x151;" horiz-adv-x="618" 
d="M485 729l-31 29l-161 -162l29 -28zM338 729l-32 29l-161 -162l29 -28zM76 251q0 -102 67.5 -167.5t165.5 -65.5t165.5 65.5t67.5 167.5t-67.5 167.5t-165.5 65.5t-165.5 -65.5t-67.5 -167.5zM41 251q0 117 78 193t190 76t190 -76t78 -193t-78 -193t-190 -76t-190 76
t-78 193z" />
    <glyph glyph-name="OE" unicode="&#x152;" horiz-adv-x="1191" 
d="M747 368h378v-34h-378v-301h402v-33h-437v700h437v-33h-402v-299zM76 352q0 -143 91 -239t227 -96t227 96t91 239t-91 238t-227 95t-227 -95t-91 -238zM41 352q0 103 46 187.5t127 132.5t179 48q149 0 249 -105.5t100 -262.5q0 -158 -100 -264t-249 -106q-98 0 -179 48.5
t-127 133.5t-46 188z" />
    <glyph glyph-name="oe" unicode="&#x153;" horiz-adv-x="1097" 
d="M1021 268q-5 95 -68.5 155t-154.5 60q-88 0 -151 -59.5t-71 -155.5h445zM576 234q8 -95 72.5 -155t155.5 -60q67 0 122 34t83 93l32 -14q-32 -69 -96 -109.5t-143 -40.5q-111 0 -188.5 76t-77.5 193t76.5 193t184.5 76t183 -72.5t75 -184.5q0 -5 -0.5 -15.5t-0.5 -13.5
h-478zM76 251q0 -102 68 -167.5t165 -65.5t165 65.5t68 167.5t-68 167.5t-165 65.5t-165 -65.5t-68 -167.5zM41 251q0 117 78.5 193t191.5 76q108 0 183.5 -76t75.5 -193t-75.5 -193t-183.5 -76q-113 0 -191.5 76t-78.5 193z" />
    <glyph glyph-name="Racute" unicode="&#x154;" horiz-adv-x="626" 
d="M424 936l-26 28l-163 -162l25 -25zM360 667h-264v-357h264q81 0 135.5 52t54.5 129q0 75 -54 125.5t-136 50.5zM346 274l238 -274h-48l-239 277h-201v-277h-35v700h309q91 0 152.5 -60t61.5 -149q0 -93 -66.5 -155t-171.5 -62z" />
    <glyph glyph-name="racute" unicode="&#x155;" horiz-adv-x="312" 
d="M309 727l-26 28l-163 -162l25 -25zM61 0v500h35v-500h-35zM269 473q-71 0 -122 -44.5t-51 -106.5h-35q0 66 58.5 126t138.5 60h28v-35h-17z" />
    <glyph glyph-name="uni0156" unicode="&#x156;" horiz-adv-x="626" 
d="M347 -171q0 -18 -12.5 -31t-31 -13t-32 12.5t-13.5 30.5q0 17 10 29l67 96l28 -21l-44 -62q28 -12 28 -41zM360 667h-264v-357h264q81 0 135.5 52t54.5 129q0 75 -54 125.5t-136 50.5zM346 274l238 -274h-48l-239 277h-201v-277h-35v700h309q91 0 152.5 -60t61.5 -149
q0 -93 -66.5 -155t-171.5 -62z" />
    <glyph glyph-name="uni0157" unicode="&#x157;" horiz-adv-x="312" 
d="M113 -171q0 -18 -12.5 -31t-31 -13t-32 12.5t-13.5 30.5q0 17 10 29l67 96l28 -21l-44 -62q28 -12 28 -41zM61 0v500h35v-500h-35zM269 473q-71 0 -122 -44.5t-51 -106.5h-35q0 66 58.5 126t138.5 60h28v-35h-17z" />
    <glyph glyph-name="Rcaron" unicode="&#x158;" horiz-adv-x="626" 
d="M311 778l150 167l-39 22l-120 -137l-120 137l-39 -22l150 -167h18zM360 667h-264v-357h264q81 0 135.5 52t54.5 129q0 75 -54 125.5t-136 50.5zM346 274l238 -274h-48l-239 277h-201v-277h-35v700h309q91 0 152.5 -60t61.5 -149q0 -93 -66.5 -155t-171.5 -62z" />
    <glyph glyph-name="rcaron" unicode="&#x159;" horiz-adv-x="312" 
d="M197 569l150 167l-39 22l-120 -137l-120 137l-39 -22l150 -167h18zM61 0v500h35v-500h-35zM269 473q-71 0 -122 -44.5t-51 -106.5h-35q0 66 58.5 126t138.5 60h28v-35h-17z" />
    <glyph glyph-name="Sacute" unicode="&#x15a;" horiz-adv-x="572" 
d="M391 936l-26 28l-163 -162l25 -25zM293 333q-125 28 -183 75.5t-58 119.5q0 80 62 132.5t157 52.5q83 0 151 -47t98 -126l-28 -16q-29 71 -87.5 112t-132.5 41q-82 0 -134 -41.5t-52 -105.5q0 -59 49.5 -97t158.5 -62q236 -54 236 -194q0 -80 -65.5 -134t-162.5 -54
q-88 0 -159 50.5t-102 135.5l30 15q30 -77 90.5 -121t137.5 -44q84 0 140.5 43.5t56.5 109.5q0 57 -49 94.5t-154 60.5z" />
    <glyph glyph-name="sacute" unicode="&#x15b;" horiz-adv-x="472" 
d="M362 727l-26 28l-163 -162l25 -25zM236 237q-92 18 -136 51.5t-44 86.5q0 59 47.5 98.5t117.5 39.5q65 0 118 -39.5t77 -105.5l-32 -16q-21 57 -64.5 90t-98.5 33q-56 0 -93 -28t-37 -71q0 -37 33.5 -60.5t108.5 -38.5q197 -40 197 -148q0 -59 -53 -99.5t-125 -40.5
q-71 0 -128.5 36t-82.5 97l28 23q24 -54 72 -85t109 -31q63 -1 104 28t41 72q0 78 -159 108z" />
    <glyph glyph-name="Scircumflex" unicode="&#x15c;" horiz-adv-x="572" 
d="M261 967l-150 -168l39 -21l120 137l120 -137l39 21l-150 168h-18zM293 333q-125 28 -183 75.5t-58 119.5q0 80 62 132.5t157 52.5q83 0 151 -47t98 -126l-28 -16q-29 71 -87.5 112t-132.5 41q-82 0 -134 -41.5t-52 -105.5q0 -59 49.5 -97t158.5 -62q236 -54 236 -194
q0 -80 -65.5 -134t-162.5 -54q-88 0 -159 50.5t-102 135.5l30 15q30 -77 90.5 -121t137.5 -44q84 0 140.5 43.5t56.5 109.5q0 57 -49 94.5t-154 60.5z" />
    <glyph glyph-name="scircumflex" unicode="&#x15d;" horiz-adv-x="472" 
d="M232 758l-150 -168l39 -21l120 137l120 -137l39 21l-150 168h-18zM236 237q-92 18 -136 51.5t-44 86.5q0 59 47.5 98.5t117.5 39.5q65 0 118 -39.5t77 -105.5l-32 -16q-21 57 -64.5 90t-98.5 33q-56 0 -93 -28t-37 -71q0 -37 33.5 -60.5t108.5 -38.5q197 -40 197 -148
q0 -59 -53 -99.5t-125 -40.5q-71 0 -128.5 36t-82.5 97l28 23q24 -54 72 -85t109 -31q63 -1 104 28t41 72q0 78 -159 108z" />
    <glyph glyph-name="Scedilla" unicode="&#x15e;" horiz-adv-x="572" 
d="M319 -64q15 14 36 14q26 0 44 -22t18 -53q0 -34 -22 -55.5t-56 -21.5q-26 0 -46 13t-27 36l27 11q8 -32 44 -32q22 0 35.5 14t13.5 36q0 18 -9.5 29.5t-23.5 11.5q-20 0 -34 -21l-29 18v106h29v-84zM293 333q-125 28 -183 75.5t-58 119.5q0 80 62 132.5t157 52.5
q83 0 151 -47t98 -126l-28 -16q-29 71 -87.5 112t-132.5 41q-82 0 -134 -41.5t-52 -105.5q0 -59 49.5 -97t158.5 -62q236 -54 236 -194q0 -80 -65.5 -134t-162.5 -54q-88 0 -159 50.5t-102 135.5l30 15q30 -77 90.5 -121t137.5 -44q84 0 140.5 43.5t56.5 109.5
q0 57 -49 94.5t-154 60.5z" />
    <glyph glyph-name="scedilla" unicode="&#x15f;" horiz-adv-x="472" 
d="M269 -64q15 14 36 14q26 0 44 -22t18 -53q0 -34 -22 -55.5t-56 -21.5q-26 0 -46 13t-27 36l27 11q8 -32 44 -32q22 0 35.5 14t13.5 36q0 18 -9.5 29.5t-23.5 11.5q-20 0 -34 -21l-29 18v106h29v-84zM236 237q-92 18 -136 51.5t-44 86.5q0 59 47.5 98.5t117.5 39.5
q65 0 118 -39.5t77 -105.5l-32 -16q-21 57 -64.5 90t-98.5 33q-56 0 -93 -28t-37 -71q0 -37 33.5 -60.5t108.5 -38.5q197 -40 197 -148q0 -59 -53 -99.5t-125 -40.5q-71 0 -128.5 36t-82.5 97l28 23q24 -54 72 -85t109 -31q63 -1 104 28t41 72q0 78 -159 108z" />
    <glyph glyph-name="Scaron" unicode="&#x160;" horiz-adv-x="572" 
d="M279 778l150 167l-39 22l-120 -137l-120 137l-39 -22l150 -167h18zM293 333q-125 28 -183 75.5t-58 119.5q0 80 62 132.5t157 52.5q83 0 151 -47t98 -126l-28 -16q-29 71 -87.5 112t-132.5 41q-82 0 -134 -41.5t-52 -105.5q0 -59 49.5 -97t158.5 -62q236 -54 236 -194
q0 -80 -65.5 -134t-162.5 -54q-88 0 -159 50.5t-102 135.5l30 15q30 -77 90.5 -121t137.5 -44q84 0 140.5 43.5t56.5 109.5q0 57 -49 94.5t-154 60.5z" />
    <glyph glyph-name="scaron" unicode="&#x161;" horiz-adv-x="472" 
d="M250 569l150 167l-39 22l-120 -137l-120 137l-39 -22l150 -167h18zM236 237q-92 18 -136 51.5t-44 86.5q0 59 47.5 98.5t117.5 39.5q65 0 118 -39.5t77 -105.5l-32 -16q-21 57 -64.5 90t-98.5 33q-56 0 -93 -28t-37 -71q0 -37 33.5 -60.5t108.5 -38.5q197 -40 197 -148
q0 -59 -53 -99.5t-125 -40.5q-71 0 -128.5 36t-82.5 97l28 23q24 -54 72 -85t109 -31q63 -1 104 28t41 72q0 78 -159 108z" />
    <glyph glyph-name="uni0162" unicode="&#x162;" horiz-adv-x="587" 
d="M310 -64q15 14 36 14q26 0 44 -22t18 -53q0 -34 -22 -55.5t-56 -21.5q-26 0 -46 13t-27 36l27 11q8 -32 44 -32q22 0 35.5 14t13.5 36q0 18 -9.5 29.5t-23.5 11.5q-20 0 -34 -21l-29 18v106h29v-84zM556 700v-33h-245v-667h-35v667h-245v33h525z" />
    <glyph glyph-name="uni0163" unicode="&#x163;" horiz-adv-x="352" 
d="M239 -64q15 14 36 14q26 0 44 -22t18 -53q0 -34 -22 -55.5t-56 -21.5q-26 0 -46 13t-27 36l27 11q8 -32 44 -32q22 0 35.5 14t13.5 36q0 18 -9.5 29.5t-23.5 11.5q-20 0 -34 -21l-29 18v106h29v-84zM265 34h56v-34h-61q-61 0 -97 32t-36 86v349h-96v33h96v152l35 7v-159
h159v-33h-159v-342q0 -47 25 -69t78 -22z" />
    <glyph glyph-name="Tcaron" unicode="&#x164;" horiz-adv-x="587" 
d="M302 781l150 167l-39 22l-120 -137l-120 137l-39 -22l150 -167h18zM556 700v-33h-245v-667h-35v667h-245v33h525z" />
    <glyph glyph-name="tcaron" unicode="&#x165;" horiz-adv-x="352" 
d="M289 795l37 -9l-58 -217l-33 7zM265 34h56v-34h-61q-61 0 -97 32t-36 86v349h-96v33h96v152l35 7v-159h159v-33h-159v-342q0 -47 25 -69t78 -22z" />
    <glyph glyph-name="Tbar" unicode="&#x166;" horiz-adv-x="587" 
d="M456 380v-32h-334v32h334zM556 700v-33h-245v-667h-35v667h-245v33h525z" />
    <glyph glyph-name="tbar" unicode="&#x167;" horiz-adv-x="352" 
d="M317 296v-37h-287v37h287zM265 34h56v-34h-61q-61 0 -97 32t-36 87v345h-96v36h96v152l35 7v-159h159v-36h-159v-336q0 -48 25 -71t78 -23z" />
    <glyph glyph-name="Utilde" unicode="&#x168;" horiz-adv-x="690" 
d="M271 906q-30 0 -55 -28t-38 -77l37 -18q7 38 21.5 60t32.5 22q15 0 27.5 -8.5t34.5 -34.5q23 -25 42 -35t44 -10q32 0 57.5 28t37.5 77l-37 18q-7 -37 -23 -58t-36 -21q-16 0 -28 8t-34 34q-23 24 -41 33.5t-42 9.5zM345 -11q-121 0 -202.5 78t-81.5 197v436h35v-426
q0 -117 69.5 -183.5t179.5 -66.5t179.5 66.5t69.5 183.5v426h35v-436q0 -119 -81.5 -197t-202.5 -78z" />
    <glyph glyph-name="utilde" unicode="&#x169;" horiz-adv-x="501" 
d="M180 697q-30 0 -55 -28t-38 -77l37 -18q7 38 21.5 60t32.5 22q15 0 27.5 -8.5t34.5 -34.5q23 -25 42 -35t44 -10q32 0 57.5 28t37.5 77l-37 18q-7 -37 -23 -58t-36 -21q-16 0 -28 8t-34 34q-23 24 -41 33.5t-42 9.5zM439 500v-500h-35v500h35zM96 500v-328
q0 -69 40.5 -108t103.5 -39q68 0 116 43.5t48 104.5h36q0 -74 -59 -129t-145 -55q-74 0 -124.5 50.5t-50.5 126.5v334h35z" />
    <glyph glyph-name="Umacron" unicode="&#x16a;" horiz-adv-x="690" 
d="M491 824v-37h-284v37h284zM345 -11q-121 0 -202.5 78t-81.5 197v436h35v-426q0 -117 69.5 -183.5t179.5 -66.5t179.5 66.5t69.5 183.5v426h35v-436q0 -119 -81.5 -197t-202.5 -78z" />
    <glyph glyph-name="umacron" unicode="&#x16b;" horiz-adv-x="501" 
d="M400 615v-37h-284v37h284zM439 500v-500h-35v500h35zM96 500v-328q0 -69 40.5 -108t103.5 -39q68 0 116 43.5t48 104.5h36q0 -74 -59 -129t-145 -55q-74 0 -124.5 50.5t-50.5 126.5v334h35z" />
    <glyph glyph-name="Ubreve" unicode="&#x16c;" horiz-adv-x="690" 
d="M344 789q-59 0 -101 39.5t-42 96.5h38q0 -43 30 -71.5t76 -28.5q47 0 79.5 29t32.5 71h38q0 -55 -45 -95.5t-106 -40.5zM345 -11q-121 0 -202.5 78t-81.5 197v436h35v-426q0 -117 69.5 -183.5t179.5 -66.5t179.5 66.5t69.5 183.5v426h35v-436q0 -119 -81.5 -197
t-202.5 -78z" />
    <glyph glyph-name="ubreve" unicode="&#x16d;" horiz-adv-x="501" 
d="M253 580q-59 0 -101 39.5t-42 96.5h38q0 -43 30 -71.5t76 -28.5q47 0 79.5 29t32.5 71h38q0 -55 -45 -95.5t-106 -40.5zM439 500v-500h-35v500h35zM96 500v-328q0 -69 40.5 -108t103.5 -39q68 0 116 43.5t48 104.5h36q0 -74 -59 -129t-145 -55q-74 0 -124.5 50.5
t-50.5 126.5v334h35z" />
    <glyph glyph-name="Uring" unicode="&#x16e;" horiz-adv-x="690" 
d="M291 869q0 -23 16 -38t38 -15t38 15t16 38t-16 38.5t-38 15.5t-38 -15.5t-16 -38.5zM253 869q0 40 27 66t65 26t65 -26t27 -66t-27 -66t-65 -26t-65 26t-27 66zM345 -11q-121 0 -202.5 78t-81.5 197v436h35v-426q0 -117 69.5 -183.5t179.5 -66.5t179.5 66.5t69.5 183.5
v426h35v-436q0 -119 -81.5 -197t-202.5 -78z" />
    <glyph glyph-name="uring" unicode="&#x16f;" horiz-adv-x="501" 
d="M199 660q0 -23 16 -38t38 -15t38 15t16 38t-16 38.5t-38 15.5t-38 -15.5t-16 -38.5zM161 660q0 40 27 66t65 26t65 -26t27 -66t-27 -66t-65 -26t-65 26t-27 66zM439 500v-500h-35v500h35zM96 500v-328q0 -69 40.5 -108t103.5 -39q68 0 116 43.5t48 104.5h36
q0 -74 -59 -129t-145 -55q-74 0 -124.5 50.5t-50.5 126.5v334h35z" />
    <glyph glyph-name="Uhungarumlaut" unicode="&#x170;" horiz-adv-x="690" 
d="M522 938l-31 29l-161 -162l29 -28zM375 938l-32 29l-161 -162l29 -28zM345 -11q-121 0 -202.5 78t-81.5 197v436h35v-426q0 -117 69.5 -183.5t179.5 -66.5t179.5 66.5t69.5 183.5v426h35v-436q0 -119 -81.5 -197t-202.5 -78z" />
    <glyph glyph-name="uhungarumlaut" unicode="&#x171;" horiz-adv-x="501" 
d="M430 729l-31 29l-161 -162l29 -28zM283 729l-32 29l-161 -162l29 -28zM439 500v-500h-35v500h35zM96 500v-328q0 -69 40.5 -108t103.5 -39q68 0 116 43.5t48 104.5h36q0 -74 -59 -129t-145 -55q-74 0 -124.5 50.5t-50.5 126.5v334h35z" />
    <glyph glyph-name="Uogonek" unicode="&#x172;" horiz-adv-x="690" 
d="M328 -17v17h30v-36l-51 -30q-32 -21 -32 -56q0 -24 15.5 -39t40.5 -15q42 0 51 44l29 -14q-8 -28 -30 -44.5t-53 -16.5q-38 0 -61.5 24.5t-23.5 62.5q0 58 64 90zM345 -11q-121 0 -202.5 78t-81.5 197v436h35v-426q0 -117 69.5 -183.5t179.5 -66.5t179.5 66.5t69.5 183.5
v426h35v-436q0 -119 -81.5 -197t-202.5 -78z" />
    <glyph glyph-name="uogonek" unicode="&#x173;" horiz-adv-x="501" 
d="M407 -17v17h30v-36l-51 -30q-32 -21 -32 -56q0 -24 15.5 -39t40.5 -15q42 0 51 44l29 -14q-8 -28 -30 -44.5t-53 -16.5q-38 0 -61.5 24.5t-23.5 62.5q0 58 64 90zM439 500v-500h-35v500h35zM96 500v-328q0 -69 40.5 -108t103.5 -39q68 0 116 43.5t48 104.5h36
q0 -74 -59 -129t-145 -55q-74 0 -124.5 50.5t-50.5 126.5v334h35z" />
    <glyph glyph-name="Wcircumflex" unicode="&#x174;" horiz-adv-x="1017" 
d="M497 967l-150 -168l39 -21l120 137l120 -137l39 21l-150 168h-18zM945 700h39l-234 -700h-33l-209 639l-210 -639h-34l-231 700h39l208 -656l215 656h27l213 -656z" />
    <glyph glyph-name="wcircumflex" unicode="&#x175;" horiz-adv-x="766" 
d="M375 758l-150 -168l39 -21l120 137l120 -137l39 21l-150 168h-18zM692 500h41l-171 -500h-36l-144 438l-144 -438h-36l-169 500h41l145 -450l150 450h28l149 -450z" />
    <glyph glyph-name="Ycircumflex" unicode="&#x176;" horiz-adv-x="651" 
d="M323 967l-150 -168l39 -21l120 137l120 -137l39 21l-150 168h-18zM318 0h35v242l265 458h-42l-241 -418l-259 418h-43l285 -458v-242z" />
    <glyph glyph-name="ycircumflex" unicode="&#x177;" horiz-adv-x="523" 
d="M251 758l-150 -168l39 -21l120 137l120 -137l39 21l-150 168h-18zM446 500l-185 -434l-184 434h-44l204 -479l-89 -221h44l298 700h-44z" />
    <glyph glyph-name="Ydieresis" unicode="&#x178;" horiz-adv-x="651" 
d="M384 808.5q0 13.5 9.5 22.5t22.5 9t22.5 -9t9.5 -22.5t-9.5 -22.5t-22.5 -9t-22.5 9t-9.5 22.5zM214 808.5q0 13.5 9.5 22.5t22.5 9t22.5 -9t9.5 -22.5t-9.5 -22.5t-22.5 -9t-22.5 9t-9.5 22.5zM318 0h35v242l265 458h-42l-241 -418l-259 418h-43l285 -458v-242z" />
    <glyph glyph-name="Zacute" unicode="&#x179;" horiz-adv-x="628" 
d="M436 936l-26 28l-163 -162l25 -25zM588 0v32h-514l514 628v40h-548v-32h514l-514 -622v-46h548z" />
    <glyph glyph-name="zacute" unicode="&#x17a;" horiz-adv-x="481" 
d="M367 727l-26 28l-163 -162l25 -25zM440 0v34h-363l363 418v48h-399v-34h367l-367 -418v-48h399z" />
    <glyph glyph-name="Zdotaccent" unicode="&#x17b;" horiz-adv-x="628" 
d="M284 808.5q0 13.5 9 22.5t22 9t22 -9t9 -22.5t-9 -22.5t-22 -9t-22 9t-9 22.5zM588 0v32h-514l514 628v40h-548v-32h514l-514 -622v-46h548z" />
    <glyph glyph-name="zdotaccent" unicode="&#x17c;" horiz-adv-x="481" 
d="M215 599.5q0 13.5 9 22.5t22 9t22 -9t9 -22.5t-9 -22.5t-22 -9t-22 9t-9 22.5zM440 0v34h-363l363 418v48h-399v-34h367l-367 -418v-48h399z" />
    <glyph glyph-name="Zcaron" unicode="&#x17d;" horiz-adv-x="628" 
d="M324 778l150 167l-39 22l-120 -137l-120 137l-39 -22l150 -167h18zM588 0v32h-514l514 628v40h-548v-32h514l-514 -622v-46h548z" />
    <glyph glyph-name="zcaron" unicode="&#x17e;" horiz-adv-x="481" 
d="M255 569l150 167l-39 22l-120 -137l-120 137l-39 -22l150 -167h18zM440 0v34h-363l363 418v48h-399v-34h367l-367 -418v-48h399z" />
    <glyph glyph-name="Ohorn" unicode="&#x1a0;" horiz-adv-x="785" 
d="M569 626v35h60q27 0 42 14t15 39.5t-23 42.5l27 28q35 -23 35 -71q0 -37 -27.5 -62.5t-66.5 -25.5h-62zM76 353q0 -73 25.5 -136.5t68.5 -107t101 -68t123 -24.5t123 24.5t101 68t68.5 107t25.5 136.5q0 72 -25.5 134.5t-68.5 105.5t-101 67.5t-123 24.5t-123 -24.5
t-101 -67.5t-68.5 -105.5t-25.5 -134.5zM41 353q0 79 28 148t75.5 116.5t112.5 75t137 27.5t137 -27.5t112.5 -75t75.5 -116.5t28 -148q0 -80 -28 -149.5t-75.5 -118t-112.5 -76t-137 -27.5t-137 27.5t-112.5 76t-75.5 118t-28 149.5z" />
    <glyph glyph-name="ohorn" unicode="&#x1a1;" horiz-adv-x="607" 
d="M468 418v35h60q27 0 42 14t15 39.5t-23 42.5l27 28q35 -23 35 -71q0 -37 -27.5 -62.5t-66.5 -25.5h-62zM76 251q0 -102 67.5 -167.5t165.5 -65.5t165.5 65.5t67.5 167.5t-67.5 167.5t-165.5 65.5t-165.5 -65.5t-67.5 -167.5zM41 251q0 117 78 193t190 76t190 -76t78 -193
t-78 -193t-190 -76t-190 76t-78 193z" />
    <glyph glyph-name="Uhorn" unicode="&#x1af;" horiz-adv-x="673" 
d="M589 626v35h60q27 0 42 14t15 39.5t-23 42.5l27 28q35 -23 35 -71q0 -37 -27.5 -62.5t-66.5 -25.5h-62zM345 -11q-121 0 -202.5 78t-81.5 197v436h35v-426q0 -117 69.5 -183.5t179.5 -66.5t179.5 66.5t69.5 183.5v426h35v-436q0 -119 -81.5 -197t-202.5 -78z" />
    <glyph glyph-name="uhorn" unicode="&#x1b0;" horiz-adv-x="551" 
d="M410 418v35h60q27 0 42 14t15 39.5t-23 42.5l27 28q35 -23 35 -71q0 -37 -27.5 -62.5t-66.5 -25.5h-62zM439 500v-500h-35v500h35zM96 500v-328q0 -69 40.5 -108t103.5 -39q68 0 116 43.5t48 104.5h36q0 -74 -59 -129t-145 -55q-74 0 -124.5 50.5t-50.5 126.5v334h35z
" />
    <glyph glyph-name="uni0237" unicode="&#x237;" horiz-adv-x="159" 
d="M-18 -130q39 0 59.5 25t20.5 63v542h35v-552q0 -45 -30 -77.5t-77 -32.5h-25v32h17z" />
    <glyph glyph-name="uni02BC" unicode="&#x2bc;" horiz-adv-x="126" 
d="M88 746l37 -9l-59 -217l-32 7z" />
    <glyph glyph-name="gravecomb" unicode="&#x300;" horiz-adv-x="264" 
d="M39 659l27 29l162 -163l-23 -25z" />
    <glyph glyph-name="acutecomb" unicode="&#x301;" horiz-adv-x="264" 
d="M226 659l-26 28l-163 -162l25 -25z" />
    <glyph glyph-name="uni0302" unicode="&#x302;" horiz-adv-x="388" 
d="M185 690l-150 -168l39 -21l120 137l120 -137l39 21l-150 168h-18z" />
    <glyph glyph-name="tildecomb" unicode="&#x303;" horiz-adv-x="404" 
d="M128 629q-30 0 -55 -28t-38 -77l37 -18q7 38 21.5 60t32.5 22q15 0 27.5 -8.5t34.5 -34.5q23 -25 42 -35t44 -10q32 0 57.5 28t37.5 77l-37 18q-7 -37 -23 -58t-36 -21q-16 0 -28 8t-34 34q-23 24 -41 33.5t-42 9.5z" />
    <glyph glyph-name="uni0304" unicode="&#x304;" horiz-adv-x="352" 
d="M318 547v-37h-284v37h284z" />
    <glyph glyph-name="uni0306" unicode="&#x306;" horiz-adv-x="338" 
d="M165 512q-59 0 -101 39.5t-42 96.5h38q0 -43 30 -71.5t76 -28.5q47 0 79.5 29t32.5 71h38q0 -55 -45 -95.5t-106 -40.5z" />
    <glyph glyph-name="uni0307" unicode="&#x307;" horiz-adv-x="170" 
d="M54 531.5q0 13.5 9 22.5t22 9t22 -9t9 -22.5t-9 -22.5t-22 -9t-22 9t-9 22.5z" />
    <glyph glyph-name="uni0308" unicode="&#x308;" horiz-adv-x="390" 
d="M248 531.5q0 13.5 9.5 22.5t22.5 9t22.5 -9t9.5 -22.5t-9.5 -22.5t-22.5 -9t-22.5 9t-9.5 22.5zM78 531.5q0 13.5 9.5 22.5t22.5 9t22.5 -9t9.5 -22.5t-9.5 -22.5t-22.5 -9t-22.5 9t-9.5 22.5z" />
    <glyph glyph-name="hookabovecomb" unicode="&#x309;" horiz-adv-x="260" 
d="M126 491l-24 29l31 22q33 18 33 50q0 20 -13 32t-33 12q-37 0 -45 -36l-35 14q8 29 30 45.5t52 16.5q38 0 62 -23.5t24 -60.5q0 -28 -15.5 -48t-48.5 -41z" />
    <glyph glyph-name="uni030A" unicode="&#x30a;" horiz-adv-x="298" 
d="M95 592q0 -23 16 -38t38 -15t38 15t16 38t-16 38.5t-38 15.5t-38 -15.5t-16 -38.5zM57 592q0 40 27 66t65 26t65 -26t27 -66t-27 -66t-65 -26t-65 26t-27 66z" />
    <glyph glyph-name="uni030B" unicode="&#x30b;" horiz-adv-x="424" 
d="M382 661l-31 29l-161 -162l29 -28zM235 661l-32 29l-161 -162l29 -28z" />
    <glyph glyph-name="uni030C" unicode="&#x30c;" horiz-adv-x="388" 
d="M203 501l150 167l-39 22l-120 -137l-120 137l-39 -22l150 -167h18z" />
    <glyph glyph-name="uni0312" unicode="&#x312;" horiz-adv-x="170" 
d="M131 544q0 -17 -12 -30.5t-31 -13.5t-32 12.5t-13 30.5t9 29l67 96l28 -20l-44 -62q28 -12 28 -42z" />
    <glyph glyph-name="uni0313" unicode="&#x313;" horiz-adv-x="170" 
d="M59 624q0 18 12 31t31 13t32 -12.5t13 -30.5q0 -17 -9 -29l-67 -96l-28 21l44 62q-28 12 -28 41z" />
    <glyph glyph-name="uni0315" unicode="&#x315;" horiz-adv-x="170" 
d="M119 719l37 -9l-58 -217l-33 7z" />
    <glyph glyph-name="uni031B" unicode="&#x31b;" horiz-adv-x="247" 
d="M46 490v35h60q27 0 42 14t15 39.5t-23 42.5l27 28q35 -23 35 -71q0 -37 -27.5 -62.5t-66.5 -25.5h-62z" />
    <glyph glyph-name="dotbelowcomb" unicode="&#x323;" horiz-adv-x="170" 
d="M54 -126.5q0 13.5 9 22.5t22 9t22 -9t9 -22.5t-9 -22.5t-22 -9t-22 9t-9 22.5z" />
    <glyph glyph-name="uni0326" unicode="&#x326;" horiz-adv-x="170" 
d="M109 -171q0 -18 -12.5 -31t-31 -13t-32 12.5t-13.5 30.5q0 17 10 29l67 96l28 -21l-44 -62q28 -12 28 -41z" />
    <glyph glyph-name="uni0327" unicode="&#x327;" horiz-adv-x="243" 
d="M92 -64q15 14 36 14q26 0 44 -22t18 -53q0 -34 -22 -55.5t-56 -21.5q-26 0 -46 13t-27 36l27 11q8 -32 44 -32q22 0 35.5 14t13.5 36q0 18 -9.5 29.5t-23.5 11.5q-20 0 -34 -21l-29 18v106h29v-84z" />
    <glyph glyph-name="uni0328" unicode="&#x328;" horiz-adv-x="247" 
d="M123 -17v17h30v-36l-51 -30q-32 -21 -32 -56q0 -24 15.5 -39t40.5 -15q42 0 51 44l29 -14q-8 -28 -30 -44.5t-53 -16.5q-38 0 -61.5 24.5t-23.5 62.5q0 58 64 90z" />
    <glyph glyph-name="uni0400" unicode="&#x400;" horiz-adv-x="545" 
d="M165 936l27 29l162 -163l-23 -25zM96 368h384v-34h-384v-301h408v-33h-443v700h443v-33h-408v-299z" />
    <glyph glyph-name="uni0401" unicode="&#x401;" horiz-adv-x="545" 
d="M337 808.5q0 13.5 9.5 22.5t22.5 9t22.5 -9t9.5 -22.5t-9.5 -22.5t-22.5 -9t-22.5 9t-9.5 22.5zM167 808.5q0 13.5 9.5 22.5t22.5 9t22.5 -9t9.5 -22.5t-9.5 -22.5t-22.5 -9t-22.5 9t-9.5 22.5zM96 368h384v-34h-384v-301h408v-33h-443v700h443v-33h-408v-299z" />
    <glyph glyph-name="uni0402" unicode="&#x402;" horiz-adv-x="714" 
d="M467 383q86 0 146 -56.5t60 -136.5q0 -82 -56 -136t-140 -54h-71v33h61q73 0 122 44.5t49 112.5t-49 114t-122 46h-226v-350h-35v668h-175v32h564v-32h-354v-285h226z" />
    <glyph glyph-name="uni0403" unicode="&#x403;" horiz-adv-x="544" 
d="M402 936l-26 28l-163 -162l25 -25zM61 0h35v666h418v34h-453v-700z" />
    <glyph glyph-name="uni0404" unicode="&#x404;" horiz-adv-x="778" 
d="M542 368v-32h-482v32h482zM41 351q0 80 28.5 149t77 117t114 75.5t138.5 27.5q109 0 198 -57.5t135 -155.5l-29 -15q-42 89 -123.5 141t-179.5 52q-66 0 -125 -24.5t-103 -67.5t-70 -106t-26 -136t26 -136t70 -106t103 -67.5t125 -24.5q101 0 183.5 54.5t123.5 147.5
l30 -14q-44 -102 -135 -162.5t-203 -60.5q-73 0 -138.5 27.5t-114 75.5t-77 117t-28.5 149z" />
    <glyph glyph-name="uni0405" unicode="&#x405;" horiz-adv-x="509" 
d="M248 333q-106 28 -156.5 72.5t-50.5 109.5q0 87 57 142.5t142 55.5q76 0 138 -46.5t90 -124.5l-31 -16q-26 70 -78.5 110.5t-118.5 40.5q-71 0 -117.5 -44t-46.5 -116q0 -53 43 -88t141 -59q208 -52 208 -186q0 -85 -56.5 -140t-140.5 -55q-78 0 -140 47t-90 126l31 14
q26 -71 78 -111t118 -40q71 0 118 45t47 115q0 54 -44.5 90t-140.5 58z" />
    <glyph glyph-name="uni0406" unicode="&#x406;" 
d="M96 0h-35v700h35v-700z" />
    <glyph glyph-name="uni0407" unicode="&#x407;" 
d="M131 808.5q0 13.5 9.5 22.5t22.5 9t22.5 -9t9.5 -22.5t-9.5 -22.5t-22.5 -9t-22.5 9t-9.5 22.5zM-39 808.5q0 13.5 9.5 22.5t22.5 9t22.5 -9t9.5 -22.5t-9.5 -22.5t-22.5 -9t-22.5 9t-9.5 22.5zM96 0h-35v700h35v-700z" />
    <glyph glyph-name="uni0408" unicode="&#x408;" horiz-adv-x="567" 
d="M41 144l31 11q23 -64 72.5 -97.5t121.5 -33.5q90 0 147 54.5t57 151.5v470h35v-480q0 -100 -69 -165.5t-170 -65.5q-82 0 -141.5 41t-83.5 114z" />
    <glyph glyph-name="uni0409" unicode="&#x409;" horiz-adv-x="1121" 
d="M53 34h-17v-34h26q78 0 127 53.5t49 127.5v485h317v-666h319q84 0 139.5 53t55.5 133.5t-59.5 136t-145.5 55.5h-274v322h-387v-508q0 -68 -39 -113t-111 -45zM590 345h274q73 0 121.5 -45.5t48.5 -113.5q0 -66 -48.5 -109.5t-121.5 -43.5h-274v312z" />
    <glyph glyph-name="uni040A" unicode="&#x40a;" horiz-adv-x="1016" 
d="M489 700h-35v-700h325q84 0 140.5 53.5t56.5 134t-60.5 136.5t-146.5 56h-280v320zM769 33h-280v315h280q73 0 122 -46t49 -114q0 -67 -48.5 -111t-122.5 -44zM464 379h-368v321h-35v-700h35v346h368v33z" />
    <glyph glyph-name="uni040B" unicode="&#x40b;" horiz-adv-x="689" 
d="M637 192v-192h-35v192q0 67 -49 112.5t-121 45.5h-191v-350h-35v668h-175v32h462v-32h-252v-285h191q86 0 145.5 -55.5t59.5 -135.5z" />
    <glyph glyph-name="uni040C" unicode="&#x40c;" horiz-adv-x="571" 
d="M411 936l-26 28l-163 -162l25 -25zM61 0v700h35v-335h38l351 335h53l-370 -352l370 -348h-53l-351 327h-38v-327h-35z" />
    <glyph glyph-name="uni040D" unicode="&#x40d;" horiz-adv-x="678" 
d="M225 936l27 29l162 -163l-23 -25zM616 0h-35v663l-473 -663h-47v700h35v-652l474 652h46v-700z" />
    <glyph glyph-name="uni040E" unicode="&#x40e;" horiz-adv-x="582" 
d="M297 789q-59 0 -101 39.5t-42 96.5h38q0 -43 30 -71.5t76 -28.5q47 0 79.5 29t32.5 71h38q0 -55 -45 -95.5t-106 -40.5zM160 0h46l343 700h-41l-196 -390l-237 390h-43l262 -430z" />
    <glyph glyph-name="uni040F" unicode="&#x40f;" horiz-adv-x="673" 
d="M611 0v700h-35v-666h-480v666h-35v-700h263v-175h32v175h255z" />
    <glyph glyph-name="uni0410" unicode="&#x410;" horiz-adv-x="744" 
d="M153 249h431v-35h-431v35zM71 0h-38l317 700h44l317 -700h-39l-301 661z" />
    <glyph glyph-name="uni0411" unicode="&#x411;" horiz-adv-x="618" 
d="M372 382q86 0 145.5 -56t59.5 -137t-55.5 -135t-139.5 -54h-321v700h435v-32h-400v-286h276zM372 33q73 0 121.5 44.5t48.5 111.5q0 68 -49 114t-121 46h-276v-316h276z" />
    <glyph glyph-name="uni0412" unicode="&#x412;" horiz-adv-x="647" 
d="M388 667h-292v-299h303q64 0 107 47.5t43 117.5q0 58 -46 96t-115 38zM399 334h-303v-301h302q69 0 115 40t46 98q0 70 -45.5 116.5t-114.5 46.5zM408 0h-347v700h337q80 0 133 -48.5t53 -121.5q0 -57 -28 -104t-77 -72q53 -25 84 -72.5t31 -107.5q0 -73 -53.5 -123.5
t-132.5 -50.5z" />
    <glyph glyph-name="uni0413" unicode="&#x413;" horiz-adv-x="544" 
d="M61 0h35v666h418v34h-453v-700z" />
    <glyph glyph-name="uni0414" unicode="&#x414;" horiz-adv-x="730" 
d="M31 34v-150h35v116h598v-116h35v150h-668zM65 34h-34l15 -27h29q76 0 124.5 50t48.5 119v491h352v-666h35v699h-422v-510q0 -68 -38.5 -112t-109.5 -44z" />
    <glyph glyph-name="uni0415" unicode="&#x415;" horiz-adv-x="545" 
d="M96 368h384v-34h-384v-301h408v-33h-443v700h443v-33h-408v-299z" />
    <glyph glyph-name="uni0416" unicode="&#x416;" horiz-adv-x="857" 
d="M411 700h35v-330h79l248 330h51l-263 -348l263 -352h-51l-248 332h-79v-332h-35v332h-80l-252 -332h-46l262 349l-262 351h46l252 -330h80v330z" />
    <glyph glyph-name="uni0417" unicode="&#x417;" horiz-adv-x="531" 
d="M60 571q28 68 83.5 107.5t124.5 39.5q86 0 144 -56t58 -139q0 -52 -24.5 -95.5t-66.5 -67.5q51 -26 81 -73t30 -104q0 -86 -64 -143.5t-158 -57.5q-75 0 -135.5 40.5t-91.5 111.5l29 16q26 -61 79 -96.5t119 -35.5q80 0 133.5 47t53.5 118q0 67 -49.5 113.5t-121.5 46.5
h-77v34h77q64 0 107.5 42.5t43.5 105.5q0 67 -48 112t-120 45q-59 0 -105.5 -33.5t-69.5 -92.5z" />
    <glyph glyph-name="uni0418" unicode="&#x418;" horiz-adv-x="678" 
d="M616 0h-35v663l-473 -663h-47v700h35v-652l474 652h46v-700z" />
    <glyph glyph-name="uni0419" unicode="&#x419;" horiz-adv-x="678" 
d="M343 789q-59 0 -101 39.5t-42 96.5h38q0 -43 30 -71.5t76 -28.5q47 0 79.5 29t32.5 71h38q0 -55 -45 -95.5t-106 -40.5zM616 0h-35v663l-473 -663h-47v700h35v-652l474 652h46v-700z" />
    <glyph glyph-name="uni041A" unicode="&#x41a;" horiz-adv-x="571" 
d="M61 0v700h35v-335h38l351 335h53l-370 -352l370 -348h-53l-351 327h-38v-327h-35z" />
    <glyph glyph-name="uni041B" unicode="&#x41b;" horiz-adv-x="652" 
d="M53 34h-17v-34h26q78 0 127 53.5t49 127.5v485h317v-666h35v700h-387v-508q0 -68 -39 -113t-111 -45z" />
    <glyph glyph-name="uni041C" unicode="&#x41c;" horiz-adv-x="836" 
d="M62 0v700h49l307 -545l307 545h49v-700h-36v647l-301 -532h-37l-302 532v-647h-36z" />
    <glyph glyph-name="uni041D" unicode="&#x41d;" horiz-adv-x="678" 
d="M61 0v700h35v-332h485v332h35v-700h-35v334h-485v-334h-35z" />
    <glyph glyph-name="uni041E" unicode="&#x41e;" horiz-adv-x="788" 
d="M76 353q0 -73 25.5 -136.5t68.5 -107t101 -68t123 -24.5t123 24.5t101 68t68.5 107t25.5 136.5q0 72 -25.5 134.5t-68.5 105.5t-101 67.5t-123 24.5t-123 -24.5t-101 -67.5t-68.5 -105.5t-25.5 -134.5zM41 353q0 79 28 148t75.5 116.5t112.5 75t137 27.5t137 -27.5
t112.5 -75t75.5 -116.5t28 -148q0 -80 -28 -149.5t-75.5 -118t-112.5 -76t-137 -27.5t-137 27.5t-112.5 76t-75.5 118t-28 149.5z" />
    <glyph glyph-name="uni041F" unicode="&#x41f;" horiz-adv-x="675" 
d="M61 700v-700h35v666h483v-666h35v700h-553z" />
    <glyph glyph-name="uni0420" unicode="&#x420;" horiz-adv-x="615" 
d="M338 667h-242v-375h242q90 0 150.5 54.5t60.5 135.5q0 80 -60 132.5t-151 52.5zM338 260h-242v-260h-35v700h287q101 0 168.5 -62.5t67.5 -155.5t-71.5 -157.5t-174.5 -64.5z" />
    <glyph glyph-name="uni0421" unicode="&#x421;" horiz-adv-x="778" 
d="M41 351q0 80 28.5 149t77 117t114 75.5t138.5 27.5q109 0 198 -56.5t135 -153.5l-29 -16q-42 89 -123.5 140t-179.5 51q-66 0 -125 -24.5t-103 -67.5t-70 -106t-26 -136t26 -136t70 -106t103 -67.5t125 -24.5q101 0 183.5 53.5t123.5 145.5l30 -14q-44 -101 -135 -160.5
t-203 -59.5q-73 0 -138.5 27.5t-114 75.5t-77 117t-28.5 149z" />
    <glyph glyph-name="uni0422" unicode="&#x422;" horiz-adv-x="587" 
d="M556 700v-33h-245v-667h-35v667h-245v33h525z" />
    <glyph glyph-name="uni0423" unicode="&#x423;" horiz-adv-x="582" 
d="M160 0h46l343 700h-41l-196 -390l-237 390h-43l262 -430z" />
    <glyph glyph-name="uni0424" unicode="&#x424;" horiz-adv-x="786" 
d="M374 0v750h35v-750h-35zM76 385q0 -104 86 -168t231 -64t230.5 64t85.5 168q0 102 -85.5 165t-230.5 63t-231 -63t-86 -165zM41 385q0 118 96.5 191.5t255.5 73.5t255 -73.5t96 -191.5q0 -119 -96 -194t-255 -75t-255.5 75t-96.5 194z" />
    <glyph glyph-name="uni0425" unicode="&#x425;" horiz-adv-x="693" 
d="M660 0h-47l-267 310l-266 -310h-47l292 343l-292 357h47l266 -324l267 324h47l-293 -357z" />
    <glyph glyph-name="uni0426" unicode="&#x426;" horiz-adv-x="692" 
d="M572 33v667h-34v-667h-442v667h-35v-700h565v-114h35v147h-89z" />
    <glyph glyph-name="uni0427" unicode="&#x427;" horiz-adv-x="623" 
d="M562 700v-700h-35v700h35zM96 700v-236q0 -102 57.5 -160.5t148.5 -58.5q93 0 159 58.5t66 140.5h35q0 -94 -77 -164.5t-187 -70.5q-100 0 -168.5 71t-68.5 178v242h35z" />
    <glyph glyph-name="uni0428" unicode="&#x428;" horiz-adv-x="935" 
d="M874 0v700h-35v-667h-352v667h-35v-667h-356v667h-35v-700h813z" />
    <glyph glyph-name="uni0429" unicode="&#x429;" horiz-adv-x="994" 
d="M874 33v667h-35v-667h-352v667h-35v-667h-356v667h-35v-700h868v-114h35v147h-90z" />
    <glyph glyph-name="uni042A" unicode="&#x42a;" horiz-adv-x="752" 
d="M507 33q73 0 121 44t48 110q0 67 -48.5 112.5t-120.5 45.5h-246v-312h246zM261 700v-322h246q86 0 145 -55.5t59 -135.5t-55 -133.5t-139 -53.5h-291v668h-196v32h231z" />
    <glyph glyph-name="uni042B" unicode="&#x42b;" horiz-adv-x="721" 
d="M660 0h-36v700h36v-700zM96 700v-322h227q86 0 145.5 -55.5t59.5 -136t-55.5 -133.5t-139.5 -53h-272v700h35zM323 33q73 0 121.5 43.5t48.5 109.5q0 68 -49 113.5t-121 45.5h-227v-312h227z" />
    <glyph glyph-name="uni042C" unicode="&#x42c;" horiz-adv-x="617" 
d="M96 700v-322h274q86 0 146 -55.5t60 -136t-56 -133.5t-140 -53h-319v700h35zM370 33q73 0 121.5 43.5t48.5 109.5q0 68 -48.5 113.5t-121.5 45.5h-274v-312h274z" />
    <glyph glyph-name="uni042D" unicode="&#x42d;" horiz-adv-x="778" 
d="M236 334v32h482v-32h-482zM737 351q0 -80 -28.5 -149t-77 -117t-114 -75.5t-138.5 -27.5q-109 0 -198 57.5t-135 155.5l29 15q42 -89 123.5 -141t179.5 -52q66 0 125 24.5t103 67.5t70 106t26 136t-26 136t-70 106t-103 67.5t-125 24.5q-101 0 -183.5 -54.5
t-123.5 -147.5l-30 14q44 102 135 162.5t203 60.5q73 0 138.5 -27.5t114 -75.5t77 -117t28.5 -149z" />
    <glyph glyph-name="uni042E" unicode="&#x42e;" horiz-adv-x="1076" 
d="M365 353q0 72 25 134.5t68 105.5t101.5 67.5t123.5 24.5t123 -24.5t101 -67.5t68 -105.5t25 -134.5q0 -73 -25 -136.5t-68 -107t-101 -68t-123 -24.5t-123.5 24.5t-101.5 68t-68 107t-25 136.5zM330 353q0 -80 28 -149.5t75.5 -118t112.5 -76t137 -27.5t137 27.5
t112.5 76t75.5 118t28 149.5q0 79 -28 148t-75.5 116.5t-112.5 75t-137 27.5t-137 -27.5t-112.5 -75t-75.5 -116.5t-28 -148zM358 368h-262v332h-35v-700h35v334h262v34z" />
    <glyph glyph-name="uni042F" unicode="&#x42f;" horiz-adv-x="626" 
d="M288 667q-82 0 -136.5 -50.5t-54.5 -125.5q1 -77 55.5 -129t135.5 -52h264v357h-264zM302 274q-100 -2 -169 61.5t-69 155.5q0 89 61.5 149t152.5 60h309v-700h-35v277h-201l-239 -277h-48z" />
    <glyph glyph-name="uni0430" unicode="&#x430;" horiz-adv-x="481" 
d="M384 254l-172 -20q-136 -17 -136 -103q0 -47 38.5 -76t98.5 -29q79 0 125 48.5t46 130.5h36q0 -92 -60 -154t-148 -62q-74 0 -122.5 40.5t-48.5 105.5q0 56 42.5 91t121.5 44l179 20v34q0 60 -42.5 105t-105.5 45q-57 0 -99 -31t-54 -81l-33 8q17 62 67.5 101.5
t114.5 39.5q76 0 132 -52.5t56 -124.5v-334h-36v254z" />
    <glyph glyph-name="uni0431" unicode="&#x431;" horiz-adv-x="610" 
d="M540 744q-20 -21 -54 -35t-61.5 -19.5t-80.5 -13.5q-119 -18 -189.5 -102t-79.5 -229q33 62 98 99t141 37q108 0 181.5 -72t73.5 -179q0 -106 -73 -177t-182 -71q-75 0 -137 34t-95 96q-42 80 -42 201q0 338 300 395q7 1 34.5 6t36.5 7t29.5 7.5t30.5 10t22.5 12
t20.5 16.5zM85 238q0 -92 68 -156.5t165 -64.5q93 0 154.5 61.5t61.5 153.5q0 93 -62.5 153t-159.5 60t-162 -59t-65 -148z" />
    <glyph glyph-name="uni0432" unicode="&#x432;" horiz-adv-x="530" 
d="M324 464h-228v-191h238q47 0 78 25.5t31 62.5q0 45 -34 74t-85 29zM334 234h-238v-198h238q51 0 85 27.5t34 68.5q0 44 -34 73t-85 29zM344 0h-283v500h273q62 0 103 -41t41 -102q0 -34 -18 -61t-48 -41q35 -17 55.5 -48t20.5 -71q0 -58 -41.5 -97t-102.5 -39z" />
    <glyph glyph-name="uni0433" unicode="&#x433;" horiz-adv-x="414" 
d="M61 0h35v466h276v34h-311v-500z" />
    <glyph glyph-name="uni0434" unicode="&#x434;" horiz-adv-x="571" 
d="M31 34v-150h35v116h439v-116h35v150h-509zM55 34h-19v-42h29q54 0 88.5 40t34.5 95v340h247v-467h35v500h-317v-359q0 -46 -25.5 -76.5t-72.5 -30.5z" />
    <glyph glyph-name="uni0435" unicode="&#x435;" horiz-adv-x="599" 
d="M523 268q-5 95 -69 155t-155 60q-88 0 -151.5 -60t-71.5 -155h447zM76 234q8 -94 73 -154.5t156 -60.5q68 0 123 34t83 93l32 -14q-32 -69 -96 -109.5t-142 -40.5q-110 0 -187 76t-77 193t75.5 193t183.5 76t183 -72.5t75 -184.5q0 -5 -0.5 -9.5t-0.5 -10v-9.5h-481z" />
    <glyph glyph-name="uni0436" unicode="&#x436;" horiz-adv-x="702" 
d="M333 500h35v-232h53l195 232h49l-212 -250l212 -250h-49l-195 229h-53v-229h-35v232h-52l-196 -232h-49l213 250l-213 250h49l196 -229h52v229z" />
    <glyph glyph-name="uni0437" unicode="&#x437;" horiz-adv-x="462" 
d="M60 401q24 54 71.5 85.5t106.5 31.5q73 0 122.5 -44.5t49.5 -110.5q0 -35 -18.5 -65t-51.5 -47q37 -18 58.5 -52.5t21.5 -75.5q0 -60 -52 -100.5t-130 -40.5q-65 0 -117.5 32.5t-79.5 89.5l29 17q22 -48 67 -75.5t102 -27.5q62 0 104 29.5t42 73.5q0 46 -37 77.5
t-91 31.5h-81v40h81q50 0 84 27.5t34 68.5q0 50 -39.5 83t-98.5 33q-49 0 -88 -25.5t-59 -70.5z" />
    <glyph glyph-name="uni0438" unicode="&#x438;" horiz-adv-x="528" 
d="M466 0h-35v456l-323 -456h-47v500h35v-446l324 446h46v-500z" />
    <glyph glyph-name="uni0439" unicode="&#x439;" horiz-adv-x="528" 
d="M266 580q-59 0 -101 39.5t-42 96.5h38q0 -43 30 -71.5t76 -28.5q47 0 79.5 29t32.5 71h38q0 -55 -45 -95.5t-106 -40.5zM466 0h-35v456l-323 -456h-47v500h35v-446l324 446h46v-500z" />
    <glyph glyph-name="uni043A" unicode="&#x43a;" horiz-adv-x="446" 
d="M61 0v500h35v-232h27l241 232h48l-256 -250l256 -250h-48l-241 230h-27v-230h-35z" />
    <glyph glyph-name="uni043B" unicode="&#x43b;" horiz-adv-x="536" 
d="M54 33h-18v-33h28q56 0 92 39t36 93v335h247v-467h35v500h-318v-354q0 -49 -26.5 -81t-75.5 -32z" />
    <glyph glyph-name="uni043C" unicode="&#x43c;" horiz-adv-x="666" 
d="M61 0v500h50l222 -382l222 382h50v-500h-35v441l-216 -367h-40l-218 367v-441h-35z" />
    <glyph glyph-name="uni043D" unicode="&#x43d;" horiz-adv-x="577" 
d="M61 0v500h35v-232h384v232h35v-500h-35v234h-384v-234h-35z" />
    <glyph glyph-name="uni043E" unicode="&#x43e;" horiz-adv-x="618" 
d="M76 251q0 -102 67.5 -167.5t165.5 -65.5t165.5 65.5t67.5 167.5t-67.5 167.5t-165.5 65.5t-165.5 -65.5t-67.5 -167.5zM41 251q0 117 78 193t190 76t190 -76t78 -193t-78 -193t-190 -76t-190 76t-78 193z" />
    <glyph glyph-name="uni043F" unicode="&#x43f;" horiz-adv-x="523" 
d="M461 500v-500h-35v466h-330v-466h-35v500h400z" />
    <glyph glyph-name="uni0440" unicode="&#x440;" horiz-adv-x="638" 
d="M61 500h35v-700h-35v700zM96 249q0 -102 68 -167.5t165 -65.5t165 65.5t68 167.5t-68 167.5t-165 65.5t-165 -65.5t-68 -167.5zM66 249q0 117 75.5 193t185.5 76q113 0 191.5 -76t78.5 -193t-78.5 -193t-191.5 -76q-110 0 -185.5 76t-75.5 193z" />
    <glyph glyph-name="uni0441" unicode="&#x441;" horiz-adv-x="583" 
d="M76 251q0 -102 66 -167.5t162 -65.5q67 0 121.5 33t81.5 91l33 -12q-32 -68 -95.5 -108t-140.5 -40q-110 0 -186.5 76t-76.5 193t76.5 193t186.5 76q79 0 142.5 -41t95.5 -112l-33 -12q-27 60 -82 94.5t-123 34.5q-96 0 -162 -65.5t-66 -167.5z" />
    <glyph glyph-name="uni0442" unicode="&#x442;" horiz-adv-x="465" 
d="M435 500v-34h-185v-466h-35v466h-185v34h405z" />
    <glyph glyph-name="uni0443" unicode="&#x443;" horiz-adv-x="523" 
d="M446 500l-185 -434l-184 434h-44l204 -479l-89 -221h44l298 700h-44z" />
    <glyph glyph-name="uni0444" unicode="&#x444;" horiz-adv-x="608" 
d="M284 -190v870h36v-870h-36zM76 251q0 -102 66.5 -167.5t161.5 -65.5t161.5 65.5t66.5 167.5t-66.5 167.5t-161.5 65.5t-161.5 -65.5t-66.5 -167.5zM41 251q0 117 76.5 193t186.5 76t186.5 -76t76.5 -193t-76.5 -193t-186.5 -76t-186.5 76t-76.5 193z" />
    <glyph glyph-name="uni0445" unicode="&#x445;" horiz-adv-x="526" 
d="M493 0h-48l-182 217l-181 -217h-49l206 250l-206 250h49l181 -217l182 217h48l-206 -250z" />
    <glyph glyph-name="uni0446" unicode="&#x446;" horiz-adv-x="586" 
d="M61 0v500h35v-466h363v466h35v-466h62v-150h-35v116h-460z" />
    <glyph glyph-name="uni0447" unicode="&#x447;" horiz-adv-x="501" 
d="M439 500v-500h-35v500h35zM96 500v-177q0 -69 40.5 -108t103.5 -39q68 0 116 43.5t48 104.5h36q0 -74 -59 -129t-145 -55q-74 0 -124.5 50.5t-50.5 126.5v183h35z" />
    <glyph glyph-name="uni0448" unicode="&#x448;" horiz-adv-x="825" 
d="M764 0v500h-35v-466h-299v466h-35v-466h-299v466h-35v-500h703z" />
    <glyph glyph-name="uni0449" unicode="&#x449;" horiz-adv-x="864" 
d="M764 34v466h-35v-466h-299v466h-35v-466h-299v466h-35v-500h740v-116h35v150h-72z" />
    <glyph glyph-name="uni044A" unicode="&#x44a;" horiz-adv-x="663" 
d="M477 264q61 0 102.5 -39t41.5 -95q0 -55 -41 -92.5t-103 -37.5h-255v468h-181v32h216v-236h220zM467 232h-210v-199h210q51 0 85 28t34 69q0 44 -34 73t-85 29z" />
    <glyph glyph-name="uni044B" unicode="&#x44b;" horiz-adv-x="682" 
d="M586 0v500h34v-500h-34zM338 232h-240v-199h240q50 0 84.5 28t34.5 69q0 44 -34 73t-85 29zM348 266q61 0 102.5 -39.5t41.5 -96.5q0 -55 -41.5 -92.5t-102.5 -37.5h-286v500h36v-234h250z" />
    <glyph glyph-name="uni044C" unicode="&#x44c;" horiz-adv-x="528" 
d="M333 232h-237v-199h237q50 0 84.5 28t34.5 69q0 44 -34 73t-85 29zM343 266q61 0 102.5 -39.5t41.5 -96.5q0 -55 -41.5 -92.5t-102.5 -37.5h-282v500h35v-234h247z" />
    <glyph glyph-name="uni044D" unicode="&#x44d;" horiz-adv-x="583" 
d="M193 231v37h322v-37h-322zM506 251q0 101 -65.5 166t-161.5 65q-67 0 -121.5 -33t-81.5 -92l-33 13q32 69 95.5 109.5t141.5 40.5q109 0 185.5 -76t76.5 -193t-76.5 -193t-185.5 -76q-79 0 -143.5 42t-95.5 114l33 12q26 -61 81.5 -95.5t123.5 -34.5q96 0 161.5 65
t65.5 166z" />
    <glyph glyph-name="uni044E" unicode="&#x44e;" horiz-adv-x="868" 
d="M325 251q0 102 68 167.5t165.5 65.5t165.5 -65.5t68 -167.5t-68 -167.5t-165.5 -65.5t-165.5 65.5t-68 167.5zM290 251q0 -117 78 -193t190.5 -76t190.5 76t78 193t-78 193t-190.5 76t-190.5 -76t-78 -193zM310 268h-214v232h-35v-500h35v234h214v34z" />
    <glyph glyph-name="uni044F" unicode="&#x44f;" horiz-adv-x="536" 
d="M211 234h228v233h-228q-58 0 -97 -33t-39 -81q0 -52 38.5 -85.5t97.5 -33.5zM266 198l-171 -198h-54l172 196q-73 -2 -122.5 43.5t-49.5 113.5q0 62 46 104.5t115 42.5h272v-500h-35v198h-173z" />
    <glyph glyph-name="uni0450" unicode="&#x450;" horiz-adv-x="599" 
d="M181 727l27 29l162 -163l-23 -25zM523 268q-5 95 -69 155t-155 60q-88 0 -151.5 -60t-71.5 -155h447zM76 234q8 -94 73 -154.5t156 -60.5q68 0 123 34t83 93l32 -14q-32 -69 -96 -109.5t-142 -40.5q-110 0 -187 76t-77 193t75.5 193t183.5 76t183 -72.5t75 -184.5
q0 -5 -0.5 -9.5t-0.5 -10v-9.5h-481z" />
    <glyph glyph-name="uni0451" unicode="&#x451;" horiz-adv-x="599" 
d="M353 599.5q0 13.5 9.5 22.5t22.5 9t22.5 -9t9.5 -22.5t-9.5 -22.5t-22.5 -9t-22.5 9t-9.5 22.5zM183 599.5q0 13.5 9.5 22.5t22.5 9t22.5 -9t9.5 -22.5t-9.5 -22.5t-22.5 -9t-22.5 9t-9.5 22.5zM523 268q-5 95 -69 155t-155 60q-88 0 -151.5 -60t-71.5 -155h447zM76 234
q8 -94 73 -154.5t156 -60.5q68 0 123 34t83 93l32 -14q-32 -69 -96 -109.5t-142 -40.5q-110 0 -187 76t-77 193t75.5 193t183.5 76t183 -72.5t75 -184.5q0 -5 -0.5 -9.5t-0.5 -10v-9.5h-481z" />
    <glyph glyph-name="uni0452" unicode="&#x452;" horiz-adv-x="520" 
d="M60 0v625h-60v34h60v91h35v-91h282v-34h-282v-625h-35zM423 -8v315q0 78 -43 123t-111 45q-72 0 -123 -49.5t-51 -118.5h-35q0 81 62 142.5t151 61.5q78 0 131.5 -56.5t53.5 -141.5v-335q0 -52 -36 -91.5t-92 -38.5h-82v32h73q50 0 76 31.5t26 80.5z" />
    <glyph glyph-name="uni0453" unicode="&#x453;" horiz-adv-x="414" 
d="M340 727l-26 28l-163 -162l25 -25zM61 0h35v466h276v34h-311v-500z" />
    <glyph glyph-name="uni0454" unicode="&#x454;" horiz-adv-x="583" 
d="M390 271v-37h-322v37h322zM76 251q0 -101 66 -166t161 -65q68 0 122.5 33t81.5 92l33 -13q-32 -69 -95.5 -109.5t-141.5 -40.5q-109 0 -185.5 76t-76.5 193t76.5 193t185.5 76q79 0 143 -42t96 -114l-33 -12q-27 61 -82 95.5t-124 34.5q-95 0 -161 -65t-66 -166z" />
    <glyph glyph-name="uni0455" unicode="&#x455;" horiz-adv-x="427" 
d="M206 238q-82 18 -121 52t-39 86q0 58 44 97.5t109 39.5q61 0 110.5 -36t71.5 -97l-31 -16q-20 52 -59.5 81.5t-90.5 29.5t-85 -28t-34 -69q0 -39 31.5 -62.5t101.5 -39.5q171 -39 171 -148q0 -59 -45 -99t-113 -40q-62 0 -112.5 36t-73.5 97l31 16q20 -51 61 -80.5
t93 -29.5q53 0 88.5 28.5t35.5 71.5q0 41 -35 67.5t-109 42.5z" />
    <glyph glyph-name="uni0456" unicode="&#x456;" horiz-adv-x="159" 
d="M48 628.5q0 13.5 9 22.5t22.5 9t22.5 -9t9 -22.5t-9 -22.5t-22.5 -9t-22.5 9t-9 22.5zM62 0v500h35v-500h-35z" />
    <glyph glyph-name="uni0457" unicode="&#x457;" 
d="M131 599.5q0 13.5 9.5 22.5t22.5 9t22.5 -9t9.5 -22.5t-9.5 -22.5t-22.5 -9t-22.5 9t-9.5 22.5zM-39 599.5q0 13.5 9.5 22.5t22.5 9t22.5 -9t9.5 -22.5t-9.5 -22.5t-22.5 -9t-22.5 9t-9.5 22.5zM61 0v500h35v-500h-35z" />
    <glyph glyph-name="uni0458" unicode="&#x458;" horiz-adv-x="159" 
d="M48 628.5q0 13.5 9 22.5t22.5 9t22.5 -9t9 -22.5t-9 -22.5t-22.5 -9t-22.5 9t-9 22.5zM-18 -130q39 0 59.5 25t20.5 63v542h35v-552q0 -45 -30 -77.5t-77 -32.5h-25v32h17z" />
    <glyph glyph-name="uni0459" unicode="&#x459;" horiz-adv-x="917" 
d="M54 33h-18v-33h28q56 0 92 39t36 93v335h247v-467h281q62 0 103 37.5t41 92.5q0 57 -41 96.5t-103 39.5h-246v234h-318v-354q0 -49 -26.5 -81t-75.5 -32zM710 232q52 0 86 -29t34 -73q0 -41 -34.5 -69t-85.5 -28h-236v199h236z" />
    <glyph glyph-name="uni045A" unicode="&#x45a;" horiz-adv-x="799" 
d="M592 233q51 0 85 -29.5t34 -73.5q0 -41 -34.5 -69t-84.5 -28h-208v200h208zM602 267h-218v233h-35v-500h253q61 0 102.5 37.5t41.5 93.5q0 57 -41.5 96.5t-102.5 39.5zM356 270h-260v230h-35v-500h35v237h260v33z" />
    <glyph glyph-name="uni045B" unicode="&#x45b;" horiz-adv-x="520" 
d="M60 0v625h-60v34h60v91h35v-91h282v-34h-282v-625h-35zM423 0v307q0 78 -43 123t-111 45q-72 0 -123 -49.5t-51 -118.5h-35q0 81 62 142.5t151 61.5q78 0 131.5 -56.5t53.5 -141.5v-313h-35z" />
    <glyph glyph-name="uni045C" unicode="&#x45c;" horiz-adv-x="446" 
d="M346 727l-26 28l-163 -162l25 -25zM61 0v500h35v-232h27l241 232h48l-256 -250l256 -250h-48l-241 230h-27v-230h-35z" />
    <glyph glyph-name="uni045D" unicode="&#x45d;" horiz-adv-x="528" 
d="M147 727l27 29l162 -163l-23 -25zM466 0h-35v456l-323 -456h-47v500h35v-446l324 446h46v-500z" />
    <glyph glyph-name="uni045E" unicode="&#x45e;" horiz-adv-x="523" 
d="M259 580q-59 0 -101 39.5t-42 96.5h38q0 -43 30 -71.5t76 -28.5q47 0 79.5 29t32.5 71h38q0 -55 -45 -95.5t-106 -40.5zM446 500l-185 -434l-184 434h-44l204 -479l-89 -221h44l298 700h-44z" />
    <glyph glyph-name="uni045F" unicode="&#x45f;" horiz-adv-x="518" 
d="M61 0v500h35v-466h325v466h35v-500h-175v-165h-35v165h-185z" />
    <glyph glyph-name="uni1EA0" unicode="&#x1ea0;" horiz-adv-x="744" 
d="M350 -126.5q0 13.5 9 22.5t22 9t22 -9t9 -22.5t-9 -22.5t-22 -9t-22 9t-9 22.5zM153 249h431v-35h-431v35zM71 0h-38l317 700h44l317 -700h-39l-301 661z" />
    <glyph glyph-name="uni1EA1" unicode="&#x1ea1;" horiz-adv-x="481" 
d="M210 -126.5q0 13.5 9 22.5t22 9t22 -9t9 -22.5t-9 -22.5t-22 -9t-22 9t-9 22.5zM384 254l-172 -20q-67 -8 -101.5 -34t-34.5 -69q0 -47 38.5 -76t98.5 -29q79 0 125 48.5t46 130.5h36q0 -92 -60 -154t-148 -62q-74 0 -122.5 40.5t-48.5 105.5q0 56 43 91.5t121 43.5
l179 20v34q0 60 -44.5 105t-110.5 45q-59 0 -102.5 -31t-56.5 -81l-33 8q18 62 70 101.5t118 39.5q79 0 137 -52.5t58 -124.5v-334h-36v254z" />
    <glyph glyph-name="uni1EA2" unicode="&#x1ea2;" horiz-adv-x="744" 
d="M370 768l-24 29l31 22q33 18 33 50q0 20 -13 32t-33 12q-37 0 -45 -36l-35 14q8 29 30 45.5t52 16.5q38 0 62 -23.5t24 -60.5q0 -28 -15.5 -48t-48.5 -41zM153 249h431v-35h-431v35zM71 0h-38l317 700h44l317 -700h-39l-301 661z" />
    <glyph glyph-name="uni1EA3" unicode="&#x1ea3;" horiz-adv-x="481" 
d="M230 559l-24 29l31 22q33 18 33 50q0 20 -13 32t-33 12q-37 0 -45 -36l-35 14q8 29 30 45.5t52 16.5q38 0 62 -23.5t24 -60.5q0 -28 -15.5 -48t-48.5 -41zM384 254l-172 -20q-67 -8 -101.5 -34t-34.5 -69q0 -47 38.5 -76t98.5 -29q79 0 125 48.5t46 130.5h36
q0 -92 -60 -154t-148 -62q-74 0 -122.5 40.5t-48.5 105.5q0 56 43 91.5t121 43.5l179 20v34q0 60 -44.5 105t-110.5 45q-59 0 -102.5 -31t-56.5 -81l-33 8q18 62 70 101.5t118 39.5q79 0 137 -52.5t58 -124.5v-334h-36v254z" />
    <glyph glyph-name="uni1EA4" unicode="&#x1ea4;" horiz-adv-x="744" 
d="M670 1106l-26 28l-163 -162l25 -25zM363 967l-150 -168l39 -21l120 137l120 -137l39 21l-150 168h-18zM153 249h431v-35h-431v35zM71 0h-38l317 700h44l317 -700h-39l-301 661z" />
    <glyph glyph-name="uni1EA5" unicode="&#x1ea5;" horiz-adv-x="481" 
d="M531 854l-26 28l-163 -162l25 -25zM221 758l-150 -168l39 -21l120 137l120 -137l39 21l-150 168h-18zM384 254l-172 -20q-67 -8 -101.5 -34t-34.5 -69q0 -47 38.5 -76t98.5 -29q79 0 125 48.5t46 130.5h36q0 -92 -60 -154t-148 -62q-74 0 -122.5 40.5t-48.5 105.5
q0 56 43 91.5t121 43.5l179 20v34q0 60 -44.5 105t-110.5 45q-59 0 -102.5 -31t-56.5 -81l-33 8q18 62 70 101.5t118 39.5q79 0 137 -52.5t58 -124.5v-334h-36v254z" />
    <glyph glyph-name="uni1EA6" unicode="&#x1ea6;" horiz-adv-x="744" 
d="M429 1106l27 29l162 -163l-23 -25zM363 967l-150 -168l39 -21l120 137l120 -137l39 21l-150 168h-18zM153 249h431v-35h-431v35zM71 0h-38l317 700h44l317 -700h-39l-301 661z" />
    <glyph glyph-name="uni1EA7" unicode="&#x1ea7;" horiz-adv-x="481" 
d="M290 858l27 29l162 -163l-23 -25zM221 758l-150 -168l39 -21l120 137l120 -137l39 21l-150 168h-18zM384 254l-172 -20q-67 -8 -101.5 -34t-34.5 -69q0 -47 38.5 -76t98.5 -29q79 0 125 48.5t46 130.5h36q0 -92 -60 -154t-148 -62q-74 0 -122.5 40.5t-48.5 105.5
q0 56 43 91.5t121 43.5l179 20v34q0 60 -44.5 105t-110.5 45q-59 0 -102.5 -31t-56.5 -81l-33 8q18 62 70 101.5t118 39.5q79 0 137 -52.5t58 -124.5v-334h-36v254z" />
    <glyph glyph-name="uni1EA8" unicode="&#x1ea8;" horiz-adv-x="744" 
d="M548 938l-24 29l31 22q33 18 33 50q0 20 -13 32t-33 12q-37 0 -45 -36l-35 14q8 29 30 45.5t52 16.5q38 0 62 -23.5t24 -60.5q0 -28 -15.5 -48t-48.5 -41zM363 967l-150 -168l39 -21l120 137l120 -137l39 21l-150 168h-18zM153 249h431v-35h-431v35zM71 0h-38l317 700h44
l317 -700h-39l-301 661z" />
    <glyph glyph-name="uni1EA9" unicode="&#x1ea9;" horiz-adv-x="481" 
d="M409 686l-24 29l31 22q33 18 33 50q0 20 -13 32t-33 12q-37 0 -45 -36l-35 14q8 29 30 45.5t52 16.5q38 0 62 -23.5t24 -60.5q0 -28 -15.5 -48t-48.5 -41zM221 758l-150 -168l39 -21l120 137l120 -137l39 21l-150 168h-18zM384 254l-172 -20q-67 -8 -101.5 -34t-34.5 -69
q0 -47 38.5 -76t98.5 -29q79 0 125 48.5t46 130.5h36q0 -92 -60 -154t-148 -62q-74 0 -122.5 40.5t-48.5 105.5q0 56 43 91.5t121 43.5l179 20v34q0 60 -44.5 105t-110.5 45q-59 0 -102.5 -31t-56.5 -81l-33 8q18 62 70 101.5t118 39.5q79 0 137 -52.5t58 -124.5v-334h-36
v254z" />
    <glyph glyph-name="uni1EAA" unicode="&#x1eaa;" horiz-adv-x="744" 
d="M298 1156q-30 0 -55 -28t-38 -77l37 -18q7 38 21.5 60t32.5 22q15 0 27.5 -8.5t34.5 -34.5q23 -25 42 -35t44 -10q32 0 57.5 28t37.5 77l-37 18q-7 -37 -23 -58t-36 -21q-16 0 -28 8t-34 34q-23 24 -41 33.5t-42 9.5zM363 967l-150 -168l39 -21l120 137l120 -137l39 21
l-150 168h-18zM153 249h431v-35h-431v35zM71 0h-38l317 700h44l317 -700h-39l-301 661z" />
    <glyph glyph-name="uni1EAB" unicode="&#x1eab;" horiz-adv-x="481" 
d="M156 957q-30 0 -55 -28t-38 -77l37 -18q7 38 21.5 60t32.5 22q15 0 27.5 -8.5t34.5 -34.5q23 -25 42 -35t44 -10q32 0 57.5 28t37.5 77l-37 18q-7 -37 -23 -58t-36 -21q-16 0 -28 8t-34 34q-23 24 -41 33.5t-42 9.5zM221 758l-150 -168l39 -21l120 137l120 -137l39 21
l-150 168h-18zM384 254l-172 -20q-67 -8 -101.5 -34t-34.5 -69q0 -47 38.5 -76t98.5 -29q79 0 125 48.5t46 130.5h36q0 -92 -60 -154t-148 -62q-74 0 -122.5 40.5t-48.5 105.5q0 56 43 91.5t121 43.5l179 20v34q0 60 -44.5 105t-110.5 45q-59 0 -102.5 -31t-56.5 -81l-33 8
q18 62 70 101.5t118 39.5q79 0 137 -52.5t58 -124.5v-334h-36v254z" />
    <glyph glyph-name="uni1EAC" unicode="&#x1eac;" horiz-adv-x="744" 
d="M363 970l-150 -168l39 -21l120 137l120 -137l39 21l-150 168h-18zM350 -126.5q0 13.5 9 22.5t22 9t22 -9t9 -22.5t-9 -22.5t-22 -9t-22 9t-9 22.5zM153 249h431v-35h-431v35zM71 0h-38l317 700h44l317 -700h-39l-301 661z" />
    <glyph glyph-name="uni1EAD" unicode="&#x1ead;" horiz-adv-x="481" 
d="M221 772l-150 -168l39 -21l120 137l120 -137l39 21l-150 168h-18zM210 -126.5q0 13.5 9 22.5t22 9t22 -9t9 -22.5t-9 -22.5t-22 -9t-22 9t-9 22.5zM384 254l-172 -20q-67 -8 -101.5 -34t-34.5 -69q0 -47 38.5 -76t98.5 -29q79 0 125 48.5t46 130.5h36q0 -92 -60 -154
t-148 -62q-74 0 -122.5 40.5t-48.5 105.5q0 56 43 91.5t121 43.5l179 20v34q0 60 -44.5 105t-110.5 45q-59 0 -102.5 -31t-56.5 -81l-33 8q18 62 70 101.5t118 39.5q79 0 137 -52.5t58 -124.5v-334h-36v254z" />
    <glyph glyph-name="uni1EAE" unicode="&#x1eae;" horiz-adv-x="744" 
d="M492 1155l-26 28l-163 -162l25 -25zM371 789q-59 0 -101 39.5t-42 96.5h38q0 -43 30 -71.5t76 -28.5q47 0 79.5 29t32.5 71h38q0 -55 -45 -95.5t-106 -40.5zM153 249h431v-35h-431v35zM71 0h-38l317 700h44l317 -700h-39l-301 661z" />
    <glyph glyph-name="uni1EAF" unicode="&#x1eaf;" horiz-adv-x="481" 
d="M352 925l-26 28l-163 -162l25 -25zM229 580q-59 0 -101 39.5t-42 96.5h38q0 -43 30 -71.5t76 -28.5q47 0 79.5 29t32.5 71h38q0 -55 -45 -95.5t-106 -40.5zM384 254l-172 -20q-67 -8 -101.5 -34t-34.5 -69q0 -47 38.5 -76t98.5 -29q79 0 125 48.5t46 130.5h36
q0 -92 -60 -154t-148 -62q-74 0 -122.5 40.5t-48.5 105.5q0 56 43 91.5t121 43.5l179 20v34q0 60 -44.5 105t-110.5 45q-59 0 -102.5 -31t-56.5 -81l-33 8q18 62 70 101.5t118 39.5q79 0 137 -52.5t58 -124.5v-334h-36v254z" />
    <glyph glyph-name="uni1EB0" unicode="&#x1eb0;" horiz-adv-x="744" 
d="M251 1155l27 29l162 -163l-23 -25zM371 789q-59 0 -101 39.5t-42 96.5h38q0 -43 30 -71.5t76 -28.5q47 0 79.5 29t32.5 71h38q0 -55 -45 -95.5t-106 -40.5zM153 249h431v-35h-431v35zM71 0h-38l317 700h44l317 -700h-39l-301 661z" />
    <glyph glyph-name="uni1EB1" unicode="&#x1eb1;" horiz-adv-x="481" 
d="M111 925l27 29l162 -163l-23 -25zM229 580q-59 0 -101 39.5t-42 96.5h38q0 -43 30 -71.5t76 -28.5q47 0 79.5 29t32.5 71h38q0 -55 -45 -95.5t-106 -40.5zM384 254l-172 -20q-67 -8 -101.5 -34t-34.5 -69q0 -47 38.5 -76t98.5 -29q79 0 125 48.5t46 130.5h36
q0 -92 -60 -154t-148 -62q-74 0 -122.5 40.5t-48.5 105.5q0 56 43 91.5t121 43.5l179 20v34q0 60 -44.5 105t-110.5 45q-59 0 -102.5 -31t-56.5 -81l-33 8q18 62 70 101.5t118 39.5q79 0 137 -52.5t58 -124.5v-334h-36v254z" />
    <glyph glyph-name="uni1EB2" unicode="&#x1eb2;" horiz-adv-x="744" 
d="M370 987l-24 29l31 22q33 18 33 50q0 20 -13 32t-33 12q-37 0 -45 -36l-35 14q8 29 30 45.5t52 16.5q38 0 62 -23.5t24 -60.5q0 -28 -15.5 -48t-48.5 -41zM371 789q-59 0 -101 39.5t-42 96.5h38q0 -43 30 -71.5t76 -28.5q47 0 79.5 29t32.5 71h38q0 -55 -45 -95.5
t-106 -40.5zM153 249h431v-35h-431v35zM71 0h-38l317 700h44l317 -700h-39l-301 661z" />
    <glyph glyph-name="uni1EB3" unicode="&#x1eb3;" horiz-adv-x="481" 
d="M230 757l-24 29l31 22q33 18 33 50q0 20 -13 32t-33 12q-37 0 -45 -36l-35 14q8 29 30 45.5t52 16.5q38 0 62 -23.5t24 -60.5q0 -28 -15.5 -48t-48.5 -41zM229 580q-59 0 -101 39.5t-42 96.5h38q0 -43 30 -71.5t76 -28.5q47 0 79.5 29t32.5 71h38q0 -55 -45 -95.5
t-106 -40.5zM384 254l-172 -20q-67 -8 -101.5 -34t-34.5 -69q0 -47 38.5 -76t98.5 -29q79 0 125 48.5t46 130.5h36q0 -92 -60 -154t-148 -62q-74 0 -122.5 40.5t-48.5 105.5q0 56 43 91.5t121 43.5l179 20v34q0 60 -44.5 105t-110.5 45q-59 0 -102.5 -31t-56.5 -81l-33 8
q18 62 70 101.5t118 39.5q79 0 137 -52.5t58 -124.5v-334h-36v254z" />
    <glyph glyph-name="uni1EB4" unicode="&#x1eb4;" horiz-adv-x="744" 
d="M297 1125q-30 0 -55 -28t-38 -77l37 -18q7 38 21.5 60t32.5 22q15 0 27.5 -8.5t34.5 -34.5q23 -25 42 -35t44 -10q32 0 57.5 28t37.5 77l-37 18q-7 -37 -23 -58t-36 -21q-16 0 -28 8t-34 34q-23 24 -41 33.5t-42 9.5zM371 789q-59 0 -101 39.5t-42 96.5h38
q0 -43 30 -71.5t76 -28.5q47 0 79.5 29t32.5 71h38q0 -55 -45 -95.5t-106 -40.5zM153 249h431v-35h-431v35zM71 0h-38l317 700h44l317 -700h-39l-301 661z" />
    <glyph glyph-name="uni1EB5" unicode="&#x1eb5;" horiz-adv-x="481" 
d="M156 895q-30 0 -55 -28t-38 -77l37 -18q7 38 21.5 60t32.5 22q15 0 27.5 -8.5t34.5 -34.5q23 -25 42 -35t44 -10q32 0 57.5 28t37.5 77l-37 18q-7 -37 -23 -58t-36 -21q-16 0 -28 8t-34 34q-23 24 -41 33.5t-42 9.5zM229 580q-59 0 -101 39.5t-42 96.5h38q0 -43 30 -71.5
t76 -28.5q47 0 79.5 29t32.5 71h38q0 -55 -45 -95.5t-106 -40.5zM384 254l-172 -20q-67 -8 -101.5 -34t-34.5 -69q0 -47 38.5 -76t98.5 -29q79 0 125 48.5t46 130.5h36q0 -92 -60 -154t-148 -62q-74 0 -122.5 40.5t-48.5 105.5q0 56 43 91.5t121 43.5l179 20v34
q0 60 -44.5 105t-110.5 45q-59 0 -102.5 -31t-56.5 -81l-33 8q18 62 70 101.5t118 39.5q79 0 137 -52.5t58 -124.5v-334h-36v254z" />
    <glyph glyph-name="uni1EB6" unicode="&#x1eb6;" horiz-adv-x="744" 
d="M368 788q-59 0 -101 39.5t-42 96.5h38q0 -43 30 -71.5t76 -28.5q47 0 79.5 29t32.5 71h38q0 -55 -45 -95.5t-106 -40.5zM350 -126.5q0 13.5 9 22.5t22 9t22 -9t9 -22.5t-9 -22.5t-22 -9t-22 9t-9 22.5zM153 249h431v-35h-431v35zM71 0h-38l317 700h44l317 -700h-39
l-301 661z" />
    <glyph glyph-name="uni1EB7" unicode="&#x1eb7;" horiz-adv-x="481" 
d="M226 588q-59 0 -101 39.5t-42 96.5h38q0 -43 30 -71.5t76 -28.5q47 0 79.5 29t32.5 71h38q0 -55 -45 -95.5t-106 -40.5zM210 -126.5q0 13.5 9 22.5t22 9t22 -9t9 -22.5t-9 -22.5t-22 -9t-22 9t-9 22.5zM384 254l-172 -20q-67 -8 -101.5 -34t-34.5 -69q0 -47 38.5 -76
t98.5 -29q79 0 125 48.5t46 130.5h36q0 -92 -60 -154t-148 -62q-74 0 -122.5 40.5t-48.5 105.5q0 56 43 91.5t121 43.5l179 20v34q0 60 -44.5 105t-110.5 45q-59 0 -102.5 -31t-56.5 -81l-33 8q18 62 70 101.5t118 39.5q79 0 137 -52.5t58 -124.5v-334h-36v254z" />
    <glyph glyph-name="uni1EB8" unicode="&#x1eb8;" horiz-adv-x="545" 
d="M259 -126.5q0 13.5 9 22.5t22 9t22 -9t9 -22.5t-9 -22.5t-22 -9t-22 9t-9 22.5zM96 368h384v-34h-384v-301h408v-33h-443v700h443v-33h-408v-299z" />
    <glyph glyph-name="uni1EB9" unicode="&#x1eb9;" horiz-adv-x="599" 
d="M275 -126.5q0 13.5 9 22.5t22 9t22 -9t9 -22.5t-9 -22.5t-22 -9t-22 9t-9 22.5zM523 268q-5 95 -69 155t-155 60q-88 0 -151.5 -60t-71.5 -155h447zM76 234q8 -94 73 -154.5t156 -60.5q68 0 123 34t83 93l32 -14q-32 -69 -96 -109.5t-142 -40.5q-110 0 -187 76t-77 193
t75.5 193t183.5 76t183 -72.5t75 -184.5q0 -5 -0.5 -9.5t-0.5 -10v-9.5h-481z" />
    <glyph glyph-name="uni1EBA" unicode="&#x1eba;" horiz-adv-x="545" 
d="M280 768l-24 29l31 22q33 18 33 50q0 20 -13 32t-33 12q-37 0 -45 -36l-35 14q8 29 30 45.5t52 16.5q38 0 62 -23.5t24 -60.5q0 -28 -15.5 -48t-48.5 -41zM96 368h384v-34h-384v-301h408v-33h-443v700h443v-33h-408v-299z" />
    <glyph glyph-name="uni1EBB" unicode="&#x1ebb;" horiz-adv-x="599" 
d="M302 559l-24 29l31 22q33 18 33 50q0 20 -13 32t-33 12q-37 0 -45 -36l-35 14q8 29 30 45.5t52 16.5q38 0 62 -23.5t24 -60.5q0 -28 -15.5 -48t-48.5 -41zM523 268q-5 95 -69 155t-155 60q-88 0 -151.5 -60t-71.5 -155h447zM76 234q8 -94 73 -154.5t156 -60.5
q68 0 123 34t83 93l32 -14q-32 -69 -96 -109.5t-142 -40.5q-110 0 -187 76t-77 193t75.5 193t183.5 76t183 -72.5t75 -184.5q0 -5 -0.5 -9.5t-0.5 -10v-9.5h-481z" />
    <glyph glyph-name="uni1EBC" unicode="&#x1ebc;" horiz-adv-x="545" 
d="M207 906q-30 0 -55 -28t-38 -77l37 -18q7 38 21.5 60t32.5 22q15 0 27.5 -8.5t34.5 -34.5q23 -25 42 -35t44 -10q32 0 57.5 28t37.5 77l-37 18q-7 -37 -23 -58t-36 -21q-16 0 -28 8t-34 34q-23 24 -41 33.5t-42 9.5zM96 368h384v-34h-384v-301h408v-33h-443v700h443v-33
h-408v-299z" />
    <glyph glyph-name="uni1EBD" unicode="&#x1ebd;" horiz-adv-x="599" 
d="M229 697q-30 0 -55 -28t-38 -77l37 -18q7 38 21.5 60t32.5 22q15 0 27.5 -8.5t34.5 -34.5q23 -25 42 -35t44 -10q32 0 57.5 28t37.5 77l-37 18q-7 -37 -23 -58t-36 -21q-16 0 -28 8t-34 34q-23 24 -41 33.5t-42 9.5zM523 268q-5 95 -69 155t-155 60q-88 0 -151.5 -60
t-71.5 -155h447zM76 234q8 -94 73 -154.5t156 -60.5q68 0 123 34t83 93l32 -14q-32 -69 -96 -109.5t-142 -40.5q-110 0 -187 76t-77 193t75.5 193t183.5 76t183 -72.5t75 -184.5q0 -5 -0.5 -9.5t-0.5 -10v-9.5h-481z" />
    <glyph glyph-name="uni1EBE" unicode="&#x1ebe;" horiz-adv-x="545" 
d="M588 1081l-26 28l-163 -162l25 -25zM272 967l-150 -168l39 -21l120 137l120 -137l39 21l-150 168h-18zM96 368h384v-34h-384v-301h408v-33h-443v700h443v-33h-408v-299z" />
    <glyph glyph-name="uni1EBF" unicode="&#x1ebf;" horiz-adv-x="599" 
d="M630 844l-26 28l-163 -162l25 -25zM294 758l-150 -168l39 -21l120 137l120 -137l39 21l-150 168h-18zM523 268q-5 95 -69 155t-155 60q-88 0 -151.5 -60t-71.5 -155h447zM76 234q8 -94 73 -154.5t156 -60.5q68 0 123 34t83 93l32 -14q-32 -69 -96 -109.5t-142 -40.5
q-110 0 -187 76t-77 193t75.5 193t183.5 76t183 -72.5t75 -184.5q0 -5 -0.5 -9.5t-0.5 -10v-9.5h-481z" />
    <glyph glyph-name="uni1EC0" unicode="&#x1ec0;" horiz-adv-x="545" 
d="M347 1081l27 29l162 -163l-23 -25zM272 967l-150 -168l39 -21l120 137l120 -137l39 21l-150 168h-18zM96 368h384v-34h-384v-301h408v-33h-443v700h443v-33h-408v-299z" />
    <glyph glyph-name="uni1EC1" unicode="&#x1ec1;" horiz-adv-x="599" 
d="M389 844l27 29l162 -163l-23 -25zM294 758l-150 -168l39 -21l120 137l120 -137l39 21l-150 168h-18zM523 268q-5 95 -69 155t-155 60q-88 0 -151.5 -60t-71.5 -155h447zM76 234q8 -94 73 -154.5t156 -60.5q68 0 123 34t83 93l32 -14q-32 -69 -96 -109.5t-142 -40.5
q-110 0 -187 76t-77 193t75.5 193t183.5 76t183 -72.5t75 -184.5q0 -5 -0.5 -9.5t-0.5 -10v-9.5h-481z" />
    <glyph glyph-name="uni1EC2" unicode="&#x1ec2;" horiz-adv-x="545" 
d="M466 913l-24 29l31 22q33 18 33 50q0 20 -13 32t-33 12q-37 0 -45 -36l-35 14q8 29 30 45.5t52 16.5q38 0 62 -23.5t24 -60.5q0 -28 -15.5 -48t-48.5 -41zM272 967l-150 -168l39 -21l120 137l120 -137l39 21l-150 168h-18zM96 368h384v-34h-384v-301h408v-33h-443v700
h443v-33h-408v-299z" />
    <glyph glyph-name="uni1EC3" unicode="&#x1ec3;" horiz-adv-x="599" 
d="M508 676l-24 29l31 22q33 18 33 50q0 20 -13 32t-33 12q-37 0 -45 -36l-35 14q8 29 30 45.5t52 16.5q38 0 62 -23.5t24 -60.5q0 -28 -15.5 -48t-48.5 -41zM294 758l-150 -168l39 -21l120 137l120 -137l39 21l-150 168h-18zM523 268q-5 95 -69 155t-155 60
q-88 0 -151.5 -60t-71.5 -155h447zM76 234q8 -94 73 -154.5t156 -60.5q68 0 123 34t83 93l32 -14q-32 -69 -96 -109.5t-142 -40.5q-110 0 -187 76t-77 193t75.5 193t183.5 76t183 -72.5t75 -184.5q0 -5 -0.5 -9.5t-0.5 -10v-9.5h-481z" />
    <glyph glyph-name="uni1EC4" unicode="&#x1ec4;" horiz-adv-x="545" 
d="M211 1156q-30 0 -55 -28t-38 -77l37 -18q7 38 21.5 60t32.5 22q15 0 27.5 -8.5t34.5 -34.5q23 -25 42 -35t44 -10q32 0 57.5 28t37.5 77l-37 18q-7 -37 -23 -58t-36 -21q-16 0 -28 8t-34 34q-23 24 -41 33.5t-42 9.5zM272 967l-150 -168l39 -21l120 137l120 -137l39 21
l-150 168h-18zM96 368h384v-34h-384v-301h408v-33h-443v700h443v-33h-408v-299z" />
    <glyph glyph-name="uni1EC5" unicode="&#x1ec5;" horiz-adv-x="599" 
d="M228 957q-30 0 -55 -28t-38 -77l37 -18q7 38 21.5 60t32.5 22q15 0 27.5 -8.5t34.5 -34.5q23 -25 42 -35t44 -10q32 0 57.5 28t37.5 77l-37 18q-7 -37 -23 -58t-36 -21q-16 0 -28 8t-34 34q-23 24 -41 33.5t-42 9.5zM294 758l-150 -168l39 -21l120 137l120 -137l39 21
l-150 168h-18zM523 268q-5 95 -69 155t-155 60q-88 0 -151.5 -60t-71.5 -155h447zM76 234q8 -94 73 -154.5t156 -60.5q68 0 123 34t83 93l32 -14q-32 -69 -96 -109.5t-142 -40.5q-110 0 -187 76t-77 193t75.5 193t183.5 76t183 -72.5t75 -184.5q0 -5 -0.5 -9.5t-0.5 -10
v-9.5h-481z" />
    <glyph glyph-name="uni1EC6" unicode="&#x1ec6;" horiz-adv-x="545" 
d="M272 970l-150 -168l39 -21l120 137l120 -137l39 21l-150 168h-18zM259 -126.5q0 13.5 9 22.5t22 9t22 -9t9 -22.5t-9 -22.5t-22 -9t-22 9t-9 22.5zM96 368h384v-34h-384v-301h408v-33h-443v700h443v-33h-408v-299z" />
    <glyph glyph-name="uni1EC7" unicode="&#x1ec7;" horiz-adv-x="599" 
d="M292 772l-150 -168l39 -21l120 137l120 -137l39 21l-150 168h-18zM275 -126.5q0 13.5 9 22.5t22 9t22 -9t9 -22.5t-9 -22.5t-22 -9t-22 9t-9 22.5zM523 268q-5 95 -69 155t-155 60q-88 0 -151.5 -60t-71.5 -155h447zM76 234q8 -94 73 -154.5t156 -60.5q68 0 123 34t83 93
l32 -14q-32 -69 -96 -109.5t-142 -40.5q-110 0 -187 76t-77 193t75.5 193t183.5 76t183 -72.5t75 -184.5q0 -5 -0.5 -9.5t-0.5 -10v-9.5h-481z" />
    <glyph glyph-name="uni1EC8" unicode="&#x1ec8;" 
d="M78 768l-24 29l31 22q33 18 33 50q0 20 -13 32t-33 12q-37 0 -45 -36l-35 14q8 29 30 45.5t52 16.5q38 0 62 -23.5t24 -60.5q0 -28 -15.5 -48t-48.5 -41zM96 0h-35v700h35v-700z" />
    <glyph glyph-name="uni1EC9" unicode="&#x1ec9;" 
d="M78 559l-24 29l31 22q33 18 33 50q0 20 -13 32t-33 12q-37 0 -45 -36l-35 14q8 29 30 45.5t52 16.5q38 0 62 -23.5t24 -60.5q0 -28 -15.5 -48t-48.5 -41zM61 0v500h35v-500h-35z" />
    <glyph glyph-name="uni1ECA" unicode="&#x1eca;" 
d="M48 -126.5q0 13.5 9 22.5t22 9t22 -9t9 -22.5t-9 -22.5t-22 -9t-22 9t-9 22.5zM96 0h-35v700h35v-700z" />
    <glyph glyph-name="uni1ECB" unicode="&#x1ecb;" horiz-adv-x="159" 
d="M48 -126.5q0 13.5 9 22.5t22 9t22 -9t9 -22.5t-9 -22.5t-22 -9t-22 9t-9 22.5zM48 628.5q0 13.5 9 22.5t22.5 9t22.5 -9t9 -22.5t-9 -22.5t-22.5 -9t-22.5 9t-9 22.5zM62 0v500h35v-500h-35z" />
    <glyph glyph-name="uni1ECC" unicode="&#x1ecc;" horiz-adv-x="788" 
d="M363 -126.5q0 13.5 9 22.5t22 9t22 -9t9 -22.5t-9 -22.5t-22 -9t-22 9t-9 22.5zM76 353q0 -73 25.5 -136.5t68.5 -107t101 -68t123 -24.5t123 24.5t101 68t68.5 107t25.5 136.5q0 72 -25.5 134.5t-68.5 105.5t-101 67.5t-123 24.5t-123 -24.5t-101 -67.5t-68.5 -105.5
t-25.5 -134.5zM41 353q0 79 28 148t75.5 116.5t112.5 75t137 27.5t137 -27.5t112.5 -75t75.5 -116.5t28 -148q0 -80 -28 -149.5t-75.5 -118t-112.5 -76t-137 -27.5t-137 27.5t-112.5 76t-75.5 118t-28 149.5z" />
    <glyph glyph-name="uni1ECD" unicode="&#x1ecd;" horiz-adv-x="618" 
d="M276 -126.5q0 13.5 9 22.5t22 9t22 -9t9 -22.5t-9 -22.5t-22 -9t-22 9t-9 22.5zM76 251q0 -102 67.5 -167.5t165.5 -65.5t165.5 65.5t67.5 167.5t-67.5 167.5t-165.5 65.5t-165.5 -65.5t-67.5 -167.5zM41 251q0 117 78 193t190 76t190 -76t78 -193t-78 -193t-190 -76
t-190 76t-78 193z" />
    <glyph glyph-name="uni1ECE" unicode="&#x1ece;" horiz-adv-x="788" 
d="M393 768l-24 29l31 22q33 18 33 50q0 20 -13 32t-33 12q-37 0 -45 -36l-35 14q8 29 30 45.5t52 16.5q38 0 62 -23.5t24 -60.5q0 -28 -15.5 -48t-48.5 -41zM76 353q0 -73 25.5 -136.5t68.5 -107t101 -68t123 -24.5t123 24.5t101 68t68.5 107t25.5 136.5q0 72 -25.5 134.5
t-68.5 105.5t-101 67.5t-123 24.5t-123 -24.5t-101 -67.5t-68.5 -105.5t-25.5 -134.5zM41 353q0 79 28 148t75.5 116.5t112.5 75t137 27.5t137 -27.5t112.5 -75t75.5 -116.5t28 -148q0 -80 -28 -149.5t-75.5 -118t-112.5 -76t-137 -27.5t-137 27.5t-112.5 76t-75.5 118
t-28 149.5z" />
    <glyph glyph-name="uni1ECF" unicode="&#x1ecf;" horiz-adv-x="618" 
d="M307 559l-24 29l31 22q33 18 33 50q0 20 -13 32t-33 12q-37 0 -45 -36l-35 14q8 29 30 45.5t52 16.5q38 0 62 -23.5t24 -60.5q0 -28 -15.5 -48t-48.5 -41zM76 251q0 -102 67.5 -167.5t165.5 -65.5t165.5 65.5t67.5 167.5t-67.5 167.5t-165.5 65.5t-165.5 -65.5
t-67.5 -167.5zM41 251q0 117 78 193t190 76t190 -76t78 -193t-78 -193t-190 -76t-190 76t-78 193z" />
    <glyph glyph-name="uni1ED0" unicode="&#x1ed0;" horiz-adv-x="788" 
d="M718 1061l-26 28l-163 -162l25 -25zM385 967l-150 -168l39 -21l120 137l120 -137l39 21l-150 168h-18zM76 353q0 -73 25.5 -136.5t68.5 -107t101 -68t123 -24.5t123 24.5t101 68t68.5 107t25.5 136.5q0 72 -25.5 134.5t-68.5 105.5t-101 67.5t-123 24.5t-123 -24.5
t-101 -67.5t-68.5 -105.5t-25.5 -134.5zM41 353q0 79 28 148t75.5 116.5t112.5 75t137 27.5t137 -27.5t112.5 -75t75.5 -116.5t28 -148q0 -80 -28 -149.5t-75.5 -118t-112.5 -76t-137 -27.5t-137 27.5t-112.5 76t-75.5 118t-28 149.5z" />
    <glyph glyph-name="uni1ED1" unicode="&#x1ed1;" horiz-adv-x="618" 
d="M640 837l-26 28l-163 -162l25 -25zM299 758l-150 -168l39 -21l120 137l120 -137l39 21l-150 168h-18zM76 251q0 -102 67.5 -167.5t165.5 -65.5t165.5 65.5t67.5 167.5t-67.5 167.5t-165.5 65.5t-165.5 -65.5t-67.5 -167.5zM41 251q0 117 78 193t190 76t190 -76t78 -193
t-78 -193t-190 -76t-190 76t-78 193z" />
    <glyph glyph-name="uni1ED2" unicode="&#x1ed2;" horiz-adv-x="788" 
d="M477 1061l27 29l162 -163l-23 -25zM385 967l-150 -168l39 -21l120 137l120 -137l39 21l-150 168h-18zM76 353q0 -73 25.5 -136.5t68.5 -107t101 -68t123 -24.5t123 24.5t101 68t68.5 107t25.5 136.5q0 72 -25.5 134.5t-68.5 105.5t-101 67.5t-123 24.5t-123 -24.5
t-101 -67.5t-68.5 -105.5t-25.5 -134.5zM41 353q0 79 28 148t75.5 116.5t112.5 75t137 27.5t137 -27.5t112.5 -75t75.5 -116.5t28 -148q0 -80 -28 -149.5t-75.5 -118t-112.5 -76t-137 -27.5t-137 27.5t-112.5 76t-75.5 118t-28 149.5z" />
    <glyph glyph-name="uni1ED3" unicode="&#x1ed3;" horiz-adv-x="618" 
d="M399 837l27 29l162 -163l-23 -25zM299 758l-150 -168l39 -21l120 137l120 -137l39 21l-150 168h-18zM76 251q0 -102 67.5 -167.5t165.5 -65.5t165.5 65.5t67.5 167.5t-67.5 167.5t-165.5 65.5t-165.5 -65.5t-67.5 -167.5zM41 251q0 117 78 193t190 76t190 -76t78 -193
t-78 -193t-190 -76t-190 76t-78 193z" />
    <glyph glyph-name="uni1ED4" unicode="&#x1ed4;" horiz-adv-x="788" 
d="M596 893l-24 29l31 22q33 18 33 50q0 20 -13 32t-33 12q-37 0 -45 -36l-35 14q8 29 30 45.5t52 16.5q38 0 62 -23.5t24 -60.5q0 -28 -15.5 -48t-48.5 -41zM385 967l-150 -168l39 -21l120 137l120 -137l39 21l-150 168h-18zM76 353q0 -73 25.5 -136.5t68.5 -107t101 -68
t123 -24.5t123 24.5t101 68t68.5 107t25.5 136.5q0 72 -25.5 134.5t-68.5 105.5t-101 67.5t-123 24.5t-123 -24.5t-101 -67.5t-68.5 -105.5t-25.5 -134.5zM41 353q0 79 28 148t75.5 116.5t112.5 75t137 27.5t137 -27.5t112.5 -75t75.5 -116.5t28 -148q0 -80 -28 -149.5
t-75.5 -118t-112.5 -76t-137 -27.5t-137 27.5t-112.5 76t-75.5 118t-28 149.5z" />
    <glyph glyph-name="uni1ED5" unicode="&#x1ed5;" horiz-adv-x="618" 
d="M518 669l-24 29l31 22q33 18 33 50q0 20 -13 32t-33 12q-37 0 -45 -36l-35 14q8 29 30 45.5t52 16.5q38 0 62 -23.5t24 -60.5q0 -28 -15.5 -48t-48.5 -41zM299 758l-150 -168l39 -21l120 137l120 -137l39 21l-150 168h-18zM76 251q0 -102 67.5 -167.5t165.5 -65.5
t165.5 65.5t67.5 167.5t-67.5 167.5t-165.5 65.5t-165.5 -65.5t-67.5 -167.5zM41 251q0 117 78 193t190 76t190 -76t78 -193t-78 -193t-190 -76t-190 76t-78 193z" />
    <glyph glyph-name="uni1ED6" unicode="&#x1ed6;" horiz-adv-x="788" 
d="M320 1156q-30 0 -55 -28t-38 -77l37 -18q7 38 21.5 60t32.5 22q15 0 27.5 -8.5t34.5 -34.5q23 -25 42 -35t44 -10q32 0 57.5 28t37.5 77l-37 18q-7 -37 -23 -58t-36 -21q-16 0 -28 8t-34 34q-23 24 -41 33.5t-42 9.5zM385 967l-150 -168l39 -21l120 137l120 -137l39 21
l-150 168h-18zM76 353q0 -73 25.5 -136.5t68.5 -107t101 -68t123 -24.5t123 24.5t101 68t68.5 107t25.5 136.5q0 72 -25.5 134.5t-68.5 105.5t-101 67.5t-123 24.5t-123 -24.5t-101 -67.5t-68.5 -105.5t-25.5 -134.5zM41 353q0 79 28 148t75.5 116.5t112.5 75t137 27.5
t137 -27.5t112.5 -75t75.5 -116.5t28 -148q0 -80 -28 -149.5t-75.5 -118t-112.5 -76t-137 -27.5t-137 27.5t-112.5 76t-75.5 118t-28 149.5z" />
    <glyph glyph-name="uni1ED7" unicode="&#x1ed7;" horiz-adv-x="618" 
d="M234 957q-30 0 -55 -28t-38 -77l37 -18q7 38 21.5 60t32.5 22q15 0 27.5 -8.5t34.5 -34.5q23 -25 42 -35t44 -10q32 0 57.5 28t37.5 77l-37 18q-7 -37 -23 -58t-36 -21q-16 0 -28 8t-34 34q-23 24 -41 33.5t-42 9.5zM299 758l-150 -168l39 -21l120 137l120 -137l39 21
l-150 168h-18zM76 251q0 -102 67.5 -167.5t165.5 -65.5t165.5 65.5t67.5 167.5t-67.5 167.5t-165.5 65.5t-165.5 -65.5t-67.5 -167.5zM41 251q0 117 78 193t190 76t190 -76t78 -193t-78 -193t-190 -76t-190 76t-78 193z" />
    <glyph glyph-name="uni1ED8" unicode="&#x1ed8;" horiz-adv-x="788" 
d="M385 970l-150 -168l39 -21l120 137l120 -137l39 21l-150 168h-18zM363 -126.5q0 13.5 9 22.5t22 9t22 -9t9 -22.5t-9 -22.5t-22 -9t-22 9t-9 22.5zM76 353q0 -73 25.5 -136.5t68.5 -107t101 -68t123 -24.5t123 24.5t101 68t68.5 107t25.5 136.5q0 72 -25.5 134.5
t-68.5 105.5t-101 67.5t-123 24.5t-123 -24.5t-101 -67.5t-68.5 -105.5t-25.5 -134.5zM41 353q0 79 28 148t75.5 116.5t112.5 75t137 27.5t137 -27.5t112.5 -75t75.5 -116.5t28 -148q0 -80 -28 -149.5t-75.5 -118t-112.5 -76t-137 -27.5t-137 27.5t-112.5 76t-75.5 118
t-28 149.5z" />
    <glyph glyph-name="uni1ED9" unicode="&#x1ed9;" horiz-adv-x="618" 
d="M300 772l-150 -168l39 -21l120 137l120 -137l39 21l-150 168h-18zM276 -126.5q0 13.5 9 22.5t22 9t22 -9t9 -22.5t-9 -22.5t-22 -9t-22 9t-9 22.5zM76 251q0 -102 67.5 -167.5t165.5 -65.5t165.5 65.5t67.5 167.5t-67.5 167.5t-165.5 65.5t-165.5 -65.5t-67.5 -167.5z
M41 251q0 117 78 193t190 76t190 -76t78 -193t-78 -193t-190 -76t-190 76t-78 193z" />
    <glyph glyph-name="uni1EDA" unicode="&#x1eda;" horiz-adv-x="785" 
d="M515 936l-26 28l-163 -162l25 -25zM569 626v35h60q27 0 42 14t15 39.5t-23 42.5l27 28q35 -23 35 -71q0 -37 -27.5 -62.5t-66.5 -25.5h-62zM76 353q0 -73 25.5 -136.5t68.5 -107t101 -68t123 -24.5t123 24.5t101 68t68.5 107t25.5 136.5q0 72 -25.5 134.5t-68.5 105.5
t-101 67.5t-123 24.5t-123 -24.5t-101 -67.5t-68.5 -105.5t-25.5 -134.5zM41 353q0 79 28 148t75.5 116.5t112.5 75t137 27.5t137 -27.5t112.5 -75t75.5 -116.5t28 -148q0 -80 -28 -149.5t-75.5 -118t-112.5 -76t-137 -27.5t-137 27.5t-112.5 76t-75.5 118t-28 149.5z" />
    <glyph glyph-name="uni1EDB" unicode="&#x1edb;" horiz-adv-x="607" 
d="M429 727l-26 28l-163 -162l25 -25zM468 418v35h60q27 0 42 14t15 39.5t-23 42.5l27 28q35 -23 35 -71q0 -37 -27.5 -62.5t-66.5 -25.5h-62zM76 251q0 -102 67.5 -167.5t165.5 -65.5t165.5 65.5t67.5 167.5t-67.5 167.5t-165.5 65.5t-165.5 -65.5t-67.5 -167.5zM41 251
q0 117 78 193t190 76t190 -76t78 -193t-78 -193t-190 -76t-190 76t-78 193z" />
    <glyph glyph-name="uni1EDC" unicode="&#x1edc;" horiz-adv-x="785" 
d="M274 936l27 29l162 -163l-23 -25zM569 626v35h60q27 0 42 14t15 39.5t-23 42.5l27 28q35 -23 35 -71q0 -37 -27.5 -62.5t-66.5 -25.5h-62zM76 353q0 -73 25.5 -136.5t68.5 -107t101 -68t123 -24.5t123 24.5t101 68t68.5 107t25.5 136.5q0 72 -25.5 134.5t-68.5 105.5
t-101 67.5t-123 24.5t-123 -24.5t-101 -67.5t-68.5 -105.5t-25.5 -134.5zM41 353q0 79 28 148t75.5 116.5t112.5 75t137 27.5t137 -27.5t112.5 -75t75.5 -116.5t28 -148q0 -80 -28 -149.5t-75.5 -118t-112.5 -76t-137 -27.5t-137 27.5t-112.5 76t-75.5 118t-28 149.5z" />
    <glyph glyph-name="uni1EDD" unicode="&#x1edd;" horiz-adv-x="607" 
d="M188 727l27 29l162 -163l-23 -25zM468 418v35h60q27 0 42 14t15 39.5t-23 42.5l27 28q35 -23 35 -71q0 -37 -27.5 -62.5t-66.5 -25.5h-62zM76 251q0 -102 67.5 -167.5t165.5 -65.5t165.5 65.5t67.5 167.5t-67.5 167.5t-165.5 65.5t-165.5 -65.5t-67.5 -167.5zM41 251
q0 117 78 193t190 76t190 -76t78 -193t-78 -193t-190 -76t-190 76t-78 193z" />
    <glyph glyph-name="uni1EDE" unicode="&#x1ede;" horiz-adv-x="785" 
d="M393 768l-24 29l31 22q33 18 33 50q0 20 -13 32t-33 12q-37 0 -45 -36l-35 14q8 29 30 45.5t52 16.5q38 0 62 -23.5t24 -60.5q0 -28 -15.5 -48t-48.5 -41zM569 626v35h60q27 0 42 14t15 39.5t-23 42.5l27 28q35 -23 35 -71q0 -37 -27.5 -62.5t-66.5 -25.5h-62zM76 353
q0 -73 25.5 -136.5t68.5 -107t101 -68t123 -24.5t123 24.5t101 68t68.5 107t25.5 136.5q0 72 -25.5 134.5t-68.5 105.5t-101 67.5t-123 24.5t-123 -24.5t-101 -67.5t-68.5 -105.5t-25.5 -134.5zM41 353q0 79 28 148t75.5 116.5t112.5 75t137 27.5t137 -27.5t112.5 -75
t75.5 -116.5t28 -148q0 -80 -28 -149.5t-75.5 -118t-112.5 -76t-137 -27.5t-137 27.5t-112.5 76t-75.5 118t-28 149.5z" />
    <glyph glyph-name="uni1EDF" unicode="&#x1edf;" horiz-adv-x="607" 
d="M307 559l-24 29l31 22q33 18 33 50q0 20 -13 32t-33 12q-37 0 -45 -36l-35 14q8 29 30 45.5t52 16.5q38 0 62 -23.5t24 -60.5q0 -28 -15.5 -48t-48.5 -41zM468 418v35h60q27 0 42 14t15 39.5t-23 42.5l27 28q35 -23 35 -71q0 -37 -27.5 -62.5t-66.5 -25.5h-62zM76 251
q0 -102 67.5 -167.5t165.5 -65.5t165.5 65.5t67.5 167.5t-67.5 167.5t-165.5 65.5t-165.5 -65.5t-67.5 -167.5zM41 251q0 117 78 193t190 76t190 -76t78 -193t-78 -193t-190 -76t-190 76t-78 193z" />
    <glyph glyph-name="uni1EE0" unicode="&#x1ee0;" horiz-adv-x="785" 
d="M320 906q-30 0 -55 -28t-38 -77l37 -18q7 38 21.5 60t32.5 22q15 0 27.5 -8.5t34.5 -34.5q23 -25 42 -35t44 -10q32 0 57.5 28t37.5 77l-37 18q-7 -37 -23 -58t-36 -21q-16 0 -28 8t-34 34q-23 24 -41 33.5t-42 9.5zM569 626v35h60q27 0 42 14t15 39.5t-23 42.5l27 28
q35 -23 35 -71q0 -37 -27.5 -62.5t-66.5 -25.5h-62zM76 353q0 -73 25.5 -136.5t68.5 -107t101 -68t123 -24.5t123 24.5t101 68t68.5 107t25.5 136.5q0 72 -25.5 134.5t-68.5 105.5t-101 67.5t-123 24.5t-123 -24.5t-101 -67.5t-68.5 -105.5t-25.5 -134.5zM41 353
q0 79 28 148t75.5 116.5t112.5 75t137 27.5t137 -27.5t112.5 -75t75.5 -116.5t28 -148q0 -80 -28 -149.5t-75.5 -118t-112.5 -76t-137 -27.5t-137 27.5t-112.5 76t-75.5 118t-28 149.5z" />
    <glyph glyph-name="uni1EE1" unicode="&#x1ee1;" horiz-adv-x="607" 
d="M234 697q-30 0 -55 -28t-38 -77l37 -18q7 38 21.5 60t32.5 22q15 0 27.5 -8.5t34.5 -34.5q23 -25 42 -35t44 -10q32 0 57.5 28t37.5 77l-37 18q-7 -37 -23 -58t-36 -21q-16 0 -28 8t-34 34q-23 24 -41 33.5t-42 9.5zM468 418v35h60q27 0 42 14t15 39.5t-23 42.5l27 28
q35 -23 35 -71q0 -37 -27.5 -62.5t-66.5 -25.5h-62zM76 251q0 -102 67.5 -167.5t165.5 -65.5t165.5 65.5t67.5 167.5t-67.5 167.5t-165.5 65.5t-165.5 -65.5t-67.5 -167.5zM41 251q0 117 78 193t190 76t190 -76t78 -193t-78 -193t-190 -76t-190 76t-78 193z" />
    <glyph glyph-name="uni1EE2" unicode="&#x1ee2;" horiz-adv-x="785" 
d="M363 -126.5q0 13.5 9 22.5t22 9t22 -9t9 -22.5t-9 -22.5t-22 -9t-22 9t-9 22.5zM569 626v35h60q27 0 42 14t15 39.5t-23 42.5l27 28q35 -23 35 -71q0 -37 -27.5 -62.5t-66.5 -25.5h-62zM76 353q0 -73 25.5 -136.5t68.5 -107t101 -68t123 -24.5t123 24.5t101 68t68.5 107
t25.5 136.5q0 72 -25.5 134.5t-68.5 105.5t-101 67.5t-123 24.5t-123 -24.5t-101 -67.5t-68.5 -105.5t-25.5 -134.5zM41 353q0 79 28 148t75.5 116.5t112.5 75t137 27.5t137 -27.5t112.5 -75t75.5 -116.5t28 -148q0 -80 -28 -149.5t-75.5 -118t-112.5 -76t-137 -27.5
t-137 27.5t-112.5 76t-75.5 118t-28 149.5z" />
    <glyph glyph-name="uni1EE3" unicode="&#x1ee3;" horiz-adv-x="607" 
d="M276 -126.5q0 13.5 9 22.5t22 9t22 -9t9 -22.5t-9 -22.5t-22 -9t-22 9t-9 22.5zM468 418v35h60q27 0 42 14t15 39.5t-23 42.5l27 28q35 -23 35 -71q0 -37 -27.5 -62.5t-66.5 -25.5h-62zM76 251q0 -102 67.5 -167.5t165.5 -65.5t165.5 65.5t67.5 167.5t-67.5 167.5
t-165.5 65.5t-165.5 -65.5t-67.5 -167.5zM41 251q0 117 78 193t190 76t190 -76t78 -193t-78 -193t-190 -76t-190 76t-78 193z" />
    <glyph glyph-name="uni1EE4" unicode="&#x1ee4;" horiz-adv-x="690" 
d="M313 -126.5q0 13.5 9 22.5t22 9t22 -9t9 -22.5t-9 -22.5t-22 -9t-22 9t-9 22.5zM345 -11q-121 0 -202.5 78t-81.5 197v436h35v-426q0 -117 69.5 -183.5t179.5 -66.5t179.5 66.5t69.5 183.5v426h35v-436q0 -119 -81.5 -197t-202.5 -78z" />
    <glyph glyph-name="uni1EE5" unicode="&#x1ee5;" horiz-adv-x="501" 
d="M232 -126.5q0 13.5 9 22.5t22 9t22 -9t9 -22.5t-9 -22.5t-22 -9t-22 9t-9 22.5zM439 500v-500h-35v500h35zM96 500v-328q0 -69 40.5 -108t103.5 -39q68 0 116 43.5t48 104.5h36q0 -74 -59 -129t-145 -55q-74 0 -124.5 50.5t-50.5 126.5v334h35z" />
    <glyph glyph-name="uni1EE6" unicode="&#x1ee6;" horiz-adv-x="690" 
d="M344 768l-24 29l31 22q33 18 33 50q0 20 -13 32t-33 12q-37 0 -45 -36l-35 14q8 29 30 45.5t52 16.5q38 0 62 -23.5t24 -60.5q0 -28 -15.5 -48t-48.5 -41zM345 -11q-121 0 -202.5 78t-81.5 197v436h35v-426q0 -117 69.5 -183.5t179.5 -66.5t179.5 66.5t69.5 183.5v426h35
v-436q0 -119 -81.5 -197t-202.5 -78z" />
    <glyph glyph-name="uni1EE7" unicode="&#x1ee7;" horiz-adv-x="501" 
d="M252 559l-24 29l31 22q33 18 33 50q0 20 -13 32t-33 12q-37 0 -45 -36l-35 14q8 29 30 45.5t52 16.5q38 0 62 -23.5t24 -60.5q0 -28 -15.5 -48t-48.5 -41zM439 500v-500h-35v500h35zM96 500v-328q0 -69 40.5 -108t103.5 -39q68 0 116 43.5t48 104.5h36q0 -74 -59 -129
t-145 -55q-74 0 -124.5 50.5t-50.5 126.5v334h35z" />
    <glyph glyph-name="uni1EE8" unicode="&#x1ee8;" horiz-adv-x="673" 
d="M466 936l-26 28l-163 -162l25 -25zM589 626v35h60q27 0 42 14t15 39.5t-23 42.5l27 28q35 -23 35 -71q0 -37 -27.5 -62.5t-66.5 -25.5h-62zM345 -11q-121 0 -202.5 78t-81.5 197v436h35v-426q0 -117 69.5 -183.5t179.5 -66.5t179.5 66.5t69.5 183.5v426h35v-436
q0 -119 -81.5 -197t-202.5 -78z" />
    <glyph glyph-name="uni1EE9" unicode="&#x1ee9;" horiz-adv-x="551" 
d="M374 727l-26 28l-163 -162l25 -25zM410 418v35h60q27 0 42 14t15 39.5t-23 42.5l27 28q35 -23 35 -71q0 -37 -27.5 -62.5t-66.5 -25.5h-62zM439 500v-500h-35v500h35zM96 500v-328q0 -69 40.5 -108t103.5 -39q68 0 116 43.5t48 104.5h36q0 -74 -59 -129t-145 -55
q-74 0 -124.5 50.5t-50.5 126.5v334h35z" />
    <glyph glyph-name="uni1EEA" unicode="&#x1eea;" horiz-adv-x="673" 
d="M225 936l27 29l162 -163l-23 -25zM589 626v35h60q27 0 42 14t15 39.5t-23 42.5l27 28q35 -23 35 -71q0 -37 -27.5 -62.5t-66.5 -25.5h-62zM345 -11q-121 0 -202.5 78t-81.5 197v436h35v-426q0 -117 69.5 -183.5t179.5 -66.5t179.5 66.5t69.5 183.5v426h35v-436
q0 -119 -81.5 -197t-202.5 -78z" />
    <glyph glyph-name="uni1EEB" unicode="&#x1eeb;" horiz-adv-x="551" 
d="M133 727l27 29l162 -163l-23 -25zM410 418v35h60q27 0 42 14t15 39.5t-23 42.5l27 28q35 -23 35 -71q0 -37 -27.5 -62.5t-66.5 -25.5h-62zM439 500v-500h-35v500h35zM96 500v-328q0 -69 40.5 -108t103.5 -39q68 0 116 43.5t48 104.5h36q0 -74 -59 -129t-145 -55
q-74 0 -124.5 50.5t-50.5 126.5v334h35z" />
    <glyph glyph-name="uni1EEC" unicode="&#x1eec;" horiz-adv-x="673" 
d="M344 768l-24 29l31 22q33 18 33 50q0 20 -13 32t-33 12q-37 0 -45 -36l-35 14q8 29 30 45.5t52 16.5q38 0 62 -23.5t24 -60.5q0 -28 -15.5 -48t-48.5 -41zM589 626v35h60q27 0 42 14t15 39.5t-23 42.5l27 28q35 -23 35 -71q0 -37 -27.5 -62.5t-66.5 -25.5h-62zM345 -11
q-121 0 -202.5 78t-81.5 197v436h35v-426q0 -117 69.5 -183.5t179.5 -66.5t179.5 66.5t69.5 183.5v426h35v-436q0 -119 -81.5 -197t-202.5 -78z" />
    <glyph glyph-name="uni1EED" unicode="&#x1eed;" horiz-adv-x="551" 
d="M252 559l-24 29l31 22q33 18 33 50q0 20 -13 32t-33 12q-37 0 -45 -36l-35 14q8 29 30 45.5t52 16.5q38 0 62 -23.5t24 -60.5q0 -28 -15.5 -48t-48.5 -41zM410 418v35h60q27 0 42 14t15 39.5t-23 42.5l27 28q35 -23 35 -71q0 -37 -27.5 -62.5t-66.5 -25.5h-62zM439 500
v-500h-35v500h35zM96 500v-328q0 -69 40.5 -108t103.5 -39q68 0 116 43.5t48 104.5h36q0 -74 -59 -129t-145 -55q-74 0 -124.5 50.5t-50.5 126.5v334h35z" />
    <glyph glyph-name="uni1EEE" unicode="&#x1eee;" horiz-adv-x="673" 
d="M271 906q-30 0 -55 -28t-38 -77l37 -18q7 38 21.5 60t32.5 22q15 0 27.5 -8.5t34.5 -34.5q23 -25 42 -35t44 -10q32 0 57.5 28t37.5 77l-37 18q-7 -37 -23 -58t-36 -21q-16 0 -28 8t-34 34q-23 24 -41 33.5t-42 9.5zM589 626v35h60q27 0 42 14t15 39.5t-23 42.5l27 28
q35 -23 35 -71q0 -37 -27.5 -62.5t-66.5 -25.5h-62zM345 -11q-121 0 -202.5 78t-81.5 197v436h35v-426q0 -117 69.5 -183.5t179.5 -66.5t179.5 66.5t69.5 183.5v426h35v-436q0 -119 -81.5 -197t-202.5 -78z" />
    <glyph glyph-name="uni1EEF" unicode="&#x1eef;" horiz-adv-x="551" 
d="M180 697q-30 0 -55 -28t-38 -77l37 -18q7 38 21.5 60t32.5 22q15 0 27.5 -8.5t34.5 -34.5q23 -25 42 -35t44 -10q32 0 57.5 28t37.5 77l-37 18q-7 -37 -23 -58t-36 -21q-16 0 -28 8t-34 34q-23 24 -41 33.5t-42 9.5zM410 418v35h60q27 0 42 14t15 39.5t-23 42.5l27 28
q35 -23 35 -71q0 -37 -27.5 -62.5t-66.5 -25.5h-62zM439 500v-500h-35v500h35zM96 500v-328q0 -69 40.5 -108t103.5 -39q68 0 116 43.5t48 104.5h36q0 -74 -59 -129t-145 -55q-74 0 -124.5 50.5t-50.5 126.5v334h35z" />
    <glyph glyph-name="uni1EF0" unicode="&#x1ef0;" horiz-adv-x="673" 
d="M313 -126.5q0 13.5 9 22.5t22 9t22 -9t9 -22.5t-9 -22.5t-22 -9t-22 9t-9 22.5zM589 626v35h60q27 0 42 14t15 39.5t-23 42.5l27 28q35 -23 35 -71q0 -37 -27.5 -62.5t-66.5 -25.5h-62zM345 -11q-121 0 -202.5 78t-81.5 197v436h35v-426q0 -117 69.5 -183.5t179.5 -66.5
t179.5 66.5t69.5 183.5v426h35v-436q0 -119 -81.5 -197t-202.5 -78z" />
    <glyph glyph-name="uni1EF1" unicode="&#x1ef1;" horiz-adv-x="551" 
d="M232 -126.5q0 13.5 9 22.5t22 9t22 -9t9 -22.5t-9 -22.5t-22 -9t-22 9t-9 22.5zM410 418v35h60q27 0 42 14t15 39.5t-23 42.5l27 28q35 -23 35 -71q0 -37 -27.5 -62.5t-66.5 -25.5h-62zM439 500v-500h-35v500h35zM96 500v-328q0 -69 40.5 -108t103.5 -39q68 0 116 43.5
t48 104.5h36q0 -74 -59 -129t-145 -55q-74 0 -124.5 50.5t-50.5 126.5v334h35z" />
    <glyph glyph-name="Ygrave" unicode="&#x1ef2;" horiz-adv-x="651" 
d="M212 936l27 29l162 -163l-23 -25zM318 0h35v242l265 458h-42l-241 -418l-259 418h-43l285 -458v-242z" />
    <glyph glyph-name="ygrave" unicode="&#x1ef3;" horiz-adv-x="523" 
d="M140 727l27 29l162 -163l-23 -25zM446 500l-185 -434l-184 434h-44l204 -479l-89 -221h44l298 700h-44z" />
    <glyph glyph-name="uni1EF4" unicode="&#x1ef4;" horiz-adv-x="651" 
d="M305 -126.5q0 13.5 9 22.5t22 9t22 -9t9 -22.5t-9 -22.5t-22 -9t-22 9t-9 22.5zM318 0h35v242l265 458h-42l-241 -418l-259 418h-43l285 -458v-242z" />
    <glyph glyph-name="uni1EF5" unicode="&#x1ef5;" horiz-adv-x="523" 
d="M337 -126.5q0 13.5 9 22.5t22 9t22 -9t9 -22.5t-9 -22.5t-22 -9t-22 9t-9 22.5zM446 500l-185 -434l-184 434h-44l204 -479l-89 -221h44l298 700h-44z" />
    <glyph glyph-name="uni1EF6" unicode="&#x1ef6;" horiz-adv-x="651" 
d="M331 768l-24 29l31 22q33 18 33 50q0 20 -13 32t-33 12q-37 0 -45 -36l-35 14q8 29 30 45.5t52 16.5q38 0 62 -23.5t24 -60.5q0 -28 -15.5 -48t-48.5 -41zM318 0h35v242l265 458h-42l-241 -418l-259 418h-43l285 -458v-242z" />
    <glyph glyph-name="uni1EF7" unicode="&#x1ef7;" horiz-adv-x="523" 
d="M259 559l-24 29l31 22q33 18 33 50q0 20 -13 32t-33 12q-37 0 -45 -36l-35 14q8 29 30 45.5t52 16.5q38 0 62 -23.5t24 -60.5q0 -28 -15.5 -48t-48.5 -41zM446 500l-185 -434l-184 434h-44l204 -479l-89 -221h44l298 700h-44z" />
    <glyph glyph-name="uni1EF8" unicode="&#x1ef8;" horiz-adv-x="651" 
d="M258 906q-30 0 -55 -28t-38 -77l37 -18q7 38 21.5 60t32.5 22q15 0 27.5 -8.5t34.5 -34.5q23 -25 42 -35t44 -10q32 0 57.5 28t37.5 77l-37 18q-7 -37 -23 -58t-36 -21q-16 0 -28 8t-34 34q-23 24 -41 33.5t-42 9.5zM318 0h35v242l265 458h-42l-241 -418l-259 418h-43
l285 -458v-242z" />
    <glyph glyph-name="uni1EF9" unicode="&#x1ef9;" horiz-adv-x="523" 
d="M186 697q-30 0 -55 -28t-38 -77l37 -18q7 38 21.5 60t32.5 22q15 0 27.5 -8.5t34.5 -34.5q23 -25 42 -35t44 -10q32 0 57.5 28t37.5 77l-37 18q-7 -37 -23 -58t-36 -21q-16 0 -28 8t-34 34q-23 24 -41 33.5t-42 9.5zM446 500l-185 -434l-184 434h-44l204 -479l-89 -221
h44l298 700h-44z" />
    <glyph glyph-name="uni2010" unicode="&#x2010;" horiz-adv-x="291" 
d="M260 284v-35h-229v35h229z" />
    <glyph glyph-name="endash" unicode="&#x2013;" horiz-adv-x="494" 
d="M463 284v-35h-432v35h432z" />
    <glyph glyph-name="emdash" unicode="&#x2014;" horiz-adv-x="789" 
d="M758 284v-35h-727v35h727z" />
    <glyph glyph-name="quoteleft" unicode="&#x2018;" horiz-adv-x="211" 
d="M162 743q-43 -10 -70.5 -44.5t-27.5 -76.5q15 25 53 25q26 0 44.5 -19t18.5 -46.5t-19.5 -45.5t-49.5 -18q-41 0 -64 38q-17 27 -17 67q0 48 35.5 93.5t83.5 58.5z" />
    <glyph glyph-name="quoteright" unicode="&#x2019;" horiz-adv-x="211" 
d="M49 551q42 9 69.5 43.5t27.5 77.5q-15 -26 -52 -26q-27 0 -45.5 18.5t-18.5 46t20 46t49 18.5q41 0 64 -37q17 -28 17 -69q0 -48 -35 -92.5t-84 -58.5z" />
    <glyph glyph-name="quotesinglbase" unicode="&#x201a;" horiz-adv-x="211" 
d="M49 -94q42 10 69.5 44t27.5 77q-15 -26 -52 -26q-27 0 -45.5 18.5t-18.5 46t20 46t49 18.5q41 0 64 -37q17 -28 17 -69q0 -48 -35 -92.5t-84 -57.5z" />
    <glyph glyph-name="quotereversed" unicode="&#x201b;" horiz-adv-x="211" 
d="M162 551l-13 -33q-48 14 -83.5 59t-35.5 93q0 40 17 68q23 37 64 37q30 0 49.5 -18t19.5 -45.5t-18.5 -46.5t-44.5 -19q-38 0 -53 26q0 -43 27.5 -77.5t70.5 -43.5z" />
    <glyph glyph-name="quotedblleft" unicode="&#x201c;" horiz-adv-x="396" 
d="M347 743q-43 -10 -70.5 -44.5t-27.5 -76.5q15 25 53 25q26 0 44.5 -19t18.5 -46.5t-19.5 -45.5t-49.5 -18q-41 0 -64 38q-17 27 -17 67q0 48 35.5 93.5t83.5 58.5zM162 743q-43 -10 -70.5 -44.5t-27.5 -76.5q15 25 53 25q26 0 44.5 -19t18.5 -46.5t-19.5 -45.5t-49.5 -18
q-41 0 -64 38q-17 27 -17 67q0 48 35.5 93.5t83.5 58.5z" />
    <glyph glyph-name="quotedblright" unicode="&#x201d;" horiz-adv-x="396" 
d="M49 551q42 9 69.5 43.5t27.5 77.5q-15 -26 -52 -26q-27 0 -45.5 19t-18.5 46.5t20 45.5t49 18q41 0 64 -37q17 -28 17 -68q0 -48 -35.5 -93t-83.5 -59zM234 551q42 9 70 43.5t28 77.5q-16 -26 -53 -26q-27 0 -45.5 19t-18.5 46.5t20 45.5t49 18q41 0 64 -37
q17 -28 17 -68q0 -48 -35.5 -93t-83.5 -59z" />
    <glyph glyph-name="quotedblbase" unicode="&#x201e;" horiz-adv-x="396" 
d="M49 -94q42 10 69.5 44t27.5 77q-15 -26 -52 -26q-27 0 -45.5 19t-18.5 46.5t20 45.5t49 18q41 0 64 -37q17 -28 17 -68q0 -48 -35.5 -93t-83.5 -58zM234 -94q42 10 70 44t28 77q-16 -26 -53 -26q-27 0 -45.5 19t-18.5 46.5t20 45.5t49 18q41 0 64 -37q17 -28 17 -68
q0 -48 -35.5 -93t-83.5 -58z" />
    <glyph glyph-name="uni201F" unicode="&#x201f;" horiz-adv-x="396" 
d="M347 551l-13 -33q-48 14 -83.5 59t-35.5 93q0 40 17 68q23 37 64 37q30 0 49.5 -18t19.5 -45.5t-18.5 -46.5t-44.5 -19q-38 0 -53 26q0 -43 27.5 -77.5t70.5 -43.5zM162 551l-13 -33q-48 14 -83.5 59t-35.5 93q0 40 17 68q23 37 64 37q30 0 49.5 -18t19.5 -45.5
t-18.5 -46.5t-44.5 -19q-38 0 -53 26q0 -43 27.5 -77.5t70.5 -43.5z" />
    <glyph glyph-name="dagger" unicode="&#x2020;" horiz-adv-x="345" 
d="M147 608h53l-9 -118h123v-34h-123v-456h-35v456h-126v34h126z" />
    <glyph glyph-name="daggerdbl" unicode="&#x2021;" horiz-adv-x="345" 
d="M145 608h52l-9 -118h124v-34h-124v-304h126v-34h-126l10 -118h-53l9 118h-124v34h124v304h-126v34h126z" />
    <glyph glyph-name="bullet" unicode="&#x2022;" horiz-adv-x="157" 
d="M37 290q0 18 12 29.5t30 11.5q17 0 29 -11.5t12 -29.5t-12 -29.5t-30 -11.5t-29.5 11.5t-11.5 29.5z" />
    <glyph glyph-name="uni2023" unicode="&#x2023;" horiz-adv-x="157" 
d="M45 351l75 -61l-75 -61v122z" />
    <glyph glyph-name="ellipsis" unicode="&#x2026;" horiz-adv-x="470" 
d="M350 32.5q0 17.5 12 29.5t30 12q17 0 29 -12t12 -29.5t-12 -29.5t-30 -12t-29.5 12t-11.5 29.5zM193 32.5q0 17.5 12 29.5t30 12q17 0 29 -12t12 -29.5t-12 -29.5t-30 -12t-29.5 12t-11.5 29.5zM37 32.5q0 17.5 12 29.5t30 12q17 0 29 -12t12 -29.5t-12 -29.5t-30 -12
t-29.5 12t-11.5 29.5z" />
    <glyph glyph-name="perthousand" unicode="&#x2030;" horiz-adv-x="1146" 
d="M827 153q0 -55 36.5 -90t89 -35t89 35t36.5 90t-36.5 90t-89 35t-89 -35t-36.5 -90zM790 152.5q0 70.5 47 117t115.5 46.5t115.5 -46.5t47 -117t-47 -116.5t-115.5 -46t-115.5 46t-47 116.5zM446 153q0 -55 36.5 -90t89 -35t88.5 35t36 90t-36 90t-88.5 35t-89 -35
t-36.5 -90zM408 152.5q0 70.5 47.5 117t115.5 46.5t115.5 -46.5t47.5 -117t-47.5 -116.5t-115.5 -46t-115.5 46t-47.5 116.5zM68 547q0 -55 36.5 -90t89 -35t89 35t36.5 90t-36.5 90t-89 35t-89 -35t-36.5 -90zM31 547.5q0 70.5 47 116.5t115.5 46t115.5 -46t47 -116.5
t-47 -117t-115.5 -46.5t-115.5 46.5t-47 117zM259 0h-41l287 700h41z" />
    <glyph glyph-name="minute" unicode="&#x2032;" horiz-adv-x="160" 
d="M88 746l37 -9l-59 -217l-32 7z" />
    <glyph glyph-name="second" unicode="&#x2033;" horiz-adv-x="267" 
d="M195 746l38 -9l-59 -217l-33 7zM88 746l37 -9l-59 -217l-32 7z" />
    <glyph glyph-name="uni2034" unicode="&#x2034;" horiz-adv-x="375" 
d="M303 746l37 -9l-59 -217l-32 7zM195 746l38 -9l-59 -217l-33 7zM88 746l37 -9l-59 -217l-32 7z" />
    <glyph glyph-name="uni2035" unicode="&#x2035;" horiz-adv-x="160" 
d="M71 746l54 -219l-32 -7l-59 217z" />
    <glyph glyph-name="uni2036" unicode="&#x2036;" horiz-adv-x="267" 
d="M71 746l54 -219l-32 -7l-59 217zM179 746l54 -219l-33 -7l-59 217z" />
    <glyph glyph-name="uni2037" unicode="&#x2037;" horiz-adv-x="375" 
d="M71 746l54 -219l-32 -7l-59 217zM179 746l54 -219l-33 -7l-59 217zM286 746l54 -219l-32 -7l-59 217z" />
    <glyph glyph-name="fractionslash" unicode="&#x2044;" horiz-adv-x="27" 
d="M-110 0h-41l287 700h41z" />
    <glyph glyph-name="uni2070" unicode="&#x2070;" horiz-adv-x="256" 
d="M64 679q0 -28 19 -47t46 -19q25 0 43.5 19t18.5 47v72q0 29 -18.5 48t-43.5 19q-27 0 -46 -19t-19 -48v-72zM24 681v69q0 47 30.5 77.5t74.5 30.5q42 0 72 -30.5t30 -77.5v-69q0 -47 -30 -77.5t-72 -30.5q-44 0 -74.5 30.5t-30.5 77.5z" />
    <glyph glyph-name="uni2074" unicode="&#x2074;" horiz-adv-x="241" 
d="M62 678h82v119zM184 852v-174h32v-40h-32v-58h-40v58h-120v49l111 165h49z" />
    <glyph glyph-name="uni2075" unicode="&#x2075;" horiz-adv-x="256" 
d="M64 744v69h156v38h-196v-135l40 -18q33 38 72 38q24 0 39.5 -17.5t15.5 -43.5q0 -27 -17.5 -44t-45.5 -17q-26 0 -43 13.5t-23 37.5l-38 -13q11 -36 39.5 -57.5t66.5 -21.5q44 0 72.5 28.5t28.5 73.5q0 44 -26.5 74t-65.5 30q-43 0 -75 -35z" />
    <glyph glyph-name="uni2076" unicode="&#x2076;" horiz-adv-x="255" 
d="M197 777q-20 39 -61 39q-29 0 -48 -25.5t-22 -68.5q9 19 28 30t42 11q38 0 64.5 -28t26.5 -68t-27.5 -67t-69.5 -27q-48 0 -76 37q-30 39 -30 99q0 66 32 107.5t84 41.5q28 0 52.5 -13t37.5 -37zM75 669q0 -22 16.5 -37.5t40 -15.5t39 14t15.5 36q0 23 -16 38t-41 15
q-23 0 -38.5 -14t-15.5 -36z" />
    <glyph glyph-name="uni2077" unicode="&#x2077;" horiz-adv-x="252" 
d="M141 580l86 224v48h-203v-39h166l-95 -233h46z" />
    <glyph glyph-name="uni2078" unicode="&#x2078;" horiz-adv-x="254" 
d="M64 657.5q0 -18.5 18 -30t45 -11.5t44.5 11.5t17.5 30t-17.5 30t-44.5 11.5t-45 -11.5t-18 -30zM34 782q0 32 27 54t65.5 22t65.5 -22t27 -54q0 -44 -49 -63q59 -18 59 -66q0 -34 -29.5 -57t-72.5 -23t-73 23t-30 57q0 48 60 66q-50 19 -50 63zM126.5 736q21.5 0 37 12.5
t15.5 29.5t-14.5 27.5t-38 10.5t-38 -10.5t-14.5 -27.5t15.5 -29.5t37 -12.5z" />
    <glyph glyph-name="uni2079" unicode="&#x2079;" horiz-adv-x="255" 
d="M58 654q20 -38 60 -38q30 0 49 25t22 68q-9 -18 -28 -29t-42 -11q-38 0 -64.5 28t-26.5 67.5t27.5 66.5t69.5 27q48 0 76 -36q29 -39 29 -100q0 -66 -32 -107.5t-83 -41.5q-28 0 -52.5 13.5t-38.5 37.5zM180 762q0 23 -16.5 38.5t-40 15.5t-39 -14.5t-15.5 -36.5
q0 -23 16 -37.5t40 -14.5t39.5 14t15.5 35z" />
    <glyph glyph-name="uni2080" unicode="&#x2080;" horiz-adv-x="256" 
d="M64 -51q0 -29 19 -47.5t46 -18.5q25 0 43.5 18.5t18.5 47.5v72q0 29 -18.5 48t-43.5 19q-27 0 -46 -19t-19 -48v-72zM24 -50v69q0 47 30.5 78t74.5 31q42 0 72 -31t30 -78v-69q0 -46 -30 -76.5t-72 -30.5q-44 0 -74.5 30.5t-30.5 76.5z" />
    <glyph glyph-name="uni2081" unicode="&#x2081;" horiz-adv-x="178" 
d="M153 122v-272h-40v221l-59 -45l-30 32l87 64h42z" />
    <glyph glyph-name="uni2082" unicode="&#x2082;" horiz-adv-x="248" 
d="M222 29q0 42 -28 69.5t-69 27.5q-39 0 -64.5 -22.5t-36.5 -58.5l39 -14q16 55 63 55q24 0 41 -15.5t17 -39.5q0 -31 -62 -68l-97 -61v-52h198v38h-149l69 38q79 44 79 103z" />
    <glyph glyph-name="uni2083" unicode="&#x2083;" horiz-adv-x="246" 
d="M159 15l56 55v53h-179v-38h136l-74 -72l24 -32q29 0 44.5 -13t15.5 -37q0 -20 -15.5 -32.5t-39.5 -12.5q-25 0 -42.5 16.5t-23.5 45.5l-37 -15q10 -38 36 -62.5t64 -24.5q42 0 69.5 26.5t27.5 68.5q0 31 -17 50.5t-45 23.5z" />
    <glyph glyph-name="uni2084" unicode="&#x2084;" horiz-adv-x="241" 
d="M62 -52h82v120zM184 122v-174h32v-39h-32v-59h-40v59h-120v49l111 164h49z" />
    <glyph glyph-name="uni2085" unicode="&#x2085;" horiz-adv-x="256" 
d="M64 13v69h156v39h-196v-136l40 -18q33 39 72 39q24 0 39.5 -17.5t15.5 -44.5t-17.5 -43.5t-45.5 -16.5q-26 0 -43 13.5t-23 36.5l-38 -13q11 -36 39.5 -57.5t66.5 -21.5q44 0 72.5 29t28.5 73t-26.5 74t-65.5 30q-43 0 -75 -35z" />
    <glyph glyph-name="uni2086" unicode="&#x2086;" horiz-adv-x="255" 
d="M197 46q-20 39 -61 39q-29 0 -48 -25t-22 -68q9 18 28 29t42 11q38 0 64.5 -28t26.5 -67.5t-27.5 -66.5t-69.5 -27q-48 0 -76 36q-30 39 -30 100q0 66 32 107.5t84 41.5q28 0 52.5 -13.5t37.5 -37.5zM75 -61q0 -23 16.5 -38.5t40 -15.5t39 14.5t15.5 36.5q0 23 -16 37.5
t-41 14.5q-23 0 -38.5 -14t-15.5 -35z" />
    <glyph glyph-name="uni2087" unicode="&#x2087;" horiz-adv-x="252" 
d="M141 -150l86 224v48h-203v-38h166l-95 -234h46z" />
    <glyph glyph-name="uni2088" unicode="&#x2088;" horiz-adv-x="254" 
d="M64 -73q0 -18 18 -30t45 -12t44.5 12t17.5 30t-17.5 30t-44.5 12t-45 -12t-18 -30zM34 51q0 32 27 54.5t65.5 22.5t65.5 -22.5t27 -54.5q0 -44 -49 -63q59 -18 59 -66q0 -33 -29.5 -56t-72.5 -23t-73 23t-30 56q0 48 60 66q-50 19 -50 63zM126.5 5q21.5 0 37 12.5
t15.5 29.5t-14.5 27.5t-38 10.5t-38 -10.5t-14.5 -27.5t15.5 -29.5t37 -12.5z" />
    <glyph glyph-name="uni2089" unicode="&#x2089;" horiz-adv-x="255" 
d="M58 -76q20 -39 60 -39q30 0 49 25t22 68q-9 -18 -28 -29t-42 -11q-38 0 -64.5 28t-26.5 68t27.5 67t69.5 27q48 0 76 -37q29 -39 29 -99q0 -66 -32 -107.5t-83 -41.5q-28 0 -52.5 13t-38.5 37zM180 32q0 22 -16.5 37.5t-40 15.5t-39 -14t-15.5 -36q0 -23 16 -38t40 -15
t39.5 14t15.5 36z" />
    <glyph glyph-name="dong" unicode="&#x20ab;" horiz-adv-x="668" 
d="M641 -95v-37h-610v37h610zM572 251q0 -117 -75.5 -193t-185.5 -76q-113 0 -191.5 76t-78.5 193t78.5 193t191.5 76q110 0 185.5 -76t75.5 -193zM542 251q0 102 -68 167.5t-165 65.5t-165 -65.5t-68 -167.5t68 -167.5t165 -65.5t165 65.5t68 167.5zM577 0h-35v624h-250v34
h250v92h35v-92h91v-34h-91v-624z" />
    <glyph glyph-name="Euro" unicode="&#x20ac;" horiz-adv-x="836" 
d="M554 295v-42h-525v42h525zM554 467v-41h-525v41h525zM121 351q0 80 27.5 149t74.5 117t110.5 75.5t134.5 27.5q106 0 193 -58.5t132 -159.5l-33 -11q-40 90 -118.5 142t-173.5 52q-63 0 -120 -24.5t-99.5 -67.5t-67.5 -106t-25 -136t25 -136t67.5 -106t99.5 -67.5
t120 -24.5q98 0 177.5 54.5t118.5 148.5l34 -10q-43 -105 -132 -166.5t-198 -61.5q-71 0 -134.5 27.5t-110.5 75.5t-74.5 117t-27.5 149z" />
    <glyph glyph-name="uni20B4" unicode="&#x20b4;" horiz-adv-x="572" 
d="M526 305v-42h-377q-53 -42 -53 -102q0 -59 50 -97.5t125 -38.5q78 0 138.5 43.5t90.5 121.5l30 -15q-31 -85 -102 -135.5t-160 -50.5q-88 0 -147 48.5t-59 121.5q0 57 39 104h-70v42h495zM465 446h61v-42h-495v42h389q44 40 44 98q0 60 -45.5 96.5t-117.5 36.5
q-75 0 -134 -41t-88 -112l-27 16q29 79 97 126t152 47q86 0 141.5 -47t55.5 -120q0 -57 -33 -100z" />
    <glyph glyph-name="uni20B8" unicode="&#x20b8;" horiz-adv-x="587" 
d="M31 666v34h525v-34h-525zM556 581v-33h-245v-548h-35v548h-245v33h525z" />
    <glyph glyph-name="uni20BD" unicode="&#x20bd;" horiz-adv-x="615" 
d="M389 340h-220v-110h140v-37h-140v-193h-35v193h-103v37h103v110h-103v35h103v325h265q80 0 132.5 -50.5t52.5 -126.5q0 -77 -56.5 -130t-138.5 -53zM389 667h-220v-292h220q68 0 114 42.5t46 105.5q0 62 -45.5 103t-114.5 41z" />
    <glyph glyph-name="uni2103" unicode="&#x2103;" horiz-adv-x="1120" 
d="M383 351q0 80 28.5 149t77 117t114 75.5t138.5 27.5q109 0 198 -56.5t135 -153.5l-29 -16q-42 89 -123.5 140t-179.5 51q-66 0 -125 -24.5t-103 -67.5t-70 -106t-26 -136t26 -136t70 -106t103 -67.5t125 -24.5q101 0 183.5 53.5t123.5 145.5l30 -14q-44 -101 -135 -160.5
t-203 -59.5q-73 0 -138.5 27.5t-114 75.5t-77 117t-28.5 149zM68 570q0 -45 30 -74t73 -29t73 29t30 74t-30 73.5t-73 28.5t-73 -28.5t-30 -73.5zM31 570q0 61 40.5 100.5t99.5 39.5t99.5 -39.5t40.5 -100.5t-40.5 -100.5t-99.5 -39.5t-99.5 39.5t-40.5 100.5z" />
    <glyph glyph-name="uni2109" unicode="&#x2109;" horiz-adv-x="887" 
d="M438 368h384v-34h-384v-334h-35v700h443v-33h-408v-299zM68 570q0 -45 30 -74t73 -29t73 29t30 74t-30 73.5t-73 28.5t-73 -28.5t-30 -73.5zM31 570q0 61 40.5 100.5t99.5 39.5t99.5 -39.5t40.5 -100.5t-40.5 -100.5t-99.5 -39.5t-99.5 39.5t-40.5 100.5z" />
    <glyph glyph-name="trademark" unicode="&#x2122;" horiz-adv-x="413" 
d="M172 700v-27h-52v-145h-28v145h-50v27h130zM194 528v172h42l46 -105l45 105h44v-172h-29v131l-45 -103h-29l-46 103v-131h-28z" />
    <glyph glyph-name="estimated" unicode="&#x212e;" horiz-adv-x="598" 
d="M145 507v-133h309v135q-63 63 -155 63t-154 -65zM145 197q64 -67 159 -67q64 0 115.5 31t77.5 86l44 -17q-32 -68 -96 -108t-141 -40q-110 0 -186.5 76t-76.5 193t75 193t183 76t183 -73.5t75 -185.5q0 -11 -2 -32h-410v-132z" />
    <glyph glyph-name="arrowleft" unicode="&#x2190;" horiz-adv-x="715" 
d="M302 618l26 -25l-208 -207h542v-35h-541l207 -206l-26 -25l-250 249z" />
    <glyph glyph-name="arrowup" unicode="&#x2191;" horiz-adv-x="601" 
d="M548 423l-24 -24l-207 207v-542h-35v541l-205 -206l-25 24l249 250z" />
    <glyph glyph-name="arrowright" unicode="&#x2192;" horiz-adv-x="715" 
d="M412 101l-25 25l208 207h-543v35h542l-207 206l25 24l250 -248z" />
    <glyph glyph-name="arrowdown" unicode="&#x2193;" horiz-adv-x="601" 
d="M52 296l25 24l207 -208v543h35v-541l205 206l24 -24l-248 -250z" />
    <glyph glyph-name="arrowboth" unicode="&#x2194;" horiz-adv-x="839" 
d="M536 101l-25 25l208 207h-597l206 -205l-26 -24l-250 248l250 249l26 -25l-208 -207h596l-205 205l25 24l250 -248z" />
    <glyph glyph-name="arrowupdn" unicode="&#x2195;" horiz-adv-x="605" 
d="M52 234l25 25l207 -207v596l-205 -205l-24 25l248 250l249 -250l-24 -25l-208 207v-596l205 205l25 -25l-249 -250z" />
    <glyph glyph-name="uni2196" unicode="&#x2196;" horiz-adv-x="547" 
d="M404 583v-34h-294l384 -384l-25 -24l-382 383v-292h-35v352z" />
    <glyph glyph-name="uni2197" unicode="&#x2197;" horiz-adv-x="547" 
d="M494 232h-34v293l-384 -383l-24 23l383 383h-293v35l352 1v-352z" />
    <glyph glyph-name="uni2198" unicode="&#x2198;" horiz-adv-x="547" 
d="M142 136v34h294l-384 384l25 24l382 -383v292h35v-352z" />
    <glyph glyph-name="uni2199" unicode="&#x2199;" horiz-adv-x="547" 
d="M52 488h34v-295l384 385l24 -25l-383 -383h293v-33l-352 -1v352z" />
    <glyph glyph-name="approxequal" unicode="&#x2248;" horiz-adv-x="462" 
d="M157 257q-30 0 -55.5 -28.5t-37.5 -76.5l36 -18q7 36 22 57t33 21q15 0 27.5 -7.5t34.5 -31.5q23 -26 42 -35.5t44 -9.5q32 0 57.5 28t37.5 77l-37 18q-8 -36 -23.5 -55.5t-35.5 -19.5q-17 0 -28.5 7t-34.5 31q-22 24 -40 33.5t-42 9.5zM157 412q-30 0 -55.5 -28.5
t-37.5 -76.5l36 -18q7 36 22 57t33 21q15 0 27.5 -7.5t34.5 -31.5q23 -26 42 -35.5t44 -9.5q32 0 57.5 28t37.5 77l-37 18q-8 -36 -23.5 -55.5t-35.5 -19.5q-17 0 -28.5 7t-34.5 31q-22 24 -40 33.5t-42 9.5z" />
    <glyph glyph-name="notequal" unicode="&#x2260;" horiz-adv-x="340" 
d="M94 11h-44l208 493h43zM309 204v-34h-278v34h278zM309 368v-35h-278v35h278z" />
    <glyph glyph-name="lessequal" unicode="&#x2264;" horiz-adv-x="499" 
d="M458 9v-37h-427v37h427zM458 109v-41l-417 177v44l417 177v-42l-376 -158z" />
    <glyph glyph-name="greaterequal" unicode="&#x2265;" horiz-adv-x="499" 
d="M458 9v-37h-427v37h427zM41 424v42l417 -177v-44l-417 -177v41l376 158z" />
    <glyph glyph-name="filledbox" unicode="&#x25a0;" horiz-adv-x="820" 
d="M60 700h700v-700h-700v700z" />
    <glyph glyph-name="H22073" unicode="&#x25a1;" horiz-adv-x="820" 
d="M95 665v-630h630v630h-630zM60 700h700v-700h-700v700z" />
    <glyph glyph-name="H18543" unicode="&#x25aa;" horiz-adv-x="520" 
d="M60 570h400v-400h-400v400z" />
    <glyph glyph-name="H18551" unicode="&#x25ab;" horiz-adv-x="520" 
d="M98 532v-324h324v324h-324zM61 569h398v-398h-398v398z" />
    <glyph glyph-name="triagup" unicode="&#x25b2;" horiz-adv-x="820" 
d="M410 700l350 -700h-700z" />
    <glyph glyph-name="uni25B3" unicode="&#x25b3;" horiz-adv-x="820" 
d="M410 700l350 -700h-700zM410 603l-278 -563h556z" />
    <glyph glyph-name="uni25B6" unicode="&#x25b6;" horiz-adv-x="820" 
d="M760 350l-700 -350v700z" />
    <glyph glyph-name="uni25B7" unicode="&#x25b7;" horiz-adv-x="820" 
d="M760 350l-700 -350v700zM663 350l-563 278v-556z" />
    <glyph glyph-name="triagdn" unicode="&#x25bc;" horiz-adv-x="820" 
d="M410 0l-350 700h700z" />
    <glyph glyph-name="uni25BD" unicode="&#x25bd;" horiz-adv-x="820" 
d="M410 0l-350 700h700zM410 97l278 563h-556z" />
    <glyph glyph-name="uni25C0" unicode="&#x25c0;" horiz-adv-x="820" 
d="M60 350l700 350v-700z" />
    <glyph glyph-name="uni25C1" unicode="&#x25c1;" horiz-adv-x="820" 
d="M60 350l700 350v-700zM157 350l563 -278v556z" />
    <glyph glyph-name="uni25C6" unicode="&#x25c6;" horiz-adv-x="820" 
d="M53 350l357 357l357 -357l-357 -357z" />
    <glyph glyph-name="uni25C7" unicode="&#x25c7;" horiz-adv-x="820" 
d="M118 350l292 -292l292 292l-292 292zM53 350l357 357l357 -357l-357 -357z" />
    <glyph glyph-name="lozenge" unicode="&#x25ca;" horiz-adv-x="620" 
d="M110 350l200 -303l200 303l-200 303zM53 350l235 357h44l235 -357l-235 -357h-44z" />
    <glyph glyph-name="circle" unicode="&#x25cb;" horiz-adv-x="820" 
d="M108 350q0 -125 88.5 -213.5t213.5 -88.5t213.5 88.5t88.5 213.5t-88.5 213.5t-213.5 88.5t-213.5 -88.5t-88.5 -213.5zM53 350q0 148 104.5 252.5t252.5 104.5t252.5 -104.5t104.5 -252.5t-104.5 -252.5t-252.5 -104.5t-252.5 104.5t-104.5 252.5z" />
    <glyph glyph-name="H18533" unicode="&#x25cf;" horiz-adv-x="820" 
d="M53 350q0 148 104.5 252.5t252.5 104.5t252.5 -104.5t104.5 -252.5t-104.5 -252.5t-252.5 -104.5t-252.5 104.5t-104.5 252.5z" />
    <glyph glyph-name="zero.dnom" horiz-adv-x="256" 
d="M64 99q0 -29 19 -47.5t46 -18.5q25 0 43.5 18.5t18.5 47.5v72q0 29 -18.5 48t-43.5 19q-27 0 -46 -19t-19 -48v-72zM24 100v69q0 47 30.5 78t74.5 31q42 0 72 -31t30 -78v-69q0 -46 -30 -76.5t-72 -30.5q-44 0 -74.5 30.5t-30.5 76.5z" />
    <glyph glyph-name="one.dnom" horiz-adv-x="178" 
d="M153 272v-272h-40v221l-59 -45l-30 32l87 64h42z" />
    <glyph glyph-name="two.dnom" horiz-adv-x="248" 
d="M222 179q0 42 -28 69.5t-69 27.5q-39 0 -64.5 -22.5t-36.5 -58.5l39 -14q16 55 63 55q24 0 41 -15.5t17 -39.5q0 -31 -62 -68l-97 -61v-52h198v38h-149l69 38q79 44 79 103z" />
    <glyph glyph-name="three.dnom" horiz-adv-x="246" 
d="M159 165l56 55v53h-179v-38h136l-74 -72l24 -32q29 0 44.5 -13t15.5 -37q0 -20 -15.5 -32.5t-39.5 -12.5q-25 0 -42.5 16.5t-23.5 45.5l-37 -15q10 -38 36 -62.5t64 -24.5q42 0 69.5 26.5t27.5 68.5q0 31 -17 50.5t-45 23.5z" />
    <glyph glyph-name="four.dnom" horiz-adv-x="241" 
d="M62 98h82v120zM184 272v-174h32v-39h-32v-59h-40v59h-120v49l111 164h49z" />
    <glyph glyph-name="five.dnom" horiz-adv-x="256" 
d="M64 163v69h156v39h-196v-136l40 -18q33 39 72 39q24 0 39.5 -17.5t15.5 -44.5t-17.5 -43.5t-45.5 -16.5q-26 0 -43 13.5t-23 36.5l-38 -13q11 -36 39.5 -57.5t66.5 -21.5q44 0 72.5 29t28.5 73t-26.5 74t-65.5 30q-43 0 -75 -35z" />
    <glyph glyph-name="six.dnom" horiz-adv-x="255" 
d="M197 196q-20 39 -61 39q-29 0 -48 -25t-22 -68q9 18 28 29t42 11q38 0 64.5 -28t26.5 -67.5t-27.5 -66.5t-69.5 -27q-48 0 -76 36q-30 39 -30 100q0 66 32 107.5t84 41.5q28 0 52.5 -13.5t37.5 -37.5zM75 89q0 -23 16.5 -38.5t40 -15.5t39 14.5t15.5 36.5q0 23 -16 37.5
t-41 14.5q-23 0 -38.5 -14t-15.5 -35z" />
    <glyph glyph-name="seven.dnom" horiz-adv-x="252" 
d="M141 0l86 224v48h-203v-38h166l-95 -234h46z" />
    <glyph glyph-name="eight.dnom" horiz-adv-x="254" 
d="M64 77q0 -18 18 -30t45 -12t44.5 12t17.5 30t-17.5 30t-44.5 12t-45 -12t-18 -30zM34 201q0 32 27 54.5t65.5 22.5t65.5 -22.5t27 -54.5q0 -44 -49 -63q59 -18 59 -66q0 -33 -29.5 -56t-72.5 -23t-73 23t-30 56q0 48 60 66q-50 19 -50 63zM126.5 155q21.5 0 37 12.5
t15.5 29.5t-14.5 27.5t-38 10.5t-38 -10.5t-14.5 -27.5t15.5 -29.5t37 -12.5z" />
    <glyph glyph-name="nine.dnom" horiz-adv-x="255" 
d="M58 74q20 -39 60 -39q30 0 49 25t22 68q-9 -18 -28 -29t-42 -11q-38 0 -64.5 28t-26.5 68t27.5 67t69.5 27q48 0 76 -37q29 -39 29 -99q0 -66 -32 -107.5t-83 -41.5q-28 0 -52.5 13t-38.5 37zM180 182q0 22 -16.5 37.5t-40 15.5t-39 -14t-15.5 -36q0 -23 16 -38t40 -15
t39.5 14t15.5 36z" />
    <glyph glyph-name="zero.numr" horiz-adv-x="256" 
d="M64 529q0 -28 19 -47t46 -19q25 0 43.5 19t18.5 47v72q0 29 -18.5 48t-43.5 19q-27 0 -46 -19t-19 -48v-72zM24 531v69q0 47 30.5 77.5t74.5 30.5q42 0 72 -30.5t30 -77.5v-69q0 -47 -30 -77.5t-72 -30.5q-44 0 -74.5 30.5t-30.5 77.5z" />
    <glyph glyph-name="one.numr" horiz-adv-x="178" 
d="M153 702v-272h-40v220l-59 -44l-30 31l87 65h42z" />
    <glyph glyph-name="two.numr" horiz-adv-x="248" 
d="M222 609q0 42 -28 69.5t-69 27.5q-39 0 -64.5 -23t-36.5 -58l39 -14q16 55 63 55q24 0 41 -15.5t17 -40.5q0 -31 -62 -68l-97 -61v-51h198v37h-149l69 39q79 43 79 103z" />
    <glyph glyph-name="three.numr" horiz-adv-x="246" 
d="M159 594l56 55v52h-179v-38h136l-74 -72l24 -31q29 0 44.5 -13.5t15.5 -36.5q0 -20 -15.5 -33t-39.5 -13q-25 0 -42.5 16.5t-23.5 45.5l-37 -14q10 -39 36 -63.5t64 -24.5q42 0 69.5 27t27.5 68q0 31 -17 50.5t-45 24.5z" />
    <glyph glyph-name="four.numr" horiz-adv-x="241" 
d="M62 528h82v119zM184 702v-174h32v-40h-32v-58h-40v58h-120v49l111 165h49z" />
    <glyph glyph-name="five.numr" horiz-adv-x="256" 
d="M64 594v69h156v38h-196v-135l40 -18q33 38 72 38q24 0 39.5 -17.5t15.5 -43.5q0 -27 -17.5 -44t-45.5 -17q-26 0 -43 13.5t-23 37.5l-38 -13q11 -36 39.5 -57.5t66.5 -21.5q44 0 72.5 28.5t28.5 73.5q0 44 -26.5 74t-65.5 30q-43 0 -75 -35z" />
    <glyph glyph-name="six.numr" horiz-adv-x="255" 
d="M197 627q-20 39 -61 39q-29 0 -48 -25.5t-22 -68.5q9 19 28 30t42 11q38 0 64.5 -28t26.5 -68t-27.5 -67t-69.5 -27q-48 0 -76 37q-30 39 -30 99q0 66 32 107.5t84 41.5q28 0 52.5 -13t37.5 -37zM75 519q0 -22 16.5 -37.5t40 -15.5t39 14t15.5 36q0 23 -16 38t-41 15
q-23 0 -38.5 -14t-15.5 -36z" />
    <glyph glyph-name="seven.numr" horiz-adv-x="252" 
d="M141 430l86 224v48h-203v-39h166l-95 -233h46z" />
    <glyph glyph-name="eight.numr" horiz-adv-x="254" 
d="M64 507.5q0 -18.5 18 -30t45 -11.5t44.5 11.5t17.5 30t-17.5 30t-44.5 11.5t-45 -11.5t-18 -30zM34 632q0 32 27 54t65.5 22t65.5 -22t27 -54q0 -44 -49 -63q59 -18 59 -66q0 -34 -29.5 -57t-72.5 -23t-73 23t-30 57q0 48 60 66q-50 19 -50 63zM126.5 586q21.5 0 37 12.5
t15.5 29.5t-14.5 27.5t-38 10.5t-38 -10.5t-14.5 -27.5t15.5 -29.5t37 -12.5z" />
    <glyph glyph-name="nine.numr" horiz-adv-x="255" 
d="M58 504q20 -38 60 -38q30 0 49 25t22 68q-9 -18 -28 -29t-42 -11q-38 0 -64.5 28t-26.5 67.5t27.5 66.5t69.5 27q48 0 76 -36q29 -39 29 -100q0 -66 -32 -107.5t-83 -41.5q-28 0 -52.5 13.5t-38.5 37.5zM180 612q0 23 -16.5 38.5t-40 15.5t-39 -14.5t-15.5 -36.5
q0 -23 16 -37.5t40 -14.5t39.5 14t15.5 35z" />
    <glyph glyph-name="zero.tabl" horiz-adv-x="610" 
d="M77 303q0 -125 66.5 -205.5t161.5 -80.5t161.5 80.5t66.5 205.5v93q0 125 -66.5 205.5t-161.5 80.5t-161.5 -80.5t-66.5 -205.5v-93zM42 303v93q0 139 76.5 230t186.5 91t186.5 -91t76.5 -230v-93q0 -139 -76.5 -230t-186.5 -91t-186.5 91t-76.5 230z" />
    <glyph glyph-name="one.tabl" horiz-adv-x="610" 
d="M566 32v-32h-522v32h246v622l-219 -174l-26 23l245 197h35v-668h241z" />
    <glyph glyph-name="two.tabl" horiz-adv-x="610" 
d="M557 481q0 99 -72.5 164.5t-176.5 65.5q-100 0 -164 -55.5t-91 -143.5l33 -13q57 177 222 177q89 0 151.5 -55t62.5 -140q0 -19 -6.5 -38.5t-14 -34t-25.5 -35t-27.5 -30.5t-34.5 -31t-32 -26.5t-33 -25.5l-289 -214v-46h497v32h-454l261 195q4 3 11 9q31 24 48.5 38
t46.5 42t45 50.5t29 53.5t13 61z" />
    <glyph glyph-name="three.tabl" horiz-adv-x="610" 
d="M325 431l232 223v46h-497v-32h464l-261 -250l26 -26q114 0 173.5 -53t59.5 -145q0 -74 -61.5 -122t-156.5 -48q-85 0 -142 41.5t-75 115.5l-35 -10q24 -81 90 -131.5t159 -50.5q112 0 184 59.5t72 152.5q0 96 -62.5 157t-169.5 73z" />
    <glyph glyph-name="four.tabl" horiz-adv-x="610" 
d="M80 262h329v389zM444 700v-438h122v-32h-122v-230h-35v230h-363v41l354 429h44z" />
    <glyph glyph-name="five.tabl" horiz-adv-x="610" 
d="M109 398v270h418v32h-453v-332l35 -18q44 51 99 79t111 28q84 0 138.5 -61.5t54.5 -155.5q0 -97 -58 -156.5t-153 -59.5q-78 0 -132.5 42t-71.5 116l-33 -10q23 -85 87.5 -134t152.5 -49q106 0 174.5 68.5t68.5 175.5q0 108 -67.5 183t-165.5 75q-54 0 -108.5 -24.5
t-96.5 -68.5z" />
    <glyph glyph-name="six.tabl" horiz-adv-x="610" 
d="M527 592q-30 43 -78.5 66.5t-106.5 23.5q-114 0 -185 -92.5t-81 -245.5q34 62 99 99t141 37q108 0 180.5 -71.5t72.5 -178t-72.5 -177.5t-182.5 -71q-74 0 -136 34t-95 96q-42 80 -42 202q0 183 85 293t221 110q67 0 123.5 -28t88.5 -77zM86 238q0 -92 68 -156.5
t164 -64.5q93 0 154.5 61.5t61.5 153.5q0 93 -62.5 153t-159.5 60t-161.5 -59t-64.5 -148z" />
    <glyph glyph-name="seven.tabl" horiz-adv-x="610" 
d="M263 0l304 658v42h-524v-32h493l-313 -668h40z" />
    <glyph glyph-name="eight.tabl" horiz-adv-x="610" 
d="M82 177q0 -70 65 -115t158 -45t158 45t65 115q0 74 -64.5 121.5t-158.5 47.5t-158.5 -47.5t-64.5 -121.5zM67 524q0 85 69.5 139.5t168.5 54.5t168.5 -54.5t69.5 -139.5q0 -54 -33.5 -96.5t-90.5 -66.5q65 -25 104.5 -72t39.5 -109q0 -86 -75.5 -142t-182.5 -56
t-182.5 56t-75.5 142q0 62 39.5 109t104.5 72q-57 24 -90.5 66.5t-33.5 96.5zM305 374q85 0 144 43.5t59 110.5t-59 111t-144 44t-144 -44t-59 -111t59 -110.5t144 -43.5z" />
    <glyph glyph-name="nine.tabl" horiz-adv-x="610" 
d="M83 108q30 -44 78.5 -67.5t106.5 -23.5q114 0 185 92.5t81 245.5q-34 -62 -99 -99t-141 -37q-108 0 -180.5 71.5t-72.5 178t72.5 177.5t182.5 71q74 0 136 -34t95 -96q42 -80 42 -202q0 -183 -85 -293t-221 -110q-67 0 -123.5 28t-88.5 77zM524 461q0 92 -68 156.5
t-164 64.5q-93 0 -154.5 -61.5t-61.5 -153.5q0 -93 62.5 -153t159.5 -60t161.5 59t64.5 148z" />
    <glyph glyph-name="zero.slsh" horiz-adv-x="648" 
d="M94 133l444 444l26 -25l-442 -442zM76 323q0 -134 72 -220t176 -86t176 86t72 220v53q0 134 -72 220t-176 86t-176 -86t-72 -220v-53zM41 323v53q0 148 82.5 244.5t200.5 96.5t200.5 -96.5t82.5 -244.5v-53q0 -148 -82.5 -244.5t-200.5 -96.5t-200.5 96.5t-82.5 244.5z
" />
    <glyph glyph-name="a.ss01" horiz-adv-x="638" 
d="M577 0h-35v500h35v-500zM542 251q0 102 -68 167.5t-165 65.5t-165 -65.5t-68 -167.5t68 -167.5t165 -65.5t165 65.5t68 167.5zM572 251q0 -117 -75.5 -193t-185.5 -76q-113 0 -191.5 76t-78.5 193t78.5 193t191.5 76q110 0 185.5 -76t75.5 -193z" />
    <glyph glyph-name="agrave.ss01" horiz-adv-x="638" 
d="M183 727l27 29l162 -163l-23 -25zM577 0h-35v500h35v-500zM542 251q0 102 -68 167.5t-165 65.5t-165 -65.5t-68 -167.5t68 -167.5t165 -65.5t165 65.5t68 167.5zM572 251q0 -117 -75.5 -193t-185.5 -76q-113 0 -191.5 76t-78.5 193t78.5 193t191.5 76q110 0 185.5 -76
t75.5 -193z" />
    <glyph glyph-name="aacute.ss01" horiz-adv-x="638" 
d="M424 727l-26 28l-163 -162l25 -25zM577 0h-35v500h35v-500zM542 251q0 102 -68 167.5t-165 65.5t-165 -65.5t-68 -167.5t68 -167.5t165 -65.5t165 65.5t68 167.5zM572 251q0 -117 -75.5 -193t-185.5 -76q-113 0 -191.5 76t-78.5 193t78.5 193t191.5 76q110 0 185.5 -76
t75.5 -193z" />
    <glyph glyph-name="acircumflex.ss01" horiz-adv-x="638" 
d="M294 758l-150 -168l39 -21l120 137l120 -137l39 21l-150 168h-18zM577 0h-35v500h35v-500zM542 251q0 102 -68 167.5t-165 65.5t-165 -65.5t-68 -167.5t68 -167.5t165 -65.5t165 65.5t68 167.5zM572 251q0 -117 -75.5 -193t-185.5 -76q-113 0 -191.5 76t-78.5 193
t78.5 193t191.5 76q110 0 185.5 -76t75.5 -193z" />
    <glyph glyph-name="atilde.ss01" horiz-adv-x="638" 
d="M229 697q-30 0 -55 -28t-38 -77l37 -18q7 38 21.5 60t32.5 22q15 0 27.5 -8.5t34.5 -34.5q23 -25 42 -35t44 -10q32 0 57.5 28t37.5 77l-37 18q-7 -37 -23 -58t-36 -21q-16 0 -28 8t-34 34q-23 24 -41 33.5t-42 9.5zM577 0h-35v500h35v-500zM542 251q0 102 -68 167.5
t-165 65.5t-165 -65.5t-68 -167.5t68 -167.5t165 -65.5t165 65.5t68 167.5zM572 251q0 -117 -75.5 -193t-185.5 -76q-113 0 -191.5 76t-78.5 193t78.5 193t191.5 76q110 0 185.5 -76t75.5 -193z" />
    <glyph glyph-name="adieresis.ss01" horiz-adv-x="638" 
d="M355 599.5q0 13.5 9.5 22.5t22.5 9t22.5 -9t9.5 -22.5t-9.5 -22.5t-22.5 -9t-22.5 9t-9.5 22.5zM185 599.5q0 13.5 9.5 22.5t22.5 9t22.5 -9t9.5 -22.5t-9.5 -22.5t-22.5 -9t-22.5 9t-9.5 22.5zM577 0h-35v500h35v-500zM542 251q0 102 -68 167.5t-165 65.5t-165 -65.5
t-68 -167.5t68 -167.5t165 -65.5t165 65.5t68 167.5zM572 251q0 -117 -75.5 -193t-185.5 -76q-113 0 -191.5 76t-78.5 193t78.5 193t191.5 76q110 0 185.5 -76t75.5 -193z" />
    <glyph glyph-name="aring.ss01" horiz-adv-x="638" 
d="M249 660q0 -23 16 -38t38 -15t38 15t16 38t-16 38.5t-38 15.5t-38 -15.5t-16 -38.5zM211 660q0 40 27 66t65 26t65 -26t27 -66t-27 -66t-65 -26t-65 26t-27 66zM577 0h-35v500h35v-500zM542 251q0 102 -68 167.5t-165 65.5t-165 -65.5t-68 -167.5t68 -167.5t165 -65.5
t165 65.5t68 167.5zM572 251q0 -117 -75.5 -193t-185.5 -76q-113 0 -191.5 76t-78.5 193t78.5 193t191.5 76q110 0 185.5 -76t75.5 -193z" />
    <glyph glyph-name="ae.ss01" horiz-adv-x="1108" 
d="M1032 271q-4 93 -67 153t-155 60q-91 0 -154 -59.5t-71 -153.5h447zM585 234q8 -93 72.5 -153.5t156.5 -60.5q68 0 123 34t83 94l32 -14q-32 -70 -97 -110.5t-143 -40.5q-111 0 -185.5 77t-74.5 193q0 115 73.5 191.5t183.5 76.5q109 0 183 -73t74 -180q0 -14 -1 -34
h-480zM577 0h-35v500h35v-500zM542 251q0 100 -66.5 166.5t-166.5 66.5t-166.5 -66.5t-66.5 -166.5t66.5 -166.5t166.5 -66.5t166.5 66.5t66.5 166.5zM572 251q0 -115 -75 -192t-188 -77q-114 0 -191 77.5t-77 191.5t77 191.5t191 77.5q113 0 188 -77t75 -192z" />
    <glyph glyph-name="amacron.ss01" horiz-adv-x="638" 
d="M449 615v-37h-284v37h284zM577 0h-35v500h35v-500zM542 251q0 102 -68 167.5t-165 65.5t-165 -65.5t-68 -167.5t68 -167.5t165 -65.5t165 65.5t68 167.5zM572 251q0 -117 -75.5 -193t-185.5 -76q-113 0 -191.5 76t-78.5 193t78.5 193t191.5 76q110 0 185.5 -76t75.5 -193
z" />
    <glyph glyph-name="abreve.ss01" horiz-adv-x="638" 
d="M302 580q-59 0 -101 39.5t-42 96.5h38q0 -43 30 -71.5t76 -28.5q47 0 79.5 29t32.5 71h38q0 -55 -45 -95.5t-106 -40.5zM577 0h-35v500h35v-500zM542 251q0 102 -68 167.5t-165 65.5t-165 -65.5t-68 -167.5t68 -167.5t165 -65.5t165 65.5t68 167.5zM572 251
q0 -117 -75.5 -193t-185.5 -76q-113 0 -191.5 76t-78.5 193t78.5 193t191.5 76q110 0 185.5 -76t75.5 -193z" />
    <glyph glyph-name="aogonek.ss01" horiz-adv-x="638" 
d="M487 -17v17h30v-36l-51 -30q-32 -21 -32 -56q0 -24 15.5 -39t40.5 -15q42 0 51 44l29 -14q-8 -28 -30 -44.5t-53 -16.5q-38 0 -61.5 24.5t-23.5 62.5q0 58 64 90zM577 0h-35v500h35v-500zM542 251q0 102 -68 167.5t-165 65.5t-165 -65.5t-68 -167.5t68 -167.5t165 -65.5
t165 65.5t68 167.5zM572 251q0 -117 -75.5 -193t-185.5 -76q-113 0 -191.5 76t-78.5 193t78.5 193t191.5 76q110 0 185.5 -76t75.5 -193z" />
    <glyph glyph-name="uni1EA1.ss01" horiz-adv-x="638" 
d="M283 -126.5q0 13.5 9 22.5t22 9t22 -9t9 -22.5t-9 -22.5t-22 -9t-22 9t-9 22.5zM577 0h-35v500h35v-500zM542 251q0 102 -68 167.5t-165 65.5t-165 -65.5t-68 -167.5t68 -167.5t165 -65.5t165 65.5t68 167.5zM572 251q0 -117 -75.5 -193t-185.5 -76q-113 0 -191.5 76
t-78.5 193t78.5 193t191.5 76q110 0 185.5 -76t75.5 -193z" />
    <glyph glyph-name="uni1EA3.ss01" horiz-adv-x="638" 
d="M302 559l-24 29l31 22q33 18 33 50q0 20 -13 32t-33 12q-37 0 -45 -36l-35 14q8 29 30 45.5t52 16.5q38 0 62 -23.5t24 -60.5q0 -28 -15.5 -48t-48.5 -41zM577 0h-35v500h35v-500zM542 251q0 102 -68 167.5t-165 65.5t-165 -65.5t-68 -167.5t68 -167.5t165 -65.5
t165 65.5t68 167.5zM572 251q0 -117 -75.5 -193t-185.5 -76q-113 0 -191.5 76t-78.5 193t78.5 193t191.5 76q110 0 185.5 -76t75.5 -193z" />
    <glyph glyph-name="uni1EA5.ss01" horiz-adv-x="638" 
d="M595 855l-26 28l-163 -162l25 -25zM294 758l-150 -168l39 -21l120 137l120 -137l39 21l-150 168h-18zM577 0h-35v500h35v-500zM542 251q0 102 -68 167.5t-165 65.5t-165 -65.5t-68 -167.5t68 -167.5t165 -65.5t165 65.5t68 167.5zM572 251q0 -117 -75.5 -193t-185.5 -76
q-113 0 -191.5 76t-78.5 193t78.5 193t191.5 76q110 0 185.5 -76t75.5 -193z" />
    <glyph glyph-name="uni1EA7.ss01" horiz-adv-x="638" 
d="M354 855l27 29l162 -163l-23 -25zM294 758l-150 -168l39 -21l120 137l120 -137l39 21l-150 168h-18zM577 0h-35v500h35v-500zM542 251q0 102 -68 167.5t-165 65.5t-165 -65.5t-68 -167.5t68 -167.5t165 -65.5t165 65.5t68 167.5zM572 251q0 -117 -75.5 -193t-185.5 -76
q-113 0 -191.5 76t-78.5 193t78.5 193t191.5 76q110 0 185.5 -76t75.5 -193z" />
    <glyph glyph-name="uni1EA9.ss01" horiz-adv-x="638" 
d="M473 687l-24 29l31 22q33 18 33 50q0 20 -13 32t-33 12q-37 0 -45 -36l-35 14q8 29 30 45.5t52 16.5q38 0 62 -23.5t24 -60.5q0 -28 -15.5 -48t-48.5 -41zM294 758l-150 -168l39 -21l120 137l120 -137l39 21l-150 168h-18zM577 0h-35v500h35v-500zM542 251
q0 102 -68 167.5t-165 65.5t-165 -65.5t-68 -167.5t68 -167.5t165 -65.5t165 65.5t68 167.5zM572 251q0 -117 -75.5 -193t-185.5 -76q-113 0 -191.5 76t-78.5 193t78.5 193t191.5 76q110 0 185.5 -76t75.5 -193z" />
    <glyph glyph-name="uni1EAB.ss01" horiz-adv-x="638" 
d="M229 969q-30 0 -55 -28t-38 -77l37 -18q7 38 21.5 60t32.5 22q15 0 27.5 -8.5t34.5 -34.5q23 -25 42 -35t44 -10q32 0 57.5 28t37.5 77l-37 18q-7 -37 -23 -58t-36 -21q-16 0 -28 8t-34 34q-23 24 -41 33.5t-42 9.5zM294 758l-150 -168l39 -21l120 137l120 -137l39 21
l-150 168h-18zM577 0h-35v500h35v-500zM542 251q0 102 -68 167.5t-165 65.5t-165 -65.5t-68 -167.5t68 -167.5t165 -65.5t165 65.5t68 167.5zM572 251q0 -117 -75.5 -193t-185.5 -76q-113 0 -191.5 76t-78.5 193t78.5 193t191.5 76q110 0 185.5 -76t75.5 -193z" />
    <glyph glyph-name="uni1EAD.ss01" horiz-adv-x="638" 
d="M294 758l-150 -168l39 -21l120 137l120 -137l39 21l-150 168h-18zM283 -126.5q0 13.5 9 22.5t22 9t22 -9t9 -22.5t-9 -22.5t-22 -9t-22 9t-9 22.5zM577 0h-35v500h35v-500zM542 251q0 102 -68 167.5t-165 65.5t-165 -65.5t-68 -167.5t68 -167.5t165 -65.5t165 65.5
t68 167.5zM572 251q0 -117 -75.5 -193t-185.5 -76q-113 0 -191.5 76t-78.5 193t78.5 193t191.5 76q110 0 185.5 -76t75.5 -193z" />
    <glyph glyph-name="uni1EAF.ss01" horiz-adv-x="638" 
d="M472 932l-26 28l-163 -162l25 -25zM302 580q-59 0 -101 39.5t-42 96.5h38q0 -43 30 -71.5t76 -28.5q47 0 79.5 29t32.5 71h38q0 -55 -45 -95.5t-106 -40.5zM577 0h-35v500h35v-500zM542 251q0 102 -68 167.5t-165 65.5t-165 -65.5t-68 -167.5t68 -167.5t165 -65.5
t165 65.5t68 167.5zM572 251q0 -117 -75.5 -193t-185.5 -76q-113 0 -191.5 76t-78.5 193t78.5 193t191.5 76q110 0 185.5 -76t75.5 -193z" />
    <glyph glyph-name="uni1EB1.ss01" horiz-adv-x="638" 
d="M141 932l27 29l162 -163l-23 -25zM302 580q-59 0 -101 39.5t-42 96.5h38q0 -43 30 -71.5t76 -28.5q47 0 79.5 29t32.5 71h38q0 -55 -45 -95.5t-106 -40.5zM577 0h-35v500h35v-500zM542 251q0 102 -68 167.5t-165 65.5t-165 -65.5t-68 -167.5t68 -167.5t165 -65.5
t165 65.5t68 167.5zM572 251q0 -117 -75.5 -193t-185.5 -76q-113 0 -191.5 76t-78.5 193t78.5 193t191.5 76q110 0 185.5 -76t75.5 -193z" />
    <glyph glyph-name="uni1EB3.ss01" horiz-adv-x="638" 
d="M305 775l-24 29l31 22q33 18 33 50q0 20 -13 32t-33 12q-37 0 -45 -36l-35 14q8 29 30 45.5t52 16.5q38 0 62 -23.5t24 -60.5q0 -28 -15.5 -48t-48.5 -41zM302 580q-59 0 -101 39.5t-42 96.5h38q0 -43 30 -71.5t76 -28.5q47 0 79.5 29t32.5 71h38q0 -55 -45 -95.5
t-106 -40.5zM577 0h-35v500h35v-500zM542 251q0 102 -68 167.5t-165 65.5t-165 -65.5t-68 -167.5t68 -167.5t165 -65.5t165 65.5t68 167.5zM572 251q0 -117 -75.5 -193t-185.5 -76q-113 0 -191.5 76t-78.5 193t78.5 193t191.5 76q110 0 185.5 -76t75.5 -193z" />
    <glyph glyph-name="uni1EB5.ss01" horiz-adv-x="638" 
d="M232 902q-30 0 -55 -28t-38 -77l37 -18q7 38 21.5 60t32.5 22q15 0 27.5 -8.5t34.5 -34.5q23 -25 42 -35t44 -10q32 0 57.5 28t37.5 77l-37 18q-7 -37 -23 -58t-36 -21q-16 0 -28 8t-34 34q-23 24 -41 33.5t-42 9.5zM302 580q-59 0 -101 39.5t-42 96.5h38q0 -43 30 -71.5
t76 -28.5q47 0 79.5 29t32.5 71h38q0 -55 -45 -95.5t-106 -40.5zM577 0h-35v500h35v-500zM542 251q0 102 -68 167.5t-165 65.5t-165 -65.5t-68 -167.5t68 -167.5t165 -65.5t165 65.5t68 167.5zM572 251q0 -117 -75.5 -193t-185.5 -76q-113 0 -191.5 76t-78.5 193t78.5 193
t191.5 76q110 0 185.5 -76t75.5 -193z" />
    <glyph glyph-name="uni1EB7.ss01" horiz-adv-x="638" 
d="M302 580q-59 0 -101 39.5t-42 96.5h38q0 -43 30 -71.5t76 -28.5q47 0 79.5 29t32.5 71h38q0 -55 -45 -95.5t-106 -40.5zM283 -126.5q0 13.5 9 22.5t22 9t22 -9t9 -22.5t-9 -22.5t-22 -9t-22 9t-9 22.5zM577 0h-35v500h35v-500zM542 251q0 102 -68 167.5t-165 65.5
t-165 -65.5t-68 -167.5t68 -167.5t165 -65.5t165 65.5t68 167.5zM572 251q0 -117 -75.5 -193t-185.5 -76q-113 0 -191.5 76t-78.5 193t78.5 193t191.5 76q110 0 185.5 -76t75.5 -193z" />
    <glyph glyph-name="G.ss02" horiz-adv-x="797" 
d="M76 351q0 -73 25.5 -136t68.5 -106t101.5 -67.5t122.5 -24.5q131 0 223 86t96 222h-333v36h366v-361h-35v176q-44 -89 -128 -141.5t-185 -52.5q-73 0 -138.5 27.5t-113.5 75.5t-76.5 117t-28.5 149t28 149t76 117t112.5 75.5t136.5 27.5q103 0 188 -58t128 -158l-32 -12
q-39 89 -115 141t-169 52q-64 0 -122.5 -24.5t-101.5 -67.5t-68.5 -106t-25.5 -136z" />
    <glyph glyph-name="Gcircumflex.ss02" horiz-adv-x="797" 
d="M385 967l-150 -168l39 -21l120 137l120 -137l39 21l-150 168h-18zM76 351q0 -73 25.5 -136t68.5 -106t101.5 -67.5t122.5 -24.5q131 0 223 86t96 222h-333v36h366v-361h-35v176q-44 -89 -128 -141.5t-185 -52.5q-73 0 -138.5 27.5t-113.5 75.5t-76.5 117t-28.5 149
t28 149t76 117t112.5 75.5t136.5 27.5q103 0 188 -58t128 -158l-32 -12q-39 89 -115 141t-169 52q-64 0 -122.5 -24.5t-101.5 -67.5t-68.5 -106t-25.5 -136z" />
    <glyph glyph-name="Gbreve.ss02" horiz-adv-x="797" 
d="M393 789q-59 0 -101 39.5t-42 96.5h38q0 -43 30 -71.5t76 -28.5q47 0 79.5 29t32.5 71h38q0 -55 -45 -95.5t-106 -40.5zM76 351q0 -73 25.5 -136t68.5 -106t101.5 -67.5t122.5 -24.5q131 0 223 86t96 222h-333v36h366v-361h-35v176q-44 -89 -128 -141.5t-185 -52.5
q-73 0 -138.5 27.5t-113.5 75.5t-76.5 117t-28.5 149t28 149t76 117t112.5 75.5t136.5 27.5q103 0 188 -58t128 -158l-32 -12q-39 89 -115 141t-169 52q-64 0 -122.5 -24.5t-101.5 -67.5t-68.5 -106t-25.5 -136z" />
    <glyph glyph-name="Gdotaccent.ss02" horiz-adv-x="797" 
d="M363 808.5q0 13.5 9 22.5t22 9t22 -9t9 -22.5t-9 -22.5t-22 -9t-22 9t-9 22.5zM76 351q0 -73 25.5 -136t68.5 -106t101.5 -67.5t122.5 -24.5q131 0 223 86t96 222h-333v36h366v-361h-35v176q-44 -89 -128 -141.5t-185 -52.5q-73 0 -138.5 27.5t-113.5 75.5t-76.5 117
t-28.5 149t28 149t76 117t112.5 75.5t136.5 27.5q103 0 188 -58t128 -158l-32 -12q-39 89 -115 141t-169 52q-64 0 -122.5 -24.5t-101.5 -67.5t-68.5 -106t-25.5 -136z" />
    <glyph glyph-name="uni0122.ss02" horiz-adv-x="797" 
d="M427 -171q0 -18 -12.5 -31t-31 -13t-32 12.5t-13.5 30.5q0 17 10 29l67 96l28 -21l-44 -62q28 -12 28 -41zM76 351q0 -73 25.5 -136t68.5 -106t101.5 -67.5t122.5 -24.5q131 0 223 86t96 222h-333v36h366v-361h-35v176q-44 -89 -128 -141.5t-185 -52.5q-73 0 -138.5 27.5
t-113.5 75.5t-76.5 117t-28.5 149t28 149t76 117t112.5 75.5t136.5 27.5q103 0 188 -58t128 -158l-32 -12q-39 89 -115 141t-169 52q-64 0 -122.5 -24.5t-101.5 -67.5t-68.5 -106t-25.5 -136z" />
    </font>
</defs>
</svg>
