<?xml version="1.0" standalone="no"?>
<!DOCTYPE svg PUBLIC "-//W3C//DTD SVG 1.1//EN" "http://www.w3.org/Graphics/SVG/1.1/DTD/svg11.dtd" >
<svg xmlns="http://www.w3.org/2000/svg" xmlns:xlink="http://www.w3.org/1999/xlink" version="1.1">
<metadata>
Created by FontForge 20201107 at Wed Jan 18 09:10:44 2023
 By 
Copyright (c) 2022, RandomMaerks (Bao Nguyen) || For more information, send an email to rmforbusuness@gmail.com
</metadata>
<defs>
<font id="Cygre-SemiBoldIt" horiz-adv-x="788" >
  <font-face 
    font-family="Cygre SemiBold"
    font-weight="600"
    font-style="italic"
    font-stretch="normal"
    units-per-em="1000"
    panose-1="2 0 7 3 0 0 0 0 0 0"
    ascent="800"
    descent="-200"
    x-height="500"
    cap-height="700"
    bbox="-131 -307 1385 1257"
    underline-thickness="50"
    underline-position="-100"
    unicode-range="U+0020-25CF"
  />
<missing-glyph horiz-adv-x="364" 
d="M33 0v666h265v-666h-265zM66 33h199v600h-199v-600z" />
    <glyph glyph-name="f_i" unicode="fi" horiz-adv-x="628" 
d="M432 646q-35 0 -58.5 -25t-30.5 -64l-11 -57h221l-17 -101h-221l-70 -399h-110l69 399h-105l18 101h105l16 91q11 66 65 112.5t123 46.5h88l-18 -104h-64zM568 641q0 29 20 49t49 20t49 -20t20 -49t-20 -49t-49 -20t-49 20t-20 49zM465 0l88 500h112l-88 -500h-112z" />
    <glyph glyph-name="f_l" unicode="fl" horiz-adv-x="647" 
d="M432 646q-35 0 -58.5 -25t-30.5 -64l-11 -57h158l-18 -101h-157l-70 -399h-110l69 399h-105l18 101h105l16 91q11 66 65 112.5t123 46.5h187l-17 -104h-164zM481 0l132 750h112l-132 -750h-112z" />
    <glyph glyph-name="f_f_i" unicode="ffi" horiz-adv-x="996" 
d="M432 646q-35 0 -58.5 -25t-30.5 -64l-11 -57h158l-17 -101h-158l-70 -399h-110l69 399h-105l18 101h105l16 91q11 66 65 112.5t123 46.5h88l-18 -104h-64zM796 646q-35 0 -59 -25t-31 -64l-10 -57h225l-17 -101h-226l-69 -399h-111l70 399h-95l17 101h95l16 91
q12 66 66 112.5t123 46.5h88l-18 -104h-64zM936 641q0 29 20 49t49 20t49 -20t20 -49t-20 -49t-49 -20t-49 20t-20 49zM833 0l88 500h112l-88 -500h-112z" />
    <glyph glyph-name="f_f_l" unicode="ffl" horiz-adv-x="1000" 
d="M432 646q-35 0 -58.5 -25t-30.5 -64l-11 -57h158l-17 -101h-158l-70 -399h-110l69 399h-105l18 101h105l16 91q11 66 65 112.5t123 46.5h88l-18 -104h-64zM786 646q-35 0 -59 -25t-31 -64l-10 -57h158l-18 -101h-158l-69 -399h-111l70 399h-85l17 101h85l16 91
q12 66 66 112.5t123 46.5h187l-18 -104h-163zM835 0l132 750h111l-132 -750h-111z" />
    <glyph glyph-name="f_f" unicode="ff" horiz-adv-x="785" 
d="M432 646q-35 0 -58.5 -25t-30.5 -64l-11 -57h158l-17 -101h-158l-70 -399h-110l69 399h-105l18 101h105l16 91q12 66 65.5 112.5t122.5 46.5h88l-18 -104h-64zM790 646q-35 0 -58.5 -25t-30.5 -64l-11 -57h158l-18 -101h-157l-70 -399h-110l69 399h-89l17 101h90l16 91
q12 66 65.5 112.5t122.5 46.5h88l-18 -104h-64z" />
    <glyph glyph-name=".notdef" horiz-adv-x="364" 
d="M33 0v666h265v-666h-265zM66 33h199v600h-199v-600z" />
    <glyph glyph-name=".null" horiz-adv-x="0" 
 />
    <glyph glyph-name="nonmarkingreturn" horiz-adv-x="333" 
 />
    <glyph glyph-name="space" unicode=" " horiz-adv-x="270" 
 />
    <glyph glyph-name="exclam" unicode="!" horiz-adv-x="219" 
d="M47 64q0 34 22 57t55 23q35 0 58 -23t23 -57t-22.5 -56.5t-56.5 -22.5t-56.5 22.5t-22.5 56.5zM199 215h-101l76 485h121z" />
    <glyph glyph-name="quotedbl" unicode="&#x22;" horiz-adv-x="378" 
d="M385 767l94 -37l-100 -230l-89 34zM220 767l94 -37l-100 -230l-89 34z" />
    <glyph glyph-name="numbersign" unicode="#" horiz-adv-x="709" 
d="M775 530l-19 -107h-654l19 107h654zM734 300l-18 -107h-654l18 107h654zM410 0h-122l395 700h122zM150 0h-122l395 700h122z" />
    <glyph glyph-name="dollar" unicode="$" horiz-adv-x="464" 
d="M293 183q35 0 57.5 16.5t22.5 41.5q0 40 -91 64q-164 41 -164 144q0 68 54 117.5t136 49.5q74 0 131 -42.5t73 -113.5l-110 -23q-7 34 -32 58t-65 24q-32 0 -54 -16.5t-22 -40.5q0 -39 88 -62q82 -20 125 -58t43 -90q0 -67 -55.5 -114.5t-141.5 -47.5q-79 0 -140.5 42
t-78.5 110l109 26q8 -34 38.5 -59.5t76.5 -25.5zM283 581l23 119h100l-23 -119h-100zM208 138h100l-26 -138h-100z" />
    <glyph glyph-name="percent" unicode="%" horiz-adv-x="952" 
d="M773 267q-43 0 -72.5 -30.5t-29.5 -73.5q0 -37 25 -60.5t62 -23.5q43 0 72.5 30.5t29.5 73.5q0 37 -25 60.5t-62 23.5zM571 153q0 88 61.5 151t148.5 63q78 0 128.5 -49t50.5 -125q0 -88 -61.5 -151t-148.5 -63q-78 0 -128.5 49t-50.5 125zM314 619q-43 0 -72.5 -30.5
t-29.5 -73.5q0 -37 25 -60.5t62 -23.5q43 0 72.5 30.5t29.5 73.5q0 37 -25 60.5t-62 23.5zM112 505q0 88 61.5 151t148.5 63q78 0 128.5 -49t50.5 -125q0 -88 -61.5 -151t-148.5 -63q-78 0 -128.5 49t-50.5 125zM394 0h-124l411 700h124z" />
    <glyph glyph-name="ampersand" unicode="&#x26;" horiz-adv-x="673" 
d="M362 632q28 0 46.5 -15.5t18.5 -40.5q0 -50 -64 -94l-49 -32l-16 26q-26 43 -26 68q0 36 27 62t63 26zM530 590q0 61 -45 100.5t-115 39.5q-82 0 -141 -55t-59 -133q0 -62 46 -126l20 -30l-64 -45q-46 -30 -72 -76.5t-26 -96.5q0 -78 59.5 -129.5t150.5 -51.5
q80 0 137 49l51 42l80 -115l84 61l-78 112l110 83l-62 83l-108 -82l-121 162l49 32q46 29 75 78t29 98zM287 97q-41 0 -68.5 25.5t-27.5 63.5q0 51 50 88l53 40l116 -154l-46 -37q-32 -26 -77 -26z" />
    <glyph glyph-name="quotesingle" unicode="'" horiz-adv-x="213" 
d="M220 767l94 -37l-100 -230l-89 34z" />
    <glyph glyph-name="parenleft" unicode="(" horiz-adv-x="308" 
d="M86 272l37 212q19 107 86 182t160 95l21 -111q-59 -11 -103 -62t-57 -126l-34 -192q-4 -26 -4 -50q0 -61 27.5 -105t75.5 -59l-55 -101q-74 27 -117.5 93t-43.5 155q1 33 7 69z" />
    <glyph glyph-name="parenright" unicode=")" horiz-adv-x="308" 
d="M351 442l-37 -212q-19 -107 -86.5 -182.5t-160.5 -94.5l-20 110q59 11 103 62t57 126l34 192q4 26 4 50q0 61 -28 105t-75 59l55 102q74 -27 117 -93.5t43 -155.5q0 -34 -6 -68z" />
    <glyph glyph-name="asterisk" unicode="*" horiz-adv-x="500" 
d="M341 806l100 -18l-32 -151l153 27l14 -102l-154 -16l73 -137l-92 -44l-63 141l-107 -111l-72 73l116 103l-139 68l48 91l133 -78z" />
    <glyph glyph-name="plus" unicode="+" horiz-adv-x="402" 
d="M230 440h98l-22 -125h124l-17 -97h-124l-22 -125h-98l22 125h-125l17 97h125z" />
    <glyph glyph-name="comma" unicode="," horiz-adv-x="224" 
d="M97 133l107 -31l-107 -259l-87 24z" />
    <glyph glyph-name="hyphen" unicode="-" horiz-adv-x="402" 
d="M430 315l-17 -97h-347l17 97h347z" />
    <glyph glyph-name="period" unicode="." horiz-adv-x="224" 
d="M47 64q0 34 22 57t55 23q35 0 58 -23t23 -57t-22.5 -56.5t-56.5 -22.5t-56.5 22.5t-22.5 56.5z" />
    <glyph glyph-name="slash" unicode="/" horiz-adv-x="450" 
d="M158 0h-130l387 700h130z" />
    <glyph glyph-name="zero" unicode="0" horiz-adv-x="648" 
d="M572 416q0 85 -43.5 138t-110.5 53q-72 0 -130 -60t-74 -155l-10 -54q-4 -26 -4 -56q0 -84 43.5 -137t110.5 -53q72 0 130 60t74 156l10 52q4 30 4 56zM345 -18q-111 0 -183.5 81.5t-72.5 208.5q0 41 7 76l9 54q24 138 115.5 226.5t206.5 88.5q111 0 183.5 -81.5
t72.5 -209.5q0 -40 -7 -76l-9 -52q-24 -139 -115.5 -227.5t-206.5 -88.5z" />
    <glyph glyph-name="one" unicode="1" horiz-adv-x="412" 
d="M478 700l-123 -700h-110l101 575l-176 -110l-48 90l238 145h118z" />
    <glyph glyph-name="two" unicode="2" horiz-adv-x="571" 
d="M378 600q56 0 93 -33t37 -85q0 -17 -3.5 -30.5t-14.5 -28.5t-20.5 -25.5t-34.5 -28.5t-41.5 -29t-55.5 -36l-274 -172l-17 -132h495l12 110h-342l204 124q102 60 152 119t50 141q0 93 -65.5 154.5t-166.5 61.5q-85 0 -152 -48t-108 -130l101 -42q54 110 151 110z" />
    <glyph glyph-name="three" unicode="3" horiz-adv-x="571" 
d="M310 -11q113 0 187.5 70.5t74.5 178.5q0 68 -38 116t-104 64l204 154l17 128h-489l-13 -110h361l-218 -154l11 -78q75 -7 116.5 -41t41.5 -88q0 -58 -40 -94t-104 -36q-63 0 -101.5 34t-41.5 93l-108 -26q10 -97 76 -154t168 -57z" />
    <glyph glyph-name="four" unicode="4" horiz-adv-x="607" 
d="M199 300h218l48 262zM598 700l-71 -400h107l-19 -107h-107l-34 -193h-110l34 193h-330l17 132l378 375h135z" />
    <glyph glyph-name="five" unicode="5" horiz-adv-x="571" 
d="M580 262q0 96 -53.5 158t-136.5 62q-84 0 -160 -54l30 162h362l13 110h-467l-60 -336l104 -40q66 58 138 58q53 0 86.5 -34.5t33.5 -89.5q0 -68 -44 -113.5t-110 -45.5q-59 1 -95 33t-39 88l-113 -26q10 -93 75.5 -149t165.5 -56q114 0 192 78.5t78 194.5z" />
    <glyph glyph-name="six" unicode="6" horiz-adv-x="610" 
d="M86 240q0 133 48 242t131 170t181 61q77 0 137.5 -33.5t86.5 -91.5l-79 -72q-20 41 -63.5 64.5t-96.5 23.5q-76 0 -135 -59.5t-84 -161.5q33 44 83.5 69.5t107.5 25.5q93 0 154 -62.5t61 -157.5q0 -116 -81.5 -196.5t-198.5 -80.5q-116 0 -184 69.5t-68 189.5zM359 370
q-68 0 -114.5 -41t-46.5 -101q0 -58 44 -97.5t108 -39.5q65 0 111 44.5t46 108.5q0 55 -41.5 90.5t-106.5 35.5z" />
    <glyph glyph-name="seven" unicode="7" horiz-adv-x="533" 
d="M283 0l329 583l15 117h-474l-13 -108h346l-339 -592h136z" />
    <glyph glyph-name="eight" unicode="8" horiz-adv-x="598" 
d="M333 309q-65 0 -109 -33t-44 -79q0 -45 45.5 -75t111.5 -30q64 0 107 30t43 78q0 47 -44.5 78t-109.5 31zM147 514q0 85 71.5 144.5t177.5 59.5q101 0 169.5 -53.5t68.5 -133.5q0 -58 -41 -105t-109 -69q52 -27 81.5 -70.5t29.5 -94.5q0 -90 -76.5 -150t-189.5 -60
q-111 0 -186 55.5t-75 139.5q0 63 47 114.5t126 73.5q-44 25 -69 64.5t-25 84.5zM255 507q0 -42 38.5 -69t95.5 -27t95 28.5t38 71.5q0 42 -39 69.5t-95 27.5q-57 0 -95 -29.5t-38 -71.5z" />
    <glyph glyph-name="nine" unicode="9" horiz-adv-x="610" 
d="M646 454q0 -201 -105 -337t-256 -136q-77 0 -137.5 33.5t-86.5 91.5l79 72q21 -41 64 -64.5t96 -23.5q77 0 135.5 59.5t83.5 161.5q-32 -44 -83 -69.5t-108 -25.5q-93 0 -153.5 62.5t-60.5 157.5q0 116 81 196.5t198 80.5t185 -69.5t68 -189.5zM372 324q69 0 115.5 41
t46.5 101q0 58 -44 97.5t-108 39.5q-66 0 -112 -44.5t-46 -108.5q0 -55 41.5 -90.5t106.5 -35.5z" />
    <glyph glyph-name="colon" unicode=":" horiz-adv-x="224" 
d="M107 403q0 35 22 58t55 23q35 0 58 -23.5t23 -57.5t-22.5 -56.5t-56.5 -22.5t-56.5 22.5t-22.5 56.5zM46 64q0 34 22 57t56 23t57 -23t23 -57t-22.5 -56.5t-56 -22.5t-56.5 22.5t-23 56.5z" />
    <glyph glyph-name="semicolon" unicode=";" horiz-adv-x="224" 
d="M97 133l107 -31l-107 -259l-87 24zM106 403q0 35 22 58t55 23q35 0 58 -23.5t23 -57.5t-22.5 -56.5t-56.5 -22.5t-56.5 22.5t-22.5 56.5z" />
    <glyph glyph-name="less" unicode="&#x3c;" horiz-adv-x="505" 
d="M497 148l-20 -110l-407 158l25 144l463 158l-19 -122l-357 -112z" />
    <glyph glyph-name="equal" unicode="=" horiz-adv-x="402" 
d="M414 224l-17 -97h-347l17 97h347zM448 419l-17 -97h-347l17 97h347z" />
    <glyph glyph-name="greater" unicode="&#x3e;" horiz-adv-x="505" 
d="M104 390l19 108l407 -158l-25 -144l-463 -158l22 124l356 112z" />
    <glyph glyph-name="question" unicode="?" horiz-adv-x="551" 
d="M196 64.5q0 34.5 22.5 57t55.5 22.5q34 0 57 -23t23 -57t-22.5 -56.5t-56.5 -22.5t-56.5 22.5t-22.5 57zM366 601q52 0 85 -30t33 -76q0 -43 -23.5 -75t-84.5 -64l-104 -50l27 -94l109 52q98 45 142 103.5t44 138.5q0 90 -61.5 147.5t-156.5 57.5q-77 0 -140.5 -44.5
t-104.5 -126.5l95 -48q51 109 140 109z" />
    <glyph glyph-name="at" unicode="@" horiz-adv-x="793" 
d="M445 259q38 0 64.5 27t26.5 66q0 32 -22 53.5t-56 21.5q-38 0 -64.5 -27.5t-26.5 -65.5q0 -33 22 -54t56 -21zM568 372q0 -80 -47.5 -138t-113.5 -58q-57 0 -94 41.5t-37 104.5q0 78 49.5 135t116.5 57q56 0 91 -40t35 -102zM838 402q0 -104 -51 -171t-129 -67
q-54 0 -94.5 28t-40.5 66q0 5 1 11l40 231h90l-34 -200q-2 -8 -2 -14q0 -19 12 -30.5t34 -11.5q36 0 59 40t23 104q0 106 -74.5 176t-186.5 70q-83 0 -154 -42.5t-112 -115t-41 -157.5q0 -113 75.5 -185.5t192.5 -72.5q84 1 162 41l28 -77q-93 -49 -198 -49
q-154 0 -252.5 94.5t-98.5 241.5q1 112 54.5 207t145.5 150.5t201 55.5q149 0 249.5 -93.5t100.5 -229.5z" />
    <glyph glyph-name="A" unicode="A" horiz-adv-x="777" 
d="M164 0h-131l407 700h149l162 -700h-121l-131 576zM240 276h400l-18 -104h-400z" />
    <glyph glyph-name="B" unicode="B" horiz-adv-x="653" 
d="M466 404q42 0 76.5 32.5t34.5 73.5q0 36 -23 59t-60 23h-227l-33 -188h232zM419 108q49 0 83 32t34 76q0 37 -24.5 59.5t-64.5 22.5h-232l-33 -190h237zM645 219q0 -89 -69 -154t-165 -65h-359l123 700h349q75 0 121 -44t46 -115q0 -56 -34 -109t-88 -80
q37 -20 56.5 -54.5t19.5 -78.5z" />
    <glyph glyph-name="C" unicode="C" horiz-adv-x="778" 
d="M96 316q0 111 52 204t143 146.5t199 53.5t195.5 -61t120.5 -177l-106 -35q-20 74 -79.5 118.5t-139.5 44.5q-114 0 -194.5 -84.5t-80.5 -203.5q0 -100 65.5 -165t164.5 -65q71 0 133.5 39t101.5 108l98 -55q-57 -96 -146.5 -149.5t-193.5 -53.5q-144 0 -238.5 95.5
t-94.5 239.5z" />
    <glyph glyph-name="D" unicode="D" horiz-adv-x="703" 
d="M730 408q0 -111 -51 -204t-146 -148.5t-213 -55.5h-269l123 700h260q129 0 212.5 -83t83.5 -209zM328 106q87 0 154 40.5t102 106.5t35 144q0 89 -55.5 143t-148.5 54h-147l-86 -488h146z" />
    <glyph glyph-name="E" unicode="E" horiz-adv-x="572" 
d="M236 416h349l-18 -108h-349l-36 -200h372l-19 -108h-483l123 700h482l-19 -108h-370z" />
    <glyph glyph-name="F" unicode="F" horiz-adv-x="572" 
d="M236 416h349l-18 -108h-349l-54 -308h-112l123 700h482l-19 -108h-370z" />
    <glyph glyph-name="G" unicode="G" 
d="M489 610q-117 0 -200 -83.5t-83 -201.5q0 -103 64.5 -168t166.5 -65q94 0 161 50.5t88 139.5h-275l16 98h389q-6 -178 -113 -288t-273 -110q-147 0 -241 93.5t-94 238.5q0 110 54.5 203.5t147.5 148t202 54.5q110 0 195 -59.5t114 -156.5l-106 -41q-21 67 -78.5 107
t-134.5 40z" />
    <glyph glyph-name="H" unicode="H" horiz-adv-x="690" 
d="M52 0l122 700h112l-51 -288h361l50 288h110l-122 -700h-110l54 306h-361l-54 -306h-111z" />
    <glyph glyph-name="I" unicode="I" horiz-adv-x="220" 
d="M163 0h-112l123 700h111z" />
    <glyph glyph-name="J" unicode="J" horiz-adv-x="620" 
d="M173 229q8 -63 47.5 -96t104.5 -33q66 0 112 41t58 113l78 446h111l-82 -466q-19 -107 -99.5 -175.5t-187.5 -68.5q-103 0 -170.5 57.5t-80.5 155.5z" />
    <glyph glyph-name="K" unicode="K" horiz-adv-x="641" 
d="M52 0l123 700h111l-52 -294h26l326 294h151l-387 -350l261 -350h-138l-227 293h-31l-52 -293h-111z" />
    <glyph glyph-name="L" unicode="L" horiz-adv-x="562" 
d="M182 108h372l-20 -108h-482l123 700h111z" />
    <glyph glyph-name="M" unicode="M" horiz-adv-x="836" 
d="M51 0l123 700h126l160 -434l316 434h136l-124 -700h-111l91 511l-288 -401h-78l-148 406l-91 -516h-112z" />
    <glyph glyph-name="N" unicode="N" horiz-adv-x="690" 
d="M51 0l123 700h137l241 -542l94 542h111l-122 -700h-137l-240 547l-95 -547h-112z" />
    <glyph glyph-name="O" unicode="O" 
d="M479 610q-113 0 -193 -84t-80 -203q0 -102 65 -166.5t164 -64.5q114 0 193.5 85.5t79.5 203.5q0 101 -65 165t-164 64zM96 319q0 109 51.5 201t140.5 146t193 54q145 0 241.5 -95t96.5 -239q0 -108 -51.5 -201t-140.5 -148t-195 -55q-143 0 -239.5 96t-96.5 241z" />
    <glyph glyph-name="P" unicode="P" horiz-adv-x="633" 
d="M398 330q78 0 127 42.5t49 111.5q0 49 -34 78.5t-91 29.5h-181l-46 -262h176zM686 496q0 -122 -85.5 -198t-210.5 -76h-188l-39 -222h-111l123 700h289q94 0 158 -58.5t64 -145.5z" />
    <glyph glyph-name="Q" unicode="Q" 
d="M479 610q-113 0 -193 -84t-80 -203q0 -102 65 -166.5t164 -64.5q114 0 193.5 85.5t79.5 203.5q0 101 -65 165t-164 64zM96 319q0 109 51.5 201t140.5 146t193 54q145 0 241.5 -95t96.5 -239q0 -108 -51.5 -201t-140.5 -148t-195 -55q-143 0 -239.5 96t-96.5 241zM728 -25
l-318 333l80 75l318 -333z" />
    <glyph glyph-name="R" unicode="R" horiz-adv-x="638" 
d="M410 360q64 0 112.5 41.5t48.5 95.5q0 42 -32.5 68.5t-83.5 26.5h-188l-41 -232h184zM687 508q0 -95 -68 -165t-167 -80l148 -263h-126l-142 253h-124l-46 -253h-110l124 700h308q91 0 147 -54t56 -138z" />
    <glyph glyph-name="S" unicode="S" horiz-adv-x="584" 
d="M342 94q55 0 93 29t38 71q0 65 -131 102q-101 30 -153 80.5t-52 119.5q0 93 69.5 155.5t172.5 62.5q97 0 168.5 -54t90.5 -142l-110 -32q-13 56 -54.5 89t-98.5 33q-53 0 -88 -28.5t-35 -71.5q0 -33 31 -57t98 -44q100 -30 153.5 -82.5t53.5 -122.5q0 -91 -71.5 -152.5
t-177.5 -61.5q-100 0 -173.5 54t-93.5 142l112 40q13 -60 55.5 -95t102.5 -35z" />
    <glyph glyph-name="T" unicode="T" horiz-adv-x="603" 
d="M700 700l-19 -108h-219l-105 -592h-111l105 592h-222l19 108h552z" />
    <glyph glyph-name="U" unicode="U" horiz-adv-x="690" 
d="M370 -11q-117 0 -193.5 73t-76.5 185q0 28 5 56l69 397h111l-69 -397q-4 -23 -4 -44q0 -28 9 -55t28.5 -51t53 -39t77.5 -15q74 0 125.5 46t65.5 127l75 428h111l-79 -448q-20 -116 -107 -189.5t-201 -73.5z" />
    <glyph glyph-name="V" unicode="V" horiz-adv-x="777" 
d="M739 700h131l-407 -700h-149l-162 700h121l131 -576z" />
    <glyph glyph-name="W" unicode="W" horiz-adv-x="1047" 
d="M1008 700h123l-307 -700h-156l-56 528l-228 -528h-161l-70 700h117l55 -558l251 558h126l63 -558z" />
    <glyph glyph-name="X" unicode="X" horiz-adv-x="710" 
d="M680 0h-129l-143 283l-242 -283h-140l298 347l-175 353h130l142 -289l243 289h139l-299 -353z" />
    <glyph glyph-name="Y" unicode="Y" horiz-adv-x="677" 
d="M292 0h110l41 230l329 470h-134l-232 -337l-131 337h-125l183 -470z" />
    <glyph glyph-name="Z" unicode="Z" horiz-adv-x="628" 
d="M591 0l19 107h-408l490 466l23 127h-548l-19 -107h408l-489 -460l-24 -133h548z" />
    <glyph glyph-name="bracketleft" unicode="[" horiz-adv-x="330" 
d="M178 58h127l-18 -103h-240l141 800h240l-19 -108h-127z" />
    <glyph glyph-name="backslash" unicode="\" horiz-adv-x="450" 
d="M306 0l-155 700h116l155 -700h-116z" />
    <glyph glyph-name="bracketright" unicode="]" horiz-adv-x="330" 
d="M277 652h-127l18 103h240l-141 -800h-240l19 108h127z" />
    <glyph glyph-name="asciicircum" unicode="^" horiz-adv-x="448" 
d="M346 751l-201 -142l39 -71l164 120l121 -128l59 61l-153 157z" />
    <glyph glyph-name="underscore" unicode="_" horiz-adv-x="452" 
d="M437 70l-15 -87h-397l15 87h397z" />
    <glyph glyph-name="grave" unicode="`" horiz-adv-x="290" 
d="M151 673l60 63l150 -164l-58 -58z" />
    <glyph glyph-name="a" unicode="a" horiz-adv-x="512" 
d="M314 512q85 0 145.5 -51.5t60.5 -123.5q0 -13 -3 -27l-54 -310h-110l36 207l-121 -10q-92 -8 -92 -58q0 -25 22 -39t60 -14q51 0 85.5 27t42.5 75h34q-15 -87 -73.5 -142t-135.5 -55q-65 0 -106 38t-41 99q0 68 53.5 111.5t143.5 50.5l145 12l1 9q2 13 2 18q0 35 -28 59
t-69 24q-36 0 -66.5 -19t-43.5 -49l-98 44q28 56 85.5 90t124.5 34z" />
    <glyph glyph-name="b" unicode="b" horiz-adv-x="638" 
d="M51 0l131 750h111l-131 -750h-111zM383 416q-74 0 -125.5 -53.5t-51.5 -128.5q0 -64 43 -105.5t108 -41.5q75 0 126.5 53.5t51.5 128.5q0 64 -43 105.5t-109 41.5zM161 211q0 80 34.5 150.5t96 113.5t134.5 43q94 0 157 -65.5t63 -169.5q0 -79 -36 -149t-99 -112
t-137 -42q-94 0 -153.5 65t-59.5 166z" />
    <glyph glyph-name="c" unicode="c" horiz-adv-x="589" 
d="M364 414q-72 0 -123 -53.5t-51 -129.5q0 -63 41.5 -104t106.5 -41q47 0 89 23.5t66 65.5l92 -55q-41 -65 -108.5 -102t-146.5 -37q-108 0 -179 68.5t-71 172.5q0 123 85.5 210t206.5 87q88 0 154.5 -44t90.5 -118l-106 -42q-15 46 -54 72.5t-93 26.5z" />
    <glyph glyph-name="d" unicode="d" horiz-adv-x="638" 
d="M589 0h-110l131 750h111zM345 87q75 0 126.5 53.5t51.5 128.5q0 64 -43 105.5t-109 41.5q-74 0 -125.5 -53.5t-51.5 -128.5q0 -64 43 -105.5t108 -41.5zM568 292q0 -80 -34.5 -150.5t-96 -113.5t-135.5 -43q-93 0 -156 65.5t-63 169.5q0 79 35.5 149t99 112t137.5 42
q94 0 153.5 -65.5t59.5 -165.5z" />
    <glyph glyph-name="e" unicode="e" horiz-adv-x="595" 
d="M498 316q-7 46 -43.5 74t-88.5 28q-56 0 -103 -31.5t-63 -84.5h299q0 9 -1 14zM606 281q0 -34 -10 -76h-404q3 -54 44.5 -87.5t103.5 -33.5q97 0 150 82l89 -58q-44 -63 -107.5 -94.5t-137.5 -31.5q-110 0 -183 69t-73 175q0 121 85 207.5t205 86.5q102 0 170 -67.5
t68 -171.5z" />
    <glyph glyph-name="f" unicode="f" horiz-adv-x="427" 
d="M432 646q-35 0 -58.5 -25t-30.5 -64l-11 -57h158l-18 -101h-157l-70 -399h-110l69 399h-105l18 101h105l16 91q12 66 65.5 112.5t122.5 46.5h88l-18 -104h-64z" />
    <glyph glyph-name="g" unicode="g" horiz-adv-x="598" 
d="M530 306q0 -113 -71.5 -196t-172.5 -83q-88 0 -147 61t-59 155q0 112 75.5 194.5t178.5 82.5q87 0 141.5 -61t54.5 -153zM325 129q65 0 110 45t45 108q0 55 -38.5 90.5t-96.5 35.5q-65 0 -109.5 -45t-44.5 -108q0 -55 38 -90.5t96 -35.5zM136 -5q14 -51 53.5 -81
t95.5 -30t97 29t49 75l89 512h111l-92 -522q-16 -93 -87 -150t-171 -57q-31 0 -65.5 8.5t-71.5 26.5t-67.5 53.5t-44.5 82.5z" />
    <glyph glyph-name="h" unicode="h" horiz-adv-x="558" 
d="M52 0l132 750h112l-132 -750h-112zM396 0l48 277q10 60 -17.5 98.5t-80.5 38.5q-49 0 -85 -33.5t-46 -88.5h-47q18 96 81.5 158t144.5 62q87 0 133.5 -67.5t28.5 -169.5l-48 -275h-112z" />
    <glyph glyph-name="i" unicode="i" horiz-adv-x="216" 
d="M156 641q0 29 19.5 49t49 20t49.5 -20t20 -49t-20 -49t-49.5 -20t-49 20t-19.5 49zM53 0l88 500h111l-88 -500h-111z" />
    <glyph glyph-name="j" unicode="j" horiz-adv-x="216" 
d="M156 641q0 29 19.5 49t49 20t49.5 -20t20 -49t-20 -49t-49.5 -20t-49 20t-19.5 49zM-27 -84q31 0 52.5 23t27.5 58l88 503h111l-96 -546q-11 -61 -59 -104t-114 -43h-45l14 109h21z" />
    <glyph glyph-name="k" unicode="k" horiz-adv-x="538" 
d="M52 0l127 725h111l-72 -411h25l210 186h155l-279 -250l185 -250h-133l-156 202h-27l-35 -202h-111z" />
    <glyph glyph-name="l" unicode="l" horiz-adv-x="220" 
d="M54 0l132 750h112l-132 -750h-112z" />
    <glyph glyph-name="m" unicode="m" horiz-adv-x="826" 
d="M660 0l52 298q9 49 -14 82t-66 33t-74.5 -32t-37.5 -84h-43q13 98 70 156t132 58t117.5 -63t27.5 -152l-53 -296h-111zM52 0l89 500h111l-88 -500h-112zM356 0l52 295q9 50 -14 84t-66 34q-42 0 -73.5 -32.5t-39.5 -85.5h-43q15 91 73 153.5t130 62.5q75 0 117.5 -63
t27.5 -152l-53 -296h-111z" />
    <glyph glyph-name="n" unicode="n" horiz-adv-x="558" 
d="M52 0l88 500h112l-88 -500h-112zM396 0l48 277q10 60 -17.5 98.5t-80.5 38.5q-49 0 -85 -33.5t-46 -88.5h-47q17 87 82 153.5t144 66.5q87 0 133.5 -67.5t28.5 -169.5l-48 -275h-112z" />
    <glyph glyph-name="o" unicode="o" horiz-adv-x="618" 
d="M367 415q-75 0 -126.5 -53.5t-51.5 -127.5q0 -65 43.5 -106t108.5 -41q75 0 126.5 53.5t51.5 127.5q0 65 -43.5 106t-108.5 41zM79 224q0 122 86 209t210 87q108 0 181 -68t73 -174q0 -122 -86 -209t-210 -87q-108 0 -181 68t-73 174z" />
    <glyph glyph-name="p" unicode="p" horiz-adv-x="638" 
d="M136 500h110l-122 -700h-110zM380 414q-74 0 -126 -53.5t-52 -127.5q0 -65 43.5 -106t108.5 -41q75 0 126.5 53.5t51.5 127.5q0 64 -43.5 105.5t-108.5 41.5zM157 209q0 80 35 150.5t96.5 113.5t134.5 43q94 0 157 -65.5t63 -168.5q0 -80 -36 -150t-99 -112t-137 -42
q-95 0 -154.5 65.5t-59.5 165.5z" />
    <glyph glyph-name="q" unicode="q" horiz-adv-x="638" 
d="M674 500l-122 -700h-111l123 700h110zM342 86q75 0 126.5 53.5t51.5 127.5q0 64 -43.5 105.5t-108.5 41.5q-74 0 -126 -53.5t-52 -127.5q0 -65 43.5 -106t108.5 -41zM565 290q0 -80 -34.5 -150.5t-96.5 -113.5t-135 -43q-93 0 -156.5 66t-63.5 169q0 80 36 149.5
t99 111.5t138 42q94 0 153.5 -65t59.5 -166z" />
    <glyph glyph-name="r" unicode="r" horiz-adv-x="360" 
d="M51 0l88 500h110l-87 -500h-111zM374 400q-59 0 -107 -35t-57 -85h-47q16 94 82.5 161.5t143.5 67.5h35l-20 -109h-30z" />
    <glyph glyph-name="s" unicode="s" horiz-adv-x="484" 
d="M279 80q35 0 57.5 17t22.5 42q0 40 -91 64q-164 40 -164 144q0 68 54 117.5t136 49.5q74 0 131 -42.5t73 -113.5l-110 -23q-7 34 -31.5 58t-65.5 24q-32 0 -54 -17t-22 -41q0 -38 88 -61q82 -20 125 -58t43 -90q0 -67 -55.5 -114.5t-140.5 -47.5q-80 0 -141.5 42
t-78.5 110l109 26q8 -34 39 -60t76 -26z" />
    <glyph glyph-name="t" unicode="t" horiz-adv-x="402" 
d="M324 101h72l-18 -101h-88q-68 0 -107.5 35.5t-39.5 91.5q0 15 3 31l42 240h-90l18 102h90l26 148l113 14l-29 -162h148l-18 -102h-147l-40 -225q-1 -11 -1 -17q0 -27 17 -41t49 -14z" />
    <glyph glyph-name="u" unicode="u" horiz-adv-x="548" 
d="M580 500l-88 -500h-112l88 500h112zM257 500l-54 -303q-9 -52 15.5 -81t74.5 -29q46 0 79 25.5t40 69.5h48q-17 -82 -77.5 -137t-136.5 -55q-82 0 -127.5 54t-28.5 148l55 308h112z" />
    <glyph glyph-name="v" unicode="v" horiz-adv-x="579" 
d="M520 500h120l-284 -500h-144l-96 500h114l69 -398z" />
    <glyph glyph-name="w" unicode="w" horiz-adv-x="861" 
d="M804 500h120l-240 -500h-156l-44 349l-168 -349h-138l-62 500h114l38 -385l184 385h112l55 -390z" />
    <glyph glyph-name="x" unicode="x" horiz-adv-x="566" 
d="M541 0h-123l-103 186l-151 -186h-139l222 257l-131 243h124l98 -186l156 186h138l-226 -257z" />
    <glyph glyph-name="y" unicode="y" horiz-adv-x="579" 
d="M518 500l-212 -369l-76 369h-114l107 -486l-123 -214h124l416 700h-122z" />
    <glyph glyph-name="z" unicode="z" horiz-adv-x="487" 
d="M454 0l17 96h-298l347 288l21 116h-419l-16 -96h282l-332 -288l-21 -116h419z" />
    <glyph glyph-name="braceleft" unicode="{" horiz-adv-x="353" 
d="M134 179q0 18 4 43.5t4 41.5q0 64 -62 64l18 106q37 0 60.5 21.5t29.5 58.5q17 96 82 163t154 85l20 -110q-58 -11 -102 -61t-56 -122q-16 -87 -78 -99q46 -19 46 -69q0 -16 -4 -41t-4 -41q0 -59 28.5 -102.5t75.5 -58.5l-56 -102q-73 24 -116.5 83.5t-43.5 139.5z" />
    <glyph glyph-name="bar" unicode="|" horiz-adv-x="220" 
d="M17 -200l177 1000h113l-177 -1000h-113z" />
    <glyph glyph-name="braceright" unicode="}" horiz-adv-x="353" 
d="M347 539q0 -16 -3.5 -41t-3.5 -41q0 -32 16 -49.5t46 -17.5l-19 -106q-36 0 -59.5 -20.5t-29.5 -59.5q-17 -95 -81.5 -162.5t-154.5 -84.5l-20 109q59 11 102.5 61t55.5 122q15 87 78 99q-46 19 -46 69q0 16 4 41t4 41q0 59 -28 102.5t-76 58.5l56 102q73 -24 116 -84
t43 -139z" />
    <glyph glyph-name="asciitilde" unicode="~" horiz-adv-x="474" 
d="M221 358q-92 0 -136 -130l76 -18q23 68 57 68q21 0 46 -28q24 -26 44 -36t45 -10q92 0 135 130l-74 18q-24 -64 -63 -64q-23 0 -47 26q-22 25 -40.5 34.5t-42.5 9.5z" />
    <glyph glyph-name="exclamdown" unicode="&#xa1;" horiz-adv-x="219" 
d="M278 524q0 -34 -22 -57t-54 -23q-35 0 -58.5 23t-23.5 57t23 57t56.5 23t56 -23t22.5 -57zM126 374h101l-75 -486h-121z" />
    <glyph glyph-name="cent" unicode="&#xa2;" horiz-adv-x="589" 
d="M380 522q-73 0 -123.5 -53.5t-50.5 -129.5q0 -64 41.5 -104.5t105.5 -40.5q48 0 90 23.5t66 64.5l91 -54q-41 -66 -108 -103t-146 -37q-109 0 -180 68.5t-71 173.5q0 123 86 210t207 87q88 0 154 -44.5t90 -118.5l-106 -41q-14 46 -53 72.5t-93 26.5zM359 596l18 104h100
l-18 -104h-100zM274 118h100l-20 -118h-100z" />
    <glyph glyph-name="sterling" unicode="&#xa3;" horiz-adv-x="597" 
d="M588 107l-18 -107h-542l18 107h105l31 176h-85l19 107h85l20 112q17 99 87.5 159.5t159.5 60.5q161 0 203 -149l-111 -37q-21 76 -96 76q-50 0 -87 -30t-48 -90l-18 -102h207l-19 -107h-207l-31 -176h327z" />
    <glyph glyph-name="currency" unicode="&#xa4;" horiz-adv-x="390" 
d="M88 277q0 63 43 105l-31 42l54 38l29 -43q26 13 61 13q61 0 103 -42l43 32l39 -56l-43 -30q13 -28 13 -59q0 -63 -43 -105l31 -42l-54 -38l-29 43q-28 -13 -62 -13q-62 0 -102 41l-43 -30l-40 55l45 30q-14 29 -14 59zM242 354q-32 0 -53.5 -22.5t-21.5 -55.5
q0 -32 22.5 -54t54.5 -22q33 0 54.5 22.5t21.5 55.5q0 32 -22.5 54t-55.5 22z" />
    <glyph glyph-name="yen" unicode="&#xa5;" horiz-adv-x="611" 
d="M512 162h-347l-14 -77h347zM535 292h-347l-14 -77h347zM257 0h110l59 337l281 363h-135l-187 -250l-110 250h-124l165 -363z" />
    <glyph glyph-name="brokenbar" unicode="&#xa6;" horiz-adv-x="220" 
d="M237 406h-110l69 394h110zM203 214l-73 -414h-110l73 414h110z" />
    <glyph glyph-name="section" unicode="&#xa7;" horiz-adv-x="464" 
d="M381 346q0 -50 -84 -55q-88 24 -88 63q0 24 23 39.5t61 16.5q88 -24 88 -64zM321 713q-79 0 -132.5 -45.5t-53.5 -112.5t71 -110q-52 -13 -82 -44.5t-30 -74.5q0 -89 158 -128q48 -12 70 -27t22 -35q0 -24 -21 -40t-53 -16q-38 0 -64.5 22.5t-34.5 61.5l-111 -24
q16 -68 73.5 -110t135.5 -42q79 0 132.5 45.5t53.5 112.5q0 66 -71 110q51 10 81 42t30 74q0 44 -37 75t-118 55q-51 17 -72.5 31.5t-21.5 32.5q0 23 21.5 38.5t52.5 15.5q38 0 64.5 -22t34.5 -60l111 23q-16 68 -73.5 110t-135.5 42z" />
    <glyph glyph-name="dieresis" unicode="&#xa8;" horiz-adv-x="449" 
d="M386 625q0 29 20 49t49.5 20t49 -20t19.5 -49t-19.5 -49t-49 -20t-49.5 20t-20 49zM146 625q0 29 20 49t49.5 20t49 -20t19.5 -49t-19.5 -49t-49 -20t-49.5 20t-20 49z" />
    <glyph glyph-name="copyright" unicode="&#xa9;" 
d="M464 444q-41 0 -70 -30.5t-29 -73.5q0 -36 23.5 -59.5t58.5 -23.5q53 0 86 53l64 -33q-28 -45 -69.5 -70t-87.5 -25q-64 0 -106.5 42.5t-42.5 107.5q0 77 53 132.5t127 55.5q55 0 96 -32t54 -85l-75 -23q-7 29 -29.5 46.5t-52.5 17.5zM481 640q-125 0 -213.5 -94.5
t-88.5 -227.5q0 -112 71 -184t180 -72q82 0 152 43.5t110.5 118.5t40.5 163q0 110 -71 181.5t-181 71.5zM100 310q0 111 52 205.5t141.5 149.5t194.5 55q141 0 233 -92t92 -233q0 -112 -52.5 -207t-142 -150.5t-194.5 -55.5q-141 0 -232.5 93t-91.5 235z" />
    <glyph glyph-name="ordfeminine" unicode="&#xaa;" horiz-adv-x="358" 
d="M367 700h76l-49 -278l-76 1zM390 355l-13 -77h-299l14 77h298zM281 635q-32 0 -55 -24.5t-23 -58.5q0 -28 18.5 -46.5t46.5 -18.5q31 0 52.5 24.5t21.5 59.5q0 28 -17 46t-44 18zM128 542q0 68 42.5 119t99.5 51q47 0 77.5 -33.5t30.5 -90.5q0 -70 -40 -122t-100 -52
q-50 0 -80 37t-30 91z" />
    <glyph glyph-name="guillemotleft" unicode="&#xab;" horiz-adv-x="570" 
d="M567 175l-22 -117l-215 133l25 149l264 138l-21 -130l-167 -85zM307 175l-22 -117l-215 138l25 144l264 138l-21 -130l-167 -85z" />
    <glyph glyph-name="logicalnot" unicode="&#xac;" horiz-adv-x="462" 
d="M498 360l-36 -205h-105l19 108h-302l17 97h407z" />
    <glyph glyph-name="uni00AD" unicode="&#xad;" horiz-adv-x="347" 
d="M375 315l-17 -97h-292l17 97h292z" />
    <glyph glyph-name="registered" unicode="&#xae;" 
d="M481 640q-125 0 -213.5 -94.5t-88.5 -227.5q0 -112 71 -184t180 -72q82 0 152 43.5t110.5 118.5t40.5 163q0 110 -71 181.5t-181 71.5zM100 310q0 111 52 205.5t141.5 149.5t194.5 55q141 0 233 -92t92 -233q0 -112 -52.5 -207t-142 -150.5t-194.5 -55.5
q-141 0 -232.5 93t-91.5 235zM519 445h-117l-16 -87h117q25 0 42 14t17 35q0 17 -12.5 27.5t-30.5 10.5zM510 298l84 -110h-89l-82 106h-48l-19 -106h-70l58 325h202q37 0 61.5 -29t24.5 -72q0 -44 -35.5 -76.5t-86.5 -37.5z" />
    <glyph glyph-name="macron" unicode="&#xaf;" horiz-adv-x="377" 
d="M473 700l-15 -87h-322l15 87h322z" />
    <glyph glyph-name="degree" unicode="&#xb0;" horiz-adv-x="423" 
d="M312 610q-38 0 -64.5 -27t-26.5 -66q0 -33 22 -54t56 -21q38 0 64.5 27t26.5 66q0 33 -22 54t-56 21zM120 507q0 84 58.5 143.5t141.5 59.5q73 0 122 -46.5t49 -118.5q0 -84 -58.5 -143.5t-141.5 -59.5q-73 0 -122 46.5t-49 118.5z" />
    <glyph glyph-name="plusminus" unicode="&#xb1;" horiz-adv-x="402" 
d="M381 35l-17 -97h-347l17 97h347zM233 460h99l-22 -125h124l-18 -97h-123l-22 -125h-99l22 125h-125l18 97h124z" />
    <glyph glyph-name="uni00B2" unicode="&#xb2;" horiz-adv-x="319" 
d="M419 726q9 53 -22.5 87.5t-86.5 34.5q-52 0 -90.5 -28.5t-60.5 -73.5l79 -29q19 41 53 41q16 0 25 -11t6 -28q-4 -28 -83 -64l-104 -51l-18 -104h263l15 86h-149l52 25q109 49 121 115z" />
    <glyph glyph-name="uni00B3" unicode="&#xb3;" horiz-adv-x="329" 
d="M333 695l93 50l18 99h-253l-15 -81h166l-83 -52l13 -59q24 0 35.5 -9.5t8.5 -25.5q-3 -15 -16 -24t-30 -9q-18 0 -28.5 11t-11.5 31l-95 -18q4 -52 36.5 -83t86.5 -31q57 0 99.5 31t50.5 79q7 39 -14 64t-61 27z" />
    <glyph glyph-name="acute" unicode="&#xb4;" horiz-adv-x="285" 
d="M379 672l-48 73l-191 -135l45 -69z" />
    <glyph glyph-name="mu" unicode="&#xb5;" horiz-adv-x="583" 
d="M616 500l-88 -500h-110l88 500h110zM143 500h110l-123 -700h-110zM503 227q-18 -102 -77.5 -170t-131.5 -68q-73 0 -113.5 70t-23.5 168h48q-10 -56 22 -94.5t88 -38.5q54 0 93 36.5t50 96.5h45z" />
    <glyph glyph-name="paragraph" unicode="&#xb6;" horiz-adv-x="580" 
d="M525 0h-75l123 700h75zM145 496q0 82 67 143t160 61h137l-123 -700h-110l60 342h-17q-76 0 -125 43.5t-49 110.5z" />
    <glyph glyph-name="periodcentered" unicode="&#xb7;" horiz-adv-x="224" 
d="M102 365q0 32 20.5 53.5t51.5 21.5q32 0 54 -21.5t22 -53.5t-21.5 -53t-53 -21t-52.5 21t-21 53z" />
    <glyph glyph-name="cedilla" unicode="&#xb8;" horiz-adv-x="324" 
d="M179 -152q0 15 -7.5 24t-20.5 9q-16 0 -30 -14l-79 37l22 126l84 -8l-17 -94q27 24 59 24q33 0 55 -27.5t22 -69.5q0 -60 -39.5 -100t-99.5 -40q-53 0 -88.5 28.5t-41.5 75.5l87 22q1 -18 13.5 -29.5t33.5 -11.5t34 13.5t13 34.5z" />
    <glyph glyph-name="uni00B9" unicode="&#xb9;" horiz-adv-x="250" 
d="M372 844l-61 -344h-90l42 239l-62 -43l-39 66l117 82h93z" />
    <glyph glyph-name="ordmasculine" unicode="&#xba;" horiz-adv-x="358" 
d="M390 355l-13 -77h-299l14 77h298zM285 635q-33 0 -56.5 -24t-23.5 -58q0 -29 19 -47.5t49 -18.5q33 0 56.5 24t23.5 58q0 29 -19 47.5t-49 18.5zM129 545q0 69 47.5 117t114.5 48q60 0 99 -38t39 -95q0 -69 -47.5 -117t-114.5 -48q-60 0 -99 38t-39 95z" />
    <glyph glyph-name="guillemotright" unicode="&#xbb;" horiz-adv-x="570" 
d="M98 362l21 116l216 -138l-25 -144l-265 -138l22 131l167 85zM358 362l21 116l216 -138l-25 -144l-265 -138l22 131l167 85z" />
    <glyph glyph-name="onequarter" unicode="&#xbc;" horiz-adv-x="775" 
d="M530 137h65l16 92zM720 337l-35 -200h41l-13 -77h-41l-12 -67h-90l12 67h-151l15 89l172 188h102zM303 0h-130l387 700h130zM372 694l-61 -344h-90l42 239l-62 -43l-39 66l117 82h93z" />
    <glyph glyph-name="onehalf" unicode="&#xbd;" horiz-adv-x="756" 
d="M722 219q9 53 -22.5 87.5t-86.5 34.5q-51 0 -90 -28.5t-61 -73.5l79 -29q19 41 53 41q16 0 25.5 -11t5.5 -28q-4 -28 -83 -64l-104 -51l-18 -104h263l15 86h-148l51 25q109 49 121 115zM303 0h-130l387 700h130zM372 694l-61 -344h-90l42 239l-62 -43l-39 66l117 82h93z
" />
    <glyph glyph-name="threequarters" unicode="&#xbe;" horiz-adv-x="819" 
d="M574 137h65l16 92zM764 337l-35 -200h41l-13 -77h-41l-12 -67h-90l12 67h-151l15 89l172 188h102zM347 0h-130l387 700h130zM333 545l93 50l18 99h-253l-15 -81h166l-83 -52l13 -59q24 0 35.5 -9.5t8.5 -25.5q-3 -15 -16 -24t-30 -9q-18 0 -28.5 11t-11.5 31l-95 -18
q4 -52 36.5 -83t86.5 -31q57 0 99.5 31t50.5 79q7 39 -14 64t-61 27z" />
    <glyph glyph-name="questiondown" unicode="&#xbf;" horiz-adv-x="551" 
d="M458 524q0 -34 -22.5 -57t-56.5 -23t-56.5 23t-22.5 57t22.5 57t56 23t56.5 -23t23 -57zM287 -12q-51 0 -84 29.5t-33 76.5q0 43 23 75t84 64l104 49l-27 95l-109 -52q-98 -45 -141.5 -104t-43.5 -139q0 -89 61 -146.5t157 -57.5q76 0 140 44.5t104 126.5l-94 47
q-52 -108 -141 -108z" />
    <glyph glyph-name="Agrave" unicode="&#xc0;" horiz-adv-x="777" 
d="M402 936l61 63l149 -164l-58 -58zM164 0h-131l407 700h149l162 -700h-121l-131 576zM240 276h400l-18 -104h-400z" />
    <glyph glyph-name="Aacute" unicode="&#xc1;" horiz-adv-x="777" 
d="M696 908l-48 73l-190 -135l44 -69zM164 0h-131l407 700h149l162 -700h-121l-131 576zM240 276h400l-18 -104h-400z" />
    <glyph glyph-name="Acircumflex" unicode="&#xc2;" horiz-adv-x="777" 
d="M549 984l-201 -142l40 -71l163 119l121 -127l59 61l-152 157zM164 0h-131l407 700h149l162 -700h-121l-131 576zM240 276h400l-18 -104h-400z" />
    <glyph glyph-name="Atilde" unicode="&#xc3;" horiz-adv-x="777" 
d="M474 931q-92 0 -136 -130l76 -18q23 68 57 68q21 0 46 -28q24 -26 44 -36t45 -10q92 0 135 130l-74 18q-24 -64 -63 -64q-23 0 -46 26q-23 25 -41.5 34.5t-42.5 9.5zM164 0h-131l407 700h149l162 -700h-121l-131 576zM240 276h400l-18 -104h-400z" />
    <glyph glyph-name="Adieresis" unicode="&#xc4;" horiz-adv-x="777" 
d="M569 846q0 29 20 49t49 20t49 -20t20 -49t-20 -49t-49 -20t-49 20t-20 49zM349 846q0 29 20 49t49 20t49 -20t20 -49t-20 -49t-49 -20t-49 20t-20 49zM164 0h-131l407 700h149l162 -700h-121l-131 576zM240 276h400l-18 -104h-400z" />
    <glyph glyph-name="Aring" unicode="&#xc5;" horiz-adv-x="777" 
d="M543 954q-23 0 -39 -16.5t-16 -39.5q0 -20 13 -33t33 -13q23 0 39 16.5t16 39.5q0 20 -13 33t-33 13zM412 890q0 57 40 98t97 41q49 0 82.5 -32t33.5 -81q0 -57 -40 -98t-97 -41q-49 0 -82.5 32t-33.5 81zM164 0h-131l407 700h149l162 -700h-121l-131 576zM240 276h400
l-18 -104h-400z" />
    <glyph glyph-name="AE" unicode="&#xc6;" horiz-adv-x="995" 
d="M662 405h346l-19 -108h-346l-33 -189h370l-20 -108h-480l124 700h480l-19 -108h-370zM272 289h284l-18 -108h-286zM153 0h-125l484 700h102l-20 -114h-30z" />
    <glyph glyph-name="Ccedilla" unicode="&#xc7;" horiz-adv-x="778" 
d="M508 -152q0 15 -7.5 24t-20.5 9q-16 0 -30 -14l-79 37l22 126l84 -8l-17 -94q27 24 59 24q33 0 55 -27.5t22 -69.5q0 -60 -39.5 -100t-99.5 -40q-53 0 -88.5 28.5t-41.5 75.5l87 22q1 -18 13.5 -29.5t33.5 -11.5t34 13.5t13 34.5zM96 316q0 111 52 204t143 146.5
t199 53.5t195.5 -61t120.5 -177l-106 -35q-20 74 -79.5 118.5t-139.5 44.5q-114 0 -194.5 -84.5t-80.5 -203.5q0 -100 65.5 -165t164.5 -65q71 0 133.5 39t101.5 108l98 -55q-57 -96 -146.5 -149.5t-193.5 -53.5q-144 0 -238.5 95.5t-94.5 239.5z" />
    <glyph glyph-name="Egrave" unicode="&#xc8;" horiz-adv-x="572" 
d="M300 935l61 63l149 -164l-58 -58zM236 416h349l-18 -108h-349l-36 -200h372l-19 -108h-483l123 700h482l-19 -108h-370z" />
    <glyph glyph-name="Eacute" unicode="&#xc9;" horiz-adv-x="572" 
d="M594 907l-48 73l-190 -135l44 -69zM236 416h349l-18 -108h-349l-36 -200h372l-19 -108h-483l123 700h482l-19 -108h-370z" />
    <glyph glyph-name="Ecircumflex" unicode="&#xca;" horiz-adv-x="572" 
d="M447 983l-201 -142l40 -71l163 119l121 -127l59 61l-152 157zM236 416h349l-18 -108h-349l-36 -200h372l-19 -108h-483l123 700h482l-19 -108h-370z" />
    <glyph glyph-name="Edieresis" unicode="&#xcb;" horiz-adv-x="572" 
d="M467 845q0 29 20 49t49 20t49 -20t20 -49t-20 -49t-49 -20t-49 20t-20 49zM247 845q0 29 20 49t49 20t49 -20t20 -49t-20 -49t-49 -20t-49 20t-20 49zM236 416h349l-18 -108h-349l-36 -200h372l-19 -108h-483l123 700h482l-19 -108h-370z" />
    <glyph glyph-name="Igrave" unicode="&#xcc;" horiz-adv-x="220" 
d="M116 934l61 63l149 -164l-58 -58zM163 0h-112l123 700h111z" />
    <glyph glyph-name="Iacute" unicode="&#xcd;" horiz-adv-x="220" 
d="M410 906l-48 73l-190 -135l44 -69zM163 0h-112l123 700h111z" />
    <glyph glyph-name="Icircumflex" unicode="&#xce;" horiz-adv-x="220" 
d="M262 982l-201 -142l40 -71l163 119l121 -127l59 61l-152 157zM163 0h-112l123 700h111z" />
    <glyph glyph-name="Idieresis" unicode="&#xcf;" horiz-adv-x="220" 
d="M282 844q0 29 20 49t49 20t49 -20t20 -49t-20 -49t-49 -20t-49 20t-20 49zM62 844q0 29 20 49t49 20t49 -20t20 -49t-20 -49t-49 -20t-49 20t-20 49zM163 0h-112l123 700h111z" />
    <glyph glyph-name="Eth" unicode="&#xd0;" horiz-adv-x="708" 
d="M730 406q0 -111 -51 -203.5t-146 -147.5t-213 -55h-234l124 700h224q129 0 212.5 -84t83.5 -210zM328 106q87 0 154 40.5t102 106.5t35 144q0 89 -55.5 143t-148.5 54h-112l-87 -488h112zM419 407l-17 -97h-347l17 97h347z" />
    <glyph glyph-name="Ntilde" unicode="&#xd1;" horiz-adv-x="690" 
d="M429 929q-92 0 -136 -130l76 -18q23 68 57 68q21 0 46 -28q24 -26 44 -36t45 -10q92 0 135 130l-74 18q-24 -64 -63 -64q-23 0 -46 26q-23 25 -41.5 34.5t-42.5 9.5zM51 0l123 700h137l241 -542l94 542h111l-122 -700h-137l-240 547l-95 -547h-112z" />
    <glyph glyph-name="Ograve" unicode="&#xd2;" 
d="M387 935l61 63l149 -164l-58 -58zM479 610q-113 0 -193 -84t-80 -203q0 -102 65 -166.5t164 -64.5q114 0 193.5 85.5t79.5 203.5q0 101 -65 165t-164 64zM96 319q0 109 51.5 201t140.5 146t193 54q145 0 241.5 -95t96.5 -239q0 -108 -51.5 -201t-140.5 -148t-195 -55
q-143 0 -239.5 96t-96.5 241z" />
    <glyph glyph-name="Oacute" unicode="&#xd3;" 
d="M681 907l-48 73l-190 -135l44 -69zM479 610q-113 0 -193 -84t-80 -203q0 -102 65 -166.5t164 -64.5q114 0 193.5 85.5t79.5 203.5q0 101 -65 165t-164 64zM96 319q0 109 51.5 201t140.5 146t193 54q145 0 241.5 -95t96.5 -239q0 -108 -51.5 -201t-140.5 -148t-195 -55
q-143 0 -239.5 96t-96.5 241z" />
    <glyph glyph-name="Ocircumflex" unicode="&#xd4;" 
d="M534 983l-201 -142l40 -71l163 119l121 -127l59 61l-152 157zM479 610q-113 0 -193 -84t-80 -203q0 -102 65 -166.5t164 -64.5q114 0 193.5 85.5t79.5 203.5q0 101 -65 165t-164 64zM96 319q0 109 51.5 201t140.5 146t193 54q145 0 241.5 -95t96.5 -239
q0 -108 -51.5 -201t-140.5 -148t-195 -55q-143 0 -239.5 96t-96.5 241z" />
    <glyph glyph-name="Otilde" unicode="&#xd5;" 
d="M459 930q-92 0 -136 -130l76 -18q23 68 57 68q21 0 46 -28q24 -26 44 -36t45 -10q92 0 135 130l-74 18q-24 -64 -63 -64q-23 0 -46 26q-23 25 -41.5 34.5t-42.5 9.5zM479 610q-113 0 -193 -84t-80 -203q0 -102 65 -166.5t164 -64.5q114 0 193.5 85.5t79.5 203.5
q0 101 -65 165t-164 64zM96 319q0 109 51.5 201t140.5 146t193 54q145 0 241.5 -95t96.5 -239q0 -108 -51.5 -201t-140.5 -148t-195 -55q-143 0 -239.5 96t-96.5 241z" />
    <glyph glyph-name="Odieresis" unicode="&#xd6;" 
d="M554 845q0 29 20 49t49 20t49 -20t20 -49t-20 -49t-49 -20t-49 20t-20 49zM334 845q0 29 20 49t49 20t49 -20t20 -49t-20 -49t-49 -20t-49 20t-20 49zM479 610q-113 0 -193 -84t-80 -203q0 -102 65 -166.5t164 -64.5q114 0 193.5 85.5t79.5 203.5q0 101 -65 165t-164 64z
M96 319q0 109 51.5 201t140.5 146t193 54q145 0 241.5 -95t96.5 -239q0 -108 -51.5 -201t-140.5 -148t-195 -55q-143 0 -239.5 96t-96.5 241z" />
    <glyph glyph-name="multiply" unicode="&#xd7;" horiz-adv-x="402" 
d="M104 358l78 70l74 -94l107 92l61 -68l-107 -91l76 -91l-76 -70l-75 93l-108 -93l-62 69l108 91z" />
    <glyph glyph-name="Oslash" unicode="&#xd8;" 
d="M479 610q-113 0 -193 -84t-80 -203q0 -102 65 -166.5t164 -64.5q114 0 193.5 85.5t79.5 203.5q0 101 -65 165t-164 64zM96 319q0 109 51.5 201t140.5 146t193 54q145 0 241.5 -95t96.5 -239q0 -108 -51.5 -201t-140.5 -148t-195 -55q-143 0 -239.5 96t-96.5 241zM812 626
l-636 -637l-86 85l638 637z" />
    <glyph glyph-name="Ugrave" unicode="&#xd9;" horiz-adv-x="690" 
d="M352 934l61 63l149 -164l-58 -58zM370 -11q-117 0 -193.5 73t-76.5 185q0 28 5 56l69 397h111l-69 -397q-4 -23 -4 -44q0 -28 9 -55t28.5 -51t53 -39t77.5 -15q74 0 125.5 46t65.5 127l75 428h111l-79 -448q-20 -116 -107 -189.5t-201 -73.5z" />
    <glyph glyph-name="Uacute" unicode="&#xda;" horiz-adv-x="690" 
d="M646 906l-48 73l-190 -135l44 -69zM370 -11q-117 0 -193.5 73t-76.5 185q0 28 5 56l69 397h111l-69 -397q-4 -23 -4 -44q0 -28 9 -55t28.5 -51t53 -39t77.5 -15q74 0 125.5 46t65.5 127l75 428h111l-79 -448q-20 -116 -107 -189.5t-201 -73.5z" />
    <glyph glyph-name="Ucircumflex" unicode="&#xdb;" horiz-adv-x="690" 
d="M499 982l-201 -142l40 -71l163 119l121 -127l59 61l-152 157zM370 -11q-117 0 -193.5 73t-76.5 185q0 28 5 56l69 397h111l-69 -397q-4 -23 -4 -44q0 -28 9 -55t28.5 -51t53 -39t77.5 -15q74 0 125.5 46t65.5 127l75 428h111l-79 -448q-20 -116 -107 -189.5t-201 -73.5z
" />
    <glyph glyph-name="Udieresis" unicode="&#xdc;" horiz-adv-x="690" 
d="M519 844q0 29 20 49t49 20t49 -20t20 -49t-20 -49t-49 -20t-49 20t-20 49zM299 844q0 29 20 49t49 20t49 -20t20 -49t-20 -49t-49 -20t-49 20t-20 49zM370 -11q-117 0 -193.5 73t-76.5 185q0 28 5 56l69 397h111l-69 -397q-4 -23 -4 -44q0 -28 9 -55t28.5 -51t53 -39
t77.5 -15q74 0 125.5 46t65.5 127l75 428h111l-79 -448q-20 -116 -107 -189.5t-201 -73.5z" />
    <glyph glyph-name="Yacute" unicode="&#xdd;" horiz-adv-x="677" 
d="M648 908l-48 73l-190 -135l44 -69zM292 0h110l41 230l329 470h-134l-232 -337l-131 337h-125l183 -470z" />
    <glyph glyph-name="Thorn" unicode="&#xde;" horiz-adv-x="638" 
d="M184 117l-21 -117h-111l124 700h111l-19 -105h178q94 0 157.5 -58.5t63.5 -144.5q0 -123 -85.5 -199t-210.5 -76h-187zM249 487l-46 -262h176q79 0 127.5 42.5t48.5 112.5q0 48 -34 77.5t-90 29.5h-182z" />
    <glyph glyph-name="germandbls" unicode="&#xdf;" horiz-adv-x="676" 
d="M685 570q0 -71 -35.5 -119.5t-101.5 -68.5q52 -17 83.5 -66t31.5 -112q0 -94 -64 -156.5t-160 -62.5q-79 0 -131 43.5t-60 115.5l108 26q3 -34 27 -54.5t62 -20.5q48 0 80 35.5t32 89.5q0 51 -35.5 83.5t-89.5 32.5h-62l16 106h64q55 0 89 30.5t34 80.5q0 45 -37 72.5
t-98 27.5q-73 0 -125.5 -49.5t-68.5 -136.5l-81 -467h-112l87 486q21 123 108.5 198.5t207.5 75.5q104 0 167.5 -52.5t63.5 -137.5z" />
    <glyph glyph-name="agrave" unicode="&#xe0;" horiz-adv-x="512" 
d="M218 726l61 63l149 -164l-58 -58zM314 512q85 0 145.5 -51.5t60.5 -123.5q0 -13 -3 -27l-54 -310h-110l36 207l-121 -10q-92 -8 -92 -58q0 -25 22 -39t60 -14q51 0 85.5 27t42.5 75h34q-15 -87 -73.5 -142t-135.5 -55q-65 0 -106 38t-41 99q0 68 53.5 111.5t143.5 50.5
l145 12l1 9q2 13 2 18q0 35 -28 59t-69 24q-36 0 -66.5 -19t-43.5 -49l-98 44q28 56 85.5 90t124.5 34z" />
    <glyph glyph-name="aacute" unicode="&#xe1;" horiz-adv-x="512" 
d="M512 698l-48 73l-190 -135l44 -69zM314 512q85 0 145.5 -51.5t60.5 -123.5q0 -13 -3 -27l-54 -310h-110l36 207l-121 -10q-92 -8 -92 -58q0 -25 22 -39t60 -14q51 0 85.5 27t42.5 75h34q-15 -87 -73.5 -142t-135.5 -55q-65 0 -106 38t-41 99q0 68 53.5 111.5t143.5 50.5
l145 12l1 9q2 13 2 18q0 35 -28 59t-69 24q-36 0 -66.5 -19t-43.5 -49l-98 44q28 56 85.5 90t124.5 34z" />
    <glyph glyph-name="acircumflex" unicode="&#xe2;" horiz-adv-x="512" 
d="M364 774l-201 -142l40 -71l163 119l121 -127l59 61l-152 157zM314 512q85 0 145.5 -51.5t60.5 -123.5q0 -13 -3 -27l-54 -310h-110l36 207l-121 -10q-92 -8 -92 -58q0 -25 22 -39t60 -14q51 0 85.5 27t42.5 75h34q-15 -87 -73.5 -142t-135.5 -55q-65 0 -106 38t-41 99
q0 68 53.5 111.5t143.5 50.5l145 12l1 9q2 13 2 18q0 35 -28 59t-69 24q-36 0 -66.5 -19t-43.5 -49l-98 44q28 56 85.5 90t124.5 34z" />
    <glyph glyph-name="atilde" unicode="&#xe3;" horiz-adv-x="512" 
d="M289 721q-92 0 -136 -130l76 -18q23 68 57 68q21 0 46 -28q24 -26 44 -36t45 -10q92 0 135 130l-74 18q-24 -64 -63 -64q-23 0 -46 26q-23 25 -41.5 34.5t-42.5 9.5zM314 512q85 0 145.5 -51.5t60.5 -123.5q0 -13 -3 -27l-54 -310h-110l36 207l-121 -10q-92 -8 -92 -58
q0 -25 22 -39t60 -14q51 0 85.5 27t42.5 75h34q-15 -87 -73.5 -142t-135.5 -55q-65 0 -106 38t-41 99q0 68 53.5 111.5t143.5 50.5l145 12l1 9q2 13 2 18q0 35 -28 59t-69 24q-36 0 -66.5 -19t-43.5 -49l-98 44q28 56 85.5 90t124.5 34z" />
    <glyph glyph-name="adieresis" unicode="&#xe4;" horiz-adv-x="512" 
d="M384 636q0 29 20 49t49 20t49 -20t20 -49t-20 -49t-49 -20t-49 20t-20 49zM164 636q0 29 20 49t49 20t49 -20t20 -49t-20 -49t-49 -20t-49 20t-20 49zM314 512q85 0 145.5 -51.5t60.5 -123.5q0 -13 -3 -27l-54 -310h-110l36 207l-121 -10q-92 -8 -92 -58q0 -25 22 -39
t60 -14q51 0 85.5 27t42.5 75h34q-15 -87 -73.5 -142t-135.5 -55q-65 0 -106 38t-41 99q0 68 53.5 111.5t143.5 50.5l145 12l1 9q2 13 2 18q0 35 -28 59t-69 24q-36 0 -66.5 -19t-43.5 -49l-98 44q28 56 85.5 90t124.5 34z" />
    <glyph glyph-name="aring" unicode="&#xe5;" horiz-adv-x="512" 
d="M359 744q-23 0 -39 -16.5t-16 -39.5q0 -20 13 -33t33 -13q23 0 39 16.5t16 39.5q0 20 -13 33t-33 13zM228 680q0 57 40 98t97 41q49 0 82.5 -32t33.5 -81q0 -57 -40 -98t-97 -41q-49 0 -82.5 32t-33.5 81zM314 512q85 0 145.5 -51.5t60.5 -123.5q0 -13 -3 -27l-54 -310
h-110l36 207l-121 -10q-92 -8 -92 -58q0 -25 22 -39t60 -14q51 0 85.5 27t42.5 75h34q-15 -87 -73.5 -142t-135.5 -55q-65 0 -106 38t-41 99q0 68 53.5 111.5t143.5 50.5l145 12l1 9q2 13 2 18q0 35 -28 59t-69 24q-36 0 -66.5 -19t-43.5 -49l-98 44q28 56 85.5 90t124.5 34
z" />
    <glyph glyph-name="ae" unicode="&#xe6;" horiz-adv-x="912" 
d="M924 281q0 -34 -11 -76h-405q4 -54 45.5 -87.5t102.5 -33.5q98 0 151 82l89 -58q-44 -62 -107 -94t-138 -32q-106 0 -174.5 69t-68.5 175q0 121 80.5 207.5t197.5 86.5q101 0 169.5 -67.5t68.5 -171.5zM815 318q-4 45 -41.5 72.5t-89.5 27.5q-57 0 -104 -31.5t-63 -84.5
h299q0 11 -1 16zM309 512q80 0 132.5 -50.5t52.5 -124.5q0 -6 -2 -27l-14 -122q-12 -92 -74.5 -144.5t-162.5 -52.5q-78 0 -127 38t-49 99q-1 69 53 112.5t143 49.5l145 12l1 9q2 11 2 18q0 35 -28 59t-69 24q-36 0 -66.5 -19t-43.5 -49l-98 44q28 56 84 90t121 34zM390 182
l3 27l-123 -10q-45 -3 -69.5 -18t-24.5 -39q0 -26 23.5 -41t63.5 -15q50 0 85 27t42 69z" />
    <glyph glyph-name="ccedilla" unicode="&#xe7;" horiz-adv-x="589" 
d="M383 -152q0 15 -7.5 24t-20.5 9q-16 0 -30 -14l-79 37l22 126l84 -8l-17 -94q27 24 59 24q33 0 55 -27.5t22 -69.5q0 -60 -39.5 -100t-99.5 -40q-53 0 -88.5 28.5t-41.5 75.5l87 22q1 -18 13.5 -29.5t33.5 -11.5t34 13.5t13 34.5zM364 414q-72 0 -123 -53.5t-51 -129.5
q0 -63 41.5 -104t106.5 -41q47 0 89 23.5t66 65.5l92 -55q-41 -65 -108.5 -102t-146.5 -37q-108 0 -179 68.5t-71 172.5q0 123 85.5 210t206.5 87q88 0 154.5 -44t90.5 -118l-106 -42q-15 46 -54 72.5t-93 26.5z" />
    <glyph glyph-name="egrave" unicode="&#xe8;" horiz-adv-x="595" 
d="M264 727l61 63l149 -164l-58 -58zM498 316q-7 46 -43.5 74t-88.5 28q-56 0 -103 -31.5t-63 -84.5h299q0 9 -1 14zM606 281q0 -34 -10 -76h-404q3 -54 44.5 -87.5t103.5 -33.5q97 0 150 82l89 -58q-44 -63 -107.5 -94.5t-137.5 -31.5q-110 0 -183 69t-73 175
q0 121 85 207.5t205 86.5q102 0 170 -67.5t68 -171.5z" />
    <glyph glyph-name="eacute" unicode="&#xe9;" horiz-adv-x="595" 
d="M558 699l-48 73l-190 -135l44 -69zM498 316q-7 46 -43.5 74t-88.5 28q-56 0 -103 -31.5t-63 -84.5h299q0 9 -1 14zM606 281q0 -34 -10 -76h-404q3 -54 44.5 -87.5t103.5 -33.5q97 0 150 82l89 -58q-44 -63 -107.5 -94.5t-137.5 -31.5q-110 0 -183 69t-73 175
q0 121 85 207.5t205 86.5q102 0 170 -67.5t68 -171.5z" />
    <glyph glyph-name="ecircumflex" unicode="&#xea;" horiz-adv-x="595" 
d="M412 775l-201 -142l40 -71l163 119l121 -127l59 61l-152 157zM498 316q-7 46 -43.5 74t-88.5 28q-56 0 -103 -31.5t-63 -84.5h299q0 9 -1 14zM606 281q0 -34 -10 -76h-404q3 -54 44.5 -87.5t103.5 -33.5q97 0 150 82l89 -58q-44 -63 -107.5 -94.5t-137.5 -31.5
q-110 0 -183 69t-73 175q0 121 85 207.5t205 86.5q102 0 170 -67.5t68 -171.5z" />
    <glyph glyph-name="edieresis" unicode="&#xeb;" horiz-adv-x="595" 
d="M432 637q0 29 20 49t49 20t49 -20t20 -49t-20 -49t-49 -20t-49 20t-20 49zM212 637q0 29 20 49t49 20t49 -20t20 -49t-20 -49t-49 -20t-49 20t-20 49zM498 316q-7 46 -43.5 74t-88.5 28q-56 0 -103 -31.5t-63 -84.5h299q0 9 -1 14zM606 281q0 -34 -10 -76h-404
q3 -54 44.5 -87.5t103.5 -33.5q97 0 150 82l89 -58q-44 -63 -107.5 -94.5t-137.5 -31.5q-110 0 -183 69t-73 175q0 121 85 207.5t205 86.5q102 0 170 -67.5t68 -171.5z" />
    <glyph glyph-name="igrave" unicode="&#xec;" horiz-adv-x="216" 
d="M78 727l61 63l149 -164l-58 -58zM53 0l88 500h111l-88 -500h-111z" />
    <glyph glyph-name="iacute" unicode="&#xed;" horiz-adv-x="216" 
d="M372 699l-48 73l-190 -135l44 -69zM53 0l88 500h111l-88 -500h-111z" />
    <glyph glyph-name="icircumflex" unicode="&#xee;" horiz-adv-x="216" 
d="M225 775l-201 -142l40 -71l163 119l121 -127l59 61l-152 157zM53 0l88 500h111l-88 -500h-111z" />
    <glyph glyph-name="idieresis" unicode="&#xef;" horiz-adv-x="216" 
d="M245 637q0 29 20 49t49 20t49 -20t20 -49t-20 -49t-49 -20t-49 20t-20 49zM25 637q0 29 20 49t49 20t49 -20t20 -49t-20 -49t-49 -20t-49 20t-20 49zM53 0l88 500h111l-88 -500h-111z" />
    <glyph glyph-name="eth" unicode="&#xf0;" horiz-adv-x="610" 
d="M637 741l-287 -169l38 -65l286 166zM492 240q0 -59 -50.5 -103t-119.5 -44q-62 0 -102 35t-40 89q0 62 45.5 103t113.5 41q66 0 109.5 -34.5t43.5 -86.5zM69 204q0 -96 70 -158.5t178 -62.5q161 0 242 121q35 53 55 133.5t20 173.5q0 144 -66.5 237.5t-185.5 119.5
l-48 -101q93 -22 142.5 -89.5t49.5 -172.5q0 -24 -3 -50q-20 48 -75.5 78t-121.5 30q-105 0 -181 -76.5t-76 -182.5z" />
    <glyph glyph-name="ntilde" unicode="&#xf1;" horiz-adv-x="558" 
d="M323 725q-92 0 -136 -130l76 -18q23 68 57 68q21 0 46 -28q24 -26 44 -36t45 -10q92 0 135 130l-74 18q-24 -64 -63 -64q-23 0 -46 26q-23 25 -41.5 34.5t-42.5 9.5zM52 0l88 500h112l-88 -500h-112zM396 0l48 277q10 60 -17.5 98.5t-80.5 38.5q-49 0 -85 -33.5
t-46 -88.5h-47q17 87 82 153.5t144 66.5q87 0 133.5 -67.5t28.5 -169.5l-48 -275h-112z" />
    <glyph glyph-name="ograve" unicode="&#xf2;" horiz-adv-x="618" 
d="M281 726l61 63l149 -164l-58 -58zM367 415q-75 0 -126.5 -53.5t-51.5 -127.5q0 -65 43.5 -106t108.5 -41q75 0 126.5 53.5t51.5 127.5q0 65 -43.5 106t-108.5 41zM79 224q0 122 86 209t210 87q108 0 181 -68t73 -174q0 -122 -86 -209t-210 -87q-108 0 -181 68t-73 174z
" />
    <glyph glyph-name="oacute" unicode="&#xf3;" horiz-adv-x="618" 
d="M575 698l-48 73l-190 -135l44 -69zM367 415q-75 0 -126.5 -53.5t-51.5 -127.5q0 -65 43.5 -106t108.5 -41q75 0 126.5 53.5t51.5 127.5q0 65 -43.5 106t-108.5 41zM79 224q0 122 86 209t210 87q108 0 181 -68t73 -174q0 -122 -86 -209t-210 -87q-108 0 -181 68t-73 174z
" />
    <glyph glyph-name="ocircumflex" unicode="&#xf4;" horiz-adv-x="618" 
d="M428 774l-201 -142l40 -71l163 119l121 -127l59 61l-152 157zM367 415q-75 0 -126.5 -53.5t-51.5 -127.5q0 -65 43.5 -106t108.5 -41q75 0 126.5 53.5t51.5 127.5q0 65 -43.5 106t-108.5 41zM79 224q0 122 86 209t210 87q108 0 181 -68t73 -174q0 -122 -86 -209t-210 -87
q-108 0 -181 68t-73 174z" />
    <glyph glyph-name="otilde" unicode="&#xf5;" horiz-adv-x="618" 
d="M353 721q-92 0 -136 -130l76 -18q23 68 57 68q21 0 46 -28q24 -26 44 -36t45 -10q92 0 135 130l-74 18q-24 -64 -63 -64q-23 0 -46 26q-23 25 -41.5 34.5t-42.5 9.5zM367 415q-75 0 -126.5 -53.5t-51.5 -127.5q0 -65 43.5 -106t108.5 -41q75 0 126.5 53.5t51.5 127.5
q0 65 -43.5 106t-108.5 41zM79 224q0 122 86 209t210 87q108 0 181 -68t73 -174q0 -122 -86 -209t-210 -87q-108 0 -181 68t-73 174z" />
    <glyph glyph-name="odieresis" unicode="&#xf6;" horiz-adv-x="618" 
d="M448 636q0 29 20 49t49 20t49 -20t20 -49t-20 -49t-49 -20t-49 20t-20 49zM228 636q0 29 20 49t49 20t49 -20t20 -49t-20 -49t-49 -20t-49 20t-20 49zM367 415q-75 0 -126.5 -53.5t-51.5 -127.5q0 -65 43.5 -106t108.5 -41q75 0 126.5 53.5t51.5 127.5q0 65 -43.5 106
t-108.5 41zM79 224q0 122 86 209t210 87q108 0 181 -68t73 -174q0 -122 -86 -209t-210 -87q-108 0 -181 68t-73 174z" />
    <glyph glyph-name="divide" unicode="&#xf7;" horiz-adv-x="402" 
d="M198 443q0 35 22 58t54 23q35 0 58.5 -23.5t23.5 -57.5t-23 -56.5t-56.5 -22.5t-56 22.5t-22.5 56.5zM133 84q0 34 22 57t55 23q35 0 58 -23t23 -57t-22.5 -56.5t-56.5 -22.5t-56.5 22.5t-22.5 56.5zM430 315l-17 -97h-347l17 97h347z" />
    <glyph glyph-name="oslash" unicode="&#xf8;" horiz-adv-x="618" 
d="M367 415q-75 0 -126.5 -53.5t-51.5 -127.5q0 -65 43.5 -106t108.5 -41q75 0 126.5 53.5t51.5 127.5q0 65 -43.5 106t-108.5 41zM79 224q0 122 86 209t210 87q108 0 181 -68t73 -174q0 -122 -86 -209t-210 -87q-108 0 -181 68t-73 174zM571 527l55 -55l-495 -495l-55 55z
" />
    <glyph glyph-name="ugrave" unicode="&#xf9;" horiz-adv-x="548" 
d="M243 725l61 63l149 -164l-58 -58zM580 500l-88 -500h-112l88 500h112zM257 500l-54 -303q-9 -52 15.5 -81t74.5 -29q46 0 79 25.5t40 69.5h48q-17 -82 -77.5 -137t-136.5 -55q-82 0 -127.5 54t-28.5 148l55 308h112z" />
    <glyph glyph-name="uacute" unicode="&#xfa;" horiz-adv-x="548" 
d="M537 697l-48 73l-190 -135l44 -69zM580 500l-88 -500h-112l88 500h112zM257 500l-54 -303q-9 -52 15.5 -81t74.5 -29q46 0 79 25.5t40 69.5h48q-17 -82 -77.5 -137t-136.5 -55q-82 0 -127.5 54t-28.5 148l55 308h112z" />
    <glyph glyph-name="ucircumflex" unicode="&#xfb;" horiz-adv-x="548" 
d="M390 773l-201 -142l40 -71l163 119l121 -127l59 61l-152 157zM580 500l-88 -500h-112l88 500h112zM257 500l-54 -303q-9 -52 15.5 -81t74.5 -29q46 0 79 25.5t40 69.5h48q-17 -82 -77.5 -137t-136.5 -55q-82 0 -127.5 54t-28.5 148l55 308h112z" />
    <glyph glyph-name="udieresis" unicode="&#xfc;" horiz-adv-x="548" 
d="M410 635q0 29 20 49t49 20t49 -20t20 -49t-20 -49t-49 -20t-49 20t-20 49zM190 635q0 29 20 49t49 20t49 -20t20 -49t-20 -49t-49 -20t-49 20t-20 49zM580 500l-88 -500h-112l88 500h112zM257 500l-54 -303q-9 -52 15.5 -81t74.5 -29q46 0 79 25.5t40 69.5h48
q-17 -82 -77.5 -137t-136.5 -55q-82 0 -127.5 54t-28.5 148l55 308h112z" />
    <glyph glyph-name="yacute" unicode="&#xfd;" horiz-adv-x="579" 
d="M547 697l-48 73l-190 -135l44 -69zM518 500l-212 -369l-76 369h-114l107 -486l-123 -214h124l416 700h-122z" />
    <glyph glyph-name="thorn" unicode="&#xfe;" horiz-adv-x="638" 
d="M16 -200l166 950h111l-167 -950h-110zM383 416q-74 0 -125.5 -53.5t-51.5 -128.5q0 -64 43 -105.5t108 -41.5q75 0 126.5 53.5t51.5 128.5q0 64 -43 105.5t-109 41.5zM161 211q0 80 34.5 150.5t96 113.5t134.5 43q94 0 157 -65.5t63 -169.5q0 -79 -36 -149t-99 -112
t-137 -42q-94 0 -153.5 65t-59.5 166z" />
    <glyph glyph-name="ydieresis" unicode="&#xff;" horiz-adv-x="579" 
d="M420 635q0 29 20 49t49 20t49 -20t20 -49t-20 -49t-49 -20t-49 20t-20 49zM200 635q0 29 20 49t49 20t49 -20t20 -49t-20 -49t-49 -20t-49 20t-20 49zM518 500l-212 -369l-76 369h-114l107 -486l-123 -214h124l416 700h-122z" />
    <glyph glyph-name="Amacron" unicode="&#x100;" horiz-adv-x="777" 
d="M702 874l-16 -87h-322l16 87h322zM164 0h-131l407 700h149l162 -700h-121l-131 576zM240 276h400l-18 -104h-400z" />
    <glyph glyph-name="amacron" unicode="&#x101;" horiz-adv-x="512" 
d="M517 664l-16 -87h-322l16 87h322zM314 512q85 0 145.5 -51.5t60.5 -123.5q0 -13 -3 -27l-54 -310h-110l36 207l-121 -10q-92 -8 -92 -58q0 -25 22 -39t60 -14q51 0 85.5 27t42.5 75h34q-15 -87 -73.5 -142t-135.5 -55q-65 0 -106 38t-41 99q0 68 53.5 111.5t143.5 50.5
l145 12l1 9q2 13 2 18q0 35 -28 59t-69 24q-36 0 -66.5 -19t-43.5 -49l-98 44q28 56 85.5 90t124.5 34z" />
    <glyph glyph-name="Abreve" unicode="&#x102;" horiz-adv-x="777" 
d="M533 783q-66 0 -109.5 39.5t-43.5 99.5q0 14 3 28h81q-1 -8 -1 -16q0 -31 22 -51t58 -20q42 0 75.5 25.5t39.5 61.5h93q-12 -67 -77 -117t-141 -50zM164 0h-131l407 700h149l162 -700h-121l-131 576zM240 276h400l-18 -104h-400z" />
    <glyph glyph-name="abreve" unicode="&#x103;" horiz-adv-x="512" 
d="M348 573q-66 0 -109.5 39.5t-43.5 99.5q0 14 3 28h81q-1 -8 -1 -16q0 -31 22 -51t58 -20q42 0 75.5 25.5t39.5 61.5h93q-12 -67 -77 -117t-141 -50zM314 512q85 0 145.5 -51.5t60.5 -123.5q0 -13 -3 -27l-54 -310h-110l36 207l-121 -10q-92 -8 -92 -58q0 -25 22 -39
t60 -14q51 0 85.5 27t42.5 75h34q-15 -87 -73.5 -142t-135.5 -55q-65 0 -106 38t-41 99q0 68 53.5 111.5t143.5 50.5l145 12l1 9q2 13 2 18q0 35 -28 59t-69 24q-36 0 -66.5 -19t-43.5 -49l-98 44q28 56 85.5 90t124.5 34z" />
    <glyph glyph-name="Aogonek" unicode="&#x104;" horiz-adv-x="777" 
d="M634 -268q-51 0 -83.5 28.5t-32.5 73.5q0 42 22.5 72t75.5 58l27 14l5 27h78l-10 -57l-67 -35q-49 -25 -49 -64q0 -18 11 -28t29 -10q32 0 45 32l72 -23q-18 -42 -51 -65t-72 -23zM164 0h-131l407 700h149l162 -700h-121l-131 576zM240 276h400l-18 -104h-400z" />
    <glyph glyph-name="aogonek" unicode="&#x105;" horiz-adv-x="512" 
d="M357 -268q-51 0 -83.5 28.5t-32.5 73.5q0 42 22.5 72t75.5 58l27 14l5 27h78l-10 -57l-67 -35q-49 -25 -49 -64q0 -18 11 -28t29 -10q32 0 45 32l72 -23q-18 -42 -51 -65t-72 -23zM314 512q85 0 145.5 -51.5t60.5 -123.5q0 -13 -3 -27l-54 -310h-110l36 207l-121 -10
q-92 -8 -92 -58q0 -25 22 -39t60 -14q51 0 85.5 27t42.5 75h34q-15 -87 -73.5 -142t-135.5 -55q-65 0 -106 38t-41 99q0 68 53.5 111.5t143.5 50.5l145 12l1 9q2 13 2 18q0 35 -28 59t-69 24q-36 0 -66.5 -19t-43.5 -49l-98 44q28 56 85.5 90t124.5 34z" />
    <glyph glyph-name="Cacute" unicode="&#x106;" horiz-adv-x="778" 
d="M698 906l-48 73l-190 -135l44 -69zM96 316q0 111 52 204t143 146.5t199 53.5t195.5 -61t120.5 -177l-106 -35q-20 74 -79.5 118.5t-139.5 44.5q-114 0 -194.5 -84.5t-80.5 -203.5q0 -100 65.5 -165t164.5 -65q71 0 133.5 39t101.5 108l98 -55q-57 -96 -146.5 -149.5
t-193.5 -53.5q-144 0 -238.5 95.5t-94.5 239.5z" />
    <glyph glyph-name="cacute" unicode="&#x107;" horiz-adv-x="589" 
d="M572 697l-48 73l-190 -135l44 -69zM364 414q-72 0 -123 -53.5t-51 -129.5q0 -63 41.5 -104t106.5 -41q47 0 89 23.5t66 65.5l92 -55q-41 -65 -108.5 -102t-146.5 -37q-108 0 -179 68.5t-71 172.5q0 123 85.5 210t206.5 87q88 0 154.5 -44t90.5 -118l-106 -42
q-15 46 -54 72.5t-93 26.5z" />
    <glyph glyph-name="Ccircumflex" unicode="&#x108;" horiz-adv-x="778" 
d="M550 982l-201 -142l40 -71l163 119l121 -127l59 61l-152 157zM96 316q0 111 52 204t143 146.5t199 53.5t195.5 -61t120.5 -177l-106 -35q-20 74 -79.5 118.5t-139.5 44.5q-114 0 -194.5 -84.5t-80.5 -203.5q0 -100 65.5 -165t164.5 -65q71 0 133.5 39t101.5 108l98 -55
q-57 -96 -146.5 -149.5t-193.5 -53.5q-144 0 -238.5 95.5t-94.5 239.5z" />
    <glyph glyph-name="ccircumflex" unicode="&#x109;" horiz-adv-x="589" 
d="M425 773l-201 -142l40 -71l163 119l121 -127l59 61l-152 157zM364 414q-72 0 -123 -53.5t-51 -129.5q0 -63 41.5 -104t106.5 -41q47 0 89 23.5t66 65.5l92 -55q-41 -65 -108.5 -102t-146.5 -37q-108 0 -179 68.5t-71 172.5q0 123 85.5 210t206.5 87q88 0 154.5 -44
t90.5 -118l-106 -42q-15 46 -54 72.5t-93 26.5z" />
    <glyph glyph-name="Cdotaccent" unicode="&#x10a;" horiz-adv-x="778" 
d="M462 844q0 29 20 49t49 20t49 -20t20 -49t-20 -49t-49 -20t-49 20t-20 49zM96 316q0 111 52 204t143 146.5t199 53.5t195.5 -61t120.5 -177l-106 -35q-20 74 -79.5 118.5t-139.5 44.5q-114 0 -194.5 -84.5t-80.5 -203.5q0 -100 65.5 -165t164.5 -65q71 0 133.5 39
t101.5 108l98 -55q-57 -96 -146.5 -149.5t-193.5 -53.5q-144 0 -238.5 95.5t-94.5 239.5z" />
    <glyph glyph-name="cdotaccent" unicode="&#x10b;" horiz-adv-x="589" 
d="M336 635q0 29 20 49t49 20t49 -20t20 -49t-20 -49t-49 -20t-49 20t-20 49zM364 414q-72 0 -123 -53.5t-51 -129.5q0 -63 41.5 -104t106.5 -41q47 0 89 23.5t66 65.5l92 -55q-41 -65 -108.5 -102t-146.5 -37q-108 0 -179 68.5t-71 172.5q0 123 85.5 210t206.5 87
q88 0 154.5 -44t90.5 -118l-106 -42q-15 46 -54 72.5t-93 26.5z" />
    <glyph glyph-name="Ccaron" unicode="&#x10c;" horiz-adv-x="778" 
d="M545 767l200 142l-39 71l-163 -119l-121 127l-59 -61l152 -157zM96 316q0 111 52 204t143 146.5t199 53.5t195.5 -61t120.5 -177l-106 -35q-20 74 -79.5 118.5t-139.5 44.5q-114 0 -194.5 -84.5t-80.5 -203.5q0 -100 65.5 -165t164.5 -65q71 0 133.5 39t101.5 108l98 -55
q-57 -96 -146.5 -149.5t-193.5 -53.5q-144 0 -238.5 95.5t-94.5 239.5z" />
    <glyph glyph-name="ccaron" unicode="&#x10d;" horiz-adv-x="589" 
d="M420 558l200 142l-39 71l-163 -119l-121 127l-59 -61l152 -157zM364 414q-72 0 -123 -53.5t-51 -129.5q0 -63 41.5 -104t106.5 -41q47 0 89 23.5t66 65.5l92 -55q-41 -65 -108.5 -102t-146.5 -37q-108 0 -179 68.5t-71 172.5q0 123 85.5 210t206.5 87q88 0 154.5 -44
t90.5 -118l-106 -42q-15 46 -54 72.5t-93 26.5z" />
    <glyph glyph-name="Dcaron" unicode="&#x10e;" horiz-adv-x="703" 
d="M445 769l200 142l-39 71l-163 -119l-121 127l-59 -61l152 -157zM730 408q0 -111 -51 -204t-146 -148.5t-213 -55.5h-269l123 700h260q129 0 212.5 -83t83.5 -209zM328 106q87 0 154 40.5t102 106.5t35 144q0 89 -55.5 143t-148.5 54h-147l-86 -488h146z" />
    <glyph glyph-name="dcaron" unicode="&#x10f;" horiz-adv-x="815" 
d="M831 785l95 -28l-100 -236l-91 26zM589 0h-110l131 750h111zM345 87q75 0 126.5 53.5t51.5 128.5q0 64 -43 105.5t-109 41.5q-74 0 -125.5 -53.5t-51.5 -128.5q0 -64 43 -105.5t108 -41.5zM568 292q0 -80 -34.5 -150.5t-96 -113.5t-135.5 -43q-93 0 -156 65.5t-63 169.5
q0 79 35.5 149t99 112t137.5 42q94 0 153.5 -65.5t59.5 -165.5z" />
    <glyph glyph-name="Dcroat" unicode="&#x110;" horiz-adv-x="708" 
d="M730 406q0 -111 -51 -203.5t-146 -147.5t-213 -55h-234l124 700h224q129 0 212.5 -84t83.5 -210zM328 106q87 0 154 40.5t102 106.5t35 144q0 89 -55.5 143t-148.5 54h-112l-87 -488h112zM419 407l-17 -97h-347l17 97h347z" />
    <glyph glyph-name="dcroat" unicode="&#x111;" horiz-adv-x="668" 
d="M568 292q0 -80 -34.5 -150.5t-96 -113.5t-135.5 -43q-93 0 -156 65.5t-63 169.5q0 79 35.5 149t99 112t137.5 42q94 0 153.5 -65.5t59.5 -165.5zM345 87q75 0 126.5 53.5t51.5 128.5q0 64 -43 105.5t-109 41.5q-74 0 -125.5 -53.5t-51.5 -128.5q0 -64 43 -105.5
t108 -41.5zM589 0h-110l102 584h-197l16 90h197l13 76h111l-14 -76h80l-16 -90h-79z" />
    <glyph glyph-name="Emacron" unicode="&#x112;" horiz-adv-x="572" 
d="M600 873l-16 -87h-322l16 87h322zM236 416h349l-18 -108h-349l-36 -200h372l-19 -108h-483l123 700h482l-19 -108h-370z" />
    <glyph glyph-name="emacron" unicode="&#x113;" horiz-adv-x="595" 
d="M565 665l-16 -87h-322l16 87h322zM498 316q-7 46 -43.5 74t-88.5 28q-56 0 -103 -31.5t-63 -84.5h299q0 9 -1 14zM606 281q0 -34 -10 -76h-404q3 -54 44.5 -87.5t103.5 -33.5q97 0 150 82l89 -58q-44 -63 -107.5 -94.5t-137.5 -31.5q-110 0 -183 69t-73 175
q0 121 85 207.5t205 86.5q102 0 170 -67.5t68 -171.5z" />
    <glyph glyph-name="Ebreve" unicode="&#x114;" horiz-adv-x="572" 
d="M431 782q-66 0 -109.5 39.5t-43.5 99.5q0 14 3 28h81q-1 -8 -1 -16q0 -31 22 -51t58 -20q42 0 75.5 25.5t39.5 61.5h93q-12 -67 -77 -117t-141 -50zM236 416h349l-18 -108h-349l-36 -200h372l-19 -108h-483l123 700h482l-19 -108h-370z" />
    <glyph glyph-name="ebreve" unicode="&#x115;" horiz-adv-x="595" 
d="M396 574q-66 0 -109.5 39.5t-43.5 99.5q0 14 3 28h81q-1 -8 -1 -16q0 -31 22 -51t58 -20q42 0 75.5 25.5t39.5 61.5h93q-12 -67 -77 -117t-141 -50zM498 316q-7 46 -43.5 74t-88.5 28q-56 0 -103 -31.5t-63 -84.5h299q0 9 -1 14zM606 281q0 -34 -10 -76h-404
q3 -54 44.5 -87.5t103.5 -33.5q97 0 150 82l89 -58q-44 -63 -107.5 -94.5t-137.5 -31.5q-110 0 -183 69t-73 175q0 121 85 207.5t205 86.5q102 0 170 -67.5t68 -171.5z" />
    <glyph glyph-name="Edotaccent" unicode="&#x116;" horiz-adv-x="572" 
d="M358 845q0 29 20 49t49 20t49 -20t20 -49t-20 -49t-49 -20t-49 20t-20 49zM236 416h349l-18 -108h-349l-36 -200h372l-19 -108h-483l123 700h482l-19 -108h-370z" />
    <glyph glyph-name="edotaccent" unicode="&#x117;" horiz-adv-x="595" 
d="M322 637q0 29 20 49t49 20t49 -20t20 -49t-20 -49t-49 -20t-49 20t-20 49zM498 316q-7 46 -43.5 74t-88.5 28q-56 0 -103 -31.5t-63 -84.5h299q0 9 -1 14zM606 281q0 -34 -10 -76h-404q3 -54 44.5 -87.5t103.5 -33.5q97 0 150 82l89 -58q-44 -63 -107.5 -94.5
t-137.5 -31.5q-110 0 -183 69t-73 175q0 121 85 207.5t205 86.5q102 0 170 -67.5t68 -171.5z" />
    <glyph glyph-name="Eogonek" unicode="&#x118;" horiz-adv-x="572" 
d="M445 -268q-51 0 -83.5 28.5t-32.5 73.5q0 42 22.5 72t75.5 58l27 14l5 27h78l-10 -57l-67 -35q-49 -25 -49 -64q0 -18 11 -28t29 -10q32 0 45 32l72 -23q-18 -42 -51 -65t-72 -23zM236 416h349l-18 -108h-349l-36 -200h372l-19 -108h-483l123 700h482l-19 -108h-370z" />
    <glyph glyph-name="eogonek" unicode="&#x119;" horiz-adv-x="595" 
d="M243 -266q-51 0 -83.5 28.5t-32.5 73.5q0 42 22.5 72t75.5 58l27 14l5 27h78l-10 -57l-67 -35q-49 -25 -49 -64q0 -18 11 -28t29 -10q32 0 45 32l72 -23q-18 -42 -51 -65t-72 -23zM498 316q-7 46 -43.5 74t-88.5 28q-56 0 -103 -31.5t-63 -84.5h299q0 9 -1 14zM606 281
q0 -34 -10 -76h-404q3 -54 44.5 -87.5t103.5 -33.5q97 0 150 82l89 -58q-44 -63 -107.5 -94.5t-137.5 -31.5q-110 0 -183 69t-73 175q0 121 85 207.5t205 86.5q102 0 170 -67.5t68 -171.5z" />
    <glyph glyph-name="Ecaron" unicode="&#x11a;" horiz-adv-x="572" 
d="M442 768l200 142l-39 71l-163 -119l-121 127l-59 -61l152 -157zM236 416h349l-18 -108h-349l-36 -200h372l-19 -108h-483l123 700h482l-19 -108h-370z" />
    <glyph glyph-name="ecaron" unicode="&#x11b;" horiz-adv-x="595" 
d="M407 560l200 142l-39 71l-163 -119l-121 127l-59 -61l152 -157zM498 316q-7 46 -43.5 74t-88.5 28q-56 0 -103 -31.5t-63 -84.5h299q0 9 -1 14zM606 281q0 -34 -10 -76h-404q3 -54 44.5 -87.5t103.5 -33.5q97 0 150 82l89 -58q-44 -63 -107.5 -94.5t-137.5 -31.5
q-110 0 -183 69t-73 175q0 121 85 207.5t205 86.5q102 0 170 -67.5t68 -171.5z" />
    <glyph glyph-name="Gcircumflex" unicode="&#x11c;" 
d="M528 982l-201 -142l40 -71l163 119l121 -127l59 61l-152 157zM489 610q-117 0 -200 -83.5t-83 -201.5q0 -103 64.5 -168t166.5 -65q94 0 161 50.5t88 139.5h-275l16 98h389q-6 -178 -113 -288t-273 -110q-147 0 -241 93.5t-94 238.5q0 110 54.5 203.5t147.5 148t202 54.5
q110 0 195 -59.5t114 -156.5l-106 -41q-21 67 -78.5 107t-134.5 40z" />
    <glyph glyph-name="gcircumflex" unicode="&#x11d;" horiz-adv-x="598" 
d="M406 773l-201 -142l40 -71l163 119l121 -127l59 61l-152 157zM530 306q0 -113 -71.5 -196t-172.5 -83q-88 0 -147 61t-59 155q0 112 75.5 194.5t178.5 82.5q87 0 141.5 -61t54.5 -153zM325 129q65 0 110 45t45 108q0 55 -38.5 90.5t-96.5 35.5q-65 0 -109.5 -45
t-44.5 -108q0 -55 38 -90.5t96 -35.5zM136 -5q14 -51 53.5 -81t95.5 -30t97 29t49 75l89 512h111l-92 -522q-16 -93 -87 -150t-171 -57q-31 0 -65.5 8.5t-71.5 26.5t-67.5 53.5t-44.5 82.5z" />
    <glyph glyph-name="Gbreve" unicode="&#x11e;" 
d="M512 781q-66 0 -109.5 39.5t-43.5 99.5q0 14 3 28h81q-1 -8 -1 -16q0 -31 22 -51t58 -20q42 0 75.5 25.5t39.5 61.5h93q-12 -67 -77 -117t-141 -50zM489 610q-117 0 -200 -83.5t-83 -201.5q0 -103 64.5 -168t166.5 -65q94 0 161 50.5t88 139.5h-275l16 98h389
q-6 -178 -113 -288t-273 -110q-147 0 -241 93.5t-94 238.5q0 110 54.5 203.5t147.5 148t202 54.5q110 0 195 -59.5t114 -156.5l-106 -41q-21 67 -78.5 107t-134.5 40z" />
    <glyph glyph-name="gbreve" unicode="&#x11f;" horiz-adv-x="598" 
d="M390 572q-66 0 -109.5 39.5t-43.5 99.5q0 14 3 28h81q-1 -8 -1 -16q0 -31 22 -51t58 -20q42 0 75.5 25.5t39.5 61.5h93q-12 -67 -77 -117t-141 -50zM530 306q0 -113 -71.5 -196t-172.5 -83q-88 0 -147 61t-59 155q0 112 75.5 194.5t178.5 82.5q87 0 141.5 -61t54.5 -153z
M325 129q65 0 110 45t45 108q0 55 -38.5 90.5t-96.5 35.5q-65 0 -109.5 -45t-44.5 -108q0 -55 38 -90.5t96 -35.5zM136 -5q14 -51 53.5 -81t95.5 -30t97 29t49 75l89 512h111l-92 -522q-16 -93 -87 -150t-171 -57q-31 0 -65.5 8.5t-71.5 26.5t-67.5 53.5t-44.5 82.5z" />
    <glyph glyph-name="Gdotaccent" unicode="&#x120;" 
d="M440 844q0 29 20 49t49 20t49 -20t20 -49t-20 -49t-49 -20t-49 20t-20 49zM489 610q-117 0 -200 -83.5t-83 -201.5q0 -103 64.5 -168t166.5 -65q94 0 161 50.5t88 139.5h-275l16 98h389q-6 -178 -113 -288t-273 -110q-147 0 -241 93.5t-94 238.5q0 110 54.5 203.5
t147.5 148t202 54.5q110 0 195 -59.5t114 -156.5l-106 -41q-21 67 -78.5 107t-134.5 40z" />
    <glyph glyph-name="gdotaccent" unicode="&#x121;" horiz-adv-x="598" 
d="M317 635q0 29 20 49t49 20t49 -20t20 -49t-20 -49t-49 -20t-49 20t-20 49zM530 306q0 -113 -71.5 -196t-172.5 -83q-88 0 -147 61t-59 155q0 112 75.5 194.5t178.5 82.5q87 0 141.5 -61t54.5 -153zM325 129q65 0 110 45t45 108q0 55 -38.5 90.5t-96.5 35.5
q-65 0 -109.5 -45t-44.5 -108q0 -55 38 -90.5t96 -35.5zM136 -5q14 -51 53.5 -81t95.5 -30t97 29t49 75l89 512h111l-92 -522q-16 -93 -87 -150t-171 -57q-31 0 -65.5 8.5t-71.5 26.5t-67.5 53.5t-44.5 82.5z" />
    <glyph glyph-name="uni0122" unicode="&#x122;" 
d="M423 -235q0 -29 -21 -50.5t-49 -21.5t-47.5 18.5t-19.5 45.5q0 31 23 54l129 136l37 -37l-84 -87q32 -19 32 -58zM489 610q-117 0 -200 -83.5t-83 -201.5q0 -103 64.5 -168t166.5 -65q94 0 161 50.5t88 139.5h-275l16 98h389q-6 -178 -113 -288t-273 -110
q-147 0 -241 93.5t-94 238.5q0 110 54.5 203.5t147.5 148t202 54.5q110 0 195 -59.5t114 -156.5l-106 -41q-21 67 -78.5 107t-134.5 40z" />
    <glyph glyph-name="uni0123" unicode="&#x123;" horiz-adv-x="598" 
d="M465 634q-5 -27 -27.5 -47.5t-52 -20.5t-46 19.5t-11.5 48.5q4 25 21 44l132 150l37 -32l-85 -97q18 -8 26.5 -25.5t5.5 -39.5zM530 306q0 -113 -71.5 -196t-172.5 -83q-88 0 -147 61t-59 155q0 112 75.5 194.5t178.5 82.5q87 0 141.5 -61t54.5 -153zM325 129
q65 0 110 45t45 108q0 55 -38.5 90.5t-96.5 35.5q-65 0 -109.5 -45t-44.5 -108q0 -55 38 -90.5t96 -35.5zM136 -5q14 -51 53.5 -81t95.5 -30t97 29t49 75l89 512h111l-92 -522q-16 -93 -87 -150t-171 -57q-31 0 -65.5 8.5t-71.5 26.5t-67.5 53.5t-44.5 82.5z" />
    <glyph glyph-name="Hcircumflex" unicode="&#x124;" horiz-adv-x="690" 
d="M500 982l-201 -142l40 -71l163 119l121 -127l59 61l-152 157zM52 0l122 700h112l-51 -288h361l50 288h110l-122 -700h-110l54 306h-361l-54 -306h-111z" />
    <glyph glyph-name="hcircumflex" unicode="&#x125;" horiz-adv-x="558" 
d="M268 1007l-201 -142l40 -71l163 119l121 -127l59 61l-152 157zM52 0l132 750h112l-132 -750h-112zM396 0l48 277q10 60 -17.5 98.5t-80.5 38.5q-49 0 -85 -33.5t-46 -88.5h-47q18 96 81.5 158t144.5 62q87 0 133.5 -67.5t28.5 -169.5l-48 -275h-112z" />
    <glyph glyph-name="Hbar" unicode="&#x126;" horiz-adv-x="690" 
d="M794 588l-17 -96h-55l-87 -492h-113l51 292h-354l-51 -292h-113l87 492h-55l17 96h55l19 112h113l-19 -112h354l19 112h113l-19 -112h55zM255 492l-16 -92h354l16 92h-354z" />
    <glyph glyph-name="hbar" unicode="&#x127;" horiz-adv-x="563" 
d="M401 0l48 277q10 60 -17.5 98.5t-80.5 38.5q-49 0 -85 -33.5t-46 -88.5h-47q18 96 81.5 158t144.5 62q87 0 133.5 -67.5t28.5 -169.5l-49 -275h-111zM57 0l104 592h-56l17 97h56l11 61h112l-11 -61h179l-17 -97h-179l-103 -592h-113z" />
    <glyph glyph-name="Itilde" unicode="&#x128;" horiz-adv-x="220" 
d="M187 929q-92 0 -136 -130l76 -18q23 68 57 68q21 0 46 -28q24 -26 44 -36t45 -10q92 0 135 130l-74 18q-24 -64 -63 -64q-23 0 -46 26q-23 25 -41.5 34.5t-42.5 9.5zM163 0h-112l123 700h111z" />
    <glyph glyph-name="itilde" unicode="&#x129;" horiz-adv-x="216" 
d="M150 722q-92 0 -136 -130l76 -18q23 68 57 68q21 0 46 -28q24 -26 44 -36t45 -10q92 0 135 130l-74 18q-24 -64 -63 -64q-23 0 -46 26q-23 25 -41.5 34.5t-42.5 9.5zM53 0l88 500h111l-88 -500h-111z" />
    <glyph glyph-name="Imacron" unicode="&#x12a;" horiz-adv-x="220" 
d="M415 872l-16 -87h-322l16 87h322zM163 0h-112l123 700h111z" />
    <glyph glyph-name="imacron" unicode="&#x12b;" horiz-adv-x="216" 
d="M378 665l-16 -87h-322l16 87h322zM53 0l88 500h111l-88 -500h-111z" />
    <glyph glyph-name="Ibreve" unicode="&#x12c;" horiz-adv-x="220" 
d="M246 781q-66 0 -109.5 39.5t-43.5 99.5q0 14 3 28h81q-1 -8 -1 -16q0 -31 22 -51t58 -20q42 0 75.5 25.5t39.5 61.5h93q-12 -67 -77 -117t-141 -50zM163 0h-112l123 700h111z" />
    <glyph glyph-name="ibreve" unicode="&#x12d;" horiz-adv-x="216" 
d="M209 574q-66 0 -109.5 39.5t-43.5 99.5q0 14 3 28h81q-1 -8 -1 -16q0 -31 22 -51t58 -20q42 0 75.5 25.5t39.5 61.5h93q-12 -67 -77 -117t-141 -50zM53 0l88 500h111l-88 -500h-111z" />
    <glyph glyph-name="Iogonek" unicode="&#x12e;" horiz-adv-x="220" 
d="M55 -268q-51 0 -83.5 28.5t-32.5 73.5q0 42 22.5 72t75.5 58l27 14l5 27h78l-10 -57l-67 -35q-49 -25 -49 -64q0 -18 11 -28t29 -10q32 0 45 32l72 -23q-18 -42 -51 -65t-72 -23zM163 0h-112l123 700h111z" />
    <glyph glyph-name="iogonek" unicode="&#x12f;" horiz-adv-x="216" 
d="M55 -268q-51 0 -83.5 28.5t-32.5 73.5q0 42 22.5 72t75.5 58l27 14l5 27h78l-10 -57l-67 -35q-49 -25 -49 -64q0 -18 11 -28t29 -10q32 0 45 32l72 -23q-18 -42 -51 -65t-72 -23zM156 641q0 29 19.5 49t49 20t49.5 -20t20 -49t-20 -49t-49.5 -20t-49 20t-19.5 49zM53 0
l88 500h111l-88 -500h-111z" />
    <glyph glyph-name="Idotaccent" unicode="&#x130;" horiz-adv-x="220" 
d="M174 844q0 29 20 49t49 20t49 -20t20 -49t-20 -49t-49 -20t-49 20t-20 49zM163 0h-112l123 700h111z" />
    <glyph glyph-name="dotlessi" unicode="&#x131;" horiz-adv-x="216" 
d="M53 0l88 500h111l-88 -500h-111z" />
    <glyph glyph-name="IJ" unicode="&#x132;" horiz-adv-x="840" 
d="M393 229q8 -63 47.5 -96t104.5 -33q66 0 112 41t58 113l78 446h111l-82 -466q-19 -107 -99.5 -175.5t-187.5 -68.5q-103 0 -170.5 57.5t-80.5 155.5zM163 0h-112l123 700h111z" />
    <glyph glyph-name="ij" unicode="&#x133;" horiz-adv-x="432" 
d="M372 641q0 29 19.5 49t49 20t49.5 -20t20 -49t-20 -49t-49.5 -20t-49 20t-19.5 49zM189 -84q31 0 52.5 23t27.5 58l88 503h111l-96 -546q-11 -61 -59 -104t-114 -43h-45l14 109h21zM156 641q0 29 19.5 49t49 20t49.5 -20t20 -49t-20 -49t-49.5 -20t-49 20t-19.5 49zM53 0
l88 500h111l-88 -500h-111z" />
    <glyph glyph-name="Jcircumflex" unicode="&#x134;" horiz-adv-x="620" 
d="M656 964l-201 -142l40 -71l163 119l121 -127l59 61l-152 157zM173 229q8 -63 47.5 -96t104.5 -33q66 0 112 41t58 113l78 446h111l-82 -466q-19 -107 -99.5 -175.5t-187.5 -68.5q-103 0 -170.5 57.5t-80.5 155.5z" />
    <glyph glyph-name="jcircumflex" unicode="&#x135;" horiz-adv-x="216" 
d="M228 775l-201 -142l40 -71l163 119l121 -127l59 61l-152 157zM-27 -84q31 0 52.5 23t27.5 58l88 503h111l-96 -546q-11 -61 -59 -104t-114 -43h-45l14 109h21z" />
    <glyph glyph-name="uni0136" unicode="&#x136;" horiz-adv-x="641" 
d="M297 -235q0 -29 -21 -50.5t-49 -21.5t-47.5 18.5t-19.5 45.5q0 31 23 54l129 136l37 -37l-84 -87q32 -19 32 -58zM52 0l123 700h111l-52 -294h26l326 294h151l-387 -350l261 -350h-138l-227 293h-31l-52 -293h-111z" />
    <glyph glyph-name="uni0137" unicode="&#x137;" horiz-adv-x="538" 
d="M265 -233q0 -29 -21 -50.5t-49 -21.5t-47.5 18.5t-19.5 45.5q0 31 23 54l129 136l37 -37l-84 -87q32 -19 32 -58zM52 0l127 725h111l-72 -411h25l210 186h155l-279 -250l185 -250h-133l-156 202h-27l-35 -202h-111z" />
    <glyph glyph-name="kgreenlandic" unicode="&#x138;" horiz-adv-x="538" 
d="M52 0l89 500h110l-33 -186h25l210 186h155l-279 -250l185 -250h-133l-156 202h-27l-35 -202h-111z" />
    <glyph glyph-name="Lacute" unicode="&#x139;" horiz-adv-x="562" 
d="M414 923l-48 73l-190 -135l44 -69zM182 108h372l-20 -108h-482l123 700h111z" />
    <glyph glyph-name="lacute" unicode="&#x13a;" horiz-adv-x="220" 
d="M416 931l-48 73l-190 -135l44 -69zM54 0l132 750h112l-132 -750h-112z" />
    <glyph glyph-name="uni013B" unicode="&#x13b;" horiz-adv-x="562" 
d="M293 -234q0 -29 -21 -50.5t-49 -21.5t-47.5 18.5t-19.5 45.5q0 31 23 54l129 136l37 -37l-84 -87q32 -19 32 -58zM182 108h372l-20 -108h-482l123 700h111z" />
    <glyph glyph-name="uni013C" unicode="&#x13c;" horiz-adv-x="220" 
d="M104 -235q0 -29 -21 -50.5t-49 -21.5t-47.5 18.5t-19.5 45.5q0 31 23 54l129 136l37 -37l-84 -87q32 -19 32 -58zM54 0l132 750h112l-132 -750h-112z" />
    <glyph glyph-name="Lcaron" unicode="&#x13d;" horiz-adv-x="562" 
d="M479 736l95 -28l-100 -236l-91 26zM182 108h372l-20 -108h-482l123 700h111z" />
    <glyph glyph-name="lcaron" unicode="&#x13e;" horiz-adv-x="401" 
d="M417 793l95 -28l-100 -236l-91 26zM54 0l132 750h112l-132 -750h-112z" />
    <glyph glyph-name="Ldot" unicode="&#x13f;" horiz-adv-x="562" 
d="M341 359q0 32 20.5 53.5t51.5 21.5q32 0 54 -21.5t22 -53.5t-21.5 -53t-53 -21t-52.5 21t-21 53zM182 108h372l-20 -108h-482l123 700h111z" />
    <glyph glyph-name="ldot" unicode="&#x140;" horiz-adv-x="444" 
d="M322 365q0 32 20.5 53.5t51.5 21.5q32 0 54 -21.5t22 -53.5t-21.5 -53t-53 -21t-52.5 21t-21 53zM54 0l132 750h112l-132 -750h-112z" />
    <glyph glyph-name="Lslash" unicode="&#x141;" horiz-adv-x="567" 
d="M399 446l2 -96l-332 -64l-1 95zM189 108h370l-19 -108h-480l123 700h110z" />
    <glyph glyph-name="lslash" unicode="&#x142;" horiz-adv-x="273" 
d="M330 454l1 -96l-251 -42l-2 96zM80 0l132 750h110l-132 -750h-110z" />
    <glyph glyph-name="Nacute" unicode="&#x143;" horiz-adv-x="690" 
d="M651 906l-48 73l-190 -135l44 -69zM51 0l123 700h137l241 -542l94 542h111l-122 -700h-137l-240 547l-95 -547h-112z" />
    <glyph glyph-name="nacute" unicode="&#x144;" horiz-adv-x="558" 
d="M545 702l-48 73l-190 -135l44 -69zM52 0l88 500h112l-88 -500h-112zM396 0l48 277q10 60 -17.5 98.5t-80.5 38.5q-49 0 -85 -33.5t-46 -88.5h-47q17 87 82 153.5t144 66.5q87 0 133.5 -67.5t28.5 -169.5l-48 -275h-112z" />
    <glyph glyph-name="uni0145" unicode="&#x145;" horiz-adv-x="690" 
d="M352 -235q0 -29 -21 -50.5t-49 -21.5t-47.5 18.5t-19.5 45.5q0 31 23 54l129 136l37 -37l-84 -87q32 -19 32 -58zM51 0l123 700h137l241 -542l94 542h111l-122 -700h-137l-240 547l-95 -547h-112z" />
    <glyph glyph-name="uni0146" unicode="&#x146;" horiz-adv-x="558" 
d="M285 -233q0 -29 -21 -50.5t-49 -21.5t-47.5 18.5t-19.5 45.5q0 31 23 54l129 136l37 -37l-84 -87q32 -19 32 -58zM52 0l88 500h112l-88 -500h-112zM396 0l48 277q10 60 -17.5 98.5t-80.5 38.5q-49 0 -85 -33.5t-46 -88.5h-47q17 87 82 153.5t144 66.5q87 0 133.5 -67.5
t28.5 -169.5l-48 -275h-112z" />
    <glyph glyph-name="Ncaron" unicode="&#x147;" horiz-adv-x="690" 
d="M499 767l200 142l-39 71l-163 -119l-121 127l-59 -61l152 -157zM51 0l123 700h137l241 -542l94 542h111l-122 -700h-137l-240 547l-95 -547h-112z" />
    <glyph glyph-name="ncaron" unicode="&#x148;" horiz-adv-x="558" 
d="M393 563l200 142l-39 71l-163 -119l-121 127l-59 -61l152 -157zM52 0l88 500h112l-88 -500h-112zM396 0l48 277q10 60 -17.5 98.5t-80.5 38.5q-49 0 -85 -33.5t-46 -88.5h-47q17 87 82 153.5t144 66.5q87 0 133.5 -67.5t28.5 -169.5l-48 -275h-112z" />
    <glyph glyph-name="napostrophe" unicode="&#x149;" horiz-adv-x="741" 
d="M236 0l88 500h112l-88 -500h-112zM580 0l48 277q10 60 -17.5 98.5t-80.5 38.5q-49 0 -85 -33.5t-46 -88.5h-47q17 87 82 153.5t144 66.5q87 0 133.5 -67.5t28.5 -169.5l-48 -275h-112zM220 767l94 -37l-100 -230l-89 34z" />
    <glyph glyph-name="Eng" unicode="&#x14a;" horiz-adv-x="658" 
d="M55 0l123 700h110l-123 -700h-110zM380 -59q50 0 82 31.5t40 80.5l67 380q14 78 -21.5 123t-103.5 45q-72 0 -131 -49.5t-72 -118.5h-48q20 112 109 195t196 83q97 0 151 -73t34 -185l-73 -414q-15 -84 -82 -145t-157 -61h-74l19 108h64z" />
    <glyph glyph-name="eng" unicode="&#x14b;" horiz-adv-x="558" 
d="M55 0l88 500h110l-88 -500h-110zM396 15l48 273q9 55 -15.5 86.5t-73.5 31.5t-90 -34.5t-49 -83.5h-48q16 91 86 157t154 66q79 0 122.5 -55t28.5 -138l-57 -322q-12 -69 -68 -117.5t-129 -48.5h-69l18 103h54q35 0 58 23t30 59z" />
    <glyph glyph-name="Omacron" unicode="&#x14c;" 
d="M667 873l-16 -87h-322l16 87h322zM479 610q-113 0 -193 -84t-80 -203q0 -102 65 -166.5t164 -64.5q114 0 193.5 85.5t79.5 203.5q0 101 -65 165t-164 64zM96 319q0 109 51.5 201t140.5 146t193 54q145 0 241.5 -95t96.5 -239q0 -108 -51.5 -201t-140.5 -148t-195 -55
q-143 0 -239.5 96t-96.5 241z" />
    <glyph glyph-name="omacron" unicode="&#x14d;" horiz-adv-x="618" 
d="M581 664l-16 -87h-322l16 87h322zM367 415q-75 0 -126.5 -53.5t-51.5 -127.5q0 -65 43.5 -106t108.5 -41q75 0 126.5 53.5t51.5 127.5q0 65 -43.5 106t-108.5 41zM79 224q0 122 86 209t210 87q108 0 181 -68t73 -174q0 -122 -86 -209t-210 -87q-108 0 -181 68t-73 174z
" />
    <glyph glyph-name="Obreve" unicode="&#x14e;" 
d="M498 782q-66 0 -109.5 39.5t-43.5 99.5q0 14 3 28h81q-1 -8 -1 -16q0 -31 22 -51t58 -20q42 0 75.5 25.5t39.5 61.5h93q-12 -67 -77 -117t-141 -50zM479 610q-113 0 -193 -84t-80 -203q0 -102 65 -166.5t164 -64.5q114 0 193.5 85.5t79.5 203.5q0 101 -65 165t-164 64z
M96 319q0 109 51.5 201t140.5 146t193 54q145 0 241.5 -95t96.5 -239q0 -108 -51.5 -201t-140.5 -148t-195 -55q-143 0 -239.5 96t-96.5 241z" />
    <glyph glyph-name="obreve" unicode="&#x14f;" horiz-adv-x="618" 
d="M412 573q-66 0 -109.5 39.5t-43.5 99.5q0 14 3 28h81q-1 -8 -1 -16q0 -31 22 -51t58 -20q42 0 75.5 25.5t39.5 61.5h93q-12 -67 -77 -117t-141 -50zM367 415q-75 0 -126.5 -53.5t-51.5 -127.5q0 -65 43.5 -106t108.5 -41q75 0 126.5 53.5t51.5 127.5q0 65 -43.5 106
t-108.5 41zM79 224q0 122 86 209t210 87q108 0 181 -68t73 -174q0 -122 -86 -209t-210 -87q-108 0 -181 68t-73 174z" />
    <glyph glyph-name="Ohungarumlaut" unicode="&#x150;" 
d="M748 910l-43 73l-191 -146l35 -58zM538 910l-43 73l-191 -146l35 -58zM479 610q-113 0 -193 -84t-80 -203q0 -102 65 -166.5t164 -64.5q114 0 193.5 85.5t79.5 203.5q0 101 -65 165t-164 64zM96 319q0 109 51.5 201t140.5 146t193 54q145 0 241.5 -95t96.5 -239
q0 -108 -51.5 -201t-140.5 -148t-195 -55q-143 0 -239.5 96t-96.5 241z" />
    <glyph glyph-name="ohungarumlaut" unicode="&#x151;" horiz-adv-x="618" 
d="M662 701l-43 73l-191 -146l35 -58zM452 701l-43 73l-191 -146l35 -58zM367 415q-75 0 -126.5 -53.5t-51.5 -127.5q0 -65 43.5 -106t108.5 -41q75 0 126.5 53.5t51.5 127.5q0 65 -43.5 106t-108.5 41zM79 224q0 122 86 209t210 87q108 0 181 -68t73 -174q0 -122 -86 -209
t-210 -87q-108 0 -181 68t-73 174z" />
    <glyph glyph-name="OE" unicode="&#x152;" horiz-adv-x="1178" 
d="M832 416h349l-19 -108h-349l-35 -200h371l-19 -108h-483l124 700h481l-18 -108h-370zM480 610q-114 0 -194 -84t-80 -202q0 -103 65 -167.5t163 -64.5q114 0 194 85.5t80 202.5q0 101 -65 165.5t-163 64.5zM96 321q0 107 51 199t139 146t191 54q136 0 226.5 -94.5
t90.5 -241.5q0 -102 -52 -195.5t-140 -150t-186 -56.5q-136 0 -228 96.5t-92 242.5z" />
    <glyph glyph-name="oe" unicode="&#x153;" horiz-adv-x="1044" 
d="M939 318q-4 45 -41.5 72.5t-89.5 27.5q-57 0 -103.5 -31.5t-62.5 -84.5h298q0 11 -1 16zM1048 280q0 -33 -12 -75h-403q4 -53 45 -87t101 -34q47 0 87.5 21.5t65.5 60.5l88 -58q-43 -62 -105.5 -94t-135.5 -32q-107 0 -177 69t-70 177q0 120 82 206t199 86
q100 0 167.5 -68t67.5 -172zM367 415q-74 0 -126 -53t-52 -128q0 -64 43.5 -105.5t108.5 -41.5q74 0 126 53t52 128q0 64 -43.5 105.5t-108.5 41.5zM79 226q0 121 85.5 207.5t207.5 86.5q106 0 175.5 -68.5t69.5 -175.5q0 -122 -83.5 -208t-202.5 -86q-108 0 -180 69
t-72 175z" />
    <glyph glyph-name="Racute" unicode="&#x154;" horiz-adv-x="638" 
d="M616 908l-48 73l-190 -135l44 -69zM410 360q64 0 112.5 41.5t48.5 95.5q0 42 -32.5 68.5t-83.5 26.5h-188l-41 -232h184zM687 508q0 -95 -68 -165t-167 -80l148 -263h-126l-142 253h-124l-46 -253h-110l124 700h308q91 0 147 -54t56 -138z" />
    <glyph glyph-name="racute" unicode="&#x155;" horiz-adv-x="360" 
d="M476 696l-48 73l-190 -135l44 -69zM51 0l88 500h110l-87 -500h-111zM374 400q-59 0 -107 -35t-57 -85h-47q16 94 82.5 161.5t143.5 67.5h35l-20 -109h-30z" />
    <glyph glyph-name="uni0156" unicode="&#x156;" horiz-adv-x="638" 
d="M305 -235q0 -29 -21 -50.5t-49 -21.5t-47.5 18.5t-19.5 45.5q0 31 23 54l129 136l37 -37l-84 -87q32 -19 32 -58zM410 360q64 0 112.5 41.5t48.5 95.5q0 42 -32.5 68.5t-83.5 26.5h-188l-41 -232h184zM687 508q0 -95 -68 -165t-167 -80l148 -263h-126l-142 253h-124
l-46 -253h-110l124 700h308q91 0 147 -54t56 -138z" />
    <glyph glyph-name="uni0157" unicode="&#x157;" horiz-adv-x="360" 
d="M103 -235q0 -29 -21 -50.5t-49 -21.5t-47.5 18.5t-19.5 45.5q0 31 23 54l129 136l37 -37l-84 -87q32 -19 32 -58zM51 0l88 500h110l-87 -500h-111zM374 400q-59 0 -107 -35t-57 -85h-47q16 94 82.5 161.5t143.5 67.5h35l-20 -109h-30z" />
    <glyph glyph-name="Rcaron" unicode="&#x158;" horiz-adv-x="638" 
d="M463 769l200 142l-39 71l-163 -119l-121 127l-59 -61l152 -157zM410 360q64 0 112.5 41.5t48.5 95.5q0 42 -32.5 68.5t-83.5 26.5h-188l-41 -232h184zM687 508q0 -95 -68 -165t-167 -80l148 -263h-126l-142 253h-124l-46 -253h-110l124 700h308q91 0 147 -54t56 -138z
" />
    <glyph glyph-name="rcaron" unicode="&#x159;" horiz-adv-x="360" 
d="M324 557l200 142l-39 71l-163 -119l-121 127l-59 -61l152 -157zM51 0l88 500h110l-87 -500h-111zM374 400q-59 0 -107 -35t-57 -85h-47q16 94 82.5 161.5t143.5 67.5h35l-20 -109h-30z" />
    <glyph glyph-name="Sacute" unicode="&#x15a;" horiz-adv-x="584" 
d="M554 908l-48 73l-190 -135l44 -69zM342 94q55 0 93 29t38 71q0 65 -131 102q-101 30 -153 80.5t-52 119.5q0 93 69.5 155.5t172.5 62.5q97 0 168.5 -54t90.5 -142l-110 -32q-13 56 -54.5 89t-98.5 33q-53 0 -88 -28.5t-35 -71.5q0 -33 31 -57t98 -44q100 -30 153.5 -82.5
t53.5 -122.5q0 -91 -71.5 -152.5t-177.5 -61.5q-100 0 -173.5 54t-93.5 142l112 40q13 -60 55.5 -95t102.5 -35z" />
    <glyph glyph-name="sacute" unicode="&#x15b;" horiz-adv-x="484" 
d="M512 697l-48 73l-190 -135l44 -69zM279 80q35 0 57.5 17t22.5 42q0 40 -91 64q-164 40 -164 144q0 68 54 117.5t136 49.5q74 0 131 -42.5t73 -113.5l-110 -23q-7 34 -31.5 58t-65.5 24q-32 0 -54 -17t-22 -41q0 -38 88 -61q82 -20 125 -58t43 -90q0 -67 -55.5 -114.5
t-140.5 -47.5q-80 0 -141.5 42t-78.5 110l109 26q8 -34 39 -60t76 -26z" />
    <glyph glyph-name="Scircumflex" unicode="&#x15c;" horiz-adv-x="584" 
d="M406 984l-201 -142l40 -71l163 119l121 -127l59 61l-152 157zM342 94q55 0 93 29t38 71q0 65 -131 102q-101 30 -153 80.5t-52 119.5q0 93 69.5 155.5t172.5 62.5q97 0 168.5 -54t90.5 -142l-110 -32q-13 56 -54.5 89t-98.5 33q-53 0 -88 -28.5t-35 -71.5q0 -33 31 -57
t98 -44q100 -30 153.5 -82.5t53.5 -122.5q0 -91 -71.5 -152.5t-177.5 -61.5q-100 0 -173.5 54t-93.5 142l112 40q13 -60 55.5 -95t102.5 -35z" />
    <glyph glyph-name="scircumflex" unicode="&#x15d;" horiz-adv-x="484" 
d="M365 773l-201 -142l40 -71l163 119l121 -127l59 61l-152 157zM279 80q35 0 57.5 17t22.5 42q0 40 -91 64q-164 40 -164 144q0 68 54 117.5t136 49.5q74 0 131 -42.5t73 -113.5l-110 -23q-7 34 -31.5 58t-65.5 24q-32 0 -54 -17t-22 -41q0 -38 88 -61q82 -20 125 -58
t43 -90q0 -67 -55.5 -114.5t-140.5 -47.5q-80 0 -141.5 42t-78.5 110l109 26q8 -34 39 -60t76 -26z" />
    <glyph glyph-name="Scedilla" unicode="&#x15e;" horiz-adv-x="584" 
d="M418 -152q0 15 -7.5 24t-20.5 9q-16 0 -30 -14l-79 37l22 126l84 -8l-17 -94q27 24 59 24q33 0 55 -27.5t22 -69.5q0 -60 -39.5 -100t-99.5 -40q-53 0 -88.5 28.5t-41.5 75.5l87 22q1 -18 13.5 -29.5t33.5 -11.5t34 13.5t13 34.5zM342 94q55 0 93 29t38 71q0 65 -131 102
q-101 30 -153 80.5t-52 119.5q0 93 69.5 155.5t172.5 62.5q97 0 168.5 -54t90.5 -142l-110 -32q-13 56 -54.5 89t-98.5 33q-53 0 -88 -28.5t-35 -71.5q0 -33 31 -57t98 -44q100 -30 153.5 -82.5t53.5 -122.5q0 -91 -71.5 -152.5t-177.5 -61.5q-100 0 -173.5 54t-93.5 142
l112 40q13 -60 55.5 -95t102.5 -35z" />
    <glyph glyph-name="scedilla" unicode="&#x15f;" horiz-adv-x="484" 
d="M336 -153q0 15 -7.5 24t-20.5 9q-16 0 -30 -14l-79 37l22 126l84 -8l-17 -94q27 24 59 24q33 0 55 -27.5t22 -69.5q0 -60 -39.5 -100t-99.5 -40q-53 0 -88.5 28.5t-41.5 75.5l87 22q1 -18 13.5 -29.5t33.5 -11.5t34 13.5t13 34.5zM279 80q35 0 57.5 17t22.5 42
q0 40 -91 64q-164 40 -164 144q0 68 54 117.5t136 49.5q74 0 131 -42.5t73 -113.5l-110 -23q-7 34 -31.5 58t-65.5 24q-32 0 -54 -17t-22 -41q0 -38 88 -61q82 -20 125 -58t43 -90q0 -67 -55.5 -114.5t-140.5 -47.5q-80 0 -141.5 42t-78.5 110l109 26q8 -34 39 -60t76 -26z
" />
    <glyph glyph-name="Scaron" unicode="&#x160;" horiz-adv-x="584" 
d="M401 769l200 142l-39 71l-163 -119l-121 127l-59 -61l152 -157zM342 94q55 0 93 29t38 71q0 65 -131 102q-101 30 -153 80.5t-52 119.5q0 93 69.5 155.5t172.5 62.5q97 0 168.5 -54t90.5 -142l-110 -32q-13 56 -54.5 89t-98.5 33q-53 0 -88 -28.5t-35 -71.5q0 -33 31 -57
t98 -44q100 -30 153.5 -82.5t53.5 -122.5q0 -91 -71.5 -152.5t-177.5 -61.5q-100 0 -173.5 54t-93.5 142l112 40q13 -60 55.5 -95t102.5 -35z" />
    <glyph glyph-name="scaron" unicode="&#x161;" horiz-adv-x="484" 
d="M360 558l200 142l-39 71l-163 -119l-121 127l-59 -61l152 -157zM279 80q35 0 57.5 17t22.5 42q0 40 -91 64q-164 40 -164 144q0 68 54 117.5t136 49.5q74 0 131 -42.5t73 -113.5l-110 -23q-7 34 -31.5 58t-65.5 24q-32 0 -54 -17t-22 -41q0 -38 88 -61q82 -20 125 -58
t43 -90q0 -67 -55.5 -114.5t-140.5 -47.5q-80 0 -141.5 42t-78.5 110l109 26q8 -34 39 -60t76 -26z" />
    <glyph glyph-name="uni0162" unicode="&#x162;" horiz-adv-x="603" 
d="M383 -152q0 15 -7.5 24t-20.5 9q-16 0 -30 -14l-79 37l22 126l84 -8l-17 -94q27 24 59 24q33 0 55 -27.5t22 -69.5q0 -60 -39.5 -100t-99.5 -40q-53 0 -88.5 28.5t-41.5 75.5l87 22q1 -18 13.5 -29.5t33.5 -11.5t34 13.5t13 34.5zM700 700l-19 -108h-219l-105 -592h-111
l105 592h-222l19 108h552z" />
    <glyph glyph-name="uni0163" unicode="&#x163;" horiz-adv-x="402" 
d="M356 -150q0 15 -7.5 24t-20.5 9q-16 0 -30 -14l-79 37l22 126l84 -8l-17 -94q27 24 59 24q33 0 55 -27.5t22 -69.5q0 -60 -39.5 -100t-99.5 -40q-53 0 -88.5 28.5t-41.5 75.5l87 22q1 -18 13.5 -29.5t33.5 -11.5t34 13.5t13 34.5zM324 101h72l-18 -101h-88
q-68 0 -107.5 35.5t-39.5 91.5q0 15 3 31l42 240h-90l18 102h90l26 148l113 14l-29 -162h148l-18 -102h-147l-40 -225q-1 -11 -1 -17q0 -27 17 -41t49 -14z" />
    <glyph glyph-name="Tcaron" unicode="&#x164;" horiz-adv-x="603" 
d="M456 780l200 142l-39 71l-163 -119l-121 127l-59 -61l152 -157zM700 700l-19 -108h-219l-105 -592h-111l105 592h-222l19 108h552z" />
    <glyph glyph-name="tcaron" unicode="&#x165;" horiz-adv-x="402" 
d="M497 804l95 -28l-100 -236l-91 26zM324 101h72l-18 -101h-88q-68 0 -107.5 35.5t-39.5 91.5q0 15 3 31l42 240h-90l18 102h90l26 148l113 14l-29 -162h148l-18 -102h-147l-40 -225q-1 -11 -1 -17q0 -27 17 -41t49 -14z" />
    <glyph glyph-name="Tbar" unicode="&#x166;" horiz-adv-x="603" 
d="M554 380l-19 -107h-377l19 107h377zM700 700l-19 -108h-220l-105 -592h-110l105 592h-220l19 108h550z" />
    <glyph glyph-name="tbar" unicode="&#x167;" horiz-adv-x="402" 
d="M324 101h72l-18 -101h-88q-68 0 -107.5 35.5t-39.5 91.5q0 15 3 31l42 240h-90l18 102h90l26 148l113 14l-29 -162h148l-18 -102h-147l-40 -225q-1 -11 -1 -17q0 -27 17 -41t49 -14zM426 308l-15 -87h-343l16 87h342z" />
    <glyph glyph-name="Utilde" unicode="&#x168;" horiz-adv-x="690" 
d="M424 929q-92 0 -136 -130l76 -18q23 68 57 68q21 0 46 -28q24 -26 44 -36t45 -10q92 0 135 130l-74 18q-24 -64 -63 -64q-23 0 -46 26q-23 25 -41.5 34.5t-42.5 9.5zM370 -11q-117 0 -193.5 73t-76.5 185q0 28 5 56l69 397h111l-69 -397q-4 -23 -4 -44q0 -28 9 -55
t28.5 -51t53 -39t77.5 -15q74 0 125.5 46t65.5 127l75 428h111l-79 -448q-20 -116 -107 -189.5t-201 -73.5z" />
    <glyph glyph-name="utilde" unicode="&#x169;" horiz-adv-x="548" 
d="M315 720q-92 0 -136 -130l76 -18q23 68 57 68q21 0 46 -28q24 -26 44 -36t45 -10q92 0 135 130l-74 18q-24 -64 -63 -64q-23 0 -46 26q-23 25 -41.5 34.5t-42.5 9.5zM580 500l-88 -500h-112l88 500h112zM257 500l-54 -303q-9 -52 15.5 -81t74.5 -29q46 0 79 25.5t40 69.5
h48q-17 -82 -77.5 -137t-136.5 -55q-82 0 -127.5 54t-28.5 148l55 308h112z" />
    <glyph glyph-name="Umacron" unicode="&#x16a;" horiz-adv-x="690" 
d="M652 872l-16 -87h-322l16 87h322zM370 -11q-117 0 -193.5 73t-76.5 185q0 28 5 56l69 397h111l-69 -397q-4 -23 -4 -44q0 -28 9 -55t28.5 -51t53 -39t77.5 -15q74 0 125.5 46t65.5 127l75 428h111l-79 -448q-20 -116 -107 -189.5t-201 -73.5z" />
    <glyph glyph-name="umacron" unicode="&#x16b;" horiz-adv-x="548" 
d="M543 663l-16 -87h-322l16 87h322zM580 500l-88 -500h-112l88 500h112zM257 500l-54 -303q-9 -52 15.5 -81t74.5 -29q46 0 79 25.5t40 69.5h48q-17 -82 -77.5 -137t-136.5 -55q-82 0 -127.5 54t-28.5 148l55 308h112z" />
    <glyph glyph-name="Ubreve" unicode="&#x16c;" horiz-adv-x="690" 
d="M483 781q-66 0 -109.5 39.5t-43.5 99.5q0 14 3 28h81q-1 -8 -1 -16q0 -31 22 -51t58 -20q42 0 75.5 25.5t39.5 61.5h93q-12 -67 -77 -117t-141 -50zM370 -11q-117 0 -193.5 73t-76.5 185q0 28 5 56l69 397h111l-69 -397q-4 -23 -4 -44q0 -28 9 -55t28.5 -51t53 -39
t77.5 -15q74 0 125.5 46t65.5 127l75 428h111l-79 -448q-20 -116 -107 -189.5t-201 -73.5z" />
    <glyph glyph-name="ubreve" unicode="&#x16d;" horiz-adv-x="548" 
d="M374 572q-66 0 -109.5 39.5t-43.5 99.5q0 14 3 28h81q-1 -8 -1 -16q0 -31 22 -51t58 -20q42 0 75.5 25.5t39.5 61.5h93q-12 -67 -77 -117t-141 -50zM580 500l-88 -500h-112l88 500h112zM257 500l-54 -303q-9 -52 15.5 -81t74.5 -29q46 0 79 25.5t40 69.5h48
q-17 -82 -77.5 -137t-136.5 -55q-82 0 -127.5 54t-28.5 148l55 308h112z" />
    <glyph glyph-name="Uring" unicode="&#x16e;" horiz-adv-x="690" 
d="M493 952q-23 0 -39 -16.5t-16 -39.5q0 -20 13 -33t33 -13q23 0 39 16.5t16 39.5q0 20 -13 33t-33 13zM362 888q0 57 40 98t97 41q49 0 82.5 -32t33.5 -81q0 -57 -40 -98t-97 -41q-49 0 -82.5 32t-33.5 81zM370 -11q-117 0 -193.5 73t-76.5 185q0 28 5 56l69 397h111
l-69 -397q-4 -23 -4 -44q0 -28 9 -55t28.5 -51t53 -39t77.5 -15q74 0 125.5 46t65.5 127l75 428h111l-79 -448q-20 -116 -107 -189.5t-201 -73.5z" />
    <glyph glyph-name="uring" unicode="&#x16f;" horiz-adv-x="548" 
d="M384 743q-23 0 -39 -16.5t-16 -39.5q0 -20 13 -33t33 -13q23 0 39 16.5t16 39.5q0 20 -13 33t-33 13zM253 679q0 57 40 98t97 41q49 0 82.5 -32t33.5 -81q0 -57 -40 -98t-97 -41q-49 0 -82.5 32t-33.5 81zM580 500l-88 -500h-112l88 500h112zM257 500l-54 -303
q-9 -52 15.5 -81t74.5 -29q46 0 79 25.5t40 69.5h48q-17 -82 -77.5 -137t-136.5 -55q-82 0 -127.5 54t-28.5 148l55 308h112z" />
    <glyph glyph-name="Uhungarumlaut" unicode="&#x170;" horiz-adv-x="690" 
d="M733 909l-43 73l-191 -146l35 -58zM523 909l-43 73l-191 -146l35 -58zM370 -11q-117 0 -193.5 73t-76.5 185q0 28 5 56l69 397h111l-69 -397q-4 -23 -4 -44q0 -28 9 -55t28.5 -51t53 -39t77.5 -15q74 0 125.5 46t65.5 127l75 428h111l-79 -448q-20 -116 -107 -189.5
t-201 -73.5z" />
    <glyph glyph-name="uhungarumlaut" unicode="&#x171;" horiz-adv-x="548" 
d="M624 700l-43 73l-191 -146l35 -58zM414 700l-43 73l-191 -146l35 -58zM580 500l-88 -500h-112l88 500h112zM257 500l-54 -303q-9 -52 15.5 -81t74.5 -29q46 0 79 25.5t40 69.5h48q-17 -82 -77.5 -137t-136.5 -55q-82 0 -127.5 54t-28.5 148l55 308h112z" />
    <glyph glyph-name="Uogonek" unicode="&#x172;" horiz-adv-x="690" 
d="M318 -267q-51 0 -83.5 28.5t-32.5 73.5q0 42 22.5 72t75.5 58l27 14l5 27h78l-10 -57l-67 -35q-49 -25 -49 -64q0 -18 11 -28t29 -10q32 0 45 32l72 -23q-18 -42 -51 -65t-72 -23zM370 -11q-117 0 -193.5 73t-76.5 185q0 28 5 56l69 397h111l-69 -397q-4 -23 -4 -44
q0 -28 9 -55t28.5 -51t53 -39t77.5 -15q74 0 125.5 46t65.5 127l75 428h111l-79 -448q-20 -116 -107 -189.5t-201 -73.5z" />
    <glyph glyph-name="uogonek" unicode="&#x173;" horiz-adv-x="548" 
d="M384 -268q-51 0 -83.5 28.5t-32.5 73.5q0 42 22.5 72t75.5 58l27 14l5 27h78l-10 -57l-67 -35q-49 -25 -49 -64q0 -18 11 -28t29 -10q32 0 45 32l72 -23q-18 -42 -51 -65t-72 -23zM580 500l-88 -500h-112l88 500h112zM257 500l-54 -303q-9 -52 15.5 -81t74.5 -29
q46 0 79 25.5t40 69.5h48q-17 -82 -77.5 -137t-136.5 -55q-82 0 -127.5 54t-28.5 148l55 308h112z" />
    <glyph glyph-name="Wcircumflex" unicode="&#x174;" horiz-adv-x="1047" 
d="M672 984l-201 -142l40 -71l163 119l121 -127l59 61l-152 157zM1008 700h123l-307 -700h-156l-56 528l-228 -528h-161l-70 700h117l55 -558l251 558h126l63 -558z" />
    <glyph glyph-name="wcircumflex" unicode="&#x175;" horiz-adv-x="861" 
d="M539 774l-201 -142l40 -71l163 119l121 -127l59 61l-152 157zM804 500h120l-240 -500h-156l-44 349l-168 -349h-138l-62 500h114l38 -385l184 385h112l55 -390z" />
    <glyph glyph-name="Ycircumflex" unicode="&#x176;" horiz-adv-x="677" 
d="M501 984l-201 -142l40 -71l163 119l121 -127l59 61l-152 157zM292 0h110l41 230l329 470h-134l-232 -337l-131 337h-125l183 -470z" />
    <glyph glyph-name="ycircumflex" unicode="&#x177;" horiz-adv-x="579" 
d="M400 773l-201 -142l40 -71l163 119l121 -127l59 61l-152 157zM518 500l-212 -369l-76 369h-114l107 -486l-123 -214h124l416 700h-122z" />
    <glyph glyph-name="Ydieresis" unicode="&#x178;" horiz-adv-x="677" 
d="M521 846q0 29 20 49t49 20t49 -20t20 -49t-20 -49t-49 -20t-49 20t-20 49zM301 846q0 29 20 49t49 20t49 -20t20 -49t-20 -49t-49 -20t-49 20t-20 49zM292 0h110l41 230l329 470h-134l-232 -337l-131 337h-125l183 -470z" />
    <glyph glyph-name="Zacute" unicode="&#x179;" horiz-adv-x="628" 
d="M622 908l-48 73l-190 -135l44 -69zM591 0l19 107h-408l490 466l23 127h-548l-19 -107h408l-489 -460l-24 -133h548z" />
    <glyph glyph-name="zacute" unicode="&#x17a;" horiz-adv-x="487" 
d="M516 697l-48 73l-190 -135l44 -69zM454 0l17 96h-298l347 288l21 116h-419l-16 -96h282l-332 -288l-21 -116h419z" />
    <glyph glyph-name="Zdotaccent" unicode="&#x17b;" horiz-adv-x="628" 
d="M386 846q0 29 20 49t49 20t49 -20t20 -49t-20 -49t-49 -20t-49 20t-20 49zM591 0l19 107h-408l490 466l23 127h-548l-19 -107h408l-489 -460l-24 -133h548z" />
    <glyph glyph-name="zdotaccent" unicode="&#x17c;" horiz-adv-x="487" 
d="M280 635q0 29 20 49t49 20t49 -20t20 -49t-20 -49t-49 -20t-49 20t-20 49zM454 0l17 96h-298l347 288l21 116h-419l-16 -96h282l-332 -288l-21 -116h419z" />
    <glyph glyph-name="Zcaron" unicode="&#x17d;" horiz-adv-x="628" 
d="M470 769l200 142l-39 71l-163 -119l-121 127l-59 -61l152 -157zM591 0l19 107h-408l490 466l23 127h-548l-19 -107h408l-489 -460l-24 -133h548z" />
    <glyph glyph-name="zcaron" unicode="&#x17e;" horiz-adv-x="487" 
d="M364 558l200 142l-39 71l-163 -119l-121 127l-59 -61l152 -157zM454 0l17 96h-298l347 288l21 116h-419l-16 -96h282l-332 -288l-21 -116h419z" />
    <glyph glyph-name="Ohorn" unicode="&#x1a0;" 
d="M864 711q0 -60 -37 -96t-99 -36h-81l13 73h60q26 0 43 15.5t17 39.5q0 21 -18 36l64 52q15 -11 26.5 -36t11.5 -48zM479 610q-113 0 -193 -84t-80 -203q0 -102 65 -166.5t164 -64.5q114 0 193.5 85.5t79.5 203.5q0 101 -65 165t-164 64zM96 319q0 109 51.5 201t140.5 146
t193 54q145 0 241.5 -95t96.5 -239q0 -108 -51.5 -201t-140.5 -148t-195 -55q-143 0 -239.5 96t-96.5 241z" />
    <glyph glyph-name="ohorn" unicode="&#x1a1;" horiz-adv-x="660" 
d="M751 496q0 -60 -37 -96t-99 -36h-81l13 73h60q26 0 43 15.5t17 39.5q0 21 -18 36l64 52q15 -11 26.5 -36t11.5 -48zM367 415q-75 0 -126.5 -53.5t-51.5 -127.5q0 -65 43.5 -106t108.5 -41q75 0 126.5 53.5t51.5 127.5q0 65 -43.5 106t-108.5 41zM79 224q0 122 86 209
t210 87q108 0 181 -68t73 -174q0 -122 -86 -209t-210 -87q-108 0 -181 68t-73 174z" />
    <glyph glyph-name="Uhorn" unicode="&#x1af;" horiz-adv-x="813" 
d="M909 695q0 -60 -37 -96t-99 -36h-81l13 73h60q26 0 43 15.5t17 39.5q0 21 -18 36l64 52q15 -11 26.5 -36t11.5 -48zM370 -11q-117 0 -193.5 73t-76.5 185q0 28 5 56l69 397h111l-69 -397q-4 -23 -4 -44q0 -28 9 -55t28.5 -51t53 -39t77.5 -15q74 0 125.5 46t65.5 127
l75 428h111l-79 -448q-20 -116 -107 -189.5t-201 -73.5z" />
    <glyph glyph-name="uhorn" unicode="&#x1b0;" horiz-adv-x="668" 
d="M730 492q0 -60 -37 -96t-99 -36h-81l13 73h60q26 0 43 15.5t17 39.5q0 21 -18 36l64 52q15 -11 26.5 -36t11.5 -48zM580 500l-88 -500h-112l88 500h112zM257 500l-54 -303q-9 -52 15.5 -81t74.5 -29q46 0 79 25.5t40 69.5h48q-17 -82 -77.5 -137t-136.5 -55
q-82 0 -127.5 54t-28.5 148l55 308h112z" />
    <glyph glyph-name="uni0237" unicode="&#x237;" horiz-adv-x="216" 
d="M-27 -84q31 0 52.5 23t27.5 58l88 503h111l-96 -546q-11 -61 -59 -104t-114 -43h-45l14 109h21z" />
    <glyph glyph-name="uni02BC" unicode="&#x2bc;" horiz-adv-x="213" 
d="M220 767l94 -37l-100 -230l-89 34z" />
    <glyph glyph-name="gravecomb" unicode="&#x300;" horiz-adv-x="264" 
d="M32 659l61 63l149 -164l-58 -58z" />
    <glyph glyph-name="acutecomb" unicode="&#x301;" horiz-adv-x="264" 
d="M272 631l-48 73l-190 -135l44 -69z" />
    <glyph glyph-name="uni0302" unicode="&#x302;" horiz-adv-x="388" 
d="M214 707l-201 -142l40 -71l163 119l121 -127l59 61l-152 157z" />
    <glyph glyph-name="tildecomb" unicode="&#x303;" horiz-adv-x="404" 
d="M147 654q-92 0 -136 -130l76 -18q23 68 57 68q21 0 46 -28q24 -26 44 -36t45 -10q92 0 135 130l-74 18q-24 -64 -63 -64q-23 0 -46 26q-23 25 -41.5 34.5t-42.5 9.5z" />
    <glyph glyph-name="uni0304" unicode="&#x304;" horiz-adv-x="352" 
d="M345 597l-16 -87h-322l16 87h322z" />
    <glyph glyph-name="uni0306" unicode="&#x306;" horiz-adv-x="338" 
d="M170 506q-66 0 -109.5 39.5t-43.5 99.5q0 14 3 28h81q-1 -8 -1 -16q0 -31 22 -51t58 -20q42 0 75.5 25.5t39.5 61.5h93q-12 -67 -77 -117t-141 -50z" />
    <glyph glyph-name="uni0307" unicode="&#x307;" horiz-adv-x="170" 
d="M16 569q0 29 20 49t49 20t49 -20t20 -49t-20 -49t-49 -20t-49 20t-20 49z" />
    <glyph glyph-name="uni0308" unicode="&#x308;" horiz-adv-x="390" 
d="M236 569q0 29 20 49t49 20t49 -20t20 -49t-20 -49t-49 -20t-49 20t-20 49zM16 569q0 29 20 49t49 20t49 -20t20 -49t-20 -49t-49 -20t-49 20t-20 49z" />
    <glyph glyph-name="hookabovecomb" unicode="&#x309;" horiz-adv-x="260" 
d="M149 757q50 0 82 -30t32 -78q0 -47 -24.5 -77.5t-77.5 -61.5l-37 -20l-35 67l53 27q42 19 42 56q0 18 -12.5 29t-31.5 11q-33 0 -45 -32l-69 26q18 39 50.5 61t72.5 22z" />
    <glyph glyph-name="uni030A" unicode="&#x30a;" horiz-adv-x="298" 
d="M163 677q-23 0 -39 -16.5t-16 -39.5q0 -20 13 -33t33 -13q23 0 39 16.5t16 39.5q0 20 -13 33t-33 13zM32 613q0 57 40 98t97 41q49 0 82.5 -32t33.5 -81q0 -57 -40 -98t-97 -41q-49 0 -82.5 32t-33.5 81z" />
    <glyph glyph-name="uni030B" unicode="&#x30b;" horiz-adv-x="424" 
d="M459 634l-43 73l-191 -146l35 -58zM249 634l-43 73l-191 -146l35 -58z" />
    <glyph glyph-name="uni030C" unicode="&#x30c;" horiz-adv-x="388" 
d="M209 492l200 142l-39 71l-163 -119l-121 127l-59 -61l152 -157z" />
    <glyph glyph-name="uni0312" unicode="&#x312;" horiz-adv-x="170" 
d="M256 568q-5 -27 -27.5 -47.5t-52 -20.5t-46 19.5t-11.5 48.5q4 25 21 44l132 150l37 -32l-85 -97q18 -8 26.5 -25.5t5.5 -39.5z" />
    <glyph glyph-name="uni0313" unicode="&#x313;" horiz-adv-x="170" 
d="M166 694q5 27 27.5 47.5t51.5 20.5t46 -19.5t12 -48.5q-4 -25 -22 -44l-131 -150l-38 32l86 97q-18 8 -27 25.5t-5 39.5z" />
    <glyph glyph-name="uni0315" unicode="&#x315;" horiz-adv-x="170" 
d="M249 738l95 -28l-100 -236l-91 26z" />
    <glyph glyph-name="uni031B" unicode="&#x31b;" horiz-adv-x="247" 
d="M343 584q0 -60 -37 -96t-99 -36h-81l13 73h60q26 0 43 15.5t17 39.5q0 21 -18 36l64 52q15 -11 26.5 -36t11.5 -48z" />
    <glyph glyph-name="dotbelowcomb" unicode="&#x323;" horiz-adv-x="170" 
d="M-6 -145q0 29 20 49t49.5 20t49 -20t19.5 -49t-19.5 -49t-49 -20t-49.5 20t-20 49z" />
    <glyph glyph-name="uni0326" unicode="&#x326;" horiz-adv-x="170" 
d="M71 -235q0 -29 -21 -50.5t-49 -21.5t-47.5 18.5t-19.5 45.5q0 31 23 54l129 136l37 -37l-84 -87q32 -19 32 -58z" />
    <glyph glyph-name="uni0327" unicode="&#x327;" horiz-adv-x="324" 
d="M179 -152q0 15 -7.5 24t-20.5 9q-16 0 -30 -14l-79 37l22 126l84 -8l-17 -94q27 24 59 24q33 0 55 -27.5t22 -69.5q0 -60 -39.5 -100t-99.5 -40q-53 0 -88.5 28.5t-41.5 75.5l87 22q1 -18 13.5 -29.5t33.5 -11.5t34 13.5t13 34.5z" />
    <glyph glyph-name="uni0328" unicode="&#x328;" horiz-adv-x="247" 
d="M87 -268q-51 0 -83.5 28.5t-32.5 73.5q0 42 22.5 72t75.5 58l27 14l5 27h78l-10 -57l-67 -35q-49 -25 -49 -64q0 -18 11 -28t29 -10q32 0 45 32l72 -23q-18 -42 -51 -65t-72 -23z" />
    <glyph glyph-name="uni0400" unicode="&#x400;" horiz-adv-x="572" 
d="M300 935l61 63l149 -164l-58 -58zM236 416h349l-18 -108h-349l-36 -200h372l-19 -108h-483l123 700h482l-19 -108h-370z" />
    <glyph glyph-name="uni0401" unicode="&#x401;" horiz-adv-x="572" 
d="M467 845q0 29 20 49t49 20t49 -20t20 -49t-20 -49t-49 -20t-49 20t-20 49zM247 845q0 29 20 49t49 20t49 -20t20 -49t-20 -49t-49 -20t-49 20t-20 49zM236 416h349l-18 -108h-349l-36 -200h372l-19 -108h-483l123 700h482l-19 -108h-370z" />
    <glyph glyph-name="uni0402" unicode="&#x402;" horiz-adv-x="747" 
d="M508 108q52 0 89 33t37 77q0 37 -25.5 59.5t-66.5 22.5h-194l-54 -300h-110l105 593h-157l18 107h564l-18 -107h-297l-33 -185h194q82 0 134 -49.5t52 -126.5q0 -90 -68 -161t-164 -71h-92l18 108h68z" />
    <glyph glyph-name="uni0403" unicode="&#x403;" horiz-adv-x="575" 
d="M604 908l-48 73l-190 -135l44 -69zM55 0h110l105 597h380l18 103h-490z" />
    <glyph glyph-name="uni0404" unicode="&#x404;" horiz-adv-x="778" 
d="M96 316q0 111 52 204t143 146.5t199 53.5t195.5 -61t120.5 -177l-106 -35q-20 74 -79.5 118.5t-139.5 44.5q-114 0 -194.5 -84.5t-80.5 -203.5q0 -100 65.5 -165t164.5 -65q71 0 133.5 39t101.5 108l98 -55q-57 -96 -146.5 -149.5t-193.5 -53.5q-144 0 -238.5 95.5
t-94.5 239.5zM597 406l-10 -107h-422v107h432z" />
    <glyph glyph-name="uni0405" unicode="&#x405;" horiz-adv-x="584" 
d="M342 94q55 0 93 29t38 71q0 65 -131 102q-101 30 -153 80.5t-52 119.5q0 93 69.5 155.5t172.5 62.5q97 0 168.5 -54t90.5 -142l-110 -32q-13 56 -54.5 89t-98.5 33q-53 0 -88 -28.5t-35 -71.5q0 -33 31 -57t98 -44q100 -30 153.5 -82.5t53.5 -122.5q0 -91 -71.5 -152.5
t-177.5 -61.5q-100 0 -173.5 54t-93.5 142l112 40q13 -60 55.5 -95t102.5 -35z" />
    <glyph glyph-name="uni0406" unicode="&#x406;" horiz-adv-x="220" 
d="M163 0h-112l123 700h111z" />
    <glyph glyph-name="uni0407" unicode="&#x407;" horiz-adv-x="220" 
d="M282 844q0 29 20 49t49 20t49 -20t20 -49t-20 -49t-49 -20t-49 20t-20 49zM62 844q0 29 20 49t49 20t49 -20t20 -49t-20 -49t-49 -20t-49 20t-20 49zM163 0h-112l123 700h111z" />
    <glyph glyph-name="uni0408" unicode="&#x408;" horiz-adv-x="620" 
d="M173 229q8 -63 47.5 -96t104.5 -33q66 0 112 41t58 113l78 446h111l-82 -466q-19 -107 -99.5 -175.5t-187.5 -68.5q-103 0 -170.5 57.5t-80.5 155.5z" />
    <glyph glyph-name="uni0409" unicode="&#x409;" horiz-adv-x="1167" 
d="M908 0q70 0 129.5 36.5t93 94t33.5 120.5q0 76 -53.5 126.5t-136.5 50.5h-249l47 272h-450l-78 -445q-11 -66 -56 -109t-114 -43h-24l-18 -103h40q105 0 183.5 68.5t94.5 162.5l65 366h230l-105 -597h368zM1052 233q0 -49 -39 -87t-95 -38h-250l38 212h249q43 0 70 -24.5
t27 -62.5z" />
    <glyph glyph-name="uni040A" unicode="&#x40a;" horiz-adv-x="1028" 
d="M779 0q104 0 176.5 72t72.5 163q0 79 -52 131t-134 52h-224l50 282h-110l-123 -700h344zM916 227q0 -46 -37 -82.5t-91 -36.5h-224l36 202h224q41 0 66.5 -23t25.5 -60zM518 416h-280l50 284h-110l-123 -700h110l55 308h280z" />
    <glyph glyph-name="uni040B" unicode="&#x40b;" horiz-adv-x="697" 
d="M686 192l-34 -192h-110l34 192q2 6 2 20q0 39 -27 63.5t-69 24.5h-134l-54 -300h-110l105 593h-157l18 107h520l-19 -107h-252l-33 -185h134q83 0 136.5 -50.5t53.5 -127.5q0 -20 -4 -38z" />
    <glyph glyph-name="uni040C" unicode="&#x40c;" horiz-adv-x="641" 
d="M616 906l-48 73l-190 -135l44 -69zM52 0l123 700h111l-52 -294h26l326 294h151l-387 -350l261 -350h-138l-227 293h-31l-52 -293h-111z" />
    <glyph glyph-name="uni040D" unicode="&#x40d;" horiz-adv-x="690" 
d="M360 936l61 63l149 -164l-58 -58zM635 0h-110l94 532l-429 -532h-135l123 700h110l-93 -527l427 527h136z" />
    <glyph glyph-name="uni040E" unicode="&#x40e;" horiz-adv-x="654" 
d="M475 783q-66 0 -109.5 39.5t-43.5 99.5q0 14 3 28h81q-1 -8 -1 -16q0 -31 22 -51t58 -20q42 0 75.5 25.5t39.5 61.5h93q-12 -67 -77 -117t-141 -50zM165 0h127l454 700h-135l-211 -340l-122 340h-124l172 -442z" />
    <glyph glyph-name="uni040F" unicode="&#x40f;" horiz-adv-x="710" 
d="M655 0l123 700h-110l-105 -597h-380l105 597h-110l-123 -700h244l-31 -175h120l31 175h236z" />
    <glyph glyph-name="uni0410" unicode="&#x410;" horiz-adv-x="777" 
d="M164 0h-131l407 700h149l162 -700h-121l-131 576zM240 276h400l-18 -104h-400z" />
    <glyph glyph-name="uni0411" unicode="&#x411;" horiz-adv-x="670" 
d="M670 236q0 -92 -73 -164t-178 -72h-364l123 700h472l-18 -107h-362l-32 -180h244q81 0 134.5 -50.5t53.5 -126.5zM428 108q55 0 92.5 34t37.5 80q0 36 -26.5 59.5t-68.5 23.5h-244l-35 -197h244z" />
    <glyph glyph-name="uni0412" unicode="&#x412;" horiz-adv-x="653" 
d="M466 404q42 0 76.5 32.5t34.5 73.5q0 36 -23 59t-60 23h-227l-33 -188h232zM419 108q49 0 83 32t34 76q0 37 -24.5 59.5t-64.5 22.5h-232l-33 -190h237zM645 219q0 -89 -69 -154t-165 -65h-359l123 700h349q75 0 121 -44t46 -115q0 -56 -34 -109t-88 -80
q37 -20 56.5 -54.5t19.5 -78.5z" />
    <glyph glyph-name="uni0413" unicode="&#x413;" horiz-adv-x="575" 
d="M55 0h110l105 597h380l18 103h-490z" />
    <glyph glyph-name="uni0414" unicode="&#x414;" horiz-adv-x="780" 
d="M46 103l-39 -219h110l21 116h504l-20 -116h110l39 219h-725zM80 103h-34l1 -77h29q110 0 191 66.5t97 158.5l60 341h240l-104 -591h110l123 699h-460l-77 -435q-12 -71 -58.5 -116.5t-117.5 -45.5z" />
    <glyph glyph-name="uni0415" unicode="&#x415;" horiz-adv-x="572" 
d="M236 416h349l-18 -108h-349l-36 -200h372l-19 -108h-483l123 700h482l-19 -108h-370z" />
    <glyph glyph-name="uni0416" unicode="&#x416;" horiz-adv-x="975" 
d="M556 700h110l-52 -293h59l262 293h134l-311 -348l188 -352h-118l-158 294h-75l-53 -294h-110l53 294h-59l-268 -294h-128l311 349l-188 351h113l163 -293h75z" />
    <glyph glyph-name="uni0417" unicode="&#x417;" horiz-adv-x="556" 
d="M484 516q0 41 -30.5 68.5t-75.5 27.5q-38 0 -71.5 -20t-55.5 -56l-91 54q39 60 98.5 93.5t128.5 33.5q90 0 149.5 -52t59.5 -131q0 -58 -32.5 -107t-87.5 -73q39 -25 60.5 -65t21.5 -87q0 -93 -71.5 -156.5t-176.5 -63.5q-90 0 -156.5 47t-88.5 127l112 44
q11 -52 48 -82.5t90 -30.5q57 0 96 35.5t39 87.5q0 41 -27.5 69.5t-68.5 28.5h-94l12 103h100q48 0 80 30t32 75z" />
    <glyph glyph-name="uni0418" unicode="&#x418;" horiz-adv-x="690" 
d="M635 0h-110l94 532l-429 -532h-135l123 700h110l-93 -527l427 527h136z" />
    <glyph glyph-name="uni0419" unicode="&#x419;" horiz-adv-x="690" 
d="M491 783q-66 0 -109.5 39.5t-43.5 99.5q0 14 3 28h81q-1 -8 -1 -16q0 -31 22 -51t58 -20q42 0 75.5 25.5t39.5 61.5h93q-12 -67 -77 -117t-141 -50zM635 0h-110l94 532l-429 -532h-135l123 700h110l-93 -527l427 527h136z" />
    <glyph glyph-name="uni041A" unicode="&#x41a;" horiz-adv-x="641" 
d="M52 0l123 700h111l-52 -294h26l326 294h151l-387 -350l261 -350h-138l-227 293h-31l-52 -293h-111z" />
    <glyph glyph-name="uni041B" unicode="&#x41b;" horiz-adv-x="704" 
d="M75 103h-24l-19 -103h40q105 0 183.5 68.5t94.5 162.5l65 366h230l-105 -597h110l123 700h-450l-78 -445q-12 -66 -57 -109t-113 -43z" />
    <glyph glyph-name="uni041C" unicode="&#x41c;" horiz-adv-x="836" 
d="M51 0l123 700h126l160 -434l316 434h136l-124 -700h-111l91 511l-288 -401h-78l-148 406l-91 -516h-112z" />
    <glyph glyph-name="uni041D" unicode="&#x41d;" horiz-adv-x="690" 
d="M52 0l122 700h112l-51 -288h361l50 288h110l-122 -700h-110l54 306h-361l-54 -306h-111z" />
    <glyph glyph-name="uni041E" unicode="&#x41e;" 
d="M479 610q-113 0 -193 -84t-80 -203q0 -102 65 -166.5t164 -64.5q114 0 193.5 85.5t79.5 203.5q0 101 -65 165t-164 64zM96 319q0 109 51.5 201t140.5 146t193 54q145 0 241.5 -95t96.5 -239q0 -108 -51.5 -201t-140.5 -148t-195 -55q-143 0 -239.5 96t-96.5 241z" />
    <glyph glyph-name="uni041F" unicode="&#x41f;" horiz-adv-x="700" 
d="M54 0l123 700h591l-122 -700h-111l105 597h-370l-106 -597h-110z" />
    <glyph glyph-name="uni0420" unicode="&#x420;" horiz-adv-x="633" 
d="M398 330q78 0 127 42.5t49 111.5q0 49 -34 78.5t-91 29.5h-181l-46 -262h176zM686 496q0 -122 -85.5 -198t-210.5 -76h-188l-39 -222h-111l123 700h289q94 0 158 -58.5t64 -145.5z" />
    <glyph glyph-name="uni0421" unicode="&#x421;" horiz-adv-x="778" 
d="M96 316q0 111 52 204t143 146.5t199 53.5t195.5 -61t120.5 -177l-106 -35q-20 74 -79.5 118.5t-139.5 44.5q-114 0 -194.5 -84.5t-80.5 -203.5q0 -100 65.5 -165t164.5 -65q71 0 133.5 39t101.5 108l98 -55q-57 -96 -146.5 -149.5t-193.5 -53.5q-144 0 -238.5 95.5
t-94.5 239.5z" />
    <glyph glyph-name="uni0422" unicode="&#x422;" horiz-adv-x="603" 
d="M700 700l-19 -108h-219l-105 -592h-111l105 592h-222l19 108h552z" />
    <glyph glyph-name="uni0423" unicode="&#x423;" horiz-adv-x="654" 
d="M165 0h127l454 700h-135l-211 -340l-122 340h-124l172 -442z" />
    <glyph glyph-name="uni0424" unicode="&#x424;" horiz-adv-x="798" 
d="M344 0l132 750h110l-132 -750h-110zM719 389q0 75 -74 122t-192 47q-108 0 -174.5 -49.5t-66.5 -129.5q0 -76 73 -123.5t191 -47.5q108 0 175.5 50.5t67.5 130.5zM101 370q0 129 101 211t259 82q164 0 266 -73t102 -191q0 -130 -101.5 -213t-259.5 -83q-163 0 -265 74
t-102 193z" />
    <glyph glyph-name="uni0425" unicode="&#x425;" horiz-adv-x="710" 
d="M680 0h-129l-143 283l-242 -283h-140l298 347l-175 353h130l142 -289l243 289h139l-299 -353z" />
    <glyph glyph-name="uni0426" unicode="&#x426;" horiz-adv-x="735" 
d="M629 108l104 592h-110l-104 -592h-335l104 592h-110l-123 -700h540l-22 -126h110l41 234h-95z" />
    <glyph glyph-name="uni0427" unicode="&#x427;" horiz-adv-x="648" 
d="M716 700l-123 -700h-110l123 700h110zM288 700l-40 -228q-3 -16 -3 -38q0 -59 34.5 -92t94.5 -33q67 0 123 42t66 101h48q-18 -105 -99 -176.5t-181 -71.5q-90 0 -146 51.5t-56 138.5q0 22 5 53l44 253h110z" />
    <glyph glyph-name="uni0428" unicode="&#x428;" horiz-adv-x="960" 
d="M905 0l123 700h-110l-104 -592h-258l104 592h-110l-104 -592h-262l104 592h-110l-123 -700h850z" />
    <glyph glyph-name="uni0429" unicode="&#x429;" horiz-adv-x="1025" 
d="M924 108l104 592h-110l-104 -592h-258l104 592h-110l-104 -592h-262l104 592h-110l-123 -700h830l-22 -126h110l41 234h-90z" />
    <glyph glyph-name="uni042A" unicode="&#x42a;" horiz-adv-x="795" 
d="M545 108q57 0 98 36t41 86q0 40 -28 65t-74 25h-208l-38 -212h209zM796 248q0 -98 -76.5 -173t-183.5 -75h-329l105 593h-178l19 107h287l-48 -272h210q85 0 139.5 -51t54.5 -129z" />
    <glyph glyph-name="uni042B" unicode="&#x42b;" horiz-adv-x="827" 
d="M772 0h-110l123 700h110zM619 251q0 -98 -74.5 -174.5t-180.5 -76.5h-309l123 700h110l-48 -272h190q83 0 136 -50.5t53 -126.5zM373 108q56 0 95.5 38t39.5 87q0 38 -27 62.5t-71 24.5h-188l-38 -212h189z" />
    <glyph glyph-name="uni042C" unicode="&#x42c;" horiz-adv-x="675" 
d="M679 251q0 -98 -74.5 -174.5t-180.5 -76.5h-369l123 700h110l-48 -272h250q83 0 136 -50.5t53 -126.5zM433 108q56 0 95.5 38t39.5 87q0 38 -27 62.5t-71 24.5h-248l-38 -212h249z" />
    <glyph glyph-name="uni042D" unicode="&#x42d;" horiz-adv-x="778" 
d="M803 384q0 -169 -114.5 -286t-280.5 -117q-108 0 -195 60.5t-121 176.5l107 36q20 -75 79.5 -119t139.5 -44q113 0 193.5 84.5t80.5 202.5q0 100 -65 165.5t-165 65.5q-70 0 -133 -39.5t-101 -107.5l-98 54q56 97 145.5 150.5t194.5 53.5q143 0 238 -95.5t95 -240.5z
M302 294l10 108h422v-108h-432z" />
    <glyph glyph-name="uni042E" unicode="&#x42e;" horiz-adv-x="1088" 
d="M497 322q0 120 79.5 204t193.5 84q99 0 164 -63.5t65 -163.5q0 -119 -79.5 -205t-194.5 -86q-98 0 -163 64.5t-65 165.5zM779 720q-107 0 -197.5 -55t-142.5 -149t-52 -205q0 -143 93.5 -236t235.5 -93q108 0 198.5 56t142.5 150.5t52 204.5q0 143 -94 235t-236 92z
M439 405h-205l52 295h-110l-124 -700h110l52 297h205z" />
    <glyph glyph-name="uni042F" unicode="&#x42f;" horiz-adv-x="638" 
d="M387 592q-64 0 -109.5 -39.5t-45.5 -94.5q0 -43 32 -70.5t83 -27.5h189l40 232h-189zM114 451q0 106 80.5 177.5t197.5 71.5h314l-124 -700h-110l45 253h-158l-191 -253h-134l214 267q-59 16 -96.5 67.5t-37.5 116.5z" />
    <glyph glyph-name="uni0430" unicode="&#x430;" horiz-adv-x="512" 
d="M314 512q85 0 145.5 -51.5t60.5 -123.5q0 -13 -3 -27l-54 -310h-110l36 207l-121 -10q-92 -8 -92 -58q0 -25 22 -39t60 -14q51 0 85.5 27t42.5 75h34q-15 -87 -73.5 -142t-135.5 -55q-65 0 -106 38t-41 99q0 68 53.5 111.5t143.5 50.5l145 12l1 9q2 13 2 18q0 35 -28 59
t-69 24q-36 0 -66.5 -19t-43.5 -49l-98 44q28 56 85.5 90t124.5 34z" />
    <glyph glyph-name="uni0431" unicode="&#x431;" horiz-adv-x="610" 
d="M336 -16q-116 0 -183 69t-67 187q0 131 46.5 236.5t130 167.5t189.5 68q65 5 98.5 15t70.5 35l41 -84q-43 -31 -89.5 -45t-120.5 -17q-86 -5 -149.5 -67.5t-89.5 -168.5q33 44 86 70t110 26q90 0 148 -60.5t58 -153.5q0 -116 -81 -197t-198 -81zM358 372q-67 0 -113 -41
t-46 -101q0 -58 43 -97t105 -39q65 0 111 44.5t46 107.5q0 56 -41 91t-105 35z" />
    <glyph glyph-name="uni0432" unicode="&#x432;" horiz-adv-x="573" 
d="M409 294q29 0 50 17.5t21 42.5q0 21 -16.5 34.5t-43.5 13.5h-184l-19 -108h192zM376 98q33 0 56.5 19t23.5 45q0 21 -17 34t-43 13h-194l-20 -111h194zM565 159q0 -67 -57.5 -113t-138.5 -46h-314l88 500h304q65 0 106 -33t41 -84q0 -39 -23.5 -72t-62.5 -50
q27 -15 42 -42t15 -60z" />
    <glyph glyph-name="uni0433" unicode="&#x433;" horiz-adv-x="445" 
d="M55 0h110l70 397h245l18 103h-355z" />
    <glyph glyph-name="uni0434" unicode="&#x434;" horiz-adv-x="627" 
d="M46 103l-39 -219h110l21 116h352l-21 -116h110l39 219h-572zM70 103h-19l-13 -73h29q87 0 151 49.5t76 116.5l35 196h160l-69 -392h110l88 500h-380l-51 -290q-8 -46 -39 -76.5t-78 -30.5z" />
    <glyph glyph-name="uni0435" unicode="&#x435;" horiz-adv-x="595" 
d="M498 316q-7 46 -43.5 74t-88.5 28q-56 0 -103 -31.5t-63 -84.5h299q0 9 -1 14zM606 281q0 -34 -10 -76h-404q3 -54 44.5 -87.5t103.5 -33.5q97 0 150 82l89 -58q-44 -63 -107.5 -94.5t-137.5 -31.5q-110 0 -183 69t-73 175q0 121 85 207.5t205 86.5q102 0 170 -67.5
t68 -171.5z" />
    <glyph glyph-name="uni0436" unicode="&#x436;" horiz-adv-x="814" 
d="M440 500h110l-35 -198h37l193 198h127l-244 -250l156 -250h-122l-124 194h-42l-34 -194h-110l35 198h-37l-192 -198h-128l244 250l-156 250h122l124 -194h42z" />
    <glyph glyph-name="uni0437" unicode="&#x437;" horiz-adv-x="485" 
d="M390 346q0 27 -23.5 45.5t-57.5 18.5q-56 0 -88 -48l-95 55q32 47 82.5 73.5t109.5 26.5q78 0 131 -42.5t53 -106.5q0 -41 -23 -76.5t-61 -51.5q54 -38 54 -106q0 -65 -57 -109t-141 -44q-80 0 -139.5 38.5t-79.5 102.5l111 39q9 -33 39.5 -53t70.5 -20q39 0 64 17.5
t25 44.5q0 24 -18.5 40.5t-45.5 16.5h-71l6 83h80q32 0 53 15.5t21 40.5z" />
    <glyph glyph-name="uni0438" unicode="&#x438;" horiz-adv-x="590" 
d="M535 0h-110l64 352l-304 -352h-130l88 500h110l-60 -342l300 342h130z" />
    <glyph glyph-name="uni0439" unicode="&#x439;" horiz-adv-x="590" 
d="M402 574q-66 0 -109.5 39.5t-43.5 99.5q0 14 3 28h81q-1 -8 -1 -16q0 -31 22 -51t58 -20q42 0 75.5 25.5t39.5 61.5h93q-12 -67 -77 -117t-141 -50zM535 0h-110l64 352l-304 -352h-130l88 500h110l-60 -342l300 342h130z" />
    <glyph glyph-name="uni043A" unicode="&#x43a;" horiz-adv-x="538" 
d="M52 0l89 500h110l-33 -186h25l210 186h155l-279 -250l185 -250h-133l-156 202h-27l-35 -202h-111z" />
    <glyph glyph-name="uni043B" unicode="&#x43b;" horiz-adv-x="569" 
d="M75 108h-24l-19 -108h34q79 0 137.5 52t71.5 124l38 216h160l-69 -392h110l88 500h-380l-54 -310q-7 -36 -31 -59t-62 -23z" />
    <glyph glyph-name="uni043C" unicode="&#x43c;" horiz-adv-x="716" 
d="M55 0l88 500h120l125 -295l231 295h130l-88 -500h-110l61 347l-208 -273h-65l-113 273l-61 -347h-110z" />
    <glyph glyph-name="uni043D" unicode="&#x43d;" horiz-adv-x="595" 
d="M55 0l88 500h110l-35 -198h266l35 198h110l-89 -500h-110l36 200h-266l-35 -200h-110z" />
    <glyph glyph-name="uni043E" unicode="&#x43e;" horiz-adv-x="618" 
d="M367 415q-75 0 -126.5 -53.5t-51.5 -127.5q0 -65 43.5 -106t108.5 -41q75 0 126.5 53.5t51.5 127.5q0 65 -43.5 106t-108.5 41zM79 224q0 122 86 209t210 87q108 0 181 -68t73 -174q0 -122 -86 -209t-210 -87q-108 0 -181 68t-73 174z" />
    <glyph glyph-name="uni043F" unicode="&#x43f;" horiz-adv-x="560" 
d="M593 500l-88 -500h-110l70 397h-230l-70 -397h-110l88 500h450z" />
    <glyph glyph-name="uni0440" unicode="&#x440;" horiz-adv-x="638" 
d="M136 500h110l-122 -700h-110zM380 414q-74 0 -126 -53.5t-52 -127.5q0 -65 43.5 -106t108.5 -41q75 0 126.5 53.5t51.5 127.5q0 64 -43.5 105.5t-108.5 41.5zM157 209q0 80 35 150.5t96.5 113.5t134.5 43q94 0 157 -65.5t63 -168.5q0 -80 -36 -150t-99 -112t-137 -42
q-95 0 -154.5 65.5t-59.5 165.5z" />
    <glyph glyph-name="uni0441" unicode="&#x441;" horiz-adv-x="589" 
d="M364 414q-72 0 -123 -53.5t-51 -129.5q0 -63 41.5 -104t106.5 -41q47 0 89 23.5t66 65.5l92 -55q-41 -65 -108.5 -102t-146.5 -37q-108 0 -179 68.5t-71 172.5q0 123 85.5 210t206.5 87q88 0 154.5 -44t90.5 -118l-106 -42q-15 46 -54 72.5t-93 26.5z" />
    <glyph glyph-name="uni0442" unicode="&#x442;" horiz-adv-x="490" 
d="M548 500l-18 -103h-160l-70 -397h-110l70 397h-160l18 103h430z" />
    <glyph glyph-name="uni0443" unicode="&#x443;" horiz-adv-x="579" 
d="M518 500l-212 -369l-76 369h-114l107 -486l-123 -214h124l416 700h-122z" />
    <glyph glyph-name="uni0444" unicode="&#x444;" horiz-adv-x="658" 
d="M244 -190l153 870h105l-153 -870h-105zM383 415q-81 0 -137 -51.5t-56 -125.5q0 -65 50 -108t126 -43q81 0 137 51.5t56 125.5q0 65 -50 108t-126 43zM80 229q0 122 90.5 206.5t220.5 84.5q120 0 199 -70t79 -177q0 -122 -90.5 -206.5t-220.5 -84.5q-120 0 -199 70
t-79 177z" />
    <glyph glyph-name="uni0445" unicode="&#x445;" horiz-adv-x="566" 
d="M541 0h-123l-103 186l-151 -186h-139l222 257l-131 243h124l98 -186l156 186h138l-226 -257z" />
    <glyph glyph-name="uni0446" unicode="&#x446;" horiz-adv-x="617" 
d="M55 0l88 500h110l-70 -397h250l70 397h110l-70 -397h62l-38 -219h-110l20 116h-422z" />
    <glyph glyph-name="uni0447" unicode="&#x447;" horiz-adv-x="538" 
d="M571 500l-88 -500h-110l88 500h110zM253 500l-27 -158q-3 -14 -3 -24q0 -37 22.5 -58t60.5 -21q45 0 82 28.5t44 69.5h48q-14 -86 -78 -144.5t-143 -58.5q-68 0 -109.5 38.5t-41.5 105.5q0 19 3 39l32 183h110z" />
    <glyph glyph-name="uni0448" unicode="&#x448;" horiz-adv-x="850" 
d="M795 0l88 500h-110l-70 -397h-205l70 397h-110l-70 -397h-205l70 397h-110l-88 -500h740z" />
    <glyph glyph-name="uni0449" unicode="&#x449;" horiz-adv-x="907" 
d="M813 103l70 397h-110l-70 -397h-205l70 397h-110l-70 -397h-205l70 397h-110l-88 -500h702l-20 -116h110l38 219h-72z" />
    <glyph glyph-name="uni044A" unicode="&#x44a;" horiz-adv-x="650" 
d="M646 192q0 -78 -59.5 -135t-138.5 -57h-276l70 393h-138l19 107h247l-30 -173h165q63 0 102 -38t39 -97zM456 108q31 0 54.5 17.5t23.5 44.5q0 22 -16 35.5t-42 13.5h-156l-19 -111h155z" />
    <glyph glyph-name="uni044B" unicode="&#x44b;" horiz-adv-x="763" 
d="M598 0l88 500h110l-88 -500h-110zM362 108q33 0 56.5 18t23.5 44q0 22 -16.5 35.5t-43.5 13.5h-184l-20 -111h184zM554 189q0 -75 -59.5 -132t-140.5 -57h-304l88 500h110l-31 -178h194q64 0 103.5 -37.5t39.5 -95.5z" />
    <glyph glyph-name="uni044C" unicode="&#x44c;" horiz-adv-x="578" 
d="M382 108q33 0 56.5 18t23.5 44q0 22 -16.5 35.5t-43.5 13.5h-198l-20 -111h198zM574 189q0 -75 -59.5 -132t-140.5 -57h-319l88 500h110l-31 -178h209q64 0 103.5 -37.5t39.5 -95.5z" />
    <glyph glyph-name="uni044D" unicode="&#x44d;" horiz-adv-x="589" 
d="M309 81q75 0 127 55t52 133q0 66 -42.5 108t-109.5 42q-49 0 -92.5 -25t-68.5 -69l-86 55q41 66 108 102.5t147 36.5q108 0 179 -68.5t71 -172.5q0 -123 -86 -210t-206 -87q-89 0 -155 44.5t-90 117.5l101 42q15 -48 55.5 -76t95.5 -28zM244 204l10 87h312v-87h-322z" />
    <glyph glyph-name="uni044E" unicode="&#x44e;" horiz-adv-x="868" 
d="M440 233q0 76 51.5 129t124.5 53q65 0 107 -41t42 -105q0 -76 -51.5 -129t-124.5 -53q-65 0 -107 41t-42 105zM624 520q-122 0 -208 -86.5t-86 -209.5q0 -105 71 -173.5t180 -68.5q122 0 208 86.5t86 209.5q0 105 -71 173.5t-180 68.5zM361 305h-145l34 195h-110
l-88 -500h110l35 197h145z" />
    <glyph glyph-name="uni044F" unicode="&#x44f;" horiz-adv-x="548" 
d="M294 392q-35 0 -61 -20t-26 -49q0 -23 18 -37.5t47 -14.5h157l21 121h-156zM89 318q0 75 60 128.5t151 53.5h279l-88 -500h-110l30 173h-133l-120 -173h-125l138 189q-37 16 -59.5 51t-22.5 78z" />
    <glyph glyph-name="uni0450" unicode="&#x450;" horiz-adv-x="595" 
d="M264 727l61 63l149 -164l-58 -58zM498 316q-7 46 -43.5 74t-88.5 28q-56 0 -103 -31.5t-63 -84.5h299q0 9 -1 14zM606 281q0 -34 -10 -76h-404q3 -54 44.5 -87.5t103.5 -33.5q97 0 150 82l89 -58q-44 -63 -107.5 -94.5t-137.5 -31.5q-110 0 -183 69t-73 175
q0 121 85 207.5t205 86.5q102 0 170 -67.5t68 -171.5z" />
    <glyph glyph-name="uni0451" unicode="&#x451;" horiz-adv-x="595" 
d="M432 637q0 29 20 49t49 20t49 -20t20 -49t-20 -49t-49 -20t-49 20t-20 49zM212 637q0 29 20 49t49 20t49 -20t20 -49t-20 -49t-49 -20t-49 20t-20 49zM498 316q-7 46 -43.5 74t-88.5 28q-56 0 -103 -31.5t-63 -84.5h299q0 9 -1 14zM606 281q0 -34 -10 -76h-404
q3 -54 44.5 -87.5t103.5 -33.5q97 0 150 82l89 -58q-44 -63 -107.5 -94.5t-137.5 -31.5q-110 0 -183 69t-73 175q0 121 85 207.5t205 86.5q102 0 170 -67.5t68 -171.5z" />
    <glyph glyph-name="uni0452" unicode="&#x452;" horiz-adv-x="563" 
d="M60 0l102 581h-60l18 97h60l12 72h110l-12 -72h212l-18 -97h-212l-102 -581h-110zM404 32l45 256q10 55 -15 86.5t-73 31.5q-50 0 -91 -34.5t-49 -83.5h-48q16 94 83 158.5t152 64.5q79 0 125 -55t30 -143l-52 -293q-14 -84 -71.5 -134t-138.5 -51h-62l12 108h54
q40 0 66 25t33 64z" />
    <glyph glyph-name="uni0453" unicode="&#x453;" horiz-adv-x="445" 
d="M505 699l-48 73l-190 -135l44 -69zM55 0h110l70 397h245l18 103h-355z" />
    <glyph glyph-name="uni0454" unicode="&#x454;" horiz-adv-x="589" 
d="M364 419q-74 0 -126.5 -55t-52.5 -133q0 -65 43 -107.5t110 -42.5q49 0 92 25t68 69l87 -55q-41 -65 -108.5 -102t-146.5 -37q-108 0 -179 68.5t-71 172.5q0 123 85.5 210t206.5 87q88 0 154.5 -44t90.5 -118l-101 -42q-15 49 -55.5 76.5t-96.5 27.5zM430 296l-10 -87
h-312v87h322z" />
    <glyph glyph-name="uni0455" unicode="&#x455;" horiz-adv-x="484" 
d="M279 80q35 0 57.5 17t22.5 42q0 40 -91 64q-164 40 -164 144q0 68 54 117.5t136 49.5q74 0 131 -42.5t73 -113.5l-110 -23q-7 34 -31.5 58t-65.5 24q-32 0 -54 -17t-22 -41q0 -38 88 -61q82 -20 125 -58t43 -90q0 -67 -55.5 -114.5t-140.5 -47.5q-80 0 -141.5 42
t-78.5 110l109 26q8 -34 39 -60t76 -26z" />
    <glyph glyph-name="uni0456" unicode="&#x456;" horiz-adv-x="216" 
d="M156 641q0 29 19.5 49t49 20t49.5 -20t20 -49t-20 -49t-49.5 -20t-49 20t-19.5 49zM53 0l88 500h111l-88 -500h-111z" />
    <glyph glyph-name="uni0457" unicode="&#x457;" horiz-adv-x="216" 
d="M245 637q0 29 20 49t49 20t49 -20t20 -49t-20 -49t-49 -20t-49 20t-20 49zM25 637q0 29 20 49t49 20t49 -20t20 -49t-20 -49t-49 -20t-49 20t-20 49zM53 0l88 500h111l-88 -500h-111z" />
    <glyph glyph-name="uni0458" unicode="&#x458;" horiz-adv-x="216" 
d="M156 641q0 29 19.5 49t49 20t49.5 -20t20 -49t-20 -49t-49.5 -20t-49 20t-19.5 49zM-27 -84q31 0 52.5 23t27.5 58l88 503h111l-96 -546q-11 -61 -59 -104t-114 -43h-45l14 109h21z" />
    <glyph glyph-name="uni0459" unicode="&#x459;" horiz-adv-x="932" 
d="M738 0q75 0 129.5 54t54.5 125q0 63 -42 103t-110 40h-199l31 178h-380l-54 -310q-7 -36 -31.5 -59t-61.5 -23h-24l-19 -108h44q75 0 131 52.5t68 123.5l39 216h160l-70 -392h334zM811 170q0 -26 -23.5 -44t-55.5 -18h-200l20 111h200q26 0 42.5 -13.5t16.5 -35.5z" />
    <glyph glyph-name="uni045A" unicode="&#x45a;" horiz-adv-x="845" 
d="M724 168q0 -26 -22.5 -43t-53.5 -17h-164l18 106h164q26 0 42 -13t16 -33zM639 0q80 0 138.5 55.5t58.5 130.5q0 58 -39 94.5t-102 36.5h-174l32 183h-110l-88 -500h284zM429 306h-210l34 194h-110l-88 -500h110l35 198h210z" />
    <glyph glyph-name="uni045B" unicode="&#x45b;" horiz-adv-x="563" 
d="M401 0l48 277q10 60 -17.5 98.5t-80.5 38.5q-49 0 -85 -33.5t-46 -88.5h-47q18 96 81.5 158t144.5 62q87 0 133.5 -67.5t28.5 -169.5l-49 -275h-111zM57 0l104 592h-56l17 97h56l11 61h112l-11 -61h179l-17 -97h-179l-103 -592h-113z" />
    <glyph glyph-name="uni045C" unicode="&#x45c;" horiz-adv-x="538" 
d="M530 699l-48 73l-190 -135l44 -69zM52 0l89 500h110l-33 -186h25l210 186h155l-279 -250l185 -250h-133l-156 202h-27l-35 -202h-111z" />
    <glyph glyph-name="uni045D" unicode="&#x45d;" horiz-adv-x="590" 
d="M271 727l61 63l149 -164l-58 -58zM535 0h-110l64 352l-304 -352h-130l88 500h110l-60 -342l300 342h130z" />
    <glyph glyph-name="uni045E" unicode="&#x45e;" horiz-adv-x="579" 
d="M384 572q-66 0 -109.5 39.5t-43.5 99.5q0 14 3 28h81q-1 -8 -1 -16q0 -31 22 -51t58 -20q42 0 75.5 25.5t39.5 61.5h93q-12 -67 -77 -117t-141 -50zM518 500l-212 -369l-76 369h-114l107 -486l-123 -214h124l416 700h-122z" />
    <glyph glyph-name="uni045F" unicode="&#x45f;" horiz-adv-x="580" 
d="M55 0l88 500h110l-70 -397h250l70 397h110l-88 -500h-175l-29 -165h-110l29 165h-185z" />
    <glyph glyph-name="uni1EA0" unicode="&#x1ea0;" horiz-adv-x="777" 
d="M310 -145q0 29 20 49t49.5 20t49 -20t19.5 -49t-19.5 -49t-49 -20t-49.5 20t-20 49zM164 0h-131l407 700h149l162 -700h-121l-131 576zM240 276h400l-18 -104h-400z" />
    <glyph glyph-name="uni1EA1" unicode="&#x1ea1;" horiz-adv-x="512" 
d="M170 -145q0 29 20 49t49.5 20t49 -20t19.5 -49t-19.5 -49t-49 -20t-49.5 20t-20 49zM314 512q85 0 145.5 -51.5t60.5 -123.5q0 -13 -3 -27l-54 -310h-110l36 207l-121 -10q-92 -8 -92 -58q0 -25 22 -39t60 -14q51 0 85.5 27t42.5 75h34q-15 -87 -73.5 -142t-135.5 -55
q-65 0 -106 38t-41 99q0 68 53.5 111.5t143.5 50.5l145 12l1 9q2 13 2 18q0 35 -28 59t-69 24q-36 0 -66.5 -19t-43.5 -49l-98 44q28 56 85.5 90t124.5 34z" />
    <glyph glyph-name="uni1EA2" unicode="&#x1ea2;" horiz-adv-x="777" 
d="M551 1034q50 0 82 -30t32 -78q0 -47 -24.5 -77.5t-77.5 -61.5l-37 -20l-35 67l53 27q42 19 42 56q0 18 -12.5 29t-31.5 11q-33 0 -45 -32l-69 26q18 39 50.5 61t72.5 22zM164 0h-131l407 700h149l162 -700h-121l-131 576zM240 276h400l-18 -104h-400z" />
    <glyph glyph-name="uni1EA3" unicode="&#x1ea3;" horiz-adv-x="512" 
d="M367 824q50 0 82 -30t32 -78q0 -47 -24.5 -77.5t-77.5 -61.5l-37 -20l-35 67l53 27q42 19 42 56q0 18 -12.5 29t-31.5 11q-33 0 -45 -32l-69 26q18 39 50.5 61t72.5 22zM314 512q85 0 145.5 -51.5t60.5 -123.5q0 -13 -3 -27l-54 -310h-110l36 207l-121 -10
q-92 -8 -92 -58q0 -25 22 -39t60 -14q51 0 85.5 27t42.5 75h34q-15 -87 -73.5 -142t-135.5 -55q-65 0 -106 38t-41 99q0 68 53.5 111.5t143.5 50.5l145 12l1 9q2 13 2 18q0 35 -28 59t-69 24q-36 0 -66.5 -19t-43.5 -49l-98 44q28 56 85.5 90t124.5 34z" />
    <glyph glyph-name="uni1EA4" unicode="&#x1ea4;" horiz-adv-x="777" 
d="M914 1093l-48 73l-190 -135l44 -69zM549 984l-201 -142l40 -71l163 119l121 -127l59 61l-152 157zM164 0h-131l407 700h149l162 -700h-121l-131 576zM240 276h400l-18 -104h-400z" />
    <glyph glyph-name="uni1EA5" unicode="&#x1ea5;" horiz-adv-x="512" 
d="M720 879l-48 73l-190 -135l44 -69zM364 774l-201 -142l40 -71l163 119l121 -127l59 61l-152 157zM314 512q85 0 145.5 -51.5t60.5 -123.5q0 -13 -3 -27l-54 -310h-110l36 207l-121 -10q-92 -8 -92 -58q0 -25 22 -39t60 -14q51 0 85.5 27t42.5 75h34q-15 -87 -73.5 -142
t-135.5 -55q-65 0 -106 38t-41 99q0 68 53.5 111.5t143.5 50.5l145 12l1 9q2 13 2 18q0 35 -28 59t-69 24q-36 0 -66.5 -19t-43.5 -49l-98 44q28 56 85.5 90t124.5 34z" />
    <glyph glyph-name="uni1EA6" unicode="&#x1ea6;" horiz-adv-x="777" 
d="M620 1121l61 63l149 -164l-58 -58zM549 984l-201 -142l40 -71l163 119l121 -127l59 61l-152 157zM164 0h-131l407 700h149l162 -700h-121l-131 576zM240 276h400l-18 -104h-400z" />
    <glyph glyph-name="uni1EA7" unicode="&#x1ea7;" horiz-adv-x="512" 
d="M426 907l61 63l149 -164l-58 -58zM364 774l-201 -142l40 -71l163 119l121 -127l59 61l-152 157zM314 512q85 0 145.5 -51.5t60.5 -123.5q0 -13 -3 -27l-54 -310h-110l36 207l-121 -10q-92 -8 -92 -58q0 -25 22 -39t60 -14q51 0 85.5 27t42.5 75h34q-15 -87 -73.5 -142
t-135.5 -55q-65 0 -106 38t-41 99q0 68 53.5 111.5t143.5 50.5l145 12l1 9q2 13 2 18q0 35 -28 59t-69 24q-36 0 -66.5 -19t-43.5 -49l-98 44q28 56 85.5 90t124.5 34z" />
    <glyph glyph-name="uni1EA8" unicode="&#x1ea8;" horiz-adv-x="777" 
d="M769 1219q50 0 82 -30t32 -78q0 -47 -24.5 -77.5t-77.5 -61.5l-37 -20l-35 67l53 27q42 19 42 56q0 18 -12.5 29t-31.5 11q-33 0 -45 -32l-69 26q18 39 50.5 61t72.5 22zM549 984l-201 -142l40 -71l163 119l121 -127l59 61l-152 157zM164 0h-131l407 700h149l162 -700
h-121l-131 576zM240 276h400l-18 -104h-400z" />
    <glyph glyph-name="uni1EA9" unicode="&#x1ea9;" horiz-adv-x="512" 
d="M575 1005q50 0 82 -30t32 -78q0 -47 -24.5 -77.5t-77.5 -61.5l-37 -20l-35 67l53 27q42 19 42 56q0 18 -12.5 29t-31.5 11q-33 0 -45 -32l-69 26q18 39 50.5 61t72.5 22zM364 774l-201 -142l40 -71l163 119l121 -127l59 61l-152 157zM314 512q85 0 145.5 -51.5
t60.5 -123.5q0 -13 -3 -27l-54 -310h-110l36 207l-121 -10q-92 -8 -92 -58q0 -25 22 -39t60 -14q51 0 85.5 27t42.5 75h34q-15 -87 -73.5 -142t-135.5 -55q-65 0 -106 38t-41 99q0 68 53.5 111.5t143.5 50.5l145 12l1 9q2 13 2 18q0 35 -28 59t-69 24q-36 0 -66.5 -19
t-43.5 -49l-98 44q28 56 85.5 90t124.5 34z" />
    <glyph glyph-name="uni1EAA" unicode="&#x1eaa;" horiz-adv-x="777" 
d="M509 1154q-92 0 -136 -130l76 -18q23 68 57 68q21 0 46 -28q24 -26 44 -36t45 -10q92 0 135 130l-74 18q-24 -64 -63 -64q-23 0 -46 26q-23 25 -41.5 34.5t-42.5 9.5zM549 984l-201 -142l40 -71l163 119l121 -127l59 61l-152 157zM164 0h-131l407 700h149l162 -700h-121
l-131 576zM240 276h400l-18 -104h-400z" />
    <glyph glyph-name="uni1EAB" unicode="&#x1eab;" horiz-adv-x="512" 
d="M345 956q-92 0 -136 -130l76 -18q23 68 57 68q21 0 46 -28q24 -26 44 -36t45 -10q92 0 135 130l-74 18q-24 -64 -63 -64q-23 0 -46 26q-23 25 -41.5 34.5t-42.5 9.5zM364 774l-201 -142l40 -71l163 119l121 -127l59 61l-152 157zM314 512q85 0 145.5 -51.5t60.5 -123.5
q0 -13 -3 -27l-54 -310h-110l36 207l-121 -10q-92 -8 -92 -58q0 -25 22 -39t60 -14q51 0 85.5 27t42.5 75h34q-15 -87 -73.5 -142t-135.5 -55q-65 0 -106 38t-41 99q0 68 53.5 111.5t143.5 50.5l145 12l1 9q2 13 2 18q0 35 -28 59t-69 24q-36 0 -66.5 -19t-43.5 -49l-98 44
q28 56 85.5 90t124.5 34z" />
    <glyph glyph-name="uni1EAC" unicode="&#x1eac;" horiz-adv-x="777" 
d="M551 991l-201 -142l40 -71l163 119l121 -127l59 61l-152 157zM310 -145q0 29 20 49t49.5 20t49 -20t19.5 -49t-19.5 -49t-49 -20t-49.5 20t-20 49zM164 0h-131l407 700h149l162 -700h-121l-131 576zM240 276h400l-18 -104h-400z" />
    <glyph glyph-name="uni1EAD" unicode="&#x1ead;" horiz-adv-x="512" 
d="M360 787l-201 -142l40 -71l163 119l121 -127l59 61l-152 157zM170 -145q0 29 20 49t49.5 20t49 -20t19.5 -49t-19.5 -49t-49 -20t-49.5 20t-20 49zM314 512q85 0 145.5 -51.5t60.5 -123.5q0 -13 -3 -27l-54 -310h-110l36 207l-121 -10q-92 -8 -92 -58q0 -25 22 -39
t60 -14q51 0 85.5 27t42.5 75h34q-15 -87 -73.5 -142t-135.5 -55q-65 0 -106 38t-41 99q0 68 53.5 111.5t143.5 50.5l145 12l1 9q2 13 2 18q0 35 -28 59t-69 24q-36 0 -66.5 -19t-43.5 -49l-98 44q28 56 85.5 90t124.5 34z" />
    <glyph glyph-name="uni1EAE" unicode="&#x1eae;" horiz-adv-x="777" 
d="M732 1131l-48 73l-190 -135l44 -69zM533 783q-66 0 -109.5 39.5t-43.5 99.5q0 14 3 28h81q-1 -8 -1 -16q0 -31 22 -51t58 -20q42 0 75.5 25.5t39.5 61.5h93q-12 -67 -77 -117t-141 -50zM164 0h-131l407 700h149l162 -700h-121l-131 576zM240 276h400l-18 -104h-400z" />
    <glyph glyph-name="uni1EAF" unicode="&#x1eaf;" horiz-adv-x="512" 
d="M540 905l-48 73l-190 -135l44 -69zM348 573q-66 0 -109.5 39.5t-43.5 99.5q0 14 3 28h81q-1 -8 -1 -16q0 -31 22 -51t58 -20q42 0 75.5 25.5t39.5 61.5h93q-12 -67 -77 -117t-141 -50zM314 512q85 0 145.5 -51.5t60.5 -123.5q0 -13 -3 -27l-54 -310h-110l36 207l-121 -10
q-92 -8 -92 -58q0 -25 22 -39t60 -14q51 0 85.5 27t42.5 75h34q-15 -87 -73.5 -142t-135.5 -55q-65 0 -106 38t-41 99q0 68 53.5 111.5t143.5 50.5l145 12l1 9q2 13 2 18q0 35 -28 59t-69 24q-36 0 -66.5 -19t-43.5 -49l-98 44q28 56 85.5 90t124.5 34z" />
    <glyph glyph-name="uni1EB0" unicode="&#x1eb0;" horiz-adv-x="777" 
d="M438 1159l61 63l149 -164l-58 -58zM533 783q-66 0 -109.5 39.5t-43.5 99.5q0 14 3 28h81q-1 -8 -1 -16q0 -31 22 -51t58 -20q42 0 75.5 25.5t39.5 61.5h93q-12 -67 -77 -117t-141 -50zM164 0h-131l407 700h149l162 -700h-121l-131 576zM240 276h400l-18 -104h-400z" />
    <glyph glyph-name="uni1EB1" unicode="&#x1eb1;" horiz-adv-x="512" 
d="M246 933l61 63l149 -164l-58 -58zM348 573q-66 0 -109.5 39.5t-43.5 99.5q0 14 3 28h81q-1 -8 -1 -16q0 -31 22 -51t58 -20q42 0 75.5 25.5t39.5 61.5h93q-12 -67 -77 -117t-141 -50zM314 512q85 0 145.5 -51.5t60.5 -123.5q0 -13 -3 -27l-54 -310h-110l36 207l-121 -10
q-92 -8 -92 -58q0 -25 22 -39t60 -14q51 0 85.5 27t42.5 75h34q-15 -87 -73.5 -142t-135.5 -55q-65 0 -106 38t-41 99q0 68 53.5 111.5t143.5 50.5l145 12l1 9q2 13 2 18q0 35 -28 59t-69 24q-36 0 -66.5 -19t-43.5 -49l-98 44q28 56 85.5 90t124.5 34z" />
    <glyph glyph-name="uni1EB2" unicode="&#x1eb2;" horiz-adv-x="777" 
d="M587 1257q50 0 82 -30t32 -78q0 -47 -24.5 -77.5t-77.5 -61.5l-37 -20l-35 67l53 27q42 19 42 56q0 18 -12.5 29t-31.5 11q-33 0 -45 -32l-69 26q18 39 50.5 61t72.5 22zM533 783q-66 0 -109.5 39.5t-43.5 99.5q0 14 3 28h81q-1 -8 -1 -16q0 -31 22 -51t58 -20
q42 0 75.5 25.5t39.5 61.5h93q-12 -67 -77 -117t-141 -50zM164 0h-131l407 700h149l162 -700h-121l-131 576zM240 276h400l-18 -104h-400z" />
    <glyph glyph-name="uni1EB3" unicode="&#x1eb3;" horiz-adv-x="512" 
d="M395 1031q50 0 82 -30t32 -78q0 -47 -24.5 -77.5t-77.5 -61.5l-37 -20l-35 67l53 27q42 19 42 56q0 18 -12.5 29t-31.5 11q-33 0 -45 -32l-69 26q18 39 50.5 61t72.5 22zM348 573q-66 0 -109.5 39.5t-43.5 99.5q0 14 3 28h81q-1 -8 -1 -16q0 -31 22 -51t58 -20
q42 0 75.5 25.5t39.5 61.5h93q-12 -67 -77 -117t-141 -50zM314 512q85 0 145.5 -51.5t60.5 -123.5q0 -13 -3 -27l-54 -310h-110l36 207l-121 -10q-92 -8 -92 -58q0 -25 22 -39t60 -14q51 0 85.5 27t42.5 75h34q-15 -87 -73.5 -142t-135.5 -55q-65 0 -106 38t-41 99
q0 68 53.5 111.5t143.5 50.5l145 12l1 9q2 13 2 18q0 35 -28 59t-69 24q-36 0 -66.5 -19t-43.5 -49l-98 44q28 56 85.5 90t124.5 34z" />
    <glyph glyph-name="uni1EB4" unicode="&#x1eb4;" horiz-adv-x="777" 
d="M510 1154q-92 0 -136 -130l76 -18q23 68 57 68q21 0 46 -28q24 -26 44 -36t45 -10q92 0 135 130l-74 18q-24 -64 -63 -64q-23 0 -46 26q-23 25 -41.5 34.5t-42.5 9.5zM533 783q-66 0 -109.5 39.5t-43.5 99.5q0 14 3 28h81q-1 -8 -1 -16q0 -31 22 -51t58 -20
q42 0 75.5 25.5t39.5 61.5h93q-12 -67 -77 -117t-141 -50zM164 0h-131l407 700h149l162 -700h-121l-131 576zM240 276h400l-18 -104h-400z" />
    <glyph glyph-name="uni1EB5" unicode="&#x1eb5;" horiz-adv-x="512" 
d="M317 928q-92 0 -136 -130l76 -18q23 68 57 68q21 0 46 -28q24 -26 44 -36t45 -10q92 0 135 130l-74 18q-24 -64 -63 -64q-23 0 -46 26q-23 25 -41.5 34.5t-42.5 9.5zM348 573q-66 0 -109.5 39.5t-43.5 99.5q0 14 3 28h81q-1 -8 -1 -16q0 -31 22 -51t58 -20
q42 0 75.5 25.5t39.5 61.5h93q-12 -67 -77 -117t-141 -50zM314 512q85 0 145.5 -51.5t60.5 -123.5q0 -13 -3 -27l-54 -310h-110l36 207l-121 -10q-92 -8 -92 -58q0 -25 22 -39t60 -14q51 0 85.5 27t42.5 75h34q-15 -87 -73.5 -142t-135.5 -55q-65 0 -106 38t-41 99
q0 68 53.5 111.5t143.5 50.5l145 12l1 9q2 13 2 18q0 35 -28 59t-69 24q-36 0 -66.5 -19t-43.5 -49l-98 44q28 56 85.5 90t124.5 34z" />
    <glyph glyph-name="uni1EB6" unicode="&#x1eb6;" horiz-adv-x="777" 
d="M526 779q-66 0 -109.5 39.5t-43.5 99.5q0 14 3 28h81q-1 -8 -1 -16q0 -31 22 -51t58 -20q42 0 75.5 25.5t39.5 61.5h93q-12 -67 -77 -117t-141 -50zM310 -145q0 29 20 49t49.5 20t49 -20t19.5 -49t-19.5 -49t-49 -20t-49.5 20t-20 49zM164 0h-131l407 700h149l162 -700
h-121l-131 576zM240 276h400l-18 -104h-400z" />
    <glyph glyph-name="uni1EB7" unicode="&#x1eb7;" horiz-adv-x="512" 
d="M335 575q-66 0 -109.5 39.5t-43.5 99.5q0 14 3 28h81q-1 -8 -1 -16q0 -31 22 -51t58 -20q42 0 75.5 25.5t39.5 61.5h93q-12 -67 -77 -117t-141 -50zM170 -145q0 29 20 49t49.5 20t49 -20t19.5 -49t-19.5 -49t-49 -20t-49.5 20t-20 49zM314 512q85 0 145.5 -51.5
t60.5 -123.5q0 -13 -3 -27l-54 -310h-110l36 207l-121 -10q-92 -8 -92 -58q0 -25 22 -39t60 -14q51 0 85.5 27t42.5 75h34q-15 -87 -73.5 -142t-135.5 -55q-65 0 -106 38t-41 99q0 68 53.5 111.5t143.5 50.5l145 12l1 9q2 13 2 18q0 35 -28 59t-69 24q-36 0 -66.5 -19
t-43.5 -49l-98 44q28 56 85.5 90t124.5 34z" />
    <glyph glyph-name="uni1EB8" unicode="&#x1eb8;" horiz-adv-x="572" 
d="M208 -145q0 29 20 49t49.5 20t49 -20t19.5 -49t-19.5 -49t-49 -20t-49.5 20t-20 49zM236 416h349l-18 -108h-349l-36 -200h372l-19 -108h-483l123 700h482l-19 -108h-370z" />
    <glyph glyph-name="uni1EB9" unicode="&#x1eb9;" horiz-adv-x="595" 
d="M230 -143q0 29 20 49t49.5 20t49 -20t19.5 -49t-19.5 -49t-49 -20t-49.5 20t-20 49zM498 316q-7 46 -43.5 74t-88.5 28q-56 0 -103 -31.5t-63 -84.5h299q0 9 -1 14zM606 281q0 -34 -10 -76h-404q3 -54 44.5 -87.5t103.5 -33.5q97 0 150 82l89 -58q-44 -63 -107.5 -94.5
t-137.5 -31.5q-110 0 -183 69t-73 175q0 121 85 207.5t205 86.5q102 0 170 -67.5t68 -171.5z" />
    <glyph glyph-name="uni1EBA" unicode="&#x1eba;" horiz-adv-x="572" 
d="M449 1033q50 0 82 -30t32 -78q0 -47 -24.5 -77.5t-77.5 -61.5l-37 -20l-35 67l53 27q42 19 42 56q0 18 -12.5 29t-31.5 11q-33 0 -45 -32l-69 26q18 39 50.5 61t72.5 22zM236 416h349l-18 -108h-349l-36 -200h372l-19 -108h-483l123 700h482l-19 -108h-370z" />
    <glyph glyph-name="uni1EBB" unicode="&#x1ebb;" horiz-adv-x="595" 
d="M413 825q50 0 82 -30t32 -78q0 -47 -24.5 -77.5t-77.5 -61.5l-37 -20l-35 67l53 27q42 19 42 56q0 18 -12.5 29t-31.5 11q-33 0 -45 -32l-69 26q18 39 50.5 61t72.5 22zM498 316q-7 46 -43.5 74t-88.5 28q-56 0 -103 -31.5t-63 -84.5h299q0 9 -1 14zM606 281
q0 -34 -10 -76h-404q3 -54 44.5 -87.5t103.5 -33.5q97 0 150 82l89 -58q-44 -63 -107.5 -94.5t-137.5 -31.5q-110 0 -183 69t-73 175q0 121 85 207.5t205 86.5q102 0 170 -67.5t68 -171.5z" />
    <glyph glyph-name="uni1EBC" unicode="&#x1ebc;" horiz-adv-x="572" 
d="M372 930q-92 0 -136 -130l76 -18q23 68 57 68q21 0 46 -28q24 -26 44 -36t45 -10q92 0 135 130l-74 18q-24 -64 -63 -64q-23 0 -46 26q-23 25 -41.5 34.5t-42.5 9.5zM236 416h349l-18 -108h-349l-36 -200h372l-19 -108h-483l123 700h482l-19 -108h-370z" />
    <glyph glyph-name="uni1EBD" unicode="&#x1ebd;" horiz-adv-x="595" 
d="M337 722q-92 0 -136 -130l76 -18q23 68 57 68q21 0 46 -28q24 -26 44 -36t45 -10q92 0 135 130l-74 18q-24 -64 -63 -64q-23 0 -46 26q-23 25 -41.5 34.5t-42.5 9.5zM498 316q-7 46 -43.5 74t-88.5 28q-56 0 -103 -31.5t-63 -84.5h299q0 9 -1 14zM606 281q0 -34 -10 -76
h-404q3 -54 44.5 -87.5t103.5 -33.5q97 0 150 82l89 -58q-44 -63 -107.5 -94.5t-137.5 -31.5q-110 0 -183 69t-73 175q0 121 85 207.5t205 86.5q102 0 170 -67.5t68 -171.5z" />
    <glyph glyph-name="uni1EBE" unicode="&#x1ebe;" horiz-adv-x="572" 
d="M821 1069l-48 73l-190 -135l44 -69zM447 983l-201 -142l40 -71l163 119l121 -127l59 61l-152 157zM236 416h349l-18 -108h-349l-36 -200h372l-19 -108h-483l123 700h482l-19 -108h-370z" />
    <glyph glyph-name="uni1EBF" unicode="&#x1ebf;" horiz-adv-x="595" 
d="M790 875l-48 73l-190 -135l44 -69zM412 775l-201 -142l40 -71l163 119l121 -127l59 61l-152 157zM498 316q-7 46 -43.5 74t-88.5 28q-56 0 -103 -31.5t-63 -84.5h299q0 9 -1 14zM606 281q0 -34 -10 -76h-404q3 -54 44.5 -87.5t103.5 -33.5q97 0 150 82l89 -58
q-44 -63 -107.5 -94.5t-137.5 -31.5q-110 0 -183 69t-73 175q0 121 85 207.5t205 86.5q102 0 170 -67.5t68 -171.5z" />
    <glyph glyph-name="uni1EC0" unicode="&#x1ec0;" horiz-adv-x="572" 
d="M527 1097l61 63l149 -164l-58 -58zM447 983l-201 -142l40 -71l163 119l121 -127l59 61l-152 157zM236 416h349l-18 -108h-349l-36 -200h372l-19 -108h-483l123 700h482l-19 -108h-370z" />
    <glyph glyph-name="uni1EC1" unicode="&#x1ec1;" horiz-adv-x="595" 
d="M496 903l61 63l149 -164l-58 -58zM412 775l-201 -142l40 -71l163 119l121 -127l59 61l-152 157zM498 316q-7 46 -43.5 74t-88.5 28q-56 0 -103 -31.5t-63 -84.5h299q0 9 -1 14zM606 281q0 -34 -10 -76h-404q3 -54 44.5 -87.5t103.5 -33.5q97 0 150 82l89 -58
q-44 -63 -107.5 -94.5t-137.5 -31.5q-110 0 -183 69t-73 175q0 121 85 207.5t205 86.5q102 0 170 -67.5t68 -171.5z" />
    <glyph glyph-name="uni1EC2" unicode="&#x1ec2;" horiz-adv-x="572" 
d="M676 1195q50 0 82 -30t32 -78q0 -47 -24.5 -77.5t-77.5 -61.5l-37 -20l-35 67l53 27q42 19 42 56q0 18 -12.5 29t-31.5 11q-33 0 -45 -32l-69 26q18 39 50.5 61t72.5 22zM447 983l-201 -142l40 -71l163 119l121 -127l59 61l-152 157zM236 416h349l-18 -108h-349l-36 -200
h372l-19 -108h-483l123 700h482l-19 -108h-370z" />
    <glyph glyph-name="uni1EC3" unicode="&#x1ec3;" horiz-adv-x="595" 
d="M645 1001q50 0 82 -30t32 -78q0 -47 -24.5 -77.5t-77.5 -61.5l-37 -20l-35 67l53 27q42 19 42 56q0 18 -12.5 29t-31.5 11q-33 0 -45 -32l-69 26q18 39 50.5 61t72.5 22zM412 775l-201 -142l40 -71l163 119l121 -127l59 61l-152 157zM498 316q-7 46 -43.5 74t-88.5 28
q-56 0 -103 -31.5t-63 -84.5h299q0 9 -1 14zM606 281q0 -34 -10 -76h-404q3 -54 44.5 -87.5t103.5 -33.5q97 0 150 82l89 -58q-44 -63 -107.5 -94.5t-137.5 -31.5q-110 0 -183 69t-73 175q0 121 85 207.5t205 86.5q102 0 170 -67.5t68 -171.5z" />
    <glyph glyph-name="uni1EC4" unicode="&#x1ec4;" horiz-adv-x="572" 
d="M413 1166q-92 0 -136 -130l76 -18q23 68 57 68q21 0 46 -28q24 -26 44 -36t45 -10q92 0 135 130l-74 18q-24 -64 -63 -64q-23 0 -46 26q-23 25 -41.5 34.5t-42.5 9.5zM447 983l-201 -142l40 -71l163 119l121 -127l59 61l-152 157zM236 416h349l-18 -108h-349l-36 -200
h372l-19 -108h-483l123 700h482l-19 -108h-370z" />
    <glyph glyph-name="uni1EC5" unicode="&#x1ec5;" horiz-adv-x="595" 
d="M388 958q-92 0 -136 -130l76 -18q23 68 57 68q21 0 46 -28q24 -26 44 -36t45 -10q92 0 135 130l-74 18q-24 -64 -63 -64q-23 0 -46 26q-23 25 -41.5 34.5t-42.5 9.5zM412 775l-201 -142l40 -71l163 119l121 -127l59 61l-152 157zM498 316q-7 46 -43.5 74t-88.5 28
q-56 0 -103 -31.5t-63 -84.5h299q0 9 -1 14zM606 281q0 -34 -10 -76h-404q3 -54 44.5 -87.5t103.5 -33.5q97 0 150 82l89 -58q-44 -63 -107.5 -94.5t-137.5 -31.5q-110 0 -183 69t-73 175q0 121 85 207.5t205 86.5q102 0 170 -67.5t68 -171.5z" />
    <glyph glyph-name="uni1EC6" unicode="&#x1ec6;" horiz-adv-x="572" 
d="M452 991l-201 -142l40 -71l163 119l121 -127l59 61l-152 157zM208 -145q0 29 20 49t49.5 20t49 -20t19.5 -49t-19.5 -49t-49 -20t-49.5 20t-20 49zM236 416h349l-18 -108h-349l-36 -200h372l-19 -108h-483l123 700h482l-19 -108h-370z" />
    <glyph glyph-name="uni1EC7" unicode="&#x1ec7;" horiz-adv-x="595" 
d="M415 787l-201 -142l40 -71l163 119l121 -127l59 61l-152 157zM230 -143q0 29 20 49t49.5 20t49 -20t19.5 -49t-19.5 -49t-49 -20t-49.5 20t-20 49zM498 316q-7 46 -43.5 74t-88.5 28q-56 0 -103 -31.5t-63 -84.5h299q0 9 -1 14zM606 281q0 -34 -10 -76h-404
q3 -54 44.5 -87.5t103.5 -33.5q97 0 150 82l89 -58q-44 -63 -107.5 -94.5t-137.5 -31.5q-110 0 -183 69t-73 175q0 121 85 207.5t205 86.5q102 0 170 -67.5t68 -171.5z" />
    <glyph glyph-name="uni1EC8" unicode="&#x1ec8;" horiz-adv-x="220" 
d="M265 1032q50 0 82 -30t32 -78q0 -47 -24.5 -77.5t-77.5 -61.5l-37 -20l-35 67l53 27q42 19 42 56q0 18 -12.5 29t-31.5 11q-33 0 -45 -32l-69 26q18 39 50.5 61t72.5 22zM163 0h-112l123 700h111z" />
    <glyph glyph-name="uni1EC9" unicode="&#x1ec9;" horiz-adv-x="216" 
d="M227 825q50 0 82 -30t32 -78q0 -47 -24.5 -77.5t-77.5 -61.5l-37 -20l-35 67l53 27q42 19 42 56q0 18 -12.5 29t-31.5 11q-33 0 -45 -32l-69 26q18 39 50.5 61t72.5 22zM53 0l88 500h111l-88 -500h-111z" />
    <glyph glyph-name="uni1ECA" unicode="&#x1eca;" horiz-adv-x="220" 
d="M16 -145q0 29 20 49t49.5 20t49 -20t19.5 -49t-19.5 -49t-49 -20t-49.5 20t-20 49zM163 0h-112l123 700h111z" />
    <glyph glyph-name="uni1ECB" unicode="&#x1ecb;" horiz-adv-x="216" 
d="M16 -145q0 29 20 49t49.5 20t49 -20t19.5 -49t-19.5 -49t-49 -20t-49.5 20t-20 49zM156 641q0 29 19.5 49t49 20t49.5 -20t20 -49t-20 -49t-49.5 -20t-49 20t-19.5 49zM53 0l88 500h111l-88 -500h-111z" />
    <glyph glyph-name="uni1ECC" unicode="&#x1ecc;" 
d="M326 -145q0 29 20 49t49.5 20t49 -20t19.5 -49t-19.5 -49t-49 -20t-49.5 20t-20 49zM479 610q-113 0 -193 -84t-80 -203q0 -102 65 -166.5t164 -64.5q114 0 193.5 85.5t79.5 203.5q0 101 -65 165t-164 64zM96 319q0 109 51.5 201t140.5 146t193 54q145 0 241.5 -95
t96.5 -239q0 -108 -51.5 -201t-140.5 -148t-195 -55q-143 0 -239.5 96t-96.5 241z" />
    <glyph glyph-name="uni1ECD" unicode="&#x1ecd;" horiz-adv-x="618" 
d="M232 -144q0 29 20 49t49.5 20t49 -20t19.5 -49t-19.5 -49t-49 -20t-49.5 20t-20 49zM367 415q-75 0 -126.5 -53.5t-51.5 -127.5q0 -65 43.5 -106t108.5 -41q75 0 126.5 53.5t51.5 127.5q0 65 -43.5 106t-108.5 41zM79 224q0 122 86 209t210 87q108 0 181 -68t73 -174
q0 -122 -86 -209t-210 -87q-108 0 -181 68t-73 174z" />
    <glyph glyph-name="uni1ECE" unicode="&#x1ece;" 
d="M536 1033q50 0 82 -30t32 -78q0 -47 -24.5 -77.5t-77.5 -61.5l-37 -20l-35 67l53 27q42 19 42 56q0 18 -12.5 29t-31.5 11q-33 0 -45 -32l-69 26q18 39 50.5 61t72.5 22zM479 610q-113 0 -193 -84t-80 -203q0 -102 65 -166.5t164 -64.5q114 0 193.5 85.5t79.5 203.5
q0 101 -65 165t-164 64zM96 319q0 109 51.5 201t140.5 146t193 54q145 0 241.5 -95t96.5 -239q0 -108 -51.5 -201t-140.5 -148t-195 -55q-143 0 -239.5 96t-96.5 241z" />
    <glyph glyph-name="uni1ECF" unicode="&#x1ecf;" horiz-adv-x="618" 
d="M430 824q50 0 82 -30t32 -78q0 -47 -24.5 -77.5t-77.5 -61.5l-37 -20l-35 67l53 27q42 19 42 56q0 18 -12.5 29t-31.5 11q-33 0 -45 -32l-69 26q18 39 50.5 61t72.5 22zM367 415q-75 0 -126.5 -53.5t-51.5 -127.5q0 -65 43.5 -106t108.5 -41q75 0 126.5 53.5t51.5 127.5
q0 65 -43.5 106t-108.5 41zM79 224q0 122 86 209t210 87q108 0 181 -68t73 -174q0 -122 -86 -209t-210 -87q-108 0 -181 68t-73 174z" />
    <glyph glyph-name="uni1ED0" unicode="&#x1ed0;" 
d="M930 1071l-48 73l-190 -135l44 -69zM534 983l-201 -142l40 -71l163 119l121 -127l59 61l-152 157zM479 610q-113 0 -193 -84t-80 -203q0 -102 65 -166.5t164 -64.5q114 0 193.5 85.5t79.5 203.5q0 101 -65 165t-164 64zM96 319q0 109 51.5 201t140.5 146t193 54
q145 0 241.5 -95t96.5 -239q0 -108 -51.5 -201t-140.5 -148t-195 -55q-143 0 -239.5 96t-96.5 241z" />
    <glyph glyph-name="uni1ED1" unicode="&#x1ed1;" horiz-adv-x="618" 
d="M805 872l-48 73l-190 -135l44 -69zM428 774l-201 -142l40 -71l163 119l121 -127l59 61l-152 157zM367 415q-75 0 -126.5 -53.5t-51.5 -127.5q0 -65 43.5 -106t108.5 -41q75 0 126.5 53.5t51.5 127.5q0 65 -43.5 106t-108.5 41zM79 224q0 122 86 209t210 87q108 0 181 -68
t73 -174q0 -122 -86 -209t-210 -87q-108 0 -181 68t-73 174z" />
    <glyph glyph-name="uni1ED2" unicode="&#x1ed2;" 
d="M636 1099l61 63l149 -164l-58 -58zM534 983l-201 -142l40 -71l163 119l121 -127l59 61l-152 157zM479 610q-113 0 -193 -84t-80 -203q0 -102 65 -166.5t164 -64.5q114 0 193.5 85.5t79.5 203.5q0 101 -65 165t-164 64zM96 319q0 109 51.5 201t140.5 146t193 54
q145 0 241.5 -95t96.5 -239q0 -108 -51.5 -201t-140.5 -148t-195 -55q-143 0 -239.5 96t-96.5 241z" />
    <glyph glyph-name="uni1ED3" unicode="&#x1ed3;" horiz-adv-x="618" 
d="M511 900l61 63l149 -164l-58 -58zM428 774l-201 -142l40 -71l163 119l121 -127l59 61l-152 157zM367 415q-75 0 -126.5 -53.5t-51.5 -127.5q0 -65 43.5 -106t108.5 -41q75 0 126.5 53.5t51.5 127.5q0 65 -43.5 106t-108.5 41zM79 224q0 122 86 209t210 87q108 0 181 -68
t73 -174q0 -122 -86 -209t-210 -87q-108 0 -181 68t-73 174z" />
    <glyph glyph-name="uni1ED4" unicode="&#x1ed4;" 
d="M785 1197q50 0 82 -30t32 -78q0 -47 -24.5 -77.5t-77.5 -61.5l-37 -20l-35 67l53 27q42 19 42 56q0 18 -12.5 29t-31.5 11q-33 0 -45 -32l-69 26q18 39 50.5 61t72.5 22zM534 983l-201 -142l40 -71l163 119l121 -127l59 61l-152 157zM479 610q-113 0 -193 -84t-80 -203
q0 -102 65 -166.5t164 -64.5q114 0 193.5 85.5t79.5 203.5q0 101 -65 165t-164 64zM96 319q0 109 51.5 201t140.5 146t193 54q145 0 241.5 -95t96.5 -239q0 -108 -51.5 -201t-140.5 -148t-195 -55q-143 0 -239.5 96t-96.5 241z" />
    <glyph glyph-name="uni1ED5" unicode="&#x1ed5;" horiz-adv-x="618" 
d="M660 998q50 0 82 -30t32 -78q0 -47 -24.5 -77.5t-77.5 -61.5l-37 -20l-35 67l53 27q42 19 42 56q0 18 -12.5 29t-31.5 11q-33 0 -45 -32l-69 26q18 39 50.5 61t72.5 22zM428 774l-201 -142l40 -71l163 119l121 -127l59 61l-152 157zM367 415q-75 0 -126.5 -53.5
t-51.5 -127.5q0 -65 43.5 -106t108.5 -41q75 0 126.5 53.5t51.5 127.5q0 65 -43.5 106t-108.5 41zM79 224q0 122 86 209t210 87q108 0 181 -68t73 -174q0 -122 -86 -209t-210 -87q-108 0 -181 68t-73 174z" />
    <glyph glyph-name="uni1ED6" unicode="&#x1ed6;" 
d="M495 1173q-92 0 -136 -130l76 -18q23 68 57 68q21 0 46 -28q24 -26 44 -36t45 -10q92 0 135 130l-74 18q-24 -64 -63 -64q-23 0 -46 26q-23 25 -41.5 34.5t-42.5 9.5zM534 983l-201 -142l40 -71l163 119l121 -127l59 61l-152 157zM479 610q-113 0 -193 -84t-80 -203
q0 -102 65 -166.5t164 -64.5q114 0 193.5 85.5t79.5 203.5q0 101 -65 165t-164 64zM96 319q0 109 51.5 201t140.5 146t193 54q145 0 241.5 -95t96.5 -239q0 -108 -51.5 -201t-140.5 -148t-195 -55q-143 0 -239.5 96t-96.5 241z" />
    <glyph glyph-name="uni1ED7" unicode="&#x1ed7;" horiz-adv-x="618" 
d="M405 961q-92 0 -136 -130l76 -18q23 68 57 68q21 0 46 -28q24 -26 44 -36t45 -10q92 0 135 130l-74 18q-24 -64 -63 -64q-23 0 -46 26q-23 25 -41.5 34.5t-42.5 9.5zM428 774l-201 -142l40 -71l163 119l121 -127l59 61l-152 157zM367 415q-75 0 -126.5 -53.5
t-51.5 -127.5q0 -65 43.5 -106t108.5 -41q75 0 126.5 53.5t51.5 127.5q0 65 -43.5 106t-108.5 41zM79 224q0 122 86 209t210 87q108 0 181 -68t73 -174q0 -122 -86 -209t-210 -87q-108 0 -181 68t-73 174z" />
    <glyph glyph-name="uni1ED8" unicode="&#x1ed8;" 
d="M532 991l-201 -142l40 -71l163 119l121 -127l59 61l-152 157zM326 -145q0 29 20 49t49.5 20t49 -20t19.5 -49t-19.5 -49t-49 -20t-49.5 20t-20 49zM479 610q-113 0 -193 -84t-80 -203q0 -102 65 -166.5t164 -64.5q114 0 193.5 85.5t79.5 203.5q0 101 -65 165t-164 64z
M96 319q0 109 51.5 201t140.5 146t193 54q145 0 241.5 -95t96.5 -239q0 -108 -51.5 -201t-140.5 -148t-195 -55q-143 0 -239.5 96t-96.5 241z" />
    <glyph glyph-name="uni1ED9" unicode="&#x1ed9;" horiz-adv-x="618" 
d="M416 787l-201 -142l40 -71l163 119l121 -127l59 61l-152 157zM232 -144q0 29 20 49t49.5 20t49 -20t19.5 -49t-19.5 -49t-49 -20t-49.5 20t-20 49zM367 415q-75 0 -126.5 -53.5t-51.5 -127.5q0 -65 43.5 -106t108.5 -41q75 0 126.5 53.5t51.5 127.5q0 65 -43.5 106
t-108.5 41zM79 224q0 122 86 209t210 87q108 0 181 -68t73 -174q0 -122 -86 -209t-210 -87q-108 0 -181 68t-73 174z" />
    <glyph glyph-name="uni1EDA" unicode="&#x1eda;" 
d="M656 908l-48 73l-190 -135l44 -69zM864 711q0 -60 -37 -96t-99 -36h-81l13 73h60q26 0 43 15.5t17 39.5q0 21 -18 36l64 52q15 -11 26.5 -36t11.5 -48zM479 610q-113 0 -193 -84t-80 -203q0 -102 65 -166.5t164 -64.5q114 0 193.5 85.5t79.5 203.5q0 101 -65 165t-164 64
zM96 319q0 109 51.5 201t140.5 146t193 54q145 0 241.5 -95t96.5 -239q0 -108 -51.5 -201t-140.5 -148t-195 -55q-143 0 -239.5 96t-96.5 241z" />
    <glyph glyph-name="uni1EDB" unicode="&#x1edb;" horiz-adv-x="660" 
d="M570 699l-48 73l-190 -135l44 -69zM751 496q0 -60 -37 -96t-99 -36h-81l13 73h60q26 0 43 15.5t17 39.5q0 21 -18 36l64 52q15 -11 26.5 -36t11.5 -48zM367 415q-75 0 -126.5 -53.5t-51.5 -127.5q0 -65 43.5 -106t108.5 -41q75 0 126.5 53.5t51.5 127.5q0 65 -43.5 106
t-108.5 41zM79 224q0 122 86 209t210 87q108 0 181 -68t73 -174q0 -122 -86 -209t-210 -87q-108 0 -181 68t-73 174z" />
    <glyph glyph-name="uni1EDC" unicode="&#x1edc;" 
d="M362 936l61 63l149 -164l-58 -58zM864 711q0 -60 -37 -96t-99 -36h-81l13 73h60q26 0 43 15.5t17 39.5q0 21 -18 36l64 52q15 -11 26.5 -36t11.5 -48zM479 610q-113 0 -193 -84t-80 -203q0 -102 65 -166.5t164 -64.5q114 0 193.5 85.5t79.5 203.5q0 101 -65 165t-164 64z
M96 319q0 109 51.5 201t140.5 146t193 54q145 0 241.5 -95t96.5 -239q0 -108 -51.5 -201t-140.5 -148t-195 -55q-143 0 -239.5 96t-96.5 241z" />
    <glyph glyph-name="uni1EDD" unicode="&#x1edd;" horiz-adv-x="660" 
d="M276 727l61 63l149 -164l-58 -58zM751 496q0 -60 -37 -96t-99 -36h-81l13 73h60q26 0 43 15.5t17 39.5q0 21 -18 36l64 52q15 -11 26.5 -36t11.5 -48zM367 415q-75 0 -126.5 -53.5t-51.5 -127.5q0 -65 43.5 -106t108.5 -41q75 0 126.5 53.5t51.5 127.5q0 65 -43.5 106
t-108.5 41zM79 224q0 122 86 209t210 87q108 0 181 -68t73 -174q0 -122 -86 -209t-210 -87q-108 0 -181 68t-73 174z" />
    <glyph glyph-name="uni1EDE" unicode="&#x1ede;" 
d="M511 1034q50 0 82 -30t32 -78q0 -47 -24.5 -77.5t-77.5 -61.5l-37 -20l-35 67l53 27q42 19 42 56q0 18 -12.5 29t-31.5 11q-33 0 -45 -32l-69 26q18 39 50.5 61t72.5 22zM864 711q0 -60 -37 -96t-99 -36h-81l13 73h60q26 0 43 15.5t17 39.5q0 21 -18 36l64 52
q15 -11 26.5 -36t11.5 -48zM479 610q-113 0 -193 -84t-80 -203q0 -102 65 -166.5t164 -64.5q114 0 193.5 85.5t79.5 203.5q0 101 -65 165t-164 64zM96 319q0 109 51.5 201t140.5 146t193 54q145 0 241.5 -95t96.5 -239q0 -108 -51.5 -201t-140.5 -148t-195 -55
q-143 0 -239.5 96t-96.5 241z" />
    <glyph glyph-name="uni1EDF" unicode="&#x1edf;" horiz-adv-x="660" 
d="M425 825q50 0 82 -30t32 -78q0 -47 -24.5 -77.5t-77.5 -61.5l-37 -20l-35 67l53 27q42 19 42 56q0 18 -12.5 29t-31.5 11q-33 0 -45 -32l-69 26q18 39 50.5 61t72.5 22zM751 496q0 -60 -37 -96t-99 -36h-81l13 73h60q26 0 43 15.5t17 39.5q0 21 -18 36l64 52
q15 -11 26.5 -36t11.5 -48zM367 415q-75 0 -126.5 -53.5t-51.5 -127.5q0 -65 43.5 -106t108.5 -41q75 0 126.5 53.5t51.5 127.5q0 65 -43.5 106t-108.5 41zM79 224q0 122 86 209t210 87q108 0 181 -68t73 -174q0 -122 -86 -209t-210 -87q-108 0 -181 68t-73 174z" />
    <glyph glyph-name="uni1EE0" unicode="&#x1ee0;" 
d="M434 931q-92 0 -136 -130l76 -18q23 68 57 68q21 0 46 -28q24 -26 44 -36t45 -10q92 0 135 130l-74 18q-24 -64 -63 -64q-23 0 -46 26q-23 25 -41.5 34.5t-42.5 9.5zM864 711q0 -60 -37 -96t-99 -36h-81l13 73h60q26 0 43 15.5t17 39.5q0 21 -18 36l64 52
q15 -11 26.5 -36t11.5 -48zM479 610q-113 0 -193 -84t-80 -203q0 -102 65 -166.5t164 -64.5q114 0 193.5 85.5t79.5 203.5q0 101 -65 165t-164 64zM96 319q0 109 51.5 201t140.5 146t193 54q145 0 241.5 -95t96.5 -239q0 -108 -51.5 -201t-140.5 -148t-195 -55
q-143 0 -239.5 96t-96.5 241z" />
    <glyph glyph-name="uni1EE1" unicode="&#x1ee1;" horiz-adv-x="660" 
d="M348 722q-92 0 -136 -130l76 -18q23 68 57 68q21 0 46 -28q24 -26 44 -36t45 -10q92 0 135 130l-74 18q-24 -64 -63 -64q-23 0 -46 26q-23 25 -41.5 34.5t-42.5 9.5zM751 496q0 -60 -37 -96t-99 -36h-81l13 73h60q26 0 43 15.5t17 39.5q0 21 -18 36l64 52
q15 -11 26.5 -36t11.5 -48zM367 415q-75 0 -126.5 -53.5t-51.5 -127.5q0 -65 43.5 -106t108.5 -41q75 0 126.5 53.5t51.5 127.5q0 65 -43.5 106t-108.5 41zM79 224q0 122 86 209t210 87q108 0 181 -68t73 -174q0 -122 -86 -209t-210 -87q-108 0 -181 68t-73 174z" />
    <glyph glyph-name="uni1EE2" unicode="&#x1ee2;" 
d="M323 -145q0 29 20 49t49.5 20t49 -20t19.5 -49t-19.5 -49t-49 -20t-49.5 20t-20 49zM864 711q0 -60 -37 -96t-99 -36h-81l13 73h60q26 0 43 15.5t17 39.5q0 21 -18 36l64 52q15 -11 26.5 -36t11.5 -48zM479 610q-113 0 -193 -84t-80 -203q0 -102 65 -166.5t164 -64.5
q114 0 193.5 85.5t79.5 203.5q0 101 -65 165t-164 64zM96 319q0 109 51.5 201t140.5 146t193 54q145 0 241.5 -95t96.5 -239q0 -108 -51.5 -201t-140.5 -148t-195 -55q-143 0 -239.5 96t-96.5 241z" />
    <glyph glyph-name="uni1EE3" unicode="&#x1ee3;" horiz-adv-x="660" 
d="M236 -145q0 29 20 49t49.5 20t49 -20t19.5 -49t-19.5 -49t-49 -20t-49.5 20t-20 49zM751 496q0 -60 -37 -96t-99 -36h-81l13 73h60q26 0 43 15.5t17 39.5q0 21 -18 36l64 52q15 -11 26.5 -36t11.5 -48zM367 415q-75 0 -126.5 -53.5t-51.5 -127.5q0 -65 43.5 -106
t108.5 -41q75 0 126.5 53.5t51.5 127.5q0 65 -43.5 106t-108.5 41zM79 224q0 122 86 209t210 87q108 0 181 -68t73 -174q0 -122 -86 -209t-210 -87q-108 0 -181 68t-73 174z" />
    <glyph glyph-name="uni1EE4" unicode="&#x1ee4;" horiz-adv-x="690" 
d="M279 -144q0 29 20 49t49.5 20t49 -20t19.5 -49t-19.5 -49t-49 -20t-49.5 20t-20 49zM370 -11q-117 0 -193.5 73t-76.5 185q0 28 5 56l69 397h111l-69 -397q-4 -23 -4 -44q0 -28 9 -55t28.5 -51t53 -39t77.5 -15q74 0 125.5 46t65.5 127l75 428h111l-79 -448
q-20 -116 -107 -189.5t-201 -73.5z" />
    <glyph glyph-name="uni1EE5" unicode="&#x1ee5;" horiz-adv-x="548" 
d="M178 -142q0 29 20 49t49.5 20t49 -20t19.5 -49t-19.5 -49t-49 -20t-49.5 20t-20 49zM580 500l-88 -500h-112l88 500h112zM257 500l-54 -303q-9 -52 15.5 -81t74.5 -29q46 0 79 25.5t40 69.5h48q-17 -82 -77.5 -137t-136.5 -55q-82 0 -127.5 54t-28.5 148l55 308h112z" />
    <glyph glyph-name="uni1EE6" unicode="&#x1ee6;" horiz-adv-x="690" 
d="M501 1032q50 0 82 -30t32 -78q0 -47 -24.5 -77.5t-77.5 -61.5l-37 -20l-35 67l53 27q42 19 42 56q0 18 -12.5 29t-31.5 11q-33 0 -45 -32l-69 26q18 39 50.5 61t72.5 22zM370 -11q-117 0 -193.5 73t-76.5 185q0 28 5 56l69 397h111l-69 -397q-4 -23 -4 -44q0 -28 9 -55
t28.5 -51t53 -39t77.5 -15q74 0 125.5 46t65.5 127l75 428h111l-79 -448q-20 -116 -107 -189.5t-201 -73.5z" />
    <glyph glyph-name="uni1EE7" unicode="&#x1ee7;" horiz-adv-x="548" 
d="M392 823q50 0 82 -30t32 -78q0 -47 -24.5 -77.5t-77.5 -61.5l-37 -20l-35 67l53 27q42 19 42 56q0 18 -12.5 29t-31.5 11q-33 0 -45 -32l-69 26q18 39 50.5 61t72.5 22zM580 500l-88 -500h-112l88 500h112zM257 500l-54 -303q-9 -52 15.5 -81t74.5 -29q46 0 79 25.5
t40 69.5h48q-17 -82 -77.5 -137t-136.5 -55q-82 0 -127.5 54t-28.5 148l55 308h112z" />
    <glyph glyph-name="uni1EE8" unicode="&#x1ee8;" horiz-adv-x="813" 
d="M638 908l-48 73l-190 -135l44 -69zM909 695q0 -60 -37 -96t-99 -36h-81l13 73h60q26 0 43 15.5t17 39.5q0 21 -18 36l64 52q15 -11 26.5 -36t11.5 -48zM370 -11q-117 0 -193.5 73t-76.5 185q0 28 5 56l69 397h111l-69 -397q-4 -23 -4 -44q0 -28 9 -55t28.5 -51t53 -39
t77.5 -15q74 0 125.5 46t65.5 127l75 428h111l-79 -448q-20 -116 -107 -189.5t-201 -73.5z" />
    <glyph glyph-name="uni1EE9" unicode="&#x1ee9;" horiz-adv-x="668" 
d="M538 699l-48 73l-190 -135l44 -69zM730 492q0 -60 -37 -96t-99 -36h-81l13 73h60q26 0 43 15.5t17 39.5q0 21 -18 36l64 52q15 -11 26.5 -36t11.5 -48zM580 500l-88 -500h-112l88 500h112zM257 500l-54 -303q-9 -52 15.5 -81t74.5 -29q46 0 79 25.5t40 69.5h48
q-17 -82 -77.5 -137t-136.5 -55q-82 0 -127.5 54t-28.5 148l55 308h112z" />
    <glyph glyph-name="uni1EEA" unicode="&#x1eea;" horiz-adv-x="813" 
d="M344 936l61 63l149 -164l-58 -58zM909 695q0 -60 -37 -96t-99 -36h-81l13 73h60q26 0 43 15.5t17 39.5q0 21 -18 36l64 52q15 -11 26.5 -36t11.5 -48zM370 -11q-117 0 -193.5 73t-76.5 185q0 28 5 56l69 397h111l-69 -397q-4 -23 -4 -44q0 -28 9 -55t28.5 -51t53 -39
t77.5 -15q74 0 125.5 46t65.5 127l75 428h111l-79 -448q-20 -116 -107 -189.5t-201 -73.5z" />
    <glyph glyph-name="uni1EEB" unicode="&#x1eeb;" horiz-adv-x="668" 
d="M244 727l61 63l149 -164l-58 -58zM730 492q0 -60 -37 -96t-99 -36h-81l13 73h60q26 0 43 15.5t17 39.5q0 21 -18 36l64 52q15 -11 26.5 -36t11.5 -48zM580 500l-88 -500h-112l88 500h112zM257 500l-54 -303q-9 -52 15.5 -81t74.5 -29q46 0 79 25.5t40 69.5h48
q-17 -82 -77.5 -137t-136.5 -55q-82 0 -127.5 54t-28.5 148l55 308h112z" />
    <glyph glyph-name="uni1EEC" unicode="&#x1eec;" horiz-adv-x="813" 
d="M493 1034q50 0 82 -30t32 -78q0 -47 -24.5 -77.5t-77.5 -61.5l-37 -20l-35 67l53 27q42 19 42 56q0 18 -12.5 29t-31.5 11q-33 0 -45 -32l-69 26q18 39 50.5 61t72.5 22zM909 695q0 -60 -37 -96t-99 -36h-81l13 73h60q26 0 43 15.5t17 39.5q0 21 -18 36l64 52
q15 -11 26.5 -36t11.5 -48zM370 -11q-117 0 -193.5 73t-76.5 185q0 28 5 56l69 397h111l-69 -397q-4 -23 -4 -44q0 -28 9 -55t28.5 -51t53 -39t77.5 -15q74 0 125.5 46t65.5 127l75 428h111l-79 -448q-20 -116 -107 -189.5t-201 -73.5z" />
    <glyph glyph-name="uni1EED" unicode="&#x1eed;" horiz-adv-x="668" 
d="M393 825q50 0 82 -30t32 -78q0 -47 -24.5 -77.5t-77.5 -61.5l-37 -20l-35 67l53 27q42 19 42 56q0 18 -12.5 29t-31.5 11q-33 0 -45 -32l-69 26q18 39 50.5 61t72.5 22zM730 492q0 -60 -37 -96t-99 -36h-81l13 73h60q26 0 43 15.5t17 39.5q0 21 -18 36l64 52
q15 -11 26.5 -36t11.5 -48zM580 500l-88 -500h-112l88 500h112zM257 500l-54 -303q-9 -52 15.5 -81t74.5 -29q46 0 79 25.5t40 69.5h48q-17 -82 -77.5 -137t-136.5 -55q-82 0 -127.5 54t-28.5 148l55 308h112z" />
    <glyph glyph-name="uni1EEE" unicode="&#x1eee;" horiz-adv-x="813" 
d="M417 931q-92 0 -136 -130l76 -18q23 68 57 68q21 0 46 -28q24 -26 44 -36t45 -10q92 0 135 130l-74 18q-24 -64 -63 -64q-23 0 -46 26q-23 25 -41.5 34.5t-42.5 9.5zM909 695q0 -60 -37 -96t-99 -36h-81l13 73h60q26 0 43 15.5t17 39.5q0 21 -18 36l64 52
q15 -11 26.5 -36t11.5 -48zM370 -11q-117 0 -193.5 73t-76.5 185q0 28 5 56l69 397h111l-69 -397q-4 -23 -4 -44q0 -28 9 -55t28.5 -51t53 -39t77.5 -15q74 0 125.5 46t65.5 127l75 428h111l-79 -448q-20 -116 -107 -189.5t-201 -73.5z" />
    <glyph glyph-name="uni1EEF" unicode="&#x1eef;" horiz-adv-x="668" 
d="M316 722q-92 0 -136 -130l76 -18q23 68 57 68q21 0 46 -28q24 -26 44 -36t45 -10q92 0 135 130l-74 18q-24 -64 -63 -64q-23 0 -46 26q-23 25 -41.5 34.5t-42.5 9.5zM730 492q0 -60 -37 -96t-99 -36h-81l13 73h60q26 0 43 15.5t17 39.5q0 21 -18 36l64 52
q15 -11 26.5 -36t11.5 -48zM580 500l-88 -500h-112l88 500h112zM257 500l-54 -303q-9 -52 15.5 -81t74.5 -29q46 0 79 25.5t40 69.5h48q-17 -82 -77.5 -137t-136.5 -55q-82 0 -127.5 54t-28.5 148l55 308h112z" />
    <glyph glyph-name="uni1EF0" unicode="&#x1ef0;" horiz-adv-x="813" 
d="M266 -145q0 29 20 49t49.5 20t49 -20t19.5 -49t-19.5 -49t-49 -20t-49.5 20t-20 49zM909 695q0 -60 -37 -96t-99 -36h-81l13 73h60q26 0 43 15.5t17 39.5q0 21 -18 36l64 52q15 -11 26.5 -36t11.5 -48zM370 -11q-117 0 -193.5 73t-76.5 185q0 28 5 56l69 397h111
l-69 -397q-4 -23 -4 -44q0 -28 9 -55t28.5 -51t53 -39t77.5 -15q74 0 125.5 46t65.5 127l75 428h111l-79 -448q-20 -116 -107 -189.5t-201 -73.5z" />
    <glyph glyph-name="uni1EF1" unicode="&#x1ef1;" horiz-adv-x="668" 
d="M178 -145q0 29 20 49t49.5 20t49 -20t19.5 -49t-19.5 -49t-49 -20t-49.5 20t-20 49zM730 492q0 -60 -37 -96t-99 -36h-81l13 73h60q26 0 43 15.5t17 39.5q0 21 -18 36l64 52q15 -11 26.5 -36t11.5 -48zM580 500l-88 -500h-112l88 500h112zM257 500l-54 -303
q-9 -52 15.5 -81t74.5 -29q46 0 79 25.5t40 69.5h48q-17 -82 -77.5 -137t-136.5 -55q-82 0 -127.5 54t-28.5 148l55 308h112z" />
    <glyph glyph-name="Ygrave" unicode="&#x1ef2;" horiz-adv-x="677" 
d="M354 936l61 63l149 -164l-58 -58zM292 0h110l41 230l329 470h-134l-232 -337l-131 337h-125l183 -470z" />
    <glyph glyph-name="ygrave" unicode="&#x1ef3;" horiz-adv-x="579" 
d="M253 725l61 63l149 -164l-58 -58zM518 500l-212 -369l-76 369h-114l107 -486l-123 -214h124l416 700h-122z" />
    <glyph glyph-name="uni1EF4" unicode="&#x1ef4;" horiz-adv-x="677" 
d="M257 -145q0 29 20 49t49.5 20t49 -20t19.5 -49t-19.5 -49t-49 -20t-49.5 20t-20 49zM292 0h110l41 230l329 470h-134l-232 -337l-131 337h-125l183 -470z" />
    <glyph glyph-name="uni1EF5" unicode="&#x1ef5;" horiz-adv-x="579" 
d="M362 -145q0 29 20 49t49.5 20t49 -20t19.5 -49t-19.5 -49t-49 -20t-49.5 20t-20 49zM518 500l-212 -369l-76 369h-114l107 -486l-123 -214h124l416 700h-122z" />
    <glyph glyph-name="uni1EF6" unicode="&#x1ef6;" horiz-adv-x="677" 
d="M503 1034q50 0 82 -30t32 -78q0 -47 -24.5 -77.5t-77.5 -61.5l-37 -20l-35 67l53 27q42 19 42 56q0 18 -12.5 29t-31.5 11q-33 0 -45 -32l-69 26q18 39 50.5 61t72.5 22zM292 0h110l41 230l329 470h-134l-232 -337l-131 337h-125l183 -470z" />
    <glyph glyph-name="uni1EF7" unicode="&#x1ef7;" horiz-adv-x="579" 
d="M402 823q50 0 82 -30t32 -78q0 -47 -24.5 -77.5t-77.5 -61.5l-37 -20l-35 67l53 27q42 19 42 56q0 18 -12.5 29t-31.5 11q-33 0 -45 -32l-69 26q18 39 50.5 61t72.5 22zM518 500l-212 -369l-76 369h-114l107 -486l-123 -214h124l416 700h-122z" />
    <glyph glyph-name="uni1EF8" unicode="&#x1ef8;" horiz-adv-x="677" 
d="M426 931q-92 0 -136 -130l76 -18q23 68 57 68q21 0 46 -28q24 -26 44 -36t45 -10q92 0 135 130l-74 18q-24 -64 -63 -64q-23 0 -46 26q-23 25 -41.5 34.5t-42.5 9.5zM292 0h110l41 230l329 470h-134l-232 -337l-131 337h-125l183 -470z" />
    <glyph glyph-name="uni1EF9" unicode="&#x1ef9;" horiz-adv-x="579" 
d="M325 720q-92 0 -136 -130l76 -18q23 68 57 68q21 0 46 -28q24 -26 44 -36t45 -10q92 0 135 130l-74 18q-24 -64 -63 -64q-23 0 -46 26q-23 25 -41.5 34.5t-42.5 9.5zM518 500l-212 -369l-76 369h-114l107 -486l-123 -214h124l416 700h-122z" />
    <glyph glyph-name="uni2010" unicode="&#x2010;" horiz-adv-x="347" 
d="M375 315l-17 -97h-292l17 97h292z" />
    <glyph glyph-name="endash" unicode="&#x2013;" horiz-adv-x="537" 
d="M565 315l-17 -97h-482l17 97h482z" />
    <glyph glyph-name="emdash" unicode="&#x2014;" horiz-adv-x="856" 
d="M885 315l-18 -97h-801l17 97h802z" />
    <glyph glyph-name="quoteleft" unicode="&#x2018;" horiz-adv-x="236" 
d="M218 462q-39 0 -62.5 27t-23.5 73q0 70 52.5 134t120.5 79l20 -63q-46 -6 -80.5 -36.5t-41.5 -70.5q11 10 32 10q30 0 50 -20t20 -50q0 -36 -25 -59.5t-62 -23.5z" />
    <glyph glyph-name="quoteright" unicode="&#x2019;" horiz-adv-x="236" 
d="M240 780q39 0 62.5 -27.5t23.5 -72.5q0 -70 -52.5 -134.5t-120.5 -79.5l-20 64q46 6 80.5 36t42.5 71q-12 -11 -32 -11q-31 0 -51 20t-20 50q0 36 25 60t62 24z" />
    <glyph glyph-name="quotesinglbase" unicode="&#x201a;" horiz-adv-x="236" 
d="M129 148q39 0 62 -27t23 -73q0 -69 -52 -133.5t-120 -78.5l-20 63q46 6 80.5 36t41.5 71q-12 -10 -32 -10q-30 0 -50 19.5t-20 50.5q0 35 25 58.5t62 23.5z" />
    <glyph glyph-name="quotereversed" unicode="&#x201b;" horiz-adv-x="236" 
d="M248 624q-31 0 -42 17q-2 -9 -2 -18q0 -36 23 -65.5t61 -41.5l-41 -58q-45 19 -75 69t-30 105q0 60 32.5 103t78.5 43q34 0 56 -19.5t22 -48.5q0 -35 -24.5 -60.5t-58.5 -25.5z" />
    <glyph glyph-name="quotedblleft" unicode="&#x201c;" horiz-adv-x="446" 
d="M428 462q-41 0 -63.5 28.5t-22.5 71.5q0 72 54 135.5t118 77.5l21 -63q-46 -6 -81 -36.5t-42 -70.5q12 10 32 10q31 0 51 -20t20 -50q0 -36 -25 -59.5t-62 -23.5zM218 462q-39 0 -62.5 27t-23.5 73q0 70 52.5 134t119.5 79l21 -63q-46 -6 -81 -36.5t-42 -70.5
q12 10 32 10q31 0 51 -20t20 -50q0 -36 -25 -59.5t-62 -23.5z" />
    <glyph glyph-name="quotedblright" unicode="&#x201d;" horiz-adv-x="446" 
d="M240 777q38 0 61.5 -27.5t23.5 -72.5q0 -70 -52.5 -134.5t-120.5 -78.5l-20 64q47 5 81.5 35.5t41.5 70.5q-11 -10 -32 -10q-31 0 -51 20t-20 50q0 36 25 59.5t63 23.5zM450 777q38 0 61.5 -27.5t23.5 -72.5q0 -70 -52.5 -134.5t-120.5 -78.5l-20 64q47 5 81.5 35.5
t41.5 70.5q-11 -10 -32 -10q-31 0 -51 20t-20 50q0 36 25 59.5t63 23.5z" />
    <glyph glyph-name="quotedblbase" unicode="&#x201e;" horiz-adv-x="446" 
d="M130 149q38 0 62 -28t24 -73q0 -69 -53 -134t-120 -78l-20 63q46 6 80.5 36t42.5 71q-12 -11 -32 -11q-30 0 -50.5 20.5t-20.5 50.5q0 35 25.5 59t61.5 24zM340 149q38 0 62 -28t24 -73q0 -69 -53 -134t-120 -78l-20 63q46 6 80.5 36t42.5 71q-12 -11 -32 -11
q-30 0 -50.5 20.5t-20.5 50.5q0 35 25.5 59t61.5 24z" />
    <glyph glyph-name="uni201F" unicode="&#x201f;" horiz-adv-x="446" 
d="M458 624q-31 0 -42 17q-2 -9 -2 -18q0 -36 23 -65.5t61 -41.5l-41 -58q-45 19 -75 69t-30 105q0 60 32.5 103t78.5 43q34 0 56 -19.5t22 -48.5q0 -35 -24.5 -60.5t-58.5 -25.5zM248 624q-31 0 -42 17q-2 -9 -2 -18q0 -36 23 -65.5t61 -41.5l-41 -58q-45 19 -75 69
t-30 105q0 60 32.5 103t78.5 43q34 0 56 -19.5t22 -48.5q0 -35 -24.5 -60.5t-58.5 -25.5z" />
    <glyph glyph-name="dagger" unicode="&#x2020;" horiz-adv-x="382" 
d="M235 639h140l-39 -137h105l-18 -102h-105l-71 -400h-110l71 400h-107l18 102h107z" />
    <glyph glyph-name="daggerdbl" unicode="&#x2021;" horiz-adv-x="382" 
d="M234 639h140l-39 -137h105l-18 -102h-105l-29 -161h106l-18 -102h-106l-10 -137h-140l39 137h-105l18 102h105l29 161h-106l18 102h106z" />
    <glyph glyph-name="bullet" unicode="&#x2022;" horiz-adv-x="224" 
d="M84 284q0 34 22 57t55 23q35 0 58 -23t23 -57t-22.5 -56.5t-56.5 -22.5t-56.5 22.5t-22.5 56.5z" />
    <glyph glyph-name="uni2023" unicode="&#x2023;" horiz-adv-x="224" 
d="M107 390l134 -102l-169 -96z" />
    <glyph glyph-name="ellipsis" unicode="&#x2026;" horiz-adv-x="672" 
d="M493 64q0 34 22 57t55 23q35 0 58 -23t23 -57t-22.5 -56.5t-56.5 -22.5t-56.5 22.5t-22.5 56.5zM269 64q0 34 22 57t55 23q35 0 58 -23t23 -57t-22.5 -56.5t-56.5 -22.5t-56.5 22.5t-22.5 56.5zM45 64q0 34 22 57t55 23q35 0 58 -23t23 -57t-22.5 -56.5t-56.5 -22.5
t-56.5 22.5t-22.5 56.5z" />
    <glyph glyph-name="perthousand" unicode="&#x2030;" horiz-adv-x="1377" 
d="M1198 267q-43 0 -72.5 -30.5t-29.5 -73.5q0 -37 25 -60.5t62 -23.5q43 0 72.5 30.5t29.5 73.5q0 37 -25 60.5t-62 23.5zM996 153q0 88 61.5 151t148.5 63q78 0 128.5 -49t50.5 -125q0 -88 -61.5 -151t-148.5 -63q-78 0 -128.5 49t-50.5 125zM773 267q-43 0 -72.5 -30.5
t-29.5 -73.5q0 -37 25 -60.5t62 -23.5q43 0 72.5 30.5t29.5 73.5q0 37 -25 60.5t-62 23.5zM571 153q0 88 61.5 151t148.5 63q78 0 128.5 -49t50.5 -125q0 -88 -61.5 -151t-148.5 -63q-78 0 -128.5 49t-50.5 125zM314 619q-43 0 -72.5 -30.5t-29.5 -73.5q0 -37 25 -60.5
t62 -23.5q43 0 72.5 30.5t29.5 73.5q0 37 -25 60.5t-62 23.5zM112 505q0 88 61.5 151t148.5 63q78 0 128.5 -49t50.5 -125q0 -88 -61.5 -151t-148.5 -63q-78 0 -128.5 49t-50.5 125zM394 0h-124l411 700h124z" />
    <glyph glyph-name="minute" unicode="&#x2032;" horiz-adv-x="213" 
d="M218 765l95 -28l-100 -236l-91 26z" />
    <glyph glyph-name="second" unicode="&#x2033;" horiz-adv-x="383" 
d="M388 765l95 -28l-100 -236l-91 26zM218 765l95 -28l-100 -236l-91 26z" />
    <glyph glyph-name="uni2034" unicode="&#x2034;" horiz-adv-x="553" 
d="M558 765l95 -28l-100 -236l-91 26zM388 765l95 -28l-100 -236l-91 26zM218 765l95 -28l-100 -236l-91 26z" />
    <glyph glyph-name="uni2035" unicode="&#x2035;" horiz-adv-x="213" 
d="M264 765l12 -238l-99 -26l-18 236z" />
    <glyph glyph-name="uni2036" unicode="&#x2036;" horiz-adv-x="383" 
d="M264 765l12 -238l-99 -26l-18 236zM434 765l12 -238l-99 -26l-18 236z" />
    <glyph glyph-name="uni2037" unicode="&#x2037;" horiz-adv-x="553" 
d="M264 765l12 -238l-99 -26l-18 236zM434 765l12 -238l-99 -26l-18 236zM604 765l12 -238l-99 -26l-18 236z" />
    <glyph glyph-name="fractionslash" unicode="&#x2044;" horiz-adv-x="114" 
d="M-1 0h-130l387 700h130z" />
    <glyph glyph-name="uni2070" unicode="&#x2070;" horiz-adv-x="329" 
d="M229 633q-4 -22 7.5 -36.5t31.5 -14.5q19 0 35 14.5t20 36.5l14 77q4 23 -7 37.5t-30 14.5q-20 0 -36.5 -14.5t-20.5 -37.5zM138 628l16 87q10 60 57 98.5t105 38.5q57 0 89.5 -38.5t22.5 -98.5l-16 -87q-10 -59 -56.5 -97.5t-103.5 -38.5t-90.5 38.5t-23.5 97.5z" />
    <glyph glyph-name="uni2074" unicode="&#x2074;" horiz-adv-x="337" 
d="M227 644h65l16 92zM417 844l-35 -200h41l-13 -77h-41l-12 -67h-90l12 67h-151l15 89l172 188h102z" />
    <glyph glyph-name="uni2075" unicode="&#x2075;" horiz-adv-x="329" 
d="M242 709l10 54h171l14 81h-261l-30 -171l85 -29q28 25 55 25q19 0 29 -13.5t6 -34.5q-3 -19 -18.5 -31t-36.5 -12q-19 0 -30 10t-12 27l-92 -23q6 -46 38.5 -72.5t83.5 -26.5q59 0 103 36t54 92q9 50 -14.5 84.5t-67.5 34.5q-46 0 -87 -31z" />
    <glyph glyph-name="uni2076" unicode="&#x2076;" horiz-adv-x="330" 
d="M373 742q-14 30 -53 30q-30 0 -53.5 -24.5t-34.5 -67.5q15 20 39 32.5t49 12.5q44 0 68.5 -33t16.5 -80q-10 -52 -53 -86t-99 -34q-66 0 -94 48q-28 47 -15 123q15 84 67 136.5t120 52.5q42 0 71 -19t38 -54zM233 613q-3 -17 7.5 -29t29.5 -12t32.5 10.5t16.5 27.5
t-7.5 28.5t-29.5 11.5t-33 -10.5t-16 -26.5z" />
    <glyph glyph-name="uni2077" unicode="&#x2077;" horiz-adv-x="310" 
d="M270 500l145 250l17 94h-256l-14 -82h169l-159 -262h98z" />
    <glyph glyph-name="uni2078" unicode="&#x2078;" horiz-adv-x="326" 
d="M224.5 605q-2.5 -14 8.5 -23.5t31 -9.5t34.5 9.5t17 23.5t-8.5 23.5t-31 9.5t-34.5 -9.5t-17 -23.5zM172 753q8 42 49 70.5t92.5 28.5t82.5 -28.5t24 -70.5q-10 -53 -70 -77q31 -11 45 -32.5t9 -49.5q-8 -43 -52.5 -72.5t-101.5 -29.5t-91 29.5t-27 72.5q5 28 26.5 49.5
t56.5 32.5q-52 24 -43 77zM289 711q14 0 25.5 9t13.5 23q2 13 -6 21t-22.5 8t-25.5 -8t-14 -21q-2 -14 6.5 -23t22.5 -9z" />
    <glyph glyph-name="uni2079" unicode="&#x2079;" horiz-adv-x="330" 
d="M194 602q15 -30 53 -30q30 0 53.5 24.5t34.5 67.5q-14 -20 -38 -32.5t-50 -12.5q-43 0 -67.5 33t-16.5 80q9 52 52 86t100 34q65 0 94 -48q27 -47 14 -123q-15 -84 -66.5 -136.5t-120.5 -52.5q-41 0 -70 19t-39 54zM335 731q3 17 -8 29t-30 12q-18 0 -32 -10.5t-17 -27.5
t8 -28.5t30 -11.5q18 0 32 10.5t17 26.5z" />
    <glyph glyph-name="uni2080" unicode="&#x2080;" horiz-adv-x="329" 
d="M114 -20q-4 -22 7.5 -36t31.5 -14q19 0 35 14t20 36l14 78q4 22 -7 37t-30 15q-20 0 -36.5 -15t-20.5 -37zM23 -25l16 88q10 59 57 98t105 39q57 0 89.5 -39t22.5 -98l-16 -88q-10 -59 -56.5 -97t-103.5 -38t-90.5 38.5t-23.5 96.5z" />
    <glyph glyph-name="uni2081" unicode="&#x2081;" horiz-adv-x="250" 
d="M257 192l-61 -344h-90l42 239l-62 -43l-39 66l117 82h93z" />
    <glyph glyph-name="uni2082" unicode="&#x2082;" horiz-adv-x="319" 
d="M304 74q9 53 -22.5 87.5t-86.5 34.5q-51 0 -90 -28.5t-61 -73.5l79 -29q19 41 53 41q16 0 25.5 -11t5.5 -28q-4 -28 -83 -64l-104 -51l-18 -104h263l15 86h-148l51 25q109 49 121 115z" />
    <glyph glyph-name="uni2083" unicode="&#x2083;" horiz-adv-x="329" 
d="M218 44l93 49l18 100h-253l-14 -82h165l-83 -51l13 -60q24 0 35.5 -9t8.5 -26q-3 -14 -16 -23.5t-30 -9.5q-18 0 -28.5 11.5t-10.5 30.5l-96 -18q4 -52 37 -83t86 -31q57 0 99.5 31t50.5 79q7 39 -14 64.5t-61 27.5z" />
    <glyph glyph-name="uni2084" unicode="&#x2084;" horiz-adv-x="337" 
d="M112 -8h65l16 92zM302 192l-35 -200h41l-13 -77h-41l-12 -67h-90l12 67h-151l15 89l172 188h102z" />
    <glyph glyph-name="uni2085" unicode="&#x2085;" horiz-adv-x="329" 
d="M127 56l10 54h171l14 82h-261l-30 -172l85 -29q28 26 55 26q19 0 29 -13.5t6 -34.5q-3 -20 -18.5 -32t-36.5 -12q-19 0 -30 10t-12 28l-92 -23q6 -46 38.5 -73t83.5 -27q59 0 103 36.5t54 92.5q9 49 -15 83.5t-67 34.5q-46 0 -87 -31z" />
    <glyph glyph-name="uni2086" unicode="&#x2086;" horiz-adv-x="330" 
d="M258 90q-14 30 -53 30q-30 0 -53.5 -25t-34.5 -67q15 20 39 32t49 12q44 0 68.5 -33t15.5 -80q-9 -51 -52 -85t-99 -34q-66 0 -94 48q-28 47 -15 123q15 84 67 136.5t120 52.5q42 0 71 -19.5t38 -54.5zM117 -40q-3 -17 8 -28.5t30 -11.5t32.5 10.5t16.5 26.5
q3 17 -7.5 28.5t-29.5 11.5t-33 -10.5t-17 -26.5z" />
    <glyph glyph-name="uni2087" unicode="&#x2087;" horiz-adv-x="310" 
d="M155 -152l145 250l17 94h-256l-14 -82h169l-159 -262h98z" />
    <glyph glyph-name="uni2088" unicode="&#x2088;" horiz-adv-x="326" 
d="M109.5 -47.5q-2.5 -14.5 8.5 -23.5t31 -9t34.5 9t17 23.5t-8.5 24t-31 9.5t-34.5 -9.5t-17 -24zM57 101q8 41 49 70t92.5 29t82.5 -29t24 -70q-10 -54 -70 -78q31 -11 45 -32t9 -49q-8 -43 -52.5 -72.5t-101.5 -29.5t-91 29.5t-27 72.5q5 28 26.5 49t56.5 32
q-52 24 -43 78zM174 58q14 0 25.5 9.5t13.5 22.5t-6 21.5t-23 8.5t-25.5 -8.5t-13.5 -21.5q-2 -13 6.5 -22.5t22.5 -9.5z" />
    <glyph glyph-name="uni2089" unicode="&#x2089;" horiz-adv-x="330" 
d="M79 -50q15 -31 53 -31q30 0 53.5 25t34.5 67q-15 -20 -38.5 -32t-49.5 -12q-43 0 -67.5 33t-16.5 80q9 51 52 85.5t100 34.5q65 0 93 -49q28 -47 15 -123q-15 -84 -66.5 -136t-120.5 -52q-41 0 -70 19t-39 53zM220 79q3 17 -8 29t-30 12q-18 0 -32 -11t-17 -27
q-3 -17 8 -28.5t30 -11.5q18 0 32 10.5t17 26.5z" />
    <glyph glyph-name="dong" unicode="&#x20ab;" horiz-adv-x="668" 
d="M632 -70l-15 -87h-617l15 87h617zM566 310q0 -86 -40 -162t-107 -121t-143 -45q-89 0 -145.5 59.5t-56.5 154.5q0 84 41 159t110 120t147 45q86 0 140 -58t54 -152zM324 87q80 0 138 58t58 137q0 59 -38.5 96t-99.5 37q-79 0 -137.5 -58t-58.5 -137q0 -59 38.5 -96
t99.5 -37zM583 0h-110l103 586h-212l18 97h212l11 67h110l-11 -67h84l-16 -97h-86z" />
    <glyph glyph-name="Euro" unicode="&#x20ac;" horiz-adv-x="848" 
d="M600 312l-12 -68h-512l12 68h512zM628 472l-13 -72h-512l13 72h512zM170 280q0 86 35.5 167.5t93.5 141t137 95.5t164 36q104 0 180.5 -51.5t105.5 -141.5l-103 -55q-20 64 -74.5 101t-129.5 37q-78 0 -146.5 -42.5t-109.5 -114.5t-41 -153q0 -92 57.5 -150t148.5 -58
q77 0 146 39.5t112 107.5l84 -54q-59 -94 -156 -148.5t-204 -54.5q-133 0 -216.5 83t-83.5 215z" />
    <glyph glyph-name="uni20B4" unicode="&#x20b4;" horiz-adv-x="584" 
d="M78 146q0 60 38 106h-44l12 67h526l-11 -67h-359q-44 -30 -44 -80q0 -35 28 -56.5t74 -21.5q54 0 102.5 31.5t79.5 85.5l97 -51q-47 -78 -128.5 -124.5t-172.5 -46.5q-89 0 -143.5 43.5t-54.5 113.5zM622 557q0 -56 -34 -101h47l-11 -66h-528l12 66h358q38 30 38 78
q0 33 -25 53.5t-69 20.5q-51 0 -98 -29t-76 -79l-98 40q46 79 126 126t168 47q85 0 137.5 -43t52.5 -113z" />
    <glyph glyph-name="uni20B8" unicode="&#x20b8;" horiz-adv-x="603" 
d="M132 597l18 103h550l-18 -103h-550zM670 525l-20 -108h-220l-74 -417h-110l74 417h-220l20 108h550z" />
    <glyph glyph-name="uni20BD" unicode="&#x20bd;" horiz-adv-x="633" 
d="M694 536q0 -94 -75 -164t-177 -70h-164l-12 -72h150l-16 -87h-150l-25 -143h-110l25 143h-88l16 87h88l12 73h-87l17 97h88l52 300h284q77 0 124.5 -45.5t47.5 -118.5zM460 400q49 0 85.5 34t36.5 80q0 35 -24.5 56.5t-63.5 21.5h-164l-34 -192h164z" />
    <glyph glyph-name="uni2103" unicode="&#x2103;" horiz-adv-x="1201" 
d="M519 316q0 111 52 204t143 146.5t199 53.5t195.5 -61t120.5 -177l-106 -35q-20 74 -79.5 118.5t-139.5 44.5q-114 0 -194.5 -84.5t-80.5 -203.5q0 -100 65.5 -165t164.5 -65q71 0 133.5 39t101.5 108l98 -55q-57 -96 -146.5 -149.5t-193.5 -53.5q-144 0 -238.5 95.5
t-94.5 239.5zM312 610q-38 0 -64.5 -27t-26.5 -66q0 -33 22 -54t56 -21q38 0 64.5 27t26.5 66q0 33 -22 54t-56 21zM120 507q0 84 58.5 143.5t141.5 59.5q73 0 122 -46.5t49 -118.5q0 -84 -58.5 -143.5t-141.5 -59.5q-73 0 -122 46.5t-49 118.5z" />
    <glyph glyph-name="uni2109" unicode="&#x2109;" horiz-adv-x="994" 
d="M659 416h349l-18 -108h-349l-54 -308h-112l123 700h482l-19 -108h-370zM312 610q-38 0 -64.5 -27t-26.5 -66q0 -33 22 -54t56 -21q38 0 64.5 27t26.5 66q0 33 -22 54t-56 21zM120 507q0 84 58.5 143.5t141.5 59.5q73 0 122 -46.5t49 -118.5q0 -84 -58.5 -143.5
t-141.5 -59.5q-73 0 -122 46.5t-49 118.5z" />
    <glyph glyph-name="trademark" unicode="&#x2122;" horiz-adv-x="504" 
d="M330 700l-9 -48h-62l-32 -182h-52l32 182h-60l9 48h174zM318 470l40 230h62l32 -120l75 120h68l-41 -230h-51l25 142l-66 -104h-39l-29 104l-25 -142h-51z" />
    <glyph glyph-name="estimated" unicode="&#x212e;" horiz-adv-x="598" 
d="M267 516l-24 -136h247l24 138q-43 42 -116 42q-74 0 -131 -44zM631 409q0 -35 -13 -86h-385l-24 -135q42 -46 120 -46q62 0 117 30.5t90 83.5l52 -26q-45 -69 -115.5 -108.5t-149.5 -39.5q-100 0 -165.5 61t-65.5 157q0 129 92.5 224.5t218.5 95.5q99 0 163.5 -59
t64.5 -152z" />
    <glyph glyph-name="arrowleft" unicode="&#x2190;" horiz-adv-x="771" 
d="M406 655l63 -68l-185 -170h511l-8 -97h-510l154 -169l-75 -68l-256 286z" />
    <glyph glyph-name="arrowup" unicode="&#x2191;" horiz-adv-x="651" 
d="M677 433l-74 -69l-155 170l-45 -510h-97l45 510l-183 -170l-62 69l310 281z" />
    <glyph glyph-name="arrowright" unicode="&#x2192;" horiz-adv-x="771" 
d="M485 74l-63 68l185 170h-511l8 98h510l-154 168l75 68l256 -286z" />
    <glyph glyph-name="arrowdown" unicode="&#x2193;" horiz-adv-x="651" 
d="M94 296l74 69l155 -170l45 511h97l-44 -510l183 169l62 -69l-311 -280z" />
    <glyph glyph-name="arrowboth" unicode="&#x2194;" horiz-adv-x="926" 
d="M640 74l-63 68l184 170h-484l154 -168l-75 -68l-256 286l306 286l63 -68l-184 -170h484l-154 168l75 68l256 -286z" />
    <glyph glyph-name="arrowupdn" unicode="&#x2195;" horiz-adv-x="653" 
d="M88 219l74 69l154 -170l43 484l-184 -168l-62 69l311 281l261 -281l-74 -69l-154 170l-43 -484l184 168l62 -69l-311 -281z" />
    <glyph glyph-name="uni2196" unicode="&#x2196;" horiz-adv-x="605" 
d="M527 617l-8 -97h-240l330 -361l-75 -69l-329 361l-21 -239h-96l38 401z" />
    <glyph glyph-name="uni2197" unicode="&#x2197;" horiz-adv-x="605" 
d="M614 212h-97l21 240l-393 -361l-62 68l392 360h-239l9 98l400 -4z" />
    <glyph glyph-name="uni2198" unicode="&#x2198;" horiz-adv-x="605" 
d="M198 113l8 97h241l-330 361l75 68l328 -360l21 239l97 -1l-39 -401z" />
    <glyph glyph-name="uni2199" unicode="&#x2199;" horiz-adv-x="605" 
d="M112 518h97l-21 -241l393 362l62 -69l-392 -360h239l-9 -97l-400 4z" />
    <glyph glyph-name="approxequal" unicode="&#x2248;" horiz-adv-x="474" 
d="M208 263q-47 0 -83 -34.5t-57 -95.5l71 -18q24 67 59 67q21 0 45 -27q24 -26 44.5 -36t45.5 -10q46 0 82 34.5t56 95.5l-71 18q-24 -65 -62 -65q-24 0 -47 27q-22 25 -40.5 34.5t-42.5 9.5zM239 443q-47 0 -82.5 -34.5t-56.5 -95.5l71 -18q24 67 59 67q21 0 45 -27
q24 -26 44.5 -36t45.5 -10q46 0 82 34.5t56 95.5l-71 18q-24 -65 -63 -65q-23 0 -46 27q-22 25 -40.5 34.5t-43.5 9.5z" />
    <glyph glyph-name="notequal" unicode="&#x2260;" horiz-adv-x="402" 
d="M161 5h-112l288 528h112zM414 224l-17 -97h-347l17 97h347zM448 419l-17 -97h-347l17 97h347z" />
    <glyph glyph-name="lessequal" unicode="&#x2264;" horiz-adv-x="505" 
d="M473 15l-16 -87h-442l15 87h443zM500 169l-21 -116l-407 158l26 144l462 158l-20 -116l-357 -113z" />
    <glyph glyph-name="greaterequal" unicode="&#x2265;" horiz-adv-x="505" 
d="M473 15l-16 -87h-442l15 87h443zM105 397l20 116l408 -158l-26 -144l-463 -158l21 116l357 113z" />
    <glyph glyph-name="filledbox" unicode="&#x25a0;" horiz-adv-x="820" 
d="M166 700h700l-92 -700h-700z" />
    <glyph glyph-name="H22073" unicode="&#x25a1;" horiz-adv-x="820" 
d="M264 590l-68 -480h480l68 480h-480zM166 700h700l-92 -700h-700z" />
    <glyph glyph-name="H18543" unicode="&#x25aa;" horiz-adv-x="520" 
d="M146 570h400l-52 -400h-400z" />
    <glyph glyph-name="H18551" unicode="&#x25ab;" horiz-adv-x="520" 
d="M235 470l-30 -200h200l30 200h-200zM142 575h410l-54 -410h-410z" />
    <glyph glyph-name="triagup" unicode="&#x25b2;" horiz-adv-x="820" 
d="M516 700l258 -700h-700z" />
    <glyph glyph-name="uni25B3" unicode="&#x25b3;" horiz-adv-x="820" 
d="M516 700l258 -700h-700zM494 503l-263 -413h406z" />
    <glyph glyph-name="uni25B6" unicode="&#x25b6;" horiz-adv-x="820" 
d="M820 350l-746 -350l92 700z" />
    <glyph glyph-name="uni25B7" unicode="&#x25b7;" horiz-adv-x="820" 
d="M820 350l-746 -350l92 700zM623 350l-384 203l-58 -406z" />
    <glyph glyph-name="triagdn" unicode="&#x25bc;" horiz-adv-x="820" 
d="M424 0l-258 700h700z" />
    <glyph glyph-name="uni25BD" unicode="&#x25bd;" horiz-adv-x="820" 
d="M424 0l-258 700h700zM446 197l263 413h-406z" />
    <glyph glyph-name="uni25C0" unicode="&#x25c0;" horiz-adv-x="820" 
d="M120 350l746 350l-92 -700z" />
    <glyph glyph-name="uni25C1" unicode="&#x25c1;" horiz-adv-x="820" 
d="M120 350l746 350l-92 -700zM317 350l384 -203l58 406z" />
    <glyph glyph-name="uni25C6" unicode="&#x25c6;" horiz-adv-x="820" 
d="M113 350l404 357l310 -357l-404 -357z" />
    <glyph glyph-name="uni25C7" unicode="&#x25c7;" horiz-adv-x="820" 
d="M253 350l186 -217l248 217l-186 217zM113 350l404 357l310 -357l-404 -357z" />
    <glyph glyph-name="lozenge" unicode="&#x25ca;" horiz-adv-x="620" 
d="M233 350l105 -222l169 222l-105 222zM113 350l269 357h70l175 -357l-269 -357h-70z" />
    <glyph glyph-name="circle" unicode="&#x25cb;" horiz-adv-x="820" 
d="M437 123q104 0 183.5 78.5t79.5 180.5q0 84 -56.5 139.5t-140.5 55.5q-104 0 -183.5 -78.5t-79.5 -180.5q0 -84 56.5 -139.5t140.5 -55.5zM110 304q0 78 33.5 152.5t89 129t130.5 88t154 33.5q134 0 223.5 -89t89.5 -222q0 -78 -33.5 -152.5t-89 -129t-130.5 -88
t-154 -33.5q-134 0 -223.5 89t-89.5 222z" />
    <glyph glyph-name="H18533" unicode="&#x25cf;" horiz-adv-x="820" 
d="M110 304q0 78 33.5 152.5t89 129t130.5 88t154 33.5q134 0 223.5 -89t89.5 -222q0 -78 -33.5 -152.5t-89 -129t-130.5 -88t-154 -33.5q-134 0 -223.5 89t-89.5 222z" />
    <glyph glyph-name="zero.dnom" horiz-adv-x="329" 
d="M140 130q-3 -22 8.5 -36t31.5 -14q19 0 35 14t19 36l14 78q4 22 -6.5 37t-30.5 15t-36.5 -15t-20.5 -37zM50 125l15 88q10 59 57 98t105 39q57 0 89.5 -39t22.5 -98l-15 -88q-11 -59 -57 -97t-103 -38q-58 0 -91.5 38.5t-22.5 96.5z" />
    <glyph glyph-name="one.dnom" horiz-adv-x="250" 
d="M283 342l-60 -344h-90l42 239l-62 -43l-40 66l118 82h92z" />
    <glyph glyph-name="two.dnom" horiz-adv-x="319" 
d="M330 224q9 53 -22.5 87.5t-85.5 34.5q-52 0 -90.5 -28.5t-60.5 -73.5l78 -29q19 41 53 41q16 0 25.5 -11t6.5 -28q-5 -28 -83 -64l-104 -51l-19 -104h264l15 86h-149l51 25q110 49 121 115z" />
    <glyph glyph-name="three.dnom" horiz-adv-x="329" 
d="M244 194l94 49l17 100h-253l-14 -82h165l-83 -51l14 -60q24 0 35 -9t8 -26q-2 -14 -15 -23.5t-31 -9.5t-28 11.5t-11 30.5l-96 -18q4 -52 37 -83t86 -31q57 0 99.5 31t51.5 79q7 39 -14 64.5t-62 27.5z" />
    <glyph glyph-name="four.dnom" horiz-adv-x="337" 
d="M139 142h65l16 92zM329 342l-35 -200h41l-14 -77h-41l-12 -67h-90l12 67h-151l16 89l172 188h102z" />
    <glyph glyph-name="five.dnom" horiz-adv-x="329" 
d="M154 206l9 54h171l15 82h-261l-30 -172l84 -29q28 26 55 26q19 0 29 -13.5t6 -34.5q-3 -20 -18 -32t-36 -12q-19 0 -30.5 10t-12.5 28l-92 -23q6 -46 39 -73t83 -27q59 0 103.5 36.5t53.5 92.5q9 49 -14.5 83.5t-67.5 34.5q-46 0 -86 -31z" />
    <glyph glyph-name="six.dnom" horiz-adv-x="330" 
d="M285 240q-15 30 -53 30q-30 0 -54 -25t-34 -67q14 20 38 32t50 12q43 0 67.5 -33t16.5 -80q-9 -51 -52 -85t-100 -34q-65 0 -94 48q-28 47 -14 123q15 84 66.5 136.5t120.5 52.5q41 0 70 -19.5t39 -54.5zM144 110q-3 -17 8 -28.5t30 -11.5q18 0 32 10.5t17 26.5
q3 17 -8 28.5t-30 11.5t-32.5 -10.5t-16.5 -26.5z" />
    <glyph glyph-name="seven.dnom" horiz-adv-x="310" 
d="M181 -2l146 250l16 94h-255l-15 -82h170l-159 -262h97z" />
    <glyph glyph-name="eight.dnom" horiz-adv-x="326" 
d="M135.5 102.5q-2.5 -14.5 9 -23.5t31 -9t34.5 9t17.5 23.5t-9 24t-31.5 9.5t-34.5 -9.5t-17 -24zM84 251q7 41 48 70t93 29t83 -29t23 -70q-9 -54 -70 -78q31 -11 45 -32t9 -49q-7 -43 -51.5 -72.5t-102 -29.5t-91.5 29.5t-26 72.5q5 28 26.5 49t55.5 32q-52 24 -42 78z
M200 208q14 0 25.5 9.5t13.5 22.5q3 13 -5 21.5t-23 8.5t-26 -8.5t-13 -21.5t6 -22.5t22 -9.5z" />
    <glyph glyph-name="nine.dnom" horiz-adv-x="330" 
d="M106 100q14 -31 52 -31q31 0 54.5 25t33.5 67q-14 -20 -38 -32t-50 -12q-43 0 -67.5 33t-16.5 80q9 51 52.5 85.5t99.5 34.5q65 0 94 -49q28 -47 14 -123q-14 -84 -66 -136t-121 -52q-41 0 -70 19t-38 53zM246 229q3 17 -8 29t-29 12q-19 0 -32.5 -11t-16.5 -27
q-3 -17 7.5 -28.5t29.5 -11.5t33 10.5t16 26.5z" />
    <glyph glyph-name="zero.numr" horiz-adv-x="329" 
d="M203 483q-4 -22 7.5 -36.5t31.5 -14.5q19 0 35 14.5t20 36.5l13 77q4 23 -6.5 37.5t-29.5 14.5q-20 0 -37 -14.5t-21 -37.5zM112 478l15 87q11 60 58 98.5t104 38.5t90 -38.5t22 -98.5l-15 -87q-11 -59 -57 -97.5t-103 -38.5q-58 0 -91.5 38.5t-22.5 97.5z" />
    <glyph glyph-name="one.numr" horiz-adv-x="250" 
d="M345 694l-60 -344h-90l42 239l-62 -43l-40 66l118 82h92z" />
    <glyph glyph-name="two.numr" horiz-adv-x="319" 
d="M392 576q10 53 -22 87.5t-86 34.5q-52 0 -90.5 -28.5t-60.5 -73.5l79 -29q18 41 52 41q17 0 26 -11t6 -28q-5 -28 -83 -64l-104 -51l-19 -104h264l15 86h-149l51 25q110 49 121 115z" />
    <glyph glyph-name="three.numr" horiz-adv-x="329" 
d="M306 545l94 50l17 99h-253l-14 -81h165l-83 -52l14 -59q24 0 35 -9.5t8 -25.5q-2 -15 -15 -24t-31 -9t-28.5 11t-10.5 31l-96 -18q4 -52 37 -83t86 -31q57 0 99.5 31t51.5 79q7 39 -14 64t-62 27z" />
    <glyph glyph-name="four.numr" horiz-adv-x="337" 
d="M201 494h65l16 92zM391 694l-35 -200h41l-14 -77h-41l-12 -67h-90l12 67h-151l16 89l172 188h102z" />
    <glyph glyph-name="five.numr" horiz-adv-x="329" 
d="M216 559l10 54h170l15 81h-261l-30 -171l85 -29q27 25 54 25q20 0 29.5 -13.5t6.5 -34.5q-4 -19 -19 -31t-36 -12q-19 0 -30.5 10t-12.5 27l-92 -23q6 -46 39 -72.5t83 -26.5q59 0 103.5 36t54.5 92q8 50 -15.5 84.5t-66.5 34.5q-47 0 -87 -31z" />
    <glyph glyph-name="six.numr" horiz-adv-x="330" 
d="M347 592q-15 30 -53 30q-30 0 -53.5 -24.5t-34.5 -67.5q15 20 38.5 32.5t49.5 12.5q43 0 67.5 -33t16.5 -80q-9 -52 -52 -86t-100 -34q-65 0 -93 48q-28 47 -15 123q15 84 66.5 136.5t120.5 52.5q41 0 70 -19t39 -54zM206 463q-3 -17 8 -29t30 -12q18 0 32 10.5t17 27.5
t-8 28.5t-30 11.5q-18 0 -32 -10.5t-17 -26.5z" />
    <glyph glyph-name="seven.numr" horiz-adv-x="310" 
d="M243 350l146 250l16 94h-255l-15 -82h170l-159 -262h97z" />
    <glyph glyph-name="eight.numr" horiz-adv-x="326" 
d="M197.5 455q-2.5 -14 9 -23.5t31 -9.5t34.5 9.5t17.5 23.5t-9 23.5t-31 9.5t-34.5 -9.5t-17.5 -23.5zM146 603q7 42 48 70.5t93 28.5t83 -28.5t23 -70.5q-9 -53 -69 -77q30 -11 44 -32.5t9 -49.5q-7 -43 -51.5 -72.5t-102 -29.5t-91.5 29.5t-26 72.5q5 28 26.5 49.5
t55.5 32.5q-52 24 -42 77zM262 561q14 0 25.5 9t14.5 23q2 13 -6 21t-23 8t-26 -8t-13 -21q-2 -14 6 -23t22 -9z" />
    <glyph glyph-name="nine.numr" horiz-adv-x="330" 
d="M168 452q14 -30 53 -30q30 0 53.5 24.5t34.5 67.5q-15 -20 -39 -32.5t-49 -12.5q-44 0 -68.5 33t-16.5 80q10 52 53 86t99 34q66 0 94 -48q28 -47 15 -123q-15 -84 -67 -136.5t-120 -52.5q-42 0 -71 19t-38 54zM308 581q4 17 -7 29t-30 12t-32.5 -10.5t-16.5 -27.5
t7.5 -28.5t29.5 -11.5t33 10.5t16 26.5z" />
    <glyph glyph-name="zero.tabl" horiz-adv-x="610" 
d="M529 422q0 82 -38 133.5t-96 51.5q-63 0 -114 -59t-66 -152l-11 -62q-6 -26 -6 -56q0 -83 38 -134.5t96 -51.5q63 0 114.5 59t65.5 151l12 64q5 28 5 56zM322 -18q-101 0 -167.5 80t-66.5 206q0 40 7 76l11 62q23 137 107.5 224t190.5 87q103 0 169.5 -80t66.5 -205
q0 -44 -9 -82l-10 -58q-22 -136 -107 -223t-192 -87z" />
    <glyph glyph-name="one.tabl" horiz-adv-x="610" 
d="M585 107l-19 -107h-522l19 107h215l83 467l-185 -126l-48 86l249 166h116l-105 -593h197z" />
    <glyph glyph-name="two.tabl" horiz-adv-x="610" 
d="M456 240q106 67 153 129.5t47 137.5q0 90 -64 147t-166 57q-94 0 -172 -55t-126 -156l102 -37q64 138 184 138q58 0 94 -32t36 -83q0 -47 -40.5 -86.5t-146.5 -102.5l-286 -170l-23 -127h522l19 107h-353z" />
    <glyph glyph-name="three.tabl" horiz-adv-x="610" 
d="M318 -11q130 0 212 75.5t82 188.5q0 70 -45 116t-123 56l227 148l16 127h-522l-12 -107h395l-234 -162l13 -77q82 0 127.5 -30t45.5 -85q0 -61 -50 -100.5t-128 -39.5q-63 0 -100 30t-42 83l-109 -35q11 -87 77.5 -137.5t169.5 -50.5z" />
    <glyph glyph-name="four.tabl" horiz-adv-x="610" 
d="M209 300h203l45 250zM593 700l-71 -400h97l-18 -107h-97l-34 -193h-110l34 193h-325l21 122l378 385h125z" />
    <glyph glyph-name="five.tabl" horiz-adv-x="610" 
d="M312 -11q125 0 210 86.5t85 212.5q0 86 -50.5 141.5t-128.5 55.5q-46 0 -96.5 -18t-92.5 -50l31 176h382l12 107h-486l-63 -357l105 -30q78 69 162 69q51 0 82 -31t31 -82q0 -72 -50.5 -121t-125.5 -49q-57 0 -91.5 28.5t-37.5 79.5l-115 -35q11 -85 74.5 -134t162.5 -49
z" />
    <glyph glyph-name="six.tabl" horiz-adv-x="610" 
d="M87 240q0 128 48.5 237t131.5 172.5t181 63.5q77 0 137.5 -33.5t86.5 -91.5l-80 -72q-20 41 -63 64.5t-97 23.5q-76 0 -134.5 -59.5t-83.5 -161.5q32 44 83 69.5t107 25.5q94 0 155 -62.5t61 -157.5q0 -116 -81.5 -196.5t-198.5 -80.5t-185 69.5t-68 189.5zM360 370
q-68 0 -114.5 -41t-46.5 -101q0 -58 44 -97.5t108 -39.5q66 0 111.5 44.5t45.5 108.5q0 55 -41 90.5t-107 35.5z" />
    <glyph glyph-name="seven.tabl" horiz-adv-x="610" 
d="M354 0l329 583l15 117h-545l-13 -108h417l-339 -592h136z" />
    <glyph glyph-name="eight.tabl" horiz-adv-x="610" 
d="M337 309q-64 0 -108.5 -32.5t-44.5 -79.5q0 -45 45 -75t112 -30q65 0 108 30.5t43 77t-44.5 78t-110.5 31.5zM151 514q0 86 72 145t177 59q102 0 170 -53.5t68 -133.5q0 -60 -38 -109.5t-102 -71.5q48 -27 74.5 -68.5t26.5 -89.5q0 -90 -76.5 -150t-189.5 -60
q-112 0 -186.5 56t-74.5 140q0 65 44.5 118.5t118.5 75.5q-40 25 -62 62t-22 80zM258 506q0 -40 38.5 -67.5t95.5 -27.5q58 0 96 28.5t38 71.5q0 41 -38.5 69t-95.5 28q-56 0 -95 -29.5t-39 -72.5z" />
    <glyph glyph-name="nine.tabl" horiz-adv-x="610" 
d="M650 460q0 -129 -48 -238t-131 -172.5t-181 -63.5q-77 0 -137.5 33.5t-86.5 90.5l79 72q20 -40 63.5 -63t96.5 -23q76 0 135 59t84 161q-33 -44 -83.5 -69t-107.5 -25q-93 0 -154 62t-61 158q0 115 81.5 195.5t198.5 80.5q116 0 184 -69.5t68 -188.5zM377 329
q68 0 114.5 41t46.5 102q0 57 -44 96.5t-108 39.5q-65 0 -111 -44.5t-46 -107.5q0 -56 41.5 -91.5t106.5 -35.5z" />
    <glyph glyph-name="zero.slsh" horiz-adv-x="648" 
d="M572 416q0 85 -43.5 138t-110.5 53q-72 0 -130 -60t-74 -155l-10 -54q-4 -26 -4 -56q0 -84 43.5 -137t110.5 -53q72 0 130 60t74 156l10 52q4 30 4 56zM345 -18q-111 0 -183.5 81.5t-72.5 208.5q0 41 7 76l9 54q24 138 115.5 226.5t206.5 88.5q111 0 183.5 -81.5
t72.5 -209.5q0 -40 -7 -76l-9 -52q-24 -139 -115.5 -227.5t-206.5 -88.5zM130 164l444 444l60 -92l-438 -437z" />
    <glyph glyph-name="a.ss01" horiz-adv-x="638" 
d="M589 0h-110l87 500h110zM345 87q75 0 126.5 53.5t51.5 128.5q0 64 -43 105.5t-109 41.5q-74 0 -125.5 -53.5t-51.5 -128.5q0 -64 43 -105.5t108 -41.5zM568 292q0 -80 -34.5 -150.5t-96 -113.5t-135.5 -43q-93 0 -156 65.5t-63 169.5q0 79 35.5 149t99 112t137.5 42
q94 0 153.5 -65.5t59.5 -165.5z" />
    <glyph glyph-name="agrave.ss01" horiz-adv-x="638" 
d="M276 727l61 63l149 -164l-58 -58zM589 0h-110l87 500h110zM345 87q75 0 126.5 53.5t51.5 128.5q0 64 -43 105.5t-109 41.5q-74 0 -125.5 -53.5t-51.5 -128.5q0 -64 43 -105.5t108 -41.5zM568 292q0 -80 -34.5 -150.5t-96 -113.5t-135.5 -43q-93 0 -156 65.5t-63 169.5
q0 79 35.5 149t99 112t137.5 42q94 0 153.5 -65.5t59.5 -165.5z" />
    <glyph glyph-name="aacute.ss01" horiz-adv-x="638" 
d="M570 699l-48 73l-190 -135l44 -69zM589 0h-110l87 500h110zM345 87q75 0 126.5 53.5t51.5 128.5q0 64 -43 105.5t-109 41.5q-74 0 -125.5 -53.5t-51.5 -128.5q0 -64 43 -105.5t108 -41.5zM568 292q0 -80 -34.5 -150.5t-96 -113.5t-135.5 -43q-93 0 -156 65.5t-63 169.5
q0 79 35.5 149t99 112t137.5 42q94 0 153.5 -65.5t59.5 -165.5z" />
    <glyph glyph-name="acircumflex.ss01" horiz-adv-x="638" 
d="M423 775l-201 -142l40 -71l163 119l121 -127l59 61l-152 157zM589 0h-110l87 500h110zM345 87q75 0 126.5 53.5t51.5 128.5q0 64 -43 105.5t-109 41.5q-74 0 -125.5 -53.5t-51.5 -128.5q0 -64 43 -105.5t108 -41.5zM568 292q0 -80 -34.5 -150.5t-96 -113.5t-135.5 -43
q-93 0 -156 65.5t-63 169.5q0 79 35.5 149t99 112t137.5 42q94 0 153.5 -65.5t59.5 -165.5z" />
    <glyph glyph-name="atilde.ss01" horiz-adv-x="638" 
d="M348 722q-92 0 -136 -130l76 -18q23 68 57 68q21 0 46 -28q24 -26 44 -36t45 -10q92 0 135 130l-74 18q-24 -64 -63 -64q-23 0 -46 26q-23 25 -41.5 34.5t-42.5 9.5zM589 0h-110l87 500h110zM345 87q75 0 126.5 53.5t51.5 128.5q0 64 -43 105.5t-109 41.5
q-74 0 -125.5 -53.5t-51.5 -128.5q0 -64 43 -105.5t108 -41.5zM568 292q0 -80 -34.5 -150.5t-96 -113.5t-135.5 -43q-93 0 -156 65.5t-63 169.5q0 79 35.5 149t99 112t137.5 42q94 0 153.5 -65.5t59.5 -165.5z" />
    <glyph glyph-name="adieresis.ss01" horiz-adv-x="638" 
d="M443 637q0 29 20 49t49 20t49 -20t20 -49t-20 -49t-49 -20t-49 20t-20 49zM223 637q0 29 20 49t49 20t49 -20t20 -49t-20 -49t-49 -20t-49 20t-20 49zM589 0h-110l87 500h110zM345 87q75 0 126.5 53.5t51.5 128.5q0 64 -43 105.5t-109 41.5q-74 0 -125.5 -53.5
t-51.5 -128.5q0 -64 43 -105.5t108 -41.5zM568 292q0 -80 -34.5 -150.5t-96 -113.5t-135.5 -43q-93 0 -156 65.5t-63 169.5q0 79 35.5 149t99 112t137.5 42q94 0 153.5 -65.5t59.5 -165.5z" />
    <glyph glyph-name="aring.ss01" horiz-adv-x="638" 
d="M417 745q-23 0 -39 -16.5t-16 -39.5q0 -20 13 -33t33 -13q23 0 39 16.5t16 39.5q0 20 -13 33t-33 13zM286 681q0 57 40 98t97 41q49 0 82.5 -32t33.5 -81q0 -57 -40 -98t-97 -41q-49 0 -82.5 32t-33.5 81zM589 0h-110l87 500h110zM345 87q75 0 126.5 53.5t51.5 128.5
q0 64 -43 105.5t-109 41.5q-74 0 -125.5 -53.5t-51.5 -128.5q0 -64 43 -105.5t108 -41.5zM568 292q0 -80 -34.5 -150.5t-96 -113.5t-135.5 -43q-93 0 -156 65.5t-63 169.5q0 79 35.5 149t99 112t137.5 42q94 0 153.5 -65.5t59.5 -165.5z" />
    <glyph glyph-name="ae.ss01" horiz-adv-x="1059" 
d="M951 312q-5 48 -42 77t-90 29q-57 0 -103.5 -33t-62.5 -89h299q0 11 -1 16zM1060 281q0 -32 -11 -70h-405q4 -56 45 -91.5t102 -35.5q47 0 87 21.5t65 60.5l89 -58q-40 -62 -98 -94t-127 -32q-104 0 -170.5 69t-66.5 177q0 119 78.5 205.5t191.5 86.5q94 0 157 -67.5
t63 -171.5zM579 0h-100l87 500h100zM345 87q75 0 126.5 53.5t51.5 127.5q0 65 -43 106.5t-108 41.5q-75 0 -126.5 -53.5t-51.5 -127.5q0 -65 43 -106.5t108 -41.5zM568 290q0 -81 -35.5 -151t-97 -112t-134.5 -42q-93 0 -155.5 66t-62.5 170q0 80 36.5 149.5t99.5 111
t136 41.5q94 0 153.5 -65.5t59.5 -167.5z" />
    <glyph glyph-name="amacron.ss01" horiz-adv-x="638" 
d="M576 665l-16 -87h-322l16 87h322zM589 0h-110l87 500h110zM345 87q75 0 126.5 53.5t51.5 128.5q0 64 -43 105.5t-109 41.5q-74 0 -125.5 -53.5t-51.5 -128.5q0 -64 43 -105.5t108 -41.5zM568 292q0 -80 -34.5 -150.5t-96 -113.5t-135.5 -43q-93 0 -156 65.5t-63 169.5
q0 79 35.5 149t99 112t137.5 42q94 0 153.5 -65.5t59.5 -165.5z" />
    <glyph glyph-name="abreve.ss01" horiz-adv-x="638" 
d="M407 574q-66 0 -109.5 39.5t-43.5 99.5q0 14 3 28h81q-1 -8 -1 -16q0 -31 22 -51t58 -20q42 0 75.5 25.5t39.5 61.5h93q-12 -67 -77 -117t-141 -50zM589 0h-110l87 500h110zM345 87q75 0 126.5 53.5t51.5 128.5q0 64 -43 105.5t-109 41.5q-74 0 -125.5 -53.5
t-51.5 -128.5q0 -64 43 -105.5t108 -41.5zM568 292q0 -80 -34.5 -150.5t-96 -113.5t-135.5 -43q-93 0 -156 65.5t-63 169.5q0 79 35.5 149t99 112t137.5 42q94 0 153.5 -65.5t59.5 -165.5z" />
    <glyph glyph-name="aogonek.ss01" horiz-adv-x="638" 
d="M477 -268q-51 0 -83.5 28.5t-32.5 73.5q0 42 22.5 72t75.5 58l27 14l5 27h78l-10 -57l-67 -35q-49 -25 -49 -64q0 -18 11 -28t29 -10q32 0 45 32l72 -23q-18 -42 -51 -65t-72 -23zM589 0h-110l87 500h110zM345 87q75 0 126.5 53.5t51.5 128.5q0 64 -43 105.5t-109 41.5
q-74 0 -125.5 -53.5t-51.5 -128.5q0 -64 43 -105.5t108 -41.5zM568 292q0 -80 -34.5 -150.5t-96 -113.5t-135.5 -43q-93 0 -156 65.5t-63 169.5q0 79 35.5 149t99 112t137.5 42q94 0 153.5 -65.5t59.5 -165.5z" />
    <glyph glyph-name="uni1EA1.ss01" horiz-adv-x="638" 
d="M233 -145q0 29 20 49t49.5 20t49 -20t19.5 -49t-19.5 -49t-49 -20t-49.5 20t-20 49zM589 0h-110l87 500h110zM345 87q75 0 126.5 53.5t51.5 128.5q0 64 -43 105.5t-109 41.5q-74 0 -125.5 -53.5t-51.5 -128.5q0 -64 43 -105.5t108 -41.5zM568 292q0 -80 -34.5 -150.5
t-96 -113.5t-135.5 -43q-93 0 -156 65.5t-63 169.5q0 79 35.5 149t99 112t137.5 42q94 0 153.5 -65.5t59.5 -165.5z" />
    <glyph glyph-name="uni1EA3.ss01" horiz-adv-x="638" 
d="M425 825q50 0 82 -30t32 -78q0 -47 -24.5 -77.5t-77.5 -61.5l-37 -20l-35 67l53 27q42 19 42 56q0 18 -12.5 29t-31.5 11q-33 0 -45 -32l-69 26q18 39 50.5 61t72.5 22zM589 0h-110l87 500h110zM345 87q75 0 126.5 53.5t51.5 128.5q0 64 -43 105.5t-109 41.5
q-74 0 -125.5 -53.5t-51.5 -128.5q0 -64 43 -105.5t108 -41.5zM568 292q0 -80 -34.5 -150.5t-96 -113.5t-135.5 -43q-93 0 -156 65.5t-63 169.5q0 79 35.5 149t99 112t137.5 42q94 0 153.5 -65.5t59.5 -165.5z" />
    <glyph glyph-name="uni1EA5.ss01" horiz-adv-x="638" 
d="M797 852l-48 73l-190 -135l44 -69zM423 775l-201 -142l40 -71l163 119l121 -127l59 61l-152 157zM589 0h-110l87 500h110zM345 87q75 0 126.5 53.5t51.5 128.5q0 64 -43 105.5t-109 41.5q-74 0 -125.5 -53.5t-51.5 -128.5q0 -64 43 -105.5t108 -41.5zM568 292
q0 -80 -34.5 -150.5t-96 -113.5t-135.5 -43q-93 0 -156 65.5t-63 169.5q0 79 35.5 149t99 112t137.5 42q94 0 153.5 -65.5t59.5 -165.5z" />
    <glyph glyph-name="uni1EA7.ss01" horiz-adv-x="638" 
d="M503 880l61 63l149 -164l-58 -58zM423 775l-201 -142l40 -71l163 119l121 -127l59 61l-152 157zM589 0h-110l87 500h110zM345 87q75 0 126.5 53.5t51.5 128.5q0 64 -43 105.5t-109 41.5q-74 0 -125.5 -53.5t-51.5 -128.5q0 -64 43 -105.5t108 -41.5zM568 292
q0 -80 -34.5 -150.5t-96 -113.5t-135.5 -43q-93 0 -156 65.5t-63 169.5q0 79 35.5 149t99 112t137.5 42q94 0 153.5 -65.5t59.5 -165.5z" />
    <glyph glyph-name="uni1EA9.ss01" horiz-adv-x="638" 
d="M652 978q50 0 82 -30t32 -78q0 -47 -24.5 -77.5t-77.5 -61.5l-37 -20l-35 67l53 27q42 19 42 56q0 18 -12.5 29t-31.5 11q-33 0 -45 -32l-69 26q18 39 50.5 61t72.5 22zM423 775l-201 -142l40 -71l163 119l121 -127l59 61l-152 157zM589 0h-110l87 500h110zM345 87
q75 0 126.5 53.5t51.5 128.5q0 64 -43 105.5t-109 41.5q-74 0 -125.5 -53.5t-51.5 -128.5q0 -64 43 -105.5t108 -41.5zM568 292q0 -80 -34.5 -150.5t-96 -113.5t-135.5 -43q-93 0 -156 65.5t-63 169.5q0 79 35.5 149t99 112t137.5 42q94 0 153.5 -65.5t59.5 -165.5z" />
    <glyph glyph-name="uni1EAB.ss01" horiz-adv-x="638" 
d="M388 955q-92 0 -136 -130l76 -18q23 68 57 68q21 0 46 -28q24 -26 44 -36t45 -10q92 0 135 130l-74 18q-24 -64 -63 -64q-23 0 -46 26q-23 25 -41.5 34.5t-42.5 9.5zM423 775l-201 -142l40 -71l163 119l121 -127l59 61l-152 157zM589 0h-110l87 500h110zM345 87
q75 0 126.5 53.5t51.5 128.5q0 64 -43 105.5t-109 41.5q-74 0 -125.5 -53.5t-51.5 -128.5q0 -64 43 -105.5t108 -41.5zM568 292q0 -80 -34.5 -150.5t-96 -113.5t-135.5 -43q-93 0 -156 65.5t-63 169.5q0 79 35.5 149t99 112t137.5 42q94 0 153.5 -65.5t59.5 -165.5z" />
    <glyph glyph-name="uni1EAD.ss01" horiz-adv-x="638" 
d="M428 775l-201 -142l40 -71l163 119l121 -127l59 61l-152 157zM233 -145q0 29 20 49t49.5 20t49 -20t19.5 -49t-19.5 -49t-49 -20t-49.5 20t-20 49zM589 0h-110l87 500h110zM345 87q75 0 126.5 53.5t51.5 128.5q0 64 -43 105.5t-109 41.5q-74 0 -125.5 -53.5t-51.5 -128.5
q0 -64 43 -105.5t108 -41.5zM568 292q0 -80 -34.5 -150.5t-96 -113.5t-135.5 -43q-93 0 -156 65.5t-63 169.5q0 79 35.5 149t99 112t137.5 42q94 0 153.5 -65.5t59.5 -165.5z" />
    <glyph glyph-name="uni1EAF.ss01" horiz-adv-x="638" 
d="M601 905l-48 73l-190 -135l44 -69zM407 574q-66 0 -109.5 39.5t-43.5 99.5q0 14 3 28h81q-1 -8 -1 -16q0 -31 22 -51t58 -20q42 0 75.5 25.5t39.5 61.5h93q-12 -67 -77 -117t-141 -50zM589 0h-110l87 500h110zM345 87q75 0 126.5 53.5t51.5 128.5q0 64 -43 105.5
t-109 41.5q-74 0 -125.5 -53.5t-51.5 -128.5q0 -64 43 -105.5t108 -41.5zM568 292q0 -80 -34.5 -150.5t-96 -113.5t-135.5 -43q-93 0 -156 65.5t-63 169.5q0 79 35.5 149t99 112t137.5 42q94 0 153.5 -65.5t59.5 -165.5z" />
    <glyph glyph-name="uni1EB1.ss01" horiz-adv-x="638" 
d="M307 933l61 63l149 -164l-58 -58zM407 574q-66 0 -109.5 39.5t-43.5 99.5q0 14 3 28h81q-1 -8 -1 -16q0 -31 22 -51t58 -20q42 0 75.5 25.5t39.5 61.5h93q-12 -67 -77 -117t-141 -50zM589 0h-110l87 500h110zM345 87q75 0 126.5 53.5t51.5 128.5q0 64 -43 105.5
t-109 41.5q-74 0 -125.5 -53.5t-51.5 -128.5q0 -64 43 -105.5t108 -41.5zM568 292q0 -80 -34.5 -150.5t-96 -113.5t-135.5 -43q-93 0 -156 65.5t-63 169.5q0 79 35.5 149t99 112t137.5 42q94 0 153.5 -65.5t59.5 -165.5z" />
    <glyph glyph-name="uni1EB3.ss01" horiz-adv-x="638" 
d="M456 1031q50 0 82 -30t32 -78q0 -47 -24.5 -77.5t-77.5 -61.5l-37 -20l-35 67l53 27q42 19 42 56q0 18 -12.5 29t-31.5 11q-33 0 -45 -32l-69 26q18 39 50.5 61t72.5 22zM407 574q-66 0 -109.5 39.5t-43.5 99.5q0 14 3 28h81q-1 -8 -1 -16q0 -31 22 -51t58 -20
q42 0 75.5 25.5t39.5 61.5h93q-12 -67 -77 -117t-141 -50zM589 0h-110l87 500h110zM345 87q75 0 126.5 53.5t51.5 128.5q0 64 -43 105.5t-109 41.5q-74 0 -125.5 -53.5t-51.5 -128.5q0 -64 43 -105.5t108 -41.5zM568 292q0 -80 -34.5 -150.5t-96 -113.5t-135.5 -43
q-93 0 -156 65.5t-63 169.5q0 79 35.5 149t99 112t137.5 42q94 0 153.5 -65.5t59.5 -165.5z" />
    <glyph glyph-name="uni1EB5.ss01" horiz-adv-x="638" 
d="M379 928q-92 0 -136 -130l76 -18q23 68 57 68q21 0 46 -28q24 -26 44 -36t45 -10q92 0 135 130l-74 18q-24 -64 -63 -64q-23 0 -46 26q-23 25 -41.5 34.5t-42.5 9.5zM407 574q-66 0 -109.5 39.5t-43.5 99.5q0 14 3 28h81q-1 -8 -1 -16q0 -31 22 -51t58 -20
q42 0 75.5 25.5t39.5 61.5h93q-12 -67 -77 -117t-141 -50zM589 0h-110l87 500h110zM345 87q75 0 126.5 53.5t51.5 128.5q0 64 -43 105.5t-109 41.5q-74 0 -125.5 -53.5t-51.5 -128.5q0 -64 43 -105.5t108 -41.5zM568 292q0 -80 -34.5 -150.5t-96 -113.5t-135.5 -43
q-93 0 -156 65.5t-63 169.5q0 79 35.5 149t99 112t137.5 42q94 0 153.5 -65.5t59.5 -165.5z" />
    <glyph glyph-name="uni1EB7.ss01" horiz-adv-x="638" 
d="M412 574q-66 0 -109.5 39.5t-43.5 99.5q0 14 3 28h81q-1 -8 -1 -16q0 -31 22 -51t58 -20q42 0 75.5 25.5t39.5 61.5h93q-12 -67 -77 -117t-141 -50zM233 -145q0 29 20 49t49.5 20t49 -20t19.5 -49t-19.5 -49t-49 -20t-49.5 20t-20 49zM589 0h-110l87 500h110zM345 87
q75 0 126.5 53.5t51.5 128.5q0 64 -43 105.5t-109 41.5q-74 0 -125.5 -53.5t-51.5 -128.5q0 -64 43 -105.5t108 -41.5zM568 292q0 -80 -34.5 -150.5t-96 -113.5t-135.5 -43q-93 0 -156 65.5t-63 169.5q0 79 35.5 149t99 112t137.5 42q94 0 153.5 -65.5t59.5 -165.5z" />
    <glyph glyph-name="G.ss02" 
d="M206 325q0 -103 64.5 -168t166.5 -65q91 0 156 50.5t85 139.5h-267l16 98h397l-68 -380h-112l23 127q-44 -69 -111.5 -107t-145.5 -38q-138 0 -226.5 93.5t-88.5 238.5q0 110 54.5 203.5t147.5 148t202 54.5q110 0 195 -59.5t114 -156.5l-106 -41q-21 67 -78.5 107
t-134.5 40q-117 0 -200 -83.5t-83 -201.5z" />
    <glyph glyph-name="Gcircumflex.ss02" 
d="M551 984l-201 -142l40 -71l163 119l121 -127l59 61l-152 157zM206 325q0 -103 64.5 -168t166.5 -65q91 0 156 50.5t85 139.5h-267l16 98h397l-68 -380h-112l23 127q-44 -69 -111.5 -107t-145.5 -38q-138 0 -226.5 93.5t-88.5 238.5q0 110 54.5 203.5t147.5 148t202 54.5
q110 0 195 -59.5t114 -156.5l-106 -41q-21 67 -78.5 107t-134.5 40q-117 0 -200 -83.5t-83 -201.5z" />
    <glyph glyph-name="Gbreve.ss02" 
d="M535 783q-66 0 -109.5 39.5t-43.5 99.5q0 14 3 28h81q-1 -8 -1 -16q0 -31 22 -51t58 -20q42 0 75.5 25.5t39.5 61.5h93q-12 -67 -77 -117t-141 -50zM206 325q0 -103 64.5 -168t166.5 -65q91 0 156 50.5t85 139.5h-267l16 98h397l-68 -380h-112l23 127
q-44 -69 -111.5 -107t-145.5 -38q-138 0 -226.5 93.5t-88.5 238.5q0 110 54.5 203.5t147.5 148t202 54.5q110 0 195 -59.5t114 -156.5l-106 -41q-21 67 -78.5 107t-134.5 40q-117 0 -200 -83.5t-83 -201.5z" />
    </font>
</defs>
</svg>
